/* XPM */
static char * diams32_05_xpm[] = {
"32 32 28 1",
" 	c #FF00000000",
".	c #FFFF11727A",
"+	c #FFFF158C94",
"@	c #FFFF19A6AE",
"#	c #FFFF1BB3BB",
"$	c #FFFF3EDBE3",
"%	c #FFFF1DC0C8",
"&	c #FFFF24D7DF",
"*	c #FFFFA6EFF3",
"=	c #FFFFFFFFFF",
"-	c #FFFF137F87",
";	c #FFFFD5FFF6",
">	c #FFFF72E5EB",
",	c #FFFF90F3E8",
"'	c #FFFF74F0E2",
")	c #FFFF58EEDC",
"!	c #FFFFA1FBE8",
"~	c #FFFF20C5B5",
"{	c #FFFF145E53",
"]	c #FFFF31D9E1",
"^	c #FFFF58E0E7",
"/	c #FFFF82F1E5",
"(	c #FFFF4AEDD9",
"_	c #FFFF1799A1",
":	c #FFFFDCF8FB",
"<	c #FFFF1AAAA7",
"[	c #FFFF1C919A",
"}	c #FFFF2CE0D8",
"                                ",
"                                ",
"                                ",
"                                ",
"            ..+@.#.$            ",
"            %&*=*@$-            ",
"          .#======;;..          ",
"          @>======;;..          ",
"        -%==,'')!!;;~~{{        ",
"        ]^==/(((!!;;~~{{        ",
"      _:==((!!!!;;!!((~~{{      ",
"      ^%==((!!!!;;!!((~~{{      ",
"      +.==((==;;==;;(((({{      ",
"      ..==((==;;==;;(((({{      ",
"    ..==((==((((!!!!<<~~<<{{    ",
"    ..==((==((((!!!!<<~~<<{{    ",
"    ..==((;;((!!!!!![[~~<<{{    ",
"    ..==((;;((!!!!!![[~~<<{{    ",
"    ..====~~!!!!!!(([[<<<<{{    ",
"    ..====~~!!!!!!(([[<<<<{{    ",
"    ..;;((((<<<<<<<<~~~~[[{{    ",
"    ..;;((((<<<<<<<<~~~~[[{{    ",
"      {{((<<~~~~~~~~<<~~{{      ",
"      {{((<<~~~~~~~~<<~~{{      ",
"      {{}}<<~~~~~~~~<<!!{{      ",
"      {{}}<<~~~~~~~~<<!!{{      ",
"        {{[[((((!!!!~~{{        ",
"        {{[[((((!!!!~~{{        ",
"          {{{{{{{{{{{{          ",
"          {{{{{{{{{{{{          ",
"                                ",
"                                "};
