/* XPM */
static char * display24_00_xpm[] = {
"24 24 157 2",
"  	c #00000000",
". 	c #FF000000",
"+ 	c #FF000000",
"@ 	c #FF060606",
"# 	c #FF000000",
"$ 	c #FF060606",
"% 	c #FF5A5A5A",
"& 	c #FF5B5B5B",
"* 	c #FF585858",
"= 	c #FF5B5B5B",
"- 	c #FF626262",
"; 	c #FF5C5C5C",
"> 	c #FF555555",
", 	c #FF595959",
"' 	c #FF5F5F5F",
") 	c #FF0D0D0D",
"! 	c #FF0C0C0C",
"~ 	c #FF0B0B0B",
"{ 	c #FF090909",
"] 	c #FF080808",
"^ 	c #FF070707",
"/ 	c #FF050505",
"( 	c #FF040404",
"_ 	c #FF0A0A04",
": 	c #FF080904",
"< 	c #FF050504",
"[ 	c #FF060604",
"} 	c #FF131310",
"| 	c #FF5B5B5B",
"1 	c #FF1A1B04",
"2 	c #FF242304",
"3 	c #FF242204",
"4 	c #FF191A04",
"5 	c #FF262405",
"6 	c #FF272406",
"7 	c #FF2D290A",
"8 	c #FF272405",
"9 	c #FF252305",
"0 	c #FF181904",
"a 	c #FF272505",
"b 	c #FF2F2D11",
"c 	c #FF595959",
"d 	c #FF262404",
"e 	c #FF252404",
"f 	c #FF292506",
"g 	c #FF2E2B10",
"h 	c #FF2B2707",
"i 	c #FF1A1A04",
"j 	c #FF292607",
"k 	c #FF2B2807",
"l 	c #FF2C2B0D",
"m 	c #FF2D2A09",
"n 	c #FF1B1D04",
"o 	c #FF202205",
"p 	c #FF2A290B",
"q 	c #FF2A2607",
"r 	c #FF252304",
"s 	c #FF212308",
"t 	c #FF1D2004",
"u 	c #FF282607",
"v 	c #FF5F5F5F",
"w 	c #FF262305",
"x 	c #FF222205",
"y 	c #FF282406",
"z 	c #FF737373",
"A 	c #FF080807",
"B 	c #FF292406",
"C 	c #FF7C7C7B",
"D 	c #FF0A0A08",
"E 	c #FF2A2707",
"F 	c #FF7B7B7A",
"G 	c #FF2B2809",
"H 	c #FF1C1D04",
"I 	c #FF202204",
"J 	c #FF777776",
"K 	c #FF262505",
"L 	c #FF7A7A78",
"M 	c #FF2F2B0D",
"N 	c #FF797977",
"O 	c #FF292707",
"P 	c #FF2A2809",
"Q 	c #FF1C1E0A",
"R 	c #FF2B290E",
"S 	c #FF2D2B0E",
"T 	c #FF302E12",
"U 	c #FF312F13",
"V 	c #FF7A7A78",
"W 	c #FF757575",
"X 	c #FF7A7A79",
"Y 	c #FF7D7D7C",
"Z 	c #FF040404",
"` 	c #FF000000",
" .	c #FF000000",
"..	c #FF050505",
"+.	c #FF000000",
"@.	c #FF020202",
"#.	c #FF040404",
"$.	c #FF070707",
"%.	c #FF090909",
"&.	c #FF0A0A0A",
"*.	c #FF0C0C0C",
"=.	c #FFB7B7B7",
"-.	c #FF9D9D9D",
";.	c #FF9C9C9C",
">.	c #FF8A8A8A",
",.	c #FF8E8E8E",
"'.	c #FFA2A2A2",
").	c #FF8F8F8F",
"!.	c #FF919191",
"~.	c #FF939393",
"{.	c #FF929292",
"].	c #FF909090",
"^.	c #FF808080",
"/.	c #FF949494",
"(.	c #FF666666",
"_.	c #FF636363",
":.	c #FF686868",
"<.	c #FF5F5F5F",
"[.	c #FF606060",
"}.	c #FF626262",
"|.	c #FF5A5A5A",
"1.	c #FF5C5C5C",
"2.	c #FF6E6E6E",
"3.	c #FF545454",
"4.	c #FF0E0E0E",
"5.	c #FFA4A4A4",
"6.	c #FF727272",
"7.	c #FF575757",
"8.	c #FF0B0B0B",
"9.	c #FF7B7B7B",
"0.	c #FF505050",
"a.	c #FFA3A3A3",
"b.	c #FF565656",
"c.	c #FF7C7C7C",
"d.	c #FF555555",
"e.	c #FF595959",
"f.	c #FF7D7D7D",
"g.	c #FF5E5E5E",
"h.	c #FF7F7F7F",
"i.	c #FF616161",
"j.	c #FF5D5D5D",
"k.	c #FF888888",
"l.	c #FF010101",
"m.	c #FF5B5B5B",
"n.	c #FF8D8D8D",
"o.	c #FF030303",
"p.	c #FF8C8C8C",
"q.	c #FF676767",
"r.	c #FF060606",
"s.	c #FF878787",
"t.	c #FF858585",
"u.	c #FF717171",
"v.	c #FF7E7E7E",
"w.	c #FF838383",
"x.	c #FF707070",
"y.	c #FF585858",
"z.	c #FFFFFFFF",
"                                                ",
"      ..+.+.+.+.+.+.+.+.+.@.#...$.%.&.*.@       ",
"    $ =.-.;.>.,.'.).!.~.{.{.!.].].).,.,.^.$     ",
"  $ /.(._._.:.<.[.}.|.1.% & * = - ; > , 2.3.+.  ",
"  4.5.' ) ! ~ { ] ^ / ( _ ( : ( < [ [ } 6.7.+.  ",
"  8.!.| < 1 2 3 4 5 6 7 8 5 9 0 a a 8 b 9.0.+.  ",
"  &.a.c [ d a a d e 8 a d e e f a a a g 9.b.+.  ",
"  $.~.- < a h d i d e e a j h a a a k l c.d.+.  ",
"  ..].= < h m d n a d a 5 o 7 a a a m p c.e.+.  ",
"  #.!.& ( a q a 7 a a a d a a a a a r s f.|.+.  ",
"  @.{.& ( a a 8 a d t d n a 5 a f d 0 u f.g.+.  ",
"  +.{.v ( a f n a 8 w o a 7 x d d e 7 a h.i.+.  ",
"  +.~.j.( t 6 d f h e e d a a n a 8 e a k.j.+.  ",
"  +.!.j./ y 8 a a n d m e a a a h w 8 m z 1.l.  ",
"  +.).(.A 5 a n B 5 a a 8 f 5 a 8 1 r 8 C m.@.  ",
"  +.n.:.D r a d f f a a 8 8 n 5 5 E 1 d F j.o.  ",
"  +.p.[.{ G a t 5 n d e d a o f e H I 5 J 1.#.  ",
"  +.>.[.~ 9 m K f 5 e d a f a a a a a 8 L q.r.  ",
"  +.k.[.! 3 a a a a d a 8 a M 5 5 8 a 8 N <.r.  ",
"  +.s.i.) 3 a 1 2 d H d 6 O P Q R S T U V <.$.  ",
"  +.t.u.W N L X F C Y v.f.s.w.f.c.x.w.f.9.b.Z   ",
"    $ g.[.<.i.g.g.}.}.j.e.m._.|.y.g.b.d.3.$     ",
"      @ $.r...#.o.@.l.+.+.+.+.+.+.+.+.+.+.      ",
"                                                "};
