/* XPM */
static char *xpm_[] = {
/* columns rows colors chars-per-pixel */
"48 48 23 1 ",
"  c #FF005500",
". c #FF005B00",
"X c #FF005C00",
"o c #FF006300",
"O c DarkGreen",
"+ c #FF006B00",
"@ c #FF006C00",
"# c #FF007200",
"$ c #FF007400",
"% c #FF007A00",
"& c #FF007D00",
"* c #FF008000",
"= c #FF008500",
"- c #FF008A00",
"; c #FF008E00",
": c #FF009000",
"> c #FF009600",
", c #FF009900",
"< c #FF009E00",
"1 c #FF00A100",
"2 c #FF00A600",
"3 c #FF00AD00",
"4 c #FF00B000",
/* pixels */
"&4&@@$O$-&#@#: $&4&@@%O$-&#@#: $&4&@@%O$-*#@#: $",
"&$-**+*+O>:&4$@#*$-**+*+O>:&4$#$&$-**O*+O>:&4$@$",
";$O+##%%&-:,@XO2;$O+#@$%&-:,@XO1;$o+##%$&-:,@XO2",
".@#*%*O%O+$*%$:O.@#*&*O%O+$*%$:O.@#*&*o%O@$*%$:O",
";+,+>,#>2.O;>O@$;+,+>,@,2.O:>O@$;+,+>,@,2.O:,O@$",
"**X;O*&=#&#+X#$&*&X;+&&=@&#+X#%&**X:+**=@&@+X#$&",
"O=:%%+#O@@1>%:*%O=:%%+#O@@1>%:*$O=;%%+#O@@1>%:*%",
"%@=#%o;@*,@+$;O>%@-#%o;+*,@+%-O>%@=$$o;+*,#+$-+:",
":=1>>+>=<>+%@&-O:=1>>+,=<>+%@&-O:=1>,+,=<>+&@&-O",
"*+1$$*>O@&&:$<%O*+1$$*>O@%&:$<$+&+1$$&>O@%%:$<$+",
"==*:+1$&3X:+%@&%=-*:+1$&3X:+$#*$=-*;+1$&3X:+%@*$",
"@,@;*+&#*%#o<OO#+,@;&+%#*&$o1OO#+,@;&@&#*&#o1Oo#",
"2*O#*&+X$%#O-;o&2*+#*&@o#%$O-:o&2&+#*%+o#%#o-:X*",
"+:.%O*+4-&:=-#:>O:.&O*+3-&:=-@:,+:.%o*+4-&:=-@>,",
";-3o<>&&O&&@:=#o;-3o<>&&O&&@:-$o;-3o<>&&O&&#:-#o",
"+&##;*&&$3O>@%#=@&#@:*&&$3O:@%@=@*@#;*&&$3o:+%@-",
"&4&@@$O$-&$@#: $&4&@@$+#-&#@#: $&4&@@%O$-*#@#: $",
"&$-*=+*+O>:&4$@#&$-**+*++::&4$@$&$-**O*+O>:&4$@$",
";$O+#@%$&-:,@X+1;$O+#@%%&-:,@X+1;$o+##%$&-:,@XO2",
"X@#*&*o&O+$*%$:O.@#*%*o%O+$*%$:o.@#*&*o%O@$*%$:O",
";+,+>,@,2X+;>O#$;+,+>,@,2.O:>O#$;+,+>,@,2.O:,O@$",
"**X;+&&=@&@+X#$&*&X;+&&=@&#+X@$&**X:+**=@&@+X#$&",
"O-:%%+#O+@1,%:*$O=:%%+#O@@1,%:*%O=;%%+#O@@1>%:*%",
"$@=#%o;+*,@+$;O>%@-#%o;+*,@+$-+:%@=$$o;+*,#+$-+:",
":=1>>+>=<>O&@&-O:=1>>+,=<>+%@&-O:=1>,+,=<>+&@&-O",
"*+2$$*>O@%&:$<$+*+1$$*>O@%&:$<$+&+1$$&>O@%%:$1$O",
"=-&;+1$&3o:+%#&$=-*:+1$&3X:+$#*$=-*;+1$&3X:+%@*%",
"@,@;&+&#*%$o<OO#+,@;&+%#*&$o1OO#+,@;&@&#*&#o1OO$",
"2*+#*&@o#%#O-;o*2*+#*&@o#%$O-:o&2&+#*%+o#%#o-;X*",
"+:.%O*+3-&:=-#:,O:.&O*+3-&:=-@:,+:.%o*+4-&:=;@:,",
"--3o<>&%O&&@:-$X;-3o<>&&O&&@:-$o;-3o<>&&O&&#:-$X",
"@&@#;*&&$3o>@$@-@&#@:*&&$3O:@%@=@*@#;*&&$3o:@%@-",
"&4&@@%O#-&#@#: $&4&@@%O$-*#@#: $&4&@@%O#-&#@#: $",
"&$;**O=++::&4$@$&$-**O*+O>:&4$@$*$-**O=++::&4$@$",
";$o+##$%&-:,@X+1;$o+##%$&-:,@XO2;$O+##$%&-:,@X+1",
".@#*%*O&O+$*%$:o.@#*&*o%O@$*%$:O.@#*%*O&O+$*%$:o",
";+,+>,#>2.O:>O#$;+,+>,@,2.O:,O@$;+,+>,#>2.O:>O#$",
"*&X;+&&=@&#+X@$&**X:+**=@&@+X#$&**X;+&&=@&#+X@$&",
"O=:%%+@O@@1,%:*%O=;%%+#O@@1>%:*%O=;%%+@O@@1,%:*%",
"%@-#%o;@*,@+$-+:%@=$$o;+*,#+$-+:$#-#%o;@*,@+$-+:",
":=1>>+,=<>+%@&-O:=2>>+,=<>+&@&-O:=1>>+,=<>+%@&-O",
"*+1$$*>O@%&:$<$+*O1$$*>O@%%:$1$O*+1$$*>O@%&:$<$+",
"=-*:+1$&3X:+$#*$=-*;+1$&3X:+%@*%=-*:+1$&3X:+$#*$",
"+,@;&+%#*&$o1OO#+,@;&+&#*&#o1OO$+,@;&+%#*&$o1OO#",
"2*+#*&@o#%$O-:o&2&+#*%+o#%#o-;X*2*+#*&@o#%$O-:o&",
"O:.&O*+3-&:=-@:,+:.%o*+4-&:=;@:,O:.&O*+3-&:=-@:,",
";-3o<>&&O&&@:-$o;-3o<>&&O&&#:-$X;-3o<>&&O&&@:-$o",
"@&#@:*&&$3O:@%@=@*@#;*&&$3o:@%@-@&@#:*&&$3O:@%@="
};
