/* XPM */
static char * nums16_02_xpm[] = {
"16 16 2 1",
" 	c #00000000",
".	c #FF00BB00",
"  ......        ",
"  ......        ",
"..      ..      ",
"..      ..      ",
"        ..      ",
"        ..      ",
"    ....        ",
"    ....        ",
"  ..            ",
"  ..            ",
"..      ..      ",
"..      ..      ",
"..........      ",
"..........      ",
"                ",
"                "};
