/* XPM */
static char * nums16_07_xpm[] = {
"16 16 2 1",
" 	c #00000000",
".	c #FFBB0000",
"..........      ",
"..........      ",
"..      ..      ",
"..      ..      ",
"        ..      ",
"        ..      ",
"      ..        ",
"      ..        ",
"    ..          ",
"    ..          ",
"    ..          ",
"    ..          ",
"    ..          ",
"    ..          ",
"                ",
"                "};
