/* XPM */
static char *xpm_[] = {
/* columns rows colors chars-per-pixel */
"48 48 19 1 ",
"  c black",
". c #FF070707",
"X c #FF090909",
"o c #FF0C0C0C",
"O c #FF111111",
"+ c #FF222222",
"@ c #FF282828",
"# c #FF2C2C2C",
"$ c gray21",
"% c #FF3C3C3C",
"& c #FF4A3C20",
"* c #FF625029",
"= c #FF735D31",
"- c #FF4B4B4B",
"; c gray39",
": c #FF8B7141",
"> c #FF9C794A",
", c #FFB38C51",
"< c #FFA4A4A4",
/* pixels */
"&&&&&&&&&&&&&&&&&&&&&&&&&&&&&&&&&&&&&&&&&&&&&&&&",
"&&&&&&&&&&&&&&&&&&&&&&&&&&&&&&&&&&&&&&&&&&&&&&&&",
"&&&&&&&&&&&&&&&&&&&&&&&&&&&&&&&&&&&&&&&&&&&&&&&&",
"***:::>>>::::::>>>>>>>>>:::>>>::::::>>>:::>>>***",
"***:::>>>::::::>>>>>>>>>:::>>>::::::>>>:::>>>***",
"***:::>>>::::::>>>>>>>>>:::>>>::::::>>>:::>>>***",
"&&&===&&&*********===>>>>>>&&&*********===:::&&&",
"&&&===&&&*********===>>>>>>&&&*********===:::&&&",
"&&&===&&&*********===>>>>>>&&&*********===:::&&&",
"***>>>***         ,,,>>>:::*** X       ,,,:::***",
"***>>>***      @  ,,,>>>:::***    .  + ,,,:::***",
"***>>>***         ,,,>>>:::***         ,,,:::***",
"***:::***         ,,,>>>:::***         ,,,:::***",
"***:::*** .       ,,,>>>:::*** o- .    ,,,:::***",
"***:::***         ,,,>>>:::***         ,,,:::***",
"***:::***        o,,,>>>:::***   X    ;,,,>>>***",
"***:::***         ,,,>>>:::***      X  ,,,>>>***",
"***:::***         ,,,>>>:::***       O ,,,>>>***",
"&&&***===,,,>>>,,,>>>>>>:::===,,,,,,,,,:::***&&&",
"&&&***===,,,>>>,,,>>>>>>:::===,,,,,,,,,:::***&&&",
"&&&***===,,,>>>,,,>>>>>>:::===,,,,,,,,,:::***&&&",
"***>>>:::>>>>>>>>>:::>>>:::>>>>>>>>>>>>>>>>>>***",
"***>>>:::>>>>>>>>>:::>>>:::>>>>>>>>>>>>>>>>>>***",
"***>>>:::>>>>>>>>>:::>>>:::>>>>>>>>>>>>>>>>>>***",
"***>>>>>>>>>:::::::::>>>>>>:::>>>:::>>>::::::***",
"***>>>>>>>>>:::::::::>>>>>>:::>>>:::>>>::::::***",
"***>>>>>>>>>:::::::::>>>>>>:::>>>:::>>>::::::***",
"***:::&&&*********===>>>:::&&&*********===>>>***",
"***:::&&&*********===>>>:::&&&*********===>>>***",
"***:::&&&*********===>>>:::&&&*********===>>>***",
"***>>>*** $  #    ,,,>>>>>>***    .    ,,,>>>***",
"***>>>***  . . .  ,,,>>>>>>***         ,,,>>>***",
"***>>>***      .  ,,,>>>>>>***     o   ,,,>>>***",
"&&&:::&&& .     O >>>>>>:::***  o      >>>:::&&&",
"&&&:::&&&    X    >>>>>>:::***      .  >>>:::&&&",
"&&&:::&&&         >>>>>>:::***    .    >>>:::&&&",
"***:::***         ,,,>>>:::***   %     ,,,>>>***",
"***:::*** o.      ,,,>>>:::***.        ,,,>>>***",
"***:::***<        ,,,>>>:::***      O  ,,,>>>***",
"***>>>===>>>,,,,,,>>>>>>:::===>>>,,,,,,,,,:::***",
"***>>>===>>>,,,,,,>>>>>>:::===>>>,,,,,,,,,:::***",
"***>>>===>>>,,,,,,>>>>>>:::===>>>,,,,,,,,,:::***",
"***:::>>>>>>>>>>>>:::>>>:::>>>>>>>>>>>>>>>:::***",
"***:::>>>>>>>>>>>>:::>>>:::>>>>>>>>>>>>>>>:::***",
"***:::>>>>>>>>>>>>:::>>>:::>>>>>>>>>>>>>>>:::***",
"&&&&&&&&&&&&&&&&&&&&&&&&&&&&&&&&&&&&&&&&&&&&&&&&",
"&&&&&&&&&&&&&&&&&&&&&&&&&&&&&&&&&&&&&&&&&&&&&&&&",
"&&&&&&&&&&&&&&&&&&&&&&&&&&&&&&&&&&&&&&&&&&&&&&&&"
};
