/* XPM */
static char *xpm_[] = {
/* columns rows colors chars-per-pixel */
"48 48 35 1 ",
"  c black",
". c #FF040404",
"X c #FF090909",
"o c #FF0C0C0C",
"O c #FF111111",
"+ c gray8",
"@ c #FF1B1B1B",
"# c #FF1D1D1D",
"$ c #FF232323",
"% c #FF272727",
"& c gray16",
"* c #FF2D2D2D",
"= c #FF313131",
"- c #FF373737",
"; c #FF393939",
": c gray24",
"> c #FF4A3C20",
", c #FF625029",
"< c gray26",
"1 c #FF434343",
"2 c gray29",
"3 c #FF4B4B4B",
"4 c gray32",
"5 c #FF5A5A5A",
"6 c gray39",
"7 c DimGray",
"8 c #FF8B7141",
"9 c #FF9C794A",
"0 c #FF838383",
"q c gray52",
"w c #FF888888",
"e c gray58",
"r c #FFA4A4A4",
"t c gray67",
"y c #FFBBBBBB",
/* pixels */
"  @X   .     #X            X   o    $     >>>>>>",
"    <        O.          o         &  X   >>>>>>",
"  .        .    t     .           X  %    >>>>>>",
"    .    X          $       .          <  999,,,",
"         &              4    .         XX 999,,,",
"  2  <       O     X  &                   999,,,",
"   @                      .               888>>>",
"           X@     +  . X  .               888>>>",
" .    &           X               6       888>>>",
"    ..                  .  . . X        . 888,,,",
"    .          &                  .  %    888,,,",
"  .    X                                 X888,,,",
" .                    .    7 *            888,,,",
"      .   X              X     o2 .       888,,,",
"                          . X             888,,,",
"      =          o<     .  #.    o    6   999,,,",
".   .               *        o    . X  o  999,,,",
"                          o          o  .O999,,,",
"                 X    X      O         X  ,,,>>>",
"O                  X   6        $     e   ,,,>>>",
"   O       2       5         o            ,,,>>>",
"    X                   .              XX 999,,,",
"      O       X           .            O  999,,,",
":         o             .                 999,,,",
"   X       X                   .          888,,,",
"   o       .      O   O X     .           888,,,",
" .   <                o.                  888,,,",
"-              ;             o  o.   o    999,,,",
"      o o              *         &        999,,,",
"       .    #.  4        .        X   O   999,,,",
"          ;  *            o       .    y. 999,,,",
" X         . . .                       X  999,,,",
"               .                   o      999,,,",
"        . .     O   O .         o       X 888>>>",
"  +   $.     X       .              .     888>>>",
"     o             .   @ .  O     .     X 888>>>",
"      % r              .    .    :       X999,,,",
"          o            X o+   X           999,,,",
"  q%     r.           X  X . #      O     999,,,",
"    o                                     888,,,",
"      w               o                   888,,,",
"               O     O          O  o  o   888,,,",
"        .  . . .               0     o   o888,,,",
" o   X         X                 #5    X  888,,,",
"                      X.          X       888,,,",
"       $      o     ;    . .    q      .  >>>>>>",
"           #  .        #     %   .   .    >>>>>>",
"   .   X                          <   o& $>>>>>>"
};
