/* XPM */
static char *xpm_[] = {
/* columns rows colors chars-per-pixel */
"48 48 9 1 ",
"  c #FF294E9B",
". c #FF2A52A3",
"X c #FF2F5BB2",
"o c #FF3360BD",
"O c #FF3362C0",
"+ c #FF3462C0",
"@ c #FF3463C1",
"# c #FF3D73DF",
"$ c #FF4076E5",
/* pixels */
"XXX.........         ...............XXXOOOooo@@@",
"XXX.........         ...............XXXOOOooo@@@",
"XXX.........         ...............XXXOOOooo@++",
"            ..................                  ",
"            ..................                  ",
"            ..................                  ",
"......                  ......XXXXXXXXX...      ",
"......                  ......XXXXXXXXX...      ",
"......                  ......XXXXXXXXX...      ",
"...         ...XXXXXX.........XXXXXX............",
"...         ...XXXXXX.........XXXXXX............",
"...         ...XXXXXX.........XXXXXX............",
"      .........            ...         .........",
"      .........            ...         .........",
"      .........            ...         .........",
"      ...   ......XXX.........XXX......         ",
"      ...   ......XXX.........XXX......         ",
"      ...   ......XXX.........XXX......         ",
"XXX.................................+++OOO$$$XXX",
"XXX.................................+++OOO$$$XXX",
"XXX.................................+++OOO$$$XXX",
"+++ooo+++.........XXX.....................XXXXXX",
"+++ooo+++.........XXX.....................XXXXXX",
"+++ooo+++.........XXX.....................XXXXXX",
"$$$$$$+++XXXOOO$$$+++XXX...XXX...XXXXXX......+++",
"$$$$$$+++XXXOOO$$$+++XXX...XXX...XXXXXX......+++",
"$$$$$$+++XXXOOO$$$+++XXX...XXX...XXXXXX......+++",
"                                       ...      ",
"                                       ...      ",
"                                       ...      ",
"...            ...         ......XXX............",
"...            ...         ......XXX............",
"...            ...         ......XXX............",
"                                             ...",
"                                             ...",
"                                             ...",
"                                 ...            ",
"                                 ...            ",
"                                 ...            ",
"...            ...............XXXXXX...   ...   ",
"...            ...............XXXXXX...   ...   ",
"...            ...............XXXXXX...   ...   ",
"                     ......XXX$$$$$$oooXXX...   ",
"                     ......XXX$$$$$$oooXXX...   ",
"                     ......XXX$$$$$$oooXXX...   ",
"...XXX......+++######XXX......XXX...............",
"...XXX......+++######XXX......XXX...............",
"...XXX......+++######XXX......XXX..............."
};
