/* XPM */
static char *xpm_[] = {
/* columns rows colors chars-per-pixel */
"48 48 9 1 ",
"  c #FF294E9B",
". c #FF2A52A3",
"X c #FF2D58AA",
"o c #FF2F5BB2",
"O c #FF3360BC",
"+ c #FF3362C0",
"@ c #FF3462C0",
"# c #FF3463C1",
"$ c #FF4076E5",
/* pixels */
"@@@ooo...         ...ooooooooo.........oooOOO###",
"@@@ooo...         ...ooooooooo.........oooOOO###",
"@@@ooo...         ...ooooooooo.........oooOOO#@@",
"   ...   ...oooooo...                           ",
"   ...   ...oooooo...                           ",
"   ...   ...oooooo...                           ",
"............   ...         ...oooooo@@@.........",
"............   ...         ...oooooo@@@.........",
"............   ...         ...oooooo@@@.........",
"...            .................................",
"...            .................................",
"...            .................................",
"      .........                     ...oooXXX...",
"      .........                     ...oooXXX...",
"      .........                     ...oooXXX...",
"               ...ooo............   ...         ",
"               ...ooo............   ...         ",
"               ...ooo............   ...         ",
"............      ......oooooo......XXX+++$$$ooo",
"............      ......oooooo......XXX+++$$$ooo",
"............      ......oooooo......XXX+++$$$ooo",
"ooo@@@ooo.........@@@.........         ...@@@ooo",
"ooo@@@ooo.........@@@.........         ...@@@ooo",
"ooo@@@ooo.........@@@.........         ...@@@ooo",
"oooooooooooo$$$$$$ooo.........ooo+++$$$ooo...ooo",
"oooooooooooo$$$$$$ooo.........ooo+++$$$ooo...ooo",
"oooooooooooo$$$$$$ooo.........ooo+++$$$ooo...ooo",
"...                        ............ooo......",
"...                        ............ooo......",
"...                        ............ooo......",
"                     ...            .........   ",
"                     ...            .........   ",
"                     ...            .........   ",
"                                                ",
"                                                ",
"                                                ",
"......   ...   ...   ......                     ",
"......   ...   ...   ......                     ",
"......   ...   ...   ......                     ",
"ooo...               .........oooooo......   ...",
"ooo...               .........oooooo......   ...",
"ooo...               .........oooooo......   ...",
"                        ......oooXXXOOOooo...   ",
"                        ......oooXXXOOOooo...   ",
"                        ......oooXXXOOOooo...   ",
"............ooooooooooooooo@@@@@@......oooooo...",
"............ooooooooooooooo@@@@@@......oooooo...",
"............ooooooooooooooo@@@@@@......oooooo..."
};
