/* XPM */
static char *xpm_[] = {
/* columns rows colors chars-per-pixel */
"48 48 9 1 ",
"  c #FF294E9B",
". c #FF2A52A3",
"X c #FF2D58AA",
"o c #FF2F5BB2",
"O c #FF3360BC",
"+ c #FF3362C0",
"@ c #FF3462C0",
"# c #FF3463C1",
"$ c #FF4076E5",
/* pixels */
"XXX.........         ...............ooo@@@OOO###",
"XXX.........         ...............ooo@@@OOO###",
"XXX.........         ...............ooo@@@OOO#@@",
"            ..................                  ",
"            ..................                  ",
"            ..................                  ",
"......                  ......ooooooooo.........",
"......                  ......ooooooooo.........",
"......                  ......ooooooooo.........",
"...         ...oooooo.........oooooo............",
"...         ...oooooo.........oooooo............",
"...         ...oooooo.........oooooo............",
"      .........            ...         ...ooo...",
"      .........            ...         ...ooo...",
"      .........            ...         ...ooo...",
"               ...ooo.........ooo...            ",
"               ...ooo.........ooo...            ",
"               ...ooo.........ooo...            ",
"....................................@@@+++$$$ooo",
"....................................@@@+++$$$ooo",
"....................................@@@+++$$$ooo",
"@@@OOO@@@.........ooo............   ......oooooo",
"@@@OOO@@@.........ooo............   ......oooooo",
"@@@OOO@@@.........ooo............   ......oooooo",
"$$$$$$@@@ooo$$$OOO+++ooo.........oooooo......@@@",
"$$$$$$@@@ooo$$$OOO+++ooo.........oooooo......@@@",
"$$$$$$@@@ooo$$$OOO+++ooo.........oooooo......@@@",
"                                       ...      ",
"                                       ...      ",
"                                       ...      ",
"...            ...         .....................",
"...            ...         .....................",
"...            ...         .....................",
"                                             ...",
"                                             ...",
"                                             ...",
"                                                ",
"                                                ",
"                                                ",
"...            ...............oooooo...   ...   ",
"...            ...............oooooo...   ...   ",
"...            ...............oooooo...   ...   ",
"                        ...ooo$$$$$$OOOooo...   ",
"                        ...ooo$$$$$$OOOooo...   ",
"                        ...ooo$$$$$$OOOooo...   ",
"...ooo......@@@$$$$$$ooo......ooo.........ooo...",
"...ooo......@@@$$$$$$ooo......ooo.........ooo...",
"...ooo......@@@$$$$$$ooo......ooo.........ooo..."
};
