/* XPM */
static char *xpm_[] = {
/* columns rows colors chars-per-pixel */
"48 48 9 1 ",
"  c #FF294E9B",
". c #FF2A52A3",
"X c #FF2D58AA",
"o c #FF2F5BB2",
"O c #FF3360BC",
"+ c #FF3360BD",
"@ c #FF3362C0",
"# c #FF3462C0",
"$ c #FF4076E5",
/* pixels */
"###ooo...   ...   ...ooo###XXXooo......oooOOOO@O",
"###ooo...   ...   ...ooo###XXXooo......oooOOOOOO",
"###ooo...   ...   ...ooo###XXXooo......oooOOOOOO",
"   .........ooo###...                           ",
"   .........ooo###...                           ",
"   .........ooo###...                           ",
"ooooooooo.........         ...oooooo$$$......ooo",
"ooooooooo.........         ...oooooo$$$......ooo",
"ooooooooo.........         ...oooooo$$$......ooo",
"ooo...                           ...............",
"ooo...                           ...............",
"ooo...                           ...............",
"...      ......                  .........oooooo",
"...      ......                  .........oooooo",
"...      ......                  .........oooooo",
"   ...         ...ooo......                     ",
"   ...         ...ooo......                     ",
"   ...         ...ooo......                     ",
"...............   ......oooooo......###@@@$$$ooo",
"...............   ......oooooo......###@@@$$$ooo",
"...............   ......oooooo......###@@@$$$ooo",
"...............ooo###ooo...            ...###ooo",
"...............ooo###ooo...            ...###ooo",
"...............ooo###ooo...            ...###ooo",
"ooo......ooo###oooooo.........ooo$$$$$$ooooooooo",
"ooo......ooo###oooooo.........ooo$$$$$$ooooooooo",
"ooo......ooo###oooooo.........ooo$$$$$$ooooooooo",
"......                     ............ooo...ooo",
"......                     ............ooo...ooo",
"......                     ............ooo...ooo",
"                                    .........   ",
"                                    .........   ",
"                                    .........   ",
"                                                ",
"                                                ",
"                                                ",
"............   ............                     ",
"............   ............                     ",
"............   ............                     ",
"ooo...            .........oooooo...............",
"ooo...            .........oooooo...............",
"ooo...            .........oooooo...............",
"                        ...ooo...oooOOOooo...   ",
"                        ...ooo...oooOOOooo...   ",
"                        ...ooo...oooOOOooo...   ",
"...............ooooooooo###$$$$$$ooooooooo......",
"...............ooooooooo###$$$$$$ooooooooo......",
"...............ooooooooo###$$$$$$ooooooooo......"
};
