/* XPM */
static char *_59cfa17637c469cadc72464e2c0cf06pWKMOSbMudeFsm02[] = {
/* columns rows colors chars-per-pixel */
"32 32 17 1 ",
"  c #00000000",
". c #00000000",
"X c #00000000",
"o c #00000000",
"O c #00000000",
"+ c #00000000",
"@ c #00000000",
"# c #00000000",
"$ c #00000000",
"% c #00000000",
"& c #00000000",
"* c #00000000",
"= c #FF080808",
"- c #FF3F3F74",
"; c #FFFCE0A8",
": c #FFF83800",
"> c #FFFFFFFF",
/* pixels */
"      ..XXooXXOO++@@XXXX..      ",
"      ..XXooXXOO++@@XXXX..      ",
"        ....##======##....      ",
"        ....##======##....      ",
"      ..$$====------====$$..    ",
"      ..$$====------====$$..    ",
"      ..==--------------==..    ",
"      ..==--------------==..    ",
"      ..==--------------==..    ",
"      ..==--------------==..    ",
"      ..==--------------==..    ",
"      ..==--------------==..    ",
"    ..%%==--------------==%%..  ",
"    ..%%==--------------==%%..  ",
"    ..==;;--------------;;==..  ",
"    ..==;;--------------;;==..  ",
"    ..%%==--------------==%%..  ",
"    ..%%==--------------==%%..  ",
"    ..&&====;;;;;;;;;;====&&..  ",
"    ..&&====;;;;;;;;;;====&&..  ",
"  ..**==::::============::==..  ",
"  ..**==::::============::==..  ",
"  ..==;;::==::::::::::======..  ",
"  ..==;;::==::::::::::======..  ",
"  ..==;;================;;==..  ",
"  ..==;;================;;==..  ",
"  ..====++==::::==::::====**..  ",
"  ..====++==::::==::::====**..  ",
"  ........==::::==;;==&&....    ",
"  ........==::::==;;==&&....    ",
"        ..==;;;;====**..        ",
"        ..==;;;;====**..        "
};
