/* XPM */
static char * bricks48_00_xpm[] = {
"48 48 9 1",
" 	c #FFFFB1624D",
".	c #FFFF9B5643",
"+	c #FFFF8B6E67",
"@	c #FFFFC66851",
"#	c #FFFFA2867D",
"$	c #FFFF8F503F",
"%	c #FFFF7C4536",
"&	c #FFFF733F31",
"*	c #FFFFA9948D",
"      ...+++@@@@@@@@@         ...###@@@         ",
"      ...+++@@@@@@@@@         ...###@@@         ",
"      ...+++@@@@@@@@@         ...###@@@         ",
"......$$$###%%%$$$............$$$###%%%.........",
"......$$$###%%%$$$............$$$###%%%.........",
"......$$$###%%%$$$............$$$###%%%.........",
"%%%&&&&&&***&&&&&&$$$$$$%%%&&&&&&###&&&$$$%%%%%%",
"%%%&&&&&&***&&&&&&$$$$$$%%%&&&&&&###&&&$$$%%%%%%",
"%%%&&&&&&***&&&&&&$$$$$$%%%&&&&&&###&&&$$$%%%%%%",
"++++++###***###++++++++++++######***###+++++++++",
"++++++###***###++++++++++++######***###+++++++++",
"++++++###***###++++++++++++######***###+++++++++",
"@@@@@@      ...   ...###@@@         ...   ...+++",
"@@@@@@      ...   ...###@@@         ...   ...+++",
"@@@@@@      ...   ...###@@@         ...   ...+++",
"%%%............$$$%%%###%%%$$$$$$$$$$$$$$$%%%###",
"%%%............$$$%%%###%%%$$$$$$$$$$$$$$$%%%###",
"%%%............$$$%%%###%%%$$$$$$$$$$$$$$$%%%###",
"%%%$$$...%%%%%%%%%&&&***&&&&&&%%%$$$$$$%%%&&&###",
"%%%$$$...%%%%%%%%%&&&***&&&&&&%%%$$$$$$%%%&&&###",
"%%%$$$...%%%%%%%%%&&&***&&&&&&%%%$$$$$$%%%&&&###",
"###++++++++++++######***######++++++++++++###***",
"###++++++++++++######***######++++++++++++###***",
"###++++++++++++######***######++++++++++++###***",
"      ...###@@@@@@@@@   ...   ...###@@@@@@      ",
"      ...###@@@@@@@@@   ...   ...###@@@@@@      ",
"      ...###@@@@@@@@@   ...   ...###@@@@@@      ",
"......$$$###$$$...............%%%###$$$.........",
"......$$$###$$$...............%%%###$$$.........",
"......$$$###$$$...............%%%###$$$.........",
"%%%%%%&&&###%%%%%%$$$$$$%%%%%%&&&***%%%$$$$$$$$$",
"%%%%%%&&&###%%%%%%$$$$$$%%%%%%&&&***%%%$$$$$$$$$",
"%%%%%%&&&###%%%%%%$$$$$$%%%%%%&&&***%%%$$$$$$$$$",
"+++######***###+++++++++++++++###***###+++++++++",
"+++######***###+++++++++++++++###***###+++++++++",
"+++######***###+++++++++++++++###***###+++++++++",
"...         ...   ...+++@@@         ...   ...###",
"...         ...   ...+++@@@         ...   ...###",
"...         ...   ...+++@@@         ...   ...###",
"%%%...............$$$###$$$...............%%%###",
"%%%...............$$$###$$$...............%%%###",
"%%%...............$$$###$$$...............%%%###",
"&&&%%%%%%%%%%%%%%%&&&***&&&%%%%%%%%%%%%%%%&&&***",
"&&&%%%%%%%%%%%%%%%&&&***&&&%%%%%%%%%%%%%%%&&&***",
"&&&%%%%%%%%%%%%%%%&&&***&&&%%%%%%%%%%%%%%%&&&***",
"###+++++++++++++++###***######+++++++++###******",
"###+++++++++++++++###***######+++++++++###******",
"###+++++++++++++++###***######+++++++++###******"};
