/* XPM */
static char *_2164f06f1e64a7ca5997d3042f3b15d05ngwlz2SBysxWQq[] = {
/* columns rows colors chars-per-pixel */
"64 64 124 2 ",
"   c #723D2E",
".  c #743F30",
"X  c #764032",
"o  c #7C4435",
"O  c #7F4738",
"+  c #774A3E",
"@  c #794A3E",
"#  c #7E4F42",
"$  c #7E5144",
"%  c #804737",
"&  c #834837",
"*  c #804738",
"=  c #854939",
"-  c #8C4E3D",
";  c #904F3E",
":  c #8F503F",
">  c #91503F",
",  c #98513F",
"<  c #804F42",
"1  c #825346",
"2  c #8A5547",
"3  c #845548",
"4  c #8C5749",
"5  c #87584B",
"6  c #8E594A",
"7  c #945241",
"8  c #9A5643",
"9  c #9F5845",
"0  c #935D4E",
"q  c #9A5E4D",
"w  c #885F54",
"e  c #935F50",
"r  c #A05743",
"t  c #A25A46",
"y  c #A95C47",
"u  c #A65C49",
"i  c #AA5E4A",
"p  c #B05F4A",
"a  c #9C604F",
"s  c #8A6257",
"d  c #86645B",
"f  c #8A665D",
"g  c #8C685F",
"h  c #956153",
"j  c #9B6252",
"k  c #996658",
"l  c #90695F",
"z  c #AE604B",
"x  c #AF614C",
"c  c #B0604B",
"v  c #B7604B",
"b  c #B1624D",
"n  c #B6634E",
"m  c #B7644E",
"M  c #B8634D",
"N  c #BC644D",
"B  c #BE654E",
"V  c #A36453",
"C  c #AA6352",
"Z  c #AA6654",
"A  c #A36857",
"S  c #A96856",
"D  c #AD6C5A",
"F  c #B16654",
"G  c #BE6650",
"H  c #B46956",
"J  c #B96B57",
"K  c #B06A58",
"L  c #B26D5B",
"P  c #BB6E5B",
"I  c #B4705E",
"U  c #BD705D",
"Y  c #BF715D",
"T  c #8B6960",
"R  c #8D6B62",
"E  c #8B6F69",
"W  c #946B61",
"Q  c #906C63",
"!  c #936C62",
"~  c #996D63",
"^  c #947166",
"/  c #9B7167",
"(  c #947369",
")  c #95746B",
"_  c #97766C",
"`  c #9A766B",
"'  c #99776D",
"]  c #97786E",
"[  c #99786D",
"{  c #9A786D",
"}  c #9D796F",
"|  c #9B7A70",
" . c #9F7B70",
".. c #9C7D73",
"X. c #9E7C72",
"o. c #A37B6F",
"O. c #B27160",
"+. c #BD7360",
"@. c #A47E72",
"#. c #A77E72",
"$. c #A87F73",
"%. c #C2664F",
"&. c #C26750",
"*. c #C36750",
"=. c #C76951",
"-. c #C86952",
";. c #C0715D",
":. c #C17460",
">. c #9D8077",
",. c #9D8179",
"<. c #9F837A",
"1. c #AB8175",
"2. c #A1857D",
"3. c #A9867C",
"4. c #A3887F",
"5. c #AC897E",
"6. c #B1897E",
"7. c #A58B83",
"8. c #AC8A80",
"9. c #A68F88",
"0. c #B08B81",
"q. c #A6918A",
"w. c #A9948D",
"e. c #AB9790",
/* pixels */
"b m &.-.-.&.n b b b b i t 0 g ~ J -.-.&.m b b b b m &.&.m b b m &.-.-.=.=.&.n b b b b i t j  .1.Y -.-.-.-.&.m b b b b b b b b b ",
"i c M B &.G n b z i i u 8 0 g W C v M n z i i i i b B G n x z c M B B B &.G n b z i i u 8 j  .@.K v M B B M c i i z b b z i i i ",
"t t t i b m b z t t t 8 7 0 g f 4 ; 8 8 t t t t t u b m n z t t t t t i b m b z t t t 8 7 e  .} 0 > r t t t t t t t z x u t t t ",
"8 8 8 8 u i i i t 9 8 8 > 6 Q T $ o - 7 8 8 9 9 8 9 u i i i 9 8 8 8 9 t i i i i 9 8 8 8 > 0  .' 1 % > 8 8 8 8 8 9 t i i 9 8 8 8 ",
"8 8 7 7 8 t t t i i 9 8 > 0 ` ( 1 o - 7 8 t i i 9 8 9 t t 9 8 8 8 9 i i t t t 9 8 8 8 8 > 0  .' 3 % > 8 7 7 8 9 i i t 9 8 8 8 8 ",
"8 8 7 7 8 8 8 9 i i 9 7 > 0  .[ 5 % - 7 7 8 i i t 8 8 8 8 8 8 8 8 8 i i 9 8 8 8 8 8 8 7 > 0  .' 5 % > 8 7 7 8 9 u u 9 8 8 8 8 8 ",
"7 7 8 8 8 8 8 8 t 8 8 > ; 0  .' 5 % - 7 7 7 8 9 8 8 7 7 8 8 8 8 7 7 8 t 8 8 8 8 7 7 7 > ; 0  .' 5 o - 7 8 8 8 8 8 8 8 8 8 8 7 7 ",
"7 7 8 8 8 8 8 8 8 7 - - = 6 ..| 5 o = - - 7 7 8 8 8 7 7 8 8 8 8 7 7 7 8 8 8 8 8 7 7 > - = 6 } [ 5 o - 7 8 8 8 8 7 7 8 8 8 8 7 : ",
"8 8 7 7 7 7 7 7 7 - = o X 5 >.>.5 o o = - > 7 7 7 7 8 8 8 8 8 8 8 8 7 7 7 7 7 7 8 8 7 - o 1 ' [ 5 % - 7 7 7 8 8 8 8 7 7 7 7 > : ",
"> > : : : - - - - = O X . 1 <.<.5 X o O = - - > 7 7 8 8 8 8 8 8 8 8 7 7 > - - - > 7 - = X 1 ' ' 3 o = - - 7 8 8 8 8 7 - - - - - ",
"o * - 2 > - = * * * o X . 1 <.<.1 X o o O = - 7 8 8 7 7 7 7 7 7 8 8 8 8 7 - = * * * * o o 3 [ ' 1 X o = - 7 8 8 7 7 > - = o o o ",
"  X * - - = o o o o o X   1 <.<.1   X o o % - > > > - - - - - > 7 8 7 > - = o o o X X X X 3 ' _ $   X o = - 7 7 > - - = o o . . ",
"  . X o o o o o X . .     1 <.<.1     X X % - - = * % % % = - > > - = * % o o X X . .     1 ' _ $   X o o = - > : - = o o X .   ",
"+ + + + # # # $ $ $ $ $ $ f 2.2.s # $ $ # 1 2 2 1 # # # # 1 2 4 4 2 1 $ 1 5 5 1 $ $ $ $ $ s ....w $ 1 3 1 1 2 6 6 2 1 # # # @ + ",
"d d d d d d d T ( _ _ ] ..<.q.9...) _ ( T f f f d d d d d f f f f f d T ( [ ' ' _ ) ) ] ..<.9.7..._ ' ( T d f f f f d d d d d d ",
"~ ~ ~ ~ ! W l ~ o.1.1.1.6.0.5.3.1.@.@.[ ! W W ! ~ ~ ~ Q W R ( ( / ~ ~ / o.@.@.$.1.1.1.1.5.8.5.3.@.@.@.} / Q ~ ~ ~ ~ Q W W R E E ",
"J J J H Z V q V H ;.;.;.:.+.I D D S V j q q V Z H J J F u k [ @.O.J J H K D D L Y ;.;.Y I L L S V j j V Z Z H J J H Z V q h R E ",
"B B %.B c i t t v B B B B v i i c i t 8 8 9 i b B &.&.v 8 0 } @.K v %.B n c i p M B B M p i c i t 8 8 8 i c M B %.B m i 8 0 g E ",
"t i b b t t i i y t t t t t t t i b z i 9 8 9 t b M M i - 4 [ } 0 , i M n i t t t t t t t t i b z i 8 8 9 t t i b m n u - 1 f E ",
"> 8 i i t 9 i i t 9 8 8 8 8 9 t i i z i 9 8 8 9 u i b t = 3 ' ' 1 = 8 i i i t 9 8 8 8 8 8 8 u z z i 9 8 8 8 9 t i i i 8 = 1 g ) ",
"* - u z t 8 9 t i i 9 8 8 9 i i t t t t 8 8 8 8 8 9 z t = 3 ' ' 5 % - 8 9 t i i 9 8 8 8 7 7 8 t t 9 8 8 8 9 i i t 9 8 > % 1 ( <.",
"o = t i 8 8 8 9 i i 9 8 8 9 i i 9 8 8 8 8 8 8 7 > 7 t 8 = 5 ' [ 5 o - 7 7 8 u u 9 8 8 8 7 7 8 8 8 8 8 8 8 9 u u 8 7 7 - % 5 ' 7.",
"o = 8 9 7 7 8 8 t 9 8 8 8 8 t t 8 8 7 7 8 8 7 > : 7 8 > * 5 ' ' 5 % - > 7 7 8 8 8 8 7 7 8 8 8 8 8 8 7 7 8 8 8 8 7 7 > - % 5 ' 7.",
"o * > 8 7 7 8 8 8 8 8 8 9 9 8 8 8 8 7 7 8 8 7 7 > - - = o 5 | | 5 o = - - : : 7 8 8 7 7 7 8 8 8 8 8 7 7 8 7 7 : : : - = o 3 ' 4.",
"o * - 7 8 8 7 7 8 8 8 t i u 8 7 8 8 8 8 7 7 8 8 7 - = o X 1 ..>.5 o o = - 7 7 8 8 8 7 : 7 7 7 7 8 8 8 8 7 7 > : : - = o X 1 ) 4.",
"o O = - 7 8 7 7 8 8 8 9 u t 7 7 7 8 8 7 7 > 8 7 - = O X . 1 <.<.5 X o * - 7 8 8 8 7 7 : : > 7 7 8 8 8 8 7 - - - - = O X . $ ) 4.",
"o o o = - 7 > 7 8 8 8 8 8 8 7 > 7 7 7 7 > 7 7 - = O o X . 1 <.<.1 . o * - 7 7 7 7 7 : : : 7 8 8 7 7 7 7 7 - = * * * o o . $ ) 4.",
"o o o o = - - > 7 8 8 7 - - - - - - - - - - - = o o o X   1 <.<.1   X o = - - - - : : - - - > > > - - - - = o o o o o X   $ ' 7.",
"o o o o o = - > > > > - = o % % % * - - = o o o o X X     1 <.<.1     X o % o * - > > - = % * = - - : - = o o o o X X     $ ..w.",
"5 5 5 1 1 1 2 6 4 4 4 2 1 # # # # 1 2 2 5 5 5 5 5 1 $ $ $ f 2.2.s # $ 1 1 5 5 5 2 6 6 2 1 # # 1 2 6 6 2 1 # # 1 1 1 $ $ $ f <.e.",
"' ' [ ( T d f f f f f f f d d d d d f R ( ' ' ' ' ' _ ] ..<.q.9...) ) _ ' ' ' ( R f f f f d d d f f f f d d d T ( ' _ ] ..<.q.w.",
"@.@.$.o.~ l W Q ! ! Q W W Q ( ( / ~ ~ / o.$.@.@.@.$.1.1.6.0.5.3.@.@.@.@.@.@.$.o./ ~ ~ Q W Q ( ( / ~ ~ ~ ! Q ~ / $.1.1.1.5.5.5.5.",
"D D D S a q V Z Z Z Z V q k [ @.O.J J H K D D D D L P ;.:.+.I S V j j V S D D K H J J F u k [ @.O.J J H Z Z H J P Y Y Y L D D D ",
"b c i i t t i i i z b i 8 j  .$.H B %.B n z i i i p M B B M n i t 8 8 8 u i c n B &.&.v 8 0 } $.H B %.B n n M B B B %.%.M n b b ",
"b i t t i i t t t t z i 8 0  .@.j t c m n i 8 8 8 t t t t y z b z i 8 8 8 t i n n M M i ; 4 [ @.j t c m n z i t t i %.=.&.B n b ",
"i u 9 9 i i 9 8 8 9 i t 7 0 } } 0 7 t z z u 8 7 8 8 9 9 8 9 u z z i 9 8 9 t i i i i i 8 = 3 ' } 0 7 t z i i t 9 8 t c B B M c i ",
"t 9 8 8 9 9 8 8 8 8 9 8 > 0 } } 0 > 8 t t 9 8 8 8 9 i i 9 8 9 t t t 8 9 i i t t t 9 8 ; % 5 '  .0 > 8 t t t i i 9 8 t t t t t t ",
"8 8 8 8 8 8 8 8 8 8 8 8 > 0 } } 0 > 7 8 8 8 8 8 8 t i i 8 8 8 8 8 8 8 8 i i 9 8 8 7 7 - o 5 '  .0 > 7 8 8 9 i i 9 8 9 9 8 8 8 8 ",
"8 8 7 7 8 8 8 8 7 7 8 8 > 0 } } 0 - > 7 8 8 8 8 8 8 t 8 7 7 8 8 8 8 7 7 8 t 8 8 7 7 > - % 5 ' } 0 - > 7 8 8 t 9 8 9 i i 9 8 7 7 ",
"8 8 7 7 8 t 8 8 7 7 8 7 > 0 }  .0 - > 7 8 8 8 8 8 8 8 7 7 7 8 8 t 8 7 7 7 8 8 8 7 : : - % 5 | ..0 - - 7 8 8 8 8 8 t i i 8 7 7 : ",
"7 7 8 8 i i t 8 8 8 7 > ; 0  .} 0 > 7 8 7 7 8 8 7 7 7 7 8 8 8 t i i 8 7 7 7 8 8 7 : : - % 5 >.>.5 = - 7 8 8 7 7 8 8 t 8 7 7 > : ",
": 7 7 9 i i t 8 8 7 - - = 6 } } 0 - 7 8 7 7 8 8 7 : 7 7 8 8 8 8 u u 8 7 7 7 7 8 7 : > - % 5 <.<.5 % - 7 8 8 7 7 8 8 8 7 7 - - - ",
": > 7 7 8 t 8 8 7 - = o X 3 ' [ 2 = - 7 7 > 7 7 > 7 7 8 8 8 7 7 8 8 7 7 > > 7 7 > : > - % 5 <.<.5 o - 7 7 7 8 8 7 7 7 7 7 - = * ",
"- - - > 7 7 > > - = o X   $ _ ' 3 o = - - - - - - - 7 8 8 7 7 > - - - - - - - - - - - = o 5 <.<.5 o = - - > 7 7 > - - - - = o o ",
"% = - > > - = % % o o X   # ) ' 3 X o % % % % % % = - > > 7 7 > = o % % % = - - - - = o   1 <.<.5 X o * - > > > > - = % % o o o ",
"# 1 2 6 0 0 2 3 3 5 5 1 1 s ....s 3 3 1 1 # # # # 1 2 4 4 0 0 0 1 # # # # 1 2 6 0 0 2 1 1 f 2.2.f 3 3 5 2 4 4 4 6 2 1 # # # # # ",
"d d f Q ` } [ _ ' ' ' [ ..<.9.9...' ' ( T d d d d d f f f g g g f d d d d d f R ` } [ [ ..<.q.9...' ' ( R f f f f f d d d d d d ",
"W W W / o.$.1.1.1.1.$.1.5.8.5.3.1.@.@.[ Q W W ! ! ! Q W W R E E ~ ~ ! Q Q Q ~ / @.1.$.1.5.5.5.2.@. .@.} ^ ! ! ! ! ! Q W W Q ( ) ",
"q q V Z D L P Y Y P L D L L L L D S V j q q V Z Z Z Z V q h R ~ D H Z Z Z Z H J P P L D L D A j e 0 j V Z Z Z Z Z Z Z V q k [ <.",
"> 8 i n n M %.&.%.B n c i i i i c i t 8 8 t i i i z b i 8 0 g W Z M n b n M %.&.%.B c i i t 8 8 > 7 8 t i i i i b b b i 8 0 } 4.",
"* - u m B &.=.&.M n b i t t 9 t i b z i 9 8 9 t t t z i 8 6 f g q t i m B &.M m M c t 8 8 8 8 8 8 8 u i t t t t z b b t - 4 ' 4.",
"o = 8 i n B &.G n x z u 9 8 9 t i i z i 9 8 8 8 8 9 i t 7 6 Q R 6 7 t c n n z i i i t 8 7 7 8 8 8 t i i 9 8 9 t i z z t = 3 ' 4.",
"o * > 8 8 t b m b z t 9 8 9 i i t 9 t 9 8 8 8 8 8 8 9 8 > 0 ` ` 0 > 8 t 8 8 9 t t t i u 8 8 8 8 8 8 9 9 8 9 i i t t t 7 = 3 ' 4.",
"o O = - - 7 t i i i t 9 8 8 i i 9 8 8 8 8 8 8 8 8 8 8 8 > 0  . .0 > 7 7 7 7 8 9 8 8 i i t 8 9 9 8 8 8 8 8 9 u u 9 8 8 > % 5 ' 4.",
"o o o * - 7 7 8 9 t i u 8 7 8 9 8 8 8 8 8 8 7 7 7 7 8 8 > 0 } } 0 - > 7 7 8 i u 8 7 8 t 8 t i i 9 8 8 8 8 8 8 8 8 8 7 - % 5 ' 4.",
"o o o * - > 7 7 8 9 u u 8 7 8 8 8 8 8 8 8 8 7 7 : 7 7 7 > e ....e - - 7 7 9 i u 8 7 7 8 8 8 i i t 8 8 8 8 7 7 7 8 8 : = o 5 [ 7.",
"X X o * - 7 8 8 8 8 8 8 8 8 8 8 7 7 8 8 7 7 8 8 7 : 7 > ; h 2.2.h - - : 7 7 8 9 8 8 7 7 7 7 8 t 8 8 7 7 7 7 : 7 8 7 = o X 1 ..w.",
". X o * = - 7 8 8 8 7 7 8 8 8 7 7 7 8 8 7 7 8 8 7 : : - = e 2.2.h - - : : 7 7 8 8 8 7 : 7 7 8 8 8 8 7 > - - - - 7 > * X . 1 <.e.",
". X o o O = - 7 7 7 > > 7 7 7 7 > 7 8 8 8 8 7 7 2 : > - o 5 <.2.h ; - > : > 7 7 7 7 > 7 8 8 8 8 8 8 8 7 = * * = : - * X . 1 >.e.",
". . X o o o = = = = - - - - - - - - > > > - - = = = - & . $ <.2.e = = = - - - - - - - - ; > > > > > > - % o o o = = o X   1 <.e.",
"    . X o o o X X o o % % % % % % % * % o o X X X o o o   $ <.<.5 . X o o % % % o o % o o o o o o o o o o o o o o o X     1 ..e.",
"$ $ $ $ 1 # @ + + @ # < # # # # # # # # + + + # # 1 3 3 1 f 2.2.s # # 1 1 5 5 3 1 # # # + + + + + + + # 1 5 5 5 5 5 1 1 1 f <.w.",
") ) ) ^ g d d d d d d d d d d d d d d d d d d f ^ ) ' [ ..2.q.9...) ) ) ' ' ' ( g d d d d d d d d d d f ( ' ' [ ..<.<.>...<.9.w.",
"4.7.7.<.) E E E E E E E E E E E E E E E E E E ) <.7.4.7.w.e.w.q.7.4.4.4.4.7.7.<.) E E E E E E E E E E ) <.4.4.7.w.e.e.e.e.w.w.w."
};
