/* XPM */
static char * bricks48_00_xpm[] = {
"48 48 9 1",
" 	c #FFB1624D",
".	c #FF9B5643",
"+	c #FF8B6E67",
"@	c #FFC66851",
"#	c #FFA2867D",
"$	c #FF8F503F",
"%	c #FF7C4536",
"&	c #FF733F31",
"*	c #FFA9948D",
"      ...+++@@@@@@@@@         ...###@@@         ",
"      ...+++@@@@@@@@@         ...###@@@         ",
"      ...+++@@@@@@@@@         ...###@@@         ",
"......$$$###%%%$$$............$$$###%%%.........",
"......$$$###%%%$$$............$$$###%%%.........",
"......$$$###%%%$$$............$$$###%%%.........",
"%%%&&&&&&***&&&&&&$$$$$$%%%&&&&&&###&&&$$$%%%%%%",
"%%%&&&&&&***&&&&&&$$$$$$%%%&&&&&&###&&&$$$%%%%%%",
"%%%&&&&&&***&&&&&&$$$$$$%%%&&&&&&###&&&$$$%%%%%%",
"++++++###***###++++++++++++######***###+++++++++",
"++++++###***###++++++++++++######***###+++++++++",
"++++++###***###++++++++++++######***###+++++++++",
"@@@@@@      ...   ...###@@@         ...   ...+++",
"@@@@@@      ...   ...###@@@         ...   ...+++",
"@@@@@@      ...   ...###@@@         ...   ...+++",
"%%%............$$$%%%###%%%$$$$$$$$$$$$$$$%%%###",
"%%%............$$$%%%###%%%$$$$$$$$$$$$$$$%%%###",
"%%%............$$$%%%###%%%$$$$$$$$$$$$$$$%%%###",
"%%%$$$...%%%%%%%%%&&&***&&&&&&%%%$$$$$$%%%&&&###",
"%%%$$$...%%%%%%%%%&&&***&&&&&&%%%$$$$$$%%%&&&###",
"%%%$$$...%%%%%%%%%&&&***&&&&&&%%%$$$$$$%%%&&&###",
"###++++++++++++######***######++++++++++++###***",
"###++++++++++++######***######++++++++++++###***",
"###++++++++++++######***######++++++++++++###***",
"      ...###@@@@@@@@@   ...   ...###@@@@@@      ",
"      ...###@@@@@@@@@   ...   ...###@@@@@@      ",
"      ...###@@@@@@@@@   ...   ...###@@@@@@      ",
"......$$$###$$$...............%%%###$$$.........",
"......$$$###$$$...............%%%###$$$.........",
"......$$$###$$$...............%%%###$$$.........",
"%%%%%%&&&###%%%%%%$$$$$$%%%%%%&&&***%%%$$$$$$$$$",
"%%%%%%&&&###%%%%%%$$$$$$%%%%%%&&&***%%%$$$$$$$$$",
"%%%%%%&&&###%%%%%%$$$$$$%%%%%%&&&***%%%$$$$$$$$$",
"+++######***###+++++++++++++++###***###+++++++++",
"+++######***###+++++++++++++++###***###+++++++++",
"+++######***###+++++++++++++++###***###+++++++++",
"...         ...   ...+++@@@         ...   ...###",
"...         ...   ...+++@@@         ...   ...###",
"...         ...   ...+++@@@         ...   ...###",
"%%%...............$$$###$$$...............%%%###",
"%%%...............$$$###$$$...............%%%###",
"%%%...............$$$###$$$...............%%%###",
"&&&%%%%%%%%%%%%%%%&&&***&&&%%%%%%%%%%%%%%%&&&***",
"&&&%%%%%%%%%%%%%%%&&&***&&&%%%%%%%%%%%%%%%&&&***",
"&&&%%%%%%%%%%%%%%%&&&***&&&%%%%%%%%%%%%%%%&&&***",
"###+++++++++++++++###***######+++++++++###******",
"###+++++++++++++++###***######+++++++++###******",
"###+++++++++++++++###***######+++++++++###******"};
