/* XPM */
static char *e1fe6a5c98fa4a72a6c3f54f1e0981fd4lCi1eYWex1VxME8[] = {
/* columns rows colors chars-per-pixel */
"64 64 138 2 ",
"   c #090703",
".  c #0C0A05",
"X  c #130F09",
"o  c #15110A",
"O  c #18130C",
"+  c #21170C",
"@  c #231A0E",
"#  c #2D1C0E",
"$  c #341E0D",
"%  c #231B10",
"&  c #2F2517",
"*  c #33291A",
"=  c #3A2F1D",
"-  c #3C301F",
";  c #45240F",
":  c #472712",
">  c #492914",
",  c #4E2D19",
"<  c #522A14",
"1  c #46301A",
"2  c #57321C",
"3  c #5D341D",
"4  c #65361B",
"5  c #6C351D",
"6  c #613A1F",
"7  c #6B391D",
"8  c #72381F",
"9  c #563622",
"0  c #5F3720",
"q  c #573924",
"w  c #5C3A24",
"e  c #633D24",
"r  c #623F28",
"t  c #723A20",
"y  c #793E23",
"u  c #664027",
"i  c #684127",
"p  c #664128",
"a  c #694329",
"s  c #6C4E2E",
"d  c #7C4124",
"f  c #704328",
"g  c #7B4729",
"h  c #7D4A2B",
"j  c #6A5537",
"k  c #705837",
"l  c #7E5E39",
"z  c #814A29",
"x  c #8B4E2B",
"c  c #84512F",
"v  c #8C512E",
"b  c #92512D",
"n  c #875331",
"m  c #8E5330",
"M  c #925632",
"N  c #9A5730",
"B  c #965B34",
"V  c #9A5C35",
"C  c #A25D34",
"Z  c #82613B",
"A  c #A56136",
"S  c #A56137",
"D  c #A56036",
"F  c #A66036",
"G  c #A76036",
"H  c #A66037",
"J  c #A76137",
"K  c #A66136",
"L  c #A96237",
"P  c #A86237",
"I  c #A76238",
"U  c #A76238",
"Y  c #A86238",
"T  c #A96238",
"R  c #A86338",
"E  c #A96338",
"W  c #AA6338",
"Q  c #AB6539",
"!  c #AA653A",
"~  c #AB663A",
"^  c #AC663A",
"/  c #AC673A",
"(  c #AC673B",
")  c #AD673B",
"_  c #AB663A",
"`  c #AD683B",
"'  c #AE683B",
"]  c #AD683C",
"[  c #AE683C",
"{  c #AE693C",
"}  c #AF693C",
"|  c #AF6A3C",
" . c #AF6A3D",
".. c #AE693C",
"X. c #B06A3C",
"o. c #B06A3D",
"O. c #B06B3D",
"+. c #B16B3D",
"@. c #B26B3D",
"#. c #B26C3D",
"$. c #B36C3E",
"%. c #B06A3D",
"&. c #816943",
"*. c #826943",
"=. c #846B44",
"-. c #846B45",
";. c #856B45",
":. c #866D46",
">. c #876D46",
",. c #846B44",
"<. c #99794C",
"1. c #99794D",
"2. c #9A7A4D",
"3. c #9A7B4D",
"4. c #9A7A4D",
"5. c #A88857",
"6. c #A88857",
"7. c #AF8D5B",
"8. c #AF8D5B",
"9. c #B08E5B",
"0. c #B08F5C",
"q. c #B18F5C",
"w. c #B18F5C",
"e. c #B1905C",
"r. c #B2905C",
"t. c #B2905D",
"y. c #B3915E",
"u. c #B5935F",
"i. c #B2915D",
"p. c #B89560",
"a. c #B89660",
"s. c #BA9661",
"d. c #BA9761",
"f. c #B99661",
"g. c #BB9862",
"h. c #BD9962",
"j. c #BD9963",
"k. c #BC9962",
/* pixels */
"O O o X .                 . o + $ ; < 3 5 t t 8 8 8 8 8 8 8 8 8 8 8 8 8 8 8 8 8 8 t t 5 3 < ; $ + o .         . X o o o o o O O ",
"O % * = * * * * * * * * * & @ # > 3 4 7 y d d d d d d d d d d d d d d d d d d d d d d y 7 4 3 > # @ & * * * * * = - - - - * % O ",
"o * j :.=.&.&.&.&.&.&.=.:.k 1 : t x x x b b b b b b b b b b b b b b b b b b b b b b b b x x x t : 1 k :.=.&.&.&.=.=.=.:.:.j * o ",
"X = :.e.e.e.e.e.e.e.0.5.3.Z e 7 b C C C C C C C C C C C C C C C C C C C C C C V V V V C C C C b 7 e Z 3.5.0.e.e.0.0.0.e.0.:.= X ",
". * =.e.p.p.p.p.p.p.e.3.s e g b S ^ ^ Q Q Q Q Q Q Q Q Q Q Q Q Q Q Q Q Q Q T C V V V V C T ^ ^ S b g e s 3.e.p.p.p.p.p.p.e.=.* . ",
"  * &.e.p.j.j.j.g.9.3.l 6 4 b T ^ } } } } } Q Q Q Q } } } } } } } } } } } Q S C C C C C Q } ^ T C x 4 6 l 3.9.g.j.j.j.p.e.&.*   ",
"  * &.e.p.j.j.g.u.3.s 6 g b C ^ } } } } } Q S C C S Q } } } } } } } } } } } Q Q Q Q Q ^ } Q S C C N x g e s 3.u.g.j.j.p.e.&.*   ",
"  * &.e.p.j.g.7.3.l e 7 b T } o.o.o.} } o.^ S C C S ^ o.o.} ^ Q Q Q Q ^ } o.o.o.o.o.o.o.o.^ S C C C S b 7 e l 3.7.g.j.p.e.&.*   ",
"  * &.e.p.g.u.3.s 6 g b S } o.o.o.o.o.o.o.} ^ ^ ^ ^ } o.o.^ S C C C C S ^ o.o.o.o.o.o.o.o.} ^ ^ ^ ^ ` S b g 6 s 3.u.g.p.e.&.*   ",
"  * &.e.p.9.3.l 6 4 z M B B B B B B B B B B B V V V V V V B m x x x x v M B B B B B B B B B B B B V V B M z 4 6 l 3.9.p.e.&.*   ",
"  * &.0.e.3.s e g z f i i u e e e e p a a i i i a a i i i i p e 0 3 3 3 6 e e e 6 6 6 e e e e e u a a i i f z g e s 3.e.0.&.*   ",
"  * =.5.3.l 6 7 b M i q w e 0 3 3 0 e p i a i p q q e p i i i u e 6 3 3 3 2 , , 3 e 6 6 6 e e e e r r w q i M b 7 6 l 3.5.=.*   ",
"  * :.3.s 6 g b S B i w h v x x x x x m B V V n p w h m B V V B B M v x x g 2 3 z B B B B B B M v v v h w i B S b g 6 s 3.:.*   ",
". & k Z e 4 b L ^ B i r v C C C C C C S ^ o.#.V i r v C T ^ } o.o.` S C C x 3 e B o.o.o.o.o.o.^ S C C v r i V } T b 4 e Z k & . ",
"o @ 1 e g b D Q S m p r v C C C T ^ Q ^ } o.o.V i r v C C S ^ o.o.} ^ T C x 3 e B o.o.} } o.o.} ^ T C v r i V o.` C b g e 1 @ o ",
"+ # : 7 b T ` ^ C v r r v V C C I ^ } } } } o.B i u m C C S Q } } } ` ^ S v 3 e B o.o.} } } } } } ^ L m u i B o.o.^ T b 7 : # + ",
"$ > t b S ` } Q C v r r v C V V C S Q } } } o.B i p B ^ Q Q ` } } } } } ` M 6 e B o.o.} } } } } } } } B p i B o.o.} ^ S b t > $ ",
"; 3 x C ^ } } ^ S m p r v C C C C C Q } } } o.B i i V o.o.} } } } } } } ` M 6 e B o.^ Q Q Q ` } } } #.V a i B o.o.} } ^ C x 3 ; ",
"< 4 x C ^ } } } ^ B i r v C T Q Q Q ` } } } o.V i i V o.o.} } } } } } ^ S v 3 e B ^ S C C C Q } } } o.V a i B o.} } } ^ C x 4 < ",
"3 7 x C Q } Q ^ } V i u m S ^ } } } } } } } ^ B r r B ^ } } } ` Q Q Q T C x 0 e M T C V C S Q } } } } B p i B o.} } ^ T C x 7 3 ",
"5 y b C Q Q S S ^ V i p B } } } } } } } } ^ S v e e v S ^ } } Q C C C C C x e r m C C C I ^ } } } ^ S m r i B o.o.Q S C C b y 5 ",
"t d b C Q Q C C ^ V i i V #.#.} } } } } ^ T C x 3 3 x C T ^ } ^ S C C C C v u r v C C C T ^ Q ^ } ` L m u i B o.o.Q C V V b d t ",
"t d b C Q Q C C ^ V i i V #.o.o.o.o.o.^ S C C x 3 3 x C C S ` o.` T C C C v u r v C C C C C C S ^ o.} B i i B o.o.Q C V V b d t ",
"8 d b C Q Q C C ^ V i p n V V B B B V B v x x g 3 3 h v v v M B B M v x v h e e h v v v v v v v M B B c e i V o.o.Q C V V b d 8 ",
"8 d b C Q Q C C ^ V a q r i i i i i i r 0 3 3 3 9 9 e r r r e e e 6 3 0 e e q q e r r r r r r e e e e 0 9 a V o.o.Q C V V b d 8 ",
"8 d b C T T C S ^ V a q p a i i i i i u e 6 3 3 9 q e r r r e e e e e e r e q q p i i i i i i u 0 3 3 3 9 a V o.o.Q S C C b d 8 ",
"8 d b C C C T ^ } V i p n V V B B B B B B M v g e e h v v v M B B B B M m h e p n V V V V V V B v x x g w i V o.o.} Q T C b d 8 ",
"8 d b V V C Q o.o.B i a V o.o.o.o.o.o.o.o.` L m p p M C C C ^ o.o.o.o.` L v r i V o.` ^ ^ ^ } ^ S C C m p i B } ^ Q } Q C b d 8 ",
"8 d b V V C Q o.o.B i a V o.o.} } } } } o.o.} B i i B T C C Q o.o.o.o.o.` B i i V } S C C S ^ } ^ ^ ^ B i i V ^ S S Q Q C b d 8 ",
"8 d b C C S Q o.o.B i a B o.} } } } } } } } o.V i i V ^ C C Q } } } } } ^ B p i V } S C C S Q } } o.o.V i i V ^ C C Q Q C b d 8 ",
"8 d b C T Q } } o.V i i B o.} } } } } } } } o.V i i B } ^ Q ` } } } } ^ S m u i B } ^ Q Q Q ` } } o.#.V i a V ^ C C Q Q C b d 8 ",
"8 d b C Q } } } ^ B p i B o.} } } } } } } } ^ B p i B o.o.} } } } } } Q C v r i B o.o.} } } } } } } } B p a V } S S Q Q C b d 8 ",
"8 d b C Q } } ^ S m u i V o.} } } } } } } ^ S m u i B o.} } } } } } } Q C v r i B o.} } } } } } } ^ S m u i B } ^ Q } Q C b d 8 ",
"8 d b C Q } } Q C v r i B ^ } } } ` Q Q } Q C v r i B o.` } } } } } } Q C v r i B o.} } } ` Q Q Q T C v r i V o.o.} Q T C b d 8 ",
"8 d b C Q } } Q C v r p m S ^ } } Q C S ^ ^ C v r i B o.o.} } } } } } ^ C v r i B o.} } } Q C C C C C v r i V o.o.Q S C C b d 8 ",
"8 d b C Q } } Q C x e e v C T ^ } Q C C T Q C v r i V o.^ ^ ` o.o.} ^ T C v r i V o.o.o.o.^ S C C C C v r i B ^ } Q C V V b d 8 ",
"8 d b C Q } } Q C x 0 0 x C C S ` ^ C C C C C v r i V ` L S ^ o.o.^ S C C v r i V o.o.o.o.o.` T C C C v r p m S ^ Q C V V b d 8 ",
"8 d b C Q } } Q C x 3 2 g x x v M M m v v v x g e p n B v x M B B M v x x g e p n V V B B B B M v v v h e r v C ^ Q C V V b d 8 ",
"8 d b C Q } } Q C x 3 , 2 3 3 3 3 e r r r e 0 3 9 w p r e 3 3 e e 6 3 3 3 3 9 q p i i u e e e e r r r e q r v C ^ Q C V V b d 8 ",
"8 d b C Q } } Q C x 3 , 3 e e e e e r r r r e 0 9 q u u e e e e e e e 6 3 3 9 q e i i u e 6 6 e u i p e q r v C Q ^ S C C b d 8 ",
"8 d b C Q } } Q C x 3 3 z B B B B M v v v m B z 0 0 c V B B B B B B B M v g 3 0 c V V B B B B B B B M h e r v C Q } ^ T C b d 8 ",
"t d b C Q } } ^ S v 3 e B #.o.o.o.^ S C C L o.B e e B #.o.o.o.o.o.o.o.^ C x 3 e B #.o.o.o.o.o.} ^ T C v r p m S ^ } } Q C b d t ",
"t d b C Q } } } ` M 3 e B #.o.o.o.} ^ Q Q ` o.B e e B o.o.} } } } o.o.^ C x 3 e B o.o.} } o.o.^ S C C v r i B ^ } } } Q C b d t ",
"5 y b C Q } } } ` M e e M ^ } } } } } } } o.o.B e e B o.} } } } } } } Q C x 3 e B o.o.} } } } Q S C C v r i V o.o.} Q T C b y 5 ",
"3 7 x C Q } } ^ S v r r v S ^ } } } } } } o.o.B e e B o.} } } } } } } Q C x 3 e B o.o.} } } } ` Q T C v r i V o.o.Q S C C x 7 3 ",
"< 4 x C ^ } } Q C v r r v C Q } } } } ` Q ^ o.B e e B o.o.} } ` Q Q } ^ C x 3 6 M ^ } } } } } } } ^ S m u i B } ^ I C V C x 4 < ",
"; 3 x C ^ } o.^ C v r r v C Q } } } } Q C S ^ B 6 3 B o.o.} } Q C S ^ ^ C x 3 3 v S ^ } } } } } } } ^ B p i V ^ S C V C C x 3 ; ",
"$ > t b S ` } ^ L m p r v C T Q } } } Q C C L M e e M ^ } } } Q C C I T C x 0 0 x C T Q Q Q } } } } ^ B p i V ^ C V V N x t > $ ",
"+ # : 7 b T ^ } ^ B i r v C C S Q } } Q C C C m r r v S ^ } } Q C V C C C v e e x C C C C S Q } } ^ S m u i V ^ C V C v 7 : # + ",
"o % 1 e g b C ` o.V i r v C C C T ^ ^ T C C C v r r v C T ^ ^ T C V V C C v r r v C C V V C T ^ ^ T C v r i B Q C N x g e 1 % o ",
". & k Z e 4 b T } V i r v C C C C C C C C C C v u r v C C C C C C C V C C v u u m C C V V C C C C C C v r p m C C x 4 e Z k & . ",
"  * :.3.s 6 g b S B i w h v v v v v v x x x x g w e h v v v v v v v v v v h e e h v v v v v v v v v v h e r v N x g e s 3.:.*   ",
"  * =.5.3.l 6 7 b M i q w r r r r r r e 0 3 3 3 9 q e r r r r r r r r r r e q q e r r r r r r r r r r e q p m x 4 e l 3.5.=.*   ",
"  * &.0.e.3.s e g z f i i i i i i i i u e e e e i a i i p r r p i i i i i i a a i i i i i i p r r r r r p f z g e s 3.e.0.&.*   ",
"  * &.e.p.9.3.l 6 4 z M B V V B B B V B B B B B V V V B m v v m B V V V V V V V V B B V V B m v v v v v m z 4 e l 3.9.p.e.&.*   ",
". * &.e.p.g.u.3.s 6 g b S } o.o.o.o.o.o.o.o.o.o.o.o.o.^ S C C S ^ o.o.} ^ ^ ^ ^ o.o.o.o.o.^ S C C C C N x g e s 3.u.g.p.e.&.* . ",
"X = =.0.p.j.g.7.3.l e 7 b T ` o.o.} } } o.o.o.o.} } } } ^ Q Q ^ } o.o.^ S C C S ^ o.} } o.} ^ ^ ^ Q C x 4 e l 3.7.g.j.p.0.=.= X ",
"o - =.0.p.j.j.g.u.3.s 6 g b C ^ } } } } Q Q Q Q } } } } } } } } } } } Q S C C S Q } } } Q Q Q Q ^ D b g e s 3.u.g.j.j.p.0.=.- o ",
"o - =.0.p.j.j.j.g.9.3.l 6 4 b T ^ } } Q S C C S Q } } } } } } } } } } } Q Q Q Q } } } Q S C C C C b 7 e l 3.9.g.j.j.j.p.0.=.- o ",
"o - :.e.p.p.p.p.p.p.e.3.s e g b S ^ ^ T C V V C T Q Q Q Q Q Q Q Q Q Q Q Q Q Q Q Q Q Q T C V C N x g e s 3.e.p.p.p.p.p.p.e.:.- o ",
"o - :.0.e.0.0.0.e.e.0.5.3.Z e 7 b C C C C V V C C C C C C C C C C C C C C C C C C C C C C C C x 7 e Z 3.5.0.e.e.e.e.e.e.0.:.- o ",
"o * j :.:.=.=.=.&.&.&.=.:.k 1 : t x x x b b b b b b b b b b b b b b b b b b b b b b b b x x x t : 1 k :.=.&.&.&.&.&.&.=.:.j * o ",
"O % * - - - - = * * * * * & % # > 3 4 7 y d d d d d d d d d d d d d d d d d d d d d d y 7 4 3 > # @ & * * * * * * * * * = * % O ",
"O O o o o o o X .         . o + $ ; < 3 5 t t 8 8 8 8 8 8 8 8 8 8 8 8 8 8 8 8 8 8 t t 5 3 < ; $ + o .                 . X o O O "
};
