/* XPM */
static char * diams32_00_xpm[] = {
"32 32 11 1",
" 	c #FF00000000",
".	c #FFFF11727A",
"+	c #FFFFFFFFFF",
"@	c #FFFFD5FFF6",
"#	c #FFFF4AEDD9",
"$	c #FFFFA1FBE8",
"%	c #FFFF20C5B5",
"&	c #FFFF145E53",
"*	c #FFFF1AAAA7",
"=	c #FFFF1C919A",
"-	c #FFFF2CE0D8",
"                                ",
"                                ",
"                                ",
"                                ",
"            ........            ",
"            ........            ",
"          ..++++++@@..          ",
"          ..++++++@@..          ",
"        ..++####$$@@%%&&        ",
"        ..++####$$@@%%&&        ",
"      ..++##$$$$@@$$##%%&&      ",
"      ..++##$$$$@@$$##%%&&      ",
"      ..++##++@@++@@####&&      ",
"      ..++##++@@++@@####&&      ",
"    ..++##++####$$$$**%%**&&    ",
"    ..++##++####$$$$**%%**&&    ",
"    ..++##@@##$$$$$$==%%**&&    ",
"    ..++##@@##$$$$$$==%%**&&    ",
"    ..++++%%$$$$$$##==****&&    ",
"    ..++++%%$$$$$$##==****&&    ",
"    ..@@####********%%%%==&&    ",
"    ..@@####********%%%%==&&    ",
"      &&##**%%%%%%%%**%%&&      ",
"      &&##**%%%%%%%%**%%&&      ",
"      &&--**%%%%%%%%**$$&&      ",
"      &&--**%%%%%%%%**$$&&      ",
"        &&==####$$$$%%&&        ",
"        &&==####$$$$%%&&        ",
"          &&&&&&&&&&&&          ",
"          &&&&&&&&&&&&          ",
"                                ",
"                                "};
