/* XPM */
static char * diams32_04_xpm[] = {
"32 32 36 1",
" 	c #FF00000000",
".	c #FFFF11727A",
"+	c #FFFF1FCDD5",
"@	c #FFFFFFFFFF",
"#	c #FFFF58E0E7",
"$	c #FFFF137F87",
"%	c #FFFFEAFBFD",
"&	c #FFFF158C94",
"*	c #FFFF4AEDD9",
"=	c #FFFFCEFDF3",
"-	c #FFFFECFEFA",
";	c #FFFFA9F0E9",
">	c #FFFF22D2C1",
",	c #FFFF145E53",
"'	c #FFFF58EEDC",
")	c #FFFF27DCCB",
"!	c #FFFF20C5B5",
"~	c #FFFFA1FBE8",
"{	c #FFFFB0FCEC",
"]	c #FFFFBFFDF0",
"^	c #FFFFD5FFF6",
"/	c #FFFF66EFDF",
"(	c #FFFF9EF4EB",
"_	c #FFFFE4FFF9",
":	c #FFFF90F3E8",
"<	c #FFFF74F0E2",
"[	c #FFFF1AAAA7",
"}	c #FFFFD6FAF7",
"|	c #FFFFF2FEFD",
"1	c #FFFFC8F9F4",
"2	c #FFFF1C919A",
"3	c #FFFF1DC0C8",
"4	c #FFFF3EDBE3",
"5	c #FFFFA6EFF3",
"6	c #FFFF1BB3BB",
"7	c #FFFF2CE0D8",
"                                ",
"                                ",
"                                ",
"                                ",
"            ........            ",
"            .......+            ",
"          ..@@@@@@@@#$          ",
"          ..@@@@@@@@%&          ",
"        ..@@****=-@@;>,,        ",
"        ..@@***'@@@@)!,,        ",
"      ..@@**~~{@@@={**!!,,      ",
"      ..@@**~]@@@@{~**!!,,      ",
"      ..@@**@@@@@@^^****,,      ",
"      ..@@/(@@__@@^^****,,      ",
"    ..@@*:@@:<'*~~~~[[!![[,,    ",
"    ..@@}|@@/'**~~~~[[!![[,,    ",
"    .$@@11_@**~~~~~~22!![[,,    ",
"    &+@@/*^^**~~~~~~22!![[,,    ",
"    34@@@@!!~~~~~~**22[[[[,,    ",
"    56@@@@!!~~~~~~**22[[[[,,    ",
"    .$^^****[[[[[[[[!!!!22,,    ",
"    ..^^****[[[[[[[[!!!!22,,    ",
"      ,,**[[!!!!!!!![[!!,,      ",
"      ,,**[[!!!!!!!![[!!,,      ",
"      ,,77[[!!!!!!!![[~~,,      ",
"      ,,77[[!!!!!!!![[~~,,      ",
"        ,,22****~~~~!!,,        ",
"        ,,22****~~~~!!,,        ",
"          ,,,,,,,,,,,,          ",
"          ,,,,,,,,,,,,          ",
"                                ",
"                                "};
