/* XPM */
static char *fb8cd7ad394749e886d6144fb3690aceWjlDEXKtEcnaIgQF[] = {
/* columns rows colors chars-per-pixel */
"64 64 199 2 ",
"   c #00000000",
".  c #FF0E554A",
"X  c #FF0E584D",
"o  c #FF12564B",
"O  c #FF125A4F",
"+  c #FF145B50",
"@  c #FF0D5E57",
"#  c #FF14655F",
"$  c #FF176C65",
"%  c #FF157166",
"&  c #FF16756A",
"*  c #FF18776D",
"=  c #FF1B796E",
"-  c #FF046972",
";  c #FF0A6E76",
":  c #FF1B7D72",
">  c #FF187A7C",
",  c #FF0C686C",
"<  c #FF207B6E",
"1  c #FF227E71",
"2  c #FF337E71",
"3  c #FF3C7E74",
"4  c #FF228073",
"5  c #FF298176",
"6  c #FF338376",
"7  c #FF3A8377",
"8  c #FF1C8C81",
"9  c #FF1C988B",
"0  c #FF1D8C90",
"q  c #FF1C959C",
"w  c #FF1C9A9E",
"e  c #FF23988B",
"r  c #FF389B8D",
"t  c #FF378E92",
"y  c #FF388E92",
"u  c #FF3B9095",
"i  c #FF289191",
"p  c #FF1CA29C",
"a  c #FF1C9EA1",
"s  c #FF229FA2",
"d  c #FF1CA2A3",
"f  c #FF1AA9A6",
"g  c #FF1BAEA9",
"h  c #FF1CB3AB",
"j  c #FF1DB9AF",
"k  c #FF1EB1A4",
"l  c #FF1EBDB1",
"z  c #FF1EB6B2",
"x  c #FF25A4A7",
"c  c #FF22ABA2",
"v  c #FF24A5A9",
"b  c #FF24AAAB",
"n  c #FF22B6AF",
"m  c #FF34B4A4",
"M  c #FF35BAAD",
"N  c #FF23B6B0",
"B  c #FF23BCB4",
"V  c #FF2ABAB4",
"C  c #FF22BFB8",
"Z  c #FF36BCB5",
"A  c #FF428881",
"S  c #FF408D94",
"D  c #FF439196",
"F  c #FF439498",
"G  c #FF4A949A",
"H  c #FF4B9E90",
"J  c #FF5EA296",
"K  c #FF58ADAB",
"L  c #FF64ADAE",
"P  c #FF6CBCAC",
"I  c #FF6BAEB0",
"U  c #FF73ADB2",
"Y  c #FF68BEB2",
"T  c #FF1EC1B3",
"R  c #FF1EC5B9",
"E  c #FF22C5B6",
"W  c #FF24C5B9",
"Q  c #FF2CC3B8",
"!  c #FF24CABB",
"~  c #FF28CDBE",
"^  c #FF37C7B7",
"/  c #FF3BCABA",
"(  c #FF4DCDBB",
")  c #FF40C9BC",
"_  c #FF68CCBB",
"`  c #FF24CFC0",
"'  c #FF2DCBC1",
"]  c #FF2CCFC9",
"[  c #FF33CEC2",
"{  c #FF38CFC3",
"}  c #FF2BD3C2",
"|  c #FF2ED9CF",
" . c #FF27D6CC",
".. c #FF33D4C4",
"X. c #FF3AD2C2",
"o. c #FF31D8C6",
"O. c #FF3BDCCC",
"+. c #FF37D8CB",
"@. c #FF2BDCD3",
"#. c #FF28D7D0",
"$. c #FF3BDED0",
"%. c #FF30DFD2",
"&. c #FF2EE1D8",
"*. c #FF31E2D6",
"=. c #FF3DE4D4",
"-. c #FF34E4D8",
";. c #FF3AE6D9",
":. c #FF3DE9DA",
">. c #FF49CEC1",
",. c #FF42D5C4",
"<. c #FF42DBCB",
"1. c #FF4CDDCD",
"2. c #FF43D7C8",
"3. c #FF53D6C5",
"4. c #FF6ED4C3",
"5. c #FF73D5C4",
"6. c #FF71DBC9",
"7. c #FF41E5D3",
"8. c #FF4DE1D4",
"9. c #FF42EBD7",
"0. c #FF45ECD9",
"q. c #FF4BEDDA",
"w. c #FF4BE6DB",
"e. c #FF53EAD6",
"r. c #FF54EEDB",
"t. c #FF5AEEDD",
"y. c #FF51E7D5",
"u. c #FF4DF0DC",
"i. c #FF47F0DE",
"p. c #FF5CF0DC",
"a. c #FF6EE6D6",
"s. c #FF6EEAD8",
"d. c #FF75EFDD",
"f. c #FF72E5D6",
"g. c #FF61F0DE",
"h. c #FF6CF3DF",
"j. c #FF76F0DD",
"k. c #FF5CF6E1",
"l. c #FF6FEDE4",
"z. c #FF72EDE5",
"x. c #FF6DF2E1",
"c. c #FF73F3E1",
"v. c #FF7AF4E2",
"b. c #FF7EFAE6",
"n. c #FF88BEB4",
"m. c #FF85C5C3",
"M. c #FF88C7C4",
"N. c #FF9FC4C8",
"B. c #FF82D5C4",
"V. c #FF98DFD0",
"C. c #FFA7DBD4",
"Z. c #FFAEDCD9",
"A. c #FFB0DEDB",
"S. c #FFBFDCDD",
"D. c #FFA0C5C9",
"F. c #FF8DE7D9",
"G. c #FF85F1DE",
"H. c #FF9BE4DC",
"J. c #FFACE5DE",
"K. c #FFA7E6DD",
"L. c #FFB3E4DA",
"P. c #FF87EEE2",
"I. c #FF85F5E4",
"U. c #FF8AF5E4",
"Y. c #FF8DF8E4",
"T. c #FF93F9E6",
"R. c #FF9CFAE7",
"E. c #FF94F6E9",
"W. c #FF9DFAE8",
"Q. c #FF97FAEA",
"!. c #FFA4EFE4",
"~. c #FFA3FBE9",
"^. c #FFACFBEC",
"/. c #FFA4F6E8",
"(. c #FFB3F7E9",
"). c #FFB3FCED",
"_. c #FFBAFDEF",
"`. c #FFBAF7EB",
"'. c #FFBCFCF1",
"]. c #FFB4E6E1",
"[. c #FFC4DCDE",
"{. c #FFC8DCDE",
"}. c #FFC5E6E4",
"|. c #FFCEE6E6",
" X c #FFC4F7ED",
".X c #FFC4FDF2",
"XX c #FFCBFDF4",
"oX c #FFD1FEF6",
"OX c #FFD5FCF6",
"+X c #FFDAFCF7",
"@X c #FFD4FFF9",
"#X c #FFDBFEF9",
"$X c #FFE1FEF7",
"%X c #FFE4FEFA",
"&X c #FFEAFFFC",
"*X c #FFECFFFB",
"=X c #FFF1FFFD",
"-X c #FFF4FFFD",
";X c #FFFBFFFE",
/* pixels */
"                                                                                                                                ",
"                                                                                                                                ",
"                                                                                                                                ",
"                                                                                                                                ",
"                                                                                                                                ",
"                                                                                                                                ",
"                                                                                                                                ",
"                                                                                                                                ",
"                                                                                                                                ",
"                                                                                                                                ",
"                                                ; ; ; ; ; ; ; ; ; ; ; ; ; ; ; ;                                                 ",
"                                                u F G G G G G G G G F F G G F u                                                 ",
"                                            - t m.Z.S.{.{.{.{.{.{.S.Z.Z.[.[.A.m.t -                                             ",
"                                            S I ].%X&X*X*X=X=X&X#XXX'.'.oX#X@XJ.L y                                             ",
"                                        - S N.|.OXoX.X_.'.'.'.^.U.c.x.x.c.I.~.(.J.m.y -                                         ",
"                                        S U |.;X&XoX^.R.Y.Y.Y.v.r.0.0.q.r.h.R._.XXK.K i                                         ",
"                                    - S N.|.+X&X=X$X_.Y.h.p.p.t.q.0.0.r.v.R._..X_./.F.Y 2 .                                     ",
"                                    S U }.&XoXOX-X%X^.v.r.0.0.q.t.p.p.h.T.).XXXX^.W.Q.6.r *                                     ",
"                                - S D.}. X_.^..X*X+XU.r.q.0.0.r.v.Y.Y.T.R.).XXXX^.T.c.y.[ c * o                                 ",
"                                t I }.#X~.Y.R._.*XOXc.q.r.p.p.h.T.~.~.R.T.W..XXX).Y.p.0.:.' 9 *                                 ",
"                            ; u m.J.`.~.c.h.Y._.*XOXc.r.v.Y.Y.T.R.~.~.T.h.v.'.XX).Y.p.0.0.=.' c = O                             ",
"                            ; D A.@X~.v.r.r.v.^.&X+XI.h.T.~.~.~.~.R.T.v.r.x.).XX~.v.r.9.q.0.:.Q : O                             ",
"                            - D [.#XI.r.q.q.r.U.+X%X^.Y.R.~.~.~.~.T.c.r.q.x.).'.v.r.;.;.0.q.i.^ : o                             ",
"                            t I }..Xx.0.0.0.0.c.OX=X.X^.~.R.Y.U.Y.v.r.q.r.v.'.'.x.:.&.*.;.0.u.X.e =                             ",
"                        ; u m.J.(.W.g.0.0.0.0.c.OX;X+X'.^.Y.h.p.p.r.q.r.v.~.XX'.x.:.*.&.*.;.0.7.[ c : O                         ",
"                        ; D A.%X.X~.v.g.q.0.0.x..X&X%X+X.X~.v.x.c.c.x.v.~.).^.E.g.9.;.*.@.| O.O.@.n = O                         ",
"                        - D S.;X=X#X.XE.p.9.0.g.R.XX&X-X=X#X.X'.XXXX'.'.XX^.l.w.q.q.0.=.} E B B B p % O                         ",
"                        y L J.#X&X*X&XXXE.x.g.c.~..X$X%X#XXX'.'.XXOXXXXXXX^.l.w.7.7.<...W j h h h p 8 =                         ",
"                    ; u M.H.P.I.^.XX*X=X$X.XR.~.oX$XXX^.I.c.x.x.c.I.~.).).^.^.P.1.! B N h h j l l B W c : O                     ",
"                    ; F A..Xx.r.v.~.oX*X*X$X.X.X$XOX~.v.q.:.9.q.r.h.Y.~.~.^..X!.>.j h g f g j T E ` @.W : O                     ",
"                    ; G [.@Xc.0.r.c.~._._.XX#X$XXX~.v.r.;.-.:.r.v.T.R.~.~.~.).F.) h j j g f g j T ` @.W : O                     ",
"                    ; G {.#Xv.q.r.h.T.R.Y.~.%X%X^.v.r.;.-.;.r.c.T.~.~.~.~.W.T.a.Z g l T h f f h l ` @.Q : O                     ",
"                    ; G {.#Xv.r.v.T.R.Y.h.I.#X#XU.q.;.-.;.r.v.T.R.~.~.~.~.T.c.1.V g l l h f f h l ` @.Q : O                     ",
"                    ; G {.#Xc.p.Y.~.~.U.p.c.OX+Xv.:.*.;.r.h.Q.~.~.~.~.R.T.v.p.O.B h l T j g f g j ! @.Q : O                     ",
"                    ; G {.#Xc.p.U.~.~.Y.p.c.OX+Xv.9.:.r.v.Q.R.~.~.~.~.T.c.p.q.O.B h l E T j g f g B #.Q : O                     ",
"                    ; G S.@XI.h.Y.W.Q.v.r.c.XXXXc.q.r.c.T.~.~.~.~.R.Q.v.r.9.q.O.N f l E E l h f f B | Q : O                     ",
"                    ; F Z.XX~.T.R.T.x.r.q.x.'.'.x.r.v.T.R.~.~.~.~.Q.h.r.;.-.0.<.b d j E E l h f f B $.^ 4 O                     ",
"                    ; F Z.OX).~.~.U.p.q.r.v.'.'.v.x.T.~.~.~.~.R.Q.v.r.;.-.-.=.{ x w h T E T j g f B $.^ 4 O                     ",
"                    ; G S.%X_.~.~.U.p.r.v.~.XXXX~.T.W.~.~.~.~.Q.c.r.;.-.:.=.o.B a q f j T E T j g B | Q : O                     ",
"                    ; G S.$X~.Y.R.Q.v.v.~.).^./.U.G.U.T.W.W.Q.v.r.:.-.-.=.+.Q g a w a f h j l z j C @.Q : O                     ",
"                    ; F Z..Xv.h.Y.^.).'.XX).z.8.2.2.e.c.Q.Q.c.r.:.-.:.=.o.Q f a d d w q w d g j l ~ =.^ 4 O                     ",
"                    , D C..XI.v.W.).).'.'.E.r. .R E ..8.f.f.1.+.] ] +.X.Q g w q f g d a a a d f h Q X.M = O                     ",
"                    @ A C.@X'.'..X).I.x.x.g.q.+.B h N V Z Z V N b v v x a w q w j l z j j h a q w d v i % +                     ",
"                    X 7 n.L. XXX'.E.t.:.0.q.q.O.B f g g g g g f d w w w q q q a j E T T T j d s x s 0 > $ +                     ",
"                        3 J V.~.I.t.;.-.9.u.u.O.B g j l l l l l j j j h f a q a j T j h h h j Q X.Z 4 #                         ",
"                        . 5 4.b.p.9.-.-.:.9.7...N g l E E E E E E E E T j f q w j z g f g h l } 9./ 4 O                         ",
"                        . 1 ( k.u.0.0.:.-.%.} W h g l E E E E E E E E E T h w q f h f g j l T } 9./ 4 O                         ",
"                        O : m X.7.0.q.0.;.| E j h h z l l l l l l l l T E z d w a f g j T ! X.,./ m 1 O                         ",
"                            = e ' :.0.q.0.O.B h j z h h h h h h h h h j T l g a w d j T T X.s.4.r =                             ",
"                            o * c ' =.0.7...N g l T j g f f f f f f f g j l j f q w j ! X.3.5.P 2 .                             ",
"                                * e ' *.} W h h l E T j g f f f f f f f g h l h w w j X.s.5.H 2                                 ",
"                                o * c W ! E h g l E E T j g g h h h h g g h T j d d Q ,.4.P 2 .                                 ",
"                                    * 9 W  .z g l E R T l l l l l l l l l l T j f N +.) r 2                                     ",
"                                    o = c B j z E ` } } } ..X.X.....X.,.,.,.,./ B B ^ m = .                                     ",
"                                        = 8 g !  .*.=.7.7.e.j.d.e.e.d.I.I.I.U.a.{ k 8 <                                         ",
"                                        o % 9 k B Q ^ / / ( 5.5.( ( 4.B.B.B.B._ m 9 % o                                         ",
"                                            & = : : 4 4 4 5 6 6 5 5 6 7 7 7 7 6 = &                                             ",
"                                            + + O O O O O O O O O O O X O O O O + +                                             ",
"                                                                                                                                ",
"                                                                                                                                ",
"                                                                                                                                ",
"                                                                                                                                ",
"                                                                                                                                ",
"                                                                                                                                "
};
