/* XPM */
static char * diams32_03_xpm[] = {
"32 32 52 1",
" 	c #FF00000000",
".	c #FFFF11727A",
"+	c #FFFFFFFFFF",
"@	c #FFFFD5FFF6",
"#	c #FFFF4AEDD9",
"$	c #FFFFA1FBE8",
"%	c #FFFF20C5B5",
"&	c #FFFF145E53",
"*	c #FFFF90F3E8",
"=	c #FFFF27DCCB",
"-	c #FFFF68E6DA",
";	c #FFFFDDFEF7",
">	c #FFFF74F0E2",
",	c #FFFF41E0D1",
"'	c #FFFFE4FFF9",
")	c #FFFFF3FFFC",
"!	c #FFFFE4FCFA",
"~	c #FFFF66EFDF",
"{	c #FFFF176B5E",
"]	c #FFFF239F8A",
"^	c #FFFF58EEDC",
"/	c #FFFF1A7869",
"(	c #FFFFB0FCEC",
"_	c #FFFFBFFDF0",
":	c #FFFFB2F3F0",
"<	c #FFFF57E5E2",
"[	c #FFFF1AAAA7",
"}	c #FFFF71E9E6",
"|	c #FFFF23DDDA",
"1	c #FFFFCEFDF3",
"2	c #FFFF20A9B4",
"3	c #FFFF1C919A",
"4	c #FFFFFAFFFE",
"5	c #FFFFECFEFA",
"6	c #FFFFBAF7F1",
"7	c #FFFF30DFDC",
"8	c #FFFF98EFEC",
"9	c #FFFF64E7E4",
"0	c #FFFF1CB7B4",
"a	c #FFFF82F1E5",
"b	c #FFFF3DE1DE",
"c	c #FFFFA5F1EE",
"d	c #FFFFA9F0E9",
"e	c #FFFFB6F2EC",
"f	c #FFFF46E4DC",
"g	c #FFFF6DEAE4",
"h	c #FFFF22D2C1",
"i	c #FFFF53E6DF",
"j	c #FFFFAEF4F0",
"k	c #FFFF20D1CE",
"l	c #FFFF1D8574",
"m	c #FFFF20927F",
"                                ",
"                                ",
"                                ",
"                                ",
"            ........            ",
"            ........            ",
"          ..++++++@@..          ",
"          ..++++++@@..          ",
"        ..++####$$@@%%&&        ",
"        ..++####$$@@%%&&        ",
"      ..++##$$$$@@$$*#=-&&      ",
"      ..++##$$$$@@$;>+,=&&      ",
"      ..++##++@@++')+!~#{]      ",
"      ..++##++@@++++++^>/&      ",
"    ..++##++####(_++:<,%[[&&    ",
"    ..++##++###~_+++}|%%[[&&    ",
"    ..++##@@##_1++++23%%[[&&    ",
"    ..++##@@#^_+++4$33%%[[&&    ",
"    ..++++%%__++++##33[[[[&&    ",
"    ..++++%%5++++_##33[[[[&&    ",
"    ..@@##~678<<[[[[%%%%33&&    ",
"    ..@@#~~+9<|0[[[[%%%%33&&    ",
"      &&a>bcd,=%%%%%[[%%&&      ",
"      {/*~9<e=%%%%%%[[%%&&      ",
"      {]fg:bh%%%%%%%[[$$&&      ",
"      &&ijkb%%%%%%%%[[$$&&      ",
"        &l23####$$$$%%&&        ",
"        &m33####$$$$%%&&        ",
"          &&&&&&&&&&&&          ",
"          &&&&&&&&&&&&          ",
"                                ",
"                                "};
