/* XPM */
static char * diams32_00_xpm[] = {
"32 32 11 1",
" 	c #00000000",
".	c #FF11727A",
"+	c #FFFFFFFF",
"@	c #FFD5FFF6",
"#	c #FF4AEDD9",
"$	c #FFA1FBE8",
"%	c #FF20C5B5",
"&	c #FF145E53",
"*	c #FF1AAAA7",
"=	c #FF1C919A",
"-	c #FF2CE0D8",
"                                ",
"                                ",
"                                ",
"                                ",
"            ........            ",
"            ........            ",
"          ..++++++@@..          ",
"          ..++++++@@..          ",
"        ..++####$$@@%%&&        ",
"        ..++####$$@@%%&&        ",
"      ..++##$$$$@@$$##%%&&      ",
"      ..++##$$$$@@$$##%%&&      ",
"      ..++##++@@++@@####&&      ",
"      ..++##++@@++@@####&&      ",
"    ..++##++####$$$$**%%**&&    ",
"    ..++##++####$$$$**%%**&&    ",
"    ..++##@@##$$$$$$==%%**&&    ",
"    ..++##@@##$$$$$$==%%**&&    ",
"    ..++++%%$$$$$$##==****&&    ",
"    ..++++%%$$$$$$##==****&&    ",
"    ..@@####********%%%%==&&    ",
"    ..@@####********%%%%==&&    ",
"      &&##**%%%%%%%%**%%&&      ",
"      &&##**%%%%%%%%**%%&&      ",
"      &&--**%%%%%%%%**$$&&      ",
"      &&--**%%%%%%%%**$$&&      ",
"        &&==####$$$$%%&&        ",
"        &&==####$$$$%%&&        ",
"          &&&&&&&&&&&&          ",
"          &&&&&&&&&&&&          ",
"                                ",
"                                "};
