/* XPM */
static char * diams32_01_xpm[] = {
"32 32 25 1",
" 	c #FF00000000",
".	c #FFFF11727A",
"+	c #FFFFFFFFFF",
"@	c #FFFFD5FFF6",
"#	c #FFFF4AEDD9",
"$	c #FFFFA1FBE8",
"%	c #FFFF20C5B5",
"&	c #FFFF145E53",
"*	c #FFFF1AAAA7",
"=	c #FFFF1C919A",
"-	c #FFFF1D8574",
";	c #FFFF1CB7B4",
">	c #FFFF7AE2CF",
",	c #FFFF1E9DA7",
"'	c #FFFF28CCD9",
")	c #FFFF176B5E",
"!	c #FFFF22D2C1",
"~	c #FFFF27DCCB",
"{	c #FFFF4EE2D4",
"]	c #FFFF2CE0D8",
"^	c #FFFF1EC4C1",
"/	c #FFFFBFFDF0",
"(	c #FFFFB0FCEC",
"_	c #FFFF1A7869",
":	c #FFFF239F8A",
"                                ",
"                                ",
"                                ",
"                                ",
"            ........            ",
"            ........            ",
"          ..++++++@@..          ",
"          ..++++++@@..          ",
"        ..++####$$@@%%&&        ",
"        ..++####$$@@%%&&        ",
"      ..++##$$$$@@$$##%%&&      ",
"      ..++##$$$$@@$$##%%&&      ",
"      ..++##++@@++@@####&&      ",
"      ..++##++@@++@@####&&      ",
"    ..++##++####$$$$**%%**&&    ",
"    ..++##++####$$$$**%%**&&    ",
"    ..++##@@##$$$$$$==%%**&&    ",
"    ..++##@@##$$$$$$==%%**&&    ",
"    ..++++%%$$$$$$##==****&-    ",
"    ..++++%%$$$$$$##==***;>&    ",
"    ..@@####********%%%%,')&    ",
"    ..@@####********%%%!',&&    ",
"      &&##**%%%%%%%%**!!-&      ",
"      &&##**%%%%%%%%**~{&&      ",
"      &&]]**%%%%%%%%*^//&&      ",
"      &&]]**%%%%%%%%;;/$&&      ",
"        &&==####$$$(!~&&        ",
"        &&==####$$$/~%&&        ",
"          &&&&&&&&___&          ",
"          &&&&&&&&:-&&          ",
"                                ",
"                                "};
