/* XPM */
static char * diams32_02_xpm[] = {
"32 32 36 1",
" 	c #00000000",
".	c #FF11727A",
"+	c #FFFFFFFF",
"@	c #FFD5FFF6",
"#	c #FF4AEDD9",
"$	c #FFA1FBE8",
"%	c #FF20C5B5",
"&	c #FF145E53",
"*	c #FF26AB95",
"=	c #FF20927F",
"-	c #FF1AAAA7",
";	c #FF7EEBE8",
">	c #FF1EC4C1",
",	c #FF75E8DD",
"'	c #FF1C919A",
")	c #FF4EE2D4",
"!	c #FF28CCD9",
"~	c #FF22D2C1",
"{	c #FF22B5C1",
"]	c #FF24C1CE",
"^	c #FF20D1CE",
"/	c #FF66EFDF",
"(	c #FF1CB7B4",
"_	c #FF23DDDA",
":	c #FF34DECE",
"<	c #FF27DCCB",
"[	c #FF2CE0D8",
"}	c #FF41E0D1",
"|	c #FF74F0E2",
"1	c #FF58EEDC",
"2	c #FFBFFDF0",
"3	c #FF82F1E5",
"4	c #FF176B5E",
"5	c #FF1D8574",
"6	c #FF47D6BE",
"7	c #FF239F8A",
"                                ",
"                                ",
"                                ",
"                                ",
"            ........            ",
"            ........            ",
"          ..++++++@@..          ",
"          ..++++++@@..          ",
"        ..++####$$@@%%&&        ",
"        ..++####$$@@%%&&        ",
"      ..++##$$$$@@$$##%%&&      ",
"      ..++##$$$$@@$$##%%&&      ",
"      ..++##++@@++@@####&&      ",
"      ..++##++@@++@@####*=      ",
"    ..++##++####$$$$--%%;>&&    ",
"    ..++##++####$$$$--%,>-&&    ",
"    ..++##@@##$$$$$$''))--&&    ",
"    ..++##@@##$$$$$$'!,~--&&    ",
"    ..++++%%$$$$$$##{]^---&&    ",
"    ..++++%%$$$$$$#/!{----&&    ",
"    ..@@####------(_:%%%''&&    ",
"    ..@@####-----(_^<%%%''&&    ",
"      &&##--%%%%~<<<--%%&&      ",
"      &&##--%%%~<<:%--%%&&      ",
"      &&[[--%%<~<<~%--$$&&      ",
"      &&[[--%%:}:<%%--$$&&      ",
"        &&''#|/12$$$%%&&        ",
"        &&''#/|3$$$$%%&&        ",
"          &&4*55&&&&&&          ",
"          &&6=7&&&&&&&          ",
"                                ",
"                                "};
