/* XPM */
static char *xpm_[] = {
/* columns rows colors chars-per-pixel */
"48 48 24 1 ",
"  c #FF005500",
". c #FF005B00",
"X c #FF005C00",
"o c #FF006300",
"O c DarkGreen",
"+ c #FF006B00",
"@ c #FF006D00",
"# c #FF007300",
"$ c #FF007600",
"% c #FF007B00",
"& c #FF007D00",
"* c #FF008000",
"= c #FF008500",
"- c #FF008900",
"; c #FF008C00",
": c #FF009000",
"> c #FF009700",
", c #FF009800",
"< c #FF009E00",
"1 c #FF00A100",
"2 c #FF00A600",
"3 c #FF00AC00",
"4 c #FF00AD00",
"5 c #FF00B000",
/* pixels */
"&&&555&&&@@@@@@$%$OOO$$#-==***###@@##@#:::   $##",
"&&&555&%&@@@@@@$$$O+O#$#---*&*###@@@###:::   $$$",
"&&&554%&&@@@@@@%$$O++###---&**#@$@@@@##:::   $#$",
"&&&$$$---*****=OO+***O++OOO>>:::;&&&554#$#@#@###",
"&&&$$$--;******++O=*=++++OO::::::&&%554$$#@@@$##",
"*&&###---&**==*OO+***+O+OO+>:>:::&&&555$$#@@@##$",
";;;$$$OOo+++###@##$$$$%$&&&---:>:,,,@@@X.XO++111",
";;;$#$ooo+++#@#@@@$%%$$%&&&---:::,,>@#@X.X+OO121",
":;;$$$ooo+++@##@@#$$%$%$&&&---:::,,,#@@.XX+O+111",
"XX.@+@###&*&%%%***ooo%%%OOO+++$$$***$$$###::;ooo",
"...@@+###***%$%=*=ooo%%%++O+O+$$$***%$$###:>:Ooo",
"...+++###***%%%*=*ooo%%%OOO+++$$$***$$%###:::Ooo",
";;;+++,,>+++>>,,,,#@#>>>222...OO+:::>>>OOO@###$$",
";;;+++,,>+++>>,,,,@#@,>>222...O+O::::>>OOO@@@$$#",
";;;+O@,,>++@>>>,,,@#@,>>222...+O+:::>>>OOO#@@$#$",
"**=***XXX:;:O+O**&&&&===@@@&&&#@@+++XXX@#@$$$&&&",
"*==**=XXX:::O++&*&&*&===@@#&&&#@#+++XXX@##$$$&&&",
"=*****XXX::;+O+***&&&===@#@&&&@#@+O+XX.#@@$$$&&&",
"OOO=-=:::%$%%%%O+O$##OOO+++@@@111>>>&%%:::&**%%$",
"OOO-==:;;$%$%%%+++###+O++++@@@111>>>%%%;::**&$$$",
"Ooo===:::%$%%%%+++###OOO++@@#@111,,,%%%:>:***%%$",
"$%%@@@-=-###%$$ooo:;;@++***,>,@@@O+O$$$---O+O::>",
"$$$@@#=-=###$%$oXo;:;+++***,,,@#@+++$%%---+OO>::",
"$%$@@@-==###%$$ooo;;:@++***,,,@@@+OO$$$-;-OO+:>:",
":::===112>:>>>>++O,,,=-=<<<>>:+++%%%+@+&%&---OOO",
":::===211:>:>>>+++,,,===<<<::>+OO%%%@+@%&%-==OOO",
":>:===111>:>>>>OO+,,,--=<<<>>:+++%%&+@+&%&---OOO",
"***+++121$$###$**&:>>OOO@@@%%%%%%>::$$$<<<$$$++O",
"**&+OO212$$$#$$**=>:>OO+#@@%$%%%%::>$$$<<<$$$+O+",
"***+++121$#$###***>>>O+O@@@%%%%%%>>:$$$<<<$%$++O",
"====-=***:::+++111$$$%&%444XoX;::+++$$$#@@&**$$%",
"===---***:;;+O+111$$$&%&444oXo::;+++$$$@##***$$$",
"====-=***:::+++111$$$&%&444oXo:::++O%$$#@@&**$%$",
"@+@,,,@@@;:;&*&+++&%%##@&*&%%%$#$ooo<<<O+OooO###",
"+++,,,@@@;;;***@++%%%###***&%%###oXo<<1OO+ooo##@",
"+++,,>@@@;:;**&+++%%%@@#**&%%%##$Xoo<<<OOOooo###",
"222***O+O###*=*%%%+++oXo###$%%###ooo---::;XoX***",
"222***+O+#@#=**%%%++@Xoo###%%%###ooo---::;oXX***",
"222***++O$##=**&%%@@+ooX###%$%###Ooo---;:;Xoo***",
"+O+:::X..%%%oOO**=OO+455---%%&::;===---#@#:>:,,,",
"+OO>>:...%%%ooo**=+O+455-;-&&&:,:===-;-@#@:>:,<,",
"O++:::...%%&ooO***O++554---&&&:;:===---##@:::,,,",
";;;;--444XoX<<<>>>&&&&%&OOO&&&&&*@#@>::===$##XoX",
":;;-;-444ooo<<<>,,&&&%&%OOO*&&&&*@@@:>>==-###oXo",
";;;;-;444XoX<1<>,,&&&&%&Ooo&&&&&&@@@:>:===#$#oXX",
"@@@*&*#@####;;;***&&&%&%&$$433ooo>>:++@%%%@@@---",
"@++&&*#@@#@#;::***&&&%%&$$$433ooO::>+++$$%#@@---",
"+@@**&@@#@##:;:**&&&&&&%$$$434ooo:>:+++%$$@@#--="
};
