/* XPM */
static char *a9448b59342d4e8ffc5405628eaaaae69br2C0oPa3Hy6Fu0[] = {
/* columns rows colors chars-per-pixel */
"64 64 77 1 ",
"  c #00B100",
". c #00AC00",
"X c #00A300",
"o c #00A700",
"O c #00BA00",
"+ c #00BF00",
"@ c #00B500",
"# c #00A900",
"$ c #009B00",
"% c #009000",
"& c #008700",
"* c #007F00",
"= c #007700",
"- c #007C00",
"; c #008D00",
": c #009100",
"> c #008800",
", c #008F00",
"< c #009400",
"1 c #009500",
"2 c #008400",
"3 c #008B00",
"4 c #009800",
"5 c #008300",
"6 c #009300",
"7 c #009C00",
"8 c #00AB00",
"9 c #00A600",
"0 c #008E00",
"q c #008100",
"w c #008200",
"e c #009900",
"r c #009F00",
"t c #00B800",
"y c #00C100",
"u c #00B600",
"i c #007600",
"p c #00A200",
"a c #00AA00",
"s c #00A500",
"d c #00A100",
"f c #00BD00",
"g c #00B900",
"h c #00AD00",
"j c #008A00",
"k c #007B00",
"l c #007E00",
"z c #008900",
"x c #009600",
"c c #008C00",
"v c #008000",
"b c #008500",
"n c #008600",
"m c #009700",
"M c #009200",
"N c #00A400",
"B c #00AF00",
"V c #00A000",
"C c #00BE00",
"Z c #009E00",
"A c #007A00",
"S c #009D00",
"D c #00BB00",
"F c #00B200",
"G c #007D00",
"H c #007800",
"J c #00A800",
"K c #00B700",
"L c #00B000",
"P c #009A00",
"I c #007900",
"U c #00AE00",
"Y c #00B300",
"T c #00B400",
"R c #00C200",
"E c #00BC00",
"W c white",
/* pixels */
" .XoO+@#$%&*=-;:>&,<1:>22>%%>344355&,6<7890qw,9#ertyu#$%>*iwp87<",
"as$d@fgh7%j5kl3;&zxe<c2vw>:,b>4ej2n;m4MxNNx3b%aBdVh@u.e35vw;dNm%",
"7x;<agC@ZM%35wn&2;dX:2-Av>:;*qxejbcmNp,3xrNS3: DBp4r@F1wAw4pZx;>",
"6%z%XBF.S4Z$,&22n,rSjGHGz%:jGl;6:,,mNNx00xNp,:JuKojcaLP>-5$px35*",
"6M%<Zrx64XFB$;nnc%%zGI-zSV%bw*lzSV,cxrNZ;jxe6%:ruU>*1X9Sz530j5kH",
"$ex1x16mphtL4z2zx4;wAlc$9X:n2vI5$V,z%Psse1ePm%>1FL;ln<Np02>jz2k=",
"8se%j6#KOKUSn-v;psmjwcJLXe6;nwv53,,%614dUFhNP6,ehh4&l5<xz>6m6c5*",
"a9r4:mautBS;5wj1dd1,0PBBe0,%,0cz&3me66$9YuUpMc:eddxjGl;M;01mM,,%",
"PZ9aJdm17mn50eXd1c>,r9pecnn,rN71%1Np,M.YorS6wv;6%;jbq2,x410z&,rJ",
"PSX9NZx<e:-k,ZoXMjc1dsp$6c>%poSeSXJp:1hL761Mjcm1>5b>j33,xMb50ep9",
"8Nx3b,JYU7vH2,4$e$XV<eU@.V1Mem01hFXP4PZSx<4V8LhV323MmMw*&bAn9.4;",
"or,qHn#u.PwA5z0:xS9V3;sUoVPx<,z1F@7%1m<<xPV#T@UN41e$PM2vbn509aP:",
",%%3wn4S<jw5c0j>z,m1z2nn2jm$xM%eh86&zc:xPd#aXZ$VUYUp:c:6%<Z$06JT",
"l5cM<6%czz;:6%&5b;PP0bvkHl;1xx<P9p;2>30:179oZ$SsFuUp:;14mrhpqbhR",
"iA5<8aM&cxpXe,n23PBBP%M,2lln1PxmrP3>6<3&>0mr9hTF9Z7Pe<004XUpq59g",
"*ll0.Le;,xdNZe114p  pPe<zvI*6S7rsZ3>6m:;33;<rhOuV<1m46>&M7X$bb4p",
"1;GvxXsZ,>c1XhFF.9dpJpM>bw*2%7sBth%5>MVX7<3>34hLp$$m,zbb>3;;;jbw",
"Zmzb34ao,b3<VaTtKUVV.JMb2>%6%1XBuLS;5jp#$:cjc1p9rSp$>q>zb&0<10qA",
"mPV$c:oo03Zd<:PoKOB8L#4cb%#aMjxSZ9 9bqe7>2%$XXS4x7JV2l%6>,JhSM;3",
",mNN1xsX:07Z6%xsOCL##Xm0jxU S:,,:7Uojq;cG57#JXS7Zps7>2M<j1Yur6<1",
"&cxZN9NZ1cb3SoJLCOsPPxc36PZ9L#:z%<<M0zqGl,U P<pBuBe,MM;3;eUB76<1",
"5z1roore6j*nr.hU UN7x,nj4$MeBBe0,;b&%,2lq:h.%j7aBs;z4P;cepNXZ4M%",
"w;dore463>j,4ZpZ1$BLZ,njeeccPX9r,n5&%11%&3PPjb3;jn5z4$MeBU4<Xp%n",
"j%7pd76;z;4eMM4e<7LBP;zc<103;xsd;5n;m$P1;30;zz;&II>6e$$NTUM0dp%n",
"e6&%.h6&;49X,z:ZhL9P;z0,c01<3cmxzbcmsXM;<63>;xdel*PNPPsa#d<:m46%",
"P%lbs.e0,1ZZ<,M7h.4czj0;n>6<3361:,,mNVccrd,3xd#r&b4dSZ99r7rr7ex<",
"3>w50eXV%b5cZXe<<%z>0,jn22&306ersr03x1>:U P1NJV4:j2cVorexrLuUNe<",
"*qn>z%SS,wIq4rx;>z%6:0jz;%MM:%MPsX1%<MjM#LsdsVM3cz2;XJ76%eBuUNe6",
"=Gj6m6>n;c5vwb&zc4.a6>;xd8F#M5*b6ZNNZ4M%:SLBPz*AAb4XNpZx3;PVSe16",
"kw011cGl,10bkH-n1XLaM>;mNBuBe>l5xXa#V$7xj1YFM*GGq;poS4$403;,M1e$",
"c,6,5Gln17e:bkH2r9PM:0zcx7rpsr:xhT#r4PsX1eU8%2zMZpZm0;6m4<j>,eNa",
"<6:cb2z%ed9Xxjvbe7;z:%&z<m:xNorXTYX$SXa9m<S$%301Zr4052:44x%M$Xah",
"<%j;$V$e$sTK.V6zbb3:<%&cVd,3xroa#XeSBT#70nw&61cn5&%;lv640%Z8TYJX",
"$x;6sJP4phKu8de;v5<P6;z<.a,n%7J#r$So@TX<>wqjeP;b5n;3vw:63%X KLrx",
"as7$pPnc.tUd<,MM;<Np%>;S@ :&<ZpVeZL@.XP%njPpV$M6S70>j3jj0<ZXpP,z",
"F.p$e%5;.FV<61ee6xdd<00PUBS1P$e1:$ TX$$4:xNo7eSX#dczx$x664rZ<;z&",
"F8Z6c3:eXr,M#YUd%zc1dZ034s Ur6c>&%dN$$s#oNrm;1hFN1>cdBY.$e9X%>;%",
"aXx0j;<7NpmP#L.V;2&Mpse<mV.#4;zn5>M<06X.h9x3&1Y@7cz0$#@ ZZBa,&:m",
"$xc36<cxUOK#Mcx1z>M4edhFhd%&&j0;n2&bl5<rX7;&cPU86>0;njPV7st M>17",
"m:&37S%<.OO#>qM1zj4rZotELSb-5j:6%%M;q*&,m4M%6epZ,z0j-kb:SJ #<%SN",
"S1>;XJSeSVVP,MpV;zms KKLdx,c0%MmVa 8m&lv0PXXe6,,%0jbqGk>doP6xZJh",
"4<;6NJS4P4<xSN8N%jMXOCLNZexxPSZs tOU4z2jedXZ10zz00jj0z-5Zp,z6S9a",
"z;<$d7,:pN47BT#Z<;jeKDNS9sPesU@D+g#m224#@.%5nj00zz;xpS>b<e6;30m7",
"j;<$d7,%rpmZ@Kd4$1&,8 pZoNx<V8Tgg.xnl&rUT9zkG2;:%,,mssx00:1<;30,",
"4<;6NJS1:%:7B.<:Xdc>mXJoVmc>c67dVx5l>:4PxM0&-k5%Vr03xrsZ03m7P6jn",
"4M&3V#9P&b<rNS00Zp46M4pVMj>&&>j,m65*&%4x3z0cq-lzSXeM,xNNx:1441:0",
"j>5><V#r55Zsx0,,04.h$:%z**3::j*nrN1&lnrNm;zzc&G->ehaMjxrsV:zz:ro",
"0,M<1S.Xbw$V,z0;><BTN13n2&0%0&*n7d<j&%psm%,,%jGk218he00<r70>cxN8",
"s# Uddhs3w3%%0zz;1p##X1<ZS,2l*>0,jvzX.dxc%rr,2vbMm1eXr,b2n;xdNZ$",
" TgTXSXV13w5303;<e7N he<r$>*qbjzwkHjLKV;5zSXe%jc<:5&SV%wAkn<NNx0",
"FB8NP6,1p75Aw3<e$7SogYxb2vAw4PbI=H-08LZclGzPhhP032A-z%:c5Gk5<mcn",
"as$mP130r7nv;xPSSP1$#o<2k=A>VX%&&&bcPr4;*H-cJUS6%;jn5&%<:;z3MM3&",
"7x;:dXx00;318UZmm:2*23<Mbwz%mV8 F9,5w&%%nGHlc<<epaBs;b,epaB.VmM,",
",c>M8 Xm%:$oTLS:;>qG-nP7cn;64Nt+gocGkq30&wlvz0,<V.uBP,M4daF JVex",
"n>c$TDLos#TYoSxcvq0<MeoX05n%dU@B73G-&czn2nj6VZ0&367X9XeM,,MPo#V$",
"0:mp uYF@Kgh1,P4n2:7N8LoM&n,ro9dm0&bjcz&>j0ms9PM,00<ZZ<,,;j%r9NX",
"9o#odX.@fg#1wz#LZ%j1BO@#4%%%,0;m8 Jebvj%:0jcxpBFaZ,n22b,rX71%m9U",
"a.L#P4XU@Uej2: tXxMS@DLXx:<%&wb:oL87bw64%3zz;e.F8Sz-H-><Zd$:2>7o",
"$d.a$1e7Z4c;PJF.1<J@uBp1c3M:&b;0jz00c<XZnv3,jj%6:zGH-zSZc2>n-Gz%",
"MPa#400674j,o a$n,Y+ X4%j>3;0%:cwlq&,SBa%2jzwwj3bqGGq,Np>G22-AG*",
"M$aoMbb6h.%0o84&AzFE9416:jvn7V%j%,&n0r@g8ebIi5$Z32jjb37ZM;,c2GI=",
"$r9pM3%7hoc>7Sz*q:h S66xPM*bVp3>$73z4JttaPjww;dNx,%,c,me6Mx6z5v*",
"a9Zemrh.7cllzzGqmN9p466PsVj>$ew2VX;,atKJ,jPppVSZNr,3<4mM3;mxj>%1",
"FaP1$#f@6G=H**=5XUXPx66789,j46G5X906TyKVvqpTYaPP8o0z4Sm,&j44jj4V"
};
