/* XPM */
static char *_a3afd002ee14378dc43b63dbe4405f8dWF1jv5ywr09254i[] = {
/* columns rows colors chars-per-pixel */
"32 32 159 2 ",
"   c #FF161417",
".  c #FF171618",
"X  c #FF262E22",
"o  c #FF292F25",
"O  c #FF2A3226",
"+  c #FF2D3528",
"@  c #FF304028",
"#  c #FF375526",
"$  c #FF395326",
"%  c #FF365925",
"&  c #FF3A5C27",
"*  c #FF3A5628",
"=  c #FF3A5B2A",
"-  c #FF384631",
";  c #FF3B4B34",
":  c #FF3C642E",
">  c #FF3E692E",
",  c #FF3E6630",
"<  c #FF3F6830",
"1  c #FF425F2A",
"2  c #FF415D32",
"3  c #FF46662C",
"4  c #FF406B2F",
"5  c #FF4B6A2D",
"6  c #FF446C33",
"7  c #FF476139",
"8  c #FF4A643C",
"9  c #FF456A38",
"0  c #FF477133",
"q  c #FF4A7335",
"w  c #FF4C7935",
"e  c #FF4D743A",
"r  c #FF4F7939",
"t  c #FF51753E",
"y  c #FF527B3C",
"u  c #FF4D6640",
"i  c #FF546C46",
"p  c #FF566E48",
"a  c #FF547446",
"s  c #FF567B43",
"d  c #FF597C46",
"f  c #FF567448",
"g  c #FF5B764B",
"h  c #FF5C7D4B",
"j  c #FF578142",
"k  c #FF5D834B",
"l  c #FF61824E",
"z  c #FF62894F",
"x  c #FF638450",
"c  c #FF638650",
"v  c #FF648551",
"b  c #FF658453",
"n  c #FF668653",
"m  c #FF668654",
"M  c #FF678754",
"N  c #FF678755",
"B  c #FF658552",
"V  c #FF6A8757",
"C  c #FF6A8757",
"Z  c #FF638852",
"A  c #FF628A52",
"S  c #FF648952",
"D  c #FF648853",
"F  c #FF648A52",
"G  c #FF648C50",
"H  c #FF648C51",
"J  c #FF678B55",
"K  c #FF678D55",
"L  c #FF678E55",
"P  c #FF658A54",
"I  c #FF698855",
"U  c #FF698956",
"Y  c #FF698B56",
"T  c #FF698A57",
"R  c #FF6A8A57",
"E  c #FF698E55",
"W  c #FF688D56",
"Q  c #FF698C57",
"!  c #FF6A8C57",
"~  c #FF6B8C57",
"^  c #FF6A8D57",
"/  c #FF688E56",
"(  c #FF698E56",
")  c #FF688F56",
"_  c #FF688E57",
"`  c #FF698E57",
"'  c #FF698F57",
"]  c #FF6B8F56",
"[  c #FF6A8F57",
"{  c #FF6B8F57",
"}  c #FF698B56",
"|  c #FF6C8B58",
" . c #FF6B8C58",
".. c #FF6A8E58",
"X. c #FF6C8C58",
"o. c #FF6C8E58",
"O. c #FF6B8D58",
"+. c #FF689057",
"@. c #FF699057",
"#. c #FF699157",
"$. c #FF6A9057",
"%. c #FF689257",
"&. c #FF699257",
"*. c #FF699057",
"=. c #FF6A9058",
"-. c #FF6A9158",
";. c #FF6A9258",
":. c #FF6B9258",
">. c #FF6B9358",
",. c #FF6D9058",
"<. c #FF6D9158",
"1. c #FF6D9059",
"2. c #FF6D9159",
"3. c #FF6E9159",
"4. c #FF6F9159",
"5. c #FF6D9259",
"6. c #FF6C9359",
"7. c #FF6D9359",
"8. c #FF6E925A",
"9. c #FF6F925A",
"0. c #FF6F935A",
"q. c #FF6D9459",
"w. c #FF6E9459",
"e. c #FF6D945A",
"r. c #FF6D955A",
"t. c #FF6D945B",
"y. c #FF6E945A",
"u. c #FF6F945A",
"i. c #FF6F955A",
"p. c #FF6A9058",
"a. c #FF70935A",
"s. c #FF70955A",
"d. c #FF70955B",
"f. c #FF71955B",
"g. c #FF70945B",
"h. c #FF72955B",
"j. c #FF70965B",
"k. c #FF71965B",
"l. c #FF71975B",
"z. c #FF71965C",
"x. c #FF71965D",
"c. c #FF72965C",
"v. c #FF73965D",
"b. c #FF73975D",
"n. c #FF72965D",
"m. c #FF73975E",
"M. c #FF72985D",
"N. c #FF74985D",
"B. c #FF74985F",
"V. c #FF75995F",
"C. c #FF759860",
"Z. c #FF769961",
"A. c #FF769A61",
"S. c #FF769A62",
"D. c #FF779B63",
"F. c #FF779B62",
"G. c #FF789B63",
"H. c #FF789B64",
"J. c #FF799C65",
/* pixels */
"q 6 4 > > 4 0 6 < : : : : : : : > > : : : : : : : : > > > 4 6 q ",
"6 6 4 > > > 6 6 , : : : : : < > > > > < : : : : : : > > > 4 6 6 ",
"< < > > > > < < : : > > > > 6 6 > > 6 6 < : > > : : : : > > 4 4 ",
": > > > < < < < < 6 6 6 6 e e e 9 9 e e 9 6 6 4 < < : : : : > > ",
"> > > < 6 6 6 6 0 q t s h h l h a a h h s t w q 6 6 > > : : > > ",
"> > > 6 0 q e e y s k l C | R m l x R R l k s y e q 6 4 > > > 4 ",
"> > 6 6 q r t d l x S K 3.3.[ [ [ 3.3.3.K S x l d t w 0 > > 6 6 ",
"4 6 q e y j k x R  .=.3.x.x.e.e.s.s.s.e.=.@.[ m x k j y q 6 q q ",
"0 q t d k G [ 3.3.3.3.x.Z.Z.Z.Z.x.e.=.3.e.3.[ [ [ [ G k s t q q ",
"q e d l K 3.s.x.x.x.x.B.Z.G.G.Z.x.e.=.3.s.s.=.=.s.s.3.K l d r q ",
"w y k K 3.s.s.x.Z.G.D.Z.B.x.x.x.x.s.e.e.s.s.e.e.s.s.s.3.K k y w ",
"y s z =.3.e.s.x.Z.H.J.Z.x.s.s.s.e.e.s.s.s.s.e.3.3.3.e.e.=.z s y ",
"s h v [ @.=.e.x.x.Z.H.Z.x.s.s.e.=.=.e.s.s.e.=.@.[ [ @.@.[ v h s ",
"h l v R [ =.e.s.s.B.Z.Z.x.e.s.e.=.=.3.e.s.3.=.[ [ [ @.@.R v l h ",
"v m J [ [  .=.e.s.B.B.M.3.3.s.s.e.e.=.=.o.o. .[ [ @.@.@.[ J m v ",
"C R [ Z g p f f g g g h S @.3.e.a.3.K x g p p p f f f g Z [ R C ",
"C R @.g ; O + + + + + ; g  .=.=. .R l i - + + + + + O ; g @.R C ",
"v J [ f O     . .     O i R [ [ m x h 8 o     . .     O f [ J v ",
"h l R p O     . .     o 8 x R m l h h 8 o     . .     O p R l h ",
"s h v g ; O + + O O X @ 8 s h h a a s 8 @ X O O + + O ; g v h s ",
"q y z S h f p i u 7 2 : 6 6 6 9 6 6 6 6 : 2 7 u i p f h S z s e ",
"0 r k K @.=. .R x d e 6 > : : : : : > > 6 e d x R  .=.@.K k e 6 ",
"0 e d l J  .[ [ R k e > > : : : : : : > > e k R [ [  .R l s 6 > ",
"6 q t d l v S Z l s 6 > : : > > : : : > > 6 s l Z S v l d e 6 > ",
"4 6 q t g h k d e 6 < > 3 3 3 3 3 3 3 3 > < 6 e d k h d e 6 > > ",
"> > 6 q t s s t 6 : : : 3 5 5 5 5 5 5 3 : : : 6 e s s t 6 > > > ",
"> > > 6 q e e q 6 : * = 3 5 5 5 5 5 5 3 = * = 6 q e e q 0 6 > : ",
"> > > > 6 6 6 6 : * * * 1 3 3 3 3 3 3 1 * * = > 6 0 0 0 0 6 < : ",
"> > > > > < < : * * $ $ * = & & = * * * $ * % : > 6 0 0 6 > > : ",
": : > > : : : = * $ $ $ $ $ # # # $ $ $ $ $ # & : 4 6 6 > > > > ",
": : : > > > : = * $ # # $ $ $ # # % % # $ $ $ & : > < < > > > > ",
": : : > > > : = * # % % # $ $ * % % % % * $ $ * : > : : : > > > "
};
