/* XPM */
static char * nums16_00_xpm[] = {
"16 16 2 1",
" 	c #00000000",
".	c #FFBB0000",
"  ......        ",
"  ......        ",
"..      ..      ",
"..      ..      ",
"..    ....      ",
"..    ....      ",
"..  ..  ..      ",
"..  ..  ..      ",
"....    ..      ",
"....    ..      ",
"..      ..      ",
"..      ..      ",
"  ......        ",
"  ......        ",
"                ",
"                "};
