/* XPM */
static char *xpm_[] = {
/* columns rows colors chars-per-pixel */
"48 48 32 1 ",
"  c black",
". c #FF040404",
"X c #FF090909",
"o c #FF0C0C0C",
"O c #FF101010",
"+ c #FF151515",
"@ c #FF1B1B1B",
"# c #FF1D1D1D",
"$ c #FF222222",
"% c #FF272727",
"& c gray17",
"* c #FF2D2D2D",
"= c #FF343434",
"- c #FF373737",
"; c #FF393939",
": c #FF3F3F3F",
"> c gray26",
", c #FF444444",
"< c gray29",
"1 c #FF4B4B4B",
"2 c #FF505050",
"3 c #FF535353",
"4 c #FF5A5A5A",
"5 c gray39",
"6 c DimGray",
"7 c gray51",
"8 c gray52",
"9 c #FF888888",
"0 c gray58",
"q c #FFA4A4A4",
"w c gray67",
"e c #FFBBBBBB",
/* pixels */
"  @X   .     #X            o   o    #           ",
"    >        O.          X         &  X   .     ",
"  .          .  w     .           X  &    +   . ",
"    .    X          $       .          >        ",
"         &          .   3    .         XX       ",
"  <  >       O     X  &                     :   ",
"   @                      .                     ",
"           X@     O  . X  .               .     ",
" .    &           X        .      5             ",
"    ..                .    .   X        .     . ",
"    .          &                  .  %          ",
"  .    .                                 X      ",
" .                         6 *                  ",
"      .   X              X     o1 .          .  ",
"                          . o                   ",
"      =          o,     .  #.    o    5     o   ",
"X   .               *        o    . X  X        ",
"                          o          o  .O .    ",
"                 X    X      O      .  X        ",
"O                  X   5        $     0        ,",
"   o       <       4         o                  ",
"    X                   .              XX  3# = ",
"      O       X           .            O  3..   ",
":         o             .                 O  .  ",
"   X       X                   .             +  ",
"   o       .      O   + X     .           X     ",
" .   ,                X                    %    ",
"=              ;             o  o.   o          ",
"      o o              *         *              ",
"       .    #   3        X        X   O    .    ",
"          ;  *            o       .    e.       ",
" X         . ...                       X    .   ",
"               .                   o        X   ",
"        .       O   O .         o       X   ..  ",
"  +   $.   . X      ..              .        o  ",
"     o             .   @ .  O     .     .       ",
"      % q              .    .    :       X      ",
"          o            X o+   X                 ",
"  8&     q.           .  X . #      O         .+",
"    o                                     :     ",
"      9               o                    .    ",
"               o     O          o  o  o    O.$  ",
"        .  X . .       .       7     o   o  .   ",
" o   X         X                 #4  . X   .    ",
"                      X.          X       %     ",
"       #      o     ;    . .    8          =  $ ",
"           #  .        #     &   .   .       .  ",
"   .   o                          >   o& $   .  "
};
