/* XPM */
static char *_5609a7b74404f75e8a036d4590cc865IHu8fAvJyganXfFH[] = {
/* columns rows colors chars-per-pixel */
"32 32 18 1 ",
"  c #00000000",
". c #00000000",
"X c #00000000",
"o c #00000000",
"O c #00000000",
"+ c #00000000",
"@ c #00000000",
"# c #00000000",
"$ c #00000000",
"% c #FF383328",
"& c #00000000",
"* c #00000000",
"= c #FF080808",
"- c #FF3F3F74",
"; c #FFFCE0A8",
": c gray8",
"> c #FFF83800",
", c #FFFFFFFF",
/* pixels */
"      ..XXXXooOOOOooXXXX..      ",
"      ..XXXXooOOOOooXXXX..      ",
"      ....++========++....      ",
"      ....++========++....      ",
"      ..====--------====..      ",
"      ..====--------====..      ",
"    ..++==------------==++..    ",
"    ..++==------------==++..    ",
"    ..==----------------==..    ",
"    ..==----------------==..    ",
"    ..==----------------==..    ",
"    ..==----------------==..    ",
"    ..==--------;;;;--==++..    ",
"    ..==--------;;;;--==++..    ",
"    ..==--::--;;;;==;;==..      ",
"    ..==--::--;;;;==;;==..      ",
"    ..@@==;;::;;;;==;;==..      ",
"    ..@@==;;::;;;;==;;==..      ",
"      ..##==;;;;;;;;;;==..      ",
"      ..##==;;;;;;;;;;==..      ",
"      ..$$============%%..      ",
"      ..$$============%%..      ",
"    ..&&==>>==>>;;;;====**..    ",
"    ..&&==>>==>>;;;;====**..    ",
"    ..==>>==>>>>>>>>==;;==..    ",
"    ..==>>==>>>>>>>>==;;==..    ",
"    ..==;;==============**..    ",
"    ..==;;==============**..    ",
"    ..##====>>==>>>>==%%..      ",
"    ..##====>>==>>>>==%%..      ",
"      ..==;;;;====;;;;==..      ",
"      ..==;;;;====;;;;==..      "
};
