/* XPM */
static char *xpm_[] = {
/* columns rows colors chars-per-pixel */
"48 48 10 1 ",
"  c #FF58162C",
". c #FF6B002F",
"X c #FF7F0728",
"o c #FF741D32",
"O c #FFA22929",
"+ c #FF2CCDB1",
"@ c #FF4AEDD1",
"# c #FFA2F6E7",
"$ c #FFC3FBF1",
"% c #FFFFFFFF",
/* pixels */
"%%%$$$$$$+++........................+++$$$$$$%%%",
"%%%$$$$$$+++........................+++$$$$$$%%%",
"%%%$$$$$$+++........................+++$$$$$$%%%",
"$$$######@@@XXXOOOOOOOOOOOOOOOOOOXXX@@@######$$$",
"$$$######@@@XXXOOOOOOOOOOOOOOOOOOXXX@@@######$$$",
"$$$######@@@XXXOOOOOOOOOOOOOOOOOOXXX@@@######$$$",
"$$$######@@@XXXOOOOOOOOOOOOOOOOOOXXX@@@######$$$",
"$$$######@@@XXXOOOOOOOOOOOOOOOOOOXXX@@@######$$$",
"$$$######@@@XXXOOOOOOOOOOOOOOOOOOXXX@@@######$$$",
"+++@@@@@@XXXOOOOOOOOOooooooOOOOOOOOOXXX@@@@@@+++",
"+++@@@@@@XXXOOOOOOOOOooooooOOOOOOOOOXXX@@@@@@+++",
"+++@@@@@@XXXOOOOOOOOOooooooOOOOOOOOOXXX@@@@@@+++",
"...XXXXXXOOOOOOooo            oooOOOOOOXXXXXX...",
"...XXXXXXOOOOOOooo            oooOOOOOOXXXXXX...",
"...XXXXXXOOOOOOooo            oooOOOOOOXXXXXX...",
"...OOOOOOOOOooo                  oooOOOOOOOOO...",
"...OOOOOOOOOooo                  oooOOOOOOOOO...",
"...OOOOOOOOOooo                  oooOOOOOOOOO...",
"...OOOOOOOOO                        OOOOOOOOO...",
"...OOOOOOOOO                        OOOOOOOOO...",
"...OOOOOOOOO                        OOOOOOOOO...",
"...OOOOOOooo                        oooOOOOOO...",
"...OOOOOOooo                        oooOOOOOO...",
"...OOOOOOooo                        oooOOOOOO...",
"...OOOOOOooo                        oooOOOOOO...",
"...OOOOOOooo                        oooOOOOOO...",
"...OOOOOOooo                        oooOOOOOO...",
"...OOOOOOOOO                        OOOOOOOOO...",
"...OOOOOOOOO                        OOOOOOOOO...",
"...OOOOOOOOO                        OOOOOOOOO...",
"...OOOOOOOOOooo                  oooOOOOOOOOO...",
"...OOOOOOOOOooo                  oooOOOOOOOOO...",
"...OOOOOOOOOooo                  oooOOOOOOOOO...",
"...XXXXXXOOOOOOooo            oooOOOOOOXXXXXX...",
"...XXXXXXOOOOOOooo            oooOOOOOOXXXXXX...",
"...XXXXXXOOOOOOooo            oooOOOOOOXXXXXX...",
"+++@@@@@@XXXOOOOOOOOOooooooOOOOOOOOOXXX@@@@@@+++",
"+++@@@@@@XXXOOOOOOOOOooooooOOOOOOOOOXXX@@@@@@+++",
"+++@@@@@@XXXOOOOOOOOOooooooOOOOOOOOOXXX@@@@@@+++",
"$$$######@@@XXXOOOOOOOOOOOOOOOOOOXXX@@@######$$$",
"$$$######@@@XXXOOOOOOOOOOOOOOOOOOXXX@@@######$$$",
"$$$######@@@XXXOOOOOOOOOOOOOOOOOOXXX@@@######$$$",
"$$$######@@@XXXOOOOOOOOOOOOOOOOOOXXX@@@######$$$",
"$$$######@@@XXXOOOOOOOOOOOOOOOOOOXXX@@@######$$$",
"$$$######@@@XXXOOOOOOOOOOOOOOOOOOXXX@@@######$$$",
"%%%$$$$$$+++........................+++$$$$$$%%%",
"%%%$$$$$$+++........................+++$$$$$$%%%",
"%%%$$$$$$+++........................+++$$$$$$%%%"
};
