/* XPM */
static char *_f45d9f736be44d4e21df04e7e664cb3l9MVIkLMBvlaFuIB[] = {
/* columns rows colors chars-per-pixel */
"32 32 13 1 ",
"  c #00000000",
". c #00000000",
"X c #00000000",
"o c #00000000",
"O c #00000000",
"+ c #00000000",
"@ c #00000000",
"# c #FF302C22",
"$ c #FF080808",
"% c #FF3F3F74",
"& c #FFFCE0A8",
"* c #FFF83800",
"= c white",
/* pixels */
"            ..........          ",
"            ..........          ",
"        ....XX$$$$$$XX....      ",
"        ....XX$$$$$$XX....      ",
"      ..oo$$$$%%%%%%$$$$oo..    ",
"      ..oo$$$$%%%%%%$$$$oo..    ",
"      ..$$%%%%%%%%%%%%%%$$..    ",
"      ..$$%%%%%%%%%%%%%%$$..    ",
"      ..$$%%%%%%%%%%%%%%$$..    ",
"      ..$$%%%%%%%%%%%%%%$$..    ",
"      ..$$%%%%%%%%%%%%%%$$..    ",
"      ..$$%%%%%%%%%%%%%%$$..    ",
"    ..OO$$%%&&&&%%&&&&%%$$OO..  ",
"    ..OO$$%%&&&&%%&&&&%%$$OO..  ",
"    ..$$&&&&$$&&&&&&$$&&&&$$..  ",
"    ..$$&&&&$$&&&&&&$$&&&&$$..  ",
"    ..OO$$&&$$&&&&&&$$&&$$OO..  ",
"    ..OO$$&&$$&&&&&&$$&&$$OO..  ",
"    ..++$$$$&&&&&&&&&&$$$$++..  ",
"    ..++$$$$&&&&&&&&&&$$$$++..  ",
"    ..$$****$$$$$$$$$$****$$@@..",
"    ..$$****$$$$$$$$$$****$$@@..",
"    ..$$$$$$**********$$**&&$$..",
"    ..$$$$$$**********$$**&&$$..",
"    ..$$&&&&$$$$$$$$$$$$$$&&$$..",
"    ..$$&&&&$$$$$$$$$$$$$$&&$$..",
"    ..@@$$$$$$**$$****$$##$$$$..",
"    ..@@$$$$$$**$$****$$##$$$$..",
"      ......$$&&$$****$$........",
"      ......$$&&$$****$$........",
"          ..@@$$$$&&&&$$..      ",
"          ..@@$$$$&&&&$$..      "
};
