/* XPM */
static char *_b659cf8770b48728da8a69c16882f87SSyKJNo2rW8d7uv7[] = {
/* columns rows colors chars-per-pixel */
"32 32 15 1 ",
"  c #0000000000",
". c #00000000",
"X c #FF13131D",
"o c #00000000",
"O c #00000000",
"+ c #00000000",
"@ c #00000000",
"# c #00000000",
"$ c #00000000",
"% c #FF080808",
"& c #FF3F3F74",
"* c #FFFCE0A8",
"= c gray8",
"- c #FFF83800",
"; c white",
/* pixels */
"      ....XX%%%%%%%%XX....      ",
"      ....XX%%%%%%%%XX....      ",
"      ..%%%%&&&&&&&&%%%%..      ",
"      ..%%%%&&&&&&&&%%%%..      ",
"    ..oo%%&&&&&&&&&&&&%%oo..    ",
"    ..oo%%&&&&&&&&&&&&%%oo..    ",
"    ..%%&&&&&&&&&&&&&&&&%%..    ",
"    ..%%&&&&&&&&&&&&&&&&%%..    ",
"    ..%%&&&&&&&&&&&&&&&&%%..    ",
"    ..%%&&&&&&&&&&&&&&&&%%..    ",
"    ..%%&&&&&&&&****&&%%oo..    ",
"    ..%%&&&&&&&&****&&%%oo..    ",
"    ..%%&&==&&****%%**%%..      ",
"    ..%%&&==&&****%%**%%..      ",
"    ..OO%%**==****%%**%%..      ",
"    ..OO%%**==****%%**%%..      ",
"      ..++%%**********%%..      ",
"      ..++%%**********%%..      ",
"        ..%%%%%%%%%%%%@@..      ",
"        ..%%%%%%%%%%%%@@..      ",
"      ..##%%--%%**%%....        ",
"      ..##%%--%%**%%....        ",
"      ..%%--%%%%%%%%..          ",
"      ..%%--%%%%%%%%..          ",
"      ..%%----****%%..          ",
"      ..%%----****%%..          ",
"      ..$$%%%%%%%%%%..          ",
"      ..$$%%%%%%%%%%..          ",
"        ....%%----%%..          ",
"        ....%%----%%..          ",
"          ..%%****%%..          ",
"          ..%%****%%..          "
};
