/* XPM */
static char *fe6eca4bd53d4258ab12e9beba1801f1lykXa8tcCs0QvO8R[] = {
/* columns rows colors chars-per-pixel */
"32 32 16 1 ",
"  c #0000000000",
". c #00000000",
"X c #FF393534",
"o c #FF554D45",
"O c #00000000",
"+ c #00000000",
"@ c #00000000",
"# c #00000000",
"$ c #00000000",
"% c #00000000",
"& c #FF080808",
"* c #FF3F3F74",
"= c #FFFCE0A8",
"- c gray8",
"; c #FFF83800",
": c #FFFFFFFF",
/* pixels */
"      ....XX&&&&&&&&ooOO..      ",
"      ....XX&&&&&&&&ooOO..      ",
"      ..&&&&********&&&&..      ",
"      ..&&&&********&&&&..      ",
"    ..++&&************&&++..    ",
"    ..++&&************&&++..    ",
"    ..&&****************&&..    ",
"    ..&&****************&&..    ",
"    ..&&****************&&..    ",
"    ..&&****************&&..    ",
"    ..++&&**====********&&..    ",
"    ..++&&**====********&&..    ",
"      ..&&==&&====**--**&&..    ",
"      ..&&==&&====**--**&&..    ",
"      ..&&==&&====--==&&@@..    ",
"      ..&&==&&====--==&&@@..    ",
"      ..&&==========&&OO..      ",
"      ..&&==========&&OO..      ",
"      ..##&&&&&&&&&&&&..        ",
"      ..##&&&&&&&&&&&&..        ",
"        ....&&==&&;;&&$$..      ",
"        ....&&==&&;;&&$$..      ",
"          ..&&&&&&&&;;&&..      ",
"          ..&&&&&&&&;;&&..      ",
"          ..&&====;;;;&&..      ",
"          ..&&====;;;;&&..      ",
"          ..&&&&&&&&&&%%..      ",
"          ..&&&&&&&&&&%%..      ",
"          ..&&;;;;&&....        ",
"          ..&&;;;;&&....        ",
"          ..&&====&&..          ",
"          ..&&====&&..          "
};
