/* XPM */
static char *_f29c1e5f9b645aa8593248e245830a05WAAsQl0Lb4IW0B3[] = {
/* columns rows colors chars-per-pixel */
"32 32 17 1 ",
"  c #00000000",
". c #00000000",
"X c #00000000",
"o c #00000000",
"O c #00000000",
"+ c #00000000",
"@ c #00000000",
"# c #00000000",
"$ c #FF383328",
"% c #00000000",
"& c #00000000",
"* c #FF080808",
"= c #FF3F3F74",
"- c #FFFCE0A8",
"; c gray8",
": c #FFF83800",
"> c white",
/* pixels */
"        ..XXooXXOO....          ",
"        ..XXooXXOO....          ",
"      ....++********++....      ",
"      ....++********++....      ",
"      ..****========****..      ",
"      ..****========****..      ",
"    ..++**============**++..    ",
"    ..++**============**++..    ",
"    ..**================**..    ",
"    ..**================**..    ",
"    ..**================**..    ",
"    ..**================**..    ",
"    ..++**==----========**..    ",
"    ..++**==----========**..    ",
"      ..**--**----==;;==**..    ",
"      ..**--**----==;;==**..    ",
"      ..**--**----;;--**@@..    ",
"      ..**--**----;;--**@@..    ",
"      ..**----------**##..      ",
"      ..**----------**##..      ",
"      ..$$************%%..      ",
"      ..$$************%%..      ",
"    ..XX****----::**::**&&..    ",
"    ..XX****----::**::**&&..    ",
"    ..**--**::::::::**::**..    ",
"    ..**--**::::::::**::**..    ",
"    ..XX**************--**..    ",
"    ..XX**************--**..    ",
"      ..$$**::::**::****##..    ",
"      ..$$**::::**::****##..    ",
"      ..**----****----**..      ",
"      ..**----****----**..      "
};
