/* XPM */
static char *_419d3c6ea5f4f7ddbba05a52c1ff97dXqoheKlTqZlZsgtz[] = {
/* columns rows colors chars-per-pixel */
"32 32 17 1 ",
"  c #00000000",
". c #00000000",
"X c #00000000",
"o c #00000000",
"O c #00000000",
"+ c #00000000",
"@ c #00000000",
"# c #00000000",
"$ c #00000000",
"% c #00000000",
"& c #00000000",
"* c #00000000",
"= c #FF080808",
"- c #FF3F3F74",
"; c #FFFCE0A8",
": c #FFF83800",
"> c #FFFFFFFF",
/* pixels */
"      ..XXooXXOO++@@XXXX..      ",
"      ..XXooXXOO++@@XXXX..      ",
"        ....##======##....      ",
"        ....##======##....      ",
"      ..$$====------====$$..    ",
"      ..$$====------====$$..    ",
"      ..==--------------==..    ",
"      ..==--------------==..    ",
"      ..==--------------==..    ",
"      ..==--------------==..    ",
"      ..==--------------==..    ",
"      ..==--------------==..    ",
"    ..%%==--------------==%%..  ",
"    ..%%==--------------==%%..  ",
"    ..==;;--------------;;==..  ",
"    ..==;;--------------;;==..  ",
"    ..%%==--------------==%%..  ",
"    ..%%==--------------==%%..  ",
"    ..&&====;;;;;;;;;;====&&..  ",
"    ..&&====;;;;;;;;;;====&&..  ",
"    ..==::============::::==**..",
"    ..==::============::::==**..",
"    ..======::::::::::==::;;==..",
"    ..======::::::::::==::;;==..",
"    ..==;;================;;==..",
"    ..==;;================;;==..",
"    ..**====::::==::::==++====..",
"    ..**====::::==::::==++====..",
"      ....&&==;;==::::==........",
"      ....&&==;;==::::==........",
"          ..**====;;;;==..      ",
"          ..**====;;;;==..      "
};
