/* XPM */
static char *_29e5c50cb9247a8c8d2c49c571fc349Z6TpxP1ntLmWSOFE[] = {
/* columns rows colors chars-per-pixel */
"32 32 16 1 ",
"  c #00000000",
". c #00000000",
"X c #00000000",
"o c #00000000",
"O c #00000000",
"+ c #00000000",
"@ c #00000000",
"# c #00000000",
"$ c #00000000",
"% c #FF381106",
"& c #FF080808",
"* c #FF3F3F74",
"= c #FFFCE0A8",
"- c gray8",
"; c #FFF83800",
": c white",
/* pixels */
"      ..XXXXooOOOOooXXXX..      ",
"      ..XXXXooOOOOooXXXX..      ",
"      ....++&&&&&&&&++....      ",
"      ....++&&&&&&&&++....      ",
"      ..&&&&********&&&&..      ",
"      ..&&&&********&&&&..      ",
"    ..++&&************&&++..    ",
"    ..++&&************&&++..    ",
"    ..&&****************&&..    ",
"    ..&&****************&&..    ",
"    ..&&****************&&..    ",
"    ..&&****************&&..    ",
"    ..&&********====**&&++..    ",
"    ..&&********====**&&++..    ",
"    ..&&**--**====&&==&&..      ",
"    ..&&**--**====&&==&&..      ",
"    ..@@&&==--====&&==&&..      ",
"    ..@@&&==--====&&==&&..      ",
"      ..##&&==========&&..      ",
"      ..##&&==========&&..      ",
"      ..$$&&&&&&&&&&&&##..      ",
"      ..$$&&&&&&&&&&&&##..      ",
"      ..&&;;&&;;====&&..        ",
"      ..&&;;&&;;====&&..        ",
"      ..&&;;;;&&;;;;&&..        ",
"      ..&&;;;;&&;;;;&&..        ",
"      ..%%&&====&&&&&&..        ",
"      ..%%&&====&&&&&&..        ",
"      ..&&&&&&&&&&;;&&##..      ",
"      ..&&&&&&&&&&;;&&##..      ",
"      ..&&====&&&&====&&..      ",
"      ..&&====&&&&====&&..      "
};
