/* XPM */
static char *_620984832884d2a918d4e114d05c39chf7Vr9TcxuQ14YTh[] = {
/* columns rows colors chars-per-pixel */
"32 32 14 1 ",
"  c #0000000000",
". c #00000000",
"X c #FF393534",
"o c #FF13131D",
"O c #00000000",
"+ c #00000000",
"@ c #00000000",
"# c #00000000",
"$ c #00000000",
"% c #FF080808",
"& c #FF3F3F74",
"* c #FFFCE0A8",
"= c #FFF83800",
"- c white",
/* pixels */
"        ....XX%%%%%%oo....      ",
"        ....XX%%%%%%oo....      ",
"      ..OO%%%%&&&&&&%%%%OO..    ",
"      ..OO%%%%&&&&&&%%%%OO..    ",
"      ..%%&&&&&&&&&&&&&&%%..    ",
"      ..%%&&&&&&&&&&&&&&%%..    ",
"      ..%%&&&&&&&&&&&&&&%%..    ",
"      ..%%&&&&&&&&&&&&&&%%..    ",
"      ..%%&&&&&&&&&&&&&&%%..    ",
"      ..%%&&&&&&&&&&&&&&%%..    ",
"    ..++%%&&&&&&&&&&&&&&%%++..  ",
"    ..++%%&&&&&&&&&&&&&&%%++..  ",
"    ..%%**&&&&&&&&&&&&&&**%%..  ",
"    ..%%**&&&&&&&&&&&&&&**%%..  ",
"    ..++%%&&&&&&&&&&&&&&%%++..  ",
"    ..++%%&&&&&&&&&&&&&&%%++..  ",
"    ..@@%%%%**********%%%%@@..  ",
"    ..@@%%%%**********%%%%@@..  ",
"  ..##%%====%%%%%%%%%%====%%##..",
"  ..##%%====%%%%%%%%%%====%%##..",
"  ..%%======================%%..",
"  ..%%======================%%..",
"  ..%%====%%==========%%====%%..",
"  ..%%====%%==========%%====%%..",
"  ..%%****%%%%%%%%%%%%%%****%%..",
"  ..%%****%%%%%%%%%%%%%%****%%..",
"  ..$$%%%%%%==========%%%%%%$$..",
"  ..$$%%%%%%==========%%%%%%$$..",
"    ......%%====%%====%%......  ",
"    ......%%====%%====%%......  ",
"        ..%%****%%****%%..      ",
"        ..%%****%%****%%..      "
};
