/* XPM */
static char *xpm_[] = {
/* columns rows colors chars-per-pixel */
"48 48 9 1 ",
"  c #FF294E9B",
". c #FF2A52A3",
"X c #FF2F5BB2",
"o c #FF3360BC",
"O c #FF3360BD",
"+ c #FF3362C0",
"@ c #FF3462C0",
"# c #FF3665C3",
"$ c #FF4076E5",
/* pixels */
"XXXXXXXXX............$$$@@@$$$+++XXXXXX......XXX",
"XXXXXXXXX............$$$@@@$$$+++XXXXXX......XXX",
"XXXXXXXXX............$$$@@@$$$+++XXXXXX......XXX",
"   ...XXXXXX+++XXXXXX...                        ",
"   ...XXXXXX+++XXXXXX...                        ",
"   ...XXXXXX+++XXXXXX...                        ",
"@@@$$$$$$XXX......         ...$$$++++oo$$$@@@@@@",
"@@@$$$$$$XXX......         ...$$$+++ooo$$$@@@@@@",
"@@@$$$$$$XXX......         ...$$$+++ooo$$$@@@@@@",
"ooo@@@XXX                     ...XXXXXXXXXXXX@@@",
"ooo@@@XXX                     ...XXXXXXXXXXXX@@@",
"ooo@@@XXX                     ...XXXXXXXXXXXX@@@",
"                  ......      ...............   ",
"                  ......      ...............   ",
"                  ......      ...............   ",
"......      ..................               ...",
"......      ..................               ...",
"......      ..................               ...",
"........................XXXXXX......XXXXXXXXX...",
"........................XXXXXX......XXXXXXXXX...",
"........................XXXXXX......XXXXXXXXX...",
"......         ..................      ......XXX",
"......         ..................      ......XXX",
"......         ..................      ......XXX",
"@@@....................................XXX+++@@@",
"@@@....................................XXX+++@@@",
"@@@....................................XXX+++@@@",
"XXXXXX...                     ......XXX......XXX",
"XXXXXX...                     ......XXX......XXX",
"XXXXXX...                     ......XXX......XXX",
"                                       .........",
"                                       .........",
"                                       .........",
"                                                ",
"                                                ",
"                                                ",
"...XXX...      ...@@@$$$XXXXXX......      ......",
"...XXX...      ...@@@$$$XXXXXX......      ......",
"...XXX...      ...@@@$$$XXXXXX......      ......",
"                     ........................   ",
"                     ........................   ",
"                     ........................   ",
"      ...            ...XXXXXX......XXX......   ",
"      ...            ...XXXXXX......XXX......   ",
"      ...            ...XXXXXX......XXX......   ",
".....................XXX$$$$$$###@@@XXX.........",
".....................XXX$$$$$$###@@@XXX.........",
".....................XXX$$$$$$###@@@XXX........."
};
