/* XPM */
static char *xpm_[] = {
/* columns rows colors chars-per-pixel */
"48 48 9 1 ",
"  c #FF294E9B",
". c #FF2A52A3",
"X c #FF2D58AA",
"o c #FF2F5BB2",
"O c #FF3360BC",
"+ c #FF3362C0",
"@ c #FF3462C0",
"# c #FF3463C3",
"$ c #FF4076E5",
/* pixels */
"@@@.........         ..................@@@$$$###",
"@@@.........         ..................@@@$$$###",
"@@@.........         ..................@@@$$$#@@",
"            ............   ...                  ",
"            ............   ...                  ",
"            ............   ...                  ",
"......                  ......ooooooooo.........",
"......                  ......ooooooooo.........",
"......                  ......ooooooooo.........",
"...         ...oooooo............ooo............",
"...         ...oooooo............ooo............",
"...         ...oooooo............ooo............",
"      ............         ...         ...ooo...",
"      ............         ...         ...ooo...",
"      ............         ...         ...ooo...",
"               ...ooo.........ooo...            ",
"               ...ooo.........ooo...            ",
"               ...ooo.........ooo...            ",
"...............   ..................ooo+++$$$ooo",
"...............   ..................ooo+++$$$ooo",
"...............   ..................ooo+++$$$ooo",
"@@@$$$XXX.........XXX............   ......oooooo",
"@@@$$$XXX.........XXX............   ......oooooo",
"@@@$$$XXX.........XXX............   ......oooooo",
"$$$@@@@@@ooo$$$OOO@@@ooo.........ooo@@@......@@@",
"$$$@@@@@@ooo$$$OOO@@@ooo.........ooo@@@......@@@",
"$$$@@@@@@ooo$$$OOO@@@ooo.........ooo@@@......@@@",
"                                       ...   ...",
"                                       ...   ...",
"                                       ...   ...",
"               ...            ..................",
"               ...            ..................",
"               ...            ..................",
"                                                ",
"                                                ",
"                                                ",
"                                                ",
"                                                ",
"                                                ",
"...            ...............oooooo...   ......",
"...            ...............oooooo...   ......",
"...            ...............oooooo...   ......",
"                        ...ooo+++$$$OOOooo...   ",
"                        ...ooo+++$$$OOOooo...   ",
"                        ...ooo+++$$$OOOooo...   ",
"...ooo......@@@$$$$$$ooo...oooooo.........ooo...",
"...ooo......@@@$$$$$$ooo...oooooo.........ooo...",
"...ooo......@@@$$$$$$ooo...oooooo.........ooo..."
};
