/* XPM */
static char *xpm_[] = {
/* columns rows colors chars-per-pixel */
"48 48 9 1 ",
"  c #FF294E9B",
". c #FF2A52A3",
"X c #FF2D58AA",
"o c #FF2F5BB2",
"O c #FF3360BC",
"+ c #FF3362C0",
"@ c #FF3462C0",
"# c #FF3463C1",
"$ c #FF4076E5",
/* pixels */
"@@@ooo......         ...ooo............ooo$$$###",
"@@@ooo......         ...ooo............ooo$$$###",
"@@@ooo......         ...ooo............ooo$$$#@@",
"   ...      .........                           ",
"   ...      .........                           ",
"   ...      .........                           ",
"   .........   ...      ......ooo...ooo.........",
"   .........   ...      ......ooo...ooo.........",
"   .........   ...      ......ooo...ooo.........",
"...         ......ooo............ooo............",
"...         ......ooo............ooo............",
"...         ......ooo............ooo............",
"      ............         ...         ...ooo...",
"      ............         ...         ...ooo...",
"      ............         ...         ...ooo...",
"               ...ooo...............            ",
"               ...ooo...............            ",
"               ...ooo...............            ",
"............      ......ooo.........XXX+++$$$ooo",
"............      ......ooo.........XXX+++$$$ooo",
"............      ......ooo.........XXX+++$$$ooo",
"ooo$$$ooo.........@@@............   ......oooooo",
"ooo$$$ooo.........@@@............   ......oooooo",
"ooo$$$ooo.........@@@............   ......oooooo",
"+++ooo@@@XXX$$$OOO@@@ooo......oooooo@@@......@@@",
"+++ooo@@@XXX$$$OOO@@@ooo......oooooo@@@......@@@",
"+++ooo@@@XXX$$$OOO@@@ooo......oooooo@@@......@@@",
"                           ...   ...   ...   ...",
"                           ...   ...   ...   ...",
"                           ...   ...   ...   ...",
"                              ..................",
"                              ..................",
"                              ..................",
"                                                ",
"                                                ",
"                                                ",
"                                                ",
"                                                ",
"                                                ",
"...               ............oooooo............",
"...               ............oooooo............",
"...               ............oooooo............",
"                        ...oooooo+++OOOooo...   ",
"                        ...oooooo+++OOOooo...   ",
"                        ...oooooo+++OOOooo...   ",
"............@@@$$$$$$ooo...oooooo.........ooo...",
"............@@@$$$$$$ooo...oooooo.........ooo...",
"............@@@$$$$$$ooo...oooooo.........ooo..."
};
