/* XPM */
static char *xpm_[] = {
/* columns rows colors chars-per-pixel */
"48 48 8 1 ",
"  c #FF294E9B",
". c #FF2A52A3",
"X c #FF2D58AA",
"o c #FF2F5BB2",
"O c #FF3360BD",
"+ c #FF3362C0",
"@ c #FF3462C0",
"# c #FF4076E5",
/* pixels */
"@@@ooo...   .........@@@ooooooooo...oooooo######",
"@@@ooo...   .........@@@ooooooooo...oooooo######",
"@@@ooo...   .........@@@ooooooooo...oooooo######",
"      ......+++@@@ooo                           ",
"      ......+++@@@ooo                           ",
"      ......+++@@@ooo                           ",
"ooo###@@@.........         ...@@@XXX###ooo...ooo",
"ooo###@@@.........         ...@@@XXX###ooo...ooo",
"ooo###@@@.........         ...@@@XXX###ooo...ooo",
"ooo......                        ...............",
"ooo......                        ...............",
"ooo......                        ...............",
"...      ...      ...         ............ooo...",
"...      ...      ...         ............ooo...",
"...      ...      ...         ............ooo...",
"            ......ooo......                     ",
"            ......ooo......                     ",
"            ......ooo......                     ",
".........ooo...............ooo......@@@+++###ooo",
".........ooo...............ooo......@@@+++###ooo",
".........ooo...............ooo......@@@+++###ooo",
"...............ooooooooo......         ...@@@ooo",
"...............ooooooooo......         ...@@@ooo",
"...............ooooooooo......         ...@@@ooo",
"ooo.........ooo..................ooo+++ooo@@@@@@",
"ooo.........ooo..................ooo+++ooo@@@@@@",
"ooo.........ooo..................ooo+++ooo@@@@@@",
"ooo...                     ............oooooo+++",
"ooo...                     ............oooooo+++",
"ooo...                     ............oooooo+++",
"...                                 ......ooo...",
"...                                 ......ooo...",
"...                                 ......ooo...",
"                           ...                  ",
"                           ...                  ",
"                           ...                  ",
"oooooo...      ...............               ...",
"oooooo...      ...............               ...",
"oooooo...      ...............               ...",
"......            ..............................",
"......            ..............................",
"......            ..............................",
"                        ...ooooooooo###ooo...   ",
"                        ...ooooooooo###ooo...   ",
"                        ...ooooooooo###ooo...   ",
"...............ooo...ooo######OOOooooooooo......",
"...............ooo...ooo######OOOooooooooo......",
"...............ooo...ooo######OOOooooooooo......"
};
