/* XPM */
static char *xpm_[] = {
/* columns rows colors chars-per-pixel */
"48 48 13 1 ",
"  c black",
". c #FF0F1806",
"X c #FF1F3010",
"o c #FF2C4418",
"O c #FF527435",
"+ c #FF502241",
"@ c #FF739B4F",
"# c #FFB35896",
"$ c #FFD77BBA",
"% c #FFB8E78D",
"& c #FFFFB4E7",
"* c #FFFFFFFF",
"= c #00000000",
/* pixels */
"================================================",
"================================================",
"================================================",
"================================================",
"================================================",
"================================================",
"================================================",
"================================================",
"================================================",
"================================================",
"================================================",
"================================================",
"================================================",
"================================================",
"================================================",
"==================**============================",
"================**++***=========================",
"===============*++&&+++*========================",
"==============*+&&$$&&&+**======================",
"=============*+&#$##$###oo*=====================",
"============*+&$OOOOOOOO%%o*====================",
"============*+#O%%%%%%%%@@%o*===================",
"============*+O%@@  @@@@@@@X*===================",
"============*X%@@    @@@@@  X*==================",
"============*X@@@    @@@@@  X*==================",
"============*X@@@    @@@@@  X*==================",
"============*.@@@    @@@@@  X*==================",
"============*.O@@@@@@@@XX@@@X*==================",
"============*..OOO@@@@XXXX@@.*==================",
"=============*....O@@@XXXX@O.*==================",
"==============*....OOOOOOOO.*===================",
"===============***..........*=======***=========",
"==================*........*===***=*...*========",
"==================**********==*...*.XXX.*=======",
"=================*..........**.@@@.*.XX.*=======",
"================*.OOOOOOOOOO.**.@@.**..*========",
"================*X@@@@@@@@@@X*=*..*==**=========",
"================*X@@@@@@@@@@X*==**==============",
"================*.OOOOOOOOO..*==================",
"================*.OOOOOOOOO.*===================",
"================*...........*===================",
"=================*.........*====================",
"=================************===================",
"================*..*======*..*==================",
"===============*.@@.*====*.XX.*=================",
"===============*....*====*....*=================",
"===============*....*====*....*=================",
"================****======****=================="
};
