/* XPM */
static char *cliff_12[] = {
/* columns rows colors chars-per-pixel */
"64 64 222 2 ",
"   c #1B1C1C",
".  c #151919",
"X  c #211E1E",
"o  c #262020",
"O  c #2C2323",
"+  c #332626",
"@  c #362828",
"#  c #3C2B2B",
"$  c #3E3439",
"%  c #422E2D",
"&  c #482F2F",
"*  c #44322E",
"=  c #48352F",
"-  c #453133",
";  c #4B3332",
":  c #4D3932",
">  c #44393D",
",  c #4C3B3C",
"<  c #443639",
"1  c #543634",
"2  c #583736",
"3  c #543A35",
"4  c #5B3A36",
"5  c #543C3B",
"6  c #5C3C39",
"7  c #472F30",
"8  c #643E36",
"9  c #613D39",
"0  c #683F36",
"q  c #5B4136",
"w  c #5C423B",
"e  c #554539",
"r  c #49583A",
"t  c #56593D",
"y  c #644137",
"u  c #694137",
"i  c #63433B",
"p  c #6C433A",
"a  c #66493D",
"s  c #6B4A3D",
"d  c #72463A",
"f  c #744B3D",
"g  c #7B4C3C",
"h  c #794B38",
"j  c #73513F",
"k  c #7C533D",
"l  c #68513F",
"z  c #4A673F",
"x  c #556F3D",
"c  c #706D3C",
"v  c #3C3941",
"b  c #443D42",
"n  c #4B3E41",
"m  c #4C4143",
"M  c #464044",
"N  c #534442",
"B  c #5A4642",
"V  c #5E4942",
"C  c #634943",
"Z  c #6C4D42",
"A  c #624641",
"S  c #734E40",
"D  c #784F42",
"F  c #6B5542",
"G  c #745241",
"H  c #7C5441",
"J  c #7D5A41",
"K  c #576B44",
"L  c #577849",
"P  c #507347",
"I  c #797B49",
"U  c #6B7349",
"Y  c #824E3D",
"T  c #834F39",
"R  c #85513C",
"E  c #8C543E",
"W  c #8A5E3D",
"Q  c #9B5D3E",
"!  c #925A3B",
"~  c #8A623E",
"^  c #9A653C",
"/  c #93783A",
"(  c #A5653C",
")  c #A9663E",
"_  c #AD6C3D",
"`  c #A46B3D",
"'  c #B16D3E",
"]  c #AD733B",
"[  c #AD7C3E",
"{  c #A5763E",
"}  c #B4723C",
"|  c #BA753B",
" . c #B27C3D",
".. c #BC7A3A",
"X. c #C17A38",
"o. c #C17938",
"O. c #835542",
"+. c #8C5741",
"@. c #845A41",
"#. c #8C5A42",
"$. c #915640",
"%. c #945B42",
"&. c #9C5D42",
"*. c #A15F42",
"=. c #896742",
"-. c #9B6242",
";. c #996742",
":. c #9C7E44",
">. c #937B44",
",. c #8A7B48",
"<. c #A46342",
"1. c #A86641",
"2. c #AC6B40",
"3. c #A76841",
"4. c #A47C41",
"5. c #AA7941",
"6. c #B16C40",
"7. c #7DB81E",
"8. c #5D8831",
"9. c #69973C",
"0. c #7A9A3B",
"q. c #699236",
"w. c #76AC2D",
"e. c #7BB525",
"r. c #7BB32A",
"t. c #7CB725",
"y. c #6FA13B",
"u. c #75AB32",
"i. c #72A33B",
"p. c #79A834",
"a. c #77AC2E",
"s. c #5B8253",
"d. c #5B824A",
"f. c #68884D",
"g. c #7B834E",
"h. c #738B4B",
"j. c #6A9747",
"k. c #6B9C42",
"l. c #66904E",
"z. c #6B984B",
"x. c #769844",
"c. c #6C8653",
"v. c #658C53",
"b. c #678955",
"n. c #758E54",
"m. c #6C9353",
"M. c #6A9159",
"N. c #679255",
"B. c #749A5A",
"V. c #7C9C5B",
"C. c #749956",
"Z. c #78A744",
"A. c #7BA15D",
"S. c #7BA256",
"D. c #78A160",
"F. c #82BE1E",
"G. c #8DB91D",
"H. c #918F35",
"J. c #A48836",
"K. c #B8843A",
"L. c #AC9534",
"P. c #97A529",
"I. c #81BB22",
"U. c #86B728",
"Y. c #88BA36",
"T. c #91B72C",
"R. c #A5AC36",
"E. c #84C317",
"W. c #85C21B",
"Q. c #88C41D",
"!. c #8AC324",
"~. c #8EC32B",
"^. c #86C024",
"/. c #93C434",
"(. c #95C43A",
"). c #98C73A",
"_. c #90C331",
"`. c #82834B",
"'. c #8B8249",
"]. c #84894E",
"[. c #8A8947",
"{. c #9C8244",
"}. c #958648",
"|. c #869656",
" X c #A68443",
".X c #AE974B",
"XX c #80AD46",
"oX c #8BB649",
"OX c #96BE49",
"+X c #83A55D",
"@X c #8CAC5C",
"#X c #86A858",
"$X c #8DB258",
"%X c #9DBE5A",
"&X c #92B458",
"*X c #96A85C",
"=X c #AAB250",
"-X c #8CAB61",
";X c #85A660",
":X c #8FB062",
">X c #93B363",
",X c #9BB864",
"<X c #90AE65",
"1X c #A2BE63",
"2X c #A5BF6A",
"3X c #9BC543",
"4X c #9EC54B",
"5X c #9BC44A",
"6X c #A0C64D",
"7X c #A2C94A",
"8X c #A2C652",
"9X c #A7C65B",
"0X c #A8C75E",
"qX c #ABCA5D",
"wX c #A9CA58",
"eX c #A5C264",
"rX c #ABC764",
"tX c #ADC963",
"yX c #ADC669",
"uX c #A8C268",
"iX c #B2CC69",
"pX c None",
/* pixels */
"W.W.W.W.W.W.W.F.E.E.E.E.F.W.W.W.W.W.W.F.E.E.!./.3X9XyXiXiXyX0X6X(.!.W.E.E.E.F.a.k.l.v.k.u.t.!.).4XwX9X4X/.^.W.E.E.W.W.W.W.W.W.W.",
"W.W.W.W.W.W.W.W.W.W.Q.Q.E.W.W.W.W.W.W.W.F.E.~.T.4X9XyXyXyXrX9X4X(.!.W.E.E.Q.I.p.k.l.l.9.a.t.!.).4XwXwX4X/.~.W.W.W.W.W.W.W.W.W.W.",
"W.W.W.W.W.W.F.!.!.!.!.I.Q.W.W.W.W.W.Q.F.Q.!._.).4X0XtXrXrX9X8X)./.!.F.W.W.I.r.p.k.j.k.y.a.t.!./.4X9X0X8X).~.!.^.W.W.W.W.W.W.W.W.",
"W.W.W.W.W.W.Q.!.~./._.~.!.Q.F.E.E.F.Q.!.~._.).6X8X0XrXrX9X8X3X(.~.W.F.I.e.r.u.i.y.9.y.u.t.W.!.).7X9XtX8X5X)./.~.^.W.W.Q.E.Q.E.Q.",
"W.W.W.W.F.E.Q.~.(.3X).(.~.Q.Q.E.F.E.Q.~.(.3X6X9XtXrXrX9X4X(./.~.Q.Q.^.r.u.i.9.i.i.u.w.e.7.W.!.(.4XqXtXqX9X4X3X(.~.^.W.E.E.W.E.Q.",
"W.W.W.W.E.W.!./.4X8X8X4X/.I.E.F.E.W.!./.3X8X9XtXrXrX0X4X).~.!.Q.Q.Q.t.r.y.j.j.Z.p.r.7.W.W.W.!.(.4X9XrXrXrX0X6X3X/.!.W.E.W.W.W.W.",
"W.W.W.W.W.W.!.(.6X9X0X6X(._.!.Q.W.W.!./.3X8X9X0XrX0X8X3X/.!.W.E.E.W.t.u.k.l.v.k.p.~.!.Q.!.!.~.Y.5X1XeXuXrXtX9X5X/.!.E.F.W.t.t.7.",
"W.W.W.W.E.F.!.(.6X9XrX9X6X(./.!.!.W.^.~.(.3X3X4X4X3X3X/.~.^.W.E.E.Q.t.u.k.l.N.z.XX/.)././.(.(.3XoX$X>X,X,XyXrX5X).!.F.t.r.r.a.u.",
"W.W.W.F.E.Q.U.(.6XrXrXrX9X6X3X(.~.^.W.!.~./.(.(././.~.~.^.Q.E.E.E.E.F.u.k.l.v.C.oX5X4X7X7X7X5X&X@XD.;X<X1XrXtX7X/.!.I.e.u.y.k.k.",
"W.W.W.E.E.Q.!./.4X9XrXtXrX9X8X3X/.!.W.Q.W.!.!.!.~.!.!.!.!.Q.E.E.E.Q.I.u.k.v.N.B.@X%X0XqXqX9X%X@XS.B.B.;X<X1XqX7X).!.I.a.y.j.l.s.",
"W.W.W.W.W.W.!./.OX8X9XrXrXrX9X6X/.!.W.W.!.!.!.!.!.!.^.!.Q.W.F.F.F.I.r.p.0.h.n.V.@X,X1XeXeX1X,X@XV.n.n.|.*X=X=X7X(.~.U.U.0.h.c.b.",
"W.W.W.E.W.W.!.~./.3X6X9XrXrX9X6X(.!.!.Q.~._./.(././.~.~.!.W.E.t.t.a.p.0.x.`.].|.|.-X:X>X>X<X-X|.|.`.].}.*X.X=X=XR.P.P.H.[.[.`.`.",
"W.W.W.W.E.W.Q.!.~./.).4X9XrX0X6X(.!.Q.~./.3X4X4X4X5X3X/.!.!.F.e.a.i.x.x.H.>.}.}.|.V.V.D.D.D.V.|.[.}.{. X.X.X.XL.L.L.L.J.J.{.{.>.",
"W.W.W.W.W.F.W.W.^.!._.).6X9X9X6X(.!.!._.3X8XwXrXrXwX6X3X/.!.I.r.y.j.h.`.{.4. X{.].n.M.N.N.M.n.].}.5... XK.K.o.X.K.K.K.K.K.[  . .",
"W.W.W.W.W.W.E.E.W.W.!./.4X8X8X3X/.!.^._.3X%XuXuXuXrX9X7X).~._.u.k.l.b.`.{. . . X'.n.c.b.b.c.g.'. XK.X.X.X.K.........| ........| ",
"W.E.F.W.W.W.W.F.E.E.W.~.(.3X3XT.~.!.I.Y.oX$X>X,XuXtXtXqX5X3X(.Z.z.N.c.`.:. ...5. X'.,.g.g.`.'.{.5.X.X.o.o.o.o.o.o.o.o.o.| } } } ",
"W.W.W.F.W.W.W.E.E.E.W.!.~._._.~.!.Q.I.Y.Z.S.+X>X,XyXtXqXwX7XOXZ.C.b.b.`.:.[ ....5.J./ J.{.{ [ J. .....X.X.X.X.X.X.X...} 6.' 6.6.",
"W.W.W.W.W.W.W.W.E.Q.W.W.!.!.!.Q.Q.Q.I.a.0.m.B.;X>XeXrXtXqX0XeX$XS.M.c.g.:.K....... . .] K.[  . .....X.K.X...X.X...X...| 6.2.1.<.",
"W.W.W.W.W.W.W.Q.!.!.!.!.!.!.!.!.Q.W.I.w.9.l.v.B.+X,X,XeXeXeX,X-XV.n.g.'.:.[ | | | } ] } ] ] } } | | ..| X...X.6.6.X...6.1.-.&.&.",
"W.W.W.W.E.F.!.!.~./.(.(.(./._.!.Q.Q.t.w.8.d.L b.B.@X:X>X>X:X@X|.|.].,.>.4.] ' ' ( ^ ^ ^ ! ^ ( ` _ } } } X.5.6.6...6.6.3.-.%.%.%.",
"W.W.W.E.W.W.!.~.(.3X4X6X4X5X3X).!.E.7.w.8.x P s.b.B.A.A.D.V.V.|.[.}.4.5.6.2.3.^ ! T T h g T R ! ( ) 6.6.6.6.6.6.' 2.1.-.%.#.@.O.",
"W.W.W.W.E.W.!./.5X8X9X0XqX9X6X3X/.7.7.q.8.x P P d.v.M.M.M.M.n.].}. X[ 6.2.1.-.! T d u y 8 u d h ! Q <.<.<.<.<.1.1.1.-.%.#.J G G ",
"W.W.W.W.E.Q.I./.5X%X,XuXyXtX9X7X).~.r.u.8.x z P L c.c.c.c.c.n.,.:. .} ' ) Q $.H d y 4 4 6 6 8 f O.+.%.&.*.&.&.&.&.&.%.#.k j Z Z ",
"W.W.W.E.E.Q.U.Y.oX&X>X,X2XyXtXwX7X)._.i.q.L P L U g.`.`.`.`.'.{.5.} ' ) Q R g d p y 9 q 6 6 i A Z D O.O.+.$.$.%.%.%.+.k s a w w ",
"W.W.W.W.Q.W.I.Y.Z.S.;X<X,XrXtXqXwX7X5XZ.z.d.L U g.'.J.:.{.{ {.5.5.' ) Q R d u y i a i a i i i A C C C F G O.O.@.O.O.H s i 4 3 : ",
"W.W.W.W.E.W.I.a.x.z.B.;X>X1XtXtXqXqX%X@XC.b.c.I >.[ [  . . . .] 2.1.Q R p 4 3 q a a j l G Z s V N N N V Z F H H J G f a q 3 ; ; ",
"W.W.W.W.W.W.I.a.y.z.m.V.@X,XeXeXrX1X,X@XV.n.n.,.:.[ | | | ] ] ` ( %.E g y 1 1 3 w j G G H G j F C N N B V C Z G G G G s y 4 3 1 ",
"W.W.W.W.Q.W.F.e.u.i.k.Z.S.@X:X:X<X<X-X+X|.].'.:.5.] } _ ` ^ ~ W E R g u 4 1 1 3 w j j J =.W ~ @.G Z C V V C C F G O.O.H f p u y ",
"W.W.W.W.E.W.F.I.e.a.p.p.S.S.V.D.V.A.V.|.}.}. X5.] 2.1.-.W J j s u u 8 9 2 1 4 4 i Z G =.;.;.3.3.=.O.H Z V N V Z H +.$.E R R Y Y ",
"W.W.W.W.W.W.W.F.F.I.r.p.Z.m.m.b.N.M.n.].}. X5.} 6.1.&.+.G V N 5 5 1 1 2 1 1 4 q a j k ~ ^ 5.5.6.<.&.#.G C N N C H $.*.&.Q %.%.Q ",
"W.W.W.W.W.W.W.F.F.I.r.p.k.h.c.c.b.c.g.'.4.5.6.' ) *.+.D V m b v < - & ; 1 1 6 i C j @.~ ` } 5.6.3.*.#.D V m N A S +.%.&.&.%.&.%.",
"W.W.W.W.W.E.F.F.t.r.p.0.x.`.`.g.I `.'.>.4.6.| _ Q E g C N b v $ $ - - & < 5 5 a f O.#.;.3.} 6.2.<.&.#.G B m b n A D Y Y E E E E ",
"W.W.E.Q.W.W.^.t.u.i.x.x.[.}.:.:.:.:.4.4.6.6.*.&.$.D Z 9 n b v $ $ % 7 - < , n C D +.&.<.1.2.2.<.-.#.H Z N M M > w 9 y p d d d g ",
"W.W.W.Q.W.W.^.r.i.j.h.`.}.5. . . . .] ' 6.*.*.$.g p 9 n n b b > < - % < < b n Z D +.&.*.<.<.<.%.#.H G C N M M b , : 2 4 8 8 8 8 ",
"W.W.Q.Q.Q.!.U.p.k.l.c.`./ K.X.X.....} ' 1.*.$.Y 0 0 9 9 n N n 5 - - - < v b N A D $.%.&.*.&.%.+.H j C V B N N , , : : 1 2 2 2 2 ",
"W.W.Q.!.~./.Y.Z.z.m.c.`.:. .o.o.o.| ' ) &.$.Y Y Y Y 0 Z Z Z C n 3 - - < v b n B Z O.$.$.$.$.#.O.s a a A A A A V 6 5 1 3 2 2 2 2 ",
"E.W.^.~.).3XOX$XS.N.c.`.:. .X.o.| ' ) Q $.g d g Y O.Y +.O.H D 9 3 ; < < $ v m N A p g H O.O.O.f a q q y f G D S s i w 4 1 6 6 2 ",
"E.W.!./.3X8X%X$XA.N.c.`.:. ...} 6.1.*.E g p p d Y $.&.&.&.&.+.g 8 1 7 - < b b n N 6 9 d f S S C 4 3 3 u g +.#.+.H S s i 6 6 2 2 ",
"E.Q.!./.4X%X,X;XB.b.c.I >.] | ' ) *.$.Y p 9 9 p O.$.&.*.1.*.Q E d 4 1 < > b b n 5 6 6 i s s C 9 3 : 1 u R Q -.-.#.J S s p 8 2 2 ",
"E.Q.^.Y.oX@X;XD.M.L L I >.` _ ) Q $.D d p n n 9 g +.&.*.2.' ` Q T h 8 4 , , > , 5 6 9 i a i 9 9 3 1 4 d ! ( 2.1.-.#.O.S Z A i i ",
"E.W.U.Y.Z.S.B.M.d.L P U ~ ^ ) Q E g p A n n n 9 Z J #.;.3.} _ ` Q E g u 4 , - , q i a i 9 A n 2 3 3 q h ! _ } ' 3.-.#.O.D f s a ",
"E.W.I.r.Z.z.M.L x x x c ~ -.&.E Y 0 6 2 n n n n V G @.^ ` } | ' ) ^ +.h 9 3 : 5 w a Z a p 9 9 2 1 3 u h ^ _ | } 1.-.%.+.H S Z Z ",
"E.E.t.r.i.j.v.L x x x c =.-.%.$.0 0 2 , n n n B V s j W ^ ] ] ] 1.-.$.g 8 2 : 6 a s G f 0 9 0 n 4 4 y h W ` _ ' 2.<.&.#.O.G s Z ",
"Q.Q.W.r.a.9.9.j.c c c ~ ^ -.%.Y 0 0 1 n n n N B e q a k ~ ^ ` ` ;.%.+.g 8 3 2 9 f H +.O.O.g d 9 4 3 q s h ! Q ( <.<.*.$.H f s a ",
"W.W.W.t.r.a.p.H.H./ ^ ^ <.*.&.Y 0 1 : : n V w V e 5 q s k ~ ! =.=.#.O.f 9 4 4 u g E %.%.$.+.D S w n 5 w p g Y ! &.*.&.$.g s i 9 ",
"W.Q.W.W.W.I.e.P.H.J.{ ` ` *.Q Y 0 1 : 3 i C a i 4 1 3 q a j H J H H S s i 4 9 d R %.&.*.*.%.#.D C N n n 6 0 d Y E &.$.E g y 6 4 ",
"W.W.Q.E.E.E.I.P.L. .' _ 1.&.E g p 6 4 w s G G a 4 : : 3 q s Z S G Z s i 6 9 9 p H +.%.*.*.*.&.O.Z N n n n 2 0 0 Y $.$.Y d 9 6 2 ",
"W.E.Q.E.E.E.G.P.L...' ( Q E g d d d p h k R k s 6 1 & : q i s s s s a i 6 6 9 u d H O.%.&.*.&.#.G V N n n 2 9 0 Y Y O.D 0 9 2 2 ",
"E.W.E.E.E.E.G.P.J.] ) Q Y d p d h g Y E %.%.+.h 9 : ; ; 2 6 y i 9 i 9 6 2 6 9 6 A C Z O.%.&.-.#.H Z V B 4 4 4 8 p d d p 8 2 2 2 ",
"W.W.W.W.Q.F.G.P.J.{ Q Y 0 8 4 0 g E &.&.&.&.$.g y 1 ; ; 1 2 4 6 6 9 2 6 2 6 6 5 n N V Z O.&.&.! O.G C A q 4 4 4 9 9 9 6 9 6 2 2 ",
"!.^.^.^.F.I.I.H.H.^ Q Y 0 1 1 8 g #.&.-.&.&.E h 9 1 & ; ; 1 1 1 2 1 2 1 2 2 1 , > b m A H +.! W k j s a y 4 4 4 2 2 2 2 1 2 2 2 ",
"(./._._.Y.a.p.H./ ^ %.Y 8 1 = 8 f +.%.%.+.R g p 4 1 & 7 & & & & % % % & & ; ; - < < , 5 s D k k j s a w q 3 1 1 & & & & & ; ; ; ",
"4X5X5XoXZ.Z.x.`.>.;.! Y 8 1 ; 4 s k O.R h p 0 4 1 ; & % % % # @ + + + @ # % & 7 # < < : q y s y y q q q e = : = - - # # % # % % ",
"qX9X9X$XS.z.b.,.>.-.$.Y 0 1 : 3 i G j s i 4 1 ; ; & % % % @ + + o o o + # # % % - # % - : q q q q e q : : : = = % # # # # # # # ",
"iXtX,X$XS.v.c.U =.-.! g 0 1 1 3 i a a i 3 : & 7 % % % # # + O o X X X o + # # % # % % - * : : : = = = e : : : = # # @ @ @ @ + + ",
"iXiXeX-XB.s.L U J @.E h u 4 1 3 w i i q 1 ; % % # @ + + + O o X       X O # # # % # % % * * * * = = = : : : : = - # @ @ @ + + + ",
"iXyX1X@XC.L K t U H H f y 6 2 6 6 9 6 4 1 ; 7 @ + O O O O pXpXpXpXpXpXpXpXpXpXpXpXpXpX% * % * * % * * ; : 3 1 ; - * # # # pXpXpX",
"iXrX%X#Xh.L z t F F S s 8 6 2 2 2 2 6 2 : - % @ O o X   pXpXpXpXpXpXpXpXpXpXpXpXpXpXpXpX% # # % % % % & ; 1 2 : ; - 7 % pXpXpXpX",
"rX1X&X|.f.z z r V F s s 6 4 2 2 2 2 1 1 & % # + O X   . pXpXpXpXpXpXpXpXpXpXpXpXpXpXpXpX# # % % % # % ; 1 2 2 1 ; & & % pXpXpXpX",
">X-X#XC.d.z r r V t i w 6 1 1 1 1 1 ; & % # + O o     pXpXpXpXpXpXpXpXpXpXpXpXpXpXpXpXpXpX% # # # % % & ; 2 2 2 1 ; ; pXpXpXpXpX",
"A.S.B.b.P z z r e q 2 6 2 ; 1 ; ; ; ; % @ + O o X pXpXpXpXpXpXpXpXpXpXpXpXpXpXpXpXpXpXpXpXpXpXpXpXpXpXpXpXpXpXpXpXpXpXpXpXpXpXpX",
"M.M.b.L P z r r e 6 6 2 1 ; ; & ; ; % # O o     pXpXpXpXpXpXpXpXpXpXpXpXpXpXpXpXpXpXpXpXpXpXpXpXpXpXpXpXpXpXpXpXpXpXpXpXpXpXpXpX",
"N.s.s.d.P z r r e e 2 1 1 - & & & % % @ O X   . pXpXpXpXpXpXpXpXpXpXpXpXpXpXpXpXpXpXpXpXpXpXpXpXpXpXpXpXpXpXpXpXpXpXpXpXpXpXpXpX",
"s.s.s.L P z r r e 5 2 1 ; & 7 7 ; - # + O     . pXpXpXpXpXpXpXpXpXpXpXpXpXpXpXpXpXpXpXpXpXpXpXpXpXpXpXpXpXpXpXpXpXpXpXpXpXpXpXpX"
};
