/* XPM */
static char *cliff_09[] = {
/* columns rows colors chars-per-pixel */
"64 64 162 2 ",
"   c #462F2F",
".  c #472F30",
"X  c #473031",
"o  c #4C3333",
"O  c #4F3837",
"+  c #463639",
"@  c #4A3638",
"#  c #453A3E",
"$  c #4B3B3D",
"%  c #533635",
"&  c #583737",
"*  c #553936",
"=  c #5A3A36",
"-  c #543538",
";  c #583739",
":  c #553B39",
">  c #5C3B39",
",  c #613D36",
"<  c #623E3A",
"1  c #5D413D",
"2  c #624336",
"3  c #694337",
"4  c #63433D",
"5  c #6B433B",
"6  c #66483E",
"7  c #6A4A3E",
"8  c #754D34",
"9  c #72463C",
"0  c #74493D",
"q  c #7C4B3D",
"w  c #75503D",
"e  c #7C513C",
"r  c #45663E",
"t  c #48683F",
"y  c #453E43",
"u  c #4C3D40",
"i  c #5F4440",
"p  c #634641",
"a  c #6A4741",
"s  c #664944",
"d  c #6A4C44",
"f  c #6B4F48",
"g  c #724D43",
"h  c #7B4E40",
"j  c #6E5146",
"k  c #6C5048",
"l  c #735244",
"z  c #7B5544",
"x  c #7E5843",
"c  c #745348",
"v  c #7A5548",
"b  c #476B43",
"n  c #4B6C42",
"m  c #516F42",
"M  c #4F774B",
"N  c #547344",
"B  c #5D7446",
"V  c #53774B",
"C  c #5D7A4A",
"Z  c #6B7948",
"A  c #7E7B46",
"S  c #797A4E",
"D  c #7A7A50",
"F  c #824E3E",
"G  c #85523D",
"H  c #8A533E",
"J  c #835839",
"K  c #885B3D",
"L  c #905F37",
"P  c #935E3B",
"I  c #995E3E",
"U  c #976337",
"Y  c #9A6536",
"T  c #96613B",
"R  c #9B643D",
"E  c #A6673E",
"W  c #A56F3F",
"Q  c #A96D3C",
"!  c #B26F3E",
"~  c #AB713E",
"^  c #A97F3F",
"/  c #B4733C",
"(  c #BA753D",
")  c #B27D3D",
"_  c #BD7A3A",
"`  c #C47B37",
"'  c #C27B3A",
"]  c #845443",
"[  c #8C5441",
"{  c #865A44",
"}  c #8B5A45",
"|  c #865948",
" . c #915641",
".. c #945B44",
"X. c #9C5D43",
"o. c #A15F44",
"O. c #8D6242",
"+. c #8D6F4B",
"@. c #926541",
"#. c #9D6143",
"$. c #9D6846",
"%. c #8E704B",
"&. c #847A4D",
"*. c #887F4B",
"=. c #907E45",
"-. c #9C7E44",
";. c #92714A",
":. c #9D7048",
">. c #927849",
",. c #A36245",
"<. c #AB6644",
"1. c #A36C44",
"2. c #AD6942",
"3. c #B46D41",
"4. c #A27644",
"5. c #A57D40",
"6. c #A87F40",
"7. c #B47141",
"8. c #B97141",
"9. c #578353",
"0. c #5C8252",
"q. c #5C8857",
"w. c #578959",
"e. c #5A8958",
"r. c #64834F",
"t. c #69854C",
"y. c #6C8B4D",
"u. c #7B834D",
"i. c #678455",
"p. c #6C8653",
"a. c #628956",
"s. c #6C8853",
"d. c #638D58",
"f. c #698F58",
"g. c #758250",
"h. c #669159",
"j. c #6B9058",
"k. c #6D995B",
"l. c #709151",
"z. c #759856",
"x. c #759D5C",
"c. c #789D5A",
"v. c #7AA25D",
"b. c #81834C",
"n. c #8A8349",
"m. c #9B8044",
"M. c #A18042",
"N. c #86A255",
"B. c #88A457",
"V. c #87AC5F",
"C. c #8BAC5D",
"Z. c #9EB95F",
"A. c #8EB160",
"S. c #91B360",
"D. c #98B761",
"F. c #9EBA60",
"G. c #A1BE62",
"H. c #A5C264",
"J. c #ABC665",
"K. c #AEC865",
"L. c #B2CD67",
"P. c None",
/* pixels */
"L.J.Z.N.t.t t n M 9.e.e.e.e.e.w.e.q.p.b.m.^ _ ( ! <.X.F < , % % 3 w l c j j k k k f s i 1 + . . P.P.P.P.P.P.P.P.P.P.P.P.P.P.P.P.",
"L.J.Z.N.y.N t n V 0.a.d.d.a.a.q.q.a.p.b.m.) ( ( 3.<.o.F , = % = 6 7 l j j j k k f f s 1 : o o . P.P.P.P.P.P.P.P.P.P.P.P.P.P.P.P.",
"L.J.F.B.y.N n m C r.t.g.g.p.p.p.t.p.t.u.M.) _ _ ! <.I F , = % & 1 7 w w f f f s f s i 1 : O o . P.P.P.P.P.P.P.P.P.P.P.P.P.P.P.P.",
"L.K.F.C.l.C N B Z u.b.b.b.b.b.u.u.b.*.^ ^ _ _ ( 3.<.o.H 9 = % & 1 1 1 6 1 s i i i 1 1 * * O o o P.P.P.P.P.P.P.P.P.P.P.P.P.P.P.P.",
"L.L.G.C.z.r.C Z A =.m.m.m.m.m.m.^ ^ ^ ^ ) _ ( ( 8.<.X.H < < & & % 1 > > 1 1 1 1 1 : % : - & - - P.P.P.P.P.P.P.P.P.P.P.P.P.P.P.P.",
"L.J.G.A.c.f.r.A =.^ ) ) ) ) ) ^ ) ) ^ ^ _ _ _ ( 3.<.X.[ F < & & o % % * 1 1 = % % % O % & - > ; P.P.P.P.P.P.P.P.P.P.P.P.P.P.P.P.",
"G.H.D.V.c.f.p.u.-.^ _ ` ` _ _ _ _ _ _ _ _ _ ( ! E o. .[ < < < & o o o * = 2 2 > = % % - & > > , P.P.P.P.P.P.P.P.P.P.P.P.P.P.P.P.",
"C.S.V.v.k.h.s.b.m.) ` ` ` ` ` ` _ ` ` ` _ ( ! E o.I H q < < < & o o % = , 9 9 9 2 1 = ; = > > < P.P.P.P.P.P.P.P.P.P.P.P.P.P.P.P.",
"v.v.x.k.h.d.s.b.m.) ` ` ` ` _ ` ` _ ` _ / ! <.o.[ [ q < < < & % o o % , 0 F G G 0 7 4 4 < > > > P.P.P.P.P.P.P.P.P.P.P.P.P.P.P.P.",
"f.f.f.f.d.a.s.b.-.) _ ` ` _ _ _ ` ` ( ( ! E o.I F 9 < < < , & - o o % 3 F  ... .] l 7 6 < > > > P.P.P.P.P.P.P.P.P.P.P.P.P.P.P.P.",
"i.i.i.i.i.i.g.*.5.^ _ _ _ ( _ _ ( ( ` ! E o.I H < < < ; ; , & - o o = 3 G X.#...{ z w 7 5 < , > P.P.P.P.P.P.P.P.P.P.P.P.P.P.P.P.",
"D D D D D D &.>.4.7.( ( ( ( ( ( ` ! 2.E o.H F < < < ; ; , ; & % o . = 3 ] ,.,.X.O.x l 7 < < ; ; P.P.P.P.P.P.P.P.P.P.P.P.P.P.P.P.",
"+.%.%.%.%.%.;.:.2.3.3.! ! ! ! 3.! 3.<.I H q < < < ; > > < ; ; - o . & , H o.<.$.} x l 7 6 < > > P.P.P.P.P.P.P.P.P.P.P.P.P.P.P.P.",
",.$.$.$.$.$.,.1.<.<.o.<.<.<.<.<.<.<.o.H < , & & , , ; < ; < ; - % o = , H I #.X.{ x l a 2 > > > P.P.P.P.P.P.P.P.P.P.P.P.P.P.P.P.",
",.#.o.,.,.,.#.#.X.X.o.o.X.o.o.o.o.o.I H , , o o - & ; < , ; , , % = , 9 H ..X...{ l 0 6 4 < > > P.P.P.P.P.P.P.P.P.P.P.P.P.P.P.P.",
"..X.X.........[ [ ] F F F H [ [ H H F , , & . . . - ; ; ; , , < , 3 8 F H [ [ { x g 7 6 4 < > P.P.P.P.P.P.P.P.P.P.P.P.P.P.P.P.P.",
"| } { { { ] ] h 3 3 3 3 8 0 h 0 h 9 9 < & o . . o % % % * > < < 9 ] [ ] ] ] ] c a a p < < P.P.P.P.P.P.P.P.P.P.P.P.P.P.P.P.P.P.P.",
"x v z z z l d s 1 2 = = , < < 4 < < < > - o . o . o o % * = < 9 [  ...} | c f a a < < , P.P.P.P.P.P.P.P.P.P.P.P.P.P.P.P.P.P.P.P.",
"l l j d d s s 1 1 o o O & > 4 < < < u ; % % o o o . o % % & < q [  .....] k f p < < > > P.P.P.P.P.P.P.P.P.P.P.P.P.P.P.P.P.P.P.P.",
"a a 7 6 p i 1 : O 1 1 1 > > i > 5 < < < : : - % o o . o % & < 0 ] [ ..| v k p p 1 > > < P.P.P.P.P.P.P.P.P.P.P.P.P.P.P.P.P.P.P.P.",
"4 4 4 1 : : : 1 1 1 1 1 p i p p i s p i p i 1 : O o o o - ; < 5 h ] v v c k p p 1 > > ; P.P.P.P.P.P.P.P.P.P.P.P.P.P.P.P.P.P.P.P.",
"2 > > = * % o 1 4 7 w j f s f s s s s s s s i 1 : o o o - ; < 4 a k c k k f f a 4 < ; < P.P.P.P.P.P.P.P.P.P.P.P.P.P.P.P.P.P.P.P.",
"< < > = % o O 1 7 l l v c c k c c c c c j j s i * O o o * > 4 6 d d f k f f f p < < < ; P.P.P.P.P.P.P.P.P.P.P.P.P.P.P.P.P.P.P.P.",
"p 4 2 = % o % 1 0 ] | | | ] | | | v x v c j j i * o o % = 4 4 7 d d k k k f s p 1 < , ; P.P.P.P.P.P.P.P.P.P.P.P.P.P.P.P.P.P.P.P.",
"s s p > ; ; ; < [ [ X...O.....| } } } | ] l j 6 : o o % 1 4 7 j g g j j j k s s p < > ; P.P.P.P.P.P.P.P.P.P.P.P.P.P.P.P.P.P.P.P.",
"s s s p < < < 9 [ ..,.,.,.,.,.,.,.o.#...{ z 7 6 : O o * 4 7 w l l g l l j k s p 1 < ; > P.P.P.P.P.P.P.P.P.P.P.P.P.P.P.P.P.P.P.P.",
"d s s p < < < ]  .o.<.<.<.<.2.2.<.<.,.#.{ z d 4 2 o 1 1 7 l z z l l 7 d d s s p < > > > P.P.P.P.P.P.P.P.P.P.P.P.P.P.P.P.P.P.P.P.",
"s s a a ] < F [ ..o.<.<.3.7.8.8.8.7.<.$.{ w 7 5 1 1 1 2 w z { x z g 7 7 6 1 1 1 > > , > P.P.P.P.P.P.P.P.P.P.P.P.P.P.P.P.P.P.P.P.",
"1 4 a g ] F  .X.o.o.<.3.8.8.8.' ' ( / R H 0 5 u 1 1 s g ] } } [ h 5 6 > : : : : ; > > > P.P.P.P.P.P.P.P.P.P.P.P.P.P.P.P.P.P.P.P.",
"; < < 0 [  .o.o.o.<.<.2.8.8.' ' ' ' ) R J 7 5 u 1 1 d x } X.X.[ h 5 > : % % % * = > > , P.P.P.P.P.P.P.P.P.P.P.P.P.P.P.P.P.P.P.P.",
"; > < q [ o.<.2.<.<.2.3.8.( _ _ ' 8.~ T q 3 < < 1 j z | X.,.X.[ q < ; % o o o O * ; > > P.P.P.P.P.P.P.P.P.P.P.P.P.P.P.P.P.P.P.P.",
"; > < F I o.( 8.8.8.8.3.7.4.W ~ 4.2.R K 0 2 < 4 j z { ..#.,.,. .F < : : @ @ @ @ : ; > P.P.P.P.P.P.P.P.P.P.P.P.P.P.P.P.P.P.P.P.P.",
"- & 3 q T ! _ ` ' _ ) ~ W @.@.L O...| h 5 < < 5 ] | X.,.<.o.o.[ q < > - u + y # $ P.P.P.P.P.P.P.P.P.P.P.P.P.P.P.P.P.P.P.P.P.P.P.",
"> > 3 J R / _ ` ' _ _ ~ T O.x z v c k a < < < 9 [ ..o.o.<.o.o.[ F < > > u y y y P.P.P.P.P.P.P.P.P.P.P.P.P.P.P.P.P.P.P.P.P.P.P.P.",
"> < 3 G P Q ) _ _ / ~ Y O.w j j f s a a a 5 5 q [ o.<.<.o.o. .[ 0 < < u u u y y P.P.P.P.P.P.P.P.P.P.P.P.P.P.P.P.P.P.P.P.P.P.P.P.",
"< 5 7 q J L Y Y Y U L x w 7 6 1 i s a a 9 9 ] [ o.o.o.o.o. .] ] 9 a 1 u u y + y P.P.P.P.P.P.P.P.P.P.P.P.P.P.P.P.P.P.P.P.P.P.P.P.",
"d d 0 0 8 8 8 8 8 8 8 3 2 = = : : p p 9 h [  .o.o.<.o.o.[ q 9 9 a s i i - $ + + P.P.P.P.P.P.P.P.P.P.P.P.P.P.P.P.P.P.P.P.P.P.P.P.",
"l g 7 6 2 2 * = = = = * % % % % ; > < 9 [ ..o.o.o.o.o. .] 9 < 5 a s i i : @ + . P.P.P.P.P.P.P.P.P.P.P.P.P.P.P.P.P.P.P.P.P.P.P.P.",
"w w 7 6 1 o o o o o o o o X o o - > < h [  .o.o.o.X. .[ h < < 1 p s p 1 : o X X P.P.P.P.P.P.P.P.P.P.P.P.P.P.P.P.P.P.P.P.P.P.P.P.",
"1 6 1 1 * O o O O O * o o o . o % & < g [ | .. . .[ ] ] a 5 i 1 1 i i : % % X P.P.P.P.P.P.P.P.P.P.P.P.P.P.P.P.P.P.P.P.P.P.P.P.P.",
"1 1 1 * * % % * u u < ; O o o o % & < a h ] ] ] ] h < g 5 a a 1 1 : : : % P.P.P.P.P.P.P.P.P.P.P.P.P.P.P.P.P.P.P.P.P.P.P.P.P.P.P.",
"o o o O * * = 1 p p s 1 : o o o - & > 5 a k k d a 5 5 a a a d u : O o o P.P.P.P.P.P.P.P.P.P.P.P.P.P.P.P.P.P.P.P.P.P.P.P.P.P.P.P.",
"X X o X ; > 2 6 s d s p : % o % & , , 4 p p p p 4 < < p p s s i : o o X P.P.P.P.P.P.P.P.P.P.P.P.P.P.P.P.P.P.P.P.P.P.P.P.P.P.P.P.",
"  X o 2 : > 4 s s f d p : : - - & & ; < p p p a 4 a u s s f f p 1 O X P.P.P.P.P.P.P.P.P.P.P.P.P.P.P.P.P.P.P.P.P.P.P.P.P.P.P.P.P.",
"  . o % 1 p s s f f s s < ; & & ; > ; < < 1 p p p p p s s f s s 1 P.P.P.P.P.P.P.P.P.P.P.P.P.P.P.P.P.P.P.P.P.P.P.P.P.P.P.P.P.P.P.",
". . O : 1 s d d f f s p < < ; ; , > > , > < < < s s s d f f k s P.P.P.P.P.P.P.P.P.P.P.P.P.P.P.P.P.P.P.P.P.P.P.P.P.P.P.P.P.P.P.P.",
"X o O * > p d f d s a p < > & & ; ; ; & ; , u < p s d f f s d f P.P.P.P.P.P.P.P.P.P.P.P.P.P.P.P.P.P.P.P.P.P.P.P.P.P.P.P.P.P.P.P.",
"% % - : i p s s s p p 1 < - & - & ; - & ; ; u > 1 p s s s f f P.P.P.P.P.P.P.P.P.P.P.P.P.P.P.P.P.P.P.P.P.P.P.P.P.P.P.P.P.P.P.P.P.",
"- - = ; > < p a < i > u , ; % o % o % % o % % * = 4 4 p a P.P.P.P.P.P.P.P.P.P.P.P.P.P.P.P.P.P.P.P.P.P.P.P.P.P.P.P.P.P.P.P.P.P.P.",
"= & > > ; < > > < > < ; ; o o o o o . o . o o % = > < > P.P.P.P.P.P.P.P.P.P.P.P.P.P.P.P.P.P.P.P.P.P.P.P.P.P.P.P.P.P.P.P.P.P.P.P.",
"& > > > ; , < ; > > > ; o o o   X o o X . o o % - > > > P.P.P.P.P.P.P.P.P.P.P.P.P.P.P.P.P.P.P.P.P.P.P.P.P.P.P.P.P.P.P.P.P.P.P.P.",
"& * - & ; < ; , > > ; ; - o o   . X X X . . o % - ; > P.P.P.P.P.P.P.P.P.P.P.P.P.P.P.P.P.P.P.P.P.P.P.P.P.P.P.P.P.P.P.P.P.P.P.P.P.",
"% % % % * & ; , , ; > ; - P.P.P.P.P.P.P.P.P.P.P.P.P.P.P.P.P.P.P.P.P.P.P.P.P.P.P.P.P.P.P.P.P.P.P.P.P.P.P.P.P.P.P.P.P.P.P.P.P.P.P.",
". . o % & & > > ; , > > P.P.P.P.P.P.P.P.P.P.P.P.P.P.P.P.P.P.P.P.P.P.P.P.P.P.P.P.P.P.P.P.P.P.P.P.P.P.P.P.P.P.P.P.P.P.P.P.P.P.P.P.",
". o o % & & , > < ; > > P.P.P.P.P.P.P.P.P.P.P.P.P.P.P.P.P.P.P.P.P.P.P.P.P.P.P.P.P.P.P.P.P.P.P.P.P.P.P.P.P.P.P.P.P.P.P.P.P.P.P.P.",
". . o % * & > , < , , P.P.P.P.P.P.P.P.P.P.P.P.P.P.P.P.P.P.P.P.P.P.P.P.P.P.P.P.P.P.P.P.P.P.P.P.P.P.P.P.P.P.P.P.P.P.P.P.P.P.P.P.P.",
"P.P.P.P.P.P.P.P.P.P.P.P.P.P.P.P.P.P.P.P.P.P.P.P.P.P.P.P.P.P.P.P.P.P.P.P.P.P.P.P.P.P.P.P.P.P.P.P.P.P.P.P.P.P.P.P.P.P.P.P.P.P.P.P.",
"P.P.P.P.P.P.P.P.P.P.P.P.P.P.P.P.P.P.P.P.P.P.P.P.P.P.P.P.P.P.P.P.P.P.P.P.P.P.P.P.P.P.P.P.P.P.P.P.P.P.P.P.P.P.P.P.P.P.P.P.P.P.P.P.",
"P.P.P.P.P.P.P.P.P.P.P.P.P.P.P.P.P.P.P.P.P.P.P.P.P.P.P.P.P.P.P.P.P.P.P.P.P.P.P.P.P.P.P.P.P.P.P.P.P.P.P.P.P.P.P.P.P.P.P.P.P.P.P.P.",
"P.P.P.P.P.P.P.P.P.P.P.P.P.P.P.P.P.P.P.P.P.P.P.P.P.P.P.P.P.P.P.P.P.P.P.P.P.P.P.P.P.P.P.P.P.P.P.P.P.P.P.P.P.P.P.P.P.P.P.P.P.P.P.P.",
"P.P.P.P.P.P.P.P.P.P.P.P.P.P.P.P.P.P.P.P.P.P.P.P.P.P.P.P.P.P.P.P.P.P.P.P.P.P.P.P.P.P.P.P.P.P.P.P.P.P.P.P.P.P.P.P.P.P.P.P.P.P.P.P.",
"P.P.P.P.P.P.P.P.P.P.P.P.P.P.P.P.P.P.P.P.P.P.P.P.P.P.P.P.P.P.P.P.P.P.P.P.P.P.P.P.P.P.P.P.P.P.P.P.P.P.P.P.P.P.P.P.P.P.P.P.P.P.P.P.",
"P.P.P.P.P.P.P.P.P.P.P.P.P.P.P.P.P.P.P.P.P.P.P.P.P.P.P.P.P.P.P.P.P.P.P.P.P.P.P.P.P.P.P.P.P.P.P.P.P.P.P.P.P.P.P.P.P.P.P.P.P.P.P.P.",
"P.P.P.P.P.P.P.P.P.P.P.P.P.P.P.P.P.P.P.P.P.P.P.P.P.P.P.P.P.P.P.P.P.P.P.P.P.P.P.P.P.P.P.P.P.P.P.P.P.P.P.P.P.P.P.P.P.P.P.P.P.P.P.P."
};
