/* XPM */
static char *cliff_06[] = {
/* columns rows colors chars-per-pixel */
"64 64 219 2 ",
"   c #4B3434",
".  c #4B3B3D",
"X  c #473639",
"o  c #523635",
"O  c #543936",
"+  c #543B3C",
"@  c #5C3B3A",
"#  c #573838",
"$  c #623E3A",
"%  c #683F3A",
"&  c #5C423D",
"*  c #54403C",
"=  c #64433C",
"-  c #6B453D",
";  c #66483E",
":  c #6A4A3F",
">  c #74463D",
",  c #734A3E",
"<  c #78493E",
"1  c #7A513D",
"2  c #5E7F2E",
"3  c #577739",
"4  c #6C6D38",
"5  c #687931",
"6  c #777338",
"7  c #796A39",
"8  c #3F3E46",
"9  c #433E45",
"0  c #4C3D41",
"q  c #523F40",
"w  c #444046",
"e  c #4B4345",
"r  c #464948",
"t  c #534544",
"y  c #5B4542",
"u  c #554A46",
"i  c #5C4A45",
"p  c #564748",
"a  c #4C594C",
"s  c #4F5748",
"d  c #575545",
"f  c #644641",
"g  c #634B44",
"h  c #6B4D43",
"j  c #674A45",
"k  c #724D41",
"l  c #7C4E42",
"z  c #6D5144",
"x  c #685844",
"c  c #745343",
"v  c #7B5444",
"b  c #7D5942",
"n  c #57684D",
"m  c #587747",
"M  c #536C51",
"N  c #5C7E54",
"B  c #667848",
"V  c #6C7246",
"C  c #85563F",
"Z  c #8C6A3A",
"A  c #93633E",
"S  c #9A6C3A",
"D  c #88733B",
"F  c #93773A",
"G  c #A56D3D",
"H  c #A96C3E",
"J  c #AB7C3D",
"K  c #A7733B",
"L  c #B4743C",
"P  c #BB733D",
"I  c #B27C3D",
"U  c #BC7A3A",
"Y  c #B87737",
"T  c #B46E3F",
"R  c #C37B38",
"E  c #C27938",
"W  c #835643",
"Q  c #8C5442",
"!  c #845844",
"~  c #8C5B44",
"^  c #945C44",
"/  c #9B5F44",
"(  c #A05F44",
")  c #936241",
"_  c #9C6144",
"`  c #986B40",
"'  c #867E49",
"]  c #9C7E43",
"[  c #957D44",
"{  c #816744",
"}  c #A36245",
"|  c #AA6544",
" . c #A46B41",
".. c #AC6A41",
"X. c #B46D40",
"o. c #B86E40",
"O. c #AA7344",
"+. c #A47D42",
"@. c #AA7644",
"#. c #B27340",
"$. c #72AB1F",
"%. c #7CB61E",
"&. c #7EBA1D",
"*. c #5D8B2C",
"=. c #5C8832",
"-. c #66882C",
";. c #699927",
":. c #638B33",
">. c #689739",
",. c #759A3B",
"<. c #7D8B39",
"1. c #6DA425",
"2. c #72A22A",
"3. c #73AB2C",
"4. c #76AB27",
"5. c #7CB522",
"6. c #7DBB22",
"7. c #7AB22C",
"8. c #76AC32",
"9. c #76A735",
"0. c #6EA33C",
"q. c #598348",
"w. c #5E8457",
"e. c #688949",
"r. c #7A844E",
"t. c #718E4C",
"y. c #778747",
"u. c #6C9D42",
"i. c #65904E",
"p. c #6B9948",
"a. c #759842",
"s. c #6C8652",
"d. c #638955",
"f. c #758E54",
"g. c #7E8C50",
"h. c #6A9158",
"j. c #699253",
"k. c #75995A",
"l. c #7B9C5A",
"z. c #7B9855",
"x. c #7AA943",
"c. c #7BA35B",
"v. c #81BE1C",
"b. c #8CBC1F",
"n. c #8C9539",
"m. c #8F9037",
"M. c #A6883A",
"N. c #B5813A",
"B. c #B7853A",
"V. c #A79531",
"C. c #98A72A",
"Z. c #81BB23",
"A. c #82B728",
"S. c #8AB826",
"D. c #96B82B",
"F. c #83A736",
"G. c #8CBD34",
"H. c #87B637",
"J. c #95BB38",
"K. c #90A62F",
"L. c #A5A639",
"P. c #84C317",
"I. c #85C21B",
"U. c #88C51C",
"Y. c #8AC324",
"T. c #8EC42B",
"R. c #89C523",
"E. c #90C62B",
"W. c #93C534",
"Q. c #96C53A",
"!. c #98C938",
"~. c #8FC135",
"^. c #82834B",
"/. c #89824A",
"(. c #87894B",
"). c #968345",
"_. c #9D8244",
"`. c #958C47",
"'. c #98904E",
"]. c #849A57",
"[. c #969354",
"{. c #A68649",
"}. c #B39847",
"|. c #AA984D",
" X c #87A548",
".X c #97BC48",
"XX c #81A55E",
"oX c #8AA75A",
"OX c #96A95C",
"+X c #8DB157",
"@X c #99B85A",
"#X c #8EAF4A",
"$X c #A6B847",
"%X c #ABA755",
"&X c #A6B95B",
"*X c #A9A74B",
"=X c #87A961",
"-X c #8CB063",
";X c #93B362",
":X c #9CBB66",
">X c #9AB964",
",X c #A2BE63",
"<X c #ABBD61",
"1X c #9AC543",
"2X c #9EC54B",
"3X c #9CC649",
"4X c #A0C64D",
"5X c #A1CA4B",
"6X c #A2C652",
"7X c #A7C65B",
"8X c #A8C75D",
"9X c #AACA5D",
"0X c #A7CA58",
"qX c #A5C264",
"wX c #AAC665",
"eX c #ADC963",
"rX c #A8C468",
"tX c #B2CC68",
"yX c None",
/* pixels */
"P.P.R.~.1X7XwXtXtXtXrX;Xl.h.s.^._.J U P o.| ( Q < % @ $ - z c c c z z : = $ @ @ yXyXyXyXyXyXyXyXyXyXyXyXyXyXyXyXyXyXyXyXyXyXyXyX",
"P.I.Y.W.2X8XwXtXtXwX,X+Xl.h.s.r._.J P P o.| ( C < % $ $ : c c c b c c : = $ $ @ yXyXyXyXyXyXyXyXyXyXyXyXyXyXyXyXyXyXyXyXyXyXyXyX",
"Y.Y.T.Q.4X8XwXwX,X,X@XXXk.h.s.^._.N.P P o.| _ Q < - = - h c b b b c c : f @ # # yXyXyXyXyXyXyXyXyXyXyXyXyXyXyXyXyXyXyXyXyXyXyXyX",
"W.Q.Q.2X6X8XqX,XOXoXl.k.h.d.s.^._.#.Y P X.| / Q l - - : l W ! ! ~ ~ ! c g @ + + yXyXyXyXyXyXyXyXyXyXyXyXyXyXyXyXyXyXyXyXyXyXyXyX",
"2X2X6X6X9XwXqXOX].j.w.q.w.w.s.^._.J U P o.| ( ~ W , : 1 W ~ ^ _ / / ~ v h q q 0 yXyXyXyXyXyXyXyXyXyXyXyXyXyXyXyXyXyXyXyXyXyXyXyX",
"7X7X8X9XeXwX:XoXt.m m m m w.s.^._.I U P X.| ( ^ W v v b ~ / _ } } ( ^ v g t 9 9 yXyXyXyXyXyXyXyXyXyXyXyXyXyXyXyXyXyXyXyXyXyXyXyX",
"7X7X7X8X9X7X@X Xp.3 3 3 q.i.t.(._.N.P P X.| ( ^ ! v b ~ /  .| | } / ^ v g t 9 8 yXyXyXyXyXyXyXyXyXyXyXyXyXyXyXyXyXyXyXyXyXyXyXyX",
"2X2X2X4X5X4X.XF.,.:.=.=.:.,.a.n.M.I U P X.| } ^ ! b b ~ _ ..X.| / ~ v z g e 9 yXyXyXyXyXyXyXyXyXyXyXyXyXyXyXyXyXyXyXyXyXyXyXyXyX",
"Q.Q.Q.Q.W.Q.J.A.4.1.;.1.3.3.F.K.V.I Y P T | ( ^ ! b ! )  .#.#. .~ c g i p yXyXyXyXyXyXyXyXyXyXyXyXyXyXyXyXyXyXyXyXyXyXyXyXyXyXyX",
"Z.Y.Y.T.Y.Y.Y.Z.Z.%.5.6.6.6.S.C.V.N.U P T | ( ^ ! v b A  .L L ) v i p r yXyXyXyXyXyXyXyXyXyXyXyXyXyXyXyXyXyXyXyXyXyXyXyXyXyXyXyX",
"I.I.I.I.I.I.U.P.I.I.I.v.v.Z.K.C.V.B.U o.T | ( ^ b c b { G K K Z c p e 9 yXyXyXyXyXyXyXyXyXyXyXyXyXyXyXyXyXyXyXyXyXyXyXyXyXyXyXyX",
"I.I.P.P.P.P.P.P.P.U.I.I.6.7.4.n.M.N.U P X.( ( ^ v h z 1 C A A C z p e e yXyXyXyXyXyXyXyXyXyXyXyXyXyXyXyXyXyXyXyXyXyXyXyXyXyXyXyX",
"P.P.P.P.v.P.P.P.P.U.Z.5.8.0.,.(.M.N.Y P o.| _ ! z g p g , 1 C , j g p p yXyXyXyXyXyXyXyXyXyXyXyXyXyXyXyXyXyXyXyXyXyXyXyXyXyXyXyX",
"I.I.I.I.I.I.I.I.P.U.Z.7.0.p.a.(._.I U P o.| / ! z p e t & % - - j g j j yXyXyXyXyXyXyXyXyXyXyXyXyXyXyXyXyXyXyXyXyXyXyXyXyXyXyXyX",
"P.I.I.R.I.Y.R.R.Y.Z.A.9.a.t.r.' {.I #.o...} ^ W j p q 0 q @ @ = j j z h yXyXyXyXyXyXyXyXyXyXyXyXyXyXyXyXyXyXyXyXyXyXyXyXyXyXyXyX",
"I.I.b.Y.T.W.G.H.H.7.9.,.a.^.' [ @.#.#...} / ! v z i p + + + @ = h h z z yXyXyXyXyXyXyXyXyXyXyXyXyXyXyXyXyXyXyXyXyXyXyXyXyXyXyXyX",
"P.I.R.T.Q.1X1X#Xx.0.a.<.(.).] @.@.#.| } ^ ! W c x g g & & @ @ = j z c c yXyXyXyXyXyXyXyXyXyXyXyXyXyXyXyXyXyXyXyXyXyXyXyXyXyXyXyX",
"P.I.Y.W.1X6X6X+XXXj.t.(.[ M.#.L X...( ^ ! v c z x 1 h ; = @ $ = h z c c yXyXyXyXyXyXyXyXyXyXyXyXyXyXyXyXyXyXyXyXyXyXyXyXyXyXyXyX",
"P.I.Y.W.3X7X:X;X=Xh.f.(.).+.J X...} ^ Q l k j h : : : - = = = - h c c c yXyXyXyXyXyXyXyXyXyXyXyXyXyXyXyXyXyXyXyXyXyXyXyXyXyXyXyX",
"&.I.Y.Q.2XwXrX:X=X=X].].`.).] ` ) ~ C C k j f j ; ; ; = = - = : c c c v yXyXyXyXyXyXyXyXyXyXyXyXyXyXyXyXyXyXyXyXyXyXyXyXyXyXyXyX",
"I.I.Y.W.4XeXwXrX>X;X=X].[.(.' { W W < % f $ $ q O * & & = : k h c c c c yXyXyXyXyXyXyXyXyXyXyXyXyXyXyXyXyXyXyXyXyXyXyXyXyXyXyXyX",
"P.I.Y.W.3X7XwXrXrXqX>XOXl.f.B V j % % % $ $ $ @ O O o & ; : c c c c c c yXyXyXyXyXyXyXyXyXyXyXyXyXyXyXyXyXyXyXyXyXyXyXyXyXyXyXyX",
"P.I.R.~.1X6X7XeXeXwX,X-Xc.h.N n d y @ q # # q # O O O & = h h c x : c , yXyXyXyXyXyXyXyXyXyXyXyXyXyXyXyXyXyXyXyXyXyXyXyXyXyXyXyX",
"P.P.I.T.W.1X2X0XeXtXrX>Xc.h.N n d t 0 o q q q # O O * * & i i g ; ; ; ; h yXyXyXyXyXyXyXyXyXyXyXyXyXyXyXyXyXyXyXyXyXyXyXyXyXyXyX",
"P.I.I.R.T.E.!.5X0X9XwX;Xc.h.N M s e 0 . 0 0 0 q q q f y p p p t * * & = - 1 1 yXyXyXyXyXyXyXyXyXyXyXyXyXyXyXyXyXyXyXyXyXyXyXyXyX",
"I.I.I.I.U.S.W.Q.4X7XqX;Xl.h.N M s e 9 9 9 9 0 p i j j i p e 9 0 . o O & = : x 1 yXyXyXyXyXyXyXyXyXyXyXyXyXyXyXyXyXyXyXyXyXyXyXyX",
"Y.Y.S.Y.b.b.D.D..X@X@X=Xl.h.N M a r w 9 9 w e e p g i i p p q q .   O * ; : x c yXyXyXyXyXyXyXyXyXyXyXyXyXyXyXyXyXyXyXyXyXyXyXyX",
"Q.W.W.J.D.C.C.C.K.].z.k.h.d.N M a r 8 8 8 w w e p p p g g j j p & & & & & i g x yXyXyXyXyXyXyXyXyXyXyXyXyXyXyXyXyXyXyXyXyXyXyXyX",
"2X2X$XJ.L.V.V.m.(.y.q.d.w.w.N M a r 8 8 8 w w e 9 e p j z v W l : ; ; & & u u u yXyXyXyXyXyXyXyXyXyXyXyXyXyXyXyXyXyXyXyXyXyXyXyX",
"eX7X7X*X}.B.M.F 6 3 m m q.w.N n a r w 9 9 9 w w 9 e p j v ^ ^ ~ b 1 : i d e e e yXyXyXyXyXyXyXyXyXyXyXyXyXyXyXyXyXyXyXyXyXyXyXyX",
"7X7X7X*X}.M.S D 4 3 3 3 q.i.q.m n u e e w 9 w w e e i c ~ / } / ~ b z g t e 9 8 yXyXyXyXyXyXyXyXyXyXyXyXyXyXyXyXyXyXyXyXyXyXyXyX",
"2X2X.X*X'.M.D 6 5 5 =.=.>.>.a.e.V h g p e e w e p g z W ^ } } / ~ b z i u w w 8 yXyXyXyXyXyXyXyXyXyXyXyXyXyXyXyXyXyXyXyXyXyXyXyX",
"Q.W.H.F.n.7 4 5 -.;.1.1.4.2.2.<.' { v j p e r p j v Q ^ ( | } _ ~ b z g u e 8 8 yXyXyXyXyXyXyXyXyXyXyXyXyXyXyXyXyXyXyXyXyXyXyXyX",
"Y.T.A.2.5 3 3 -.;.4.6.v.&.A.A.m.[ / ~ l j e e g v ~ / ( | } } / ~ b z i t r w 8 yXyXyXyXyXyXyXyXyXyXyXyXyXyXyXyXyXyXyXyXyXyXyXyX",
"U.U.&.1.=.3 3 :.2.A.R.E.R.Y.S.C._. ./ W j p p j ! / } | | / / ~ ! c z g t e e 9 yXyXyXyXyXyXyXyXyXyXyXyXyXyXyXyXyXyXyXyXyXyXyXyX",
"P.P.&.$.;.*.:.;.9.G.E.!.!.!.J.L.{.O.( Q z j g c ~ / | | } / ^ ! v z : & & t . . + yXyXyXyXyXyXyXyXyXyXyXyXyXyXyXyXyXyXyXyXyXyXyX",
"U.P.v.%.$.1.1.9.H.1X5X5X5X5X$X*X{.O._ ~ c z z v ^ } | } _ ~ ! v k f f @ @ + + + @ @ @ yXyXyXyXyXyXyXyXyXyXyXyXyXyXyXyXyXyXyXyXyX",
"U.I.v.&.&.&.A.G..X6X7X9X9XqX&X%X{.@.( ^ ! v c W ^ / } / ~ b c , - $ $ @ @ @ @ @ @ @ @ @ yXyXyXyXyXyXyXyXyXyXyXyXyXyXyXyXyXyXyXyX",
"I.I.P.U.R.T.~.Q.2X7XwXwXrX,X>X%X{.O.} ^ ! v v ! ~ / / ~ C c : ; $ @ @ @ + @ @ @ @ @ @ @ yXyXyXyXyXyXyXyXyXyXyXyXyXyXyXyXyXyXyXyX",
"I.U.I.Y.E.E.!.5X0XeXrXrX:XOXOX[.{.O.../ ~ v v v ~ ~ ~ W 1 : = @ # # o o + + + + @ @ @ @ yXyXyXyXyXyXyXyXyXyXyXyXyXyXyXyXyXyXyXyX",
"P.I.Y.T.!.3X5X0X9XeXrX>X-Xc.].[.{.@.H G C b c v W v v k f $ o o o o o   . 0 0 . + + $ @ yXyXyXyXyXyXyXyXyXyXyXyXyXyXyXyXyXyXyXyX",
"v.I.Y.W.Q.6X9XeXwXwXqX;X=Xk.f.(.{.@.L G A W c c z c z j @ #             0 0 0 0 + @ # $ yXyXyXyXyXyXyXyXyXyXyXyXyXyXyXyXyXyXyXyX",
"P.I.S.G.J.@X&X,X<X<X,XOXl.f.r./.+.I L G A b c z h h j y + o   X     X . 0 0 p p q @ $ $ yXyXyXyXyXyXyXyXyXyXyXyXyXyXyXyXyXyXyXyX",
"P.U.R.A.#XoX].OX%X%X%X|.[.(.' [ +.U I G A b c h j f y @ . X X X X X . + y j j j h = $ % $ yXyXyXyXyXyXyXyXyXyXyXyXyXyXyXyXyXyXyX",
"I.I.6.7.,.t.t.(.`.}.}.}.{.{.+.M.N.I L G A c z : f f @ q . . X X X 8 . y h b v v l k : - = @ $ yXyXyXyXyXyXyXyXyXyXyXyXyXyXyXyXyX",
"U.I.5.1.*.3 5 V F M.B.R I I I N.U U L G ) b c : = & @ q 0 9 8 9 8 8 e g v ~ ^ ~ W k h : = $ @ @ yXyXyXyXyXyXyXyXyXyXyXyXyXyXyXyX",
"U.P.&.1.*.3 3 4 D K K Y Y U U R R U Y K A C c , - = @ + 0 w w w 8 e t z Q / } / ~ b k = = @ @ @ yXyXyXyXyXyXyXyXyXyXyXyXyXyXyXyX",
"U.I.&.$.;.*.5 5 6 D S K Y U R R R R P K ` ~ ! v k - = & e e w r * e i c ~ ( } / ~ b c h = $ @ @ yXyXyXyXyXyXyXyXyXyXyXyXyXyXyXyX",
"U.I.P.%.$.1.;.-.5 4 7 Z G Y E R R R U O. ./ ~ Q 1 , h y e e w e p i z v ^ _ } _ ~ b c : % $ $ # yXyXyXyXyXyXyXyXyXyXyXyXyXyXyXyX",
"P.I.I.v.v.6.4.;.5 3 4 7 Z I R R R U U L H } / ^ W c h i u e e e p z c ! ^ } } ^ ~ v z : % $ # $ yXyXyXyXyXyXyXyXyXyXyXyXyXyXyXyX",
"I.I.I.U.R.Y.A.9.:.3 5 V D K I U U R U P T X.} ^ ! c h u e e e p g c ! ~ / } _ / ! b k : $ @ @ # yXyXyXyXyXyXyXyXyXyXyXyXyXyXyXyX",
"I.I.I.T.E.W.~.F.a.e.s.y./.' M.J I Y E U P T  .^ b x i t e w e p z b ~ / } } } / ! b k h = $ @ @ yXyXyXyXyXyXyXyXyXyXyXyXyXyXyXyX",
"I.I.I.E.Q.1X2X@X+XoX].z.g.r./.] J Y R E E P K ) v i e e w w e g c ~ ^ } } | ( / ~ b k h = $ @ @ yXyXyXyXyXyXyXyXyXyXyXyXyXyXyXyX",
"P.I.Y.W.1X6X7X8X&X@X@XoXl.f.r./.] Y U R E P K A 1 i e w 8 w t j ! ^ } | | } } ^ ! b k : = @ $ @ yXyXyXyXyXyXyXyXyXyXyXyXyXyXyXyX",
"P.I.Y.W.1X6X8X9XeXwX,X;XXXk.f.^.).{.I R U U L A b i e w w e t j W / } | | } _ ~ ! c h ; = @ @ @ yXyXyXyXyXyXyXyXyXyXyXyXyXyXyXyX",
"P.I.U.T.Q.1X4X8XeXeXrX>X-XXXl.].(.).{.+.B.U L G { c h t e * y h ~ / | | } _ ~ ! c z i y t q + + yXyXyXyXyXyXyXyXyXyXyXyXyXyXyXyX",
"P.I.I.T.T.W.Q.4X0XeXtXrX>X;X-X].].^./._.J I L H / ~ l % f q $ < Q ( | ( / ~ ! c z u p t e . 0 0 yXyXyXyXyXyXyXyXyXyXyXyXyXyXyXyX",
"I.I.I.I.Y.Y.T.Q.4X8XwXwXrX,X>XoXl.f.r./.J I U P | ( Q W > $ % < Q / ( / ^ ! c j u t e w 9 e 9 w yXyXyXyXyXyXyXyXyXyXyXyXyXyXyXyX",
"Z.Z.6.v.v.b.Y.W.1X6X7X9X7X7X@X+Xc.i.s.r.).I Y P o.| / Q > % % % W Q ^ Q ! c z p u w w w 9 w w w yXyXyXyXyXyXyXyXyXyXyXyXyXyXyXyX",
"8.8.8.5.&.v.Y.T.W.1X1X4X5X3X3X+Xk.h.s.' [ J U P o.| ( Q l % % % l Q Q l z g i p e w 8 8 9 w 8 yXyXyXyXyXyXyXyXyXyXyXyXyXyXyXyXyX",
"u.u.0.9.7.v.I.Y.T.W.W.!.W.W.G.x.p.j.h.r.] I P E o.| | Q Q % $ % % > > h g p p e w w w w w yXyXyXyXyXyXyXyXyXyXyXyXyXyXyXyXyXyXyX",
"i.i.p.0.7.Z.I.I.I.U.R.R.T.R.~.8.u.i.s.^.] I P P o.| / Q % % @ @ % % $ y t e e w w w w w yXyXyXyXyXyXyXyXyXyXyXyXyXyXyXyXyXyXyXyX",
"w.w.i.,.3.Z.I.U.U.U.I.U.I.I.6.8.u.i.s.^.] #.P P T | / Q C % @ $ @ @ @ + 0 w 9 w w 8 w w yXyXyXyXyXyXyXyXyXyXyXyXyXyXyXyXyXyXyXyX",
"w.w.d.u.9.Z.I.P.P.P.P.P.P.I.6.3.u.i.s.^._.J P E T | ( C % % # # # # + . 0 9 9 9 w w 9 w yXyXyXyXyXyXyXyXyXyXyXyXyXyXyXyXyXyXyXyX"
};
