/* XPM */
static char *cliff_07[] = {
/* columns rows colors chars-per-pixel */
"64 64 189 2 ",
"   c #452E2F",
".  c #462F30",
"X  c #473030",
"o  c #4C3332",
"O  c #453538",
"+  c #4B3639",
"@  c #44393D",
"#  c #4A3A3E",
"$  c #533635",
"%  c #583737",
"&  c #553A36",
"*  c #5A3B36",
"=  c #503739",
"-  c #583738",
";  c #553B39",
":  c #5C3B39",
">  c #613E36",
",  c #623E3A",
"<  c #683F3B",
"1  c #5D413C",
"2  c #624137",
"3  c #64433D",
"4  c #6A443B",
"5  c #65483D",
"6  c #6A4A3E",
"7  c #694736",
"8  c #734C35",
"9  c #794E36",
"0  c #73463C",
"q  c #744A3D",
"w  c #7B4B3D",
"e  c #7D513B",
"r  c #7C5037",
"t  c #486B34",
"y  c #52643A",
"u  c #4D7037",
"i  c #5A7B3D",
"p  c #6D673A",
"a  c #453E42",
"s  c #4E3E41",
"d  c #4A4245",
"f  c #564443",
"g  c #5F4340",
"h  c #564946",
"j  c #634541",
"k  c #684741",
"l  c #664A44",
"z  c #6C4D42",
"x  c #664D48",
"c  c #6B4F48",
"v  c #724D42",
"b  c #7A4E41",
"n  c #6E5044",
"m  c #6E5048",
"M  c #735243",
"N  c #7B5444",
"B  c #7E5844",
"V  c #7A5448",
"C  c #745249",
"Z  c #5F7240",
"A  c #767648",
"S  c #777950",
"D  c #7A7A50",
"F  c #834F3D",
"G  c #894F3F",
"H  c #84523C",
"J  c #8A523E",
"K  c #82583B",
"L  c #8D5B3A",
"P  c #90573F",
"I  c #965D3B",
"U  c #985C3D",
"Y  c #8E603F",
"T  c #96613A",
"R  c #9C653B",
"E  c #9C683F",
"W  c #956638",
"Q  c #8D773F",
"!  c #90703A",
"~  c #A4663C",
"^  c #AB6D3C",
"/  c #A7673D",
"(  c #B36E3E",
")  c #AB723D",
"_  c #A47A3E",
"`  c #B5743C",
"'  c #BB753D",
"]  c #B17C3D",
"[  c #BD7A3A",
"{  c #C27C3B",
"}  c #C27B37",
"|  c #854F40",
" . c #835543",
".. c #8B5441",
"X. c #855944",
"o. c #8B5B44",
"O. c #855848",
"+. c #915641",
"@. c #945C44",
"#. c #9B5D43",
"$. c #A15F44",
"%. c #926442",
"&. c #9B6244",
"*. c #9E6945",
"=. c #936F49",
"-. c #8E714C",
";. c #84794D",
":. c #897F4A",
">. c #9B7E44",
",. c #93734A",
"<. c #997649",
"1. c #A26344",
"2. c #AB6644",
"3. c #A46B43",
"4. c #AD6A42",
"5. c #B36D41",
"6. c #A67544",
"7. c #B47240",
"8. c #B97241",
"9. c #79B41B",
"0. c #56842D",
"q. c #679D23",
"w. c #648F36",
"e. c #689D3E",
"r. c #6BA027",
"t. c #73AD2E",
"y. c #74A52F",
"u. c #7DB820",
"i. c #77AE36",
"p. c #6F8A48",
"a. c #7A8248",
"s. c #6A9E42",
"d. c #65904E",
"f. c #6F9F4A",
"g. c #779E43",
"h. c #6B8553",
"j. c #628B57",
"k. c #648D58",
"l. c #698F58",
"z. c #698654",
"x. c #758250",
"c. c #748D54",
"v. c #679051",
"b. c #699055",
"n. c #6A9159",
"m. c #6D985C",
"M. c #65925A",
"N. c #769E5B",
"B. c #7C9A57",
"V. c #7EAF41",
"C. c #7AA25E",
"Z. c #74A052",
"A. c #82BA28",
"S. c #83AE3E",
"D. c #8DBC3A",
"F. c #C7803C",
"G. c #85C416",
"H. c #87C41B",
"J. c #8BC424",
"K. c #8FC32E",
"L. c #95C636",
"P. c #99C63D",
"I. c #81824C",
"U. c #86854B",
"Y. c #9B8043",
"T. c #968044",
"R. c #839953",
"E. c #85B04E",
"W. c #96BC4D",
"Q. c #8AAA58",
"!. c #8AB059",
"~. c #9DBC5C",
"^. c #97B25D",
"/. c #89AC61",
"(. c #8FB161",
"). c #91B463",
"_. c #98B761",
"`. c #A1BF63",
"'. c #9DC44B",
"]. c #A1C74C",
"[. c #A2C94B",
"{. c #A9CB55",
"}. c #A6C55B",
"|. c #ACCA5E",
" X c #A8C75C",
".X c #A6C364",
"XX c #ADCA61",
"oX c #ABC663",
"OX c None",
/* pixels */
"OXOXOXOXOXOXOXOXOXOXOXOXOXOXOXOX. X X . . o $ 1 5 6 6 6 1 X         $ 7 H #.2.( ` { { } } [ ] >.I.h.d.e.t.u.J.L.'.{. X'.L.J.H.H.",
"OXOXOXOXOXOXOXOXOXOXOXOXOXOXOXOXo X o . . X o : 5 6 p 6 2 X X     X & 7 H U 2.5.( [ [ } } [ ] >.I.h.d.e.t.A.J.L.'.{. X'.L.J.H.G.",
"OXOXOXOXOXOXOXOXOXOXOXOXOXOXOXOXX o o X X . $ * 5 6 z 3 2   X   X   2 7 J #.2.5.` [ [ } } [ ] >.U.h.d.s.i.A.K.P.]. X XW.D.u.u.9.",
"OXOXOXOXOXOXOXOXOXOXOXOXOXOXOXOX$ o $ o o o o * 5 z n 5 1 1 X   1 1 2 7 J #.2.5.' [ [ } } [ ] >.I.h.v.f.V.D.P.[.{.oX}.W.E.y.r.r.",
"OXOXOXOXOXOXOXOXOXOXOXOXOXOXOXOX% % $ o o o o & 5 6 6 6 1 o o 1 & 5 6 e @.1.2.( ` [ } } } [ ] >.I.h.v.Z.E.W.].{.|.XX}.Q.e.w.0.0.",
"OXOXOXOXOXOXOXOXOXOXOXOXOXOXOXOX: * % $ o o o 1 5 n 6 5 1 & o o 1 6 M B @.#.2.5.` [ [ } } [ ] >.I.h.b.N.!.~. XXXXXoX~.Q.p.i u u ",
"OXOXOXOXOXOXOXOXOXOXOXOXOXOXOXOX: : : * & $ & 2 6 M q 6 1 o o 1 5 6 N X.@.#.1.4.( ' [ } [ [ ] >.I.h.b.N.!._.`..X.X`.^.R.a.i y y ",
"OXOXOXOXOXOXOXOXOXOXOXOXOXOXOXOX: : : * & * 1 6 e X.B 6 2 o o 1 6 6 N X.o.@.&.1./ ` ' [ } [ ] Y.I.h.l.m.C./.(.).).).Q.R.a.p p p ",
"OXOXOXOXOXOXOXOXOXOXOXOXOXOXOXOX: > : : , j 6 M  .@...9 2 & $ & 5 z N B B X.o.%.3.^ ` ' { [ ] >.;.z.k.M.m.N.C.C.C.B.B.R.:.Q ! ! ",
"OXOXOXOXOXOXOXOXOXOXOXOXOXOXOXOX: : , , 3 z e X.@.#.+.F 7 & o * 1 p M C B B B o.&.1.4.5.' ' ] >.I.z.j.j.k.l.n.M.n.n.c.U.>.! ] ` ",
"OXOXOXOXOXOXOXOXOXOXOXOXOXOXOXOX: : , 3 k M N o.&.1.U G 4 $ o * 5 6 M M M M B X...#.$./ ( ` ] >.U.x.z.z.S j.z.z.z.h.x.:.>.` [ [ ",
"OXOXOXOXOXOXOXOXOXOXOXOXOXOXOXOX- : , 3 z M B o.&.1.$.G 7 $ o $ 1 6 6 6 n n q M w F J U / ) 7.6.<.;.D D D D D S S D ;.,.6.( ( } ",
"OXOXOXOXOXOXOXOXOXOXOXOXOXOXOXOX% : , 3 6 M B o.#.1.#.G 7 $ o o & 1 k z v v n 6 6 4 0 H I / 4.4.<.,.-.-.-.-.-.-.-.-.=.<.4.5.5.( ",
"OXOXOXOXOXOXOXOXOXOXOXOXOXOXOXOX: : , , 6 M B o.&.&.#.G 4 % o o & * , 3 6 M q 6 1 * > 8 J $.2.2.2.*.*.*.*.1.1.*.*.1.1.1.3.2.2.2.",
"OXOXOXOXOXOXOXOXOXOXOXOXOXOXOXOX: : : 3 5 z M X.@.#.+.J 0 > % % & : , 6 v M M 6 2 : > 0 F +.#.$.$.#.$.#.#.#.#.#.&.&.&.$.1.1.1.$.",
"OXOXOXOXOXOXOXOXOXOXOXOXOXOXOXOXOX: , 3 6 6 q N X.@.o...9 0 4 , > : , 4 w X. .e q 7 0 0 9 G ............| | | ....@.@.@.@.#.@.@.",
"OXOXOXOXOXOXOXOXOXOXOXOXOXOXOXOXOXOXOX, 3 3 6 q N X.X.J J K F 0 < < < < | o.@.@.J J F F w w 0 0 0 0 0 0 7 < 0 0 9 |  .X.O.O.O.o.",
"OXOXOXOXOXOXOXOXOXOXOXOXOXOXOXOXOXOXOXOX: , 3 3 q M B o.@.@.+.| < < < b O.@.$.$.1.#.P J w 4 < 4 < < < , * & * > k c M C N N B N ",
"OXOXOXOXOXOXOXOXOXOXOXOXOXOXOXOXOXOXOXOX: : , 3 6 M N X.@.&.@. .w < < < ..#.$.2.1.$.+.o.w 0 4 4 < < < < * 2 * 5 j l n c n n q M ",
"OXOXOXOXOXOXOXOXOXOXOXOXOXOXOXOXOXOXOXOX- : : 3 5 n M X.o.o.o.| < < < b +.$.2.2.1.#.@.o.J H r H H F F w 9 8 8 6 k z x l l z 6 5 ",
"OXOXOXOXOXOXOXOXOXOXOXOXOXOXOXOXOXOXOXOX: - , , 6 n M B V  .N v 0 , < b +.$.2.$.@.O.O.o.I R R R ~ R R R R I L K C z l j 5 j 3 3 ",
"OXOXOXOXOXOXOXOXOXOXOXOXOXOXOXOXOXOXOXOX: : , 3 6 z M M C C v k , , < b P #.#.@.O.V B o.E 6.` [ [ ` ` ` ` ` ) R X.C z j 3 : : , ",
"OXOXOXOXOXOXOXOXOXOXOXOXOXOXOXOXOXOXOXOX: : , 3 z N B C C n l l j , < 0  .+.+. .B M N o.3.7.' F.} { { { } F.[ ) %.X.M 6 j , , : ",
"OXOXOXOXOXOXOXOXOXOXOXOXOXOXOXOXOXOXOXOX- : , 0 b X.X.B N M n l j j < 0 w F H N n n V o.3.5.{ ' [ [ { { F.F.[ ] _ %.X.N v 3 j 1 ",
"OXOXOXOXOXOXOXOXOXOXOXOXOXOXOXOXOXOXOXOX- : < v | +.@.o.X.M n n z k 6 6 7 4 4 4 z n N o.*.^ 8.8.8.8.8.8.[ F.F.8.` ) E Y e n j g ",
"OXOXOXOXOXOXOXOXOXOXOXOXOXOXOXOXOXOXOXOX- > < 0 | #.#.@.X.N M M M b 6 5 , * * 1 5 n N X.&.1.2.2.2.4.5.8.8.F.F.{ [ ' ) E X.M l x ",
"OXOXOXOXOXOXOXOXOXOXOXOXOXOXOXOXOXOXOXOX% : < 0 | +.@...X.M M M M N M 6 1 = $ 1 5 k N  .o.#.1.$.$.&.1.4.7.[ F.F.F.{ 7.*.o.C n x ",
"OXOXOXOXOXOXOXOXOXOXOXOXOXOXOXOXOXOXOXOX: : , < w F | b q q 6 N N  . .v 5 & & 1 3 3 v b  .o.@.o.@.@.@.*.4.7.8.' [ 8.7.*.o.M m x ",
"OXOXOXOXOXOXOXOXOXOXOXOXOXOXOXOXOXOXOXOX: , , , < 4 4 4 4 4 6 w O.o.o. .6 5 1 1 , k 4 v b V  .V V O.O.@.1.4.5.8.8.5.4.&.X.C m x ",
"OXOXOXOXOXOXOXOXOXOXOXOXOXOXOXOXOXOXOXOX: : : - % % & ; * : 4 w ..@.#.o.B z j g s , , k l v C n m C V O.&.1.2.4.5.2.1.@.B C c x ",
"OXOXOXOXOXOXOXOXOXOXOXOXOXOXOXOXOXOXOXOX: : : - o o o o $ : < w +.1.1.&.o.V n l j , , g j l c c c c C  .o.#.1.1.1.$.#.o.N n x l ",
"OXOXOXOXOXOXOXOXOXOXOXOXOXOXOXOXOXOXOXOXOX: - = o O O + + : < w U 2.4.2.&.O.b v < , : , j x x c c c v V O.@.@.@.#.@.o. .v z l g ",
"OXOXOXOXOXOXOXOXOXOXOXOXOXOXOXOXOXOXOXOXOXOXOX1 @ @ a + = % 4 F ~ ( ` 5.1.&.O.b 0 , : , j c x c m m M N X.X.X.X.o.X.B M 6 6 , s ",
"OXOXOXOXOXOXOXOXOXOXOXOXOXOXOXOXOXOXOXOXOXOXOXOXa a a s = * 4 H R ( [ ' 5.1.#...0 < , s j k c m M M M C M N B N B N N q 6 2 , < ",
"OXOXOXOXOXOXOXOXOXOXOXOXOXOXOXOXOXOXOXOXOXOXOXOXa d d s = : 3 F I ^ ` ` 5.4.$.J w 3 , : j l l z n n n q M v M M M M q n 3 3 , : ",
"OXOXOXOXOXOXOXOXOXOXOXOXOXOXOXOXOXOXOXOXOXOXOXOXh h f f f : < 8 K I ~ ^ ( 8.4.U  .k j g j j j j 5 1 5 5 5 5 6 z n M n 6 z 3 3 3 ",
"OXOXOXOXOXOXOXOXOXOXOXOXOXOXOXOXOXOXOXOXOXOXOXOXx x g g : : , 2 8 w L R ^ ` ` 1.o.q l 3 g g : : & 1 & * 1 3 3 6 6 M n e v 6 6 6 ",
"OXOXOXOXOXOXOXOXOXOXOXOXOXOXOXOXOXOXOXOXOXOXOXOXn n n z 3 , : , < < 8 L / ` ` ~ o.M l j g g : - & o $ $ * : 3 6 n n M M M v M M ",
"OXOXOXOXOXOXOXOXOXOXOXOXOXOXOXOXOXOXOXOXOXOXOXOX6 n 6 5 3 3 , : : , 4 H R ) ) *.O.M c j < < , > * * % * * : 3 3 6 p M M M M M M ",
"OXOXOXOXOXOXOXOXOXOXOXOXOXOXOXOXOXOXOXOXOXOXOXOX5 5 5 5 3 6 3 3 , 3 6 w L T W Y  .C c v v b w 0 4 7 4 < 2 4 3 3 6 k 6 M 6 N M N ",
"OXOXOXOXOXOXOXOXOXOXOXOXOXOXOXOXOXOXOXOXOXOXOXOX1 1 1 1 7 6 k z k 6 6 q e H H e M n c N  .......J F F w q 6 6 3 3 3 3 v v M M B ",
"OXOXOXOXOXOXOXOXOXOXOXOXOXOXOXOXOXOXOXOXOXOXOXOXo o o 1 5 6 M v M n n q 6 4 4 5 l z v V O.@.$.$.$.#.@.o. .M v 6 3 , 3 3 z v M M ",
"OXOXOXOXOXOXOXOXOXOXOXOXOXOXOXOXOXOXOXOXOXOXOXOX  o o 1 1 5 6 p M M 6 6 1 : : g j l C V o.#.1.1.2.2.1.&.o.X.N 6 6 , , 3 6 6 M M ",
"OXOXOXOXOXOXOXOXOXOXOXOXOXOXOXOXOXOXOXOXOXOXOXOXOX  o & 1 7 5 6 6 6 3 5 : - ; : j l C V O.o.&.1.4.5.7.2.&.%.X.N k k j 3 6 6 6 6 ",
"OXOXOXOXOXOXOXOXOXOXOXOXOXOXOXOXOXOXOXOXOXOXOXOXOXOXOX& & & : , 5 3 3 : $ o $ ; g l c C V  .o.*.4.8.8.8.2.&.@. .b v j j 5 j 3 3 ",
"OXOXOXOXOXOXOXOXOXOXOXOXOXOXOXOXOXOXOXOXOXOXOXOXOXOXOXOX= o & & * * : % % o o ; g l z c c C B %.^ ` [ 7.( 2.#.O.V m l j 3 : , , ",
"OXOXOXOXOXOXOXOXOXOXOXOXOXOXOXOXOXOXOXOXOXOXOXOXOXOXOXOXX o o $ % : % % $ o $ ; 1 j l l x l v X.W ) ) ` 2.$.#.O.V v j j , , : : ",
"OXOXOXOXOXOXOXOXOXOXOXOXOXOXOXOXOXOXOXOXOXOXOXOXOXOXOXOXOX  X o $ % % % $ o $ ; ; 1 g f s j 3 q H L T T +.+.| | v k j j : : : : ",
"OXOXOXOXOXOXOXOXOXOXOXOXOXOXOXOXOXOXOXOXOXOXOXOXOXOXOXOXOXOXOXOXOXOXOX% % % $ - ; ; ; ; ; & * > 7 8 9 9 w w < b < < < , , : : , ",
"OXOXOXOXOXOXOXOXOXOXOXOXOXOXOXOXOXOXOXOXOXOXOXOXOXOXOXOXOXOXOXOXOXOXOXOX- - ; $ $ & o o o o $ $ & & * 1 < < < < , , : : s : , - ",
"OXOXOXOXOXOXOXOXOXOXOXOXOXOXOXOXOXOXOXOXOXOXOXOXOXOXOXOXOXOXOXOXOXOXOXOX: : * % o o X X X X o . o o o $ - - - , : - : - - - - - ",
"OXOXOXOXOXOXOXOXOXOXOXOXOXOXOXOXOXOXOXOXOXOXOXOXOXOXOXOXOXOXOXOXOXOXOXOXOX, : % $ X X X X X o o X o o $ - - - - : , , - - - - - ",
"OXOXOXOXOXOXOXOXOXOXOXOXOXOXOXOXOXOXOXOXOXOXOXOXOXOXOXOXOXOXOXOXOXOXOXOXOXOXOXOXOXOXOXOXOXOXOX% $ $ - - - - - - : : % - - $ o o ",
"OXOXOXOXOXOXOXOXOXOXOXOXOXOXOXOXOXOXOXOXOXOXOXOXOXOXOXOXOXOXOXOXOXOXOXOXOXOXOXOXOXOXOXOXOXOXOXOX% % - - - : , - : : % - $ o o o ",
"OXOXOXOXOXOXOXOXOXOXOXOXOXOXOXOXOXOXOXOXOXOXOXOXOXOXOXOXOXOXOXOXOXOXOXOXOXOXOXOXOXOXOXOXOXOXOXOX* : > : > , - , : : % - o o . o ",
"OXOXOXOXOXOXOXOXOXOXOXOXOXOXOXOXOXOXOXOXOXOXOXOXOXOXOXOXOXOXOXOXOXOXOXOXOXOXOXOXOXOXOXOXOXOXOXOXOX> : : , - , - : : % - $ o . . ",
"OXOXOXOXOXOXOXOXOXOXOXOXOXOXOXOXOXOXOXOXOXOXOXOXOXOXOXOXOXOXOXOXOXOXOXOXOXOXOXOXOXOXOXOXOXOXOXOXOXOXOXOXOXOXOXOXOXOXOXOXOXOXOXOX",
"OXOXOXOXOXOXOXOXOXOXOXOXOXOXOXOXOXOXOXOXOXOXOXOXOXOXOXOXOXOXOXOXOXOXOXOXOXOXOXOXOXOXOXOXOXOXOXOXOXOXOXOXOXOXOXOXOXOXOXOXOXOXOXOX",
"OXOXOXOXOXOXOXOXOXOXOXOXOXOXOXOXOXOXOXOXOXOXOXOXOXOXOXOXOXOXOXOXOXOXOXOXOXOXOXOXOXOXOXOXOXOXOXOXOXOXOXOXOXOXOXOXOXOXOXOXOXOXOXOX",
"OXOXOXOXOXOXOXOXOXOXOXOXOXOXOXOXOXOXOXOXOXOXOXOXOXOXOXOXOXOXOXOXOXOXOXOXOXOXOXOXOXOXOXOXOXOXOXOXOXOXOXOXOXOXOXOXOXOXOXOXOXOXOXOX",
"OXOXOXOXOXOXOXOXOXOXOXOXOXOXOXOXOXOXOXOXOXOXOXOXOXOXOXOXOXOXOXOXOXOXOXOXOXOXOXOXOXOXOXOXOXOXOXOXOXOXOXOXOXOXOXOXOXOXOXOXOXOXOXOX",
"OXOXOXOXOXOXOXOXOXOXOXOXOXOXOXOXOXOXOXOXOXOXOXOXOXOXOXOXOXOXOXOXOXOXOXOXOXOXOXOXOXOXOXOXOXOXOXOXOXOXOXOXOXOXOXOXOXOXOXOXOXOXOXOX",
"OXOXOXOXOXOXOXOXOXOXOXOXOXOXOXOXOXOXOXOXOXOXOXOXOXOXOXOXOXOXOXOXOXOXOXOXOXOXOXOXOXOXOXOXOXOXOXOXOXOXOXOXOXOXOXOXOXOXOXOXOXOXOXOX",
"OXOXOXOXOXOXOXOXOXOXOXOXOXOXOXOXOXOXOXOXOXOXOXOXOXOXOXOXOXOXOXOXOXOXOXOXOXOXOXOXOXOXOXOXOXOXOXOXOXOXOXOXOXOXOXOXOXOXOXOXOXOXOXOX"
};
