/* XPM */
static char *cliff_03[] = {
/* columns rows colors chars-per-pixel */
"64 64 154 2 ",
"   c #472F30",
".  c #473030",
"X  c #4B3232",
"o  c #533535",
"O  c #593737",
"+  c #543936",
"@  c #593936",
"#  c #553C39",
"$  c #5C3B39",
"%  c #623E3A",
"&  c #5D413C",
"*  c #64433C",
"=  c #6A443B",
"-  c #66493E",
";  c #6A4A3F",
":  c #73463D",
">  c #75493D",
",  c #7C4C3E",
"<  c #74503E",
"1  c #634641",
"2  c #654843",
"3  c #6D4C41",
"4  c #734D40",
"5  c #7B4F40",
"6  c #6E5042",
"7  c #745142",
"8  c #7B5443",
"9  c #7D5844",
"0  c #7E7F4E",
"q  c #824F3E",
"w  c #84523D",
"e  c #8B553C",
"r  c #885B3D",
"t  c #955A3B",
"y  c #8E613F",
"u  c #9E6539",
"i  c #A1623B",
"p  c #A8673D",
"a  c #A36C3C",
"s  c #AF6B3C",
"d  c #B36F3E",
"f  c #AB703D",
"g  c #B4733C",
"h  c #B9743D",
"j  c #B37C3D",
"k  c #BD7B39",
"l  c #C17B38",
"z  c #835542",
"x  c #8A5241",
"c  c #855944",
"v  c #8D5B44",
"b  c #915740",
"n  c #935B43",
"m  c #9C5E44",
"M  c #946440",
"N  c #9B6242",
"B  c #977F46",
"V  c #9B7E45",
"C  c #A36344",
"Z  c #AB6643",
"A  c #A66941",
"S  c #AD6A42",
"D  c #B36D41",
"F  c #A57D42",
"G  c #AA7F41",
"H  c #6B9B3F",
"J  c #769D3D",
"K  c #77AC2F",
"L  c #7DAD2F",
"P  c #7CBE22",
"I  c #7DB42A",
"U  c #7FA632",
"Y  c #76AC32",
"T  c #79AD37",
"R  c #77AA38",
"E  c #71B031",
"W  c #5C8359",
"Q  c #5C8555",
"!  c #628D4D",
"~  c #7B834F",
"^  c #718E4B",
"/  c #6C9E42",
"(  c #65904F",
")  c #759B42",
"_  c #6B8653",
"`  c #618956",
"'  c #698E5B",
"]  c #659055",
"[  c #6C9453",
"{  c #6B9158",
"}  c #7C9E5D",
"|  c #65A042",
" . c #6EA04C",
".. c #73A044",
"X. c #78A842",
"o. c #79A44D",
"O. c #7DB143",
"+. c #72A054",
"@. c #7AA157",
"#. c #77A059",
"$. c #7C9E60",
"%. c #86BC1E",
"&. c #8CBC1D",
"*. c #97883D",
"=. c #9F883C",
"-. c #839B37",
";. c #8A923D",
":. c #919B33",
">. c #A7932F",
",. c #A9962B",
"<. c #A48E35",
"1. c #AB8638",
"2. c #A28A3B",
"3. c #B68436",
"4. c #B48039",
"5. c #A39530",
"6. c #8EAC27",
"7. c #85AD2A",
"8. c #95A927",
"9. c #9AA922",
"0. c #96A42A",
"q. c #88B226",
"w. c #81BA22",
"e. c #8CB820",
"r. c #85BB2C",
"t. c #80A732",
"y. c #8BBF3A",
"u. c #86CA15",
"i. c #88C914",
"p. c #86C419",
"a. c #8CC424",
"s. c #95CA35",
"d. c #838945",
"f. c #888A46",
"g. c #81814D",
"h. c #8A824A",
"j. c #9B8243",
"k. c #A28341",
"l. c #83A956",
"z. c #8BAE5D",
"x. c #85B250",
"c. c #8BB15A",
"v. c #9CBE5A",
"b. c #90AF62",
"n. c #92B064",
"m. c #99B860",
"M. c #A1BE62",
"N. c #95C04C",
"B. c #9EC94A",
"V. c #A3CD49",
"C. c #A6C65B",
"Z. c #AACA5B",
"A. c #A5C164",
"S. c None",
/* pixels */
"S.S.S.S.S.S.S.S.S.S.S.S.S.S.S.S.S.S.S.S.S.S.S.S.S.S.S.S.S.S.S.S.S.S.S.S.S.S.S.S.S.S.S.S.S.S.S.S.S.S.S.S.S.S.S.S.S.S.S.S.S.S.S.S.",
"S.S.S.S.S.S.S.S.S.S.S.S.S.S.S.S.S.S.S.S.S.S.S.S.S.S.S.S.S.S.S.S.S.S.S.S.S.S.S.S.S.S.S.S.S.S.S.S.S.S.S.S.S.S.S.S.S.S.S.S.S.S.S.S.",
"S.S.S.S.S.S.S.S.S.S.S.S.S.S.S.S.S.S.S.S.S.S.S.S.S.S.S.S.S.S.S.S.S.S.S.S.S.S.S.S.S.S.S.S.S.S.S.S.S.S.S.S.S.S.S.S.S.S.S.S.S.S.S.S.",
"S.S.S.S.S.S.S.S.S.S.S.S.S.S.S.S.S.S.S.S.S.S.S.S.S.S.S.S.S.S.S.S.S.S.S.S.S.S.S.S.S.S.S.S.S.S.S.S.S.S.S.S.S.S.S.S.S.S.S.S.S.S.S.S.",
"S.S.S.S.S.S.S.S.S.S.S.S.S.S.S.S.S.S.S.S.S.S.S.S.S.S.S.S.S.S.S.S.S.S.S.S.S.S.S.S.S.S.S.S.S.S.S.S.S.S.S.S.S.S.S.S.S.S.S.S.S.S.S.S.",
"S.S.S.S.S.S.S.S.S.S.S.S.S.S.S.S.S.S.S.S.S.S.S.S.S.S.S.S.S.S.S.S.S.S.S.S.S.S.S.S.S.S.S.S.S.S.S.S.S.S.S.S.S.S.S.S.S.S.S.S.S.S.S.S.",
"S.S.S.S.S.S.S.S.S.S.S.S.S.S.S.S.S.S.S.S.S.S.S.S.S.S.S.S.S.S.S.S.S.S.S.S.S.S.S.S.S.S.S.S.S.S.S.S.S.S.S.S.S.S.S.S.S.S.S.S.S.S.S.S.",
"S.S.S.S.S.S.S.S.S.S.S.S.S.S.S.S.S.S.S.S.S.S.S.S.S.S.S.S.S.S.S.S.S.S.S.S.S.S.S.S.S.S.S.S.S.S.S.S.S.S.S.S.S.S.S.S.S.S.S.S.S.S.S.S.",
"S.S.S.S.S.S.S.S.S.S.S.S.S.S.S.S.S.S.S.S.S.S.S.S.S.S.S.S.S.S.S.S.S.S.S.S.S.S.S.S.S.S.S.S.S.S.S.S.S.S.S.S.S.S.S.S.S.S.S.S.S.S.S.S.",
"S.S.S.S.S.S.S.S.S.S.S.S.S.S.S.S.S.S.S.S.S.S.S.S.S.S.S.S.S.S.S.S.S.S.S.S.S.S.S.S.S.S.S.S.S.S.S.S.S.S.S.S.S.S.S.S.S.S.S.S.S.S.S.S.",
"S.S.S.S.S.S.S.S.S.S.S.S.S.S.S.S.S.S.S.S.S.S.S.S.S.S.S.S.S.S.S.S.S.S.S.S.S.S.S.S.S.S.S.S.S.S.S.S.S.S.S.S.S.S.S.S.S.S.S.S.S.S.S.S.",
"S.S.S.S.S.S.S.S.S.S.S.S.S.S.S.S.S.S.S.S.S.S.S.S.S.S.S.S.S.S.S.S.S.S.S.S.S.S.S.S.S.S.S.S.S.S.S.S.S.S.S.S.S.S.S.S.S.S.S.S.S.S.S.S.",
"S.S.S.S.S.S.S.S.S.S.S.S.S.S.S.S.S.S.S.S.S.S.S.S.S.S.S.S.S.S.S.S.S.S.S.S.S.S.S.S.S.S.S.S.S.S.S.S.S.S.S.S.S.S.S.S.S.S.S.S.S.S.S.S.",
"S.S.S.S.S.S.S.S.S.S.S.S.S.S.S.S.S.S.S.S.S.S.S.S.S.S.S.S.S.S.S.S.S.S.S.S.S.S.S.S.S.S.S.S.S.S.S.S.S.S.S.S.S.S.S.S.S.S.S.S.S.S.S.S.",
"S.S.S.S.S.S.S.S.S.S.S.S.S.S.S.S.S.S.S.S.S.S.S.S.S.S.S.S.S.S.S.S.S.S.S.S.S.S.S.S.S.S.S.S.S.S.S.S.S.S.S.S.S.S.S.S.S.S.S.S.S.S.S.S.",
"S.S.S.S.S.S.S.S.S.S.S.S.S.S.S.S.S.S.S.S.S.S.S.S.S.S.S.S.S.S.S.S.S.S.S.S.S.S.S.S.S.S.S.S.S.S.S.S.S.S.S.S.S.S.S.S.S.S.S.S.S.S.S.S.",
"S.S.S.S.S.S.S.S.S.S.S.S.S.S.S.S.S.S.S.S.S.S.S.S.S.S.S.S.S.S.S.S.S.S.S.S.S.S.S.S.S.S.S.S.S.S.S.S.S.S.S.S.S.S.S.S.S.S.S.S.S.S.S.S.",
"S.S.S.S.S.S.S.S.S.S.S.S.S.S.S.S.S.S.S.S.S.S.S.S.S.S.S.S.S.S.S.S.S.S.S.S.S.S.S.S.S.S.S.S.S.S.S.S.S.S.S.S.S.S.S.S.S.S.S.S.S.S.S.S.",
"S.S.S.S.S.S.S.S.S.S.S.S.S.S.S.S.S.S.S.S.S.S.S.S.S.S.S.S.S.S.S.S.S.S.S.S.S.S.S.S.S.S.S.S.S.S.S.S.S.S.S.S.S.S.S.S.S.S.S.S.S.S.S.S.",
"S.S.S.S.S.S.S.S.S.S.S.S.S.S.S.S.S.S.S.S.S.S.S.S.S.S.S.S.S.S.S.S.S.S.S.S.S.S.S.S.S.S.S.S.S.S.S.S.S.S.S.S.S.S.S.S.S.S.S.S.S.S.S.S.",
"S.S.S.S.S.S.S.S.S.S.S.S.S.S.S.S.S.S.S.S.S.S.S.S.S.S.S.S.S.S.S.S.S.S.S.S.S.S.S.S.S.S.S.S.S.S.S.S.S.S.S.S.S.S.S.S.S.S.S.S.S.S.S.S.",
"S.S.S.S.S.S.S.S.S.S.S.S.S.S.S.S.S.S.S.S.S.S.S.S.S.S.S.S.S.S.S.S.S.S.S.S.S.S.S.S.S.S.S.S.S.S.S.S.S.S.S.S.S.S.S.S.S.S.S.S.S.S.S.S.",
"S.S.S.S.S.S.S.S.S.S.S.S.S.S.S.S.S.S.S.S.S.S.S.S.S.S.S.S.S.S.S.S.S.S.S.S.S.S.S.S.S.S.S.S.S.S.S.S.S.S.S.S.S.S.S.S.S.S.S.S.S.S.S.S.",
"S.S.S.S.S.S.S.S.S.S.S.S.S.S.S.S.S.S.S.S.S.S.S.S.S.S.S.S.S.S.S.S.S.S.S.S.S.S.S.S.S.S.S.S.S.S.S.S.S.S.S.S.S.S.S.S.S.S.S.S.S.S.S.S.",
"S.S.S.S.S.S.S.S.S.S.S.S.S.S.S.S.S.S.S.S.S.S.S.S.S.S.S.S.S.S.S.S.S.S.S.S.S.S.S.S.S.S.S.S.S.S.S.S.S.S.S.S.S.S.S.S.S.S.S.S.S.S.S.S.",
"S.S.S.S.S.S.S.S.S.S.S.S.S.S.S.S.S.S.S.S.S.S.S.S.S.S.S.S.S.S.S.S.S.S.S.S.S.S.S.S.S.S.S.S.S.S.S.S.S.S.S.S.S.S.S.S.S.S.S.S.S.S.S.S.",
"S.S.S.S.S.S.S.S.S.S.S.S.S.S.S.S.S.S.S.S.S.S.S.S.S.S.S.S.S.S.S.S.S.S.S.S.S.S.S.S.S.S.S.S.S.S.S.S.S.S.S.S.S.S.S.S.S.S.S.S.S.S.S.S.",
"S.S.S.S.S.S.S.S.S.S.S.S.S.S.S.S.S.S.S.S.S.S.S.S.S.S.S.S.S.S.S.S.S.S.S.S.S.S.S.S.S.S.S.S.S.S.S.S.S.S.S.S.S.S.S.S.S.S.S.S.S.S.S.S.",
"S.S.S.S.S.S.S.S.S.S.S.S.S.S.S.S.S.S.S.S.S.S.S.S.S.S.S.S.S.S.S.S.S.S.S.S.S.S.S.S.S.S.S.S.S.S.S.S.S.S.S.S.S.S.S.S.S.S.S.S.S.S.S.S.",
"S.S.S.S.S.S.S.S.S.S.S.S.S.S.S.S.S.S.S.S.S.S.S.S.S.S.S.S.S.S.S.S.S.S.S.S.S.S.S.S.S.S.S.S.S.S.S.S.S.S.S.S.S.S.S.S.S.S.S.S.S.S.S.S.",
"S.S.S.S.S.S.S.S.S.S.S.S.S.S.S.S.S.S.S.S.S.S.S.S.S.S.S.S.S.S.S.S.S.S.S.S.S.S.S.S.S.S.S.S.S.S.S.S.S.S.S.S.S.S.S.S.S.S.S.S.S.S.S.S.",
"S.S.S.S.S.S.S.S.S.S.S.S.S.S.S.S.S.S.S.S.S.S.S.S.S.S.S.S.S.S.S.S.S.S.S.S.S.S.S.S.S.S.S.S.S.S.S.S.S.S.S.S.S.S.S.S.S.S.S.S.S.S.S.S.",
"S.S.S.S.S.S.S.S.S.S.S.S.S.S.S.S.S.S.S.S.S.S.S.S.S.S.S.S.S.S.S.S.S.S.S.S.S.S.S.S.S.S.S.S.S.S.S.S.S.S.S.S.S.S.S.S.S.S.S.S.S.S.S.S.",
"S.S.S.S.S.S.S.S.S.S.S.S.S.S.S.S.S.S.S.S.S.S.S.S.S.S.S.S.S.S.S.S.S.S.S.S.S.S.S.S.S.S.S.S.S.S.S.S.S.S.S.S.S.S.S.S.S.S.S.S.S.S.S.S.",
"S.S.S.S.S.S.S.S.S.S.S.S.S.S.S.S.S.S.S.S.S.S.S.S.S.S.S.S.S.S.S.S.S.S.S.S.S.S.S.S.S.S.S.S.S.S.S.S.S.S.S.S.S.S.S.S.S.S.S.S.S.S.S.S.",
"S.S.S.S.S.S.S.S.S.S.S.S.S.S.S.S.S.S.S.S.S.S.S.S.S.S.S.S.S.S.S.S.S.S.S.S.S.S.S.S.S.S.S.S.S.S.S.S.S.S.S.S.S.S.S.S.S.S.S.S.S.S.S.S.",
"$ $ $ O O $ $ O $ $ $ $ $ $ @ o X X       X . S.S.S.S.S.S.S.S.S.S.S.S.S.S.S.S.S.S.S.S.S.S.S.S.S.S.S.S.S.S.S.S.S.S.S.S.S.S.S.S.S.",
"% $ $ $ $ $ $ $ $ $ % $ $ $ $ O o X X X   X X . S.S.S.S.S.S.S.S.S.S.S.S.S.S.S.S.S.S.S.S.S.S.S.S.S.S.S.S.S.S.S.S.S.S.S.S.S.S.S.S.",
"$ % % % % % $ % % $ $ $ $ $ $ $ + + X X X X X X S.S.S.S.S.S.S.S.S.S.S.S.S.S.S.S.S.S.S.S.S.S.S.S.S.S.S.S.S.S.S.S.S.S.S.S.S.S.S.S.",
"1 * * % 1 = % % $ $ $ % * * * & & # + + X X       S.S.S.S.S.S.S.S.S.S.S.S.S.S.S.S.S.S.S.S.S.S.S.S.S.S.S.S.S.S.S.S.S.S.S.S.S.S.S.",
"2 ; 3 2 ; 3 ; * % $ $ % * 2 2 ; - * & & + .     . . X o o @ $ S.S.S.S.S.S.S.S.S.S.S.S.S.S.S.S.S.S.S.S.S.S.S.S.S.S.S.S.S.S.S.S.S.",
"4 4 7 7 7 6 3 ; * % % * = 3 6 7 6 < ; * + + .   . . X o @ @ $ $ S.S.S.S.S.S.S.S.S.S.S.S.S.S.S.S.S.S.S.S.S.S.S.S.S.S.S.S.S.S.S.S.",
"9 9 9 7 7 7 3 ; * * * = 4 7 9 9 9 9 7 ; & + + . . X X o O O @ @ S.S.S.S.S.S.S.S.S.S.S.S.S.S.S.S.S.S.S.S.S.S.S.S.S.S.S.S.S.S.S.S.",
"v c z 8 7 3 3 * * * * 3 8 z c v v c 9 < - & & + o o o o o o o O O S.S.S.S.S.S.S.S.S.S.S.S.S.S.S.S.S.S.S.S.S.S.S.S.S.S.S.S.S.S.S.",
"n n v x 4 = * 1 - - 3 8 c v n m N n v c < - - & @ o o o o X o o O O $ S.S.S.S.S.S.S.S.S.S.S.S.S.S.S.S.S.S.S.S.S.S.S.S.S.S.S.S.S.",
"C C m x > = % * - < 7 c v m C C C C N v w < ; - % % @ o o o X o O O $ $ S.S.S.S.S.S.S.S.S.S.S.S.S.S.S.S.S.S.S.S.S.S.S.S.S.S.S.S.",
"S Z i b w > ; : 7 9 c v N C Z Z Z Z C N v c < < = % % @ o o O @ O $ $ $ S.S.S.S.S.S.S.S.S.S.S.S.S.S.S.S.S.S.S.S.S.S.S.S.S.S.S.S.",
"D D p u t e w w c M M N Z S D D D D S A M v w < % % % % % = = = * * * & # S.S.S.S.S.S.S.S.S.S.S.S.S.S.S.S.S.S.S.S.S.S.S.S.S.S.S.",
"D h D h a i u u a a f f g g g k h D g S A N v 5 4 % % % > q q 5 7 2 1 & # X . S.S.S.S.S.S.S.S.S.S.S.S.S.S.S.S.S.S.S.S.S.S.S.S.S.",
"l D h h g g g f g g g g g k g k k k h D S C m z % % % q q b n x 9 2 2 & # o X . S.S.S.S.S.S.S.S.S.S.S.S.S.S.S.S.S.S.S.S.S.S.S.S.",
"3.3.3.3.4.j j j k k k k l k k k k k h g D S m x x % % q x n m v 9 3 2 & # # X X S.S.S.S.S.S.S.S.S.S.S.S.S.S.S.S.S.S.S.S.S.S.S.S.",
",.,.>.<.2.k.F 1.j k 3.l l k k l l k k h D S m x % % % % z v n z 7 2 & # # # # # o S.S.S.S.S.S.S.S.S.S.S.S.S.S.S.S.S.S.S.S.S.S.S.",
"9.9.0.:.;.f.h.j.G k l l l k k l l k k h D Z m x x % % : 5 z c 8 2 & # # # & & & # X X S.S.S.S.S.S.S.S.S.S.S.S.S.S.S.S.S.S.S.S.S.",
"&.&.q.t.J ^ ~ h.V j k l l k l 3.l k k h D Z m x , % % = 4 4 < ; & O # # & 1 2 & # X X . S.S.S.S.S.S.S.S.S.S.S.S.S.S.S.S.S.S.S.S.",
"a.a.r.Y ) ( _ g.V j k l l k l l l k l h D Z C e x % % : 2 4 3 * % O O & 1 2 2 & # X X . S.S.S.S.S.S.S.S.S.S.S.S.S.S.S.S.S.S.S.S.",
"s.s.y.x. .] _ 0 V j l l l l l l l l h h h D p m e , x % 1 = * * = : % 1 2 2 1 & # X . . S.S.S.S.S.S.S.S.S.S.S.S.S.S.S.S.S.S.S.S.",
"B.B.v.x.+.` _ 0 B D l l l l l l l k k k k g d A m t q : = & % = : , q , 4 1 % # o X . . S.S.S.S.S.S.S.S.S.S.S.S.S.S.S.S.S.S.S.S.",
"Z.C.v.z.@.{ _ ~ j.4.l l l l l h k k k k k k k d Z C t q = @ @ = , t b x > * $ O o X X   S.S.S.S.S.S.S.S.S.S.S.S.S.S.S.S.S.S.S.S.",
"C.v.v.z.@.[ ^ d.*.4.3.3.4.j j j j k k l k k h h d Z i q = @ @ % w t n x , % $ o X X . X S.S.S.S.S.S.S.S.S.S.S.S.S.S.S.S.S.S.S.S.",
"b.b.z.l.o.X.J -.:.:.5.<.=.j.F G j k k l k k k h D Z t e = @ @ = , v n z > % O o o X X . S.S.S.S.S.S.S.S.S.S.S.S.S.S.S.S.S.S.S.S.",
"$.} @.o.X.R L 7.6.8.0.:.;.d.h.B G j k l l l h h D Z m x : % $ * 4 z z 5 : % $ o X X . . S.S.S.S.S.S.S.S.S.S.S.S.S.S.S.S.S.S.S.S.",
"' { [ ) R I w.&.%.e.q.U ) ^ _ B V j k l l l h h D Z m x , % % % 3 7 7 4 1 % $ o o X X . S.S.S.S.S.S.S.S.S.S.S.S.S.S.S.S.S.S.S.S.",
"Q ` ] / Y P p.p.p.p.P Y / ] _ B j.j k l l l l h D Z m b > % $ * 3 7 7 3 % % O O o X . X S.S.S.S.S.S.S.S.S.S.S.S.S.S.S.S.S.S.S.S.",
"W Q ! H K w.p.u.u.p.P E | ! Q ~ V j k l l k h h D Z m x > % * * ; 3 3 3 = % O o X X X X S.S.S.S.S.S.S.S.S.S.S.S.S.S.S.S.S.S.S.S."
};
