/* XPM */
static char *cliff_01[] = {
/* columns rows colors chars-per-pixel */
"64 64 168 2 ",
"   c #462F30",
".  c #473031",
"X  c #4B3232",
"o  c #533635",
"O  c #593737",
"+  c #553936",
"@  c #5A3A36",
"#  c #573A39",
"$  c #5C3B39",
"%  c #643F37",
"&  c #623E3A",
"*  c #5D413A",
"=  c #64433C",
"-  c #6A443B",
";  c #66483D",
":  c #6A4A3E",
">  c #74473C",
",  c #754A3D",
"<  c #7C4D3D",
"1  c #4D6B3F",
"2  c #52643A",
"3  c #6D6839",
"4  c #6A6437",
"5  c #71713E",
"6  c #6D4C40",
"7  c #724D40",
"8  c #794F40",
"9  c #735141",
"0  c #7B5442",
"q  c #7D5844",
"w  c #527041",
"e  c #5F7241",
"r  c #5E7C46",
"t  c #824F3D",
"y  c #84513E",
"u  c #8B553D",
"i  c #895A3E",
"p  c #945A3E",
"a  c #8F6C37",
"s  c #8E6F39",
"d  c #9E633B",
"f  c #8B763E",
"g  c #A2643C",
"h  c #A8673D",
"j  c #AC6B3E",
"k  c #A46A3D",
"l  c #B26E3E",
"z  c #AE763C",
"x  c #AA7D3F",
"c  c #A47B3D",
"v  c #B17637",
"b  c #B4733B",
"n  c #BA743D",
"m  c #B27C3C",
"M  c #BD7A3A",
"N  c #C17B38",
"B  c #835542",
"V  c #8A5240",
"C  c #865943",
"Z  c #8D5B43",
"A  c #915740",
"S  c #945B43",
"D  c #9C5E43",
"F  c #966340",
"G  c #9D6143",
"H  c #957D47",
"J  c #9B7E44",
"K  c #A36244",
"L  c #AB6544",
"P  c #AD6A42",
"I  c #B36C41",
"U  c #AC7441",
"Y  c #A27B43",
"T  c #699E3F",
"R  c #73AC2E",
"E  c #7EBA20",
"W  c #6FA33E",
"Q  c #7FA733",
"!  c #7CAF35",
"~  c #72A23F",
"^  c #77AC3C",
"/  c #79AE38",
"(  c #79B032",
")  c #63844A",
"_  c #6F8F4F",
"`  c #70854B",
"'  c #7A834D",
"]  c #728E4C",
"[  c #679B40",
"{  c #66904E",
"}  c #6A9748",
"|  c #6D9E45",
" . c #769940",
".. c #789840",
"X. c #6B8653",
"o. c #638D50",
"O. c #748D54",
"+. c #639254",
"@. c #6A9056",
"#. c #7B9957",
"$. c #769F59",
"%. c #6CA14D",
"&. c #7CB243",
"*. c #70A154",
"=. c #8EBA1E",
"-. c #8A913E",
";. c #919B33",
":. c #AA952E",
">. c #AC982A",
",. c #A58E35",
"<. c #A1883B",
"1. c #B68435",
"2. c #B48138",
"3. c #9BAA22",
"4. c #97A429",
"5. c #98A429",
"6. c #89B226",
"7. c #80BA24",
"8. c #85BB2B",
"9. c #81A633",
"0. c #8DBF37",
"q. c #82B639",
"w. c #8DBD3F",
"e. c #8BC424",
"r. c #8FC32E",
"t. c #8CC136",
"y. c #8CC03B",
"u. c #94C634",
"i. c #95CA35",
"p. c #99C63C",
"a. c #96C43C",
"s. c #868447",
"d. c #868946",
"f. c #82824D",
"g. c #8A8149",
"h. c #968044",
"j. c #9E8341",
"k. c #818D50",
"l. c #829E56",
"z. c #829553",
"x. c #89A65A",
"c. c #83A256",
"v. c #93AF5E",
"b. c #8AB05A",
"n. c #84B350",
"m. c #96B15E",
"M. c #9DBB5E",
"N. c #9FBB60",
"B. c #A2BC63",
"V. c #97C345",
"C. c #9BC547",
"Z. c #9FC64A",
"A. c #9EC94A",
"S. c #96C24D",
"D. c #A1C74D",
"F. c #A1CC4A",
"G. c #A6C855",
"H. c #A7C65B",
"J. c #A8C75C",
"K. c #AAC95D",
"L. c #A1C553",
"P. c #A5C063",
"I. c #ABC664",
"U. c #AECA65",
"Y. c #AEC769",
"T. c #AEC869",
"R. c #B0CA68",
"E. c None",
/* pixels */
"E.E.E.E.E.E.E.E.E.E.E.E.E.E.E.E.E.E.E.E.E.E.E.E.E.E.E.E.E.E.E.E.E.E.E.E.E.E.E.E.E.E.E.E.E.E.E.E.E.E.E.E.E.E.E.E.E.E.E.E.E.E.E.E.",
"E.E.E.E.E.E.E.E.E.E.E.E.E.E.E.E.E.E.E.E.E.E.E.E.E.E.E.E.E.E.E.E.E.E.E.E.E.E.E.E.E.E.E.E.E.E.E.E.E.E.E.E.E.E.E.E.E.E.E.E.E.E.E.E.",
"E.E.E.E.E.E.E.E.E.E.E.E.E.E.E.E.E.E.E.E.E.E.E.E.E.E.E.E.E.E.E.E.E.E.E.E.E.E.E.E.E.E.E.E.E.E.E.E.E.E.E.E.E.E.E.E.E.E.E.E.E.E.E.E.",
"E.E.E.E.E.E.E.E.E.E.E.E.E.E.E.E.E.E.E.E.E.E.E.E.E.E.E.E.E.E.E.E.E.E.E.E.E.E.E.E.E.E.E.E.E.E.E.E.E.E.E.E.E.E.E.E.E.E.E.E.E.E.E.E.",
"E.E.E.E.E.E.E.E.E.E.E.E.E.E.E.E.E.E.E.E.E.E.E.E.E.E.E.E.E.E.E.E.E.E.E.E.E.E.E.E.E.E.E.E.E.E.E.E.E.E.E.E.E.E.E.E.E.E.E.E.E.E.E.E.",
"E.E.E.E.E.E.E.E.E.E.E.E.E.E.E.E.E.E.E.E.E.E.E.E.E.E.E.E.E.E.E.E.E.E.E.E.E.E.E.E.E.E.E.E.E.E.E.E.E.E.E.E.E.E.E.E.E.E.E.E.E.E.E.E.",
"E.E.E.E.E.E.E.E.E.E.E.E.E.E.E.E.E.E.E.E.E.E.E.E.E.E.E.E.E.E.E.E.E.E.E.E.E.E.E.E.E.E.E.E.E.E.E.E.E.E.E.E.E.E.E.E.E.E.E.E.E.E.E.E.",
"E.E.E.E.E.E.E.E.E.E.E.E.E.E.E.E.E.E.E.E.E.E.E.E.E.E.E.E.E.E.E.E.E.E.E.E.E.E.E.E.E.E.E.E.E.E.E.E.E.E.E.E.E.E.E.E.E.E.E.E.E.E.E.E.",
"E.E.E.E.E.E.E.E.E.E.E.E.E.E.E.E.E.E.E.E.E.E.E.E.E.E.E.E.E.E.E.E.E.E.E.E.E.E.E.E.E.E.E.E.E.E.E.E.E.E.E.E.E.E.E.E.E.E.E.E.E.E.E.E.",
"E.E.E.E.E.E.E.E.E.E.E.E.E.E.E.E.E.E.E.E.E.E.E.E.E.E.E.E.E.E.E.E.E.E.E.E.E.E.E.E.E.E.E.E.E.E.E.E.E.E.E.E.E.E.E.E.E.E.E.E.E.E.E.E.",
"E.E.E.E.E.E.E.E.E.E.E.E.E.E.E.E.E.E.E.E.E.E.E.E.E.E.E.E.E.E.E.E.E.E.E.E.E.E.E.E.E.E.E.E.E.E.E.E.E.E.E.E.E.E.E.E.E.E.E.E.E.E.E.E.",
"E.E.E.E.E.E.E.E.E.E.E.E.E.E.E.E.E.E.E.E.E.E.E.E.E.E.E.E.E.E.E.E.E.E.E.E.E.E.E.E.E.E.E.E.E.E.E.E.E.E.E.E.E.E.E.E.E.E.E.E.E.E.E.E.",
"E.E.E.E.E.E.E.E.E.E.E.E.E.E.E.E.E.E.E.E.E.E.E.E.E.E.E.E.E.E.E.E.E.E.E.E.E.E.E.E.E.E.E.E.E.E.E.E.E.E.E.E.E.E.E.E.E.E.E.E.E.E.E.E.",
"E.E.E.E.E.E.E.E.E.E.E.E.E.E.E.E.E.E.E.E.E.E.E.E.E.E.E.E.E.E.E.E.E.E.E.E.E.E.E.E.E.E.E.E.E.E.E.E.E.E.E.E.E.E.E.E.E.E.E.E.E.E.E.E.",
"E.E.E.E.E.E.E.E.E.E.E.E.E.E.E.E.E.E.E.E.E.E.E.E.E.E.E.E.E.E.E.E.E.E.E.E.E.E.E.E.E.E.E.E.E.E.E.E.E.E.E.E.E.E.E.E.E.E.E.E.E.E.E.E.",
"E.E.E.E.E.E.E.E.E.E.E.E.E.E.E.E.E.E.E.E.E.E.E.E.E.E.E.E.E.E.E.E.E.E.E.E.E.E.E.E.E.E.E.E.E.E.E.E.E.E.E.E.E.E.E.E.E.E.E.E.E.E.E.E.",
"E.E.E.E.E.E.E.E.E.E.E.E.E.E.E.E.E.E.E.E.E.E.E.E.E.E.E.E.E.E.E.E.E.E.E.E.E.E.E.E.E.E.E.E.E.E.E.E.E.E.E.E.E.E.E.E.E.E.E.E.E.E.E.E.",
"E.E.E.E.E.E.E.E.E.E.E.E.E.E.E.E.E.E.E.E.E.E.E.E.E.E.E.E.E.E.E.E.E.E.E.E.E.E.E.E.E.E.E.E.E.E.E.E.E.E.E.E.E.E.E.E.E.E.E.E.E.E.E.E.",
"E.E.E.E.E.E.E.E.E.E.E.E.E.E.E.E.E.E.E.E.E.E.E.E.E.E.E.E.E.E.E.E.E.E.E.E.E.E.E.E.E.E.E.E.E.E.E.E.E.E.E.E.E.E.E.E.E.E.E.E.E.E.E.E.",
"E.E.E.E.E.E.E.E.E.E.E.E.E.E.E.E.E.E.E.E.E.E.E.E.E.E.E.E.E.E.E.E.E.E.E.E.E.E.E.E.E.E.E.E.E.E.E.E.E.E.E.E.E.E.E.E.E.E.E.E.E.E.E.E.",
"E.E.E.E.E.E.E.E.E.E.E.E.E.E.E.E.E.E.E.E.E.E.E.E.E.E.E.E.E.E.E.E.E.E.E.E.E.E.E.E.E.E.E.E.E.E.E.E.E.E.E.E.E.E.E.E.E.E.E.E.E.E.E.E.",
"E.E.E.E.E.E.E.E.E.E.E.E.E.E.E.E.E.E.E.E.E.E.E.E.E.E.E.E.E.E.E.E.E.E.E.E.E.E.E.E.E.E.E.E.E.E.E.E.E.E.E.E.E.E.E.E.E.E.E.E.E.E.E.E.",
"E.E.E.E.E.E.E.E.E.E.E.E.E.E.E.E.E.E.E.E.E.E.E.E.E.E.E.E.E.E.E.E.E.E.E.E.E.E.E.E.E.E.E.E.E.E.E.E.E.E.E.E.E.E.E.E.E.E.E.E.E.E.E.E.",
"E.E.E.E.E.E.E.E.E.E.E.E.E.E.E.E.E.E.E.E.E.E.E.E.E.E.E.E.E.E.E.E.E.E.E.E.E.E.E.E.E.E.E.E.E.E.E.E.E.E.E.E.E.E.E.E.E.E.E.E.E.E.E.E.",
"E.E.E.E.E.E.E.E.E.E.E.E.E.E.E.E.E.E.E.E.E.E.E.E.E.E.E.E.E.E.E.E.E.E.E.E.E.E.E.E.E.E.E.E.E.E.E.E.E.E.E.E.E.E.E.E.E.E.E.E.E.E.E.E.",
"E.E.E.E.E.E.E.E.E.E.E.E.E.E.E.E.E.E.E.E.E.E.E.E.E.E.E.E.E.E.E.E.E.E.E.E.E.E.E.E.E.E.E.E.E.E.E.E.E.E.E.E.E.E.E.E.E.E.E.E.E.E.E.E.",
"E.E.E.E.E.E.E.E.E.E.E.E.E.E.E.E.E.E.E.E.E.E.E.E.E.E.E.E.E.E.E.E.E.E.E.E.E.E.E.E.E.E.E.E.E.E.E.E.E.E.E.E.E.E.E.E.E.E.E.E.E.E.E.E.",
"E.E.E.E.E.E.E.E.E.E.E.E.E.E.E.E.E.E.E.E.E.E.E.E.E.E.E.E.E.E.E.E.E.E.E.E.E.E.E.E.E.E.E.E.E.E.E.E.E.E.E.E.E.E.E.E.E.E.E.E.E.E.E.E.",
"E.E.E.E.E.E.E.E.E.E.E.E.E.E.E.E.E.E.E.E.E.E.E.E.E.E.E.E.E.E.E.E.E.E.E.E.E.E.E.E.E.E.E.E.E.E.E.E.E.E.E.E.E.E.E.E.E.E.E.E.E.E.E.E.",
"E.E.E.E.E.E.E.E.E.E.E.E.E.E.E.E.E.E.E.E.E.E.E.E.E.E.E.E.E.E.E.E.E.E.E.E.E.E.E.E.E.E.E.E.E.E.E.E.E.E.E.E.E.E.E.E.E.E.E.E.E.E.E.E.",
"E.E.E.E.E.E.E.E.E.E.E.E.E.E.E.E.E.E.E.E.E.E.E.E.E.E.E.E.E.E.E.E.E.E.E.E.E.E.E.E.E.E.E.E.E.E.E.E.E.E.E.E.E.E.E.E.E.E.E.E.E.E.E.E.",
"E.E.E.E.E.E.E.E.E.E.E.E.E.E.E.E.E.E.E.E.E.E.E.E.E.E.E.E.E.E.E.E.E.E.E.E.E.E.E.E.E.E.E.E.E.E.E.E.E.E.E.E.E.E.E.E.E.E.E.E.E.E.E.E.",
"E.E.E.E.E.E.E.E.E.E.E.E.E.E.E.E.E.E.E.E.E.E.E.E.E.E.E.E.E.E.E.E.E.E.E.E.E.E.E.E.E.E.E.E.E.E.E.E.E.E.E.E.E.E.E.E.E.E.E.E.E.E.E.E.",
"E.E.E.E.E.E.E.E.E.E.E.E.E.E.E.E.E.E.E.E.E.E.E.E.E.E.E.E.E.E.E.E.E.E.E.E.E.E.E.E.E.E.E.E.E.E.E.E.E.E.E.E.E.E.E.E.E.E.E.E.E.E.E.E.",
"E.E.E.E.E.E.E.E.E.E.E.E.E.E.E.E.E.E.E.E.E.E.E.E.E.E.E.E.E.E.E.E.E.E.E.E.E.E.E.E.E.E.E.E.E.E.E.E.E.E.E.E.E.E.E.E.E.E.E.E.E.E.E.E.",
"E.E.E.E.E.E.E.E.E.E.E.E.E.E.E.E.E.E.E.E.E.E.E.E.E.E.E.E.E.E.E.E.E.E.E.E.E.E.E.E.E.E.E.E.E.E.E.E.E.E.E.E.E.E.E.E.E.E.E.E.E.E.E.E.",
"E.E.E.E.E.E.E.E.E.E.E.E.E.E.E.E.E.E.E.E.E.E.E.E.E.E.E.E.E.E.E.E.E.E.E.E.E.E.E.E.E.X X . . . X X + O $ & $ $ & O $ $ $ $ & $ $ O ",
"E.E.E.E.E.E.E.E.E.E.E.E.E.E.E.E.E.E.E.E.E.E.E.E.E.E.E.E.E.E.E.E.E.E.E.E.E.E.E.E.. X . X . X X X + $ $ $ $ $ O & $ $ O $ $ $ O & ",
"E.E.E.E.E.E.E.E.E.E.E.E.E.E.E.E.E.E.E.E.E.E.E.E.E.E.E.E.E.E.E.E.E.E.E.E.E.E.E.E.. . X X X o X # $ $ $ $ & $ O O $ $ $ $ $ & & & ",
"E.E.E.E.E.E.E.E.E.E.E.E.E.E.E.E.E.E.E.E.E.E.E.E.E.E.E.E.E.E.E.E.E.E.E.E.E.E.E.  . . X X X * + * * = = = & $ $ O O O # $ & & = = ",
"E.E.E.E.E.E.E.E.E.E.E.E.E.E.E.E.E.E.E.E.E.E.E.E.E.E.E.E.E.X X o O O $ + o X .       X o # * 6 6 6 6 & 6 & $ O O O o o # = * 6 6 ",
"E.E.E.E.E.E.E.E.E.E.E.E.E.E.E.E.E.E.E.E.E.E.E.E.E.E.E.E.X X X X O O O O o X X . . X o + * 6 6 9 6 6 6 6 = $ $ # o X o # 6 6 6 6 ",
"E.E.E.E.E.E.E.E.E.E.E.E.E.E.E.E.E.E.E.E.E.E.E.E.E.E.E.E.X X X o O O + O o X X X X X + * 6 9 q q q q 8 7 6 & $ # o o o $ 6 9 q q ",
"E.E.E.E.E.E.E.E.E.E.E.E.E.E.E.E.E.E.E.E.E.E.E.E.E.E.E.X X o o o X o o o o X o o + * * ; 9 B C Z C C B 8 6 6 * # o X O & 7 B C C ",
"E.E.E.E.E.E.E.E.E.E.E.E.E.E.E.E.E.E.E.E.E.E.E.E.E.. X X o o o o o X o o o o # $ * * : 9 B S D D S S Z C 0 6 = $ # O $ - 8 V S G ",
"E.E.E.E.E.E.E.E.E.E.E.E.E.E.E.E.E.E.E.E.E.E.E.E.X X X o o o @ o o o X o o o $ & ; : 9 q Z G K K K K G Z q 0 6 6 * $ % > V S K K ",
"E.E.E.E.E.E.E.E.E.E.E.E.E.E.E.E.E.E.E.E.E.E.E.E.X X X o @ @ @ @ O o o @ O O & - : 0 q Z D K K L L L L G F C < , : > > t S K L L ",
"E.E.E.E.E.E.E.E.E.E.E.E.E.E.E.E.E.E.E.E.E.E.E.$ @ * @ o @ @ @ @ % - - % % % & - 0 B Z F G K L L I I P L G F a i y y u p g I I I ",
"E.E.E.E.E.E.E.E.E.E.E.E.E.E.E.E.E.E.E.E.E.$ $ & = * * * X + + - % V V > % & & > B Z D D K K L P I n n n j j k k d d g h j b n n ",
"E.E.E.E.E.E.E.E.E.E.E.E.E.E.E.E.E.E.E.E.$ $ & = 6 6 6 * * o + - V V V V < & & > V S K L K L L I I I n M m b v v b b v b b M n M ",
"E.E.E.E.E.E.E.E.E.E.E.E.E.E.E.E.E.E.E.E.O O & - , 9 9 ; @ o + - V A D V < & & > V D L L L L L P U U 2.2.2.1.1.1.1.1.1.m m m m m ",
"E.E.E.E.E.E.E.E.E.E.E.E.E.E.E.E.E.E.E.E.o O $ ; 0 B q , * o o * 8 V A V > & & V V D K L I I U U Y h.j.<.,.:.>.>.>.>.:.,.<.<.J J ",
"E.E.E.E.E.E.E.E.E.E.E.E.E.E.E.E.E.E.E.E.X o O - < Z Z < = o o * > B B 8 6 & & % V D L L I n U Y J g.d.-.;.4.3.3.3.3.5.;.-.d.f.H ",
"E.E.E.E.E.E.E.E.E.E.E.E.E.E.E.E.E.E.E.E.. X @ - y S S y - o o + ; 8 9 7 - & & 8 V D L I n n m Y g.' ` ~ 9.6.=.=.=.6.6.9...` X.X.",
"E.E.E.E.E.E.E.E.E.E.E.E.E.E.E.E.E.E.E.E.  X o - t p A t - @ + + * 6 6 6 6 & > t A K I I n n m h.f.X.@.%.! 8.e.e.e.e.8.( W } +.+.",
"E.E.E.E.E.E.E.E.E.E.E.E.E.E.E.E.E.E.E.E.  . o & , t V < - = * * * = = ; - > t A D L I n N n m H ' X.+.%.&.t.i.i.i.i.t.! ^ T T [ ",
"E.E.E.E.E.E.E.E.E.E.E.E.E.E.E.E.E.E.E.E.. X o # % 7 % 6 6 ; ; * * * * - , y p p L z b n N M 2.h.' X.+.*.n.S.F.F.F.F.V.w.q.( R R ",
"E.E.E.E.E.E.E.E.E.E.E.E.E.E.E.E.E.E.E.E.. X X o & & - 6 6 6 6 * * o @ - t p K P b n n N N M z J f.X.@.$.b.M.H.K.K.H.L.V.0.8.7.E ",
"E.E.E.E.E.E.E.E.E.E.E.E.E.E.E.E.E.E.E.E.. X X o o O * 6 6 6 6 ; # X + - t D L l I M M M N M m j.H ` O.#.x.m.N.B.I.I.J.Z.a.r.e.e.",
"E.E.E.E.E.E.E.E.E.E.E.E.E.E.E.E.E.E.E.E.X . X X o O # 6 6 9 6 ; * o * - u D P I M M N N N M M x h.g.d.k.z.l.x.v.N.P.I.G.Z.a.u.u.",
"E.E.E.E.E.E.E.E.E.E.E.E.E.E.E.E.E.E.E.E.. . X X o O & - 6 9 6 6 & & & % V D L I n M M N N M M m U j.J g.` _ ] l.m.P.I.K.G.D.D.Z.",
"E.E.E.E.E.E.E.E.E.E.E.E.E.E.E.E.E.E.E.E.. . X o o O $ - 6 9 6 6 & & & 8 V D L I n n M M M M M M 2.2.c H 5 5 r _ x.N.I.U.K.J.H.G.",
"E.E.E.E.E.E.E.E.E.E.E.E.E.E.E.E.E.E.E.E.. o . o O $ $ - 6 9 7 6 & & % 8 V D L I n M M N 1.N N N M M z a 3 2 1 ) c.M.I.R.U.I.I.I.",
"E.E.E.E.E.E.E.E.E.E.E.E.E.E.E.E.E.E.E.E.. . . o o O & - 6 7 7 6 = & % > A D I I n M M M N N N N N M v a 4 2 1 ) #.M.I.R.R.Y.Y.R."
};
