/* XPM */
static char *cliff_08[] = {
/* columns rows colors chars-per-pixel */
"64 64 228 2 ",
"   c #352D29",
".  c #3A2F2A",
"X  c #362D27",
"o  c #3F322D",
"O  c #3F353B",
"+  c #442F2F",
"@  c #41332E",
"#  c #49302F",
"$  c #463233",
"%  c #4B3333",
"&  c #4D3A34",
"*  c #453639",
"=  c #443A3E",
"-  c #4B3A3C",
";  c #493638",
":  c #533635",
">  c #553A37",
",  c #5A3936",
"<  c #543C3B",
"1  c #5C3B39",
"2  c #583737",
"3  c #472F30",
"4  c #623E3A",
"5  c #643F36",
"6  c #54403D",
"7  c #5D423D",
"8  c #64433C",
"9  c #69443C",
"0  c #66483E",
"q  c #6B4A3F",
"w  c #664136",
"e  c #73463C",
"r  c #744A3C",
"t  c #7A4A3D",
"y  c #754E36",
"u  c #7B513A",
"i  c #577838",
"p  c #787538",
"a  c #60723F",
"s  c #3F3D44",
"d  c #433E44",
"f  c #4C3E42",
"g  c #513E41",
"h  c #444046",
"j  c #4B4245",
"k  c #534545",
"l  c #5B4542",
"z  c #574846",
"x  c #5C4946",
"c  c #5A4948",
"v  c #644641",
"b  c #644B45",
"n  c #6B4D44",
"m  c #6B4F48",
"M  c #634C48",
"N  c #714D41",
"B  c #7D4D40",
"V  c #6D5143",
"C  c #6A5047",
"Z  c #735243",
"A  c #7B5444",
"S  c #7E5942",
"D  c #547845",
"F  c #7C7A4E",
"G  c #797D50",
"H  c #824E3F",
"J  c #84523D",
"K  c #8B553D",
"L  c #8A5C3C",
"P  c #975E3D",
"I  c #94623C",
"U  c #9B633B",
"Y  c #9A663B",
"T  c #957738",
"R  c #A96D3D",
"E  c #A3693D",
"W  c #B36E3E",
"Q  c #AE733B",
"!  c #AC7C3E",
"~  c #A77C3E",
"^  c #B4733C",
"/  c #BA743D",
"(  c #B27D3D",
")  c #BD7A3A",
"_  c #B47E37",
"`  c #C37B37",
"'  c #C27B39",
"]  c #835644",
"[  c #8C5441",
"{  c #845944",
"}  c #8C5B45",
"|  c #945C44",
" . c #9C5E44",
".. c #915740",
"X. c #A05F44",
"o. c #8C6241",
"O. c #8D6C48",
"+. c #936342",
"@. c #9C6144",
"#. c #916B40",
"$. c #887748",
"%. c #9B7E44",
"&. c #957A46",
"*. c #A36244",
"=. c #AA6544",
"-. c #AC6A41",
";. c #A26A43",
":. c #B46D41",
">. c #A27D42",
",. c #A97841",
"<. c #B37041",
"1. c #7DB81D",
"2. c #74AB1E",
"3. c #5B8B31",
"4. c #63892E",
"5. c #6B9D27",
"6. c #628E34",
"7. c #6A9C3C",
"8. c #759B3C",
"9. c #769928",
"0. c #6BA427",
"q. c #76AC2E",
"w. c #72A42A",
"e. c #7BB22B",
"r. c #7DB723",
"t. c #6EA03D",
"y. c #73A734",
"u. c #75AA34",
"i. c #7AAC33",
"p. c #76A638",
"a. c #7EB135",
"s. c #5F8B54",
"d. c #5E8451",
"f. c #5B8A4B",
"g. c #648E4E",
"h. c #6C8B4A",
"j. c #7B844E",
"k. c #748A4B",
"l. c #6B9C43",
"z. c #65924C",
"x. c #6B9846",
"c. c #769844",
"v. c #658655",
"b. c #6C8652",
"n. c #628B54",
"m. c #6D8C55",
"M. c #748953",
"N. c #6A9154",
"B. c #689254",
"V. c #779C58",
"C. c #79A842",
"Z. c #7EB141",
"A. c #78A157",
"S. c #6DA04B",
"D. c #7C9D60",
"F. c #82BE1D",
"G. c #90BD1E",
"H. c #929430",
"J. c #A9952D",
"K. c #B68335",
"L. c #B98638",
"P. c #AA9632",
"I. c #AB8F35",
"U. c #9AA926",
"Y. c #81BB22",
"T. c #85BB2C",
"R. c #87B824",
"E. c #97B729",
"W. c #8DBD3A",
"Q. c #87BA34",
"!. c #83AD30",
"~. c #A3AA31",
"^. c #85C317",
"/. c #85C21B",
"(. c #88C718",
"). c #8BC324",
"_. c #8EC32C",
"`. c #87C123",
"'. c #93C535",
"]. c #96C935",
"[. c #97C53A",
"{. c #8FC135",
"}. c #82824C",
"|. c #8A8249",
" X c #858A48",
".X c #958245",
"XX c #9B8044",
"oX c #968A4B",
"OX c #859957",
"+X c #95904F",
"@X c #A68645",
"#X c #B49849",
"$X c #AB944D",
"%X c #88B449",
"&X c #88A75A",
"*X c #8AB157",
"=X c #9DBE5B",
"-X c #95B758",
";X c #90B152",
":X c #ABA554",
">X c #B4AE58",
",X c #A5B65B",
"<X c #B1B456",
"1X c #8EAC62",
"2X c #83A361",
"3X c #8EB061",
"4X c #9CBA65",
"5X c #95B462",
"6X c #91AF64",
"7X c #A2BF63",
"8X c #AEBE60",
"9X c #B5B860",
"0X c #9EC54A",
"qX c #99C347",
"wX c #A0C74C",
"eX c #A1CA4B",
"rX c #A2C846",
"tX c #A6C65B",
"yX c #AAC95E",
"uX c #A6C857",
"iX c #B0CE5C",
"pX c #A5C265",
"aX c #ACC765",
"sX c #ADC964",
"dX c #AEC769",
"fX c #A5C168",
"gX c #B1C767",
"hX c None",
/* pixels */
"aXaXaXdXdXdXyX0X].).).].rXuX7X1XD.v.s.l.q.r.(.(.^./.).'.0XtXsXdXdXgXyX0X'.)././.^.^.(./.(./.^.F.^.F./.'.0XtXtXrX[.).).].eXyXdXdX",
"aXaXaXdXaXaXtX0X'.).).'.rXuX7X6XD.B.B.7.q.r.F.^.^./.).'.0XtXaXdXdXsXtXqX'.)././././././././././.^.^.).[.wXtXtX0X].).).'.0XtXaXdX",
"aXaXaXsXpXuXuXqXQ.T.T.'.0XuX7X5X&XV.B.S.u.e.1.F.F.F.).'.0XuXaXfXdXpXtXqX{.)./.F.Y.Y.Y.F.F././././.)._.qX0XtXuXqXW.T.e.Q.%XuXyXtX",
"gXsXsXyXuX0XqXW.Q.a.a.%X-XpXfX4X1X&XA.c.8.0.0.2.1.F.).'.0XyXpXfX4X5X*X%X{.`./.r.r.q.e.e.Y.Y.).).).'.[.0XuXpXtX;X!.y.w.i.W.qX0XeX",
"gXsXyXuXrX[.{.Q.a.t.C.%X-XpXfXfX7X6X&Xc.6.3.3.5.2.F.).].eXtXpX4X1X&XA.a.e.`.`.r.u.p.t.u.e.Y.`.).'.qX0XuXyXsXtX;Xp.4.4.9.a.Q.'.].",
"dXaXyX0X[._.T.u.l.x.N.A.-X7XaXgXaX7X-XOXh.i i 3.5.1.).].rXtX7X5X2XV.N.S.e.r.Y.q.t.x.l.t.q.F.).'.0XwXyXsXsXsX,X&Xh.i i 4.w.R.).).",
"fXpX=X;X{.Q.e.y.x.g.B.V.*XwXtXyXsXaX4X&Xh.i i 3.5.1.R.].rXrX,X6XOXM.k.8.u.e.e.u.l.z.z.l.q.Y.).].0XyXaXgXaX,X,XOXk.a i i 9.R.R.).",
"3X3X*X%XZ.u.u.t.z.n.n.V.*X-XrXiXiXsX7X2Xb.D D 3.0.1.).E.<X:X:X$X+X X}.c.p.y.u.l.z.n.z.l.q.Y.).].rXyXaX9X9X>X:X+X$.p p p H.U.U.U.",
"A.V.A.V.S.l.l.z.f.n.n.l.%XW.[.rXiXyXtX1XN.v.f.3.0.r.G.E.~.#X#XL.@X@XXX Xc.c.l.z.g.s.n.7.q.F.).].rXaXgX9X>X#X#X@XT T T T I.J.J.J.",
"N.N.N.N.N.z.n.n.n.n.N.l.i.T._.[.eXuX7X1XV.n.z.7.q.F.G.U.~.L.L._ <.@XK..X Xh.n.s.s.s.z.l.u.r.).].0XtX8X>X#X#X) _ ( ^ ! _ _ _ K.K.",
"b.b.b.b.b.b.b.b.b.b.h.8.u.e.T.{.-X,X7X1XOXM.M.8.i.R.E.U.J.K.` ` ' ) ! >.|.j.b.v.v.n.g.l.y.e.T.W.qX=X>X:X#X' ) ` ) ) ) ) ) ) _ _ ",
"}.}.}.}.}.}.}.}.$.j. Xc.8.y.a.Z.%X&X&X&XOX X X+XH.U.U.J.K.` ` ` ` ' L.,.%.|.j.b.v.n.g.z.t.y.u.%X*X*X1X$X#X@X) ` ` ` ` ` ` ) ` ` ",
"%.%.%.%.XX%.%.%.%.XXH. X8.c.l.S.A.A.V.OX+XoXI.I.I.P.P.L.K.` ` ` ` ` ) ( ! >.&.}.b.v.s.g.z.l.l.S.S.A.OX+X@X( ' ` ` ` ' ' ` ` ` ' ",
"( ( ( ! ( ( ! ( ( <.,..X Xk.B.g.n.n.M. X.X,.,._ ) K.K.K.) _ ` ) ) ' ) ) ) ( @X&.}.b.n.n.g.g.z.N.n.B.m. XXX( ) ` ' ) ' ) ) ) ) ) ",
"/ ) ) ) ) ) ) ' ' ) ,.@X|.j.b.v.v.v.G $.&.Q Q Q Q ^ Q Q Q Q Q _ / / ) ) ) ) ! %.$.M.b.b.n.b.b.v.b.b.M.|.@X( ) ' ) ) ) / / ) ) / ",
"/ / / / ' ' ` ` ` ' ( K.XX|.F j.G G F $.#.Y U U U I I I I P U Y R ^ / / / / ^ ,.XX|.}.}.j.}.}.}.}.}.|.XX! ( ) ) ) / / ^ / / ^ / ",
"W :.W / / ' ' ` ' ' #X<.@X@X%.&.&.O.O.o.{ J J u r Z Z y y y J K P R :.:.:.:.:.,.,.>.XX%.%.@X%.%.%.@X@X~ ( ) ) ) / :.W :.:.:.:.:.",
"=.=.-.:./ ) ) ' ' ' / ' @X<.,.<.,.;.+.} B r 9 7 7 l k 6 6 6 5 y K *.=.=.=.=.-.-.,.( ( ( ( ,.^ W ,.,.( _ ) ) ) ^ :.-.=.=.=.=.=.=.",
"X.*.*.R W ^ ) ) / ) / / ` ' :.W =.*.| [ B 4 1 < f d d d * $ : w H K  .*.*.*.*.R W ^ ) ) / ) ' / / ) / ) ' / W W *.*. . . . . . .",
"| |  .*.-.W / / / / / <.' / :.:.*.| } B 9 1 < - d d s O O @ % , w H J [ [ | @.*.:.W / / / / W ' / / / / / / W E P K J H H [ [ K ",
"{ { | +.*.R :.:.:.:.:.:.:.:.=.*.| ] B N 4 1 2 f f d s O * 3 3 : 5 5 e t A ] } U *.W :.:.' :.:.:.:.:.:.:.:.:.E P H e e 5 e e t t ",
"A A { } @.*.=.=.=.=.=.=.=.=.*.| [ ] m n 8 4 1 g f d d d * % 3 : % : , w q u { } @.*.=.=.=.X.=.=.=.=.=.=.:.=.X.K e 5 1 1 4 5 4 4 ",
"V V Z { } |  .@. . . .X.*.*. .| ] A N m e 4 4 g g f d d = % ; % $ $ & > 0 n A { ..|  .X. . .X.X.X.X. .X.X.X...t w , % : 2 4 4 4 ",
"M x M m Z A ] ] ] ] ] ] } } } ] ] ] A B B B B v k j d f f < 2 : ; * - < l b Z A u H H K [ [ [ [ [ [ K [ [ [ [ e 5 2 % : 1 g 4 4 ",
"k k z z x M m m b M m N m ] ] } ] } | } | ..] N x j d j g g v g - - d k l m n n N 9 9 e e e t t t t t B t B e 5 5 : : 1 l 4 b v ",
"j j j j k j k j j k z c m m m } |  .X.X.X. ...A b g j j c M M k j j j j x b n 8 1 1 2 , 5 5 4 4 4 4 4 4 4 5 4 4 4 , 1 4 v b v b ",
"h h h h d d d h d j j c M m A ] | X.*.=.*.*.| A m k f j c c c c k j j z c b b 7 2 ; % : 2 2 1 4 4 4 1 4 4 4 7 5 4 4 4 9 v m m m ",
"= O = = = = = d f j z c m A ] | X.*.=.=.*. .| B v k g k k c c c z k z c b m b 7 2 % 3 % : 2 1 2 2 2 1 1 4 4 8 8 4 9 v v n m m m ",
"* * * * * * * - j z M m A } | X.*.=.*.*. .| ] N v g g g g c c c c c c M M m b l 2 % 3 % : 2 2 2 2 2 4 4 0 0 q V q q N n m m m m ",
"$ & $ $ $ $ ; < g b m A } | *.*.=.*. . .} ] B N 9 8 1 g g f j c c M b m m m b 1 g : % % : 2 1 4 4 1 4 4 q q V r Z Z Z n N m m m ",
"# $ # # $ $ & < l b N ] }  .X.*.*.X. .| ] ] m n 9 4 g g f d f j z b m m m m b l 2 % # # : 1 4 4 4 4 4 9 V V Z Z r V n n n b b b ",
"# # $ $ $ ; - < l n Z A } | |  . .| | ] m m m v v 8 4 g f d j j c b m m m n b 7 2 # : : 2 2 g 4 4 4 9 n u Z Z Z q 0 v v l M c c ",
"# # $ $ * = 6 j l M C A { { } o.} ] ] B N 9 v 8 v v x c j h j j c b m m m m M g < % % % : , 1 8 9 q N Z Z Z Z q 0 7 6 6 6 k k k ",
"% # $ * = = h k c M C Z Z Z S S A A B N 9 8 4 8 v v M c k h j j c b m m m m v v < % % : : , 4 8 9 n Z Z S Z q q 7 6 & ; - j j h ",
"% % ; - - j j z M b V V V V V V Z Z N n 8 4 4 8 v m M c j k j k M m N Z A m m v 7 : ; : : 2 1 8 q q V r r q q 8 6 & & * s h h h ",
"# : & - 6 6 z x M m b C C M b V V Z N n 8 4 g 4 v m M c k h j c m Z ] ] ] ] ] N v 1 > > 2 2 2 4 0 q n q q 0 7 6 6 @ & O s h h h ",
": 2 2 1 7 x b C V V C M x z z x C V V q 8 1 1 4 9 m M g j h j c m } |  .|  .} ] m v 4 < : : : 2 1 0 8 8 7 1 > < - = = s d s h h ",
", , 1 8 8 n V Z Z Z V x z j k z M V u q 9 1 4 v v m M M j j k M ] | X.*.X.X. .] A Z b 1 : : : : , 1 1 , > : ; - - = d h d h h h ",
"1 4 4 9 q A A S { S S b l k g z x V V q 9 4 4 v v v M c k k M m ]  .*.=.*.*. .} ] m b 7 < $ : % : : 2 2 & % * * = h h h d d s h ",
"8 8 9 N A { } +.#.#.o.u b k g g 7 0 q q 9 v v l v x c M M m Z ] | *.=.*.*. .| ] A N b l > & # % : : : % $ % * = s s s d d d = = ",
"v n n A ] | +.*.R R Y L y 7 < g 7 8 8 9 q q v b l k c M Z A } | X.=.*.*.@.} { S A V m l > % $ # # % % ; * d s s s s s s = * * ; ",
"r Z A A .. .*.-.^ / Q I u 9 1 < 1 1 8 9 n q q b k j k b A }  .*.*.*.*. .} { A Z m m b 7 > & $ # # % % ; * d d h h h d d * * $ $ ",
"Z S S }  .*.-.:.^ Q Q I J 9 4 1 1 1 8 9 V u V b k j k m ] | X.*.*.X. .| ] Z Z Z m m b l < ; $ $ % : ; < g g k k k j k 6 % % & # ",
"o.} } @.@.*.=.*.U U I J y q 8 8 8 8 v N V Z Z b l k l v A }  .@. .| | ] A r v m v m b v < - - - & < 7 1 b b m m C C b 8 1 : : : ",
" . . .X.=.=.*. .K J y y q q q b v q q V Z Z Z V l < l v N { o.o.} } ] A r 9 v v n m m l k d = - < 7 0 q N A ] ] ] ] ] N 9 1 2 : ",
"@.*.*.*.=.*. .K y w , 7 0 b b V Z V Z y Z Z q q 8 1 1 8 n A A S A A A N 9 8 1 8 v n M l k f f k x n u { } +. .@. . ...t e 4 2 2 ",
" . .X.X.X. .K H w , & > 6 7 0 q n q a y q q q q 8 5 1 8 9 n q q m Z m v 8 1 4 8 v b b l k k k M V Z S } @.*.=.=.*.*.| [ B 4 1 > ",
"[ [ [ [ [ K H e , % $ ; & 6 7 7 7 7 7 7 0 7 7 7 7 1 1 1 w 0 8 0 M b v 1 1 1 1 1 1 7 v l b n m Z A { +.@.=.:.:.:.=.*.| B N g g < ",
"t ] t t B t e 4 2 % + $ $ & & & & 6 & 6 @ 6 & > , , 1 1 , > < > > 1 1 2 4 2 2 2 > < 1 9 N A } } | | @.=.<.<.' <.;.+.S V b k - f ",
"5 4 4 4 9 4 4 , : % # + # @ o o @ o o o o X @ & : , , , 2 : : & & % : 2 2 2 4 2 : : , 9 ] }  . .@.*.=.-.<./ <.<.+.{ u b z j j h ",
"4 4 4 4 1 1 1 2 : % # + o o X . . . . X X X . @ : > , , : # $ $ 3 $ % : 2 2 2 : % : 2 w ] [ *.*.*.@.;.-.^ ^ Q %.o.Z V z j j d d ",
"2 2 2 2 2 : 2 2 : # # + . X X X X X X   X X X @ & 2 , 2 : # # + + # % : 2 2 4 2 : : , 9 H [ +.@.@.@.@.@.;.,.Y I S V x z j h h h ",
"hXhXhXhXhXhXhXhXhXhXhXhXhXhXhXhXhXhXhXhXhXhXhXhXhXhXhXhXhXhXhXhXhXhXhX2 2 1 1 2 2 2 , 9 r { } } } } } o.+.I L S C c k h h h h h ",
"hXhXhXhXhXhXhXhXhXhXhXhXhXhXhXhXhXhXhXhXhXhXhXhXhXhXhXhXhXhXhXhXhXhXhXhX, 1 1 2 2 , 1 8 r Z A S S A A S S S Z V M k h h h h h h ",
"hXhXhXhXhXhXhXhXhXhXhXhXhXhXhXhXhXhXhXhXhXhXhXhXhXhXhXhXhXhXhXhXhXhXhXhX1 1 1 , 1 1 4 8 q N N N m V Z Z Z Z n b z h h h s h h h ",
"hXhXhXhXhXhXhXhXhXhXhXhXhXhXhXhXhXhXhXhXhXhXhXhXhXhXhXhXhXhXhXhXhXhXhXhXhX4 1 4 1 1 4 8 8 q q n n q q q q 0 0 k k h s h h h h h ",
"hXhXhXhXhXhXhXhXhXhXhXhXhXhXhXhXhXhXhXhXhXhXhXhXhXhXhXhXhXhXhXhXhXhXhXhXhXhXhXhXhXhXhX8 8 8 4 8 8 4 4 4 8 8 l 1 j h h h s hXhXhX",
"hXhXhXhXhXhXhXhXhXhXhXhXhXhXhXhXhXhXhXhXhXhXhXhXhXhXhXhXhXhXhXhXhXhXhXhXhXhXhXhXhXhXhXhX4 1 1 4 4 4 4 4 4 4 1 k 6 h h h hXhXhXhX",
"hXhXhXhXhXhXhXhXhXhXhXhXhXhXhXhXhXhXhXhXhXhXhXhXhXhXhXhXhXhXhXhXhXhXhXhXhXhXhXhXhXhXhXhX1 1 1 4 1 1 1 4 1 1 < g j h s h hXhXhXhX",
"hXhXhXhXhXhXhXhXhXhXhXhXhXhXhXhXhXhXhXhXhXhXhXhXhXhXhXhXhXhXhXhXhXhXhXhXhXhXhXhXhXhXhXhXhX1 1 , 1 1 1 1 1 1 1 6 6 h h hXhXhXhXhX",
"hXhXhXhXhXhXhXhXhXhXhXhXhXhXhXhXhXhXhXhXhXhXhXhXhXhXhXhXhXhXhXhXhXhXhXhXhXhXhXhXhXhXhXhXhXhXhXhXhXhXhXhXhXhXhXhXhXhXhXhXhXhXhXhX",
"hXhXhXhXhXhXhXhXhXhXhXhXhXhXhXhXhXhXhXhXhXhXhXhXhXhXhXhXhXhXhXhXhXhXhXhXhXhXhXhXhXhXhXhXhXhXhXhXhXhXhXhXhXhXhXhXhXhXhXhXhXhXhXhX",
"hXhXhXhXhXhXhXhXhXhXhXhXhXhXhXhXhXhXhXhXhXhXhXhXhXhXhXhXhXhXhXhXhXhXhXhXhXhXhXhXhXhXhXhXhXhXhXhXhXhXhXhXhXhXhXhXhXhXhXhXhXhXhXhX",
"hXhXhXhXhXhXhXhXhXhXhXhXhXhXhXhXhXhXhXhXhXhXhXhXhXhXhXhXhXhXhXhXhXhXhXhXhXhXhXhXhXhXhXhXhXhXhXhXhXhXhXhXhXhXhXhXhXhXhXhXhXhXhXhX"
};
