/* XPM */
static char *cliff_04[] = {
/* columns rows colors chars-per-pixel */
"64 64 227 2 ",
"   c #3B2B2B",
".  c #332727",
"X  c #2E2525",
"o  c #432E2E",
"O  c #45302F",
"+  c #462F30",
"@  c #482F30",
"#  c #473131",
"$  c #4B3332",
"%  c #4C3A36",
"&  c #533635",
"*  c #553935",
"=  c #5A3A35",
"-  c #593739",
";  c #553C39",
":  c #5C3B39",
">  c #583737",
",  c #633E36",
"<  c #613E3A",
"1  c #6B3F37",
"2  c #4A453A",
"3  c #5D423D",
"4  c #564539",
"5  c #4E503F",
"6  c #664136",
"7  c #64433C",
"8  c #6A433A",
"9  c #6B4A3E",
"0  c #6A4638",
"q  c #72453B",
"w  c #744A3C",
"e  c #7B4C3C",
"r  c #744A37",
"t  c #7E543D",
"y  c #7D5136",
"u  c #6E503E",
"i  c #547838",
"p  c #697B38",
"a  c #575A44",
"s  c #5D4340",
"d  c #644641",
"f  c #664A44",
"g  c #6B4D43",
"h  c #694540",
"j  c #724D42",
"k  c #7D4E41",
"l  c #6D5146",
"z  c #625040",
"x  c #735243",
"c  c #7B5443",
"v  c #7E5943",
"b  c #56684A",
"n  c #597545",
"m  c #5D7D51",
"M  c #64734B",
"N  c #7C7D4D",
"B  c #767845",
"V  c #7A7A51",
"C  c #747F51",
"Z  c #6E6448",
"A  c #824E3D",
"S  c #894F3E",
"D  c #85513D",
"F  c #8B543E",
"G  c #895A3B",
"H  c #935D3A",
"J  c #975A3D",
"K  c #A15C3F",
"L  c #8C603F",
"P  c #9D623D",
"I  c #98653C",
"U  c #88783D",
"Y  c #A46C3D",
"T  c #A9683E",
"R  c #B26E3E",
"E  c #AC723E",
"W  c #AA7B3E",
"Q  c #B5743E",
"!  c #BA743E",
"~  c #B37C3C",
"^  c #BD7A3A",
"/  c #BF7A37",
"(  c #C27A3B",
")  c #C27838",
"_  c #835542",
"`  c #8B5442",
"'  c #845A44",
"]  c #8B5B44",
"[  c #8D5F48",
"{  c #915740",
"}  c #945C44",
"|  c #9C5D43",
" . c #A05F45",
".. c #8D6143",
"X. c #8D6D4B",
"o. c #866448",
"O. c #936442",
"+. c #9C6343",
"@. c #9D6945",
"#. c #9A6D49",
"$. c #8D714C",
"%. c #85794B",
"&. c #9B7C44",
"*. c #92744B",
"=. c #977A46",
"-. c #817F51",
";. c #A26244",
":. c #AB6643",
">. c #A46C42",
",. c #AC6A42",
"<. c #A46D49",
"1. c #B46D41",
"2. c #A37E41",
"3. c #A97644",
"4. c #B57241",
"5. c #B67442",
"6. c #71AB1D",
"7. c #7CB61E",
"8. c #7EBA1C",
"9. c #5D8C2A",
"0. c #5D8533",
"q. c #608A2E",
"w. c #679925",
"e. c #74962A",
"r. c #618C30",
"t. c #699838",
"y. c #73973A",
"u. c #798D37",
"i. c #6DA223",
"p. c #6EA22A",
"a. c #74A827",
"s. c #7DB720",
"d. c #7FB923",
"f. c #77A935",
"g. c #7BB135",
"h. c #5C814F",
"j. c #69884A",
"k. c #76864A",
"l. c #6A9749",
"z. c #6A8453",
"x. c #668B56",
"c. c #748E55",
"v. c #768250",
"b. c #6A9259",
"n. c #6A9457",
"m. c #759A5B",
"M. c #7C9959",
"N. c #709740",
"B. c #7CA35E",
"V. c #75A155",
"C. c #75A845",
"Z. c #789E60",
"A. c #7DA660",
"S. c #81BD1B",
"D. c #8CB81E",
"F. c #8B9439",
"G. c #9A9431",
"H. c #918B36",
"J. c #A8962E",
"K. c #A68837",
"L. c #BC843D",
"P. c #B58436",
"I. c #AB9433",
"U. c #B1953B",
"Y. c #87A926",
"T. c #9AA729",
"R. c #84B927",
"E. c #91B928",
"W. c #88BB37",
"Q. c #99BB36",
"!. c #83AB3E",
"~. c #A5AA36",
"^. c #A1A62F",
"/. c #83C217",
"(. c #85C21B",
"). c #88C41D",
"_. c #8AC324",
"`. c #8EC32C",
"'. c #87C220",
"]. c #90C52C",
"[. c #8EC137",
"{. c #93C434",
"}. c #96C836",
"|. c #95C43A",
" X c #98C73C",
".X c #86854B",
"XX c #998346",
"oX c #888C54",
"OX c #849756",
"+X c #989957",
"@X c #AC8C49",
"#X c #B68B43",
"$X c #B69549",
"%X c #A48F53",
"&X c #84A94B",
"*X c #94BD46",
"=X c #87A75C",
"-X c #95AA5E",
";X c #97B959",
":X c #8AB44F",
">X c #ABAA47",
",X c #A4BE48",
"<X c #AAA856",
"1X c #A7B85B",
"2X c #B3A954",
"3X c #89AA61",
"4X c #8DB163",
"5X c #92B462",
"6X c #9CBB65",
"7X c #9AB761",
"8X c #A2BF63",
"9X c #AABF63",
"0X c #9BC544",
"qX c #9EC54B",
"wX c #9AC549",
"eX c #A0C64D",
"rX c #A1CA4C",
"tX c #A2C652",
"yX c #A6CA56",
"uX c #A7C65B",
"iX c #A8C75E",
"pX c #ABCA5E",
"aX c #A8CB58",
"sX c #ABC665",
"dX c #ACC962",
"fX c #A4C365",
"gX c None",
/* pixels */
"gXgXgXgXgXgXgXgXgXgXgXgXgXgXgXgXgXgXgXgXgXgXgXgX: < : & @ @ $ & 4 u g 9 7 : 1 w ` | :.1.! ) ) ( ( ) P.J.T.D.S./././././.(.(.(.(.",
"gXgXgXgXgXgXgXgXgXgXgXgXgXgXgXgXgXgXgXgXgXgXgXgX: : : & $ O & 6 0 u x 9 7 < 1 w `  .:.1.! ! / ) ) ( P.J.T.D././././.(.(.(.(.(.(.",
"gXgXgXgXgXgXgXgXgXgXgXgXgXgXgXgXgXgXgXgXgXgXgXgX: : : = = 4 6 6 u x u 9 h < h k ` | :.1.4.W ~ ~ / P.P.J.T.E._._._._._._.'.(.(./.",
"gXgXgXgXgXgXgXgXgXgXgXgXgXgXgXgXgXgXgXgXgXgXgXgX- : < 6 6 r y G G G ' c j 8 8 k {  .;.<.3.=.XXK.K.J.^.^.Q.Q.{.{.}.|.{.`._.(.(.(.",
"gXgXgXgXgXgXgXgXgXgXgXgXgXgXgXgXgXgXgXgXgXgXgXgX- < < r D H H I +.} ] _ k g w _ {  .;.#.*..X.XF.G.Y.T.Q.Q.eXeXeXqXqX0X{.`.'.(./.",
"gXgXgXgXgXgXgXgXgXgXgXgXgXgXgXgXgXgXgXgXgXgXgXgX- - 1 y H Y R R ,.:.} } c c c _ }  .<.*.%.v.l.t.Y.R.E.{.,XeXuXiXiXuXtX0X{._.(.S.",
"gXgXgXgXgXgXgXgXgXgXgXgXgXgXgXgXgXgXgXgXgXgXgXgX- - 8 e H Y E R R :.;.} ' v c ' }  .<.$.V z.n.l.f.R.`. XrXuXdXsXsXiXtX0X{._.(.(.",
"gXgXgXgXgXgXgXgXgXgXgXgXgXgXgXgXgXgXgXgXgXgXgXgX- < 1 r y I P Y ;.:.;.} ] c c ] }  .@.X.V z.n.l.C.|. XrXyXpXdXdXuXtX0X{.`.(.(./.",
"gXgXgXgXgXgXgXgXgXgXgXgXgXgXgXgXgXgXgXgXgXgXgXgX- - , 7 0 r A F J ;.;.+.] c v ' | ;.@.X.V z.x.V.:XwXrXaXdXdXdXuXqX X{.`.'.(.(./.",
"gXgXgXgXgXgXgXgXgXgXgXgXgXgXgXgXgXgXgXgXgXgXgXgX< : = = = = , e J | ;.} ] c c ] } +.@.X.V z.x.V.=X;XiXsXdXdXiXeX|.`._._.S.).(.(.",
"gXgXgXgXgXgXgXgXgXgXgXgXgXgXgXgXgXgXgXgXgXgXgXgX< < : = & & - h A { } ] c x c _ }  .@.$.C C b.Z.=X6X8X8X9X;X;X0XW._.).)._._._._.",
"gXgXgXgXgXgXgXgXgXgXgXgXgXgXgXgXgXgXgXgXgXgXgXgX8 7 7 3 = * - h w _ ` e w 9 0 t {  .@.*.C x.x.n.B.3X3X-X=X=X&X!.R.R.(._.`.{.|.|.",
"gXgXgXgXgXgXgXgXgXgXgXgXgXgXgXgXgXgXgXgXgXgXgXgXg 9 9 d d s s d 8 q q 1 < : 7 w `  .<.X.V z.x.b.m.m.m.n.z.j.j.y.a.S._.].{.0XeXtX",
"gXgXgXgXgXgXgXgXgXgXgXgXgXgXgXgXgXgXgXgXgXgXgXgXj x l g f f f h h 1 < < * & = q S | @.$.V z.x.b.b.b.x.x.n n i r.a.7._.].0XtXuXiX",
"gXgXgXgXgXgXgXgXgXgXgXgXgXgXgXgXgXgXgXgXgXgXgXgXc x x x l g g f h 1 < - * * = 8 A } +.X.-.C z.z.z.j.z.n n i i 9.i.s._.{.0XtXuXiX",
"gXgXgXgXgXgXgXgXgXgXgXgXgXgXgXgXgXgXgXgXgXgXgXgXgXx x l l l l l j j j 1 < : 3 0 k ` ..X.X.V V V .X%.k.j.q.i 9.w.6.S._.].|.0XeXeX",
"gXgXgXgXgXgXgXgXgXgXgXgXgXgXgXgXgXgXgXgXgXgXgXgXgXgXgXl l l l c k ` _ k w f h g x c ' [ X.X.*.#.=.&.H.H.u.e.i.6.7.8.(._.{.{.|.|.",
"gXgXgXgXgXgXgXgXgXgXgXgXgXgXgXgXgXgXgXgXgXgXgXgXgXgXgXgXf l l c ` | } [ _ j j g l l x ' [ +.<.:.4.W K.H.Y.Y.8.8.8./.(.(._._._._.",
"gXgXgXgXgXgXgXgXgXgXgXgXgXgXgXgXgXgXgXgXgXgXgXgXgXgXgXgXl l l ' [ } | } ] c c l l g j c ` }  .T R Q ^ I.^.E._._.)._._.'.(.(.(.(.",
"gXgXgXgXgXgXgXgXgXgXgXgXgXgXgXgXgXgXgXgXgXgXgXgXgXgXgXgXl l l c ' } } O.} ] ' k j f h h k ` { K T R ~ U.~.|.}.}.}.|.].`._.(././.",
"gXgXgXgXgXgXgXgXgXgXgXgXgXgXgXgXgXgXgXgXgXgXgXgXgXgXgXgXl x x c c ' ' [ } } [ _ k h < h 1 k _ S K T 5.@X2X,XqXrXeXqX0X{._.(./.S.",
"gXgXgXgXgXgXgXgXgXgXgXgXgXgXgXgXgXgXgXgXgXgXgXgXgXgXgXgXx x x x l x c _ } | | ` j h < - < 1 1 _ J  .,.@X<X1XiXdXuXuXtX0X{._.(./.",
"gXgXgXgXgXgXgXgXgXgXgXgXgXgXgXgXgXgXgXgXgXgXgXgXgXgXgXgXl l l 9 f f l k [ } { ` j < - - - - 1 q S | :.%X<X7X8XfXsXsXuXeX|.`._._.",
"gXgXgXgXgXgXgXgXgXgXgXgXgXgXgXgXgXgXgXgXgXgXgXgXgXgXgX* 7 0 f 7 s s d l _ ` ` _ 1 - - - $ & < q ` | <.&.+X+X5X6XfXsXdXyXqX X|.{.",
"gXgXgXgXgXgXgXgXgXgXgXgXgXgXgXgXgXgXgXgXgXgXgXgXgXX   # ; 3 6 3 - - ; d j c c j 7 * $ $ $ $ = 1 ` | <.*.oXOXA.4X6XfXdXiXyXtXeXqX",
"gXgXgXgXgXgXgXgXgXgXgXgXgXgXgXgXgXgXgXgXgXgXgXgXX .   O & : : = - - & 4 f g g h : * $ $ @ $ = q S | <.*.-.c.m.=X5XfXdXdXiXuXuXuX",
"gXgXgXgXgXgXgXgXgXgXgXgXgXgXgXgXgXgXgXgXgXgXgXgX. .   o & = < : ; > : : s d d s ; # $ O + @ & q S | <.$.%.v.c.M.3X6XfXfXiXiXuXuX",
"gXgXgXgXgXgXgXgXgXgXgXgXgXgXgXgXgXgXgXgXgXgXgXgX      # * : 7 7 7 8 1 7 3 s ; ; * # @ O + @ & 1 S { ;.#.*.%..XoXOX-X;X;X;X*XeXeX",
"gXgXgXgXgXgXgXgXgXgXgXgXgXgXgXgXgXgXgXgXgXgXgXgX  o O & 4 0 9 k e A e r 7 : $ % % @ @ @ o @ & 0 A { :.:.>.=.XXoXOXOX=XC.*X|.|.|.",
"gXgXgXgXgXgXgXgXgXgXgXgXgXgXgXgXgXgXgXgXgXgXgXgXo O # ; 3 9 x ' } } { A 8 = $ $ $ @ @ @ @ @ = 8 S | :.1.Q ~ 2.XX.Xn.m.f.g.R._._.",
"gXgXgXgXgXgXgXgXgXgXgXgXgXgXgXgXgXgXgXgXgXgXgXgXO @ & ; 7 u v ..+.;.;.F r , & $ @ @ # @ # % 3 u ' #.<.5.^ ~ W H.k.z.h.t.f.R.(.).",
"gXgXgXgXgXgXgXgXgXgXgXgXgXgXgXgXgXgXgXgXgXgXgXgXo $ % = 7 u v O.<.,.,.K F w 6 : & % # % 2 5 a Z $.XX@X#XI.I.G.H.k.n h.t.p.8././.",
"gXgXgXgXgXgXgXgXgXgXgXgXgXgXgXgXgXgXgXgXgXgXgXgX@ $ % = 7 l v O.Y Q ! T P F e 8 : & # 2 5 a b v.oX%X<X>X~.^.T.u.p i n 0.p.7.S./.",
"gXgXgXgXgXgXgXgXgXgXgXgXgXgXgXgXgXgXgXgXgXgXgXgX@ @ $ ; 7 u v O.>.! ! Q 1.| F e , * % 5 a n z.m.-X8X1X,XQ.E.Y.w.i i i 0.p.s.(./.",
"gXgXgXgXgXgXgXgXgXgXgXgXgXgXgXgXgXgXgXgXgXgXgXgX# $ & ; 3 u t ..Y Q ~ 5.1.1. .F 8 = % a b m b.A.5X8XuXeX X].R.p.q.i 0.9.i.d.(.).",
"gXgXgXgXgXgXgXgXgXgXgXgXgXgXgXgXgXgXgXgXgXgXgX& & * * ; 3 9 g G L Y E Q 5.1.T J y 3 4 a b h.b.A.5XfXpXaXrX|.W.f.e.r.9.w.a.S.)./.",
"gXgXgXgXgXgXgXgXgXgXgXgXgXgXgXgXgXgXgXgXgX: - > = > = : : h 8 x t L I 3.Q ! 4.P G 9 z a b h.n.B.5XfXdXpXaXrX0XW.g.p.i.a.8.S.(.(.",
"gXgXgXgXgXgXgXgXgXgXgXgXgXgXgXgXgXgXgXgX: : < : = > - : : < 7 h x t o.I E Q Q Y H x l Z M z.n.B.4XfXdXsXdXuXtX*XW.d.8.8.S./.(.(.",
"gXgXgXgXgXgXgXgXgXgXgXgXgXgXgXgXgXgXgXgX- < : : - : = : : : < d 9 l v ..Y ~ Q Y O.' c Z M v.c.M.=X;X8XsXsXsXiXqX|._.(././.(.(.(.",
"gXgXgXgXgXgXgXgXgXgXgXgXgXgXgXgXgXgXgXgX< - : > > > & - : s h d f l x ' O.@.I @.O.....o.%.-..XOX=X-X5X6XfXsXdXrX}._.)./.(.(././.",
"gXgXgXgXgXgXgXgXgXgXgXgXgXgXgXgXgXgXgXgX: - : > & $ & * s d f g g g l c ' [ [ } } } O.#.&.&.XX.XOXM.=X4X6XsXpXrX}._.(./././.(./.",
"gXgXgXgXgXgXgXgXgXgXgXgXgXgXgXgXgXgXgXgX< : : > & & & * s d f f g l l l x x c ' [ +.<.,.E E W XX.Xc.m.B.5XfXuX0X}._.(.S.(.(.(.(.",
"gXgXgXgXgXgXgXgXgXgXgXgXgXgXgXgXgXgXgXgX< < : : = & = : 3 d f f f f f f f g j _ {  .:.1.! ! W @X.Xk.c.M.=X-X;X*X{.).(.).)._._._.",
"gXgXgXgXgXgXgXgXgXgXgXgXgXgXgXgXgXgXgX7 1 7 7 8 8 8 8 7 7 3 s s s s s s s s f k {  .:.1.! / ^ 3.XX%..XoXOXOX&X&XW.R.)._.`.{.|. X",
"gXgXgXgXgXgXgXgXgXgXgXgXgXgXgXgXgX: < 7 7 9 w w e t e w 7 : ; * ; ; ; ; ; s h j `  .:.1.1.( ^ P.~ W .X%.N B j.f.a.R.).].|.0XeXeX",
"gXgXgXgXgXgXgXgXgXgXgXgXgXgXgXgX: : < 7 f g x ' } } F A 0 = # $ $ % $ & > < 1 k ` | :.1.! ! ^ ^ ^ ~ W U Z p i r.p.s._.{.rXeXuXuX",
"gXgXgXgXgXgXgXgXgXgXgXgXgXgXgXgX- : : 7 9 x c ] +.;.T F w , & & $ @ $ & > : h e `  .:.1.! ^ ^ ^ L.W W U p i i 9.i.8.).{.0XtXuXiX",
"gXgXgXgXgXgXgXgXgXgXgXgXgXgXgXgX- < : 7 9 x v O.+.,.:.P F w 1 = % $ $ & * 7 h _ }  .:.1.! ! ^ ~ W W W p p 9.9.w.6.8.E.].|.0XeXtX",
"gXgXgXgXgXgXgXgXgXgXgXgXgXgXgXgX- < < h h x v O.>.4.4.Y | F e 8 = & % & 3 7 w _ {  .:.1.! ^ ~ 2.&..X.Xu.y.w.i.6.7.8.(._.`.{.|.|.",
"gXgXgXgXgXgXgXgXgXgXgXgXgXgXgXgX< - : < 7 x v I Y ~ ^ 5.1.;.F e , * $ & 3 g c ' } | :.1.! ! ~ &..Xv.k.N.p.g.s.8.S.(.(.)._._._._.",
"gXgXgXgXgXgXgXgXgXgXgXgXgXgXgXgX- < < < f x ' O.E 5.( ( 1.:.| A 6 = % * 3 9 e ' {  .:.1.! ^ ~ K..Xj.l.C.g.R._._._._._.).).(.).S.",
"gXgXgXgXgXgXgXgXgXgXgXgXgXgXgXgX: : < 7 9 x t O.E 5.( ( 1.1.| D 0 & $ % * 3 9 c {  .:.R ! ^ W K.F.C.t.f.W.[.}.}.|.|.{.`._.(.(.(.",
"gXgXgXgXgXgXgXgXgXgXgXgXgXgXgXgX- < < 7 9 x v I W ( ( ( 5.:.| A 0 = @ @ % * 6 w ` | :.1.! ^ ~ K.F.Y.g.g.wXwXwXrXeXqXwX{.`.D.(./.",
"gXgXgXgXgXgXgXgXgXgXgXgXgXgXgXgX- : < 7 9 l v O.>.^ ( ( 5.:.| D 1 = @ o o & = 8 ` | :.1.! ^ P.J.T.R._.[.wXqXyXpXiXuXtX0X{._.(./.",
"gXgXgXgXgXgXgXgXgXgXgXgXgXgXgXgX: : : 3 3 u t L Y ~ ^ 5.5.,. .F 0 = $ @ @ = , r F  .:.1.! ^ P.I.T.E.`. XwXuXsXsXdXuXtX0X{._.(./.",
"gXgXgXgXgXgXgXgXgXgXgXgXgXgXgXgX& * * : 4 7 u t L I >.4.5.1.:.F r = $ & = , w D J :.1.1./ ( L.I.~.Q. XqXyXsXsXdXuXeXwX|._.'.(./.",
"gXgXgXgXgXgXgXgXgXgXgXgXgXgXgXgX$ & & & * ; 6 9 t o.I 3.E R E H r = $ = 6 e S J T R Q Q ! / L.U.~.rXtXyXuXdXdXuXqX|.{.`._.'.(.(.",
"gXgXgXgXgXgXgXgXgXgXgXgXgXgXgXgX$ $ @ $ $ % * 3 9 t ..I E / E H r = & 6 y H K T Q Q ^ / / / L.$X2X1XuXsXsXdXuXeX X`._.(.(.(.(.(.",
"gXgXgXgXgXgXgXgXgXgXgXgXgXgXgXgX$ $ $ @ @ $ % = 3 9 t L Y E Y H r = * 6 A | T R ! ^ ^ / / ^ L.$X2X2XsX9XsX8X;XwX|.{._.(.).(.S.(.",
"gXgXgXgXgXgXgXgXgXgXgXgXgXgXgXgXgX$ o # @ @ @ & 4 7 u y H H H D 6 $ = 6 A | 1.1.! ^ ^ / / ^ L.#X$X2X2X<X-X-X;X:X*XW.{.`._.(.(.(.",
"gXgXgXgXgXgXgXgXgXgXgXgXgXgXgXgXgXgXgX+ @ @ @ & = 7 7 w e y e 0 = & & 8 A | 1.1.! ^ ^ / / / L.L.#X$X$X%X+XOXB.:X:XwX0X|.`.).(.(.",
"gXgXgXgXgXgXgXgXgXgXgXgXgXgXgXgXgXgXgXgX@ @ $ & * : < 7 8 8 6 : & $ = 1 A | :.1.! ^ ^ / / / ) L.L.L.#X%XoXc.m.B.5X1XtX X{._.(./.",
"gXgXgXgXgXgXgXgXgXgXgXgXgXgXgXgXgXgXgXgX$ $ $ & & : : < < - : & @ & & 8 _ | :.1.Q ^ / L.L./ / ( ( ( ~ &.k.z.n.Z.4X1XuXeX}._.(./.",
"gXgXgXgXgXgXgXgXgXgXgXgXgXgXgXgXgXgXgXgX# + $ & & > : - - - & & $ @ & 1 S | :.1.! ^ / / / / / ) ) ) ~ U N z.b.Z.4X8XiXeX}._.(.S."
};
