/* XPM */
static char *cliff_10[] = {
/* columns rows colors chars-per-pixel */
"64 64 223 2 ",
"   c #3D343A",
".  c #463132",
"X  c #4C3332",
"o  c #493639",
"O  c #43393D",
"+  c #4D3B3C",
"@  c #483639",
"#  c #543634",
"$  c #593736",
"%  c #543A36",
"&  c #5B3A36",
"*  c #543B3B",
"=  c #5C3C39",
"-  c #543738",
";  c #462F30",
":  c #633E37",
">  c #623D39",
",  c #683F36",
"<  c #54423C",
"1  c #5C423C",
"2  c #584438",
"3  c #49563A",
"4  c #59513E",
"5  c #654037",
"6  c #6A4237",
"7  c #63433B",
"8  c #6C443A",
"9  c #654A3E",
"0  c #6B4B3D",
"q  c #7C4E36",
"w  c #72453A",
"e  c #744B3D",
"r  c #7C4B3C",
"t  c #78473C",
"y  c #74523E",
"u  c #7C533D",
"i  c #6A513F",
"p  c #55763B",
"a  c #4C693D",
"s  c #70703C",
"d  c #3C3A41",
"f  c #433D42",
"g  c #4A3D41",
"h  c #523F40",
"j  c #4C4142",
"k  c #524341",
"l  c #5B4641",
"z  c #5D4942",
"x  c #595B41",
"c  c #634942",
"v  c #6C4D40",
"b  c #644742",
"n  c #784E41",
"m  c #6A5341",
"M  c #735141",
"N  c #7C5441",
"B  c #7A5B43",
"V  c #4C6D42",
"C  c #587748",
"Z  c #577249",
"A  c #676749",
"S  c #786C47",
"D  c #67774B",
"F  c #7B7E4B",
"G  c #797949",
"H  c #6E7550",
"J  c #824E3D",
"K  c #884F3D",
"L  c #85523C",
"P  c #8C543E",
"I  c #885B3C",
"U  c #945A3B",
"Y  c #9B5D3E",
"T  c #92573D",
"R  c #8A603E",
"E  c #9C633C",
"W  c #98643B",
"Q  c #89783C",
"!  c #94773D",
"~  c #A6653D",
"^  c #A9663E",
"/  c #A46B3C",
"(  c #AD6C3D",
")  c #B26D3E",
"_  c #AD723C",
"`  c #AE7C3E",
"'  c #A3783D",
"]  c #B4733B",
"[  c #BA743B",
"{  c #B27C3D",
"}  c #BB7A3A",
"|  c #B17C37",
" . c #C17939",
".. c #835441",
"X. c #8C5641",
"o. c #845942",
"O. c #8B5B42",
"+. c #945A41",
"@. c #9B5D42",
"#. c #915640",
"$. c #8B6545",
"%. c #9D6242",
"&. c #996844",
"*. c #897B48",
"=. c #9C7E44",
"-. c #937B45",
";. c #A46342",
":. c #A86541",
">. c #AD6B40",
",. c #A46D44",
"<. c #A47C42",
"1. c #A97841",
"2. c #B07141",
"3. c #7DB91E",
"4. c #5D8831",
"5. c #6E9D2A",
"6. c #638937",
"7. c #6A9B3C",
"8. c #759139",
"9. c #75AC2E",
"0. c #76AB2B",
"q. c #7BB525",
"w. c #7FBA22",
"e. c #7BB22B",
"r. c #76B02C",
"t. c #6FA13B",
"y. c #75AA32",
"u. c #72A33B",
"i. c #78A934",
"p. c #7CB032",
"a. c #6DA126",
"s. c #5C824C",
"d. c #5C8656",
"f. c #6A8A4C",
"g. c #7C844D",
"h. c #75884B",
"j. c #6A9646",
"k. c #6B9C42",
"l. c #65914D",
"z. c #6B984A",
"x. c #759747",
"c. c #6C8652",
"v. c #648C53",
"b. c #6A8B54",
"n. c #648957",
"m. c #748E54",
"M. c #748150",
"N. c #6C9354",
"B. c #6B925A",
"V. c #689256",
"C. c #759B5A",
"Z. c #7C9C5A",
"A. c #769B57",
"S. c #79A843",
"D. c #7BA15E",
"F. c #7CA354",
"G. c #6FA04B",
"H. c #79A261",
"J. c #82BE1D",
"K. c #8DB91D",
"L. c #929136",
"P. c #AA8B33",
"I. c #97A528",
"U. c #81BB23",
"Y. c #85B929",
"T. c #88BA36",
"R. c #8BB731",
"E. c #83C317",
"W. c #85C21B",
"Q. c #88C41D",
"!. c #8AC324",
"~. c #8EC32B",
"^. c #86C123",
"/. c #90C52D",
"(. c #8FC036",
"). c #93C434",
"_. c #95C43A",
"`. c #98C53D",
"'. c #98C936",
"]. c #82834C",
"[. c #8B8249",
"{. c #848A4E",
"}. c #8A8946",
"|. c #978244",
" X c #9C8144",
".X c #938A4C",
"XX c #859454",
"oX c #869D57",
"OX c #828D50",
"+X c #A48041",
"@X c #84AD48",
"#X c #89B548",
"$X c #96BE49",
"%X c #8BAC5C",
"&X c #87A65A",
"*X c #8CB158",
"=X c #9DBE59",
"-X c #96B45B",
";X c #8CAB61",
":X c #83A360",
">X c #93AF61",
",X c #8FB062",
"<X c #92B363",
"1X c #99B761",
"2X c #9EBA65",
"3X c #A2BE63",
"4X c #9BC543",
"5X c #9EC54A",
"6X c #97C049",
"7X c #A0C64D",
"8X c #A2C94A",
"9X c #A2C653",
"0X c #A7C65B",
"qX c #A8C75E",
"wX c #ABCA5D",
"eX c #A9CB56",
"rX c #A4C164",
"tX c #ABC664",
"yX c #ADC963",
"uX c #ADC669",
"iX c #A8C269",
"pX c #B2CB68",
"aX c None",
/* pixels */
"W.W.W.W.W.W.W.J.E.E.!.).5X0X0X7X'.!.U.y.j.l.v.k.9.U.!.'.5XqXuXpXpXiX0X5X).^.E.E.E.J.W.W.W.W.W.W.W.W.W.W.E.J.E.E.W.K.W.W.W.W.W.W.",
"W.W.W.W.W.W.W.W.E.W.!._.7X0X0X8X'.!.U.y.7.l.l.k.9.U.!.).5X0XyXuXpXtX0X5X).!.W.E.W.W.W.W.W.W.W.W.W.W.W.W.W.W.E.W.W.E.W.W.W.W.W.W.",
"W.W.W.W.W.W.W.W.Q.U./.`.7X0X0X8X'.Y.U.0.7.j.j.7.y.e.Y.).4X7X0XtXuXyX0X5X`.~.!.^.W.W.W.W.W.W.W.W.W.W.W.Q.!.!.!.!.Q.W.W.W.W.W.W.W.",
"E.W.W.W.W.W.W.!.~.).`.7X0XwX0X5X'.U.J.3.y.u.7.t.u.i.p.T.6X6X5XeXtXtXtX9X5X`.).~.!.Q.W.W.W.W.W.W.E.W.J.!.~.)./.).!.Q.W.W.W.W.W.W.",
"E.E.W.E.E.E.Q.~.R.8X7X0XwXyXwX7X'.!.J.J.q.9.y.u.t.t.u.i.T._.4X5X0X0XtXtX0X5X4X_.~.!.W.W.W.W.W.W.E.J.Q.~._.4X4XT.~.Q.W.W.W.W.W.W.",
"Q.Q.W.W.W.Q.!.).4X9X0XpXtXtX0X5X'.!.J.J.W.U.q.i.k.j.z.k.i.Y./.'.5X0XtXtXtX0X9X4X).U.W.E.E.W.W.W.E.W.!.T.8X9X9X4X).!.W.W.W.W.W.W.",
"U.U.U.U.J.W.!._.8XeXyX3X3X=X=X$XT./.!.!.!.!.Y.p.k.l.l.k.y.U.!./.4X9X0XtX0X0X9X4X).!.W.E.E.W.W.W.Q.!./.`.7X0X0X7X_.!.W.W.W.W.W.W.",
"i.9.e.q.J.J.!.'.8XqX3X3X>X&X&X@X#X_.'.'.'.'.T.@Xz.V.l.k.y.w.!.~.'.4X5X7X7X5X4X_.~.Q.W.J.E.W.^.!.~.).`.7X0XqXqX7X_.!.J.E.W.W.W.W.",
"k.k.t.y.q.J.!.'.8XqX3X>XoXx.f.x.@X$X7X8X8X8X$X*XA.V.v.7.9.J.Q.!.~.).).)._.).).~.!.W.W.W.E.W.!.!._.4X7X0XtXtXqX7X_.!.W.E.W.W.W.W.",
"v.l.j.t.r.w.~.'.8XqX3X&Xh.C C x.@X=XqXqXwX0X=X%XC.b.l.k.y.U.W.Q.Q.!.!.!.!.!.^.!.Q.W.W.W.W.W.!.).4X9X0XtXtXtX0X7X_.!.W.W.W.W.W.W.",
"d.d.l.k.y.e.Y.(.$X=X-XXXh.p D f.oX-XrXrXtX3X1X;XZ.m.j.k.i.e.U.J.W.E.W.!.!.^.!.!.!.!.!.W.W.W.!.).7X0XtXyXtX0X9X4X).!.W.E.W.W.W.W.",
"d.d.v.z.k.u.p.@X#X%X%XXXF s s G XX:X,X,X<X,X%XoXXX{.}.}.8.i.9.q.w.J.E.!.~./.)._._.).).~.!.^.!._.7X0XtXtX0X7X4X_.~.U.W.W.J.W.W.W.",
"d.d.V.v.l.k.k.z.F.A.Z.{.*.Q Q *.OXZ.D.H.H.D.oXXX.X.X|.}.x.u.u.9.q.3.Q.!.).4X4X5X8X5X5X_.!.!.!.).7XqXtX0X7X`.).~.!.Q.W.W.E.W.W.W.",
"d.d.d.d.v.l.l.V.V.V.m.{.L.1.' =.].m.B.V.V.B.m.{.|.1.` |.g.h.j.u.r.w.!.).4X9X0XtXqXqX9X4X/.!.!.).7X0X0X7X`.~.U.Q.J.W.W.W.W.W.W.W.",
"c.c.V.b.c.c.c.b.v.c.g.[.+X2.] <.[.g.c.c.n.c.g.[.+X{ `  Xg.c.l.k.p.Y./.'.8XqXtXiXiXrX9X6X(.!.!.).4X7X9X4X).!.W.J.W.W.W.W.W.W.W.W.",
"].].{.].].].g.*.g.]..X+X2.P.} +X X[.].].g.].[. X{ } { =.*.n.V.z.S.(.4X5XeXyXtXiX2X<X*X#XT.^.!.~._.`.8XT.~.W.E.E.E.W.W.W.W.W.W.W.",
"+X X X X=. X=.=.<.=.<.1.P. .} P.1.+X! +X X+X+X+X} } P.<.g.c.V.A.*X$X8XeXwXuXiX3X;X&XF.S.R.U.Q.!.~.)./.~.!.W.E.E.E.W.W.W.W.W.W.W.",
"P.{ { { { { { { 2.2.{ { 2. .} } P.2.| | P.2.{ } } } 2.=.].c.V.D.%X=X0XyXyXtX3X<XH.C.A.u.i.U.W.Q.Q.!.!.U.Q.W.W.J.W.W.W.W.W.W.W.W.",
"[ ] ] { ] [ } [  .[  . . . .} [  .) ] _ _ _ ] [ [ [ { =.*.g.m.Z.%X1XrXrXtX3X1X:XC.n.l.7.9.U.W.Q.Q.!.!.!.!.!.!.Q.Q.J.W.W.W.W.W.W.",
"^ / _ ( ] [ [ [  .) ) ) 2. .) ( :.~ Y W W Y ~ / ( ] ] <.-.[.OXXX&X;X,X<X<X*X&XA.b.C s.6.a.3.W.!.~./._.'._._.).~.!.Q.W.W.W.W.W.W.",
"I W &.E :.( >.2.) ) ) ) ) >.:.@.U K J q q q L U E :.>.2.1.=..X.XXXZ.C.H.D.D.C.n.s.Z V 4.5.3.J.!.'.`.8X7X7X8X8X_.~.!.W.W.W.K.W.W.",
"B B u O.+.;.:.:.:.:.;.:.:.:.@.#.q 6 , , , , 6 q T @.:.>.2.{ 1.|.{.m.B.B.B.V.n.s.Z V p 4.5.q.Q.).4X9X0XtX0X0X9X4X).!.W.E.W.W.W.W.",
"0 0 M u ..T @.@.@.#.+.+.@.@.X...t 6 : > : , 6 q J T Y ~ ] ] { =.[.g.c.c.c.c.c.C V V p 4.y.Y.).`.7XqXtXuX3X3X3X$X(.!.W.W.E.W.W.W.",
"1 1 7 8 w t J J ....X.....N n n t w w w , w w t t J P U ~ ) { 1. X*.{.].].g.g.D C V s.6.i.T.'.8XeXyXuX3X3X>X*X#XT.U.W.E.W.W.W.W.",
"% % % % = : , 6 w w w 8 b b c v n ....K X...J t w , w K U ^ ) 2.<.<. X X+X|.-.G D C s.z.@X$X7XeXwXpXiX2X;X:XF.@XT.U.W.W.E.W.W.W.",
"X X X X # # $ & > > > = h k l v N X.@.@.@.@.#.t , > : 6 L Y :.>.2.` { { { { ' |.F c.v.A.%X=XqXwXyXtX3X<X:XC.z.k.9.U.Q.Q.E.Q.W.W.",
"% % % # X X X X - - * h < k z M X.@.@.;.;.@.#.r 6 # # : e P Y ~ ^ / _ { [ [ ` =.[.M.m.Z.%X1X3X3XrX=X>X&XZ.N.j.t.9.U.E.E.W.W.W.W.",
"6 6 5 & $ X X X o + * 1 4 i B o.+.@.;.;.%.+.O.t 5 # # & 6 e L L I W E / ( ] ] '  X[.OXoX&X;X;X;X&X&X@XF.x.k.u.9.q.U.Q.E.E.W.W.W.",
"L L r w : $ # o @ + j 9 y R W E ;.;.;.@.+.O.N M 5 $ # $ & : 5 0 0 M B O.E :.( 2.1.+X.X.XXXZ.C.C.b.f.f.7.8.9.r.q.U.J.W.W.Q.W.W.W.",
"Y U P J , > - o O f k m R E _ ( :.;.@.+.O.B M 8 5 & $ $ # # % * + k z M O.%.:.2.] 1.1. XOXm.n.C C C p 6.5.q.U.J.W.W.W.W.W.W.W.W.",
"Y @.X.J w > # o f f h m R / _ _ :.;.+.O...M v 7 1 = - # X . . . O f j c N #.%.~ ) [ 1.+X[.g.f.D p p p 6.5.0.U.^.Q.W.W.W.W.W.W.W.",
"P P J t , > # @ O f j c u R W E @.+.O...n v b 1 2 * + X . ; .     d f k b r P Y ( ] 2.1.-.[.*.S s s s s 8.y.e.q.J.J.W.W.W.W.W.W.",
"t t w , & $ X O O f j k i q L L I ....M v b > h + + < O . . ;     d f g l 8 n K Y :.>.>.1.<.=.! ! ! Q Q 8.8.u.y.q.W.E.E.W.W.W.W.",
", > > $ $ X . @ O f f g < 6 6 0 e M M w 8 > $ - j j d   @ . . @ f d g g h > , J T @.:.>.2.{ { { ] _ ' Q ].f.z.t.p.w.W.E.Q.E.W.W.",
"& & # # X X X @ O j j g + % = 5 0 v v 0 7 = $ h + f <   @ . . @ + g k h > > , n J #.@.:.( [ } }  .P.P.=.].c.l.G.i.^.~.!.Q.W.W.W.",
"$ $ # # # X X + < < < * + # # = 7 v v v > & - + f f   @     X # < z v b w n , J J K T #.~ ) [  . . .2.<.g.c.V.z.S._.(./.!.!.W.W.",
"$ $ $ # # # # * < 1 z < % X o 2 9 m 0 0 > = - + g f f     ; X % b n ......X...t , ..J #.Y ^ )  . . .{  X].c.V.C.%X$X4X`./.!.Q.E.",
"$ $ $ $ $ $ * > c c 9 1 % # # % 7 0 v 0 7 = $ h g f f d   @ # 5 n X.+.@.@.@.#...n w , t P ;.:.)  . .] =.].c.B.C.%X9X9X4X/.!.W.E.",
"= > = > > > 8 8 e M y 9 & o X % 1 0 0 0 7 > = * + f O O X % & w #.@.;.:.;.@.#..., > > b J #.@.^ >. .2.=.*.c.b.H.:X1X9X6X).^.W.W.",
"> > 7 > 8 w t u ....u e : % $ $ 1 7 0 7 7 7 2 < + + O * % 5 q L Y :.>.:.;.@.X.t b = h > , J P Y :.>.1.-.M.c.B.B.H.;X*X#X(.^.W.E.",
"b b 0 w n J X.#.+.+.X.r 8 & # $ & = 7 b 7 9 7 1 + @ % 2 8 r L E ^ ) ) ( &.$.N v l * g * > 8 r P @.;.,.*.F n.d.B.B.H.Z.S.T.Y.W.E.",
"v M M N O.+.@.@.@.@.+.J w > $ $ & = > 7 8 v 9 1 * X X 7 e P @.^ ) ) ] / W u M c k j g g * = 8 J #.%.%.*.F b.n.d.n.B.z.S.e.U.E.E.",
"M B N O.@.@.;.;.;.@.+.n 8 = $ > = : 8 8 e M M 7 % # $ 5 t #.%.( ) | ( E I y v 1 k j g g + $ : t #.@.%.&.*.M.f.c.V.v.j.u.e.U.Q.E.",
"..O.O.+.:.>.^ :.@.#.J w 7 = h h : w n r ..o.N w : $ % 5 r I @.%./ / W R u 0 1 2 l k j + o # & 6 ..@.&.,.*.*.{.x.j.k.u.y.q.U.Q.E.",
"+.+.W ~ ( 2.) ~ U J w 1 h g h l v ..#.#.+.+.X.u , = $ : w N O.O.R R I u 0 2 2 2 l z z < o X $ 6 ..@.;.:.,.=.|.}.L.i.r.q.U.^.W.W.",
"@.@.%.( ] ] _ E L 8 = = g g h b n X.@.@.;.@.#...w > = > 0 M B N o.B y 0 2 # X 2 1 9 9 1 % # $ 6 t #.:.:.( ] P.P.I.Y.w.^.W.W.W.W.",
"+.@.Y ~ ( _ / U q : - + g g h c n #.+.@.@.+.X.J 8 > = 1 7 0 M M 0 v 0 1 % X # % 9 y y 0 1 & : 6 t #.@.:.) [ P.I.I.U.W.E.W.W.W.W.",
"X.X.P U U W U q 6 $ # + * h l b n t J ......n v 8 > = = 7 7 b b 0 9 7 = X X X 5 0 L N u e 6 6 6 t J K @.^ ) } P.I.K.E.E.W.W.E.E.",
"w t t t J J t 6 : X X # 2 1 z 9 8 8 6 7 0 c b 1 = = = = > > > > 7 5 = $ X ; X 5 r X.#.+.P J J e , 6 w K T ~ _ P.I.J.E.E.E.E.E.E.",
"> > : , , > : & # # # % 1 0 i 9 1 % % + + k k k = * & & $ = = > & = & # X X % 5 r #.@.%.@.Y P r , > , 6 K @./ P.I.K.W.E.Q.Q.W.W.",
"$ $ $ $ $ $ # # X X # 2 9 0 9 9 & X . @ O f f g h $ & $ $ = & & & & $ X X X # : r X.@.@.@.@.X.r : # # , J T &.P.L.Y.q.U.^.!.!.!.",
"# X # # # X X X ; ; X % 9 0 i 7 % . .     d d g g $ & $ & $ $ $ $ $ $ $ X # # : 8 r L X.+.+.I e : X X , J +.&.! L.a.i.T.T.).).'.",
"X X X X X X X X . aXaXaXaXaXaXaXaXaXaXaXaXaXaXaXaXaXaXaXaXaXaX& $ $ $ $ $ # # & : 5 6 r L ..N 0 $ X # : J U &.-.].x.S.S.#X6X5X5X",
"X ; ; X X ; ; X aXaXaXaXaXaXaXaXaXaXaXaXaXaXaXaXaXaXaXaXaXaXaXaX$ = $ $ $ $ $ # # # & 7 0 e y 7 & X # , J U &.*.F x.z.F.*X9XqXwX",
"; ; ; ; ; ; ; X aXaXaXaXaXaXaXaXaXaXaXaXaXaXaXaXaXaXaXaXaXaXaXaX& $ $ & & $ # # X ; X 2 7 9 0 7 % # % , J T %.$.G c.B.D.,XrXtXyX",
"; ; ; ; ; ; ; aXaXaXaXaXaXaXaXaXaXaXaXaXaXaXaXaXaXaXaXaXaXaXaXaXaX& & & & & $ # ; ; X X 2 7 7 1 % % % 6 t L O.S H n.B.H.,XrXpXpX",
"aXaXaXaXaXaXaXaXaXaXaXaXaXaXaXaXaXaXaXaXaXaXaXaXaXaXaXaXaXaXaXaXaXaXaXaXaXaXaXX X ; ; X & = > = & $ = 5 w N B S H D B.H.<X3XpXpX",
"aXaXaXaXaXaXaXaXaXaXaXaXaXaXaXaXaXaXaXaXaXaXaXaXaXaXaXaXaXaXaXaXaXaXaXaXaXaXaXaX; ; X # % & & $ $ $ = : 0 M B A D n.b.H.<X3XuXpX",
"aXaXaXaXaXaXaXaXaXaXaXaXaXaXaXaXaXaXaXaXaXaXaXaXaXaXaXaXaXaXaXaXaXaXaXaXaXaXaXaX; ; ; X # $ $ $ $ $ & = 7 0 m A A C B.C.%X1X3XrX",
"aXaXaXaXaXaXaXaXaXaXaXaXaXaXaXaXaXaXaXaXaXaXaXaXaXaXaXaXaXaXaXaXaXaXaXaXaXaXaXaXaX; X # X # # X # # $ = 7 7 i 4 x C d.V.A.%X%X<X",
"aXaXaXaXaXaXaXaXaXaXaXaXaXaXaXaXaXaXaXaXaXaXaXaXaXaXaXaXaXaXaXaXaXaXaXaXaXaXaXaXaXaXaX# X X X X . X # $ & = 1 4 x V C d.b.A.Z.D.",
"aXaXaXaXaXaXaXaXaXaXaXaXaXaXaXaXaXaXaXaXaXaXaXaXaXaXaXaXaXaXaXaXaXaXaXaXaXaXaXaXaXaXaXaX; ; X X ; X ; # $ & 1 4 3 V V V d.n.N.B.",
"aXaXaXaXaXaXaXaXaXaXaXaXaXaXaXaXaXaXaXaXaXaXaXaXaXaXaXaXaXaXaXaXaXaXaXaXaXaXaXaXaXaXaXaX; ; ; ; ; ; X X # % 2 < 3 3 V V C d.n.n.",
"aXaXaXaXaXaXaXaXaXaXaXaXaXaXaXaXaXaXaXaXaXaXaXaXaXaXaXaXaXaXaXaXaXaXaXaXaXaXaXaXaXaXaXaX; ; ; ; ; ; X X # X % @ 3 3 V V C s.d.d."
};
