/* XPM */
static char *cliff_02[] = {
/* columns rows colors chars-per-pixel */
"64 64 214 2 ",
"   c #4D3333",
".  c #533635",
"X  c #553A36",
"o  c #593937",
"O  c #5C3A39",
"+  c #633E3A",
"@  c #613E36",
"#  c #5E413A",
"$  c #65423C",
"%  c #6A433B",
"&  c #6A4A3F",
"*  c #66483E",
"=  c #73473B",
"-  c #76493D",
";  c #79493D",
":  c #7E503F",
">  c #577838",
",  c #787538",
"<  c #60723F",
"1  c #6D4D40",
"2  c #734D40",
"3  c #7E4F40",
"4  c #6F5041",
"5  c #735242",
"6  c #7B5442",
"7  c #7F5845",
"8  c #587946",
"9  c #7F7E51",
"0  c #824E3E",
"q  c #84513E",
"w  c #8A533E",
"e  c #95593E",
"r  c #957738",
"t  c #A86A3E",
"y  c #B46E3E",
"u  c #AC7A3C",
"i  c #A8753E",
"p  c #B27E37",
"a  c #B5723D",
"s  c #BA733D",
"d  c #B37D3C",
"f  c #BC793A",
"g  c #B97F37",
"h  c #C17A37",
"j  c #C27A39",
"k  c #C17738",
"l  c #835543",
"z  c #8C5341",
"x  c #845944",
"c  c #8C5B44",
"v  c #925741",
"b  c #945C44",
"n  c #9C5D43",
"m  c #A15F44",
"M  c #9B6143",
"N  c #946545",
"B  c #847C4C",
"V  c #887947",
"C  c #9C7E43",
"Z  c #92724B",
"A  c #987849",
"S  c #8F6645",
"D  c #A46344",
"F  c #AA6445",
"G  c #AC6A41",
"H  c #A56D49",
"J  c #A16B44",
"K  c #B36C41",
"L  c #A27D42",
"P  c #A97F40",
"I  c #5D8A2E",
"U  c #5C8230",
"Y  c #64872F",
"T  c #699A2B",
"R  c #79962B",
"E  c #638935",
"W  c #6B9C3C",
"Q  c #75993C",
"!  c #71A42B",
"~  c #75AD2E",
"^  c #7BAC2B",
"/  c #7CB425",
"(  c #7BB22B",
")  c #7EBB22",
"_  c #6FA03B",
"`  c #74A933",
"'  c #7AAC32",
"]  c #71A23B",
"[  c #74A736",
"{  c #7CB133",
"}  c #5D8754",
"|  c #6B8949",
" . c #708D4B",
".. c #7A844A",
"X. c #699747",
"o. c #6A9C42",
"O. c #64914D",
"+. c #6D9A4D",
"@. c #779642",
"#. c #6B8653",
"$. c #618C53",
"%. c #688D56",
"&. c #748D55",
"*. c #758250",
"=. c #6F9850",
"-. c #6A9159",
";. c #679057",
":. c #7B9D5C",
">. c #739958",
",. c #74A342",
"<. c #7DAC43",
"1. c #7CA354",
"2. c #799D60",
"3. c #82BE1E",
"4. c #90BD1E",
"5. c #949E28",
"6. c #898C39",
"7. c #9A8636",
"8. c #909A31",
"9. c #899134",
"0. c #A6962D",
"q. c #A68736",
"w. c #B68436",
"e. c #BB843D",
"r. c #B28735",
"t. c #AA9532",
"y. c #B5993B",
"u. c #86A827",
"i. c #98A828",
"p. c #82BC22",
"a. c #86B728",
"s. c #91B928",
"d. c #90BA27",
"f. c #82AC3E",
"g. c #81B532",
"h. c #8ABD34",
"j. c #8ABB38",
"k. c #9BBA35",
"l. c #A0AA2C",
"z. c #A7AE35",
"x. c #83C217",
"c. c #85C21B",
"v. c #88C41D",
"b. c #8AC324",
"n. c #8EC32C",
"m. c #87C121",
"M. c #90C42D",
"N. c #8FC135",
"B. c #93C435",
"V. c #94CA35",
"C. c #95C43A",
"Z. c #99C63D",
"A. c #98C034",
"S. c #83844D",
"D. c #878748",
"F. c #958345",
"G. c #9C8243",
"H. c #898854",
"J. c #859857",
"K. c #989252",
"L. c #AA8846",
"P. c #BB8D44",
"I. c #B79749",
"U. c #A48350",
"Y. c #A39C57",
"T. c #83A94F",
"R. c #8BB646",
"E. c #8BBB46",
"W. c #95BE49",
"Q. c #82A55C",
"!. c #89AB58",
"~. c #95A85D",
"^. c #8DB257",
"/. c #9EBE5A",
"(. c #93B657",
"). c #ADAE43",
"_. c #B0AC4E",
"`. c #A4BF47",
"'. c #ABA452",
"]. c #B4AA56",
"[. c #A3B25D",
"{. c #AABC56",
"}. c #B2B65C",
"|. c #8DAE61",
" X c #83A361",
".X c #90AF63",
"XX c #93B362",
"oX c #9DBC64",
"OX c #9BB964",
"+X c #8DB362",
"@X c #A2BE64",
"#X c #AEBE60",
"$X c #B3B860",
"%X c #9CC544",
"&X c #9DC54B",
"*X c #9ECA4A",
"=X c #98C245",
"-X c #9AC255",
";X c #A0C64D",
":X c #A2C94C",
">X c #A2C652",
",X c #A6C956",
"<X c #A6C65B",
"1X c #A8C75D",
"2X c #A7C95A",
"3X c #AAC95D",
"4X c #A9CB56",
"5X c #A4C264",
"6X c #ABC665",
"7X c #ACC963",
"8X c #ADC769",
"9X c #A4C169",
"0X c #B1C467",
"qX c None",
/* pixels */
"qXqXqXqXqXqXqXqXqXqXqXqXqXqXqXqXqXqXqXqXqXqXqXqXqXqXqXqXqXqXqXqXqXqXqXqXqXqXqXqXqXqXqXqXqXqXqXqXqXqXqXqXqXqXqXqXqXqXqXqXqXqXqXqX",
"qXqXqXqXqXqXqXqXqXqXqXqXqXqXqXqXqXqXqXqXqXqXqXqXqXqXqXqXqXqXqXqXqXqXqXqXqXqXqXqXqXqXqXqXqXqXqXqXqXqXqXqXqXqXqXqXqXqXqXqXqXqXqXqX",
"qXqXqXqXqXqXqXqXqXqXqXqXqXqXqXqXqXqXqXqXqXqXqXqXqXqXqXqXqXqXqXqXqXqXqXqXqXqXqXqXqXqXqXqXqXqXqXqXqXqXqXqXqXqXqXqXqXqXqXqXqXqXqXqX",
"qXqXqXqXqXqXqXqXqXqXqXqXqXqXqXqXqXqXqXqXqXqXqXqXqXqXqXqXqXqXqXqXqXqXqXqXqXqXqXqXqXqXqXqXqXqXqXqXqXqXqXqXqXqXqXqXqXqXqXqXqXqXqXqX",
"qXqXqXqXqXqXqXqXqXqXqXqXqXqXqXqXqXqXqXqXqXqXqXqXqXqXqXqXqXqXqXqXqXqXqXqXqXqXqXqXqXqXqXqXqXqXqXqXqXqXqXqXqXqXqXqXqXqXqXqXqXqXqXqX",
"qXqXqXqXqXqXqXqXqXqXqXqXqXqXqXqXqXqXqXqXqXqXqXqXqXqXqXqXqXqXqXqXqXqXqXqXqXqXqXqXqXqXqXqXqXqXqXqXqXqXqXqXqXqXqXqXqXqXqXqXqXqXqXqX",
"qXqXqXqXqXqXqXqXqXqXqXqXqXqXqXqXqXqXqXqXqXqXqXqXqXqXqXqXqXqXqXqXqXqXqXqXqXqXqXqXqXqXqXqXqXqXqXqXqXqXqXqXqXqXqXqXqXqXqXqXqXqXqXqX",
"qXqXqXqXqXqXqXqXqXqXqXqXqXqXqXqXqXqXqXqXqXqXqXqXqXqXqXqXqXqXqXqXqXqXqXqXqXqXqXqXqXqXqXqXqXqXqXqXqXqXqXqXqXqXqXqXqXqXqXqXqXqXqXqX",
"qXqXqXqXqXqXqXqXqXqXqXqXqXqXqXqXqXqXqXqXqXqXqXqXqXqXqXqXqXqXqXqXqXqXqXqXqXqXqXqXqXqXqXqXqXqXqXqXqXqXqXqXqXqXqXqXqXqXqXqXqXqXqXqX",
"qXqXqXqXqXqXqXqXqXqXqXqXqXqXqXqXqXqXqXqXqXqXqXqXqXqXqXqXqXqXqXqXqXqXqXqXqXqXqXqXqXqXqXqXqXqXqXqXqXqXqXqXqXqXqXqXqXqXqXqXqXqXqXqX",
"qXqXqXqXqXqXqXqXqXqXqXqXqXqXqXqXqXqXqXqXqXqXqXqXqXqXqXqXqXqXqXqXqXqXqXqXqXqXqXqXqXqXqXqXqXqXqXqXqXqXqXqXqXqXqXqXqXqXqXqXqXqXqXqX",
"qXqXqXqXqXqXqXqXqXqXqXqXqXqXqXqXqXqXqXqXqXqXqXqXqXqXqXqXqXqXqXqXqXqXqXqXqXqXqXqXqXqXqXqXqXqXqXqXqXqXqXqXqXqXqXqXqXqXqXqXqXqXqXqX",
"qXqXqXqXqXqXqXqXqXqXqXqXqXqXqXqXqXqXqXqXqXqXqXqXqXqXqXqXqXqXqXqXqXqXqXqXqXqXqXqXqXqXqXqXqXqXqXqXqXqXqXqXqXqXqXqXqXqXqXqXqXqXqXqX",
"qXqXqXqXqXqXqXqXqXqXqXqXqXqXqXqXqXqXqXqXqXqXqXqXqXqXqXqXqXqXqXqXqXqXqXqXqXqXqXqXqXqXqXqXqXqXqXqXqXqXqXqXqXqXqXqXqXqXqXqXqXqXqXqX",
"qXqXqXqXqXqXqXqXqXqXqXqXqXqXqXqXqXqXqXqXqXqXqXqXqXqXqXqXqXqXqXqXqXqXqXqXqXqXqXqXqXqXqXqXqXqXqXqXqXqXqXqXqXqXqXqXqXqXqXqXqXqXqXqX",
"qXqXqXqXqXqXqXqXqXqXqXqXqXqXqXqXqXqXqXqXqXqXqXqXqXqXqXqXqXqXqXqXqXqXqXqXqXqXqXqXqXqXqXqXqXqXqXqXqXqXqXqXqXqXqXqXqXqXqXqXqXqXqXqX",
"qXqXqXqXqXqXqXqXqXqXqXqXqXqXqXqXqXqXqXqXqXqXqXqXqXqXqXqXqXqXqXqXqXqXqXqXqXqXqXqXqXqXqXqXqXqXqXqXqXqXqXqXqXqXqXqXqXqXqXqXqXqXqXqX",
"qXqXqXqXqXqXqXqXqXqXqXqXqXqXqXqXqXqXqXqXqXqXqXqXqXqXqXqXqXqXqXqXqXqXqXqXqXqXqXqXqXqXqXqXqXqXqXqXqXqXqXqXqXqXqXqXqXqXqXqXqXqXqXqX",
"qXqXqXqXqXqXqXqXqXqXqXqXqXqXqXqXqXqXqXqXqXqXqXqXqXqXqXqXqXqXqXqXqXqXqXqXqXqXqXqXqXqXqXqXqXqXqXqXqXqXqXqXqXqXqXqXqXqXqXqXqXqXqXqX",
"qXqXqXqXqXqXqXqXqXqXqXqXqXqXqXqXqXqXqXqXqXqXqXqXqXqXqXqXqXqXqXqXqXqXqXqXqXqXqXqXqXqXqXqXqXqXqXqXqXqXqXqXqXqXqXqXqXqXqXqXqXqXqXqX",
"qXqXqXqXqXqXqXqXqXqXqXqXqXqXqXqXqXqXqXqXqXqXqXqXqXqXqXqXqXqXqXqXqXqXqXqXqXqXqXqXqXqXqXqXqXqXqXqXqXqXqXqXqXqXqXqXqXqXqXqXqXqXqXqX",
"qXqXqXqXqXqXqXqXqXqXqXqXqXqXqXqXqXqXqXqXqXqXqXqXqXqXqXqXqXqXqXqXqXqXqXqXqXqXqXqXqXqXqXqXqXqXqXqXqXqXqXqXqXqXqXqXqXqXqXqXqXqXqXqX",
"qXqXqXqXqXqXqXqXqXqXqXqXqXqXqXqXqXqXqXqXqXqXqXqXqXqXqXqXqXqXqXqXqXqXqXqXqXqXqXqXqXqXqXqXqXqXqXqXqXqXqXqXqXqXqXqXqXqXqXqXqXqXqXqX",
"qXqXqXqXqXqXqXqXqXqXqXqXqXqXqXqXqXqXqXqXqXqXqXqXqXqXqXqXqXqXqXqXqXqXqXqXqXqXqXqXqXqXqXqXqXqXqXqXqXqXqXqXqXqXqXqXqXqXqXqXqXqXqXqX",
"qXqXqXqXqXqXqXqXqXqXqXqXqXqXqXqXqXqXqXqXqXqXqXqXqXqXqXqXqXqXqXqXqXqXqXqXqXqXqXqXqXqXqXqXqXqXqXqXqXqXqXqXqXqXqXqXqXqXqXqXqXqXqXqX",
"qXqXqXqXqXqXqXqXqXqXqXqXqXqXqXqXqXqXqXqXqXqXqXqXqXqXqXqXqXqXqXqXqXqXqXqXqXqXqXqXqXqXqXqXqXqXqXqXqXqXqXqXqXqXqXqXqXqXqXqXqXqXqXqX",
"qXqXqXqXqXqXqXqXqXqXqXqXqXqXqXqXqXqXqXqXqXqXqXqXqXqXqXqXqXqXqXqXqXqXqXqXqXqXqXqXqXqXqXqXqXqXqXqXqXqXqXqXqXqXqXqXqXqXqXqXqXqXqXqX",
"qXqXqXqXqXqXqXqXqXqXqXqXqXqXqXqXqXqXqXqXqXqXqXqXqXqXqXqXqXqXqXqXqXqXqXqXqXqXqXqXqXqXqXqXqXqXqXqXqXqXqXqXqXqXqXqXqXqXqXqXqXqXqXqX",
"qXqXqXqXqXqXqXqXqXqXqXqXqXqXqXqXqXqXqXqXqXqXqXqXqXqXqXqXqXqXqXqXqXqXqXqXqXqXqXqXqXqXqXqXqXqXqXqXqXqXqXqXqXqXqXqXqXqXqXqXqXqXqXqX",
"qXqXqXqXqXqXqXqXqXqXqXqXqXqXqXqXqXqXqXqXqXqXqXqXqXqXqXqXqXqXqXqXqXqXqXqXqXqXqXqXqXqXqXqXqXqXqXqXqXqXqXqXqXqXqXqXqXqXqXqXqXqXqXqX",
"qXqXqXqXqXqXqXqXqXqXqXqXqXqXqXqXqXqXqXqXqXqXqXqXqXqXqXqXqXqXqXqXqXqXqXqXqXqXqXqXqXqXqXqXqXqXqXqXqXqXqXqXqXqXqXqXqXqXqXqXqXqXqXqX",
"qXqXqXqXqXqXqXqXqXqXqXqXqXqXqXqXqXqXqXqXqXqXqXqXqXqXqXqXqXqXqXqXqXqXqXqXqXqXqXqXqXqXqXqXqXqXqXqXqXqXqXqXqXqXqXqXqXqXqXqXqXqXqXqX",
"qXqXqXqXqXqXqXqXqXqXqXqXqXqXqXqXqXqXqXqXqXqXqXqXqXO + O O O O O O O O O O O O O O O O O O O O O O O O O O + O O O O O O O O O O ",
"qXqXqXqXqXqXqXqXqXqXqXqXqXqXqXqXqXqXqXqXqXqXqXqXO O O O + O O O O O O O O O O O O O O O O O O O O O O O O O O O + O O O O O O O ",
"qXqXqXqXqXqXqXqXqXqXqXqXqXqXqXqXqXqXqXqXqXqXqXqXO o O O O O O + + O O O + O + + + + % + + + + + + + O + @ O O o O O + O + O + + ",
"qXqXqXqXqXqXqXqXqXqXqXqXqXqXqXqXqXqXqXqXqXqXqXO o . . . o O O O + $ * $ 1 + 1 % = - ; 2 ; ; ; ; ; ; = % @ O . o O + + 1 + 1 + + ",
"+ O O O O O . O O O O O O . O . O o O O O O O . .     . o o O + # 1 1 1 1 1 1 2 3 l z z z z z z v z z = O O . . O 1 1 1 1 1 1 1 ",
"O O O O O + O O O O O O @ + O + O O O O O O O . .     . X O + $ 1 1 1 4 1 1 2 6 b b n m n m n n m m v ; + O . @ # 1 1 5 5 5 5 1 ",
"+ + + + + + + + + + + $ + + + + + + + + + O . X . . . . o O $ & 1 2 7 7 6 7 l c b D F m F F F F F F n z + + + + 1 4 5 6 1 1 1 1 ",
"$ + + 1 = ; ; ; z + 3 2 - ; 3 ; ; 3 2 + O o . X X o O O # $ * & 6 x x x x c c b m D F F F F F F F F m z z + + 0 6 l x 6 1 1 # 1 ",
"1 1 1 2 3 z z z z z z z z z z z v z 0 + + @ . . # # * * * & & 6 l c b b n b n n D D F F F F F F F F D n v z l z c b c : & # X X ",
"1 1 6 l c b n n D M n n n n m m m m v 0 + @ . o * & & 4 4 5 : 7 b n D D m m D D D D F F D F D F F D D D n n n D D n b q % #     ",
"5 6 l c n D F F G F F F F F F F m m m z = @ o @ & & 5 5 5 5 7 c M D F F F K F F F F F F F F F F F F F F F F K G F F D w = # X   ",
"x c c b D K K K K K G K F F F F F F m v 0 = % = & 5 5 7 7 S S N J G K K y K K K K K K K K K K K G y K y K K K K K K F e q = % % ",
"b b n D H K s f s s K K K F F F m F m n e w 0 0 : 5 5 7 x b n t G K a s s s s s K K s s K s K a y s s s s s s K s y y t e q 0 0 ",
"D M D G K s g s f f s s K F D F F F F D m n n w 7 6 7 7 b n m F K s s f f f f f f j s s s f f s s s f f f f s g f f a K t t e e ",
"J i G i s f f j j e.s K H F H H H H H H H H M S S 7 w S b F t y s f f g d d d P L.d d w.r.w.w.w.e.e.e.f f j j f f j k K y F t t ",
"7.7.7.q.w.g j j j j f P H Z Z A A U.U.U.A Z Z S S S e e F t y s f f f e.P L C C L C G.q.t.t.t.y.y.I.I.P.e.e.h h j j k s k s K y ",
"u.5.5.0.r.w.j j j j f L Z B 9 H.K.Y.Y.K.H.B B V Z t t t y y s k k j d u C D.S...S.S.D.6.8.i.i.z.)._.'.I.P.f j j j j j j f s K s ",
"4.u.i.5.t.w.f j j j d L B *.&.J.~.@X@X~.J.&.*.B A u a f s s f f f g d G.D.*.#.%.#.#. .Q ' a.s.k.`.{.}.].P.P.j f j f f f f f f j ",
"b.b.d.i.0.r.w.g g d P F.H.&.>.Q.XX5X@X|.2.%.8 S.7.q.w.w.r.P.P.e.f w.u F.D. .$.$.} $.O.W ' a.n.V.:X<X}.}.I.I.e.g d f u u g w.w.w.",
"V.M.A.k.i.0.t.q.q.G.F.H.J.:.1.+XoX5X@X~.>.} 8 ..6.0.0.y.y.I.P.P.U.G.C D.@.@.o.X.$.} } W ~ ) b.V.*X1X6X}.].I.I.L.r r r r 7.0.0.t.",
"*X*X%Xk.k.i.i.8.6.D.S.J.J.!.XXoX6X6XoXQ.#.8 8 E R 5.i.z.).].'.Y.K.S...Q Q [ [ o.O.$.$.o.~ ) m.V.*X1X6X0X}.].'.F.V , , R 9.5.i.4.",
"1X2X>X%Xk.s.a.' Q  .&.:.~.OX5X6X0X6X/.Q.| 8 > U T u.s.A.`.<X[..XJ.&. .@.' ( ( [ o.O.O.o.~ p.b.B.%X<X7X0X0X#X[.J.9 < < Y R u.4.4.",
"7X8X3X;XZ.M.g.` o.O.-.2.+X5X6X7X7X3X(.T.| > > I T ^ a.C.:X<X@XXX X>.=.,.( p.) ( ] X.X.] ~ ) m.B.%X>X3X7X7X7X@XT.| > > E ! p.4.v.",
"8X8X7X,X*XZ.N.<.+.%.-.2..X5X7X3X4X;XW.f.W I I I T ~ { E.{.<X9XOX+XQ.1.<.{ m.p.) ` ] ] ` ( 3.v.n.B.%X;X,X7X7X@X^.o.I I T u.h.V.A.",
"8X8X7X3X,X-X-XT.=.;.;.2..X5X6X4X:XZ.h.a.^ ! T T W o.,.T.(.5X8X@XOXXX^.E.h.m.3.3./ ( ~ / ) 3.c.m.n.B.Z.&X,X5X<X(.f.! ! ' j.=X*X:X",
"8X6X6X3X3X<X-X!.>.-.%.:.|.@X1X:XZ.M.m.v.3./ / [ W X.>.1.XX@X6X6X9X5X/.W.N.m.c.3.3.3.p.p.3.c.c.v.v.b.n.Z.;X<X<X&Xj.a.a.j.=X>X2X1X",
"1X1X2X3X1X2X{.^.1.=.=.1.^./.>X%XB.b.c.x.x.c.p./ _ X.=.1.^./.<X7X7X6X1X&XB.b.c.x.c.c.v.m.m.b.b.v.c.v.m.B.%X>X>X&XC.n.n.j.W./.oX@X",
"&X%X&X&X*X&XW.R.R.] ,.<.R.W.%XZ.n.v.c.x.x.x.3.( ~ ] ,.<.R.W.;X,X3X7X3X:XC.b.c.x.x.c.v.b.n.B.B.n.m.c.m.n.B.%X%X%XZ.Z.C.W.(.^.XX.X",
"B.B.B.B.B.B.C.h.g.{ { g.h.B.B.n.m.v.c.x.x.c.3.p./ ~ { g.h.h.Z.:X,X1X1X;XC.b.v.x.x.c.m.n.Z.%X=XZ.n.m.m.m.n.n.Z.Z.%X&X&X(.!.Q.:.:.",
"b.b.n.b.b.b.p.b.p.p.p.p.p.m.m.v.v.c.c.c.c.c.c.c.p.) p.p.m.p.M.Z.;X1X1X&XB.b.3.x.x.c.m.B.%X>X>X%XB.m.v.c.v.m.n.B.*X>X/.XXQ.>.-.-.",
"v.c.c.c.c.c.c.v.c.c.c.c.c.c.v.c.c.c.c.c.c.c.c.c.c.c.c.c.c.c.b.B.:X<X<X;XC.b.c.x.x.c.b.C.&X<X<X&XC.b.c.x.x.c.b.B.&X<X@X.X2.-.$.} ",
"3.x.x.x.x.x.x.x.x.v.x.x.x.x.x.3.c.c.c.c.c.c.v.x.v.x.x.x.x.c.m.B.&X<X<X&XC.b.c.x.x.c.b.Z.&X<X<X>XC.m.c.x.x.c.b.B.:X1X@X.X2.-.} 8 "
};
