/* XPM */
static char *grass_light_02[] = {
/* columns rows colors chars-per-pixel */
"64 64 86 1 ",
"  c #83C218",
". c #84C218",
"X c #84C219",
"o c #84C21A",
"O c #85C21A",
"+ c #85C21B",
"@ c #85C21C",
"# c #86C21C",
"$ c #86C21D",
"% c #87C21E",
"& c #87C21F",
"* c #88C220",
"= c #88C221",
"- c #88C222",
"; c #89C222",
": c #89C323",
"> c #89C324",
", c #8AC324",
"< c #8AC325",
"1 c #8BC326",
"2 c #8DC32A",
"3 c #8DC32B",
"4 c #8EC32B",
"5 c #8EC32C",
"6 c #8FC32D",
"7 c #8FC32E",
"8 c #90C330",
"9 c #91C431",
"0 c #91C432",
"q c #91C433",
"w c #92C433",
"e c #92C434",
"r c #93C435",
"t c #93C436",
"y c #94C437",
"u c #94C438",
"i c #95C438",
"p c #95C439",
"a c #96C43A",
"s c #96C43B",
"d c #97C43D",
"f c #98C43F",
"g c #99C542",
"h c #9AC543",
"j c #9AC544",
"k c #9BC544",
"l c #9CC546",
"z c #9DC548",
"x c #9DC549",
"c c #9EC54A",
"v c #9EC54B",
"b c #9FC54C",
"n c #9FC54D",
"m c #A0C54E",
"M c #A0C54F",
"N c #A1C650",
"B c #A2C652",
"V c #A2C653",
"C c #A4C656",
"Z c #A5C658",
"A c #A6C659",
"S c #A6C65A",
"D c #A7C65B",
"F c #A7C65C",
"G c #A8C65D",
"H c #A8C65E",
"J c #A8C75E",
"K c #A9C75E",
"L c #A9C75F",
"P c #AAC760",
"I c #AAC761",
"U c #AAC762",
"Y c #ABC762",
"T c #ABC763",
"R c #ABC764",
"E c #ACC764",
"W c #ACC765",
"Q c #ACC766",
"! c #ADC767",
"~ c #ADC768",
"^ c #AEC768",
"/ c #AEC769",
"( c #AFC76A",
") c #AFC76B",
"_ c #B0C76C",
"` c #B0C86D",
/* pixels */
"++++++++++++++++++++++++++++++++++++++++++++++++++++++++++++++++",
"++++++++++++++++++++++++++++++++++++++++++++++++++++++++++++++++",
"++++++++++++++++++++++++++++++++++++++++++++++++++++++++++++++++",
"++++++++++++++++++++++++++++++++++++++++++++++++++++++++++++++++",
"++++++++++++++++++++++++++++++++++++++++++++++++++++++++++++++++",
"++++++++++++++++++++++++++++++++++++++++++++++++++++++++++++++++",
"++++++++++++++++++++++++++++++++++++++++++++++++++++++++++++++++",
"+++++++++ +   ++++++++++++++  +    ++++++++++++++  +++++++++++++",
"++++++++   +  + ++++++++++++ + +  + +++++++++++++  +++++++++++++",
"+++++++$++$$+++++$+++++++++$++$$+$+++++++++++++++++$++++++++++++",
"++++++$*->>>>>--$$++++++++$$-->>>>>-*$++++++++$--->-$$++++++++++",
"++++++$>5qyiitq5-$ ++++   $>4qyiiit5>$++++++++*>5995>$ + +++++++",
"+++ ++-4ijcmmchi4$+  ++  +$4yhcmVnli5>++ ++ ++-5djji5*+  +++++++",
"++++++-qjVDPPDVht>+ ++++++>9hVDLLDVj9>+ ++++ +>tjVVlt>+  +++++++",
"+++  +>tcDW^^WFmd5>$+$$$$-5dmFWWPDVjq>$  ++  $>inDFVf5>$$$++++++",
"+++ +$>inL^`_^PCcdq4-$*-4tdcDRWPDVji5-$++++  +>imLPDndw4>$++++++",
"+++  +>inL^_^^PLCmht4--4thnDPWPDchw5>$+++++ +$>imLWPDnji4-+ ++++",
"++++ +>ycDW^^WWWPLVh5>-9hVDPWRFmd5>*$++++++  $>tcDWWRFVj9-++++++",
"+++  $>qhVFPWWW^WWDlq4>tcDPWPLVh9>+ ++++++++ $>9hVLPWWFcy>$  +++",
"++++++-5ijmCLP^^_^Fct>>tnPWPDmht4*+  ++++++ ++-5ijmDPWLmi>$+ +++",
"++++++$-4qdcCP^__WFcq>4tnLPDnd94-$+  +++++++++$-49dnDPLmi>+  +++",
"++++++$$*-5dmFW^^WDlq>>tcDFVf5>$$$++++++++++++$$$>5fVLDni>+ ++++",
"++++++++++>9jVFPWWDcy>>9jVVct>++ ++++++++++++++ ++>tjVVlt>++ +++",
"+++++++  +$4yjnDPRFny>-4yhhi5$   +++++++++++++++ +$5ihhi5-+ ++++",
"++++++++  $-4qdnDPFni>--4qq5>$+++++++++++++++++  +$>59951-++++++",
"+++++++++++$$>5fVDDci>$$*->-$+++++++++++++++++++++$$->>-$$++++++",
"++++++++++++++-tlVVjt>+ +++$++++++++++++++++++++++++$$++$+++++++",
"+++++++++++  +$5ijji5-+    + ++++++++++++++++++++++++  +++++++++",
"++++++++++++ +$>5tq5>-+  ++ ++++++++++++++++++++++++  + ++++++++",
"++++++++++++++$$----*$++++++++++++++++++++++++++++++++++++++++++",
"++++++++++++++++$+++$+++++++++++++++++++++++++++++++++++++++++++",
"+++++++++++++++ + + ++++ +   + +++++++++++++ +  ++++++++++++++++",
"+++++++++++++++++  ++++++  +     +++++++++++   +++++++++++++++++",
"+++++++++++++++++++++++$++$$$$$$+++++++++++++$$$++++++++++++++++",
"++++++++++++++++++++++$$->>1>>>-$$++++++++$*->>-*$++++++++++++++",
"++++++++++++++++++++ +->5wuiuy95>$+  +++ +$>5995>$+ ++++++++++++",
"++++++++++++++++++++++-5djnmncju4$+  ++   *5ihhd5>++ +++++++++++",
"+++++++++++++++++++  +>9jVDPPFVj9>+++++ +$>wjVVjw>$ ++++++++++++",
"+++++++++++++++++++  +>9jVFPWRFmd5>$$$$$$>5dVFDni>$  +++++++++++",
"+++++++++++++++++++++$-5ijVDP^PDnd94>$$-4wfnDPLmi1$+ +++++++++++",
"++++++++++++++++++++ +$>5wdcDPWPDmjt4--4whnDRWPmi>++ +++++++++++",
"+++++++++++++++++++++$$$*>5hmFRWPFVh9>>9hVFPWPDci>+  +++++++++++",
"++++++++++++++++++++++++ $>9jVFPWRDcw>>wcFRWPLVh9>+ ++++++++++++",
"+++++++++++++++++++++++  +$4yjmDPRLct>4wcPWPDnhi5-+ ++++++++++++",
"+++++++++++++++++++++++   $-49dnFPLnt>4tnLPDndw4>$$+++++++++++++",
"++++++++++++++++++++++$+++$$$>5hVLDci>>tcDFVh5>$$$++++++++++++++",
"+++++++++++++++++++++++++++++$>wjVVj9>>9jVVj9>$+ +++++++++++++++",
"+++++++++++++++++++++++++++   *5ijhi5--5ijhi5*   +++++++++++++++",
"+++++++++++$+++++++++++++++   $>5995>$*>5995>$  ++++++++++++++++",
"++++++++++++++++++++++++++++++$$->>-*$$$->>-$$++++++++++++++++++",
"++++++++++++++++++++++++++++++++$+$+$$++$+$+$$++++++++++++++++++",
"++++++++++++++++++++$++++++++++++   +++++   ++++++++++++++++++++",
"++++++++++++++++++++++++++++++++ + ++++ +  +++++++++++++++++++++",
"++++++++++++++++++++++++++++++++++++++++++++++++++++++++++++++++",
"++++++++++++++++++++++++++++++++++++++++++++++++++++++++++++++++",
"++++++++++++++++++++++++++++++++++++++++++++++++++++++++++++++++",
"++++++++++++++++++++++++++++++++++++++++++++++++++++++++++++++++",
"++++++++++++++++++++++++++++++++++++++++++++++++++++++++++++++++",
"++++++++++++++++++++++++++++++++++++++++++++++++++++++++++++++++",
"++++++++++++++++++++++++++++++++++++++++++++++++++++++++++++++++",
"++++++++++++++++++++++++++++++++++++++++++++++++++++++++++++++++",
"++++++++++++++++++++++++++++++++++++++++++++++++++++++++++++++++",
"++++++++++++++++++++++++++++++++++++++++++++++++++++++++++++++++",
"++++++++++++++++++++++++++++++++++++++++++++++++++++++$+++++++++"
};
