/* XPM */
static char *grass_light_01[] = {
/* columns rows colors chars-per-pixel */
"64 64 67 1 ",
"  c #82C216",
". c #83C217",
"X c #83C218",
"o c #84C218",
"O c #84C219",
"+ c #84C21A",
"@ c #85C21A",
"# c #85C21B",
"$ c #85C21C",
"% c #86C21C",
"& c #86C21D",
"* c #86C21E",
"= c #87C21E",
"- c #87C21F",
"; c #88C220",
": c #88C221",
"> c #88C222",
", c #89C222",
"< c #89C323",
"1 c #89C324",
"2 c #8AC324",
"3 c #8AC325",
"4 c #8BC326",
"5 c #8CC329",
"6 c #8DC32A",
"7 c #8EC32B",
"8 c #8EC32C",
"9 c #8EC32D",
"0 c #8FC32D",
"q c #8FC32E",
"w c #91C432",
"e c #91C433",
"r c #92C434",
"t c #93C436",
"y c #94C437",
"u c #94C438",
"i c #95C439",
"p c #95C43A",
"a c #96C43A",
"s c #96C43B",
"d c #97C43D",
"f c #98C43F",
"g c #9AC543",
"h c #9AC544",
"j c #9BC546",
"k c #9CC546",
"l c #9EC54A",
"z c #9EC54B",
"x c #9FC54C",
"c c #A0C54E",
"v c #A0C54F",
"b c #A1C650",
"n c #A2C652",
"m c #A2C653",
"M c #A5C658",
"N c #A6C659",
"B c #A6C65A",
"V c #A7C65B",
"C c #A7C65C",
"Z c #A9C75F",
"A c #AAC761",
"S c #AAC762",
"D c #ABC762",
"F c #ABC763",
"G c #ABC764",
"H c #ACC765",
"J c #ACC766",
/* pixels */
"################################################################",
"################################################################",
"################################################################",
"################################################################",
"################################################################",
"################################################################",
"################################################################",
"################################################################",
"#########$######################################################",
"################################################################",
"################################################################",
"#####$###############################################XX#########",
"###################################################X#XX#X#######",
"################################################################",
"################################################$$$$;44;$$######",
"##################################X############X#$$5qeeq4;######",
"#################################X################;qdggsq;######",
"###############################$#$#$############X#4rkmnjr4#XX###",
"###############################$;4;;$$#########X##4yxMMxs;$XX###",
"############################.#$4qeeq4;##X######X.#4svZSvs4$#####",
"###########################XX#$6uggsq;$X########X#4svZSvs4#.X###",
"#############################$4tjnnje4##X######X##4sxMMxs4######",
"##$#######################$$$4qfnCMxy4#XX######XX#;rknnje;#X.###",
"############X#X#X.#X#####$$46efxMSZvs4#.##########;qdggsq;#X####",
"###########X#.XXX#X#####.#;qyjvMSJSxs4#X#######X#$$4qeeq4;######",
"#####################$##X#;ejnMGJGMlr4$XX########$$$;;4;;$######",
"##########$$;44444;;;$#XX#4ylMJJSZnje4$#X#######$###$$##$#######",
"#########$;4qesssteq;##..#4svZJSMvjr6;#X##############X#########",
"##########;qskxvxlgy6$X..#4svZSMxdeq;;$#############XX#X########",
"#######XX#4egnMZZMngt4#..#4yxMMngq;$$$#$########################",
"##########;egnCSJGZvdq;$#$4tknnje4$#############################",
"########X#;qsjnMSJSMldt6;$;qsggsq$X.X##$########################",
"########$$$4qrgxMGGSMvjrq;$4qeeq4$#X############################",
"#########$$$;;qsvCGJSCnge4$$$4;;$$##############################",
"########$##XX$4ejnCGJGMxr4$X##$#$###############################",
"#######$####XX$6rgvMSJZxu4#XXXX##$#$##########################$#",
"############XX$46esxMSZnu4$XXX#XX###############################",
"##############$$;4qdnCMxu4$XX###################################",
"###############X#$4rjnnlr4$#####################################",
"###########X##X..X$6ugguq;$XX####X#XX#XXX#######################",
"########$###XXX...$46eeq4;$###$##XXXXX##########################",
"############$$$$X#$$;44;$$$###$$##$$############################",
"########$#$;;;44444;;$########$$;444444;$$#X####################",
"#######XX#$;qeuuuurq4$X.#X##X#$5qruusre64$#X####################",
"####$##XXX;6ujlxnxjuq;#X####X#;qsjxnxlgy6;XXX###################",
"########X#4ejmMSZMnge;#XX##XX#4ejnMZSMnge4###############$######",
"#####$$$;4qdxCGGSCnje4$XX#$X##4egnCSJSCndq4;$$$#################",
"#####$$46egxMSJSMnku6;######X#;qujnMSJSMlfr64$$#################",
"###X##;qujnMSJGMxdrq4$#####X##$4qrfxMGJSMnjuq;##################",
"####X#4egnCSGGCvsq4$$$########$$$4qdvCGGSCnge4#XX###############",
"###X##4egnCZSMnje4$X$##########X##4ejnCZZMnje;#XX###############",
"####X#;qujxvxlguq$#X############XX$6uglvnxksq;##################",
"###X##;4qruuurrq4$#XX##########X#X$46eruuurq5$$#################",
"######$$;444444;$$################$$;444444;$$$$################",
"#########$#$$$####################$$$$$$$##$####################",
"#########X#XXXXX####$###############X#XXXXX#X###################",
"######$XX#XXXX######################X#XXX#X#####################",
"############$$##################################################",
"################################################################",
"################################################################",
"################################################################",
"################################################################",
"################################################################",
"########################$#############$#########################"
};
