/* XPM */
static char *grass_dark_03[] = {
/* columns rows colors chars-per-pixel */
"64 64 29 1 ",
"  c #7BB713",
". c #7CB813",
"X c #7DB914",
"o c #7DB915",
"O c #7DBA15",
"+ c #7EBA15",
"@ c #7EBB15",
"# c #7EBB16",
"$ c #7FBB16",
"% c #7FBC16",
"& c #80BC17",
"* c #80BD17",
"= c #81BD17",
"- c #81BD18",
"; c #81BE18",
": c #82BE18",
"> c #82BF18",
", c #82BF19",
"< c #83BF19",
"1 c #83C019",
"2 c #83C01A",
"3 c #84C01A",
"4 c #84C11A",
"5 c #84C11B",
"6 c #85C11B",
"7 c #85C21B",
"8 c #85C31B",
"9 c #86C31B",
"0 c #86C31C",
/* pixels */
"7777777777777777777777777277777777777777777777777777777777777777",
"7777777777777777777777777777727777777777777777777777777777777777",
"777777772<227777777777777777777777777777777777777777777777777777",
"77777772<<<<2777777777777777777777777777777777777777777777777777",
"7777777<&@@&<777777777777777777777777777777777772777777777777772",
"7777772<@@@@&777777777777777777777777777777777777777777777777777",
"777772<&@@@@&227777777777777777777727777777777777777777777777777",
"7772<<&%@@@%&&&<277777777777777777777777707777777707707777777777",
"777<&@@@%&&&%@@&<27777777777777777777777707777770770077777777777",
"772&@@.@&<<&@@@%<27777777777777777777777777777777772777777777777",
"072<@. @<22&@  @<2777777777777777777777222272772222<222227777777",
"772&@  @&72<@  @&270777777777777777777722&<<2772<<<%<%<227077777",
"072&@  @&27&@  @&27777777777777777700722%%@%2272%@@@.@@%27777777",
"072<@  @<22&@  .&2707777777777777777772<@@@@<22<%@    @@<2770777",
"772<@@@%<<2<@@@@<277077777777777777772<&@.@@&<<&@.    @@%<227777",
"772<<@@&<272&%@%<7707777777770777722<<%@@@@@%<%%@@@@@@@@%%<22277",
"777<<<<<2772<<<<2777777777070777072<%@@%%%<%%%@%%%%<<%%%%@@%2220",
"7777222<777222222777777777777777722<%@.@%<<%@..@<<22222%@@@%<277",
"77777777777777777272777722222222722<%..%<22<%.@@<220772<@@.%<270",
"7777777777707772<&<<2272<<&%&<<<2722%%%%2222%%%%<2000722%%@%<277",
"777777777777777<%@%&<27<&@@@@@%&22722<<<27222<%222700722<<<22207",
"777777777777772<@@@@<<2<@@.   @@<2772222207722227777777722222777",
"777777777777722&@@@@<2<&@.    @@%2220777777777777777777722777777",
"77777707772<<<&@@@@@@&&%@@@@@@@@%%<22270777077707777777770707777",
"77777770077<%@@@@&&&@@@@@&<&<&&%@@%%2270777707777777277770777777",
"7777777777<<@@@@&2<<@@@@%<22222&%..%<277777777777777077777777777",
"77772227272<%@@@<22<@@@@<27007<<%.@%<277077777777777777777777777",
"7772<&<<272<&@@%<22<%@@%<770072<%%@%<270777077777777777777777777",
"077<&@@@<722<<<<2772<&<<227777722%<22777777277777777777770777777",
"072<@@@@&2772222277772277777777722222277777777777777777772777777",
"7<<&@@@@&<277777777777777777777772777777777777777077777777777777",
"&<&%@@@@&<&22777777777777777777700707777777777777277777777777777",
"%.%%%%%%%%%%2278077770777777777770777777072772720720007007777077",
"...%;22%%..%;278777777777777777777777777020000700770277227772002",
"...%2222%..%;277077777777777777777777777777070000220000207777707",
"..%%2222%%%%2270777777077777777777777777002072720770270007077002",
";;22277222%22207777770777777777777777772200200777277777770007777",
"2222277222222707777770777777027777777770777772770077777777727777",
"7722777702207777777222222777777777777777000220777077720022222077",
"700077770070777700722%22220707777770777727077077207707222<<22270",
"70777777707777707072%%%%2200777700707777777777777700002<%%%%2270",
"7777777777777770022%%..%%270077020277077772777777770722<%..@<220",
"7777777777777777222%%..%%227277722227777770777777722222%@.@@<222",
"777777777777772222%%%@%%%%222022<<<2227007777777022222%%@@@%%%%<",
"7777777777777722%%.%%%%%%.%%2222%%%%2200027777770022%%%%%%%%%@@@",
"7777777777770222%%.%%22%%@.%%222%..%<22700777777022<%..%<22%@...",
"777702777777772%%..%;222%..%%22%%.@@%22227777777072%%..%<222%.. ",
"7777777777707722%%%%2222%%%%%%%%@@@@%%<<277777707722%%%%2222%%@.",
"77777777777877222%22222222%%%@@%%%%%@%%%2227077777222<%2272222%%",
"777777777770777722222702722%%..%%22%@@.%<20077707702222227022222",
"707777777772777777770777072%%..%2222%..%%20077207707200202070200",
"7277777777777777770707700022%%%%2222%%%%222077707777700707070700",
"77777777778277777707777777222222220222%2220077707700707077777077",
"7777770277877777007777777702222227022222200277727727027777777777",
"7777777777777777727777777777220727022002000207007727007077007777",
"7777777777777777777777007777000707000700720002727700202077277777",
"7777777777728777772772722777700707777077777007777077020020200200",
"7777777777778777000000000777702777777777777202002020077270707727",
"7277777777777777722770020777770777772777777002020020727770700000",
"7877777777777777700772777777770277770777002077077777000020727277",
"7777777777777777077002002772720770770200200270702772720200707072",
"7777777777777777022007720000700770207777777770200000700772702000",
"7777777777777772777777777777200220200220000220722772200272727777",
"7777782777777788002002002002770770770770270770700700770700002002"
};
