/* XPM */
static char *grass_dark_02[] = {
/* columns rows colors chars-per-pixel */
"64 64 33 1 ",
"  c #79B511",
". c #79B512",
"X c #7AB612",
"o c #7BB712",
"O c #7BB713",
"+ c #7BB813",
"@ c #7CB813",
"# c #7CB814",
"$ c #7DB914",
"% c #7DB915",
"& c #7DBA15",
"* c #7EBA15",
"= c #7EBB15",
"- c #7EBB16",
"; c #7FBB16",
": c #7FBC16",
"> c #80BC17",
", c #80BD17",
"< c #81BD17",
"1 c #81BD18",
"2 c #81BE18",
"3 c #82BE18",
"4 c #82BF18",
"5 c #82BF19",
"6 c #83BF19",
"7 c #83C019",
"8 c #83C01A",
"9 c #84C01A",
"0 c #84C11A",
"q c #84C11B",
"w c #85C21B",
"e c #85C31B",
"r c #86C31B",
/* pixels */
"wwwwwwwwwwwwwwwwwwwwwwwwwwwwwwwwwwwwwwwwwwwwwwwwwwwwwwwwwwwwwwww",
"wwwwwwwwwwwwwwwwwwwwwwwwwwwwwwwwwwwwwwwwwwwwwwwwwwwwwwwwwwwwwwww",
"wwwwwwwwwwwwwwwwwwwwwwwwwwwwwwwwwwwwwwwwwwwwwwwwwwwwwwwwwwwwwwww",
"wwwwwwwwwwwwwwwwwwwwwwwwwwwwwwwwwwww6wwwwwwwwwwwwwwwwwwwwwwwwwww",
"wwwwwwwwwwwwwwwwwwwwwwwwwwwwwwwwwwwwwwwwwwwwwwwwwwwwwwww6wwwwwww",
"wwwwwwwwwwwwwwwwwwwwwwwwwwwwwwwwwwwwwwwwwwwwwwwwwwwwwwwwwwwwwwww",
"wwwwwwwwwwwwwwwwwwwwwwwwwwwwwwwwwwwwwwwwwwwwwwwwwwwwwwwwwwwwwwww",
"wwwwwwwwwwwwwwwwwwwwwwwwwwwwwwwwwwwwwwwwwwwwwwwwwwwwwwwwwwwwwwww",
"wwwwwwwwwwwwwwwwwwwwwwwwwwwwwwwwwwwwwwwwwwwwwwwwwwwwwwwwwwwwwwww",
"wwwwwwwwwwwwwwwwwwwwwwwwwwwwwwwwwwwwwwwwwwwwwwwwwwwwwwwwwwwwwwww",
"wwwwwwwww88w4wwwwwwwwwwwwwwwww88w6wwwwwwwwwwwwwww66wwwwwwwwwwwww",
"wwwwwww844<<<<<4wwwrwwwwwwww4<<<<<<4wwwwwwwwww4w4444wwwwwwwwwwww",
"wwwwwww44&&O&&:44wwrwwwwwww44&&&&&&<4wwwwwwwwww4<>&44wwwwwwwwwww",
"wwwwww84&@OOO+&&44wwwwwwww44&+&OOO&><wwrwwwwww44&&&&<wwwwwwwwwww",
"wwwwww84&&O  O+&<4wwwwwwww4<&OOOOO&&44wwwwwwwww<&++&>4wwwwwwwwww",
"wwwwww8<&O   OO&&<444ww844<&OO OO&&<4wwwwwwwww44&OO+&><44wwwwwww",
"wwwwwww<&+O   OOO&&48w444&&@OOOO&>446wwwwwwrww6<&OOOO&&44wwwwwww",
"wwwwww8<&+OOO  OOO&&4ww4&&@OOO&&>4wwwwwwwwwwwww<&+ O O&&46wwwwww",
"wwwwwww<&&OO  O   O&4884&OOOOO@&46wwwwwwwwwwww44&&OOOO+&4wwwwwww",
"wwwwwww44&&&OO   OO&<88<+OOOO+&44wrrwwwwwwwwwww4<&&OOO+&<4wwwwww",
"wwwwwww844<&OOO  O&&4w44&+OO&&44wwwwwwwwwwwwwwww44<&+O+&<4wrwwww",
"wwwwwwwww44<&O OOO+&448<&OO&<4wwwwwwwwwwwwwwwwwwww4>&O#&4wwrrwww",
"wwwwwwwwwww4&&OO OO&4w84>&&&4wwwwwwwwwwwwwwwwwwwww64&&&&46wwwwww",
"wwwwwwwwwww44&&+ OO&<4w44&&<4wwwwwwwwwwwwwwwwwwwwww4<>&<4wwrwwww",
"wwwwwwwwwww444<&OOO&<8w44444wwwwwwwwwwwwwwwwwwwwwww644446wwwwwww",
"wwwwwwwwwwwww44<+OO&<wwwww88wwwwwwwwwwwwwwwwwwwwwwwww6w6wwwwwwww",
"wwwwwwwwwwwwwww4&&&&44wwwwwwwwwwwwwwwwwwwwwwwwwwwwwwwwwwwwwwwwww",
"wwwwwwwwwwwwwww44<&<4wwwrwwwwwwwwwwwwwwwwwwwwwwwwwwwwwwwwwwwwwww",
"wwwwwwwwwwwwwww84444wwwwwrwwrwwwwwwwwwwwwwwwwwwwwwwwwwwwwwwwwwww",
"wwwwwwwwwwwwwwww8w4w8wwwwwwwwwwwwwwwwwwwwwwwwwwwwwwwwwwwwwwwwwww",
"wwwwwwwwwwwwwwwwwwwwwwwwwwwwwwwwwwwwwwwwwwwwwwwwwwwwwwwwwwwwwwww",
"wwwwwwwwwwwwwwwwwwwwwwwwwwrrrwrwwwwwwwwwwwwwwwwwwwwwwwwwwwwwwwww",
"wwwwwwwwwwwwwwwwwwwwwwwwwrrrwwwwwwwwwwwwwwwwwwwwwwwwwwwwwwwwwwww",
"wwwwwwwwwwwwwwwwwwwwwwwwwwwwwwwwwwwwwwwwwwwwwwwwwwwwwwwwwwwwwwww",
"wwwwwwwwwwww6wwwwwwwwwwww6666w6wwwwwwwwwwwwwww6wwwwwwwwwwwwwwwww",
"wwwwwwwwwwwwwwwwwwwwwww666<<>4466wwwwwwwwww644444wwwwwwwwwwwwwww",
"wwwwwwwwwwwwwwwwwwwwww66>>&&#&>>4wwwwwwwrrw4>>><4wwwwwwwwwwwwwww",
"wwwwwwwwwwwwwwwwwwwwwww4>#+++++>46wwwwwwwww<&#&&46wwwwwwwwwwwwww",
"6wwwwwwwwwwwwwwwwwwwww64>++O O++>4wwwwwww64>&++&<wwwwwwwwwwwwwww",
"wwwwwwwwwwwwwwwwwwwwwww6>>+++ O+&<444www44>&+OO&<6wwwwwwwwwwwwww",
"wwwwwwwwwwwwwwwwwwwwwww664>&++OO#&&44w644&&# OO#<6wwwwwwwwwwwwww",
"wwwwwwwwwwwwwwwwwwwwwwwww66>&+ OO+&>4ww4>#+OOOO&4wwrwwwwwwwwwwww",
"wwwwwwwwwwwwwwwwwwwwwwwwrw66>+++ O+&4664&OOOO+&&46wwwwwwwwwwwwww",
"wwwwwwwwwwwwwwwwwwwwwwwwrrw6>>&+OO+&4664&O O+&>44wwwwwwwwwwwwwww",
"wwwwwwwwwwwwwwwwwwwwwwwwwrw664>&OO+&<664&OO+&><46wwwwwwwwww6wwww",
"wwwwwwwwwwwwwwwwwwwwwwwwwwwww66>+O&&<w64&++&>4wwwwwwwwwwwwwwwwww",
"wwwwwwwwwwwwwwwwwwwwwwwwwwwwwww4&&#&4664>&&&46wwwwwwwwwwwwwwwwww",
"wwwwwwwwwwwwwwwwwwwwwwwwwwwwwww6<>>>4ww4<&>>4wwrwwwwwwwwwwwwwwww",
"wwwwwwwwwwwwwwwwwwwwwwwwwwwwwww644446ww666466wwwwwwwwwwwwwwwwwww",
"wwwwwwwwwwwwwwwwwwwwwwwwwwwwwww66w6wwwwww66wwwwwwwwwwwwwwwwwwwww",
"wwwwwwwwwwwwwwwwwwwwwwwwwwwwwwwwwwwwwwwwwwwwwwwwwwwwwwwwwwwwwwww",
"wwwwwwwwwwwwwwwwwwwwwwwwwwwwwwwwwwwwwwwwwwrwwwwwwwwwwwwwwwwwwwww",
"wwww6rwwwwwwwwwwwwwwwwwwwwwwwwwwrwrwwwwwwwwwwwwwwwwwwwwwwwwwwwww",
"wwwwwwwwwwwwwwwwwwwwwwwwwwwwwwwwwwwwwwwwwwwwwwwwwwwwwwwwwwwwwwww",
"wwwwwwwwwwwwwwww6wwwwwwwwwwwwwwwwwwwwwwwwwwwwwwwwwwwwwwwwwwwwwww",
"wwwwwwwwwwwr6wwwwwwwwwwwwwwwwwwwwwwwwwwwwwwwww6wwwwwwwww6wwwwwww",
"wwwwwwwwwwwwwwwwwwwwwwwwwwwwwwwwwwwwwwwwwwwwwwwwwwwwwwwwwwwwwwww",
"wwwwwwwwwwwwwwwwwwwwwwwwwwwwwwwwwwwwwwwwwwwwwwwwwwwwwwwwwwwwwwww",
"wwwwwwwwwwwwwwwwwwwwwwwwwwwwwwwwwwwwwwwwwwwwwwwwwwwwwwwwwwwwwwww",
"wwwwwwwwwwwwwwwwwwwwwwwwwwwwwwwwwwwwwwwwwwwwwwwwww6wwwwwwwwwwwww",
"wwwwwwwwwwwwwwwwwwwwwwwwww6wwwwwwwwwwwwwwwwwwwwwwwwwwwwwwwwwwwww",
"wwwwwwwwwwwwwwwwwwwwwwwwwwwwwwwwwwwwwwwwwwwwwwwwwwwwwwwwwwwwwwww",
"wwwwwwwwwwwwwwwwwwwwwwwwwwwwwwwwwwwwwwwwwwwwwwwwwwwwwwwwwwwwwwww",
"wwwwwwwwr6wwwwwwwwwwwwwwwwwwwwwwwwwwwwwwwwwwwwwwwwwwwwwwwwwwwwww"
};
