/* XPM */
static char *grass_light_03[] = {
/* columns rows colors chars-per-pixel */
"64 64 79 1 ",
"  c #82C215",
". c #82C216",
"X c #83C217",
"o c #83C218",
"O c #84C218",
"+ c #84C219",
"@ c #84C21A",
"# c #85C21A",
"$ c #85C21B",
"% c #85C21C",
"& c #86C21C",
"* c #86C21D",
"= c #86C21E",
"- c #87C21E",
"; c #87C21F",
": c #87C220",
"> c #88C220",
", c #88C221",
"< c #88C222",
"1 c #89C222",
"2 c #89C323",
"3 c #89C324",
"4 c #8AC324",
"5 c #8AC325",
"6 c #8BC326",
"7 c #8DC32A",
"8 c #8DC32B",
"9 c #8EC32B",
"0 c #8EC32C",
"q c #8EC32D",
"w c #8FC32D",
"e c #8FC32E",
"r c #8FC32F",
"t c #90C330",
"y c #91C431",
"u c #91C432",
"i c #91C433",
"p c #92C433",
"a c #92C434",
"s c #93C435",
"d c #93C436",
"f c #94C437",
"g c #94C438",
"h c #95C439",
"j c #95C43A",
"k c #96C43A",
"l c #96C43B",
"z c #97C43C",
"x c #98C43F",
"c c #98C440",
"v c #99C540",
"b c #99C541",
"n c #99C542",
"m c #9AC543",
"M c #9AC544",
"N c #9BC544",
"B c #9BC545",
"V c #9BC546",
"C c #9CC546",
"Z c #9CC547",
"A c #9CC548",
"S c #9DC548",
"D c #9DC549",
"F c #9EC549",
"G c #9EC54A",
"H c #9EC54B",
"J c #9FC54C",
"K c #9FC54D",
"L c #A0C54E",
"P c #A1C64F",
"I c #A1C650",
"U c #A2C651",
"Y c #A2C652",
"T c #A2C653",
"R c #A3C653",
"E c #A6C65A",
"W c #A7C65B",
"Q c #A8C75E",
"! c #A9C75F",
/* pixels */
"$$$$$$$$XXo$o$$$$$$$$$$$$$$$$$$$$$$$$$$$$$$$$$$$$$$$$$$$$$$$$$$$",
"$$$$$$$$$$$$$$$$$$$$$$$$$$$$$$$$$$$$$$$$$$$$$$$$$$$$$$$$$$$$$$$$",
"$$$$$$**2242*$$$$$$$$$$$$$$$$$$$$$$*$$$$$$$$$$$$$$$$$$$$$$$$$$$$",
"$$$$o$*40ii04*$oo$$*$$$$$$$$$$$$$$$$$$$$$$$$$$$$$$$$$$$$$$$$$$$$",
"$$$oX$28hvVh0:$Xo$$$$$$$$$$$$$$$$$$$$$$$$$$$$$$$$$$$$$$$$$$$$$$$",
"$$$$o$4sZRRVs4$$o$$$$$$$$$$$$$$$$$$$$$$$$$$$$$$$$$$$$$$*$$$$$$$$",
"$$$**40hGRRGh02***$$$$$$$$$$$$$$$$$$$$$$$$$*$$$$$$$$$$$$$$$$$$$$",
"$$*20ihvVGGZvhi04*$$$$$$$$$$$$$$$$$$$$$$$ooo$$$o$oo$oo$o$$$$$$$$",
"o$20hvZVxhhvVZvh02*$o$$$$$$$$$$$$$$$$$$o$oo$$$$$ooooooooo$$$$$$$",
"X$2sVRRGh00hGRRZs4$o$$$$$$$$$$$$$$$$$*$$$$*$$$$$*******$*$$*$$$$",
"X$4hGWWGf48sGWWKh4$$o$$$$$$$$$$$$$$$$$*22222****:4464442**$$$$$$",
"X$4hPQQKs44sGQQRh4$oo$$$$$$$$$$$$$$ooo*40sy04**20shhhhs04*ooo$$$",
"X$4hPQQKh44sKQQRh4*oo$$$$$$$$$$$$$$ooo:0hVVh0::8fVKRRGVh0*$oo$$$",
"X$4hGWWGs44sGWWKh4*oo$$$$$$$$$$$$$$$o*4sVRRvy44yvRWQQWRvy4*o$$$$",
"X$4sZRRVi44yVRRVs4$o$$$$$$$$$$$$$$**:40hGRRGh00fVRWQQWRGh04***$$",
"o$20hvvh0220hvvh0*$Xo$$$$o$ooo$oo$*40szvVGGVvhzvVGKKKKGVvzs04**o",
"$$*40ii04*240yy04*oo$$$$$ooooooooo40hVGVvzhcVGGVzzhssfzvGGVh02$o",
"$$**2222*$**2422**$$$$$$$$$*$*$$o*4yVRRGh00gVRRGh044240hGRRVy4$X",
"$$$$$$$$$$$$$$**2442**$*2444444:**4sVRRvs44yVRRVs4*oo*4sVRRVy2*X",
"$$$$$oo$$$$oXX$20is04**20shhhhs04*:0hVVz8::8gVVz0*XXXo:0hVVh02$o",
"$$$o$o$o$$$XXX*0hvVh82*8fVKPPKVh8:*40sy04**40ss04*oooo*40ss06:*o",
"$$$$$$$$$$$oo*4sZRRVy44yvRWQQWRvy4**:44:***::42::*$oo***244::*$$",
"$$$$$$$$$$***40zGRRZh00sVRWQQWRGh04:**$*$*$$**$***$$*$$**$*$$$$$",
"$$$$$o$o$$:40shvZGGVvzhvVGKPKKGGvhs04*oooo*oooo$o$$$$$$oooo$o$$$",
"$$$$$ooXo$20hVGVvzhvVGGVxhhhshhvAGVh0:ooo*$o$oooo$$$$$*o$ooo*$$$",
"$$$$$$$$$$2iVRRZh00hGRRGh042240hGRRVy4*oo$$$$*$$*$$$$$$$$*$$$$$$",
"$$$*224:$*4iVRRVy44ivRRZs4$oX$4sVRRVs4*o$$$$$$$$$$$$$$$$$$$$$$$$",
"X$*40si82*20hVVh0*20hVVz0*XXX$*0hVVz02*oo$$$$$$$$$$$$$$$$$$$$$$$",
"XX*0hZVh8:*20ii04**40sy04*XXXo*40ss04:*oo*$$$$$$$$$$$$$$$$$$$$$$",
"X$4sVRRVs4**2422****2222:*$$$$**244::**$$$$$$$$$$$$$$$$$$$$$$$$$",
"240hZRRGh04:**$$*$$$$*$$*$$$$$$$*$****o*$$$$$$$$$$$$$$$$$$$$$$$$",
"shzvVGGZvzs02$oo$$$oooo$$$$$$$$$oooooo$$$$$$$$$$$$$$$$$$$$$$$$$$",
"KKGVvlhvAAVg0:ooo**oooooo$$$$$*o$o$o*o*$**o*$$$$$*o*o*oo*o$$$$$$",
"QWRVg00gARRVs4*ooo$$***$*$$$$$$$$*o$$$$$o**o$$$$*o$$****$*$$$$$$",
"QWRmr64sVIRVs2$o$$$$$$$$$$$$$$$$$$$$$$$$*o$$$o*$*o$$*oo*$*****$$",
"IKVg0::0gVAlr:*$o$$*oo$oo$$$$$$$$$$$$$$$$$$$$*o*$*o*o**ooooooo$$",
"ggs04**40ssr4:$o*$$ooooo$o*$$$$$$$$$$$$$$*o*$$$$$*$$*oo*oooooo*$",
"444:****:44::*$$o*$*$****$$$*o$$$$$$$$$$$$*o$$$$*o$$o*$*******$$",
"*****$$******$$*$$**:444:*$o$**o$$*$$**o$$$$$$$$o*o$****:44:**o*",
"ooooo$$oooooo$$oo$*40ss04*$o$o$*ooo$oo$*$$$$$$$$*$*ooo*40ss04*oo",
"ooo$o$$ooo$o*$$ooo:0lVVh0:ooo*$o$oooo*o$$$$$$$$$*o*ooo:0zVVg0*oX",
"o*$$*$$*$$$$$$*oo*4sVRRVs4*oo$$$*$**$**$$$$$$$$$o*$oo*4sVRRVs4*o",
"*$$$$$$$$$$$o$**:40lGRRGl04:****:44::*$**o$$$$$$*$**:40lGRRAh042",
"$$$$$$$$$$$*$**40slnVGGVvls64**40ss04*ooo*o*$$$$o*:40szvVGGVczgs",
"$$$$$$$$$$$oo$:0hVGVvllnVAVg6::0zVVh0:ooo*$$$$o$o*:0hVGVczlcVGKK",
"$$$$$$$$$$$oo*4sVRRVg00gARRVs44svRRVs4*o$o$$$$*$o*4sVRRVh00gVRWQ",
"$$$$$$$$$$$$o*4sVRRVs64sVRRAg00hGRRGh04:**$$$$$ooo4sVRRVy44yvRWQ",
"$$$$$$$$$$$oo*40lVAl6::6gVGAvlllVGGVvzs04:*oo*$o$*20lVVh0::8hVKI",
"$$$$$$$$$$$o$$:6rssr4**:0shvAGGVcllcVGVl0:*$ooo*oo:60ss04**40sgh",
"$$$$$$$$$$*o$$*::4:::***:40lARRAh00gARRVs2*o***o***::44::**::444",
"$$$$$$$$$$$$$$$$*****$$*o*4sVRRVs44sVRRVs4ooo*$$*o*o*****o*o****",
"$$$$$$$$$$$*$*$oooooo$oooo:0gVVh8::6gVAlr:**oo$$**o*ooooo*o*oooo",
"$$$$$$$$$$$$$$$ooo$$o$*oo**40ss04**40ss06:*o*o**o*$o*oo$o**ooooo",
"$$$$$$$$$$$$$$$*$$*o**o*o$*::44:***::24::**oo**o*o*oo**o*o*$*$**",
"$$$$$$$$$$$$$$$$$$$$$$$o*$$*******o********o*o$$*o****o*o*o**oo*",
"$$$$$$$$$$$$$$$$$$$$$$*o$$$ooooooo*ooooooo$*o*$$o**oo**o$$*o**o*",
"$$$$$$$$$$$$$$$$$$$$$$$**oo*o$o$o**ooooo*o**$$$$o**o*oo*$*o*$$$$",
"$$$$$$$$$$$$$$$$$$$$$$$$$**o*o*oo*o*****o$*o$$$$*o**o**o*o*o$$o*",
"$$$$$$$$$$$$$$$$$$$$$$$$$$$$*oo***o*$$o**$*$$$$$*o*o****o$$*$$*o",
"$$$$$$$$$$$$$$$$$$$$$$$$$$$$$**$o**o$$$$o*o$$$$$o**o*oo**$$$$$$*",
"$$$$$$$$$$$$$$$$$$$$$$$$$$$$$$$$$$$$$$$$$$$$**o***o*o*ooo*$$$*o*",
"$$$$$$$$$$$$$$$$$$$$$$$$$$$$$$$$$$$$$$$$$$$$oo***oo******o*$*o$$",
"$$$$$$$$$$$$$$$$$$$$$$$$$$$$$$o*$$$$$$$$*$*$*o*oo**o*o*$$$$$*o$$",
"$$$$$$$$$$$$$$$$$$$$$$$$$$$$*o*$$$$$$$$$o*o$$*o**o**o*o$$$$*o*$$"
};
