/* XPM */
static char *grass_dark_01[] = {
/* columns rows colors chars-per-pixel */
"64 64 28 1 ",
"  c #7AB612",
". c #7BB712",
"X c #7BB713",
"o c #7BB813",
"O c #7CB813",
"+ c #7CB814",
"@ c #7DB914",
"# c #7DB915",
"$ c #7DBA15",
"% c #7EBA15",
"& c #7FBB16",
"* c #7FBC16",
"= c #80BC17",
"- c #80BD17",
"; c #81BD17",
": c #81BD18",
"> c #81BE18",
", c #82BE18",
"< c #82BF19",
"1 c #83BF19",
"2 c #83C019",
"3 c #83C01A",
"4 c #84C01A",
"5 c #84C11A",
"6 c #84C11B",
"7 c #85C21B",
"8 c #86C31B",
"9 c #86C31C",
/* pixels */
"7777777777777777777777777777777777777777777777777377777777777777",
"7777777777777777377777777777777777777777777777777777777777777777",
"7777777777777777777777777777777377777777777777777777777777737777",
"7777777777777777777777777777777777777777777777777777777777777777",
"7777777777777777777777777777777777777777777777777777777777777777",
"7777777777777777777777777777777773777777777777777777777777777777",
"7777777777777777777777777777777777777777777777777777777777777777",
"7777777777777777777777777777777777777777777777777777777777777777",
"7777777773777777777777777777777777777777777773777777777777777777",
"7777777777777777777777777777777777777777777777777777777777777777",
"7777777777777777777377777777777777777777777777777777777777777773",
"7777777777777777777777777777777777777777777777777777977777777777",
"7777777777777777777777777777777777777777777777777777779777777777",
"7777377777777777777777777777777777777777777777777777777777777777",
"7777777777777777777777777777777777777777777777777777333377777777",
"777777777777777777777777777777777777777777777777777322;233777777",
"7777377777777777777777777777777797977777777777777732;**;37777777",
"777777777777777777777777777777777777777777777777773;*OO*;3779777",
"777777777777777777777777777777773333777777777779773;%oo%;3797777",
"7777777777777777777777777777777322;2377777777777973;Ooo%;3779777",
"7777777777777777777777777777777<***;337777777779773;OooO;3797777",
"7777777777777777777777777777773<*OO*;37977777777773;%oo%;3777777",
"777777777777777777777777777773<*OoO*;37797777777973;*OO*;3799777",
"77777777777777777777777777373;*%OooO;379777777777772;*;;27777777",
"777777777777777779777777777<;*%ooXoO;3999777777777732;;337777777",
"777777777777777777777777773;%ooXXXo*;379777777777777373337777777",
"777777777777333337777777773;%XXX oO*2377777777777777777777777777",
"777777777733<;;;;;;<7797777;oXXXoO*;2377777777777777797777777777",
"77777777773<;%%%%%*;3777773;%XXo**;23777777777777777777777777777",
"77777777777;%%XXXoO%;377773;%Xo%*2377777777777777777777777777777",
"77377777777<*%oXXXXX;<77773;%%O%;7777777777777777777777777777777",
"77777777773<;%%XXXXX%*;3777<;**;27777777737777777777777777777777",
"99779999939322*$o  oO$$22793222233777777737777777777777777777777",
"393733939973322*Oo  ooO*2333322277777777777777777777777777777777",
"9977999939999922*Oooo o$*399993977777777777777777777777777777777",
"93799339793799922*Oo  o$2339999777777777777777777777773777777777",
"997739997779993222*$ooo$*399977977777777777777777777777777777777",
"3937779377939397332*$ooO;299997777777777777777777777777737777777",
"39997799939399999932$$$$2339399977777777777777777777777777777777",
"99399933999939799932;***2299977379797977777777777777777777777777",
"9393999793999999999222222999397977997977777777777777777777777777",
"9993937793939399797733222977797777777777777777777777777777777777",
"7739397799793222222239973937773973333333777777777777777777777777",
"779999399932222**2222399999777722;;;;;23377977777777777777777777",
"7999999999322*$O$$$2239997779922***O*%*;237977777777777777777777",
"793339939922$OoooOO*229999799922*OooooO*237777777777777777777777",
"77999373332*$o  ooO*239973377332*OOoX Xo*33777777777773777777777",
"7739999322*$oooooO**229399999932;*OOX XXO;;337777777777777777777",
"39399922**Ooo  o$*2227779939937322*$o  oo$*;23777777777777777777",
"99999332*Oooo oO*229379939797773332*oo oooO*22797777777777777777",
"99399722*OooooO*22379933777797939722*OooooO*;3997777777779777777",
"339999322$$$$$$2239999997777939999322*$O$O*;23397777777773777777",
"99997332222*22;22999777777399779997222;22;2227977777777777777777",
"9339999322222233937777779377777773973222223273777777777777777777",
"9779993799399399777777979777773777777777779777797777777777777777",
"7739399939999979777777937777779977777797979979737777777777793777",
"9379939999999999777777779977777777777977977977777777777777777777",
"9779977339393993777777777377777777777777777777777777777777777777",
"9393939999999993773737777777399977777777777777773977777777777773",
"9993993993399399799799777777793777777777777777777777777777777779",
"3399777977933399777777777739777737777777777777777777777777777777",
"9977793977999993997737777779777797777777777777777777777777777777",
"3977399939399997737799777777997797773777397777777777777777777777",
"9993993399993937777777993777377777799777777777777777793777777777"
};
