/* XPM */
static char *outline_08[] = {
/* columns rows colors chars-per-pixel */
"64 64 215 2 ",
"   c #587739",
".  c #756F3E",
"X  c #787735",
"o  c #577745",
"O  c #607D49",
"+  c #7E7744",
"@  c #9A5B34",
"#  c #A25F34",
"$  c #966339",
"%  c #936E3E",
"&  c #9A6438",
"*  c #92723A",
"=  c #997D35",
"-  c #AE6B36",
";  c #A66736",
":  c #B46E36",
">  c #A67E3F",
",  c #AD793C",
"<  c #A97339",
"1  c #B97F37",
"2  c #BA7638",
"3  c #B37C3C",
"4  c #BE7B39",
"5  c #B87538",
"6  c #C17737",
"7  c #C37936",
"8  c #C2773A",
"9  c #C17A39",
"0  c #967A43",
"q  c #9C7D44",
"w  c #927240",
"e  c #8A7E47",
"r  c #A57B41",
"t  c #5E8C2F",
"y  c #5B872D",
"u  c #5C8230",
"i  c #64872F",
"p  c #6C9B2C",
"a  c #65982B",
"s  c #79952B",
"d  c #648935",
"f  c #6C9D3E",
"g  c #689B36",
"h  c #72993B",
"j  c #78993B",
"k  c #71A42B",
"l  c #76AD2E",
"z  c #79AE2C",
"x  c #7CAA2B",
"c  c #7CB425",
"v  c #7BB22B",
"b  c #7EB921",
"n  c #6FA03B",
"m  c #78A734",
"M  c #74AA32",
"N  c #7AAD32",
"B  c #71A23B",
"V  c #73A637",
"C  c #7CB131",
"Z  c #7CB139",
"A  c #7DC814",
"S  c #5F8A55",
"D  c #5C8659",
"F  c #5B8455",
"G  c #648E4F",
"H  c #6D8B4B",
"J  c #6A884A",
"K  c #70814C",
"L  c #758648",
"P  c #699747",
"I  c #6C9B42",
"U  c #65914D",
"Y  c #6D9A4D",
"T  c #7D9140",
"R  c #749A43",
"E  c #6D8653",
"W  c #628B55",
"Q  c #6C8B55",
"!  c #678E58",
"~  c #618351",
"^  c #758E54",
"/  c #6F9850",
"(  c #6B9159",
")  c #679057",
"_  c #749C55",
"`  c #749859",
"'  c #7B9C5C",
"]  c #739558",
"[  c #74A342",
"{  c #7DAC43",
"}  c #7BA353",
"|  c #7CA25C",
" . c #76A05D",
".. c #799D60",
"X. c #82BE1E",
"o. c #8FB31E",
"O. c #90BD1E",
"+. c #898F2C",
"@. c #939E27",
"#. c #898C39",
"$. c #93823F",
"%. c #979531",
"&. c #A58F2E",
"*. c #A7942D",
"=. c #AA952D",
"-. c #A59C2E",
";. c #A68835",
":. c #B68435",
">. c #BB8337",
",. c #BB843D",
"<. c #B08D33",
"1. c #AC9631",
"2. c #B5973A",
"3. c #84AD23",
"4. c #9CA426",
"5. c #93A229",
"6. c #9BAB2A",
"7. c #9CAA23",
"8. c #8BB423",
"9. c #82BC23",
"0. c #83B72B",
"q. c #85BA2B",
"w. c #87B724",
"e. c #91B928",
"r. c #90BA27",
"t. c #82AC3E",
"y. c #81B532",
"u. c #8ABD34",
"i. c #8BBB3A",
"p. c #87BA33",
"a. c #9BBF35",
"s. c #9AB834",
"d. c #A0A82F",
"f. c #A9AC35",
"g. c #83C217",
"h. c #85C21B",
"j. c #88C41D",
"k. c #87C121",
"l. c #8AC324",
"z. c #8EC32C",
"x. c #90C42D",
"c. c #8FC135",
"v. c #93C435",
"b. c #95C935",
"n. c #95C43A",
"m. c #99C63D",
"M. c #838947",
"N. c #83834C",
"B. c #888749",
"V. c #968345",
"C. c #9D8143",
"Z. c #9B844A",
"A. c #99934F",
"S. c #948E50",
"D. c #869353",
"F. c #879B59",
"G. c #AB8A47",
"H. c #A6934F",
"J. c #B59446",
"K. c #A29B54",
"L. c #A09653",
"P. c #83A94F",
"I. c #8BB646",
"U. c #8BBB46",
"Y. c #96BF4B",
"T. c #94BD46",
"R. c #82A45C",
"E. c #8CAB5C",
"W. c #87A956",
"Q. c #9AA95C",
"!. c #8DB156",
"~. c #8EB158",
"^. c #93B852",
"/. c #91B25C",
"(. c #9EBE5A",
"). c #98BA59",
"_. c #AEAD42",
"`. c #B0AA4E",
"'. c #A6BF47",
"]. c #A7AB5D",
"[. c #A8A255",
"{. c #A8B35C",
"}. c #A8B95F",
"|. c #A8B85A",
" X c #8EAE63",
".X c #83A361",
"XX c #90AF63",
"oX c #8EB161",
"OX c #92B362",
"+X c #9DBB64",
"@X c #9BB864",
"#X c #A1BE63",
"$X c #AABA62",
"%X c #96C145",
"&X c #9CC544",
"*X c #9DC54B",
"=X c #9FCA4A",
"-X c #9AC445",
";X c #9AC255",
":X c #A0C64D",
">X c #A1CA4B",
",X c #A2C652",
"<X c #A6C956",
"1X c #A9CB56",
"2X c #A6C65B",
"3X c #A8C75D",
"4X c #A7CA59",
"5X c #AAC95D",
"6X c #A4C264",
"7X c #ABC565",
"8X c #ADC963",
"9X c #ADC769",
"0X c #A4C169",
"qX c #B0C76C",
"wX c None",
/* pixels */
"wXwXwXwXwXwXwXwXwXwXwXwXwXwXwXwXwXwXwXwXwXwXwXwXwXwXwXwXwXwXwXwXwXwXwXwXwXwXwXwXwXwXwXwXwXwXwXwXwXwXwXwXwXwXwXwXwXwXwXwXwXwXwXwX",
"wXwXwXwXwXwXwXwXwXwXwXwXwXwXwXwXwXwXwXwXwXwXwXwXwXwXwXwXwXwXwXwXwXwXwXwXwXwXwXwXwXwXwXwXwXwXwXwXwXwXwXwXwXwXwXwXwXwXwXwXwXwXwXwX",
"wXwXwXwXwXwXwXwXwXwXwXwXwXwXwXwXwXwXwXwXwXwXwXwXwXwXwXwXwXwXwXwXwXwXwXwXwXwXwXwXwXwXwXwXwXwXwXwXwXwXwXwXwXwXwXwXwXwXwXwXwXwXwXwX",
"wXwXwXwXwXwXwXwXwXwXwXwXwXwXwXwXwXwXwXwXwXwXwXwXwXwXwXwXwXwXwXwXwXwXwXwXwXwXwXwXwXwXwXwXwXwXwXwXwXwXwXwXwXwXwXwXwXwXwXwXwXwXwXwX",
"wXwXwXwXwXwXwXwXwXwXwXwXwXwXwXwXwXwXwXwXwXwXwXwXwXwXwXwXwXwXwXwXwXwXwXwXwXwXwXwXwXwXwXwXwXwXwXwXwXwXwXwXwXwXwXwXwXwXwXwXwXwXwXwX",
"wXwXwXwXwXwXwXwXwXwXwXwXwXwXwXwXwXwXwXwXwXwXwXwXwXwXwXwXwXwXwXwXwXwXwXwXwXwXwXwXwXwXwXwXwXwXwXwXwXwXwXwXwXwXwXwXwXwXwXwXwXwXwXwX",
"wXwXwXwXwXwXwXwXwXwXwXwXwXwXwXwXwXwXwXwXwXwXwXwXwXwXwXwXwXwXwXwXwXwXwXwXwXwXwXwXwXwXwXwXwXwXwXwXwXwXwXwXwXwXwXwXwXwXwXwXwXwXwXwX",
"wXwXwXwXwXwXwXwXwXwXwXwXwXwXwXwXwXwXwXwXwXwXwXwXwXwXwXwXwXwXwXwXwXwXwXwXwXwXwXwXwXwXwXwXwXwXwXwXwXwXwXwXwXwXwXwXwXwXwXwXwXwXwXwX",
"wXwXwXwXwXwXwXwXwXwXwXwXwXwXwXwXwXwXwXwXwXwXwXwXwXwXwXwXwXwXwXwXwXwXwXwXwXwXwXwXwXwXwXwXwXwXwXwXwXwXwXwXwXwXwXwXwXwXwXwXwXwXwXwX",
"wXwXwXwXwXwXwXwXwXwXwXwXwXwXwXwXwXwXwXwXwXwXwXwXwXwXwXwXwXwXwXwXwXwXwXwXwXwXwXwXwXwXwXwXwXwXwXwXwXwXwXwXwXwXwXwXwXwXwXwXwXwXwXwX",
"wXwXwXwXwXwXwXwXwXwXwXwXwXwXwXwXwXwXwXwXwXwXwXwXwXwXwXwXwXwXwXwXwXwXwXwXwXwXwXwXwXwXwXwXwXwXwXwXwXwXwXwXwXwXwXwXwXwXwXwXwXwXwXwX",
"wXwXwXwXwXwXwXwXwXwXwXwXwXwXwXwXwXwXwXwXwXwXwXwXwXwXwXwXwXwXwXwXwXwXwXwXwXwXwXwXwXwXwXwXwXwXwXwXwXwXwXwXwXwXwXwXwXwXwXwXwXwXwXwX",
"wXwXwXwXwXwXwXwXwXwXwXwXwXwXwXwXwXwXwXwXwXwXwXwXwXwXwXwXwXwXwXwXwXwXwXwXwXwXwXwXwXwXwXwXwXwXwXwXwXwXwXwXwXwXwXwXwXwXwXwXwXwXwXwX",
"wXwXwXwXwXwXwXwXwXwXwXwXwXwXwXwXwXwXwXwXwXwXwXwXwXwXwXwXwXwXwXwXwXwXwXwXwXwXwXwXwXwXwXwXwXwXwXwXwXwXwXwXwXwXwXwXwXwXwXwXwXwXwXwX",
"wXwXwXwXwXwXwXwXwXwXwXwXwXwXwXwXwXwXwXwXwXwXwXwXwXwXwXwXwXwXwXwXwXwXwXwXwXwXwXwXwXwXwXwXwXwXwXwXwXwXwXwXwXwXwXwXwXwXwXwXwXwXwXwX",
"wXwXwXwXwXwXwXwXwXwXwXwXwXwXwXwXwXwXwXwXwXwXwXwXwXwXwXwXwXwXwXwXwXwXwXwXwXwXwXwXwXwXwXwXwXwXwXwXwXwXwXwXwXwXwXwXwXwXwXwXwXwXwXwX",
"wXwXwXwXwXwXwXwXwXwXwXwXwXwXwXwXwXwXwXwXwXwXwXwXwXwXwXwXwXwXwXwXwXwXwXwXwXwXwXwXwXwXwXwXwXwXwXwXwXwXwXwXwXwXwXwXwXwXwXwXwXwXwXwX",
"wXwXwXwXwXwXwXwXwXwXwXwXwXwXwXwXwXwXwXwXwXwXwXwXwXwXwXwXwXwXwXwXwXwXwXwXwXwXwXwXwXwXwXwXwXwXwXwXwXwXwXwXwXwXwXwXwXwXwXwXwXwXwXwX",
"wXwXwXwXwXwXwXwXwXwXwXwXwXwXwXwXwXwXwXwXwXwXwXwXwXwXwXwXwXwXwXwXwXwXwXwXwXwXwXwXwXwXwXwXwXwXwXwXwXwXwXwXwXwXwXwXwXwXwXwXwXwXwXwX",
"wXwXwXwXwXwXwXwXwXwXwXwXwXwXwXwXwXwXwXwXwXwXwXwXwXwXwXwXwXwXwXwXwXwXwXwXwXwXwXwXwXwXwXwXwXwXwXwXwXwXwXwXwXwXwXwXwXwXwXwXwXwXwXwX",
"wXwXwXwXwXwXwXwXwXwXwXwXwXwXwXwXwXwXwXwXwXwXwXwXwXwXwXwXwXwXwXwXwXwXwXwXwXwXwXwXwXwXwXwXwXwXwXwXwXwXwXwXwXwXwXwXwXwXwXwXwXwXwXwX",
"wXwXwXwXwXwXwXwXwXwXwXwXwXwXwXwXwXwXwXwXwXwXwXwXwXwXwXwXwXwXwXwXwXwXwXwXwXwXwXwXwXwXwXwXwXwXwXwXwXwXwXwXwXwXwXwXwXwXwXwXwXwXwXwX",
"wXwXwXwXwXwXwXwXwXwXwXwXwXwXwXwXwXwXwXwXwXwXwXwXwXwXwXwXwXwXwXwXwXwXwXwXwXwXwXwXwXwXwXwXwXwXwXwXwXwXwXwXwXwXwXwXwXwXwXwXwXwXwXwX",
"wXwXwXwXwXwXwXwXwXwXwXwXwXwXwXwXwXwXwXwXwXwXwXwXwXwXwXwXwXwXwXwXwXwXwXwXwXwXwXwXwXwXwXwXwXwXwXwXwXwXwXwXwXwXwXwXwXwXwXwXwXwXwXwX",
"wXwXwXwXwXwXwXwXwXwXwXwXwXwXwXwXwXwXwXwXwXwXwXwXwXwXwXwXwXwXwXwXwXwXwXwXwXwXwXwXwXwXwXwXwXwXwXwXwXwXwXwXwXwXwXwXwXwXwXwXwXwXwXwX",
"wXwXwXwXwXwXwXwXwXwXwXwXwXwXwXwXwXwXwXwXwXwXwXwXwXwXwXwXwXwXwXwXwXwXwXwXwXwXwXwXwXwXwXwXwXwXwXwXwXwXwXwXwXwXwXwXwXwXwXwXwXwXwXwX",
"wXwXwXwXwXwXwXwXwXwXwXwXwXwXwXwXwXwXwXwXwXwXwXwXwXwXwXwXwXwXwXwXwXwXwXwXwXwXwXwXwXwXwXwXwXwXwXwXwXwXwXwXwXwXwXwXwXwXwXwXwXwXwXwX",
"wXwXwXwXwXwXwXwXwXwXwXwXwXwXwXwXwXwXwXwXwXwXwXwXwXwXwXwXwXwXwXwXwXwXwXwXwXwXwXwXwXwXwXwXwXwXwXwXwXwXwXwXwXwXwXwXwXwXwXwXwXwXwXwX",
"wXwXwXwXwXwXwXwXwXwXwXwXwXwXwXwXwXwXwXwXwXwXwXwXwXwXwXwXwXwXwXwXwXwXwXwXwXwXwXwXwXwXwXwXwXwXwXwXwXwXwXwXwXwXwXwXwXwXwXwXwXwXwXwX",
"wXwXwXwXwXwXwXwXwXwXwXwXwXwXwXwXwXwXwXwXwXwXwXwXwXwXwXwXwXwXwXwXwXwXwXwXwXwXwXwXwXwXwXwXwXwXwXwXwXwXwXwXwXwXwXwXwXwXwXwXwXwXwXwX",
"wXwXwXwXwXwXwXwXwXwXwXwXwXwXwXwXwXwXwXwXwXwXwXwXwXwXwXwXwXwXwXwXwXwXwXwXwXwXwXwXwXwXwXwXwXwXwXwXwXwXwXwXwXwXwXwXwXwXwXwXwXwXwXwX",
"wXwXwXwXwXwXwXwXwXwXwXwXwXwXwXwXwXwXwXwXwXwXwXwXwXwXwXwXwXwXwXwXwXwXwXwXwXwXwXwXwXwXwXwXwXwXwXwXwXwXwXwXwXwXwXwXwXwXwXwXwXwXwXwX",
"wXwXwXwXwXwXwXwXwXwXwXwXwXwXwXwXwXwXwXwXwXwXwXwXwXwXwXwXwXwXwXwXwXwXwXwXwXwXwXwXwXwXwXwXwXwXwXwXwXwXwXwXwXwXwXwXwXwXwXwXwXwXwXwX",
"wXwXwXwXwXwXwXwXwXwXwXwXwXwXwXwXwXwXwXwXwXwXwXwXwXwXwXwXwXwXwXwXwXwXwXwXwXwXwXwXwXwXwXwXwXwXwXwXwXwXwXwXwXwXwXwXwXwXwXwXwXwXwXwX",
"wXwXwXwXwXwXwXwXwXwXwXwXwXwXwXwXwXwXwXwXwXwXwXwXwXwXwXwXwXwXwXwXwXwXwXwXwXwXwXwXwXwXwXwXwXwXwXwXwXwXwXwXwXwXwXwXwXwXwXwXwXwXwXwX",
"wXwXwXwXwXwXwXwXwXwXwXwXwXwXwXwXwXwXwXwXwXwXwXwXwXwXwXwXwXwXwXwXwXwXwXwXwXwXwXwXwXwXwXwXwXwXwXwXwXwXwXwXwXwXwXwXwXwXwXwXwXwXwXwX",
"wXwXwXwXwXwXwXwXwXwXwXwXwXwXwXwXwXwXwXwXwXwXwXwXwXwXwXwXwXwXwXwXwXwXwXwXwXwXwXwXwXwXwXwXwXwXwXwXwXwXwXwXwXwXwXwXwXwXwXwXwXwXwXwX",
"wXwXwXwXwXwXwXwXwXwXwXwXwXwXwXwXwXwXwXwXwXwXwXwXwXwXwXwXwXwXwXwXwXwXwXwXwXwXwXwXwXwXwXwXwXwXwXwXwXwXwXwXwXwXwXwXwXwXwXwXwXwXwXwX",
"wXwXwXwXwXwXwXwXwXwXwXwXwXwXwXwXwXwXwXwXwXwXwXwXwXwXwXwXwXwXwXwXwXwXwXwXwXwXwXwXwXwXwXwXwXwXwXwXwXwXwXwXwXwXwXwXwXwXwXwXwXwXwXwX",
"wXwXwXwXwXwXwXwXwXwXwXwXwXwXwXwXwXwXwXwXwXwXwXwXwXwXwXwXwXwXwXwXwXwXwXwXwXwXwXwXwXwXwXwXwXwXwXwXwXwXwXwXwXwXwXwXwXwXwXwXwXwXwXwX",
"wXwXwXwXwXwXwXwXwXwXwXwXwXwXwXwXwXwXwXwXwXwXwXwXwXwXwXwXwXwXwXwXwXwXwXwXwXwXwXwXwXwXwXwXwXwXwXwXwXwXwXwXwXwXwXwXwXwXwXwXwXwXwXwX",
"wXwXwXwXwXwXwXwXwXwXwXwXwXwXwXwXwXwXwXwXwXwXwXwXwXwXwXwXwXwXwXwXwXwXwXwXwXwXwXwXwXwXwXwXwXwXwXwXwXwXwXwXwXwXwXwXwXwXwXwXwXwXwXwX",
"wXwXwXwXwXwXwXwXwXwXwXwXwXwXwXwXwXwXwXwXwXwXwXwXwXwXwXwXwXwXwXwXwXwXwXwXwXwXwXwXwXwXwXwXwXwXwXwXwXwXwXwXwXwXwXwXwXwXwXwXwXwXwXwX",
"wXwXwXwXwXwXwXwXwXwXwXwXwXwXwXwXwXwXwXwXwXwXwXwXwXwXwXwXwXwXwXwXwXwXwXwXwXwXwXwXwXwXwXwXwXwXwXwXwXwXwXwXwXwXwXwXwXwXwXwXwXwXwXwX",
"wXwXwXwXwX4 4 4 9 4 4 wXwXwXwXwXwXwXwXwXwXwXwXwXwXwXwXwXwXwXwXwXwXwXwXwXwXwXwXwXwXwXwXwXwXwXwXwXwXwXwXwXwX9 9 4 9 4 4 wXwXwXwXwX",
"wXwXwXwX4 4 9 4 4 4 4 4 wXwXwXwXwXwXwXwXwXwXwXwXwXwXwXwXwXwXwXwXwXwXwXwXwXwXwXwXwXwXwXwXwXwXwXwXwXwXwXwX4 4 4 4 4 4 4 4 wXwXwXwX",
"wXwXwXwX>.4 4 4 4 4 4 3 wXwXwXwXwXwXwXwXwXwXwXwXwXwXwXwXwXwXwXwXwXwXwXwXwXwXwXwXwXwXwXwXwXwXwXwXwXwXwXwX3 5 5 2 4 4 4 9 wXwXwXwX",
"wXwXwX*.:.4 9 9 9 9 4 , 0 wXwXwXwXwXwXwXwXwXwXwXwXwXwXwXwXwXwXwXwXwXwXwXwXwXwXwXwXwXwXwXwXwXwXwXwXwXwXG., - - : 5 4 9 9 9 wXwXwX",
"A g.o.4.<.3 9 8 7 9 3 > e K ! ' oX6X#XOX| ( E L r 3 8 8 8 7 7 9 7 9 , G.N.E D D D D U f l 9.l.b.=X4X{.H.r # # # : 8 9 9 9 9 8 8 ",
"g.j.8.4.1.:.4 9 9 4 3 q N.E ( | OX#X#XoX| ( E e q r 9 7 9 7 9 9 9 2 3 C.N.E W D D W U f l 9.l.b.=X5X{.K.q & @ # - 2 4 4 9 4 4 4 ",
"k.l.r.6.-.<.:.:.3 3 r V.N.^ ` R.OX#X#XXX' Q J L V.;.>.>.,.,.,.,.3 3 r V.L ^ G W S W U f M 9.z.v.>X2X$X[.Z.w $ & ; < , 3 1 :.:.:.",
"v.v.a.s.d.-.*.;.;.C.V.S.D.' R.oX+X$X#XE.] F o L #.%.1.2.2.J.J.G.G.G.= B.j R P P W W U I M b l.b.>X3X#X].L.Z.0 * w w * = %.*.=.=.",
"=X*X&Xs.s.6.5.%.#.M.N.D.F.E.OX#X7X7X#XW.W o o d s @.6.f._.`.[.K.S.N.M.j j m V n U W G f l 9.l.b.*X3X7X$X].K.A.B.+ . . s +.@.4.7.",
"4X2X<X&Xa.e.8.m R H ^ F.E.@X#X7X8X7X@XR.E o   u s 3.e.a.'.|.{.XX' ^ K j m v v V I U U I M b l.v.=X2X7X7X7X{.Q.D.O .   i s 3.o.o.",
"9X7X4X*Xm.z.q.M I U ( ../.6X7X8X8X2X^.P.J     y a z q.n.:X2X#XOX.X` / R v 9.9.v n P P n l 9.l.x.&X,X2X8X9X7X|.P.K     t k 9.l.l.",
"qXqX7X<X*Xm.i.{ Y ) ! ..XX6X8X8X1X:XT.t.h d y a a l C U.;X7X0X+XoXR.} { y.9.9.b M B n M c b j.z.v.&X:X4X8X8X6X!.R d t p N c.b.b.",
"9X9X8X5X<X;X;XP._ ) ( ..XX#X8X1X>Xn.u.q.x k p a g I [ P.).6X7X0X@XOX/.I.u.k.h.b c z l c b X.h.k.z.v.m.*X1X7X3X^.t.k k N i.%X=X>X",
"7X9X8X8X5X2X;XE._ ) ( '  X#X3X:Xm.z.l.9.X.b c k f Y / | /.6X7X7X0X0X;X%Xc.l.h.X.X.9.9.X.X.h.j.j.X.l.z.m.:X2X2XY.u.q.q.u.T.,X2X3X",
"3X2X2X4X4X2X(.!.} Y / } !.(.,X&Xv.l.h.g.g.h.9.z n P / } !.;X3X7X8X8X2X*Xv.l.h.h.h.h.j.j.k.l.l.k.j.j.l.v.&X,X,X:Xn.x.z.i.Y.(.#X#X",
"*X*X*X*X=X*X%XI.P.V [ { I.&X&Xn.z.j.g.g.g.g.X.0.M n [ { I.Y.:X<X5X8X5X*Xn.l.h.g.g.h.j.l.z.v.v.z.l.X.j.z.v.&X&X&Xm.b.m.T.^./.OXXX",
"v.v.v.v.n.v.v.p.y.C C y.p.v.v.z.l.j.h.g.g.h.j.9.v v C Z p.c.n.*X<X8X5X:Xn.l.j.g.g.g.j.x.n.&X&Xn.z.j.j.9.l.v.n.m.=X&X;X^.W.R.' ' ",
"l.l.l.l.l.l.r.k.9.9.9.9.9.l.l.l.j.h.h.h.h.h.h.h.X.b 9.9.9.l.x.m.,X2X4X*Xv.l.h.g.g.h.l.v.&X,X,X&Xv.l.h.h.h.l.x.b.&X,X(./.R.` ( ! ",
"h.h.j.j.h.h.h.h.j.j.h.h.h.g.h.h.h.h.h.h.h.h.h.h.h.j.h.h.h.h.l.n.*X2X2X*Xn.l.h.g.g.h.l.v.*X2X2X:Xv.l.h.g.X.g.l.b.>X2X#XOX' ( W F ",
"g.X.g.g.g.g.g.g.g.j.g.g.g.g.X.g.h.h.h.h.h.h.h.j.g.g.g.g.g.g.l.v.*X2X2X*Xv.r.X.A X.j.l.n.,X3X3X,Xn.l.h.g.g.g.l.v.:X3X#XXX' ! F F "
};
