/* XPM */
static char *outline_06[] = {
/* columns rows colors chars-per-pixel */
"64 64 205 2 ",
"   c #7A5A3D",
".  c #547B33",
"X  c #5B7D33",
"o  c #50743B",
"O  c #5A7839",
"+  c #7D633F",
"@  c #78683C",
"#  c #63733F",
"$  c #727636",
"%  c #7B5E40",
"&  c #547342",
"*  c #5C7443",
"=  c #5A7849",
"-  c #6D6C48",
";  c #6B6B46",
":  c #7B6844",
">  c #697649",
",  c #73754A",
"<  c #787949",
"1  c #637C50",
"2  c #8C462E",
"3  c #894F33",
"4  c #904C30",
"5  c #875637",
"6  c #885938",
"7  c #925D38",
"8  c #995A34",
"9  c #A25E36",
"0  c #88792C",
"q  c #896335",
"w  c #946334",
"e  c #8A783D",
"r  c #AE6A37",
"t  c #A56636",
"y  c #B56A35",
"u  c #AC773A",
"i  c #A77B3D",
"p  c #B37D3C",
"a  c #BE7B39",
"s  c #B97437",
"d  c #C37A37",
"f  c #C17B39",
"g  c #C37639",
"h  c #856C43",
"j  c #877F4B",
"k  c #957E43",
"l  c #9C7D43",
"z  c #957845",
"x  c #A57D41",
"c  c #71AB1D",
"v  c #7CB61E",
"b  c #7EBA1C",
"n  c #5D8C2A",
"m  c #5D8934",
"M  c #618D2D",
"N  c #69832E",
"B  c #699726",
"V  c #7F9027",
"C  c #618C30",
"Z  c #6C9C3D",
"A  c #689735",
"S  c #739638",
"D  c #79893E",
"F  c #6DA223",
"G  c #6DA129",
"H  c #70A325",
"J  c #7CAA24",
"K  c #71A42B",
"L  c #78AB2A",
"P  c #73AB28",
"I  c #7DB720",
"U  c #7FBA22",
"Y  c #6FA33E",
"T  c #7CAD34",
"R  c #76A737",
"E  c #7CB135",
"W  c #588045",
"Q  c #5B8556",
"!  c #5E8957",
"~  c #5C8559",
"^  c #6D8A4C",
"/  c #6A8A48",
"(  c #74894D",
")  c #66904E",
"_  c #6C9B45",
"`  c #729640",
"'  c #648252",
"]  c #6C8552",
"[  c #628956",
"{  c #6E8A54",
"}  c #648D58",
"|  c #688F58",
" . c #738D54",
".. c #7B8552",
"X. c #6C9454",
"o. c #6A9159",
"O. c #659154",
"+. c #72975A",
"@. c #7C9758",
"#. c #74995B",
"$. c #7C9D5B",
"%. c #749F51",
"&. c #7DB041",
"*. c #7DA15E",
"=. c #75A646",
"-. c #799F60",
";. c #81BD1B",
":. c #8CB81E",
">. c #8C9A28",
",. c #8B8F3C",
"<. c #998432",
"1. c #969837",
"2. c #A8972E",
"3. c #A5893A",
"4. c #B68538",
"5. c #A79130",
"6. c #99A828",
"7. c #8AB327",
"8. c #82BB22",
"9. c #82B62B",
"0. c #85BB2C",
"q. c #82B727",
"w. c #90BA27",
"e. c #81A838",
"r. c #98A333",
"t. c #8CBE35",
"y. c #84B738",
"u. c #8CBC3C",
"i. c #84B630",
"p. c #96BD34",
"a. c #98BD34",
"s. c #99B836",
"d. c #A1A62F",
"f. c #83C217",
"g. c #85C21B",
"h. c #88C41D",
"j. c #87C220",
"k. c #8AC324",
"l. c #8EC32C",
"z. c #90C52C",
"x. c #8FC135",
"c. c #93C434",
"v. c #96C936",
"b. c #95C43A",
"n. c #98C53D",
"m. c #97C83C",
"M. c #99C93B",
"N. c #83834B",
"B. c #8A824A",
"V. c #87884A",
"C. c #9C8143",
"Z. c #978246",
"A. c #95914F",
"S. c #838D52",
"D. c #849253",
"F. c #859A57",
"G. c #9F9C56",
"H. c #B29347",
"J. c #A29854",
"K. c #B08E47",
"L. c #84A74A",
"P. c #89B54A",
"I. c #94BD46",
"U. c #9FB343",
"Y. c #81A45B",
"T. c #8BA65D",
"R. c #8BAA5C",
"E. c #84A957",
"W. c #97A75B",
"Q. c #86B050",
"!. c #92B35C",
"~. c #9CBE5A",
"^. c #95B954",
"/. c #AAA748",
"(. c #A6B75E",
"). c #A7BA59",
"_. c #A7B24D",
"`. c #82A660",
"'. c #8DAD61",
"]. c #90AF62",
"[. c #8DB063",
"{. c #91B263",
"}. c #99B761",
"|. c #9CBB65",
" X c #A2BE63",
".X c #97C145",
"XX c #9BC544",
"oX c #9EC54C",
"OX c #9FCA48",
"+X c #96C04C",
"@X c #9BC054",
"#X c #A0C64D",
"$X c #A1CA4C",
"%X c #A2C652",
"&X c #A6C956",
"*X c #A8CC55",
"=X c #A7C65B",
"-X c #A8C75E",
";X c #A7C95C",
":X c #ABCA5E",
">X c #A4C163",
",X c #AAC664",
"<X c #ACC962",
"1X c #A5C269",
"2X c None",
/* pixels */
"2X2X2X2X2X2X2X2X2X2X2X2X2X2X2X2X2X2X2X2X2X2X2X2X2X2X2X2X2X2X2X2X2X2X2X2X2X2X2X2X2X2X2X2Xf d g g g g 4.5.6.:.;.f.f.f.f.f.g.g.g.g.",
"2X2X2X2X2X2X2X2X2X2X2X2X2X2X2X2X2X2X2X2X2X2X2X2X2X2X2X2X2X2X2X2X2X2X2X2X2X2X2X2X2X2X2X2Xa a a a f a 4.5.6.:.f.f.f.h.g.g.g.;.g.g.",
"2X2X2X2X2X2X2X2X2X2X2X2X2X2X2X2X2X2X2X2X2X2X2X2X2X2X2X2X2X2X2X2X2X2X2X2X2X2X2X2X2X2X2X2Xp p p p 4.4.4.d.6.w.k.k.k.k.k.k.h.g.g.g.",
"2X2X2X2X2X2X2X2X2X2X2X2X2X2X2X2X2X2X2X2X2X2X2X2X2X2X2X2X2X2X2X2X2X2X2X2X2X2X2X2X2X2X2X2XC.C.C.3.5.5.2.d.s.a.c.c.v.b.c.l.k.h.g.g.",
"2X2X2X2X2X2X2X2X2X2X2X2X2X2X2X2X2X2X2X2X2X2X2X2X2X2X2X2X2X2X2X2X2X2X2X2X2X2X2X2X2X2X2X2XN.N.V.,.>.r.6.s.s.#X#X#X#X#XXXb.l.k.g.g.",
"2X2X2X2X2X2X2X2X2X2X2X2X2X2X2X2X2X2X2X2X2X2X2X2X2X2X2X2X2X2X2X2X2X2X2X2X2X2X2X2X2X2X2X2X] ^ ( S >.7.w.p.#X#X=X-X-X=X#X.Xc.8.g.f.",
"2X2X2X2X2X2X2X2X2X2X2X2X2X2X2X2X2X2X2X2X2X2X2X2X2X2X2X2X2X2X2X2X2X2X2X2X2X2X2X2X2X2X2X2X~ [ ) _ R 0.l.m.#X=X:X,X<X=X%X.Xc.k.g.f.",
"2X2X2X2X2X2X2X2X2X2X2X2X2X2X2X2X2X2X2X2X2X2X2X2X2X2X2X2X2X2X2X2X2X2X2X2X2X2X2X2X2X2X2X2X~ ! O._ &.u.m.OX*X:X<X<X=X#XXXc.l.h.g.f.",
"2X2X2X2X2X2X2X2X2X2X2X2X2X2X2X2X2X2X2X2X2X2X2X2X2X2X2X2X2X2X2X2X2X2X2X2X2X2X2X2X2X2X2X2X~ ! O.%.Q.I.$X*X<X<X<X&X#Xn.c.l.k.h.g.;.",
"2X2X2X2X2X2X2X2X2X2X2X2X2X2X2X2X2X2X2X2X2X2X2X2X2X2X2X2X2X2X2X2X2X2X2X2X2X2X2X2X2X2X2X2XQ [ o.*.R.~.-X<X<X<X=X#Xn.z.k.k.h.;.g.f.",
"2X2X2X2X2X2X2X2X2X2X2X2X2X2X2X2X2X2X2X2X2X2X2X2X2X2X2X2X2X2X2X2X2X2X2X2X2X2X2X2X2X2X2X2XQ ! o.$.R.}. X X X|.~.I.t.k.h.h.8.k.k.k.",
"2X2X2X2X2X2X2X2X2X2X2X2X2X2X2X2X2X2X2X2X2X2X2X2X2X2X2X2X2X2X2X2X2X2X2X2X2X2X2X2X2X2X2X2XQ ! } o.*.'.].T.T.E.E.e.9.8.;.k.z.c.b.v.",
"2X2X2X2X2X2X2X2X2X2X2X2X2X2X2X2X2X2X2X2X2X2X2X2X2X2X2X2X2X2X2X2X2X2X2X2X2X2X2X2X2X2X2X2XQ ! } o.#.-.*.+. .] / S L ;.k.z.M.XX#X#X",
"2X2X2X2X2X2X2X2X2X2X2X2X2X2X2X2X2X2X2X2X2X2X2X2X2X2X2X2X2X2X2X2X2X2X2X2X2X2X2X2X2X2X2X2X! [ [ | } } { Q = & . C H v k.z.XX%X=X-X",
"2X2X2X2X2X2X2X2X2X2X2X2X2X2X2X2X2X2X2X2X2X2X2X2X2X2X2X2X2X2X2X2X2X2X2X2X2X2X2X2X2X2X2X2X] ] ] ] ] 1 = = o o . M F I k.c.XX%X=X-X",
"2X2X2X2X2X2X2X2X2X2X2X2X2X2X2X2X2X2X2X2X2X2X2X2X2X2X2X2X2X2X2X2X2X2X2X2X2X2X2X2X2X2X2X2XN.N.N.< < , > # X X n B c v k.z.M.XX#X#X",
"2X2X2X2X2X2X2X2X2X2X2X2X2X2X2X2X2X2X2X2X2X2X2X2X2X2X2X2X2X2X2X2X2X2X2X2X2X2X2X2X2X2X2X2XC.l z z q : @ $ X B B c v b g.k.l.c.b.b.",
"2X2X2X2X2X2X2X2X2X2X2X2X2X2X2X2X2X2X2X2X2X2X2X2X2X2X2X2X2X2X2X2X2X2X2X2X2X2X2X2X2X2X2X2Xp p u t w 7 6 0 >.J :.b f.f.h.h.k.k.k.k.",
"2X2X2X2X2X2X2X2X2X2X2X2X2X2X2X2X2X2X2X2X2X2X2X2X2X2X2X2X2X2X2X2X2X2X2X2X2X2X2X2X2X2X2X2Xa a s r 9 8 q 0 >.7.k.k.k.k.k.h.j.g.h.g.",
"2X2X2X2X2X2X2X2X2X2X2X2X2X2X2X2X2X2X2X2X2X2X2X2X2X2X2X2X2X2X2X2X2X2X2X2X2X2X2X2X2X2X2X2X2Xf g y 9 t t 3.r.a.v.v.v.b.x.l.j.f.f.f.",
"2X2X2X2X2X2X2X2X2X2X2X2X2X2X2X2X2X2X2X2X2X2X2X2X2X2X2X2X2X2X2X2X2X2X2X2X2X2X2X2X2X2X2X2X2X2X2Xs y r u K./.U.$X$X$XoXXXc.l.h.f.f.",
"2X2X2X2X2X2X2X2X2X2X2X2X2X2X2X2X2X2X2X2X2X2X2X2X2X2X2X2X2X2X2X2X2X2X2X2X2X2X2X2X2X2X2X2X2X2X2X2Xs s 4.H./.).=X<X;X=X%XXXx.j.f.;.",
"2X2X2X2X2X2X2X2X2X2X2X2X2X2X2X2X2X2X2X2X2X2X2X2X2X2X2X2X2X2X2X2X2X2X2X2X2X2X2X2X2X2X2X2X2X2X2X2Xs a 4.H._.(. X1X,X,X-X#Xb.x.k.k.",
"2X2X2X2X2X2X2X2X2X2X2X2X2X2X2X2X2X2X2X2X2X2X2X2X2X2X2X2X2X2X2X2X2X2X2X2X2X2X2X2X2X2X2X2X2X2X2X2X2Xd K.H.G.{.}.|.1X,X-X&XoXm.b.c.",
"2X2X2X2X2X2X2X2X2X2X2X2X2X2X2X2X2X2X2X2X2X2X2X2X2X2X2X2X2X2X2X2X2X2X2X2X2X2X2X2X2X2X2X2X2X2X2X2X2X2X2XA.F.F.`.[.|.1X<X:X&X%X#XoX",
"2X2X2X2X2X2X2X2X2X2X2X2X2X2X2X2X2X2X2X2X2X2X2X2X2X2X2X2X2X2X2X2X2X2X2X2X2X2X2X2X2X2X2X2X2X2X2X2X2X2X2X2X| o.#.Y.{. X,X:X-X-X=X=X",
"2X2X2X2X2X2X2X2X2X2X2X2X2X2X2X2X2X2X2X2X2X2X2X2X2X2X2X2X2X2X2X2X2X2X2X2X2X2X2X2X2X2X2X2X2X2X2X2X2X2X2X2X1 ' ] @.T.}. X>X=X=X=X=X",
"2X2X2X2X2X2X2X2X2X2X2X2X2X2X2X2X2X2X2X2X2X2X2X2X2X2X2X2X2X2X2X2X2X2X2X2X2X2X2X2X2X2X2X2X2X2X2X2X2X2X2X2X- - , ..F.T.!.~.~.oXoX#X",
"2X2X2X2X2X2X2X2X2X2X2X2X2X2X2X2X2X2X2X2X2X2X2X2X2X2X2X2X2X2X2X2X2X2X2X2X2X2X2X2X2X2X2X2X2X2X2X2X2X2X2X2X  @ @ < ..@.*.Q.P.b.v.c.",
"2X2X2X2X2X2X2X2X2X2X2X2X2X2X2X2X2X2X2X2X2X2X2X2X2X2X2X2X2X2X2X2X2X2X2X2X2X2X2X2X2X2X2X2X2X2X2X2X2X2X2X2X3 3 5 : ,  ._ =.E 0.k.k.",
"2X2X2X2X2X2X2X2X2X2X2X2X2X2X2X2X2X2X2X2X2X2X2X2X2X2X2X2X2X2X2X2X2X2X2X2X2X2X2X2X2X2X2X2X2X2X2X2X2X2X2X2Xw q q @ > 1 ! Z T 8.h.h.",
"2X2X2X2X2X2X2X2X2X2X2X2X2X2X2X2X2X2X2X2X2X2X2X2X2X2X2X2X2X2X2X2X2X2X2X2X2X2X2X2X2X2X2X2X2X2X2X2X2X2X2XA.<.0 0 $ > * W A G v f.f.",
"2X2X2X2X2X2X2X2X2X2X2X2X2X2X2X2X2X2X2X2X2X2X2X2X2X2X2X2X2X2X2X2X2X2X2X2X2X2X2X2X2X2X2X2X2X[ o.*.{. X).U.r.>.V N # o o m G I f.f.",
"2X2X2X2X2X2X2X2X2X2X2X2X2X2X2X2X2X2X2X2X2X2X2X2X2X2X2X2X2X2X2X2X2X2X2X2X2X2X2X2X2X2X2X2XQ [ o.$.'. X=X#Xa.7.J B X o o m G b f.h.",
"2X2X2X2X2X2X2X2X2X2X2X2X2X2X2X2X2X2X2X2X2X2X2X2X2X2X2X2X2X2X2X2X2X2X2X2X2X2X2X2X2X2X2X2XQ [ o.*.'. X=X$XM.z.0.B M X . M H I h.h.",
"2X2X2X2X2X2X2X2X2X2X2X2X2X2X2X2X2X2X2X2X2X2X2X2X2X2X2X2X2X2X2X2X2X2X2X2X2X2X2X2X2X2X2X2XQ Q o.$.{.>X:X*X$Xv.t.T A M M B P ;.f.h.",
"2X2X2X2X2X2X2X2X2X2X2X2X2X2X2X2X2X2X2X2X2X2X2X2X2X2X2X2X2X2X2X2X2X2X2X2X2X2X2X2X2X2X2X2X~ ! } -.{. X<X<X*X$X.Xu.T K H H v ;.h.h.",
"2X2X2X2X2X2X2X2X2X2X2X2X2X2X2X2X2X2X2X2X2X2X2X2X2X2X2X2X2X2X2X2X2X2X2X2X2X2X2X2X2X2X2X2XQ [ o.$.R. X,X<X<X-X%X.Xt.q.;.;.;.;.g.g.",
"2X2X2X2X2X2X2X2X2X2X2X2X2X2X2X2X2X2X2X2X2X2X2X2X2X2X2X2X2X2X2X2X2X2X2X2X2X2X2X2X2X2X2X2X' ] @.F.T.~. X,X,X,X-XoXc.w.g.f.f.g.g.f.",
"2X2X2X2X2X2X2X2X2X2X2X2X2X2X2X2X2X2X2X2X2X2X2X2X2X2X2X2X2X2X2X2X2X2X2X2X2X2X2X2X2X2X2X2XN.N.V.D.T.T.{.|.1X,X:X$Xv.k.h.f.f.g.f.g.",
"2X2X2X2X2X2X2X2X2X2X2X2X2X2X2X2X2X2X2X2X2X2X2X2X2X2X2X2X2X2X2X2X2X2X2X2X2X2X2X2X2X2X2X2Xl C.C.V.D.$.`.[. X,X<X#Xv.k.h.f.f.f.g.f.",
"2X2X2X2X2X2X2X2X2X2X2X2X2X2X2X2X2X2X2X2X2X2X2X2X2X2X2X2X2X2X2X2X2X2X2X2X2X2X2X2X2X2X2X2Xp p C.C.N. .+.`.{. X=X#Xv.k.g.h.f.h.g.g.",
"2X2X2X2X2X2X2X2X2X2X2X2X2X2X2X2X2X2X2X2X2X2X2X2X2X2X2X2X2X2X2X2X2X2X2X2X2X2X2X2X2X2X2X2Xd a p l B... .$.'.W.~.I.c.k.h.h.8.k.k.k.",
"2X2X2X2X2X2X2X2X2X2X2X2X2X2X2X2X2X2X2X2X2X2X2X2X2X2X2X2X2X2X2X2X2X2X2X2X2X2X2X2X2X2X2X2X2Xd p x k B.V...D.F.L.y.i.8.8.k.z.c.b.b.",
"2X2X2X2X2X2X2X2X2X2X2X2X2X2X2X2X2X2X2X2X2X2X2X2X2X2X2X2X2X2X2X2X2X2X2X2X2X2X2X2X2X2X2X2X2X2X2Xp i l k B.( > / Z L 8.h.z.M.XX#X#X",
"2X2X2X2X2X2X2X2X2X2X2X2X2X2X2X2X2X2X2X2X2X2X2X2X2X2X2X2X2X2X2X2X2X2X2X2X2X2X2X2X2X2X2X2X2X2X2X2Xp p i e @ # X C H I k.c.XX%X=X-X",
"2X2X2X2X2X2X2X2X2X2X2X2X2X2X2X2X2X2X2X2X2X2X2X2X2X2X2X2X2X2X2X2X2X2X2X2X2X2X2X2X2X2X2X2X2X2X2X2Xp p i e $ o . n F I k.c.XX%X=X-X",
"2X2X2X2X2X2X2X2X2X2X2X2X2X2X2X2X2X2X2X2X2X2X2X2X2X2X2X2X2X2X2X2X2X2X2X2X2X2X2X2X2X2X2X2X2X2X2X2Xx C.e e $ m n B c b k.z.M.XX#X#X",
"2X2X2X2X2X2X2X2X2X2X2X2X2X2X2X2X2X2X2X2X2X2X2X2X2X2X2X2X2X2X2X2X2X2X2X2X2X2X2X2X2X2X2X2X2X2X2X2Xj N.N.( S B F c v b ;.k.z.c.b.b.",
"2X2X2X2X2X2X2X2X2X2X2X2X2X2X2X2X2X2X2X2X2X2X2X2X2X2X2X2X2X2X2X2X2X2X2X2X2X2X2X2X2X2X2X2X2X2X2X2X] ] ^ S R L v ;.;.;.h.h.k.k.k.k.",
"2X2X2X2X2X2X2X2X2X2X2X2X2X2X2X2X2X2X2X2X2X2X2X2X2X2X2X2X2X2X2X2X2X2X2X2X2X2X2X2X2X2X2X2X2X2X2X2X[ ) _ =.E 0.k.k.h.w.k.h.k.;.h.h.",
"2X2X2X2X2X2X2X2X2X2X2X2X2X2X2X2X2X2X2X2X2X2X2X2X2X2X2X2X2X2X2X2X2X2X2X2X2X2X2X2X2X2X2X2X2X2X2X2XZ Z Y R y.x.v.v.M.c.c.l.k.h.f.;.",
"2X2X2X2X2X2X2X2X2X2X2X2X2X2X2X2X2X2X2X2X2X2X2X2X2X2X2X2X2X2X2X2X2X2X2X2X2X2X2X2X2X2X2X2X2X2X2X2XP P E E .X.XOXoX#X#XXXb.l.k.g.;.",
"2X2X2X2X2X2X2X2X2X2X2X2X2X2X2X2X2X2X2X2X2X2X2X2X2X2X2X2X2X2X2X2X2X2X2X2X2X2X2X2X2X2X2X2X2X2X2X2XU U 0.x..XoX;X;X-X=X%XXXz.k.f.f.",
"2X2X2X2X2X2X2X2X2X2X2X2X2X2X2X2X2X2X2X2X2X2X2X2X2X2X2X2X2X2X2X2X2X2X2X2X2X2X2X2X2X2X2X2X2X2X2X2Xk.k.x.m.oX<X,X,X<X=X%X.Xz.k.g.f.",
"2X2X2X2X2X2X2X2X2X2X2X2X2X2X2X2X2X2X2X2X2X2X2X2X2X2X2X2X2X2X2X2X2X2X2X2X2X2X2X2X2X2X2X2X2X2X2X2Xv.v.m.OX*X<X<X<X=X#XXXc.l.k.g.f.",
"2X2X2X2X2X2X2X2X2X2X2X2X2X2X2X2X2X2X2X2X2X2X2X2X2X2X2X2X2X2X2X2X2X2X2X2X2X2X2X2X2X2X2X2X2X2X2X2X$X#X$X=X:X<X<X&XoXb.c.l.k.h.g.g.",
"2X2X2X2X2X2X2X2X2X2X2X2X2X2X2X2X2X2X2X2X2X2X2X2X2X2X2X2X2X2X2X2X2X2X2X2X2X2X2X2X2X2X2X2X2X2X2X2X&X=X:X<X,X,X=X%Xn.z.k.8.g.g.g.g.",
"2X2X2X2X2X2X2X2X2X2X2X2X2X2X2X2X2X2X2X2X2X2X2X2X2X2X2X2X2X2X2X2X2X2X2X2X2X2X2X2X2X2X2X2X2X2X2X2X).(.(. X X X~.+Xu.l.k.h.h.g.g.;.",
"2X2X2X2X2X2X2X2X2X2X2X2X2X2X2X2X2X2X2X2X2X2X2X2X2X2X2X2X2X2X2X2X2X2X2X2X2X2X2X2X2X2X2X2X2X2X2X2XJ.J.J.W.W.T.!.^.I.b.c.l.k.h.g.g.",
"2X2X2X2X2X2X2X2X2X2X2X2X2X2X2X2X2X2X2X2X2X2X2X2X2X2X2X2X2X2X2X2X2X2X2X2X2X2X2X2X2X2X2X2X2X2X2X2Xz z z B.D.F.Y.Q.^.I.n.M.l.h.g.g.",
"2X2X2X2X2X2X2X2X2X2X2X2X2X2X2X2X2X2X2X2X2X2X2X2X2X2X2X2X2X2X2X2X2X2X2X2X2X2X2X2X2X2X2X2X2X2X2X2X8 7 h h ,  .+.*.!.~.%Xn.c.k.f.;.",
"2X2X2X2X2X2X2X2X2X2X2X2X2X2X2X2X2X2X2X2X2X2X2X2X2X2X2X2X2X2X2X2X2X2X2X2X2X2X2X2X2X2X2X2X2X2X2X2X2 4 6 h - ' o.*.{. X=X#Xc.k.h.f.",
"2X2X2X2X2X2X2X2X2X2X2X2X2X2X2X2X2X2X2X2X2X2X2X2X2X2X2X2X2X2X2X2X2X2X2X2X2X2X2X2X2X2X2X2X2X2X2X2X2 2 3   - 1 | -.[. X-X#XM.k.g.f."
};
