/* XPM */
static char *outline_09[] = {
/* columns rows colors chars-per-pixel */
"64 64 222 2 ",
"   c #48683F",
".  c #47693A",
"X  c #52633A",
"o  c #4F743A",
"O  c #547B34",
"+  c #50733A",
"@  c #5A773B",
"#  c #736839",
"$  c #6A7A3A",
"%  c #72713D",
"&  c #727535",
"*  c #4B6D43",
"=  c #416A44",
"-  c #4C7549",
";  c #527344",
":  c #5C734A",
">  c #547A4C",
",  c #5B7A4A",
"<  c #577743",
"1  c #54774C",
"2  c #7E6541",
"3  c #6A784A",
"4  c #7D7D4A",
"5  c #757748",
"6  c #935B36",
"7  c #A35E36",
"8  c #87792C",
"9  c #956736",
"0  c #8C743C",
"q  c #837F3B",
"w  c #8C6A36",
"e  c #A86836",
"r  c #B56A35",
"t  c #AC773B",
"y  c #A67A3D",
"u  c #BD7536",
"i  c #B37C3C",
"p  c #BD7B39",
"a  c #B77538",
"s  c #C47635",
"d  c #C27937",
"f  c #C27C38",
"g  c #897744",
"h  c #937D45",
"j  c #9C7E43",
"k  c #957743",
"l  c #866A43",
"z  c #A47D41",
"x  c #AE7E41",
"c  c #7CB61F",
"v  c #7EB91E",
"b  c #73AA1E",
"n  c #5C872D",
"m  c #5C8631",
"M  c #5E8A34",
"N  c #618D2D",
"B  c #67832E",
"V  c #6B9C25",
"C  c #6C9A2D",
"Z  c #6D9528",
"A  c #628E3A",
"S  c #63943A",
"D  c #6B993F",
"F  c #709635",
"G  c #7B8E31",
"H  c #6EA125",
"J  c #6EA22A",
"K  c #71A42A",
"L  c #78AE2E",
"P  c #79AB25",
"I  c #7CB523",
"U  c #7FBA22",
"Y  c #7BB32B",
"T  c #6FA03B",
"R  c #71A533",
"E  c #75AA32",
"W  c #7AAD33",
"Q  c #72A33D",
"!  c #7BAC3D",
"~  c #7DB137",
"^  c #5A8345",
"/  c #5B8448",
"(  c #5C8452",
")  c #5A8757",
"_  c #6B824D",
"`  c #628C4C",
"'  c #6D8B4A",
"]  c #77854F",
"[  c #7B854C",
"{  c #6A9747",
"}  c #6C9B42",
"|  c #67904F",
" . c #699647",
".. c #709E44",
"X. c #678150",
"o. c #6C8552",
"O. c #648B55",
"+. c #688E59",
"@. c #6F8853",
"#. c #768E54",
"$. c #669253",
"%. c #6D9453",
"&. c #6C9356",
"*. c #749A59",
"=. c #7A9D5B",
"-. c #729957",
";. c #6EA146",
":. c #73A344",
">. c #7AA649",
",. c #7EB248",
"<. c #7DA25D",
"1. c #78A255",
"2. c #789D60",
"3. c #82BE1D",
"4. c #938E2D",
"5. c #B5803E",
"6. c #BB833E",
"7. c #A78B3C",
"8. c #82B727",
"9. c #82BC22",
"0. c #82B72A",
"q. c #85BB2C",
"w. c #8BB327",
"e. c #8BBC35",
"r. c #8AB93A",
"t. c #85B639",
"y. c #90BF3D",
"u. c #97BA36",
"i. c #98A033",
"p. c #C0843D",
"a. c #83C217",
"s. c #85C21B",
"d. c #88C41E",
"f. c #8AC324",
"g. c #8EC32C",
"h. c #87C220",
"j. c #8EC038",
"k. c #92C434",
"l. c #95C439",
"z. c #98C53E",
"x. c #9AC83D",
"c. c #97C83C",
"v. c #90C42C",
"b. c #84834B",
"n. c #89844B",
"m. c #87884A",
"M. c #9D8144",
"N. c #948447",
"B. c #96914F",
"V. c #8B8E50",
"C. c #849955",
"Z. c #829F5A",
"A. c #929754",
"S. c #A38344",
"D. c #A88B47",
"F. c #BC8C43",
"G. c #B48843",
"H. c #BB9247",
"J. c #B3944A",
"K. c #B79D4E",
"L. c #B99C4C",
"P. c #B79447",
"I. c #A29B52",
"U. c #84A947",
"Y. c #89B649",
"T. c #95BD49",
"R. c #84AE51",
"E. c #82A45C",
"W. c #8BAC5C",
"Q. c #83A857",
"!. c #94AA5A",
"~. c #98A85A",
"^. c #8DB15A",
"/. c #99BD56",
"(. c #92B25E",
"). c #9DBE5B",
"_. c #95B759",
"`. c #A8A647",
"'. c #BAA14F",
"]. c #ADA655",
"[. c #ABAD5A",
"{. c #B5AC56",
"}. c #B3AF59",
"|. c #B7A853",
" X c #A5B55D",
".X c #AEBD5F",
"XX c #A9BB56",
"oX c #B4B55B",
"OX c #B5BA5F",
"+X c #A1BD48",
"@X c #8FAD64",
"#X c #85A660",
"$X c #90AF62",
"%X c #8FB163",
"&X c #94B362",
"*X c #9BB965",
"=X c #9DB869",
"-X c #A2BE63",
";X c #AEBE60",
":X c #A5BE69",
">X c #B3BF63",
",X c #97C144",
"<X c #9BC544",
"1X c #9EC54B",
"2X c #9FCA4B",
"3X c #94C14C",
"4X c #A0C64E",
"5X c #A2C94D",
"6X c #A1CB47",
"7X c #A2C652",
"8X c #A6CB56",
"9X c #A9CB56",
"0X c #A6C65B",
"qX c #A8C75E",
"wX c #A6C858",
"eX c #ABCA5D",
"rX c #A4C163",
"tX c #ABC664",
"yX c #ACC962",
"uX c #A9C368",
"iX c #B1C464",
"pX c None",
/* pixels */
"pXpXpXpXpXpXpXpXpXpXpXpXpXpXpXpXpXpXpXpXpXpXpXpXpXpXpXpXpXpXpXpXpXpXpXpXpXpXpXpXpXpXpXpXd p t j [ X.+.2.%X:XrX5Xc.f.s.s.a.s.s.s.",
"pXpXpXpXpXpXpXpXpXpXpXpXpXpXpXpXpXpXpXpXpXpXpXpXpXpXpXpXpXpXpXpXpXpXpXpXpXpXpXpXpXpXpXpXf p i j g @.&.2.%X*XwX2Xc.f.s.a.s.s.s.s.",
"pXpXpXpXpXpXpXpXpXpXpXpXpXpXpXpXpXpXpXpXpXpXpXpXpXpXpXpXpXpXpXpXpXpXpXpXpXpXpXpXpXpXpXpXd p i M.m.#.*.<.^.7X7X<Xk.f.s.a.s.s.s.s.",
"pXpXpXpXpXpXpXpXpXpXpXpXpXpXpXpXpXpXpXpXpXpXpXpXpXpXpXpXpXpXpXpXpXpXpXpXpXpXpXpXpXpXpXs d d i D.B.C.<.^._.1X<Xk.g.d.a.a.a.s.s.s.",
"pXpXpXpXpXpXpXpXpXpXpXpXpXpXpXpXpXpXpXpXpXpXpXpXpXpXpXpXpXpXpXpXpXpXpXpXpXpXpXpXpXd d d s p 6.D.A.~.W._.T.j.k.g.f.s.a.a.s.s.s.s.",
"pXpXpXpXpXpXpXpXpXpXpXpXpXpXpXpXpXpXpXpXpXpXpXpXpXpXpXpXpXpXpXpXpXpXpXpXpXpXpXpXp p p p u d G.J.]. X0X3Xj.g.f.f.h.s.s.s.s.s.s.s.",
"pXpXpXpXpXpXpXpXpXpXpXpXpXpXpXpXpXpXpXpXpXpXpXpXpXpXpXpXpXpXpXpXpXpXpXpXpXpXpXpXi i i i 6.6.F.K.oXOX0X1Xl.f.d.s.f.f.f.f.h.s.s.s.",
"pXpXpXpXpXpXpXpXpXpXpXpXpXpXpXpXpXpXpXpXpXpXpXpXpXpXpXpXpXpXpXpXpXpXpXpXpXpXpXpXj S.S.D.D.J.K.|.oXiXeX2Xk.f.s.f.g.k.j.g.f.h.s.s.",
"pXpXpXpXpXpXpXpXpXpXpXpXpXpXpXpXpXpXpXpXpXpXpXpXpXpXpXpXpXpXpXpXpXpXpXpXpXpXpXpXb.b.V.B.I.].}.OX>XiXeX1Xk.f.3.g.k.<X<Xl.g.f.s.s.",
"pXpXpXpXpXpXpXpXpXpXpXpXpXpXpXpXpXpXpXpXpXpXpXpXpXpXpXpXpXpXpXpXpXpXpXpXpXpXpXpXX.@.#.C.!. X;XiXiXtX0X1Xk.f.f.k.<X7X7X<Xk.f.s.a.",
"pXpXpXpXpXpXpXpXpXpXpXpXpXpXpXpXpXpXpXpXpXpXpXpXpXpXpXpXpXpXpXpXpXpXpXpXpXpXpXpX> ( O.=.W.-XyXyXyX0X7X<Xk.f.f.l.1X0X0X1Xl.f.s.a.",
"pXpXpXpXpXpXpXpXpXpXpXpXpXpXpXpXpXpXpXpXpXpXpXpXpXpXpXpXpXpXpXpXpXpXpXpXpXpXpXpX- 1 ( -.@XrXyXeX9X4X<Xk.f.f.f.l.1XqXqX1Xl.f.s.a.",
"pXpXpXpXpXpXpXpXpXpXpXpXpXpXpXpXpXpXpXpXpXpXpXpXpXpXpXpXpXpXpXpXpXpXpXpXpXpXpXpX= - > %.W.-XyX9X5Xz.k.f.s.f.f.l.4XqXqX1Xl.f.3.s.",
"pXpXpXpXpXpXpXpXpXpXpXpXpXpXpXpXpXpXpXpXpXpXpXpXpXpXpXpXpXpXpXpXpXpXpXpXpXpXpXpX  = ; ' Z.).0X5Xx.g.f.s.s.s.f.l.1X0X0X1Xl.f.s.a.",
"pXpXpXpXpXpXpXpXpXpXpXpXpXpXpXpXpXpXpXpXpXpXpXpXpXpXpXpXpXpXpXpXpXpXpXpXpXpXpXpXX X @ _ C.!./.T.e.f.s.s.a.s.f.k.<X7X7X<Xk.f.s.a.",
"pXpXpXpXpXpXpXpXpXpXpXpXpXpXpXpXpXpXpXpXpXpXpXpXpXpXpXpXpXpXpXpXpXpXpXpXpXpXpXpX# # # 5 [ C.U.U.q.3.a.a.a.s.f.g.l.<X<Xl.g.f.s.s.",
"pXpXpXpXpXpXpXpXpXpXpXpXpXpXpXpXpXpXpXpXpXpXpXpXpXpXpXpXpXpXpXpXpXpXpXpXpXpXpXpX9 w 0 g 5 3 ' F L v 3.a.a.a.s.f.v.k.k.g.f.f.s.s.",
"pXpXpXpXpXpXpXpXpXpXpXpXpXpXpXpXpXpXpXpXpXpXpXpXpXpXpXpXpXpXpXpXpXpXpXpXpXpXpXpXi t y 0 & 3 O A K I a.a.d.s.s.d.d.f.f.f.s.s.s.s.",
"pXpXpXpXpXpXpXpXpXpXpXpXpXpXpXpXpXpXpXpXpXpXpXpXpXpXpXpXpXpXpXpXpXpXpXpXpXpXpXpXi i j 0 & @ O N K 8.f.f.f.f.f.f.d.s.s.s.s.s.s.s.",
"pXpXpXpXpXpXpXpXpXpXpXpXpXpXpXpXpXpXpXpXpXpXpXpXpXpXpXpXpXpXpXpXpXpXpXpXpXpXpXx 7.M.g 4.& m N C L e.k.x.x.k.k.v.f.d.s.a.a.s.s.s.",
"pXpXpXpXpXpXpXpXpXpXpXpXpXpXpXpXpXpXpXpXpXpXpXpXpXpXpXpXpXpXpXpXpXpXpXpXpXp i z h n.m.F F Z V L r.T.4X4X5X6X<Xl.g.h.s.s.a.s.s.s.",
"pXpXpXpXpXpXpXpXpXpXpXpXpXpXpXpXpXpXpXpXpXpXpXpXpXpXpXpXpXpXpXpXpXpXpXpXd p i M.g ] ]  .R Y 8.e.<X7X0XqXqX0X7X<Xk.f.s.a.s.s.s.s.",
"pXpXpXpXpXpXpXpXpXpXpXpXpXpXpXpXpXpXpXpXpXpXpXpXpXpXpXpXpXpXpXpXpXpXpXpXd p i j b.@.| ;.W q.g.c.4X9XtXuX:X-XXXT.e.f.s.a.a.s.s.s.",
"pXpXpXpXpXpXpXpXpXpXpXpXpXpXpXpXpXpXpXpXpXpXpXpXpXpXpXpXpXpXpXpXpXpXpXd d d i z g o.| :.t.l.x.6X9XiXuX:X:X$X^.Y.e.9.s.s.s.s.s.s.",
"pXpXpXpXpXpXpXpXpXpXpXpXpXpXpXpXpXpXpXpXpXpXpXpXpXpXpXpXpXpXpXpXpXd f d d d p t k pXpXR.3X2X5X9XeXyX:X:X$XE.1.>.t.9.s.a.s.s.s.s.",
"pXpXpXpXpXpXpXpXpXpXpXpXpXpXpXpXpXpXpXpXpXpXpXpXpXpXpXpXpXpXpXpXp p p p p p p i pXpXpXpXwX0X0XeXyXtX-X&X#X-.-.Q W 9.s.s.s.s.s.s.",
"pXpXpXpXpXpXpXpXpXpXpXpXpXpXpXpXpXpXpXpXpXpXpXpXpXpXpXpXpXpXpXpXi i i i p G.G.F.pXpXpXpX*XrX-XrXrX-X(.W.=.%. .T L U s.s.s.s.s.s.",
"pXpXpXpXpXpXpXpXpXpXpXpXpXpXpXpXpXpXpXpXpXpXpXpXpXpXpXpXpXpXpXx S.j S.D.J.P.L.L.{.pXpX*X&X&X%X@X&X!.W.E.>...T E Y 3.s.s.s.s.s.s.",
"pXpXpXpXpXpXpXpXpXpXpXpXpXpXpXpXpXpXpXpXpXpXpXpXpXpXpXpXpXf i z N.m.m.B.I.].}.oX>XiXrX*X#X#X=.=.2.=.=.>.:.E L Y 9.s.s.s.s.s.s.s.",
"pXpXpXpXpXpXpXpXpXpXpXpXpXpXpXpXpXpXpXpXpXpXpXpXpXpXpXpXf p x j g ] #.C.~. X;XiXiXtX-X(.E.*.+.+.+.+.%...! Y 9.3.s.s.s.s.s.s.s.s.",
"pXpXpXpXpXpXpXpXpXpXpXpXpXpXpXpXpXpXpXpXpXpXpXpXpXpXpXpXu a t j [ @.&.*.^.).0XtXyXyX:X&XE.*.&.O.O.| { Q Y 9.s.s.s.s.s.s.s.s.s.s.",
"pXpXpXpXpXpXpXpXpXpXpXpXpXpXpXpXpXpXpXpXpXpXpXpXpXpXpXr r e e g 4 X.$.1.R.3X5X9XeXtXrX&X@X#X<.-.{ } T E I s.a.a.a.s.a.s.s.s.s.s.",
"pXpXpXpXpXpXpXpXpXpXpXpXpXpXpXpXpXpXpXpXpXpXpXpXpXu u r 7 7 6 w 5 X.$.;.,.j.,X2XwXqXuX:X=X&XW.R.>.W W Y v a.a.s.a.a.a.s.s.s.s.s.",
"pXpXpXpXpXpXpXpXpXpXpXpXpXpXpXpXpXpXpXpXpXpXpXpXf p a r 7 6 6 2 3 X.| ;.W f.g.l.4X0XtXuXuX-XXXT.e.q.v v 3.s.s.s.s.s.s.s.s.s.s.s.",
"pXpXpXpXpXpXpXpXpXpXpXpXpXpXpXpXpXpXpXpXpXpXpXpX6.6.i t e 9 w # 3 3 / D R Y f.j.<X7X0XqXqXwX7Xz.k.h.d.s.s.f.f.f.g.f.f.f.h.s.s.s.",
"pXpXpXpXpXpXpXpXpXpXpXpXpXpXpXpXpXpXpXpXpXpXpXF.H.P.F.7.4.8 8 & 3 : > ^ D R ~ ~ y.<X1X5X4X4X<Xl.v.d.d.h.g.k.l.l.l.k.k.g.f.h.s.s.",
"pXpXpXpXpXpXpXpXpXpXpXpXpXpXpXpXpXpXpXpXpXd p.F.'.|.`.`.i.4.Z B @ < ; > ^  .;.~ r.e.k.x.l.l.k.f.d.d.d.g.k.<X1X1X1X1X<Xl.g.f.s.a.",
"pXpXpXpXpXpXpXpXpXpXpXpXpXpXpXpXpXpXpXpXu p F.P.|.oXXXT.u.w.8.Z m +   - / / { T W q.f.f.f.f.f.f.s.d.f.k.<X7X0XyXtX0X7X<Xk.f.s.a.",
"pXpXpXpXpXpXpXpXpXpXpXpXpXpXpXpXpXpXpXpXi i G.J.]..X0X5Xx.g.8.K N O + ; / / { Q Y 9.s.s.d.s.s.s.d.f.g.z.1X0XyXtXtX0X7X,Xg.f.s.a.",
"pXpXpXpXpXpXpXpXpXpXpXpXpXpXpXpXpXpXpXi z z B.I.[.tXyX9X2Xc.e.W C N M M S } T E 8.3.a.a.a.s.s.f.v.k.c.1X0XyXtXtX0X1X1Xl.g.f.s.s.",
"pXpXpXpXpXpXpXpXpXpXpXpXpXpXpXpXpXd i z k n.V.A.&X:XtXeX9X5X,Xr.0.K V J K E L 0.9.3.a.a.a.s.d.g.l.<X7X0XtXtXtX0X1X<Xk.g.f.h.s.s.",
"pXpXpXpXpXpXpXpXpXpXpXpXpXpXpXpXf p i j g #.#.E.!.-XtXyXyXqX7X,Xr.8.3.I 3.3.9.9.3.3.s.s.a.s.f.k.<X7X0XtXtXtX0X4Xz.g.f.h.s.s.s.s.",
"pXpXpXpXpXpXpXpXpXpXpXpXpXpXpXpXG.x z h 4 X.O.-.W.).0XtXyXyX0X1Xl.f.3.3.s.s.a.s.3.s.s.a.s.s.f.k.<X7X0XqXtX0X7X<Xk.f.s.s.s.s.s.s.",
"pXpXpXpXpXpXpXpXpXpXpXpXpXpXpXI.D.M.h 4 3 , ( { U.T.4X9XyXyXtX4Xx.f.s.a.a.s.s.s.a.s.s.a.a.s.3.v.l.<X1X4X1X1X<Xk.g.s.a.a.a.s.s.s.",
") O.#.b.S.i d s s d 6.H.|..X-X!.A.m.4 3 : ; ; ` Q r.x.4X0XyXqX5Xk.f.s.a.s.s.s.s.a.a.3.a.a.a.d.f.g.k.k.l.l.l.k.g.f.h.s.a.s.s.s.3.",
") O.X.[ M.i p d p p 6.L.{..X-X&X=.#.X.: ; * + m V 8.v.x.5X0X0X1Xx.f.s.s.s.s.s.s.s.s.s.d.s.s.3.d.f.f.g.f.f.f.f.h.h.s.s.s.s.s.s.s.",
") > _ 4 h z i i 6.6.F.L.oX.XrX_.<.-.` ^ + o O N H v f.k.<X7X7X<Xk.f.s.a.a.s.s.d.f.f.f.f.f.f.f.f.h.s.s.s.s.s.s.s.s.s.s.s.s.s.s.s.",
"> > , 3 4 h S.D.G.J.L.|.oXtXrX_.R.:.D S M n n V b 3.d.v.c.<X<Xl.v.d.a.a.s.s.d.f.v.k.l.l.l.k.k.v.f.a.a.a.3.a.s.a.s.s.s.s.s.s.s.s.",
"- * : : 3 [ V.B.I.].}.oX>XuX0X/.Y.~ L J J H H P c 3.a.f.g.j.k.g.f.s.a.a.a.s.f.g.z.<X1X4X4X1X<Xk.g.h.a.a.a.a.s.a.s.s.s.s.s.s.s.3.",
"= = * * , X.#.C.~. X;XiXiXtX0X1Xy.g.U c c c v v v a.d.d.f.f.f.f.f.s.s.s.a.s.f.k.<X7X0XqXqXqX7X<Xg.f.s.a.3.s.s.s.s.s.s.s.s.s.s.s.",
". o X < ^ / %.Q.(.-XtXyXtX0X7X<Xv.d.s.s.a.a.a.a.s.s.a.s.s.s.s.h.f.f.f.9.s.h.f.g.<X7X0XtXtXtX0X4Xz.g.f.h.h.s.s.s.s.s.s.s.s.s.s.s.",
"n n m M S } :.R.).rXtXyX0X4X<Xl.v.d.d.a.s.d.d.d.d.s.s.a.a.a.s.h.g.k.k.g.f.h.f.g.l.<X7X0XtXyXtX0X1X,Xk.g.f.h.s.s.s.s.s.s.s.s.s.s.",
"V V V K K L ~ Y.3XrXtX0X1Xl.k.g.f.s.s.d.s.s.s.s.s.s.s.a.a.a.h.g.k.<X<Xl.g.f.f.f.g.k.<X1X0XtXtXtX0X7X<Xl.g.f.s.s.s.s.h.s.s.s.s.s.",
"c v v v c U q.l.7X0X0X4Xx.g.f.d.d.s.s.s.s.s.s.s.s.s.s.a.s.s.f.v.<X7X7X<Xk.f.s.s.s.f.g.l.4XqXtXtXtX0X7X<Xk.f.s.a.3.s.s.s.s.s.s.s.",
"3.s.s.a.a.s.f.k.1X4X7X1Xk.f.s.s.s.s.s.s.s.s.s.s.s.s.s.h.h.f.v.<X4XqXqX1Xk.f.s.3.a.s.f.k.<X7X0XqXqX0X7X<Xg.f.s.a.s.s.s.s.s.s.s.s.",
"a.s.s.d.s.s.d.v.l.<X<Xl.g.h.a.a.a.s.s.s.s.s.s.s.a.s.h.f.g.j.<X1X0XtXqX4Xl.f.s.a.a.s.s.g.k.<X1X4X4X1X<Xz.g.f.s.s.a.s.s.s.s.s.s.s.",
"d.d.s.s.s.s.f.f.g.k.k.g.f.s.s.a.s.s.s.s.s.3.s.s.a.s.f.g.l.<X7X0XtXtXqX4Xk.f.s.s.a.a.s.f.g.k.l.l.l.l.k.g.f.f.s.s.s.s.s.s.s.s.s.s.",
"a.s.s.s.s.s.s.h.h.f.f.f.h.s.s.s.s.s.s.s.s.s.s.s.a.s.f.k.<X7X0XtXtXtX0X1Xl.f.s.s.s.s.s.h.h.f.f.f.g.f.f.f.h.s.s.s.s.s.s.s.s.s.s.s.",
"a.s.s.s.s.s.s.s.s.s.s.s.s.s.s.s.s.s.s.s.s.s.s.s.3.s.f.k.<X7X0XqXtX0X7X<Xk.f.s.a.s.s.3.s.s.s.s.s.3.s.s.s.s.s.s.s.s.s.s.s.s.s.s.s.",
"s.s.s.s.s.s.s.s.a.s.a.s.3.s.s.s.s.s.s.s.s.s.s.s.s.s.f.g.l.<X1X4X1X1X<Xk.g.f.s.s.s.s.s.a.s.a.a.3.a.a.a.s.s.s.s.s.s.s.s.s.s.s.s.s.",
"s.s.s.s.s.s.s.s.a.s.s.s.s.s.s.s.s.s.s.s.s.s.s.s.s.s.s.f.g.k.k.k.l.k.k.g.f.s.s.s.s.s.s.s.s.a.s.s.a.s.a.s.3.s.s.s.s.s.s.s.s.s.s.s.",
"s.s.s.s.s.s.s.s.s.s.s.s.s.s.s.s.s.s.s.s.s.3.s.s.s.s.s.d.f.f.f.g.f.f.f.f.s.s.s.s.s.s.s.s.s.s.s.s.s.s.s.s.s.s.s.s.s.s.s.s.3.s.s.s.",
"s.s.s.s.s.s.3.s.s.s.s.s.s.s.s.s.s.s.s.s.s.s.s.s.s.s.s.s.s.s.s.s.3.s.s.s.s.s.s.s.s.s.s.s.s.s.3.s.s.s.s.s.s.s.s.h.s.s.s.s.s.s.s.s.",
"s.s.s.s.s.s.s.s.s.s.s.s.s.s.s.s.s.s.s.s.s.s.s.s.s.s.s.s.3.a.a.a.a.a.a.s.s.s.s.s.s.s.s.s.s.s.s.s.s.s.s.s.s.s.s.s.s.s.s.s.s.s.s.s."
};
