/* XPM */
static char *outline_03[] = {
/* columns rows colors chars-per-pixel */
"64 64 210 2 ",
"   c #50753C",
".  c #597B3C",
"X  c #557639",
"o  c #6E7736",
"O  c #71723E",
"+  c #4D6D43",
"@  c #596B48",
"#  c #537245",
"$  c #5E7242",
"%  c #557B43",
"&  c #5E7C46",
"*  c #5B7349",
"=  c #567A4B",
"-  c #5C7B4B",
";  c #55754A",
":  c #4D7444",
">  c #686F49",
",  c #676645",
"<  c #776341",
"1  c #6C7749",
"2  c #6B7849",
"3  c #627D4E",
"4  c #7B7D4A",
"5  c #76774A",
"6  c #895B39",
"7  c #985934",
"8  c #83643E",
"9  c #996539",
"0  c #8B763D",
"q  c #827D3A",
"w  c #937E3F",
"e  c #AE6B36",
"r  c #A56435",
"t  c #B56D35",
"y  c #A47C3E",
"u  c #AD7D3E",
"i  c #A9753C",
"p  c #B77538",
"a  c #B87538",
"s  c #B37D3D",
"d  c #BD7B3A",
"f  c #BD7436",
"g  c #C47A37",
"h  c #C27B38",
"j  c #CC7935",
"k  c #837C46",
"l  c #8C7F47",
"z  c #907342",
"x  c #937D44",
"c  c #9D7F43",
"v  c #876A41",
"b  c #A47E41",
"n  c #A97F40",
"m  c #7CB61F",
"M  c #5D892E",
"N  c #5D8933",
"B  c #5B8630",
"V  c #6B9B2B",
"C  c #67982A",
"Z  c #628B32",
"A  c #638737",
"S  c #629238",
"D  c #6B9B3C",
"F  c #689A37",
"G  c #75973A",
"H  c #788A3C",
"J  c #6DA127",
"K  c #6CA128",
"L  c #70A32B",
"P  c #75AC2D",
"I  c #79AC2D",
"U  c #7AAE26",
"Y  c #7CB522",
"T  c #7EB920",
"R  c #7CB329",
"E  c #6FA337",
"W  c #7BAE35",
"Q  c #72A33E",
"!  c #77A837",
"~  c #7DB132",
"^  c #598145",
"/  c #5D824D",
"(  c #5D8C41",
")  c #5C8555",
"_  c #5E8857",
"`  c #6D8E45",
"'  c #64834D",
"]  c #6C834C",
"[  c #628C4C",
"{  c #6E8C4C",
"}  c #658D41",
"|  c #7A8146",
" . c #75844F",
".. c #7C834D",
"X. c #718E4D",
"o. c #699647",
"O. c #6B9C42",
"+. c #6C954A",
"@. c #659740",
"#. c #729A40",
"$. c #7B9845",
"%. c #668453",
"&. c #6C8552",
"*. c #628956",
"=. c #6C8B54",
"-. c #638C59",
";. c #698F58",
":. c #718651",
">. c #738D53",
",. c #6B9354",
"<. c #6A9159",
"1. c #6A965C",
"2. c #719252",
"3. c #7E9A55",
"4. c #71975B",
"5. c #759C5B",
"6. c #7B9D5B",
"7. c #749B56",
"8. c #73A141",
"9. c #7CAB42",
"0. c #74A348",
"q. c #7DA35C",
"w. c #78A353",
"e. c #7AA161",
"r. c #81BE1D",
"t. c #82BB22",
"y. c #81B629",
"u. c #85BC2B",
"i. c #83B532",
"p. c #8CBD35",
"a. c #84B53B",
"s. c #8FBE3B",
"d. c #84B834",
"f. c #91BF3B",
"g. c #83C217",
"h. c #85C21B",
"j. c #88C41E",
"k. c #86C120",
"l. c #8AC323",
"z. c #8EC32C",
"x. c #90C52B",
"c. c #92C82B",
"v. c #8FC036",
"b. c #92C434",
"n. c #95C439",
"m. c #98C53E",
"M. c #99C83A",
"N. c #838446",
"B. c #83824B",
"V. c #8A8249",
"C. c #848A4D",
"Z. c #898643",
"A. c #958245",
"S. c #9B8144",
"D. c #92864B",
"F. c #828D50",
"G. c #849353",
"H. c #849D54",
"J. c #819B59",
"K. c #8B9E59",
"L. c #889253",
"P. c #84AC41",
"I. c #86A64F",
"U. c #8AAF4A",
"Y. c #83AA4B",
"T. c #8DB943",
"R. c #86B04F",
"E. c #80B142",
"W. c #93BC46",
"Q. c #95BD49",
"!. c #98BF4C",
"~. c #86A653",
"^. c #8AA65A",
"/. c #87AB5F",
"(. c #8CAC5D",
"). c #83A958",
"_. c #92AD5D",
"`. c #8CB05A",
"'. c #8CB356",
"]. c #92B952",
"[. c #9ABA56",
"{. c #93B35D",
"}. c #9DBE5B",
"|. c #90B753",
" X c #8BAC61",
".X c #93AF61",
"XX c #8EB061",
"oX c #92B162",
"OX c #99B761",
"+X c #9FBB60",
"@X c #A2BD63",
"#X c #9BC544",
"$X c #9DC845",
"%X c #9EC54B",
"&X c #9CC153",
"*X c #A0C64E",
"=X c #A2C84C",
"-X c #A3CC47",
";X c #A2C652",
":X c #AACC55",
">X c #A7C65B",
",X c #A8C75E",
"<X c #ABCB5C",
"1X c #A6C855",
"2X c #A5C164",
"3X c #ABC664",
"4X c #ADC962",
"5X c #AFC868",
"6X c #B0C969",
"7X c None",
/* pixels */
"h.h.h.h.h.h.h.h.h.h.h.h.g.h.g.g.h.h.h.h.h.h.h.g.g.h.l.b.%X>X>X%Xn.l.h.g.g.g.g.g.h.h.h.h.h.h.h.h.h.h.h.h.h.h.h.h.h.h.h.h.h.h.h.h.",
"h.h.h.h.h.h.h.h.h.h.h.h.h.h.h.h.h.h.h.h.h.h.h.h.g.h.l.n.%X>X>X*Xn.l.h.g.h.h.h.h.h.r.h.h.h.h.h.h.h.h.h.h.h.h.h.h.h.h.h.h.h.h.h.h.",
"h.h.h.h.h.h.h.h.h.h.h.j.l.l.l.l.j.r.h.h.h.h.h.h.j.u.z.m.*X,X>X*Xn.l.h.r.l.t.z.j.j.j.h.h.h.h.h.h.h.h.h.h.h.h.h.h.h.h.h.h.h.h.h.h.",
"g.g.h.h.h.h.h.h.h.h.j.l.z.b.b.z.l.j.h.h.h.h.j.l.z.b.n.%X>X,X>X%Xn.l.l.l.x.x.b.z.l.j.h.h.h.h.h.h.h.h.g.h.h.h.h.h.h.h.h.h.h.h.h.h.",
"h.g.h.h.h.h.h.h.g.h.l.x.n.#X#Xm.x.t.j.h.g.r.l.z.b.#X*X1X3X3X,X%Xb.l.l.x.n.#X#Xn.x.r.j.h.h.h.h.h.g.h.h.h.h.h.h.h.h.h.h.h.h.h.r.h.",
"h.h.h.h.h.h.h.g.h.h.l.b.#X;X;X#Xb.l.h.g.g.h.l.b.#X*X>X3X3X3X>X#Xb.z.l.x.#X*X;X#Xb.l.h.r.g.h.j.r.h.h.h.j.h.h.h.h.h.h.h.h.h.h.h.h.",
"l.l.l.l.j.j.h.h.r.t.u.f.%X;X;X#Xb.l.h.g.g.h.l.n.=X>X3X3X3X,X;X#Xx.u.l.b.%X>X>X=Xn.l.h.h.h.h.j.j.j.j.l.t.j.j.r.h.h.h.h.h.h.h.h.h.",
"n.n.b.c.l.j.h.T R I W E.T.#X#Xn.z.j.g.g.g.h.l.n.*X,X3X3X1X*X#Xb.z.j.u.n.*X,X,X*Xn.l.h.g.g.g.j.t.x.p.b.x.l.j.h.h.h.h.h.h.h.h.h.h.",
"=X=X#XM.c.l.k.R P Q 8.9.a.p.b.z.l.h.h.g.g.h.l.n.%X4X3X1X%Xn.b.z.j.j.z.n.*X,X,X*Xf.z.r.g.g.h.j.x.n.Q.-Xf.x.j.h.h.h.h.h.h.h.h.h.h.",
",X>X*X#Xb.l.T I Q o.o.8.W d.l.j.j.j.h.g.h.h.l.n.%X>X>X;X#Xz.l.h.h.h.t.n.*X>X>X*Xn.l.h.g.r.h.j.b.-X;X*X#Xn.j.h.h.h.h.h.h.h.h.h.h.",
"@X@X}.Q.p.y.U L D o.o.8.~ u.l.l.l.l.l.j.h.j.l.b.$X;X&X#Xb.k.h.g.g.h.l.b.#X;X;X#XM.t.h.h.r.l.p.m.%X>X>X*Xn.t.h.g.g.h.h.h.h.h.h.h.",
"oXXX/.Y.9.L V C F D Q ! a.p.b.M.M.b.b.x.l.j.l.z.n.#X#Xb.z.l.g.g.r.g.j.x.n.#X#Xn.x.j.j.j.x.x.M.*X>X,X<X=Xn.x.h.h.h.h.h.h.h.h.h.h.",
"e.e.5.+.} N B C V L W a.s.#X%X%X*X=X#XM.z.k.j.l.z.b.b.z.l.g.g.g.g.g.r.z.x.x.b.x.l.j.t.c.n.#X*X>X3X3X,X*Xn.l.r.g.r.h.h.h.h.h.h.h.",
"<.<.*.' %   X M V R u.b.#X;X>X3X,X>X;X#Xb.l.h.j.l.k.l.k.l.h.g.h.h.h.j.j.l.t.l.j.h.r.l.x.-X*X>X3X3X3X>X*Xb.c.h.h.g.h.h.h.h.h.h.h.",
":.&.&.- # +   N L R x.m.=X,X2X3X@X+X[.W.v.l.j.g.g.g.j.k.j.l.l.l.l.l.l.r.j.h.h.g.h.h.l.n.!.>X3X3X4X>X;X#Xx.t.h.h.g.h.h.h.h.h.h.h.",
"B.k 4 1 * @ % } ! p.m.-X:X5X2X+X.X^.~.a.d.t.h.g.g.g.j.k.z.b.n.M.M.n.b.x.z.h.h.g.h.h.l.n.*X,X4X3X>X*X#Xf.x.j.h.g.g.g.h.h.h.h.h.h.",
"b c x 4 1 3 - +.Y.Q.=X:X<X6X2XoXJ.+.o.G U r.h.g.g.g.j.x.b.#X%X%X*X*X#Xn.c.j.g.g.g.r.t.M.*X,X4X>X*Xm.p.x.j.r.g.r.g.g.r.g.g.r.g.g.",
"s n b x 4 ' =.7./.[.>X<X4X4X+X^.X.3 . M J m h.g.g.h.k.b.#X;X>X2X,X>X1Xm.c.j.g.r.g.r.c.b.*X>X>X;Xf.c.c.r.j.r.j.j.g.g.j.g.j.j.j.j.",
"g d s S...&.;.5. XOX@X2X3X2X{.H.] X X o V U t.l.k.k.z.M.%X>X3X3X3X>X=X$Xc.c.j.g.g.j.r.M.#X1X*X#XM.t.r.h.j.c.l.u.c.u.c.j.r.j.r.g.",
"j g u x ..=.;.4.e. XXXoXoXXX^.G.4 O O o H L W u.v.b.#X%X>X4X5X4X>X*X-XM.c.r.j.g.g.r.r.p.f.#X-XM.x.j.j.j.u.c.M.f.b.b.c.p.c.j.j.g.",
"7X7X7XV.:.*.-.;.1.6.6.q.e.q.3.C.k 0 0 q H G 0.P.T.%X%X1X4X5X3X1X*Xm.b.c.r.r.r.r.g.g.j.j.c.c.c.c.j.r.j.x.b.-X%X*X*X*X$Xf.c.r.j.g.",
"7X7X7X7X%.*.*.*.;.;.;.<.;.<.>.B.c y y c | ` 7.w.`.&X2X4X4X3X>X&Xn.x.t.r.r.r.r.j.g.j.r.j.r.c.u.r.j.j.l.p.#X*X>X>X,X>X=X#Xp.j.j.g.",
"7X7X7X7X*._ *.*._ *.*.%.*.&. .V.b s n b B.=.,.5./.OX2X2X3X>X&X#Xp.r.t.t.r.t.y.t.t.r.c.r.r.j.j.g.r.h.l.b.%X>X3X5X3X>X;X#Xp.c.r.g.",
"7X7X7X7X7X*._ _ ) ) %.&. ...l c u d n c k %.*.1.e. XXX].&X%X#X#Xi.Z.y.y.J V J y.p.b.c.c.j.j.g.g.g.g.c.b.%X,X3X3X>X;X$Xc.c.j.j.g.",
"7X7X7X7X7X7X7X7X7X7X7XB.l c c u s d s c B.%.-.-.1.5.e.R.T.v.v.d.a.G D S N B N D a.#X#Xn.p.r.g.g.j.j.u.M.*X,X4X>X*Xm.M.u.j.j.j.r.",
"7X7X7X7X7X7X7X7X7X7X7X7Xn s s d d d s S.B.&.-.-.-.;.7.0.a.u.u.~ Q o./ ^ %   . o.L.[.1X$XM.r.g.g.r.r.r.c.*X>X>X;XM.p.j.j.j.r.g.j.",
"7X7X7X7X7X7X7X7X7X7X7X7Xd d d h h d s c V.:.:.%.%.] X.G W R R ! O.[ / ; # # 2 X.K.2X>X=XM.c.r.g.g.j.u.M.#X;X=X#Xf.j.r.j.r.j.j.r.",
"7X7X7X7X7X7X7X7X7X7X7X7X7Xg h g h d s b A.V.B.B.B.B.N.$.G P E F ( - = = - ' { H._.+X,X;XM.r.j.r.r.g.r.p.n.#X-XM.u.j.g.g.g.g.j.g.",
"7X7X7X7X7X7X7X7X7X7X7X7X7X7X7X7X7X7X7Xu b S.c c c c A.Z.$.G S ( % # # - =.3.~.{.+X@X3X*XM.j.j.g.g.g.j.j.c.c.b.c.j.j.g.g.g.g.j.r.",
"7X7X7X7X7X7X7X7X7X7X7X7X7X7X7X7X7X7X7X7Xs s s s s s n A.C.{ [ = : + # ' 3._.@X3X3X3X<X%Xc.j.j.g.g.j.j.r.j.j.u.r.j.r.j.r.g.j.j.g.",
"7X7X7X7X7X7X7X7X7X7X7X7X7X7X7X7X7X7X7X7Xd d d h h d s c Z.:.&.- : + # { ~.+X2X5X4X<X=X$Xc.c.j.g.g.r.j.r.j.g.c.r.r.c.t.c.j.g.j.r.",
"7X7X7X7X7X7X7X7X7X7X7X7X7X7X7X7X7X7X7X7X7Xg g g g g s n A.B.4 1 $ # & >.(.2X4X<X:X=X$XM.c.r.j.g.g.j.g.j.g.r.r.t.c.c.M.c.r.j.j.g.",
"7X7X7X7X7X7X7X7X7X7X7X7X7X7X7X7X7X7X7X7X7X7X7X7X7X7X7Xn b c x 4 2 - ' 5.(.2X<X:X$XM.b.x.l.j.j.h.g.g.h.g.g.h.j.x.n.#X#Xn.x.l.h.r.",
"7X7X7X7X7X7X7X7X7X7X7X7X7X7X7X7X7X7X7X7X7X7X7X7X7X7X7X7Xs s b x 4 &.;.5. X@X,X;X#Xz.k.l.j.g.h.g.h.h.j.g.h.h.l.b.#X;X;X#Xf.l.h.g.",
"7X7X7X7X7X7X7X7X7X7X7X7X7X7X7X7X7X7X7X7X7X7X7X7X7X7X7X7Xg d s c B.&.;.5. XOX}.%Xv.z.t.m T T T t.t.k.l.j.h.h.u.b.#X;X;X%Xb.l.h.g.",
"7X7X7X7X7X7X7X7X7X7X7X7X7X7X7X7X7X7X7X7X7X7X7X7X7X7X7X7Xg h s c B.&.;.1.q./.(.R.9.W P L K K J I d.p.b.z.l.j.j.x.m.#X#Xn.x.l.h.g.",
"7X7X7X7X7X7X7X7X7X7X7X7X7X7X7X7X7X7X7X7X7X7X7X7X7X7X7X7Xg h s c B.=._ ;.1.5.w.w.O.0.@.S N B Z G P.Q.#Xn.z.j.h.l.x.b.b.x.z.j.r.h.",
"7X7X7X7X7X7X7X7X7X7X7X7X7X7X7X7X7X7X7X7X7X7X7X7X7X7X7X7Xg d s c B.&.-.-.-.;.;.-.,.;.[ ^     . ` I.[.;X-Xb.l.h.j.t.l.l.l.h.h.h.h.",
"7X7X7X7X7X7X7X7X7X7X7X7X7X7X7X7X7X7X7X7X7X7X7X7X7X7X7X7Xg d n b V. .&.&.&.&.=.&.%.3 3 ; : + % { ~.@X>X=Xm.x.l.r.j.h.h.h.h.h.h.h.",
"7X7X7X7X7X7X7X7X7X7X7X7X7X7X7X7X7X7X7X7X7X7X7X7X7X7X7X7X7Xh s b A.V.B.B.B.B.4 4 5 5 > @ @ + - =.(.@X3X1X=XM.b.z.l.j.h.g.g.h.h.h.",
"7X7X7X7X7X7X7X7X7X7X7X7X7X7X7X7X7X7X7X7X7X7X7X7X7X7X7X7X7X7X7Xn S.S.S.S.S.c x z v < < , @ = ) 4._.@X4X4X:X*X#Xb.z.r.h.g.h.h.h.h.",
"7X7X7X7X7X7X7X7X7X7X7X7X7X7X7X7X7X7X7X7X7X7X7X7X7X7X7X7X7X7X7X7Xs s s d s s i r 9 6 6 < > 3 =.5..X@X3X4X3X>X;X#Xb.l.h.g.g.h.h.h.",
"7X7X7X7X7X7X7X7X7X7X7X7X7X7X7X7X7X7X7X7X7X7X7X7X7X7X7X7X7X7X7X7Xd d d h h d a e r 7 6 8 5 5 >.3.^.{.@X@X3X3X,X=Xb.z.g.g.h.h.h.h.",
"7X7X7X7X7X7X7X7X7X7X7X7X7X7X7X7X7X7X7X7X7X7X7X7X7X7X7X7X7X7X7X7X7Xh g g g g f t r r 9 9 z l C.C.G.H.^..X@X@X,X*XM.l.h.r.g.h.h.h.",
"7X7X7X7X7X7X7X7X7X7X7X7X7X7X7X7X7X7X7X7X7X7X7X7X7X7X7X7X7X7X7X7X7X7X7X7X7X7X7Xa t e e i u c S.V.4  .X.J..X@X2X*Xn.l.h.g.h.h.h.h.",
"7X7X7X7X7X7X7X7X7X7X7X7X7X7X7X7X7X7X7X7X7X7X7X7X7X7X7X7X7X7X7X7X7X7X7X7X7X7X7X7Xa a p d p s y 0 O X & X.^.}.>X=Xb.z.j.g.g.h.h.h.",
"7X7X7X7X7X7X7X7X7X7X7X7X7X7X7X7X7X7X7X7X7X7X7X7X7X7X7X7X7X7X7X7X7X7X7X7X7X7X7X7Xf d d g d u y 0 5 X & { ~.[.*X-Xb.l.h.h.h.h.h.h.",
"7X7X7X7X7X7X7X7X7X7X7X7X7X7X7X7X7X7X7X7X7X7X7X7X7X7X7X7X7X7X7X7X7X7X7X7X7X7X7X7X7Xh S.h b b A.k 4  .+.$.U.W.#XM.x.j.h.g.h.h.h.h.",
"7X7X7X7X7X7X7X7X7X7X7X7X7X7X7X7X7X7X7X7X7X7X7X7X7X7X7X7X7X7X7X7X7X7X7X7X7X7X7X7X7X7X7XS.D.B.B.F.F.H.I.U.T.f.z.z.l.h.h.h.h.h.h.h.",
"7X7X7X7X7X7X7X7X7X7X7X7X7X7X7X7X7X7X7X7X7X7X7X7X7X7X7X7X7X7X7X7X7X7X7X7X7X7X7X7X7X7X7X7X4 :.>.J.^.{.[.!.s.z.l.j.j.h.h.h.h.h.h.h.",
"7X7X7X7X7X7X7X7X7X7X7X7X7X7X7X7X7X7X7X7X7X7X7X7X7X7X7X7X7X7X7X7X7X7X7X7X7X7X7X7X7X7X7X7X%.&.>.J._.{.}.%Xn.v.l.j.h.h.h.h.h.h.h.h.",
"7X7X7X7X7X7X7X7X7X7X7X7X7X7X7X7X7X7X7X7X7X7X7X7X7X7X7X7X7X7X7X7X7X7X7X7X7X7X7X7X7X7X7X7X..B.C.K.K._.{.].Q.b.b.z.l.l.h.h.h.h.h.h.",
"7X7X7X7X7X7X7X7X7X7X7X7X7X7X7X7X7X7X7X7X7X7X7X7X7X7X7X7X7X7X7X7X7X7X7X7X7X7X7X7X7X7X7X7Xc S.A.D.L.J.).).].%X#XM.x.l.h.h.h.h.h.h.",
"7X7X7X7X7X7X7X7X7X7X7X7X7X7X7X7X7X7X7X7X7X7X7X7X7X7X7X7X7X7X7X7X7X7X7X7X7X7X7X7X7X7X7X7Xd d S.S.C.>.7.q.{.}.;X#Xb.l.h.g.g.h.h.h.",
"7X7X7X7X7X7X7X7X7X7X7X7X7X7X7X7X7X7X7X7X7X7X7X7X7X7X7X7X7X7X7X7X7X7X7X7X7X7X7X7X7X7X7X7Xh n S.A.C.>.4.q.`.}.&X$Xb.l.h.h.h.h.h.h.",
"7X7X7X7X7X7X7X7X7X7X7X7X7X7X7X7X7X7X7X7X7X7X7X7X7X7X7X7X7X7X7X7X7X7X7X7X7X7X7X7X7X7X7X7XS.S.S.D.L.J.J.`.|.%X#Xn.x.j.h.r.g.h.h.h.",
"7X7X7X7X7X7X7X7X7X7X7X7X7X7X7X7X7X7X7X7X7X7X7X7X7X7X7X7X7X7X7X7X7X7X7X7X7X7X7X7X7X7X7X7XB.B.C.L.K._._.|.W.f.b.x.l.j.h.h.h.h.h.h.",
"7X7X7X7X7X7X7X7X7X7X7X7X7X7X7X7X7X7X7X7X7X7X7X7X7X7X7X7X7X7X7X7X7X7X7X7X7X7X7X7X7X7X7X7X&.&.>.J.(.{.}.%Xn.x.l.j.h.h.h.h.h.h.h.h.",
"7X7X7X7X7X7X7X7X7X7X7X7X7X7X7X7X7X7X7X7X7X7X7X7X7X7X7X7X7X7X7X7X7X7X7X7X7X7X7X7X7X7X7X7X) *.<.6..X@X>X*X#Xx.l.t.j.j.h.h.h.h.h.h.",
"7X7X7X7X7X7X7X7X7X7X7X7X7X7X7X7X7X7X7X7X7X7X7X7X7X7X7X7X7X7X7X7X7X7X7X7X7X7X7X7X7X7X7X7X) ) <.6..X@X,X1X=Xn.x.z.l.r.h.h.h.h.h.h.",
"7X7X7X7X7X7X7X7X7X7X7X7X7X7X7X7X7X7X7X7X7X7X7X7X7X7X7X7X7X7X7X7X7X7X7X7X7X7X7X7X7X7X7X7X) _ ;.q.XX@X4X,X1X=X#Xn.z.j.h.h.h.h.h.h.",
"7X7X7X7X7X7X7X7X7X7X7X7X7X7X7X7X7X7X7X7X7X7X7X7X7X7X7X7X7X7X7X7X7X7X7X7X7X7X7X7X7X7X7X7X) _ <.6.(.2X5X4X3X>X*X#Xb.l.h.h.h.h.h.h.",
"7X7X7X7X7X7X7X7X7X7X7X7X7X7X7X7X7X7X7X7X7X7X7X7X7X7X7X7X7X7X7X7X7X7X7X7X7X7X7X7X7X7X7X7X) _ <.6.`.@X4X5X5X3X>X%Xn.l.h.g.g.h.h.r.",
"7X7X7X7X7X7X7X7X7X7X7X7X7X7X7X7X7X7X7X7X7X7X7X7X7X7X7X7X7X7X7X7X7X7X7X7X7X7X7X7X7X7X7X7X) _ <.6..X@X3X6X6X5X,X%Xn.l.h.h.g.h.h.h."
};
