/* XPM */
static char *outline_01[] = {
/* columns rows colors chars-per-pixel */
"64 64 224 2 ",
"   c #5D5F34",
".  c #6A5933",
"X  c #765B35",
"o  c #5C7C2F",
"O  c #576938",
"+  c #597B3C",
"@  c #547738",
"#  c #5F6C2E",
"$  c #667C2C",
"%  c #67653A",
"&  c #7D653F",
"*  c #716F3C",
"=  c #71713C",
"-  c #78772B",
";  c #4C6B41",
":  c #546D45",
">  c #5E6D47",
",  c #537345",
"<  c #5C7243",
"1  c #5B7B4C",
"2  c #587949",
"3  c #696D45",
"4  c #7A6943",
"5  c #746843",
"6  c #627D4E",
"7  c #6A794A",
"8  c #6F7249",
"9  c #73794B",
"0  c #7A7D4A",
"q  c #767646",
"w  c #8D5B37",
"e  c #865C3A",
"r  c #995C35",
"t  c #82623C",
"y  c #8A6637",
"u  c #986338",
"i  c #88723B",
"p  c #90783B",
"a  c #86792B",
"s  c #A56134",
"d  c #A56837",
"f  c #AD6A36",
"g  c #A36E3A",
"h  c #B26C36",
"j  c #B36A34",
"k  c #A3743B",
"l  c #AB7E3F",
"z  c #A9773B",
"x  c #BB7437",
"c  c #B67538",
"v  c #B97638",
"b  c #B27C3D",
"n  c #BD7B39",
"m  c #B57037",
"M  c #C57A37",
"N  c #C17C39",
"B  c #866B40",
"V  c #8B7543",
"C  c #937C44",
"Z  c #9C7E43",
"A  c #A37E41",
"S  c #A87F41",
"D  c #7DB51E",
"F  c #7EBA1D",
"G  c #5D8A2D",
"H  c #5B8832",
"J  c #5F9136",
"K  c #6A9827",
"L  c #789A27",
"P  c #628C32",
"I  c #658531",
"U  c #6D9C3D",
"Y  c #689639",
"T  c #739A3A",
"R  c #6D8333",
"E  c #6DA325",
"W  c #71A22A",
"Q  c #76AC2C",
"!  c #79AD2D",
"~  c #73AA22",
"^  c #7CB523",
"/  c #7FB922",
"(  c #7CB42A",
")  c #6EA03B",
"_  c #74A535",
"`  c #74A932",
"'  c #7CAD34",
"]  c #70A13D",
"[  c #79AB3A",
"{  c #7CB034",
"}  c #5B8448",
"|  c #5C8454",
" . c #5D8957",
".. c #5C8559",
"X. c #568557",
"o. c #6C8C4B",
"O. c #67884A",
"+. c #74844D",
"@. c #718D4C",
"#. c #79854B",
"$. c #699747",
"%. c #6C9B42",
"&. c #66904F",
"*. c #6A9748",
"=. c #799946",
"-. c #678151",
";. c #6B8652",
":. c #638A55",
">. c #6D8953",
",. c #648E59",
"<. c #698F59",
"1. c #748C53",
"2. c #758751",
"3. c #6B9255",
"4. c #6A9159",
"5. c #699557",
"6. c #759B55",
"7. c #759A5A",
"8. c #7B9C5B",
"9. c #769656",
"0. c #73A242",
"q. c #7DAB42",
"w. c #7CA15D",
"e. c #79A253",
"r. c #76A947",
"t. c #7B9D60",
"y. c #7BA460",
"u. c #82BD1D",
"i. c #85B31E",
"p. c #889B25",
"a. c #97883E",
"s. c #928C31",
"d. c #AA813F",
"f. c #82BC22",
"g. c #82B62A",
"h. c #85BB2C",
"j. c #88BD20",
"k. c #83A73B",
"l. c #83B631",
"z. c #8CBD34",
"x. c #8DBD39",
"c. c #87B637",
"v. c #92BF38",
"b. c #93AD31",
"n. c #83C217",
"m. c #85C21B",
"M. c #88C41F",
"N. c #87C220",
"B. c #8AC324",
"V. c #8EC32C",
"C. c #91C72B",
"Z. c #8DC036",
"A. c #93C434",
"S. c #96C934",
"D. c #95C439",
"F. c #98C53E",
"G. c #99C938",
"H. c #82824B",
"J. c #8A8249",
"K. c #85894D",
"L. c #898847",
"P. c #958346",
"I. c #9A8345",
"U. c #938B4D",
"Y. c #848D51",
"T. c #819B59",
"R. c #859754",
"E. c #949752",
"W. c #9E9F4A",
"Q. c #A48042",
"!. c #AD9348",
"~. c #BA9E4E",
"^. c #B88E44",
"/. c #83AE41",
"(. c #86AA4D",
"). c #8CB547",
"_. c #94BD46",
"`. c #96BD4A",
"'. c #9CBC48",
"]. c #86A554",
"[. c #82A55D",
"{. c #8BA55B",
"}. c #8CAC5D",
"|. c #89A957",
" X c #92AE5A",
".X c #8BB156",
"XX c #9ABA57",
"oX c #9DBD5B",
"OX c #96B35B",
"+X c #99A442",
"@X c #B9AD59",
"#X c #A5B858",
"$X c #AEAA54",
"%X c #8DAD61",
"&X c #91AF62",
"*X c #8EB261",
"=X c #92B261",
"-X c #99B761",
";X c #9DBA63",
":X c #A2BE63",
">X c #AEBE60",
",X c #B7BA62",
"<X c #9BC544",
"1X c #9DC844",
"2X c #9EC54B",
"3X c #9FC84B",
"4X c #96C049",
"5X c #9DC153",
"6X c #A0C64E",
"7X c #A2C94B",
"8X c #A2C652",
"9X c #AACD56",
"0X c #A7C65B",
"qX c #A8C75E",
"wX c #A9C95C",
"eX c #A5C957",
"rX c #B0CF5E",
"tX c #A5C164",
"yX c #ABC664",
"uX c #ADC963",
"iX c #AFC968",
"pX c #B1C365",
"aX c #B2CB68",
"sX c None",
/* pixels */
"m.m.m.m.m.m.m.m.m.m.m.m.m.m.m.m.m.m.m.m.m.m.m.m.n.n.N.A.2X0X0X2XD.B.m.m.n.m.m.n.m.m.n.m.n.m.m.m.m.m.m.m.m.m.m.m.m.m.m.m.m.m.m.m.",
"m.m.m.m.m.m.N.m.m.m.m.m.m.m.m.m.m.m.m.m.m.m.m.m.n.m.B.D.2X0X0X2XD.B.m.m.m.m.m.m.m.m.m.m.m.m.m.m.m.m.u.m.m.m.m.m.m.m.m.m.m.m.m.m.",
"m.m.m.m.m.m.m.m.m.m.m.m.m.m.m.m.m.m.m.m.m.m.m.m.f.B.V.<X8X0X0X6XD.B.m.n.n.m.m.M.B.j.B.B.m.M.m.m.m.m.m.m.m.m.m.m.m.m.m.m.m.m.m.m.",
"m.m.m.m.m.m.m.m.m.m.m.m.m.m.m.u.m.u.m.m.m.m.N.B.V.A.F.2XeXyXwX6XD.B.m.n.n.m.B.B.V.V.A.V.B.m.m.m.m.m.m.m.n.m.n.m.m.m.m.m.m.m.m.m.",
"m.m.m.m.m.m.m.m.m.m.m.m.m.m.n.m.m.m.m.m.m.m.N.V.D.<X8X0XyXyX0X2XD.B.m.n.n.m.B.V.D.<X<XD.V.M.m.n.n.M.m.m.m.n.n.u.m.m.m.m.m.m.m.m.",
"m.m.m.m.m.m.m.m.m.m.m.m.m.m.m.m.m.m.m.m.m.u.B.A.<X8X0XyXyXuX0X2XD.B.m.n.n.m.B.A.<X8X6X<XD.B.m.m.m.m.m.m.m.m.m.m.m.m.m.m.m.m.m.m.",
"m.m.m.m.m.m.m.m.m.m.m.N.B.B.B.B.m.m.m.m.n.m.B.A.<X8X0XwX0X0X8X<XA.h./ F u.m.B.D.6X0X0X8XF.V.B.f.u.D i.u.f.B.B.B.m.m.m.u.f.f.u.f.",
"m.m.m.m.m.m.m.u.m.m.N.B.V.V.A.V.B.m.n.n.m.m.B.V.D.<X2X6X2X2X<X).c.' ! ^ F m.B.D.7XwXuXeX6XD.z.g.! ~ W ! z.z.S.C.B.N.F / ^ ! Q ' ",
"m.m.m.m.m.m.m.m.m.m.B.V.D.<X<XD.V.m.m.n.n.m.N.B.V.A.D.G.D.D.x.c.0.0.) ` ^ N.B.S.7XwXyXuXeX6X_.k.T P P T /._.1XS.C.B.F ^ ` ) %.%.",
"m.m.m.m.m.m.m.m.u.m.B.A.<X8X8X<XA.B.m.m.m.m.m.m.B.B.B.B.B.B.h.{ 0.$.$.) Q / B.A.2X0XyXuXuXyXXX].Y + + O.].XX8X1XS.B./ ! ) $.&.:.",
"m.m.m.m.m.u.m.n.n.m.B.D.2X0XqX8X<XV.B.m.m.m.m.m.m.m.m.m.m.m./ ! ] $.$.U ` ( h.x.`.5XtXyXyXyX;X].-., , O.9. XXX'.D.Z.h.{ 0.3.5.,.",
"m.m.m.m.m.n.m.n.n.m.B.D.6XqXyX0X2XF.A.V.B.N.m.m.m.m.n.n.n.m.m.^ ` ) %.) _ ` [ /.(.}.=X;XtXyX:X{.>.2 2 1 o.T.].).v.D.D.).(.[.w.8.",
"m.m.m.m.n.m.n.n.u.m.B.D.6XqXyXyXeX6X<XD.V.B.m.n.m.m.n.m.M.n.m.f.( ( ` _ ) ) %.*.6.7.[.=X;XtX:X}.6.| 2 2 1 -.&.(.).`.2X5XoXOX=X*X",
"m.m.m.m.u.m.m.m.n.m.B.A.2X0XyXyXyX0X8X<XA.B.m.n.n.m.m.m.m.m.m.m.f./ ( ` %.*.&.,.,.5.7.[.-XtX:X&X8.<.1 2 : , 1 @.].XX0XyX0XtX:X:X",
"M.u.m.M.N.B.B.M.m.M.B.A.<X8XqXuXyXyX0X2XD.B.m.m.n.n.m.m.n.n.M.n.m.m.N.{ 0.6.5.<.5.4.7.w.&X-X-X}.T.>.6 2 > O + +.R.OX:XtXtX;X;XtX",
"m.m.m.B.V.A.A.V.B.m.m.V.A.<X6X0XuXyXyX3XD.B.m.n.m.M.n.n.M.M.n.n.n.n.N.{ q.e.8.7.8.8.w.[.%X%X}.T.2.9 8 3 % % * #.R.{.%X=X=X=X=X=X",
"n.m.j.V.D.<X<XD.V.m.m.B.V.A.F.2X0XyXqX6XD.B.m.m.n.m.n.m.m.M.m.n.n.n.m.z.)..X*X*X*X*X%X%X%Xt.8.1.0 4 B e y i p C Y.8.8.y.w.w.8.w.",
"m.m.B.A.<X8X8X<XA.B.m.m.m.N.V.F.8X0X0X2XD.B.m.m.m.m.m.m.n.n.n.n.n.m.B.Z.2XoX;XtX:X:X-X%Xw.7.;.9 4 e e r d z A C H.1.4.4.4.4.4.4.",
"n.m.B.D.2X0X0X8X<XV.B.m.m.m.B.A.<X8X8X<XA.B.u.u.F D D ^ j.i.i.i.B.B.V.<X8X0XyXyXtXtX-X{.9.>.9 5 & w r s j m S Q.H.2. . . . .:.:.",
"n.m.B.D.2XqXyX0X2XF.A.V.B.m.N.V.D.<X<XA.V.m.F D ~ L K L L p.p.b.b.z.G.3XeXuXiXtX:X=X}.T.2.9 5 4 w r s j m N N S J.+.| X.X.| ....",
"u.m.B.A.6XqXyXuX0X6X<XD.V.B.N.B.B.A.V.C.M.m.F ~ K G G $ - a s.s.b.'.9X9XrXuXyX:X*X%X9.>.9 4 t y u d f m x N n S Z sXsXsXsXsXsXsX",
"n.m.B.A.2X0XuXyXyX0X8X<XA.B.m.m.B.B.B.B.M.M.F E G o O # . y y I.W.#XqXwXuXyX:X=X%X5.;.9 4 e w r d m c n n N N b sXsXsXsXsXsXsXsX",
"m.m.B.A.<X8X0XqXyX0X8X<XV.B.m.m.M.B.B.B.B.B.f.W G @ O   . X B V E.OX:XtXtXtX-X%XT.1.+.4 4 w r s f v n N N N n n sXsXsXsXsXsXsXsX",
"n.m.B.V.A.<X2X6X6X2X<XD.V.B.N.B.V.A.S.D.G.D.z.' K G o # . X X 4 Y.%X=X=X=X%X}.{.R.1.V V u r s f m n n N n n n sXsXsXsXsXsXsXsXsX",
"m.m.m.B.V.A.A.D.D.D.A.V.B.N.B.V.S.1X7X7X6X2X_.c.' W K $ #   O 3 +.8.y.y.y.y.8.R.U.P.Z k k f m m v n N N N sXsXsXsXsXsXsXsXsXsXsX",
"m.m.m.N.B.B.B.B.B.B.B.N.m.m.B.V.<X8X0X0XyXqX8X<Xz.g.~ K @ O O : 1 ;.<.4.<.4.1.K.P.S b c c c c n n n n n sXsXsXsXsXsXsXsXsXsXsXsX",
"m.m.m.m.m.m.m.m.m.m.m.m.m.m.B.z._.XXoX:XtXyXwX7XF.C.g.K H @ ; : > 6 :.6 ;.>.2.C Z b n N N n n n n n n n sXsXsXsXsXsXsXsXsXsXsXsX",
"m.m.m.m.n.n.u.n.u.n.n.n.n.m.f.g./.].{.&X:XyXuX9X7XF.x.[ $.2 , : > 3 8 9 9 0 J.C S n N M N N N N n n n sXsXsXsXsXsXsXsXsXsXsXsXsX",
"m.m.m.m.m.u.m.n.n.n.n.n.n.n.F Q U o.@.T.OXtXuXrX9X7X4Xq.6.} 2 > 3 5 4 B V Z A S d.n N N M sXsXsXsXsXsXsXsXsXsXsXsXsXsXsXsXsXsXsX",
"m.m.m.m.m.m.m.m.m.n.m.m.m.m./ L G + 2 o.{.:XyXuXrXwXoX|.6.,.-.3 X e w r g S b c n n N N sXsXsXsXsXsXsXsXsXsXsXsXsXsXsXsXsXsXsXsX",
"m.m.m.m.m.m.m.B.B.B.B.B.B.B.g.L I % 7 O.R. XoX:XtX:X-X%Xw.4.-.8 4 w r s f m n N n n n n sXsXsXsXsXsXsXsXsXsXsXsXsXsXsXsXsXsXsXsX",
"m.m.m.m.m.m.M.B.V.A.D.D.G.S.z.k.R - * q #.R.].}. X&X%Xy.5.,.-.9 B r s j m x N N N N n sXsXsXsXsXsXsXsXsXsXsXsXsXsXsXsXsXsXsXsXsX",
"m.m.m.m.m.m.B.V.F.<X3X3X2X2X'.+Xa.p i i q 9 o.3.7.7.t.7.,.,.;.0 V A f m m N N N N sXsXsXsXsXsXsXsXsXsXsXsXsXsXsXsXsXsXsXsXsXsXsX",
"m.m.m.m.m.m.B.A.<X8XeXyX0XeX#X$X!.d.p i = + , 2 | ,.,.,.,.:.;.#.C f v N M N n n sXsXsXsXsXsXsXsXsXsXsXsXsXsXsXsXsXsXsXsXsXsXsXsX",
"m.m.m.n.m.m.B.V.<X6X0XyXyXyX>X@X~.^.Q.p = O ; , 1 -.;.>.;.;.2.J.A S M M N n n n sXsXsXsXsXsXsXsXsXsXsXsXsXsXsXsXsXsXsXsXsXsXsXsX",
"m.m.m.m.n.m.N.V.D.<X3XeXuXyXpX,X@X~.!.P.9 < ; < 7 0 H.H.H.H.J.P.A S M M N n N sXsXsXsXsXsXsXsXsXsXsXsXsXsXsXsXsXsXsXsXsXsXsXsXsX",
"m.m.m.F m.m.m.B.V.V.<X<X0XyXyX,X,X@X$XE.2.6 1 7 0 C I.Z Z I.A A S sXsXsXsXsXsXsXsXsXsXsXsXsXsXsXsXsXsXsXsXsXsXsXsXsXsXsXsXsXsXsX",
"m.m.m.n.m.m.m.m.N.B.V.<X8X0XuXpXpXpX#X|.6.,.-.0 C z l b b b b b sXsXsXsXsXsXsXsXsXsXsXsXsXsXsXsXsXsXsXsXsXsXsXsXsXsXsXsXsXsXsXsX",
"m.m.m.m.B.B.B.B.B.B.V.D.1X8XqXeXwX0X#X.Xe.,.>.H.p l n M N n n n sXsXsXsXsXsXsXsXsXsXsXsXsXsXsXsXsXsXsXsXsXsXsXsXsXsXsXsXsXsXsXsX",
"m.m.B.B.V.A.D.A.A.Z.D.D.<X1X7X7X7X3X4X(.6.3.>.H.Q.b M M M M M sXsXsXsXsXsXsXsXsXsXsXsXsXsXsXsXsXsXsXsXsXsXsXsXsXsXsXsXsXsXsXsXsX",
"m.m.N.V.D.<X2X2X6X2X<X<XF.G.S.S.S.S.Z.q.r.,.<.#.Z b N M M sXsXsXsXsXsXsXsXsXsXsXsXsXsXsXsXsXsXsXsXsXsXsXsXsXsXsXsXsXsXsXsXsXsXsX",
"n.m.B.A.<X8X0XyXqX0X8X<XD.V.B.B.B.B.h.[ $.&.>.H.Z b n M sXsXsXsXsXsXsXsXsXsXsXsXsXsXsXsXsXsXsXsXsXsXsXsXsXsXsXsXsXsXsXsXsXsXsXsX",
"n.m.N.V.<X8X0XuXyXyXqX'.z.g.^ F / / ( ' =.o.#.C Z b n M sXsXsXsXsXsXsXsXsXsXsXsXsXsXsXsXsXsXsXsXsXsXsXsXsXsXsXsXsXsXsXsXsXsXsXsX",
"m.m.B.V.D.<X8X0XuXyX:X`.k.W K E E Q ` T =.K.H.P.A b n sXsXsXsXsXsXsXsXsXsXsXsXsXsXsXsXsXsXsXsXsXsXsXsXsXsXsXsXsXsXsXsXsXsXsXsXsX",
"m.m.m.B.V.A.<X2XqXuX:X X=.J H G J Y U L.a.P.a.S l sXsXsXsXsXsXsXsXsXsXsXsXsXsXsXsXsXsXsXsXsXsXsXsXsXsXsXsXsXsXsXsXsXsXsXsXsXsXsX",
"m.m.m.m.m.B.V.G.7XqXoX].o.+ @ , } O.o.K.P.k b v sXsXsXsXsXsXsXsXsXsXsXsXsXsXsXsXsXsXsXsXsXsXsXsXsXsXsXsXsXsXsXsXsXsXsXsXsXsXsXsX",
"m.m.m.n.m.m.B.D.1X8XXX|.o.2 , 2 } ,.1.Y.I.S b b sXsXsXsXsXsXsXsXsXsXsXsXsXsXsXsXsXsXsXsXsXsXsXsXsXsXsXsXsXsXsXsXsXsXsXsXsXsXsXsX",
"m.m.m.m.n.m.M.V.D.<X'.).=.@.-.<.9.7.T.R.U.I.I.A sXsXsXsXsXsXsXsXsXsXsXsXsXsXsXsXsXsXsXsXsXsXsXsXsXsXsXsXsXsXsXsXsXsXsXsXsXsXsXsX",
"m.m.m.m.n.m.m.B.V.A.v.).(.].{.{.%X%X%XE.R.Y.J.H.sXsXsXsXsXsXsXsXsXsXsXsXsXsXsXsXsXsXsXsXsXsXsXsXsXsXsXsXsXsXsXsXsXsXsXsXsXsXsXsX",
"m.m.m.m.m.m.m.m.m.B.V.x.`.XX;X:X:X:X-X{.T.1.>.-.sXsXsXsXsXsXsXsXsXsXsXsXsXsXsXsXsXsXsXsXsXsXsXsXsXsXsXsXsXsXsXsXsXsXsXsXsXsXsXsX",
"m.m.m.m.m.m.m.m.m.m.B.A.<X6X0XqXwX0X5X.X8.4. ...sXsXsXsXsXsXsXsXsXsXsXsXsXsXsXsXsXsXsXsXsXsXsXsXsXsXsXsXsXsXsXsXsXsXsXsXsXsXsXsX",
"m.m.m.m.m.m.m.n.n.n.m.V.G.<X7X7X7X7X4X.X6.3. ...sXsXsXsXsXsXsXsXsXsXsXsXsXsXsXsXsXsXsXsXsXsXsXsXsXsXsXsXsXsXsXsXsXsXsXsXsXsXsXsX",
"m.m.m.N.m.m.m.m.n.n.m.B.B.S.S.S.S.S.x.q.0.&. ...sXsXsXsXsXsXsXsXsXsXsXsXsXsXsXsXsXsXsXsXsXsXsXsXsXsXsXsXsXsXsXsXsXsXsXsXsXsXsXsX",
"m.m.m.m.m.m.m.m.m.m.m.M.B.B.B.B.B.V.h.[ %.:.:...sXsXsXsXsXsXsXsXsXsXsXsXsXsXsXsXsXsXsXsXsXsXsXsXsXsXsXsXsXsXsXsXsXsXsXsXsXsXsXsX",
"m.m.m.m.u.m.m.B.B.B.B.B.B.B.j.B.N./ ( ` %.3.:...sXsXsXsXsXsXsXsXsXsXsXsXsXsXsXsXsXsXsXsXsXsXsXsXsXsXsXsXsXsXsXsXsXsXsXsXsXsXsXsX",
"m.m.m.m.m.m.N.B.V.A.D.D.D.A.z.z.( Q ` ) %.:.:.sXsXsXsXsXsXsXsXsXsXsXsXsXsXsXsXsXsXsXsXsXsXsXsXsXsXsXsXsXsXsXsXsXsXsXsXsXsXsXsXsX",
"m.m.m.m.m.m.N.V.D.<X6X6X6X1X'.).q.] %.$.$.sXsXsXsXsXsXsXsXsXsXsXsXsXsXsXsXsXsXsXsXsXsXsXsXsXsXsXsXsXsXsXsXsXsXsXsXsXsXsXsXsXsXsX",
"m.m.m.n.m.m.B.A.<X8X0XeXwX0XoX.Xe.3.&.&.sXsXsXsXsXsXsXsXsXsXsXsXsXsXsXsXsXsXsXsXsXsXsXsXsXsXsXsXsXsXsXsXsXsXsXsXsXsXsXsXsXsXsXsX",
"m.m.m.m.m.m.B.A.<X8X0XyXyXyXtXOX8.7.<.,.sXsXsXsXsXsXsXsXsXsXsXsXsXsXsXsXsXsXsXsXsXsXsXsXsXsXsXsXsXsXsXsXsXsXsXsXsXsXsXsXsXsXsXsX",
"m.m.m.m.m.m.N.V.D.<X6X0XwXyXtX;X%X%X8.4.4.sXsXsXsXsXsXsXsXsXsXsXsXsXsXsXsXsXsXsXsXsXsXsXsXsXsXsXsXsXsXsXsXsXsXsXsXsXsXsXsXsXsXsX",
"m.u.m.m.m.m.m.B.V.A.<X<X0XuXyX:X;X=X%X%X7.<.:.sXsXsXsXsXsXsXsXsXsXsXsXsXsXsXsXsXsXsXsXsXsXsXsXsXsXsXsXsXsXsXsXsXsXsXsXsXsXsXsXsX",
"m.m.m.m.m.m.m.m.m.B.V.F.2X0XyXyXyXtX-X%X8.4...| sXsXsXsXsXsXsXsXsXsXsXsXsXsXsXsXsXsXsXsXsXsXsXsXsXsXsXsXsXsXsXsXsXsXsXsXsXsXsXsX",
"m.m.m.m.m.u.m.m.m.m.B.D.2X0XyXiXaXyX:X%X8.4.:...sXsXsXsXsXsXsXsXsXsXsXsXsXsXsXsXsXsXsXsXsXsXsXsXsXsXsXsXsXsXsXsXsXsXsXsXsXsXsXsX",
"m.m.m.m.m.m.m.n.n.m.B.A.<XyXyXaXaXyXtXOXw.4.:...sXsXsXsXsXsXsXsXsXsXsXsXsXsXsXsXsXsXsXsXsXsXsXsXsXsXsXsXsXsXsXsXsXsXsXsXsXsXsXsX"
};
