/* XPM */
static char *outline_07[] = {
/* columns rows colors chars-per-pixel */
"64 64 226 2 ",
"   c #7C693D",
".  c #76793A",
"X  c #6C7A48",
"o  c #747946",
"O  c #8A5737",
"+  c #915534",
"@  c #965D36",
"#  c #A35E34",
"$  c #887B2C",
"%  c #98752C",
"&  c #866739",
"*  c #956838",
"=  c #8C6C2E",
"-  c #AE6C35",
";  c #A46734",
":  c #B56B35",
">  c #AC7434",
",  c #AB7D3E",
"<  c #AB783B",
"1  c #BD7436",
"2  c #BA7638",
"3  c #B37C3D",
"4  c #BD7B39",
"5  c #B87A37",
"6  c #C27937",
"7  c #C17A3A",
"8  c #C17739",
"9  c #876841",
"0  c #877D4A",
"q  c #947F45",
"w  c #9C7D43",
"e  c #977542",
"r  c #A27C42",
"t  c #778A34",
"y  c #729C3C",
"u  c #759D33",
"i  c #75AD2E",
"p  c #79AD2E",
"a  c #7AA429",
"s  c #7BB527",
"d  c #7EBB21",
"f  c #7BB32A",
"g  c #6FA23B",
"h  c #75AB31",
"j  c #7AAB35",
"k  c #70A23B",
"l  c #79A736",
"z  c #7DB337",
"x  c #5D8556",
"c  c #5D8559",
"v  c #5A8858",
"b  c #5E8957",
"n  c #648F4F",
"m  c #6A8948",
"M  c #76844E",
"N  c #7C8848",
"B  c #6A9747",
"V  c #6C9C42",
"C  c #65904E",
"Z  c #6A9548",
"A  c #709C4B",
"S  c #719844",
"D  c #638451",
"F  c #6C8652",
"G  c #628955",
"H  c #6C8851",
"J  c #748E54",
"K  c #708250",
"L  c #649051",
"P  c #6B9255",
"I  c #6F9851",
"U  c #66915A",
"Y  c #6A9159",
"T  c #749D52",
"R  c #7B9E5B",
"E  c #789958",
"W  c #75A345",
"Q  c #7EAD41",
"!  c #78A14F",
"~  c #7CA25A",
"^  c #7B9F61",
"/  c #79A061",
"(  c #86B51F",
")  c #83BE1D",
"_  c #8BBB1D",
"`  c #8DB71E",
"'  c #91B11F",
"]  c #8B852B",
"[  c #9D8A2A",
"{  c #8E9225",
"}  c #899B26",
"|  c #839526",
" . c #9B9A2B",
".. c #8D8F3E",
"X. c #9D843E",
"o. c #978B38",
"O. c #9A963A",
"+. c #839B39",
"@. c #AB8B2F",
"#. c #AA932D",
"$. c #A59A2C",
"%. c #A3962E",
"&. c #AF8D31",
"*. c #AB8639",
"=. c #A78633",
"-. c #B68435",
";. c #BA8335",
":. c #BB853D",
">. c #B48D3A",
",. c #B08D32",
"<. c #A49332",
"1. c #A99732",
"2. c #B4963A",
"3. c #8EAB23",
"4. c #8CA42D",
"5. c #81AC26",
"6. c #9CA525",
"7. c #95AD22",
"8. c #98AA25",
"9. c #94A42A",
"0. c #9AA329",
"q. c #9AAA2B",
"w. c #97A92C",
"e. c #85B424",
"r. c #8AB426",
"t. c #81BB22",
"y. c #8CBB21",
"u. c #85BB2C",
"i. c #8EB12E",
"p. c #94B123",
"a. c #90BA27",
"s. c #91B929",
"d. c #98B12B",
"f. c #97A839",
"g. c #8CBC3A",
"h. c #9CB332",
"j. c #94BC34",
"k. c #9CBB3A",
"l. c #95BB39",
"z. c #85A43D",
"x. c #A0A82D",
"c. c #A5AA36",
"v. c #A5A435",
"b. c #A3B63E",
"n. c #83C217",
"m. c #85C21B",
"M. c #88C41D",
"N. c #83C817",
"B. c #87C320",
"V. c #8AC324",
"C. c #8EC42C",
"Z. c #90C42D",
"A. c #92C434",
"S. c #95C53A",
"D. c #98C53E",
"F. c #97C83C",
"G. c #96C637",
"H. c #84824A",
"J. c #888749",
"K. c #9D8242",
"L. c #9C834B",
"P. c #988540",
"I. c #8C9B4A",
"U. c #9A9B49",
"Y. c #839B55",
"T. c #839A59",
"R. c #989651",
"E. c #8D8750",
"W. c #A48546",
"Q. c #B48944",
"!. c #A6944A",
"~. c #B69443",
"^. c #B5964A",
"/. c #B79947",
"(. c #A39C54",
"). c #A59954",
"_. c #85AE4E",
"`. c #92AD49",
"'. c #88B749",
"]. c #94BE4C",
"[. c #9ABC47",
"{. c #8CAE5B",
"}. c #84A858",
"|. c #90AE57",
" X c #97A75B",
".X c #93B45D",
"XX c #9EBE5A",
"oX c #98BD58",
"OX c #ADAB4A",
"+X c #B1AA4E",
"@X c #A2BA47",
"#X c #A9AC5C",
"$X c #A9A758",
"%X c #B5AC56",
"&X c #A9BD56",
"*X c #AABA5F",
"=X c #A4B759",
"-X c #8FAF61",
";X c #8EB163",
":X c #91B163",
">X c #9AB762",
",X c #91AE63",
"<X c #A2BE64",
"1X c #ABBD64",
"2X c #ACB764",
"3X c #9BC544",
"4X c #9EC64C",
"5X c #9EC94A",
"6X c #9CC945",
"7X c #9CC752",
"8X c #A1C64E",
"9X c #A0C84D",
"0X c #A1C246",
"qX c #A2C652",
"wX c #A6CA57",
"eX c #A7C65B",
"rX c #A8C75E",
"tX c #A6CA5A",
"yX c #AACB5F",
"uX c #A8CD57",
"iX c #A3C264",
"pX c #ABC664",
"aX c #ACC962",
"sX c #AEC769",
"dX c #B1C160",
"fX c None",
/* pixels */
"m.m.m.m.m.m.) n.m.m.m.m.m.N.N.N.N.N.d h V C G c fXfXfXfXfXfXfXfXfXfXfXfXfXfXfXfXfXfXfXfXfXfXfXfXfXfXfXfXfXfXfXfXfXfXfXfXfXfXfXfX",
"m.m.m.m.m.m.m.m.m.m.m.m.m.m.m.m.m._ t.h V C G c fXfXfXfXfXfXfXfXfXfXfXfXfXfXfXfXfXfXfXfXfXfXfXfXfXfXfXfXfXfXfXfXfXfXfXfXfXfXfXfX",
"m.m.m.B.B.V.V.V.m.m.) ) _ _ y.` _ y.e.j S n G c fXfXfXfXfXfXfXfXfXfXfXfXfXfXfXfXfXfXfXfXfXfXfXfXfXfXfXfXfXfXfXfXfXfXfXfXfXfXfXfX",
"m.m.B.V.C.A.A.C.V.B._ _ ' 8.6.6.6.6.9.+.S n G v fXfXfXfXfXfXfXfXfXfXfXfXfXfXfXfXfXfXfXfXfXfXfXfXfXfXfXfXfXfXfXfXfXfXfXfXfXfXfXfX",
"m.m.B.Z.D.3X3XS.C.B._ p.6.$.#.#.#.1.<.J.N G v v fXfXfXfXfXfXfXfXfXfXfXfXfXfXfXfXfXfXfXfXfXfXfXfXfXfXfXfXfXfXfXfXfXfXfXfXfXfXfXfX",
"n.m.V.A.3XqXqX3XA.V._ 7.$.&.-.;.;.-.*.P.N H G v fXfXfXfXfXfXfXfXfXfXfXfXfXfXfXfXfXfXfXfXfXfXfXfXfXfXfXfXfXfXfXfXfXfXfXfXfXfXfXfX",
"n.m.B.A.3XqXqX3XA.V.y.q.$.>.;.:.;.-.*.X.E.M H F fXfXfXfXfXfXfXfXfXfXfXfXfXfXfXfXfXfXfXfXfXfXfXfXfXfXfXfXfXfXfXfXfXfXfXfXfXfXfXfX",
") m.B.Z.D.3X3XS.C.V.y.d.v././.2.2.#.&.o...J.H.H.fXfXfXfXfXfXfXfXfXfXfXfXfXfXfXfXfXfXfXfXfXfXfXfXfXfXfXfXfXfXfXfXfXfXfXfXfXfXfXfX",
"m.m.B.V.C.A.A.C.V.B.V.j.@XOX+XOXc.0.0. .o.W.r r fXfXfXfXfXfXfXfXfXfXfXfXfXfXfXfXfXfXfXfXfXfXfXfXfXfXfXfXfXfXfXfXfXfXfXfXfXfXfXfX",
"m.m.) B.B.V.V.m.m.m.V.l.@X&X&X@Xk.s.p.0.<.*.4 r fXfXfXfXfXfXfXfXfXfXfXfXfXfXfXfXfXfXfXfXfXfXfXfXfXfXfXfXfXfXfXfXfXfXfXfXfXfXfXfX",
"m.m.m.m.m.m.n.m.N.m.V.S.4XeXeX8XF.C.s.d.<.*., 3 fXfXfXfXfXfXfXfXfXfXfXfXfXfXfXfXfXfXfXfXfXfXfXfXfXfXfXfXfXfXfXfXfXfXfXfXfXfXfXfX",
"m.m.m.m.m.m.n.n.m.m.V.S.4XeXaXwX5XF.g.f.O.X.K.r fXfXfXfXfXfXfXfXfXfXfXfXfXfXfXfXfXfXfXfXfXfXfXfXfXfXfXfXfXfXfXfXfXfXfXfXfXfXfXfX",
"m.m.m.m.m.n.m.) m.m.V.A.4XaXaXaXtX4X].`.I.J.H.0 fXfXfXfXfXfXfXfXfXfXfXfXfXfXfXfXfXfXfXfXfXfXfXfXfXfXfXfXfXfXfXfXfXfXfXfXfXfXfXfX",
"m.m.m.m.m.m.m.n.m.B.V.A.4XeXpXaXaXeX=X|.R J F F fXfXfXfXfXfXfXfXfXfXfXfXfXfXfXfXfXfXfXfXfXfXfXfXfXfXfXfXfXfXfXfXfXfXfXfXfXfXfXfX",
"m.m.m.m.m.m.m.m.) m.V.A.3XqXeXaXaXaX>X-X~ Y G D fXfXfXfXfXfXfXfXfXfXfXfXfXfXfXfXfXfXfXfXfXfXfXfXfXfXfXfXfXfXfXfXfXfXfXfXfXfXfXfX",
"M.m.) m.m.m.m.n.n.m.B.C.A.3X4XwXaXaXiX;X~ U b F H.fXfXfXfXfXfXfXfXfXfXfXfXfXfXfXfXfXfXfXfXfXfXfXfXfXfXfXfXfXfXfXfXfXfXfXfXfXfXfX",
"m.m.m.m.m.) m.m.m.m.m.V.C.A.S.9XtXaXiX;X/ U G M q , 5 fXfXfXfXfXfXfXfXfXfXfXfXfXfXfXfXfXfXfXfXfXfXfXfXfXfXfXfXfXfXfXfXfXfXfXfXfX",
"m.m.m.m.m.m.m.m.m.m.m.m.B.y.C.D.qXeX<X:X~ U F o K., 4 6 fXfXfXfXfXfXfXfXfXfXfXfXfXfXfXfXfXfXfXfXfXfXfXfXfXfXfXfXfXfXfXfXfXfXfXfX",
"m.m.m.m.m.m.M.M.V.V.V.B.m.m.V.S.0XeX=X XT.J M H.w 3 4 7 fXfXfXfXfXfXfXfXfXfXfXfXfXfXfXfXfXfXfXfXfXfXfXfXfXfXfXfXfXfXfXfXfXfXfXfX",
"m.m.m.m.m.m.M.V.V.A.A.C.B.m.y.s.b.OX$X).R.E.H.L.r 3 4 fXfXfXfXfXfXfXfXfXfXfXfXfXfXfXfXfXfXfXfXfXfXfXfXfXfXfXfXfXfXfXfXfXfXfXfXfX",
"m.m.m.m.m.m.M.Z.D.3X3XA.C.m._ d.c./.^.Q.W.W.w r , fXfXfXfXfXfXfXfXfXfXfXfXfXfXfXfXfXfXfXfXfXfXfXfXfXfXfXfXfXfXfXfXfXfXfXfXfXfXfX",
"m.m.m.N.n.m.V.G.3XqXqX3XA.V._ q.$.>.Q.3 3 3 3 3 fXfXfXfXfXfXfXfXfXfXfXfXfXfXfXfXfXfXfXfXfXfXfXfXfXfXfXfXfXfXfXfXfXfXfXfXfXfXfXfX",
"m.m.m.d ) d u.l.4XeXtXqXF.C.s.0.<.-.1 2 4 4 4 4 fXfXfXfXfXfXfXfXfXfXfXfXfXfXfXfXfXfXfXfXfXfXfXfXfXfXfXfXfXfXfXfXfXfXfXfXfXfXfXfX",
"m.m.m.d f f z.'.7XiXaXuX9XF.k. .=.> - : 1 1 6 6 6 fXfXfXfXfXfXfXfXfXfXfXfXfXfXfXfXfXfXfXfXfXfXfXfXfXfXfXfXfXfXfXfXfXfXfXfXfXfXfX",
"m.m.t.s h g W _..XpXpXyXuX8X@Xf.X.; ; - : 1 8 6 6 6 1 fXfXfXfXfXfXfXfXfXfXfXfXfXfXfXfXfXfXfXfXfXfXfXfXfXfXfXfXfXfXfXfXfXfXfXfXfX",
"m.m.t.f g Z I ~ :X<XpXaXaXrX=X(.% 9 @ # - 4 4 7 4 4 4 4 fXfXfXfXfXfXfXfXfXfXfXfXfXfXfXfXfXfXfXfXfXfXfXfXfXfXfXfXfXfXfXfXfXfXfXfX",
"m.m.t.p k Z I ~ {.>X<XiXiX<X#XR.e @ + # : 3 :.Q.:.Q.Q.:.fXfXfXfXfXfXfXfXfXfXfXfXfXfXfXfXfXfXfXfXfXfXfXfXfXfXfXfXfXfXfXfXfXfXfXfX",
"m.m.t.s h k A ! }.{.:X:X:X,XT.E.9 O + @ r Q./././.^.^.!.R.fXfXfXfXfXfXfXfXfXfXfXfXfXfXfXfXfXfXfXfXfXfXfXfXfXfXfXfXfXfXfXfXfXfXfX",
"m.m.m.t.f h j W T T R ^ ^ ^ E 0 9 O O e r ^.%X%X%X%X$XR.T.J G fXfXfXfXfXfXfXfXfXfXfXfXfXfXfXfXfXfXfXfXfXfXfXfXfXfXfXfXfXfXfXfXfX",
"m.m.m._ m.t.f j W I Y U U Y H o   O @ e ).#X1XdXdX1X2X{.T.Y x x fXfXfXfXfXfXfXfXfXfXfXfXfXfXfXfXfXfXfXfXfXfXfXfXfXfXfXfXfXfXfXfX",
"m.m.m.N.m.M.t.p k B C n L n m o o * 9 w (.1XpXaXdXtX=X{.~ U G x fXfXfXfXfXfXfXfXfXfXfXfXfXfXfXfXfXfXfXfXfXfXfXfXfXfXfXfXfXfXfXfX",
"m.m.m.N.N.m.) s h y g B V y Z N 0 e W.).#X1XaXaXuXuX3X_.! L G c fXfXfXfXfXfXfXfXfXfXfXfXfXfXfXfXfXfXfXfXfXfXfXfXfXfXfXfXfXfXfXfX",
"m.m.m.m.N.m.) t.s p i i h h j z.I.R.$X#X2XpXyXwX5XF.S.Q W L G c fXfXfXfXfXfXfXfXfXfXfXfXfXfXfXfXfXfXfXfXfXfXfXfXfXfXfXfXfXfXfXfX",
"m.m.m.m.M.m.m.m.t.d e.t.d d u.j.[.XX*X1X1XpXeX9XF.A.s j V G G c fXfXfXfXfXfXfXfXfXfXfXfXfXfXfXfXfXfXfXfXfXfXfXfXfXfXfXfXfXfXfXfX",
"m.m.m.m._ m.m.m.m.m.N.m.m.m.V.A.3X8XeXrXpXeX8X3XA.B.d h V C x c fXfXfXfXfXfXfXfXfXfXfXfXfXfXfXfXfXfXfXfXfXfXfXfXfXfXfXfXfXfXfXfX",
"m.m.m.m.m.m.m.m.m.m.m.n.n.m.V.Z.G.3X5X9X8X4X6XG.C.B.d p y G G c c fXfXfXfXfXfXfXfXfXfXfXfXfXfXfXfXfXfXfXfXfXfXfXfXfXfXfXfXfXfXfX",
"m.m.m.m.m.m.m.m.m.n.N.N.n.m.m.V.Z.A.G.S.S.G.A.Z.M.m.d i V n x c c x c fXfXfXfXfXfXfXfXfXfXfXfXfXfXfXfXfXfXfXfXfXfXfXfXfXfXfXfXfX",
"m.m.m.m.m.m.m.m.m.m.m.m.m.m.m.M.V.V.V.V.V.V.B.B.M.N.d i y n b c c c G G fXfXfXfXfXfXfXfXfXfXfXfXfXfXfXfXfXfXfXfXfXfXfXfXfXfXfXfX",
"m.m.m.m.m.m.m.m.m.m.m.m.m.m.m.m.m.m.m.m.n.m._ M._ _ u.5.y Z L G G P Y Y fXfXfXfXfXfXfXfXfXfXfXfXfXfXfXfXfXfXfXfXfXfXfXfXfXfXfXfX",
"m.m.m.m.m.m.m.n._ m.m.m.m.n.m.n.m.n.m.m.n.N._ ` p.8.w.+.l y W W T ~ R -X:XfXfXfXfXfXfXfXfXfXfXfXfXfXfXfXfXfXfXfXfXfXfXfXfXfXfXfX",
"m.m.m.m.m.B.m.m.m.m.m.m.n.n.) m.n.m.m.N.m.m.( ' x.#.%. .4.a h Q _.{..X>X<XiX<X:X^ U b fXfXfXfXfXfXfXfXfXfXfXfXfXfXfXfXfXfXfXfXfX",
"m.m.m.m.m.m.m.m.m.m.m.m.m.m.m.m.m.m.m.N.m.m._ 8.$.&.@.%.6.e.u.g.].XX<XiXpXpX<X,XR U G x fXfXfXfXfXfXfXfXfXfXfXfXfXfXfXfXfXfXfXfX",
"m.m.m.m.m.m.m.B.y.V.V.V.V.V.V.B.m.m.m.m.m.m._ 8.$.&.,.$.w.s.Z.F.8XrXpXaXaXeXXX.XY.J F K fXfXfXfXfXfXfXfXfXfXfXfXfXfXfXfXfXfXfXfX",
"m.m.m.m.m.m.) V.C.A.A.S.A.S.A.A.V.V.m.m.N.m._ p.x.$.1.v.h.j.D.9XwXaXaXyXuX4X[.`.I.J.0 0 w fXfXfXfXfXfXfXfXfXfXfXfXfXfXfXfXfXfXfX",
"m.m.m.m.n.m.M.C.S.6X3X4XqX4X3XA.Z.B.m.n.m.m.) ` 7.8.q.h.k.0X8XtXyXpXaXwX5XF.g.f.O.P., w < 2 6 7 7 7 7 7 8 8 ;.#.6._ B.A.4XeXpXsX",
"m.m.m.m.m.m.y.A.3XqXeXpXeXeXqX3XA.B.m.m.n.m.m._ _ y.y.l.3XqXrXaXaXpXeX4XS.Z.s.w.%.*.3 3 4 4 4 7 4 4 4 7 4 4 -.#.6.y.V.S.5XeXpXsX",
"m.m.) m.m.V.C.S.4XrXpXpXpXeXqX6XA.V.m.n.n.m.m.n.m.m.y.A.3XqXeXrXpXtXqX[.j.r.3.0.1.>.Q.:.:.-.-.5 5 2 5 5 5 -.&.$.8.a.C.S.4XeXaXsX",
"m.m.B.V.C.A.6X4XeXpXpXpXeXqX3XS.C.y.m.n.n.m.n.n.N.m.B.Z.S.3X4X9X8X0X[.l.4.} {  .1.^./.~.2.1.@.=.> > - > *.#.1.q.h.j.S.4XwXpXpXsX",
"m.m.B.C.A.3XqXeXpXpXpXeX3XD.A.C.V.M.m.n.) n.m.n.m.m.m.V.C.A.S.F.G.G.j.4.{ $ $ K.!.OX+XOXc.x.6.[ % ; ; % =. .8.h.k.3X4XqXrXpXsXsX",
"n.m.y.A.3XqXeXpXpXpXeX8X3XC.V.) ) M.m.m.m.m.) M.m.m.m.M.B.V.V.V.V.V.e.} ] = * w !.#XeX0Xj.a.3.{ % * = % { 3.a.Z.0XqXeXaXpXaXpXpX",
"m.m.V.A.3XqXeXrXpXrXqX3XA.V.M.m.) B.V.V.V.V.V.B.B.m.m.m.m.m.m.m.N.m.( } $ * e w (.*XeX7XS.u.a | . & = = | ( V.G.0XtXpXpXpXrXrXeX",
"n.m.B.C.S.3X4X8X4X3X3XS.V.y.M.B.C.A.S.S.A.S.A.Z.V.B.m.m.n.m.n.n.N.m.( 4...P.w R.#X1XiX7X'.u.h t .     t a ) V.F.9XyXpXrXqX8X4X3X",
"m.m.B.V.A.A.S.S.S.A.A.C.V.m.B.C.S.3X3X4X4X4X3XD.C.V.m.n.) n.n.n.n.m.y.i.f.U.$X#X2X1XiXoX_.W y m . X X t a d V.G.0XrXpXeX4XS.S.A.",
"m.m.m.m.B.B.V.V.V.V.B.m.m.B.V.A.3XqXeXpXpXeXqX3XA.V.m.m.n.m.m.m.n.m.B.j.[.=X*X1XpXpXiX.X~ A G n x X m y i d V.A.5XeXeX8XD.C.V.B.",
"m.m.m.m.) m.m.m.m.m.m.m.m.m.V.A.3XrXpXpXpXeXqX3XA.V.m.m.m.m.m.n.m.m.V.A.0XrXpXpXpXeXXX{.~ Y G b D n B g i d B.A.3XqXqX3XA.B.m.m.",
"m.m.m.m.m.m.m.n.m.) n.) m.m.V.S.8XrXpXpXeXqX3XS.C.B.m.m.m.m.m.n.m.m.V.S.9XyXaXyXwX8X]._.T G G G C g g h s d B.Z.S.3X3XS.C.M.n.) ",
"m.m.m.) n.m.m.m.m.n.m.n.n.m.V.S.qXeXpXeX4X3XA.C.V.m.m.m.m.m.m.m.m.m.V.S.qXaXaXtX9XD.g.Q A G G C V h p e.t.) M.V.Z.A.A.C.B.B.m.m.",
"m.m.m.m.m.m.m.m.m.m.m.n.) n.V.A.4XeXeXqXD.C.V.m.B.m.m.m.m.m.m.m.m.m.V.A.4XeXrX4XD.Z.u.j V C G V k f d ) m.m.) M.V.V.V.M.m.m.m.m.",
"m.m.m.m.m.m.m.m.m.m.m.m.m.m.V.A.3XqXqX3XA.V.m.m.m.m.m.m.m.m.m.m.m.m.V.A.3X4XqX6XA.V.t.p k Z Z k p B.M.m.m.m.m.m.m.m.m.m.m.m.m.m.",
"m.m.m.m.m.m.m.) m.m.m.m.m.m.V.Z.A.3X6XS.C.) m.m.m.m.m.m.m.) m.m.n.m.B.C.S.3X6XG.C.) ) s h k k h f B.m.N.m.m.m.m.m.n.m.m.) m.m.m.",
"m.m.m.M.m.m.m.M.m.m.m.m.m.m.M.V.Z.A.A.C.V.m.m.m.m.m.) m.m.m.m.m.m.m.B.V.C.A.A.C.V.M.) t.s p f u.d m.m.m.m.m.m.m.) m.m.m.m.m.m.m.",
"m.m.m.) m.m.m.m.m.m.m.m.) m.m.M.B.V.y.B.M.m.m.m.m.m.m.m.m.m.m.m.m.m.m.m.B.y.V.B.M.m.m.) t.t.d t.t.m.m.m.m.m.m.m.m.m.m.m.m.m.m.m.",
"m.m.m.m.m.m.) M.m.m.m.m.m.m.m.) m.m.m.m.) m.m.m.m.m.m.m.m.m.m.m.m.m.m.m.m.m.m.m.m.m.m.m.m.m.m.m.m.m.m.m.m.m.m.m.m.m.m.m.m.m.m.m.",
"m.m.m.m.m.m.m.m.m.m.m.m.m.m.m.m.n.n.n.m.m.m.m.m.m.m.m.m.) m.m.m.m.m.m.m.m.n.n.m.m.m.m.m.N.m.N.m.m.m.m.m.m.m.m.m.m.m.m.m.m.m.m.m."
};
