/* XPM */
static char *outline_04[] = {
/* columns rows colors chars-per-pixel */
"64 64 214 2 ",
"   c #5D5E34",
".  c #6C5633",
"X  c #635D31",
"o  c #6A5935",
"O  c #7B5534",
"+  c #775F3A",
"@  c #5C6B2F",
"#  c #5C7C2C",
"$  c #5E6035",
"%  c #546C36",
"&  c #5C6938",
"*  c #557B33",
"=  c #5B7C31",
"-  c #50743A",
";  c #597B3C",
":  c #50793F",
">  c #627E2B",
",  c #65653B",
"<  c #77643C",
"1  c #756033",
"2  c #767C38",
"3  c #5A6E40",
"4  c #577845",
"5  c #777846",
"6  c #905D34",
"7  c #8B5734",
"8  c #836034",
"9  c #8A6538",
"0  c #9A6838",
"q  c #8E763F",
"w  c #877A2C",
"e  c #A86A36",
"r  c #AD7C3E",
"t  c #A9763B",
"y  c #B27D3D",
"u  c #BE7B39",
"i  c #B77537",
"p  c #C37A37",
"a  c #C97C37",
"s  c #C27A38",
"d  c #C1773A",
"f  c #857B44",
"g  c #937D44",
"h  c #9B7E44",
"j  c #927E48",
"k  c #A57E41",
"l  c #AD7B40",
"z  c #73AC1F",
"x  c #7CB61E",
"c  c #7EB91C",
"v  c #5C8A2C",
"b  c #5C8A32",
"n  c #608D2E",
"m  c #679226",
"M  c #6B9F26",
"N  c #689329",
"B  c #659728",
"V  c #749D2D",
"C  c #628C33",
"Z  c #638233",
"A  c #639438",
"S  c #6C9C3E",
"D  c #689632",
"F  c #759A3B",
"G  c #6EA324",
"H  c #6CA328",
"J  c #74AA22",
"K  c #71A329",
"L  c #74AB2D",
"P  c #79AD2D",
"I  c #70A625",
"U  c #7CB522",
"Y  c #7DBA22",
"T  c #7AB22C",
"R  c #6EA33C",
"E  c #76A533",
"W  c #76AC32",
"Q  c #7CAE32",
"!  c #70A23B",
"~  c #79AE38",
"^  c #598348",
"/  c #5C8555",
"(  c #5E8957",
")  c #5E8559",
"_  c #67854E",
"`  c #6F854B",
"'  c #688A47",
"]  c #77854F",
"[  c #7C814B",
"{  c #718E4C",
"}  c #7C8F41",
"|  c #6A9747",
" . c #6C9D42",
".. c #65904E",
"X. c #6F974A",
"o. c #749C43",
"O. c #779342",
"+. c #628554",
"@. c #6C8652",
"#. c #628A55",
"$. c #678D58",
"%. c #748E54",
"&. c #7B8750",
"*. c #669154",
"=. c #6C9453",
"-. c #6A9158",
";. c #75995B",
":. c #7C9C5A",
">. c #779A56",
",. c #7AA943",
"<. c #7BA15E",
"1. c #7CA555",
"2. c #82BD1D",
"3. c #8E822D",
"4. c #899B26",
"5. c #98853F",
"6. c #8C913E",
"7. c #849A36",
"8. c #939934",
"9. c #A38A39",
"0. c #B48139",
"q. c #B68436",
"w. c #A89131",
"e. c #97A22C",
"r. c #89B227",
"t. c #81BB23",
"y. c #82B628",
"u. c #83B92A",
"i. c #88B920",
"p. c #90B42E",
"a. c #81A830",
"s. c #83AC3F",
"d. c #83B631",
"f. c #8CBD34",
"g. c #8AB63B",
"h. c #91BB37",
"j. c #93A933",
"k. c #84C317",
"l. c #85C21B",
"z. c #88C51C",
"x. c #84C022",
"c. c #8AC324",
"v. c #8EC42B",
"b. c #8EC824",
"n. c #90C62B",
"m. c #8FC135",
"M. c #93C534",
"N. c #97C835",
"B. c #98C935",
"V. c #96C53A",
"C. c #98C53E",
"Z. c #97C93A",
"A. c #9BCA3D",
"S. c #838347",
"D. c #83834B",
"F. c #89814B",
"G. c #86894E",
"H. c #8B8949",
"J. c #968245",
"K. c #9C8244",
"L. c #91894C",
"P. c #899C47",
"I. c #99964E",
"U. c #859253",
"Y. c #829C56",
"T. c #8A9E59",
"R. c #849556",
"E. c #9A9B55",
"W. c #85A947",
"Q. c #9EA14B",
"!. c #88B34B",
"~. c #97BB49",
"^. c #97BA47",
"/. c #89A756",
"(. c #83A55E",
"). c #8AA65A",
"_. c #8DAA5C",
"`. c #85A450",
"'. c #94AA5C",
"]. c #8FB256",
"[. c #9AB956",
"{. c #96B25E",
"}. c #9EBC5C",
"|. c #97BB51",
" X c #A3B35D",
".X c #A3B755",
"XX c #81A560",
"oX c #8EAE62",
"OX c #90AF61",
"+X c #8EB062",
"@X c #93B362",
"#X c #9AB761",
"$X c #9CBB66",
"%X c #9CB969",
"&X c #A2BD63",
"*X c #9AC543",
"=X c #9EC54B",
"-X c #9BC447",
";X c #A0C64D",
":X c #A2CA4B",
">X c #A2C652",
",X c #A9CC56",
"<X c #A7C65B",
"1X c #A8C75D",
"2X c #AACA5C",
"3X c #A6C857",
"4X c #A5C264",
"5X c #AAC565",
"6X c #ADC963",
"7X c #A5C169",
"8X c #AAC668",
"9X c #AFC968",
"0X c #B2CC68",
"qX c None",
/* pixels */
"k.k.x.M.-X<X6X0X0X0X4X@X<.-.@.[ g y u s s u u u qXqXqXqXqXqXqXqXqXqXqXqXqXqXqXqXqXqXqXqXqXqXqXqXqXqXqXqXqXqXqXqXqXqXqXqXqXqXqXqX",
"k.l.c.M.-X<X5X0X0X5X&X_.<.-.@.D.h y u s s u u u qXqXqXqXqXqXqXqXqXqXqXqXqXqXqXqXqXqXqXqXqXqXqXqXqXqXqXqXqXqXqXqXqXqXqXqXqXqXqXqX",
"c.c.v.C.;X1X5X5X&X&X{.(.;.$.@.D.h y u s u u u u qXqXqXqXqXqXqXqXqXqXqXqXqXqXqXqXqXqXqXqXqXqXqXqXqXqXqXqXqXqXqXqXqXqXqXqXqXqXqXqX",
"M.V.C.-X3X1X4X$X{.).Y.;.-.#.@.D.h y u s s u u qXqXqXqXqXqXqXqXqXqXqXqXqXqXqXqXqXqXqXqXqXqXqXqXqXqXqXqXqXqXqXqXqXqXqXqXqXqXqXqXqX",
"-X=X;X3X1X5X4X{.Y.{ _ / / ( @.D.h y u s s qXqXqXqXqXqXqXqXqXqXqXqXqXqXqXqXqXqXqXqXqXqXqXqXqXqXqXqXqXqXqXqXqXqXqXqXqXqXqXqXqXqXqX",
"<X<X<X6X6X6X X/.{ 4 4 4 4 ( @.D.K.y u s qXqXqXqXqXqXqXqXqXqXqXqXqXqXqXqXqXqXqXqXqXqXqXqXqXqXqXqXqXqXqXqXqXqXqXqXqXqXqXqXqXqXqXqX",
"<X<X1X1X2X<X[.`.| ; - : ^ ' { H.K.y u s qXqXqXqXqXqXqXqXqXqXqXqXqXqXqXqXqXqXqXqXqXqXqXqXqXqXqXqXqXqXqXqXqXqXqXqXqXqXqXqXqXqXqXqX",
"=X=X=X;X;X-X^.s.F C v b A S F H.9.0.u s qXqXqXqXqXqXqXqXqXqXqXqXqXqXqXqXqXqXqXqXqXqXqXqXqXqXqXqXqXqXqXqXqXqXqXqXqXqXqXqXqXqXqXqX",
"V.V.V.V.V.M.m.d.L M M H K L a.8.w.0.s d qXqXqXqXqXqXqXqXqXqXqXqXqXqXqXqXqXqXqXqXqXqXqXqXqXqXqXqXqXqXqXqXqXqXqXqXqXqXqXqXqXqXqXqX",
"c.c.c.c.c.c.c.t.t.2.x Y Y Y r.e.w.q.u s qXqXqXqXqXqXqXqXqXqXqXqXqXqXqXqXqXqXqXqXqXqXqXqXqXqXqXqXqXqXqXqXqXqXqXqXqXqXqXqXqXqXqXqX",
"2.l.l.l.l.l.z.l.2.z.z.2.x.Y r.e.w.q.u d qXqXqXqXqXqXqXqXqXqXqXqXqXqXqXqXqXqXqXqXqXqXqXqXqXqXqXqXqXqXqXqXqXqXqXqXqXqXqXqXqXqXqXqX",
"l.k.k.k.k.k.k.k.k.k.z.2.Y T a.8.9.0.u d qXqXqXqXqXqXqXqXqXqXqXqXqXqXqXqXqXqXqXqXqXqXqXqXqXqXqXqXqXqXqXqXqXqXqXqXqXqXqXqXqXqXqXqX",
"l.k.k.2.k.k.k.k.k.z.x.Y W R o.6.9.y u s qXqXqXqXqXqXqXqXqXqXqXqXqXqXqXqXqXqXqXqXqXqXqXqXqXqXqXqXqXqXqXqXqXqXqXqXqXqXqXqXqXqXqXqX",
"l.l.l.l.l.k.l.k.z.z.Y Q R | { S.K.y u s qXqXqXqXqXqXqXqXqXqXqXqXqXqXqXqXqXqXqXqXqXqXqXqXqXqXqXqXqXqXqXqXqXqXqXqXqXqXqXqXqXqXqXqX",
"l.l.l.x.c.c.c.c.x.t.y.E  .{ ] F.k l u s qXqXqXqXqXqXqXqXqXqXqXqXqXqXqXqXqXqXqXqXqXqXqXqXqXqXqXqXqXqXqXqXqXqXqXqXqXqXqXqXqXqXqXqX",
"l.l.l.c.v.m.m.m.T Q E F } S.F.J.k l u qXqXqXqXqXqXqXqXqXqXqXqXqXqXqXqXqXqXqXqXqXqXqXqXqXqXqXqXqXqXqXqXqXqXqXqXqXqXqXqXqXqXqXqXqX",
"l.l.x.n.V.*X^.!.,.,.| F J.g k k l qXqXqXqXqXqXqXqXqXqXqXqXqXqXqXqXqXqXqXqXqXqXqXqXqXqXqXqXqXqXqXqXqXqXqXqXqXqXqXqXqXqXqXqXqXqXqX",
"k.l.c.M.*X>X>X].1.;.{ [ J.t y y qXqXqXqXqXqXqXqXqXqXqXqXqXqXqXqXqXqXqXqXqXqXqXqXqXqXqXqXqXqXqXqXqXqXqXqXqXqXqXqXqXqXqXqXqXqXqXqX",
"k.l.c.V.=X<X4X@XXX;.%.D.J.9.l y qXqXqXqXqXqXqXqXqXqXqXqXqXqXqXqXqXqXqXqXqXqXqXqXqXqXqXqXqXqXqXqXqXqXqXqXqXqXqXqXqXqXqXqXqXqXqXqX",
"k.l.c.V.;X1X7X%XoXXXR.U.L.J.k k qXqXqXqXqXqXqXqXqXqXqXqXqXqXqXqXqXqXqXqXqXqXqXqXqXqXqXqXqXqXqXqXqXqXqXqXqXqXqXqXqXqXqXqXqXqXqXqX",
"k.l.c.M.=X1X8X7X%X@X_.T.U.G.D.f qXqXqXqXqXqXqXqXqXqXqXqXqXqXqXqXqXqXqXqXqXqXqXqXqXqXqXqXqXqXqXqXqXqXqXqXqXqXqXqXqXqXqXqXqXqXqXqX",
"k.l.c.M.=X<X5X8X4X4X#X_.Y.%.@.+.qXqXqXqXqXqXqXqXqXqXqXqXqXqXqXqXqXqXqXqXqXqXqXqXqXqXqXqXqXqXqXqXqXqXqXqXqXqXqXqXqXqXqXqXqXqXqXqX",
"k.l.c.m.*X>X1X6X0X6X&X+X:.-.( ) qXqXqXqXqXqXqXqXqXqXqXqXqXqXqXqXqXqXqXqXqXqXqXqXqXqXqXqXqXqXqXqXqXqXqXqXqXqXqXqXqXqXqXqXqXqXqXqX",
"k.k.c.b.M.*X;X,X2X6X7X@X<.-.( / qXqXqXqXqXqXqXqXqXqXqXqXqXqXqXqXqXqXqXqXqXqXqXqXqXqXqXqXqXqXqXqXqXqXqXqXqXqXqXqXqXqXqXqXqXqXqXqX",
"k.l.l.x.v.n.Z.=X,X6X5X@X<.-.) / qXqXqXqXqXqXqXqXqXqXqXqXqXqXqXqXqXqXqXqXqXqXqXqXqXqXqXqXqXqXqXqXqXqXqXqXqXqXqXqXqXqXqXqXqXqXqXqX",
"l.l.x.l.i.c.m.Z.:X1X4X+X<.-.+.) qXqXqXqXqXqXqXqXqXqXqXqXqXqXqXqXqXqXqXqXqXqXqXqXqXqXqXqXqXqXqXqXqXqXqXqXqXqXqXqXqXqXqXqXqXqXqXqX",
"c.c.c.i.2.i.r.p.~.[.{.(.;.-.( / qXqXqXqXqXqXqXqXqXqXqXqXqXqXqXqXqXqXqXqXqXqXqXqXqXqXqXqXqXqXqXqXqXqXqXqXqXqXqXqXqXqXqXqXqXqXqXqX",
"V.V.M.p.e.4.4.4.P.P.:.>.-.#.+.) qXqXqXqXqXqXqXqXqXqXqXqXqXqXqXqXqXqXqXqXqXqXqXqXqXqXqXqXqXqXqXqXqXqXqXqXqXqXqXqXqXqXqXqXqXqXqXqX",
">X=X^.Q.8.3.w 2 2 _ ^ +.+.) ( ( qXqXqXqXqXqXqXqXqXqXqXqXqXqXqXqXqXqXqXqXqXqXqXqXqXqXqXqXqXqXqXqXqXqXqXqXqXqXqXqXqXqXqXqXqXqXqXqX",
"2X<X.XQ.5.0 8 1 , & 4 4 ^ / #.#.qXqXqXqXqXqXqXqXqXqXqXqXqXqXqXqXqXqXqXqXqXqXqXqXqXqXqXqXqXqXqXqXqXqXqXqXqXqXqXqXqXqXqXqXqXqXqXqX",
"2X2X[.Q.q 9 O .   % - 4 ^ ' ....qXqXqXqXqXqXqXqXqXqXqXqXqXqXqXqXqXqXqXqXqXqXqXqXqXqXqXqXqXqXqXqXqXqXqXqXqXqXqXqXqXqXqXqXqXqXqXqX",
"=X=X~.P.q 1 o , @ # v b A S S  .qXqXqXqXqXqXqXqXqXqXqXqXqXqXqXqXqXqXqXqXqXqXqXqXqXqXqXqXqXqXqXqXqXqXqXqXqXqXqXqXqXqXqXqXqXqXqXqX",
"B.V.g.7.Z , $ , > m M H L L L L qXqXqXqXqXqXqXqXqXqXqXqXqXqXqXqXqXqXqXqXqXqXqXqXqXqXqXqXqXqXqXqXqXqXqXqXqXqXqXqXqXqXqXqXqXqXqXqX",
"b.i.y.V Z % % = N J x 2.Y t.t.t.qXqXqXqXqXqXqXqXqXqXqXqXqXqXqXqXqXqXqXqXqXqXqXqXqXqXqXqXqXqXqXqXqXqXqXqXqXqXqXqXqXqXqXqXqXqXqXqX",
"z.l.x H n = * C V y.c.b.c.c.c.c.qXqXqXqXqXqXqXqXqXqXqXqXqXqXqXqXqXqXqXqXqXqXqXqXqXqXqXqXqXqXqXqXqXqXqXqXqXqXqXqXqXqXqXqXqXqXqXqX",
"k.l.c z M n n D Q f.V.B.B.B.N.N.qXqXqXqXqXqXqXqXqXqXqXqXqXqXqXqXqXqXqXqXqXqXqXqXqXqXqXqXqXqXqXqXqXqXqXqXqXqXqXqXqXqXqXqXqXqXqXqX",
"k.l.2.x z G H Q g.*X-X:X:X:X:X:XqXqXqXqXqXqXqXqXqXqXqXqXqXqXqXqXqXqXqXqXqXqXqXqXqXqXqXqXqXqXqXqXqXqXqXqXqXqXqXqXqXqXqXqXqXqXqXqX",
"k.z.k.c c x t.f.^.>X1X1X4X<X3X<XqXqXqXqXqXqXqXqXqXqXqXqXqXqXqXqXqXqXqXqXqXqXqXqXqXqXqXqXqXqXqXqXqXqXqXqXqXqXqXqXqXqXqXqXqXqXqXqX",
"l.l.l.l.c.c.v.C.=X1X5X5X7X4X&X&XqXqXqXqXqXqXqXqXqXqXqXqXqXqXqXqXqXqXqXqXqXqXqXqXqXqXqXqXqXqXqXqXqXqXqXqXqXqXqXqXqXqXqXqXqXqXqXqX",
"l.l.z.c.n.N.A.:X,X6X8X7X%X@XoXoXqXqXqXqXqXqXqXqXqXqXqXqXqXqXqXqXqXqXqXqXqXqXqXqXqXqXqXqXqXqXqXqXqXqXqXqXqXqXqXqXqXqXqXqXqXqXqXqX",
"k.l.z.v.V.*X:X,X0X9X5X&XoXXX<.<.qXqXqXqXqXqXqXqXqXqXqXqXqXqXqXqXqXqXqXqXqXqXqXqXqXqXqXqXqXqXqXqXqXqXqXqXqXqXqXqXqXqXqXqXqXqXqXqX",
"k.l.c.M.*X>X1X6X0X&X&X{.Y.;.-.-.qXqXqXqXqXqXqXqXqXqXqXqXqXqXqXqXqXqXqXqXqXqXqXqXqXqXqXqXqXqXqXqXqXqXqXqXqXqXqXqXqXqXqXqXqXqXqXqX",
"k.l.x.M.^.[. X&X X&X#XE.R.%.@.$.qXqXqXqXqXqXqXqXqXqXqXqXqXqXqXqXqXqXqXqXqXqXqXqXqXqXqXqXqXqXqXqXqXqXqXqXqXqXqXqXqXqXqXqXqXqXqXqX",
"l.l.u.d.s.`.T.'.E.E.E.L.L.D.D.5 qXqXqXqXqXqXqXqXqXqXqXqXqXqXqXqXqXqXqXqXqXqXqXqXqXqXqXqXqXqXqXqXqXqXqXqXqXqXqXqXqXqXqXqXqXqXqXqX",
"z.l.t.P F ' ] 5 f j h h h h h h qXqXqXqXqXqXqXqXqXqXqXqXqXqXqXqXqXqXqXqXqXqXqXqXqXqXqXqXqXqXqXqXqXqXqXqXqXqXqXqXqXqXqXqXqXqXqXqX",
"k.2.2.I n ; 3 3 + 9 6 l t r r 0.qXqXqXqXqXqXqXqXqXqXqXqXqXqXqXqXqXqXqXqXqXqXqXqXqXqXqXqXqXqXqXqXqXqXqXqXqXqXqXqXqXqXqXqXqXqXqXqX",
"z.z.x H v * % , . O 7 6 e i u s qXqXqXqXqXqXqXqXqXqXqXqXqXqXqXqXqXqXqXqXqXqXqXqXqXqXqXqXqXqXqXqXqXqXqXqXqXqXqXqXqXqXqXqXqXqXqXqX",
"z.l.c z M v # @ X . O 6 e i p a qXqXqXqXqXqXqXqXqXqXqXqXqXqXqXqXqXqXqXqXqXqXqXqXqXqXqXqXqXqXqXqXqXqXqXqXqXqXqXqXqXqXqXqXqXqXqXqX",
"k.l.2.c J G m v @   o < 0 i p a qXqXqXqXqXqXqXqXqXqXqXqXqXqXqXqXqXqXqXqXqXqXqXqXqXqXqXqXqXqXqXqXqXqXqXqXqXqXqXqXqXqXqXqXqXqXqXqX",
"z.l.l.2.2.Y J N # % $ < 0 r u p qXqXqXqXqXqXqXqXqXqXqXqXqXqXqXqXqXqXqXqXqXqXqXqXqXqXqXqXqXqXqXqXqXqXqXqXqXqXqXqXqXqXqXqXqXqXqXqX",
"l.l.l.z.b.x.U E C ; 3 2 g t r y qXqXqXqXqXqXqXqXqXqXqXqXqXqXqXqXqXqXqXqXqXqXqXqXqXqXqXqXqXqXqXqXqXqXqXqXqXqXqXqXqXqXqXqXqXqXqXqX",
"l.l.z.c.n.M.h.s.o.{ ] [ f g h 9.r qXqXqXqXqXqXqXqXqXqXqXqXqXqXqXqXqXqXqXqXqXqXqXqXqXqXqXqXqXqXqXqXqXqXqXqXqXqXqXqXqXqXqXqXqXqXqX",
"l.l.c.v.N.*X=X|.]./.Y.:.&.D.F.g k y p qXqXqXqXqXqXqXqXqXqXqXqXqXqXqXqXqXqXqXqXqXqXqXqXqXqXqXqXqXqXqXqXqXqXqXqXqXqXqXqXqXqXqXqXqX",
"2.l.i.M.*X>X<X<X<X X{.).:.%.] F.h y u p qXqXqXqXqXqXqXqXqXqXqXqXqXqXqXqXqXqXqXqXqXqXqXqXqXqXqXqXqXqXqXqXqXqXqXqXqXqXqXqXqXqXqXqX",
"k.z.c.M.*X>X2X5X6X5X4X+X(.;.%.G.J.k y y qXqXqXqXqXqXqXqXqXqXqXqXqXqXqXqXqXqXqXqXqXqXqXqXqXqXqXqXqXqXqXqXqXqXqXqXqXqXqXqXqXqXqXqX",
"k.k.z.n.V.*X;X2X2X6X8X$X+X<.:.U.L.K.K.h qXqXqXqXqXqXqXqXqXqXqXqXqXqXqXqXqXqXqXqXqXqXqXqXqXqXqXqXqXqXqXqXqXqXqXqXqXqXqXqXqXqXqXqX",
"k.l.z.c.v.M.C.;X2X6X6X7X%X@XoXT.U.G.F.D.qXqXqXqXqXqXqXqXqXqXqXqXqXqXqXqXqXqXqXqXqXqXqXqXqXqXqXqXqXqXqXqXqXqXqXqXqXqXqXqXqXqXqXqX",
"l.l.l.z.x.c.v.C.;X<X5X5X5X4X#X_.:.%.@.@.qXqXqXqXqXqXqXqXqXqXqXqXqXqXqXqXqXqXqXqXqXqXqXqXqXqXqXqXqXqXqXqXqXqXqXqXqXqXqXqXqXqXqXqX",
"t.t.t.2.2.l.c.M.*X>X<X1X1X1X}._.1.$.+.+.qXqXqXqXqXqXqXqXqXqXqXqXqXqXqXqXqXqXqXqXqXqXqXqXqXqXqXqXqXqXqXqXqXqXqXqXqXqXqXqXqXqXqXqX",
"~ E W U Y 2.l.v.M.*X-X;X;X-X~.!.>.*.#.@.D.qXqXqXqXqXqXqXqXqXqXqXqXqXqXqXqXqXqXqXqXqXqXqXqXqXqXqXqXqXqXqXqXqXqXqXqXqXqXqXqXqXqXqX",
" .S ! W U t.l.c.v.m.M.Z.N.M.h.,.X.*.$.] F.l u qXqXqXqXqXqXqXqXqXqXqXqXqXqXqXqXqXqXqXqXqXqXqXqXqXqXqXqXqXqXqXqXqXqXqXqXqXqXqXqXqX",
"#...| ! W t.l.z.z.c.c.c.b.c.v.~  ...@.[ K.y u p qXqXqXqXqXqXqXqXqXqXqXqXqXqXqXqXqXqXqXqXqXqXqXqXqXqXqXqXqXqXqXqXqXqXqXqXqXqXqXqX",
"( #... .W t.z.z.k.z.l.k.k.l.Y W  ...@.D.h y u p qXqXqXqXqXqXqXqXqXqXqXqXqXqXqXqXqXqXqXqXqXqXqXqXqXqXqXqXqXqXqXqXqXqXqXqXqXqXqXqX",
") +.#. .W Y l.k.k.k.k.k.k.k.Y W  .*.@.D.h y u p qXqXqXqXqXqXqXqXqXqXqXqXqXqXqXqXqXqXqXqXqXqXqXqXqXqXqXqXqXqXqXqXqXqXqXqXqXqXqXqX"
};
