/* XPM */
static char *outline_02[] = {
/* columns rows colors chars-per-pixel */
"64 64 216 2 ",
"   c #645F3C",
".  c #775938",
"X  c #586C3A",
"o  c #557A38",
"O  c #627F2E",
"+  c #707330",
"@  c #636236",
"#  c #547845",
"$  c #716B42",
"%  c #6C7C48",
"&  c #895635",
"*  c #935232",
"=  c #9B5A34",
"-  c #A25C33",
";  c #96792D",
":  c #846838",
">  c #9E663A",
",  c #966636",
"<  c #AC6334",
"1  c #AD6A36",
"2  c #A66737",
"3  c #B26936",
"4  c #B76E37",
"5  c #AD7B33",
"6  c #A77F3F",
"7  c #AD7C3E",
"8  c #A47137",
"9  c #BA7437",
"0  c #B77C36",
"q  c #B77438",
"w  c #BA7538",
"e  c #B27D3D",
"r  c #BE7B39",
"t  c #B77737",
"y  c #C37A37",
"u  c #C17B39",
"i  c #C2773A",
"p  c #897E49",
"a  c #957D46",
"s  c #9B7E44",
"d  c #967544",
"f  c #A47E41",
"g  c #AA7D40",
"h  c #74AB1E",
"j  c #7CB61D",
"k  c #7FBA1C",
"l  c #5B882C",
"z  c #5F9339",
"x  c #5A8B34",
"c  c #618D2D",
"v  c #699C24",
"b  c #6F9F2D",
"n  c #649134",
"m  c #6A9C3E",
"M  c #6C9D30",
"N  c #739A3D",
"B  c #799E38",
"V  c #6B912E",
"C  c #6CA527",
"Z  c #76AD2E",
"A  c #72A429",
"S  c #7CB425",
"D  c #7EB922",
"F  c #7BB22B",
"G  c #6EA03D",
"H  c #73A734",
"J  c #75AA34",
"K  c #7AAD33",
"L  c #72A33B",
"P  c #79AC39",
"I  c #78A732",
"U  c #7EB135",
"Y  c #5F914F",
"T  c #5F8B54",
"R  c #5E8451",
"E  c #588347",
"W  c #648E4E",
"Q  c #6D8C49",
"!  c #6A874E",
"~  c #77854F",
"^  c #7D824D",
"/  c #708D4B",
"(  c #6A9544",
")  c #6B9C43",
"_  c #65924C",
"`  c #6B9A47",
"'  c #7C9240",
"]  c #729B42",
"[  c #719E49",
"{  c #7A9D4D",
"}  c #648655",
"|  c #6C8652",
" . c #628B54",
".. c #6D8C55",
"X. c #748351",
"o. c #758D54",
"O. c #649154",
"+. c #6A9154",
"@. c #6F9850",
"#. c #6B9158",
"$. c #7B9C56",
"%. c #759C59",
"&. c #7A9B5B",
"*. c #739B55",
"=. c #6EA04B",
"-. c #75A342",
";. c #7EAE41",
":. c #7EB141",
">. c #7BA15B",
",. c #75A253",
"<. c #7C9D60",
"1. c #82BE1D",
"2. c #87B41F",
"3. c #90BD1E",
"4. c #87862B",
"5. c #8A9F24",
"6. c #949A26",
"7. c #94833E",
"8. c #8C913D",
"9. c #929933",
"0. c #9C8B2A",
"q. c #A58D2E",
"w. c #AA972C",
"e. c #A78936",
"r. c #B68336",
"t. c #B98735",
"y. c #A89131",
"u. c #8AAB24",
"i. c #99A726",
"p. c #82BC22",
"a. c #84BA2B",
"s. c #88B524",
"d. c #91B82D",
"f. c #81AB37",
"g. c #83B634",
"h. c #8ABD34",
"j. c #8DBC3A",
"k. c #98AC3D",
"l. c #85C317",
"z. c #85C21B",
"x. c #88C718",
"c. c #8BC325",
"v. c #8EC32C",
"b. c #87C123",
"n. c #8EC137",
"m. c #93C535",
"M. c #96C935",
"N. c #94C33A",
"B. c #98C63D",
"V. c #99C938",
"C. c #818947",
"Z. c #898A43",
"A. c #82824C",
"S. c #8A824A",
"D. c #858A4F",
"F. c #86894B",
"G. c #958245",
"H. c #9C8244",
"J. c #98864C",
"K. c #99984D",
"L. c #8D8750",
"P. c #968E52",
"I. c #859857",
"U. c #9A9552",
"Y. c #A88041",
"T. c #A29854",
"R. c #85AD4F",
"E. c #8BB745",
"W. c #85B04E",
"Q. c #96BE4B",
"!. c #9FBF45",
"~. c #83A45C",
"^. c #8BAC5A",
"/. c #89A559",
"(. c #95A65B",
"). c #8AB059",
"_. c #8BB353",
"`. c #9FB05C",
"'. c #9DBD5B",
"]. c #96B858",
"[. c #A6A75A",
"{. c #A8B95F",
"}. c #A3B855",
"|. c #8EAC62",
" X c #83A361",
".X c #91AF64",
"XX c #8EB061",
"oX c #94B363",
"OX c #9DBA65",
"+X c #9BB964",
"@X c #A2BF63",
"#X c #ADBC63",
"$X c #96C144",
"%X c #9AC543",
"&X c #97C14A",
"*X c #9DC54A",
"=X c #9FC94A",
"-X c #A1CA47",
";X c #A0C74C",
":X c #A2CA4B",
">X c #A1C552",
",X c #A6C956",
"<X c #A6C65B",
"1X c #A8C75D",
"2X c #AAC95E",
"3X c #AACC56",
"4X c #B0CE5C",
"5X c #A5C265",
"6X c #ACC665",
"7X c #ADC964",
"8X c #A5C169",
"9X c #AEC769",
"0X c #B0CB64",
"qX c #B0C969",
"wX c #B0C76E",
"eX c None",
/* pixels */
"6X6X6XqX9X9X<X*XM.c.c.M.=X<X@X|.&. . .m Z p.x.x.l.z.c.m.*X<X7XqXqX6X2X=XN.c.z.l.z.x.x.z.z.z.z.l.l.l.b.m.*X<X1X:XM.c.c.V.;X1X9XwX",
"6X6X6X6X6X7X<X*Xm.c.c.m.%X<X5X|.<.#._ ) J D 1.l.l.l.c.m.*X1X7X9X9X7X<X*Xm.c.z.l.l.z.l.z.z.z.z.z.l.z.c.N.*X<X<X*XM.c.c.m.*X<X6XqX",
"6X6X6X6X6X<X>X&Xh.a.a.N.*X<X@XoX X%.@.] H F j 1.1.1.c.m.*X1X9X8X8X8X>X&Xn.b.z.1.p.D p.p.1.l.z.z.z.b.v.$X>X<X<XQ.h.a.a.h.$X>X<X2X",
"0X6X7X2X,X=X*Xn.g.U g.E.'.1X5XOX|.~.$.[ N C C h j 1.c.m.=X1X6X8X+XoX).E.h.b.z.D S F F S D b.b.b.v.m.V.*X,X1X<X].f.I A I g.$X*X=X",
"qX7X7X,X=XV.n.g.P L -.W.].5X6X#XOXoX^.{ ( c l v h 2.c.V.-X2X6X+X|.~.,.;.g.p.b.S Z L L J F 1.b.c.m.%X;X,X2X7X<X_.-.V c b K h.N.M.",
"qX6X<X*XB.v.a.K N ` @.>.).@X6X9X6X5X].$.Q o o l C j c.M.-X<X@X.X X&.@.-.F D D F G ( ( G Z b.b.M.%X>X<X6X0X6X'././ o o c A a.c.c.",
"8X5X'.Q.j.a.F H ) W +.>.).'.<X7X0X6XOXI.! # o l v j b.m.!.}.{.(.I.o./ ] I F F J ) _ _ m Z D c.M.:X<X6X6X#X{.(.D.% # X O v 2.s.c.",
"XXXX).W.P P H m _  . .*.W.Q.:X3X3X7X5X/...# # x C j p.d.k.K.K.P.L.A.C.' B J H ) _  ._ =.Z D c.M.:X1X6X#X[.[.K.p $   @ + 4.6.i.i.",
"<.&.,.*.=.) ) _ Y T O.[ ;.j.B.-X3X2X5X^.%.R E n C D 1.u.9.G.a d s s a Z.' ] ) _ _ T  .m Z D c.M.-X1X6X[.U.d d d & . . : ; 0.w.w.",
"#.#.+.+.O._ Y } R T +.) K a.v.V.:X<X{.|.<. .W m Z 1.2.5.4., , 2 g 8 f H.C.o. .T T T _ m Z D c.M.;X<X#X[.J.d & & & & & , 8 5 t.t.",
"..| | | | | | | | | Q ] I F a.n.Q.'.@X|.&.o./ ] I u.i.6.; , = - 3 w e H.S.X.| } T } O.) H S a.j.&X'.[.U.s = * * * * * 2 3 t r r ",
"A.A.A.A.A.A.A.A.A.A.C.' B H P :.R.^.(.I.L.D.F.8.9.i.6.0.; = = < 3 9 e g G.S.^ X.| } T ( =.H J E._.).(.P.d d = - * - < < q w r y ",
"s s s s H.s s s s s G.Z.' ] ) =.*.,.&.I.J.J.H.e.e.y.y.e.5 1 1 1 4 eXeXe f s a A.X.} T Y _ =.) =.,.%.&.L.s 8 < < 1 1 4 q w r i i ",
"7 e e 7 e 7 e e e g e.G.C./ _ O.O.#.o.D.J.Y.g r.r.r.r.0 r t t q eXeXeXeXe e g G.^ |  . .Y _ W O.O.#.o.F.s g w w w w q t t r r r ",
"r r r r r r r r i r e Y.S.~ | } R } ! A.H.e r u y r i r r r r r eXeXeXeXy i e H.S.X.| | | | | | | ! ~ S.Y.g r.y i r r r r r r r ",
"y y y y y y u y y i r g s S.^ X.| } | A.s e y y y i i i u u u eXeXeXeXeXeXy e Y.G.S.A.A.^ A.A.A.A.A.A.G.f r.u y r u r u u r r r ",
"eXeXeXi y y r y u u r e g f H.p ^ eXeXeXeXeXeXeXeXeXeXeXeXeXeXeXeXeXeXeXeXeXeX7 f s H.H.s s s s s s s f 6 eXeXeXeXeXeXeXeXeXeXeX",
"eXeXeXeXr r r r u r r 0 e g e Y.eXeXeXeXeXeXeXeXeXeXeXeXeXeXeXeXeXeXeXeXeXeXeXeXe e e e e e e e e e 7 e eXeXeXeXeXeXeXeXeXeXeXeX",
"eXeXeXeXr r r r r r r r i r r r eXeXeXeXeXeXeXeXeXeXeXeXeXeXeXeXeXeXeXeXeXeXeXeXr r r r r r r r r r r r eXeXeXeXeXeXeXeXeXeXeXeX",
"eXeXeXeXeXr r r r r u u u y y eXeXeXeXeXeXeXeXeXeXeXeXeXeXeXeXeXeXeXeXeXeXeXeXeXeXy y y u i y y y y y eXeXeXeXeXeXeXeXeXeXeXeXeX",
"eXeXeXeXeXeXeXeXeXeXeXeXeXeXeXeXeXeXeXeXeXeXeXeXeXeXeXeXeXeXeXeXeXeXeXeXeXeXeXeXeXeXeXeXeXeXeXeXeXeXeXeXeXeXeXeXeXeXeXeXeXeXeXeX",
"eXeXeXeXeXeXeXeXeXeXeXeXeXeXeXeXeXeXeXeXeXeXeXeXeXeXeXeXeXeXeXeXeXeXeXeXeXeXeXeXeXeXeXeXeXeXeXeXeXeXeXeXeXeXeXeXeXeXeXeXeXeXeXeX",
"eXeXeXeXeXeXeXeXeXeXeXeXeXeXeXeXeXeXeXeXeXeXeXeXeXeXeXeXeXeXeXeXeXeXeXeXeXeXeXeXeXeXeXeXeXeXeXeXeXeXeXeXeXeXeXeXeXeXeXeXeXeXeXeX",
"eXeXeXeXeXeXeXeXeXeXeXeXeXeXeXeXeXeXeXeXeXeXeXeXeXeXeXeXeXeXeXeXeXeXeXeXeXeXeXeXeXeXeXeXeXeXeXeXeXeXeXeXeXeXeXeXeXeXeXeXeXeXeXeX",
"eXeXeXeXeXeXeXeXeXeXeXeXeXeXeXeXeXeXeXeXeXeXeXeXeXeXeXeXeXeXeXeXeXeXeXeXeXeXeXeXeXeXeXeXeXeXeXeXeXeXeXeXeXeXeXeXeXeXeXeXeXeXeXeX",
"eXeXeXeXeXeXeXeXeXeXeXeXeXeXeXeXeXeXeXeXeXeXeXeXeXeXeXeXeXeXeXeXeXeXeXeXeXeXeXeXeXeXeXeXeXeXeXeXeXeXeXeXeXeXeXeXeXeXeXeXeXeXeXeX",
"eXeXeXeXeXeXeXeXeXeXeXeXeXeXeXeXeXeXeXeXeXeXeXeXeXeXeXeXeXeXeXeXeXeXeXeXeXeXeXeXeXeXeXeXeXeXeXeXeXeXeXeXeXeXeXeXeXeXeXeXeXeXeXeX",
"eXeXeXeXeXeXeXeXeXeXeXeXeXeXeXeXeXeXeXeXeXeXeXeXeXeXeXeXeXeXeXeXeXeXeXeXeXeXeXeXeXeXeXeXeXeXeXeXeXeXeXeXeXeXeXeXeXeXeXeXeXeXeXeX",
"eXeXeXeXeXeXeXeXeXeXeXeXeXeXeXeXeXeXeXeXeXeXeXeXeXeXeXeXeXeXeXeXeXeXeXeXeXeXeXeXeXeXeXeXeXeXeXeXeXeXeXeXeXeXeXeXeXeXeXeXeXeXeXeX",
"eXeXeXeXeXeXeXeXeXeXeXeXeXeXeXeXeXeXeXeXeXeXeXeXeXeXeXeXeXeXeXeXeXeXeXeXeXeXeXeXeXeXeXeXeXeXeXeXeXeXeXeXeXeXeXeXeXeXeXeXeXeXeXeX",
"eXeXeXeXeXeXeXeXeXeXeXeXeXeXeXeXeXeXeXeXeXeXeXeXeXeXeXeXeXeXeXeXeXeXeXeXeXeXeXeXeXeXeXeXeXeXeXeXeXeXeXeXeXeXeXeXeXeXeXeXeXeXeXeX",
"eXeXeXeXeXeXeXeXeXeXeXeXeXeXeXeXeXeXeXeXeXeXeXeXeXeXeXeXeXeXeXeXeXeXeXeXeXeXeXeXeXeXeXeXeXeXeXeXeXeXeXeXeXeXeXeXeXeXeXeXeXeXeXeX",
"eXeXeXeXeXeXeXeXeXeXeXeXeXeXeXeXeXeXeXeXeXeXeXeXeXeXeXeXeXeXeXeXeXeXeXeXeXeXeXeXeXeXeXeXeXeXeXeXeXeXeXeXeXeXeXeXeXeXeXeXeXeXeXeX",
"eXeXeXeXeXeXeXeXeXeXeXeXeXeXeXeXeXeXeXeXeXeXeXeXeXeXeXeXeXeXeXeXeXeXeXeXeXeXeXeXeXeXeXeXeXeXeXeXeXeXeXeXeXeXeXeXeXeXeXeXeXeXeXeX",
"eXeXeXeXeXeXeXeXeXeXeXeXeXeXeXeXeXeXeXeXeXeXeXeXeXeXeXeXeXeXeXeXeXeXeXeXeXeXeXeXeXeXeXeXeXeXeXeXeXeXeXeXeXeXeXeXeXeXeXeXeXeXeXeX",
"eXeXeXeXeXeXeXeXeXeXeXeXeXeXeXeXeXeXeXeXeXeXeXeXeXeXeXeXeXeXeXeXeXeXeXeXeXeXeXeXeXeXeXeXeXeXeXeXeXeXeXeXeXeXeXeXeXeXeXeXeXeXeXeX",
"eXeXeXeXeXeXeXeXeXeXeXeXeXeXeXeXeXeXeXeXeXeXeXeXeXeXeXeXeXeXeXeXeXeXeXeXeXeXeXeXeXeXeXeXeXeXeXeXeXeXeXeXeXeXeXeXeXeXeXeXeXeXeXeX",
"eXeXeXeXeXeXeXeXeXeXeXeXeXeXeXeXeXeXeXeXeXeXeXeXeXeXeXeXeXeXeXeXeXeXeXeXeXeXeXeXeXeXeXeXeXeXeXeXeXeXeXeXeXeXeXeXeXeXeXeXeXeXeXeX",
"eXeXeXeXeXeXeXeXeXeXeXeXeXeXeXeXeXeXeXeXeXeXeXeXeXeXeXeXeXeXeXeXeXeXeXeXeXeXeXeXeXeXeXeXeXeXeXeXeXeXeXeXeXeXeXeXeXeXeXeXeXeXeXeX",
"eXeXeXeXeXeXeXeXeXeXeXeXeXeXeXeXeXeXeXeXeXeXeXeXeXeXeXeXeXeXeXeXeXeXeXeXeXeXeXeXeXeXeXeXeXeXeXeXeXeXeXeXeXeXeXeXeXeXeXeXeXeXeXeX",
"eXeXeXeXeXeXeXeXeXeXeXeXeXeXeXeXeXeXeXeXeXeXeXeXeXeXeXeXeXeXeXeXeXeXeXeXeXeXeXeXeXeXeXeXeXeXeXeXeXeXeXeXeXeXeXeXeXeXeXeXeXeXeXeX",
"eXeXeXeXeXeXeXeXeXeXeXeXeXeXeXeXeXeXeXeXeXeXeXeXeXeXeXeXeXeXeXeXeXeXeXeXeXeXeXeXeXeXeXeXeXeXeXeXeXeXeXeXeXeXeXeXeXeXeXeXeXeXeXeX",
"eXeXeXeXeXeXeXeXeXeXeXeXeXeXeXeXeXeXeXeXeXeXeXeXeXeXeXeXeXeXeXeXeXeXeXeXeXeXeXeXeXeXeXeXeXeXeXeXeXeXeXeXeXeXeXeXeXeXeXeXeXeXeXeX",
"eXeXeXeXeXeXeXeXeXeXeXeXeXeXeXeXeXeXeXeXeXeXeXeXeXeXeXeXeXeXeXeXeXeXeXeXeXeXeXeXeXeXeXeXeXeXeXeXeXeXeXeXeXeXeXeXeXeXeXeXeXeXeXeX",
"eXeXeXeXeXeXeXeXeXeXeXeXeXeXeXeXeXeXeXeXeXeXeXeXeXeXeXeXeXeXeXeXeXeXeXeXeXeXeXeXeXeXeXeXeXeXeXeXeXeXeXeXeXeXeXeXeXeXeXeXeXeXeXeX",
"eXeXeXeXeXeXeXeXeXeXeXeXeXeXeXeXeXeXeXeXeXeXeXeXeXeXeXeXeXeXeXeXeXeXeXeXeXeXeXeXeXeXeXeXeXeXeXeXeXeXeXeXeXeXeXeXeXeXeXeXeXeXeXeX",
"eXeXeXeXeXeXeXeXeXeXeXeXeXeXeXeXeXeXeXeXeXeXeXeXeXeXeXeXeXeXeXeXeXeXeXeXeXeXeXeXeXeXeXeXeXeXeXeXeXeXeXeXeXeXeXeXeXeXeXeXeXeXeXeX",
"eXeXeXeXeXeXeXeXeXeXeXeXeXeXeXeXeXeXeXeXeXeXeXeXeXeXeXeXeXeXeXeXeXeXeXeXeXeXeXeXeXeXeXeXeXeXeXeXeXeXeXeXeXeXeXeXeXeXeXeXeXeXeXeX",
"eXeXeXeXeXeXeXeXeXeXeXeXeXeXeXeXeXeXeXeXeXeXeXeXeXeXeXeXeXeXeXeXeXeXeXeXeXeXeXeXeXeXeXeXeXeXeXeXeXeXeXeXeXeXeXeXeXeXeXeXeXeXeXeX",
"eXeXeXeXeXeXeXeXeXeXeXeXeXeXeXeXeXeXeXeXeXeXeXeXeXeXeXeXeXeXeXeXeXeXeXeXeXeXeXeXeXeXeXeXeXeXeXeXeXeXeXeXeXeXeXeXeXeXeXeXeXeXeXeX",
"eXeXeXeXeXeXeXeXeXeXeXeXeXeXeXeXeXeXeXeXeXeXeXeXeXeXeXeXeXeXeXeXeXeXeXeXeXeXeXeXeXeXeXeXeXeXeXeXeXeXeXeXeXeXeXeXeXeXeXeXeXeXeXeX",
"eXeXeXeXeXeXeXeXeXeXeXeXeXeXeXeXeXeXeXeXeXeXeXeXeXeXeXeXeXeXeXeXeXeXeXeXeXeXeXeXeXeXeXeXeXeXeXeXeXeXeXeXeXeXeXeXeXeXeXeXeXeXeXeX",
"eXeXeXeXeXeXeXeXeXeXeXeXeXeXeXeXeXeXeXeXeXeXeXeXeXeXeXeXeXeXeXeXeXeXeXeXeXeXeXeXeXeXeXeXeXeXeXeXeXeXeXeXeXeXeXeXeXeXeXeXeXeXeXeX",
"eXeXeXeXeXeXeXeXeXeXeXeXeXeXeXeXeXeXeXeXeXeXeXeXeXeXeXeXeXeXeXeXeXeXeXeXeXeXeXeXeXeXeXeXeXeXeXeXeXeXeXeXeXeXeXeXeXeXeXeXeXeXeXeX",
"eXeXeXeXeXeXeXeXeXeXeXeXeXeXeXeXeXeXeXeXeXeXeXeXeXeXeXeXeXeXeXeXeXeXeXeXeXeXeXeXeXeXeXeXeXeXeXeXeXeXeXeXeXeXeXeXeXeXeXeXeXeXeXeX",
"eXeXeXeXeXeXeXeXeXeXeXeXeXeXeXeXeXeXeXeXeXeXeXeXeXeXeXeXeXeXeXeXeXeXeXeXeXeXeXeXeXeXeXeXeXeXeXeXeXeXeXeXeXeXeXeXeXeXeXeXeXeXeXeX",
"eXeXeXeXeXeXeXeXeXeXeXeXeXeXeXeXeXeXeXeXeXeXeXeXeXeXeXeXeXeXeXeXeXeXeXeXeXeXeXeXeXeXeXeXeXeXeXeXeXeXeXeXeXeXeXeXeXeXeXeXeXeXeXeX",
"eXeXeXeXeXeXeXeXeXeXeXeXeXeXeXeXeXeXeXeXeXeXeXeXeXeXeXeXeXeXeXeXeXeXeXeXeXeXeXeXeXeXeXeXeXeXeXeXeXeXeXeXeXeXeXeXeXeXeXeXeXeXeXeX",
"eXeXeXeXeXeXeXeXeXeXeXeXeXeXeXeXeXeXeXeXeXeXeXeXeXeXeXeXeXeXeXeXeXeXeXeXeXeXeXeXeXeXeXeXeXeXeXeXeXeXeXeXeXeXeXeXeXeXeXeXeXeXeXeX",
"eXeXeXeXeXeXeXeXeXeXeXeXeXeXeXeXeXeXeXeXeXeXeXeXeXeXeXeXeXeXeXeXeXeXeXeXeXeXeXeXeXeXeXeXeXeXeXeXeXeXeXeXeXeXeXeXeXeXeXeXeXeXeXeX",
"eXeXeXeXeXeXeXeXeXeXeXeXeXeXeXeXeXeXeXeXeXeXeXeXeXeXeXeXeXeXeXeXeXeXeXeXeXeXeXeXeXeXeXeXeXeXeXeXeXeXeXeXeXeXeXeXeXeXeXeXeXeXeXeX",
"eXeXeXeXeXeXeXeXeXeXeXeXeXeXeXeXeXeXeXeXeXeXeXeXeXeXeXeXeXeXeXeXeXeXeXeXeXeXeXeXeXeXeXeXeXeXeXeXeXeXeXeXeXeXeXeXeXeXeXeXeXeXeXeX",
"eXeXeXeXeXeXeXeXeXeXeXeXeXeXeXeXeXeXeXeXeXeXeXeXeXeXeXeXeXeXeXeXeXeXeXeXeXeXeXeXeXeXeXeXeXeXeXeXeXeXeXeXeXeXeXeXeXeXeXeXeXeXeXeX",
"eXeXeXeXeXeXeXeXeXeXeXeXeXeXeXeXeXeXeXeXeXeXeXeXeXeXeXeXeXeXeXeXeXeXeXeXeXeXeXeXeXeXeXeXeXeXeXeXeXeXeXeXeXeXeXeXeXeXeXeXeXeXeXeX"
};
