/* XPM */
static char *path_02[] = {
/* columns rows colors chars-per-pixel */
"64 64 222 2 ",
"   c #645F3C",
".  c #775938",
"X  c #586C3A",
"o  c #557A38",
"O  c #627F2E",
"+  c #707330",
"@  c #636236",
"#  c #547845",
"$  c #716B42",
"%  c #6C7C48",
"&  c #895635",
"*  c #935232",
"=  c #9C5A33",
"-  c #9E5731",
";  c #A15C34",
":  c #95792D",
">  c #846838",
",  c #976637",
"<  c #A56135",
"1  c #AD6635",
"2  c #AD6C35",
"3  c #A66E3B",
"4  c #B26D37",
"5  c #B46D38",
"6  c #A77F3F",
"7  c #AB7837",
"8  c #B77638",
"9  c #BA7538",
"0  c #B27C3D",
"q  c #BD7B39",
"w  c #B87836",
"e  c #C27937",
"r  c #C17E3A",
"t  c #957C45",
"y  c #9A7D44",
"u  c #957544",
"i  c #847D49",
"p  c #A37E41",
"a  c #A97C40",
"s  c #74AB1E",
"d  c #7CB61D",
"f  c #7FBA1C",
"g  c #5B882C",
"h  c #5C8F36",
"j  c #618D2D",
"k  c #6B9D27",
"l  c #649134",
"z  c #6A9C3E",
"x  c #6C9D30",
"c  c #739A3D",
"v  c #789E38",
"b  c #6B912E",
"n  c #6CA527",
"m  c #76AD2E",
"M  c #72A429",
"N  c #7CB425",
"B  c #7EB922",
"V  c #7BB22B",
"C  c #6EA03D",
"Z  c #73A734",
"A  c #75AA34",
"S  c #7BAC32",
"D  c #72A33B",
"F  c #79AC39",
"G  c #78A732",
"H  c #7EB135",
"J  c #5F914F",
"K  c #5F8B54",
"L  c #5E8451",
"P  c #588347",
"I  c #648E4E",
"U  c #6D8C49",
"Y  c #6A874E",
"T  c #7D824D",
"R  c #708D4B",
"E  c #7E8747",
"W  c #6A9544",
"Q  c #6B9C43",
"!  c #65924C",
"~  c #6B9A47",
"^  c #7C9240",
"/  c #729B42",
"(  c #719E49",
")  c #7A9D4D",
"_  c #638756",
"`  c #6C8652",
"'  c #628B54",
"]  c #6C8A54",
"[  c #758D54",
"{  c #748551",
"}  c #649154",
"|  c #6A9154",
" . c #6F9850",
".. c #6B9158",
"X. c #7C9B56",
"o. c #759C59",
"O. c #7A9B5B",
"+. c #739B55",
"@. c #6DA04B",
"#. c #79A842",
"$. c #7EB141",
"%. c #7BA15B",
"&. c #75A253",
"*. c #7C9D60",
"=. c #82BE1D",
"-. c #87B41F",
";. c #90BD1E",
":. c #87862B",
">. c #8D9A24",
",. c #959C27",
"<. c #919933",
"1. c #938A37",
"2. c #A6892E",
"3. c #AA972C",
"4. c #A38A38",
"5. c #B68336",
"6. c #B5803D",
"7. c #BE863F",
"8. c #B98735",
"9. c #A79131",
"0. c #8AAB24",
"q. c #99A726",
"w. c #82BC22",
"e. c #84BA2B",
"r. c #87B524",
"t. c #83AF3E",
"y. c #83B634",
"u. c #8ABD34",
"i. c #8DBC3A",
"p. c #94B235",
"a. c #C5853D",
"s. c #C8853C",
"d. c #C7893E",
"f. c #CB8C3F",
"g. c #85C317",
"h. c #85C21B",
"j. c #88C718",
"k. c #8BC325",
"l. c #8EC32C",
"z. c #87C123",
"x. c #8EC137",
"c. c #93C535",
"v. c #96C935",
"b. c #94C33A",
"n. c #98C63D",
"m. c #99C938",
"M. c #828947",
"N. c #82824C",
"B. c #8B834A",
"V. c #84894F",
"C. c #8B8A48",
"Z. c #958344",
"A. c #9B8245",
"S. c #9B8449",
"D. c #9F8A48",
"F. c #908B4C",
"G. c #99984D",
"H. c #8C8750",
"J. c #859354",
"K. c #839B59",
"L. c #9A9552",
"P. c #958E52",
"I. c #A28243",
"U. c #AC8341",
"Y. c #A48E49",
"T. c #B28542",
"R. c #BB8A41",
"E. c #B08843",
"W. c #BF9144",
"Q. c #B49146",
"!. c #A7944E",
"~. c #85AD4F",
"^. c #88B449",
"/. c #99BE49",
"(. c #83A45C",
"). c #8AAC5A",
"_. c #89A559",
"`. c #95A65B",
"'. c #8BB156",
"]. c #9FB05C",
"[. c #9DBD5B",
"{. c #96B858",
"}. c #A6A75A",
"|. c #A8B95F",
" X c #A3B855",
".X c #8EAC62",
"XX c #83A361",
"oX c #91AF64",
"OX c #8EB061",
"+X c #94B363",
"@X c #9DBA65",
"#X c #9BB964",
"$X c #A2BF63",
"%X c #ADBC63",
"&X c #C58C40",
"*X c #CB8E40",
"=X c #CE9442",
"-X c #C59645",
";X c #D09643",
":X c #D19944",
">X c #96C144",
",X c #97C14A",
"<X c #9EC54A",
"1X c #9FC94A",
"2X c #9AC543",
"3X c #A1CA47",
"4X c #A0C74C",
"5X c #A2CA4B",
"6X c #A1C552",
"7X c #A6C956",
"8X c #A6C65B",
"9X c #A8C75D",
"0X c #AAC95E",
"qX c #AACC56",
"wX c #B0CE5C",
"eX c #A5C265",
"rX c #ACC665",
"tX c #ADC964",
"yX c #A5C169",
"uX c #AEC769",
"iX c #B0C969",
"pX c #B0CA67",
/* pixels */
"rXrXrXiXiXuX9X1Xc.k.k.v.3X8X$X.X*.' ' z m w.j.j.j.g.k.c.<X9XuXiXiXrX9X1Xv.k.h.g.g.g.j.h.h.h.h.g.=.g.h.c.<X8X8X5Xv.k.k.c.4X0XuXiX",
"rXrXrXrXrXrX8X2Xc.k.k.c.3X8X$XoX*...! Q A w.=.g.g.g.e.c.2X8XrXiXiXrX9X<Xb.k.h.h.h.h.h.h.h.h.h.h.g.h.k.b.<X8X8X<Xc.k.k.c.<X8XrXuX",
"rXrXrXrXtX8X6X,Xu.e.e.b.<X8X$X+XXXo. .Q G V d =.=.=.k.v.1X9XyXuXyXeX6X,Xx.k.h.f =.B w.=.=.h.h.h.z.k.l.>X4X9X8X/.i.r.N u.>X6X8X0X",
"pXrXtX0X7X6X2Xx.y.H y.^./.eXeX@X.X(.X.( z k M s d =.k.v.1X9XrXyX#X+X'.^.u.z.h.B V V V N w.=.k.k.k.c.v.<X8X9XeX/.t.G m S i.>X<X1X",
"pXpXtX6X1Xm.x.y.F D #.~.{.eXeXyX$X`.).) z l g j s =.k.v.5X9XeX@XOX(.&.$.V z.h.N A D D A N h.k.l.c.2X4X7X0XrX$X'.) b j k S i.b.v.",
"iXtX8X6Xn.l.e.m D W  .%.+X$XrXrXrX$X{.X.U o o g k d ;.v.5X8X%X+XXXO. .c H w.B m C W ~ C m B k.l.2X6X8XtXtXrX X~.U o o j M N k.k.",
"eX@X6X,Xi.e.V Z W ' | %.).[.9XtXtXrX$X(.Y # o g k d ;.c./. X|.`.K.[ R c A N V F Q ! ! z m B k.v.4X8XrXrX%X|.].J.% X X O k -.r.k.",
"OXOX).~.$.F Z z ! ' } +.~./.5XqXwXrX$X_.` # o h n d w.u.p.G.L.F.H.N.N.c v Z Z @.! K ! @.m w.k.v.5X9XrX%X}.}.P.i $   @ + :.,.q.q.",
"%.%.&.&.( Q Q ! J K } ( ^.i.m.3XqX0XeX)..._ P h n f =.0.<.Z.u y y u t C.^ Q ~ ! K ' I Q m B k.v.5X0X%X}.!.y u > . . . > : 2.3.3.",
"....] ] } ! ' _ K K I Q A e.l.m.6X8X$X.XO.] J Q m -.-.>.:., , , 3 0 4.Z.M.[ ! ' K ' ! z A B k.v.4X8X%X}.S.u & & & & & , 7 7 8.8.",
"` ` ` ` ` ` ] ] ` ` U / G V e.i.,X6X#XoXO.[ R / S r.0.>.: , = < 5 q 0 I.B.T ` _ L ' ' Q Z V e.x.,X[.#XL.t u * * * * = < 4 9 w 7.",
"T T T N.N.N.N.N.i N.M.^ v G F $.~.).`.K.J.V.C.1.<.q.,.2.: = < 1 9 r a.T.S.i T { _ ' K W C Z F ^.^.).`.P.u = = - - = ; 2 5 w w q ",
"y y y y y A.y p p y Z.C.c / Q ( +.&.O.J.H.Z.A.4.4.9.2.2.7 1 2 w r &X&X&Xa p t T { _ K J ! Q Q @.&.o.K.H.t 3 1 1 1 1 4 5 9 9 e e ",
"0 0 0 0 0 a a q 0 0 4.Z.M.R ! ' } | [ V.S.U.0 q 5.5.5.q 0 9 q e &X*X*X&X&XT.a S.T ` ' K J } } } } ..[ V.y 0 w 8 8 8 8 w 9 e q q ",
"e 7.q q r q q e e q 0 y B.{ ` ] ] ] [ B.I.T.r r r e r q r r a.s.*X;X;X*X&Xr a a B.{ { ` ` { ` ` ` ` T B.I.6.r r r r 7.e a.q r a.",
"s.s.s.s.r e e e e e q a y B.N.T V.V.F.D.E.d.s.s.s.&Xs.a.s.s.&X*X;X;X;X=X*Xs.&Xa A.B.N.N.% N.N.N.T T B.Z.U.a.s.f.s.d.d.a.a.a.a.s.",
"f.f.f.d.a.e e q e e q 0 p y A.S.D.Y.Q.Q.W.&X=Xf.f.*X*X*X*X*X=X;X;X:X:X;X;Xf.d.R.U.I.y y A.t t 6 y y y 6.R.&Xf.f.-Xf.f.f.-Xf.f.f.",
";X;X=Xf.a.7.e q q q q q 0 0 6.7.R.W.-X-X-X=X=X;X:X:X;X;X;X;X;X;X:X:X:X:X;X=X-Xd.7.6.0 0 0 0 7 0 0 0 6.7.&X=X:X:X;X;X;X;X;X;X:X:X",
":X:X;Xf.d.a.e 7.r r 7.5.r r a.d.=X=X:X:X:X:X:X:X:X:X:X:X;X:X:X:X:X:X:X:X:X:X;X=Xd.a.r r q 7.7.q q a.7.d.f.;X:X:X:X:X:X:X:X:X:X:X",
":X:X:X=Xd.d.a.s.a.a.a.d.s.s.s.f.=X;X;X:X:X:X:X:X:X:X:X:X:X:X:X:X:X:X:X:X:X:X;X;Xf.d.s.s.a.s.s.d.s.s.d.f.;X:X:X:X:X:X:X:X:X:X:X:X",
":X:X:X:Xf.f.f.f.f.d.f.d.f.f.f.:X:X:X:X:X:X:X:X:X:X:X:X:X:X:X:X:X:X:X:X:X:X:X:X;Xf.f.=Xf.f.f.=Xd.f.f.f.;X;X:X:X:X:X:X:X:X:X:X:X:X",
":X:X:X:X:X;X:X:X:X:X:X:X:X=X:X:X:X:X:X:X:X:X:X:X:X:X:X:X:X:X:X:X:X:X:X:X:X:X:X:X;X;X=X;X:X:X:X:X=X=X;X:X;X:X:X:X:X:X:X:X:X:X:X:X",
":X:X:X:X:X:X:X:X:X:X:X:X:X;X:X:X:X:X:X:X:X:X:X:X:X:X:X:X:X:X:X:X:X:X:X:X:X:X:X:X:X:X;X:X:X:X:X:X;X:X:X:X:X:X:X:X:X:X:X:X:X:X:X:X",
":X:X:X:X:X:X:X:X:X:X:X:X:X:X:X:X:X:X:X:X:X:X:X:X:X:X:X:X:X:X:X:X:X:X:X:X:X:X:X:X:X:X:X:X:X:X:X:X:X:X:X:X:X:X:X:X:X:X:X:X:X:X:X:X",
":X:X:X:X:X:X:X:X:X:X:X:X:X:X:X:X:X:X:X:X:X:X:X:X:X:X:X:X:X:X:X:X:X:X:X:X:X:X:X:X:X:X:X:X:X:X:X:X:X:X:X:X:X:X:X:X:X:X:X:X:X:X:X:X",
":X:X:X:X:X:X:X:X:X:X:X:X:X:X:X:X:X:X:X:X:X:X:X:X:X:X:X:X:X:X:X:X:X:X:X:X:X:X:X:X:X:X:X:X:X:X:X:X:X:X:X:X:X:X:X:X:X:X:X:X:X:X:X:X",
":X:X:X:X:X:X:X:X:X:X:X:X:X:X:X:X:X:X:X:X:X:X:X:X:X:X:X:X:X:X:X:X:X:X:X:X:X:X:X:X:X:X:X:X:X:X:X:X:X:X:X:X:X:X:X:X:X:X:X:X:X:X:X:X",
":X:X:X:X:X:X:X:X:X:X:X:X:X:X:X:X:X:X:X:X:X:X:X:X:X:X:X:X:X:X:X:X:X:X:X:X:X:X:X:X:X:X:X:X:X:X:X:X:X:X:X:X:X:X:X:X:X:X:X:X:X:X:X:X",
":X:X:X:X:X:X:X:X:X:X:X:X:X:X:X:X:X:X:X:X:X:X:X:X:X:X:X:X:X:X:X:X:X:X:X:X:X:X:X:X:X:X:X:X:X:X:X:X:X:X:X:X:X:X:X:X:X:X:X:X:X:X:X:X",
":X:X:X:X:X:X:X:X:X:X:X:X:X:X:X:X:X:X:X:X:X:X:X:X:X:X:X:X:X:X:X:X:X:X:X:X:X:X:X:X:X:X:X:X:X:X:X:X:X:X:X:X:X:X:X:X:X:X:X:X:X:X:X:X",
":X:X:X:X:X:X:X:X:X:X:X:X:X:X:X:X:X:X:X:X:X:X:X:X:X:X:X:X:X:X:X:X:X:X:X:X:X:X:X:X:X:X:X:X:X:X:X:X:X:X:X:X:X:X:X:X:X:X:X:X:X:X:X:X",
":X:X:X:X:X:X:X:X:X:X:X:X:X:X:X:X:X:X:X:X:X:X:X:X:X:X:X:X:X:X:X:X:X:X:X:X:X:X:X:X:X:X:X:X:X:X:X:X:X:X:X:X:X:X:X:X:X:X:X:X:X:X:X:X",
":X:X:X:X:X:X:X:X:X:X:X:X:X:X:X:X:X:X:X:X:X:X:X:X:X;X:X:X:X:X:X:X:X:X:X:X:X:X:X:X:X:X:X:X:X:X:X:X:X:X:X:X:X:X:X:X:X:X:X:X:X:X:X:X",
":X:X:X:X:X:X:X:X:X:X:X:X:X:X:X:X:X:X:X:X:X:X:X:X:X;X-X:X:X:X:X:X:X:X:X:X:X:X:X:X:X:X:X:X:X:X:X:X:X:X:X:X:X:X:X:X:X:X:X;X:X:X:X:X",
":X:X:X:X:X:X:X:X:X:X:X:X:X:X:X:X:X:X:X:X:X:X;X:X:X:X:X:X:X:X:X:X:X:X:X:X:X:X:X;X;X:X:X:X:X:X:X:X:X:X:X:X:X:X:X:X:X:X:X:X:X:X:X:X",
":X:X:X:X:X:X:X:X:X:X:X:X;X:X:X:X:X:X:X:X:X:X:X:X:X:X:X:X:X:X:X:X:X:X:X:X:X:X:X:X:X:X:X:X:X:X:X:X:X:X:X:X:X:X:X:X:X:X:X:X:X:X:X:X",
":X:X:X:X:X:X:X:X:X:X:X:X:X:X:X:X:X:X:X:X:X:X:X:X:X:X:X:X:X:X:X:X:X:X:X:X:X:X:X:X:X:X:X:X:X:X:X:X:X:X:X:X:X:X:X:X:X:X:X:X:X:X:X:X",
":X:X:X:X:X:X:X:X:X:X:X:X:X:X:X:X:X:X:X:X:X:X:X:X:X:X:X:X:X:X:X:X:X:X:X:X:X:X:X:X:X:X:X:X:X:X:X:X:X:X:X:X:X:X:X:X:X:X:X:X:X:X:X:X",
":X:X:X:X:X:X:X:X:X:X:X:X:X:X:X:X:X:X:X:X:X:X:X:X:X:X:X:X:X:X:X:X:X:X:X:X:X:X:X:X:X:X:X:X:X:X:X:X:X:X:X:X:X:X:X:X:X:X:X:X:X:X:X:X",
":X:X:X:X:X:X:X:X:X:X:X:X:X:X:X:X:X:X:X:X:X:X:X:X:X:X:X:X:X:X:X:X:X:X:X:X:X:X:X:X:X:X:X:X:X:X:X:X:X:X:X:X:X:X:X:X:X:X:X:X:X:X:X:X",
":X:X:X:X:X:X:X:X:X:X:X:X:X:X:X:X:X:X:X:X:X:X:X:X:X:X:X:X:X:X:X:X:X:X:X:X:X:X:X:X;X:X:X:X:X:X:X:X:X:X:X:X:X:X:X:X:X:X:X:X:X:X:X:X",
":X:X:X:X:X:X:X:X:X:X:X:X:X:X:X:X:X:X:X:X:X:X:X:X:X:X:X:X:X:X:X:X:X:X:X:X:X:X:X:X:X:X:X:X:X:X:X:X:X:X:X:X:X:X:X:X:X:X:X:X:X:X:X:X",
":X:X:X:X:X:X:X:X:X:X:X:X:X:X:X:X:X:X:X:X:X:X:X:X:X:X:X:X:X:X:X:X:X:X:X:X:X:X:X:X:X:X:X:X:X:X:X:X:X:X:X:X:X:X:X:X:X:X:X:X:X:X:X:X",
":X:X:X:X:X:X:X:X:X:X:X:X:X:X:X:X:X:X:X:X:X:X:X:X:X:X:X:X:X:X:X:X:X:X:X:X:X:X:X:X:X:X:X:X:X:X:X:X:X:X:X:X:X:X:X:X:X:X:X:X:X:X:X:X",
":X:X:X:X:X:X:X:X:X:X:X:X:X:X:X:X:X;X:X:X:X:X:X:X:X:X:X:X:X:X:X:X:X:X:X:X:X:X:X:X:X:X:X:X:X:X:X:X:X:X:X:X:X:X:X:X:X:X:X:X:X:X:X:X",
":X:X:X:X:X:X:X:X:X:X:X:X:X:X:X:X:X:X:X:X:X:X:X:X:X:X:X:X:X:X:X:X:X:X:X:X:X:X:X:X:X:X:X:X:X:X:X:X:X:X:X:X:X:X:X:X:X:X:X:X:X:X:X:X",
":X:X:X:X:X:X:X:X:X:X:X:X:X:X:X:X:X:X:X:X:X:X:X:X:X:X:X:X:X:X:X:X:X:X:X:X:X:X:X:X:X:X:X:X:X:X:X:X:X:X:X:X:X:X:X:X:X:X;X:X:X:X:X:X",
":X:X:X:X:X:X:X:X:X:X:X:X:X:X:X:X:X:X:X:X:X:X:X:X:X:X:X:X:X:X:X:X:X:X:X:X:X:X:X:X:X:X:X:X:X:X:X:X:X:X:X:X:X:X:X:X:X:X:X:X:X:X:X:X",
":X:X:X:X:X:X:X:X:X:X:X:X:X:X:X:X:X:X:X:X:X:X:X:X:X:X:X:X:X:X:X:X:X:X:X:X:X:X:X:X:X:X:X:X:X:X:X:X:X:X:X:X:X:X:X:X:X:X:X:X:X:X:X:X",
":X:X:X:X:X:X:X:X:X:X:X:X:X:X:X:X:X:X:X:X:X:X:X:X:X:X:X:X:X:X:X:X:X:X:X:X:X:X:X:X:X:X:X:X:X:X:X:X:X:X:X:X:X:X:X:X:X:X:X:X:X:X:X:X",
":X:X:X:X:X:X:X:X:X:X:X:X:X:X:X:X:X:X:X:X:X:X:X:X:X:X:X:X:X:X:X:X:X:X;X:X:X:X:X:X:X:X:X:X:X:X:X:X:X:X:X:X:X:X:X:X:X:X:X:X:X:X:X:X",
":X:X:X:X:X:X:X:X:X:X:X:X:X:X:X:X:X:X:X:X:X:X:X:X:X:X:X:X:X:X:X:X:X:X:X:X:X:X:X:X:X:X:X:X:X:X:X:X:X:X:X:X:X:X:X:X:X:X:X:X:X:X:X:X",
":X:X:X:X:X:X:X:X:X:X:X:X:X:X:X:X:X:X:X:X:X:X:X:X:X:X:X:X:X:X:X:X:X:X:X:X:X:X:X:X:X:X:X:X:X:X:X:X:X:X:X:X:X:X:X:X:X:X:X:X:X:X:X:X",
":X:X:X:X:X:X:X:X:X:X:X:X:X:X:X:X:X:X:X:X:X:X:X:X:X:X:X:X:X:X:X:X:X:X:X:X:X:X:X:X:X:X:X:X:X:X:X:X:X:X:X:X:X:X:X:X:X:X:X:X:X:X:X:X",
":X:X:X:X:X:X:X:X:X:X:X:X:X:X:X:X:X:X:X:X:X:X:X:X:X:X:X:X:X:X:X:X:X:X:X:X:X:X:X:X:X:X:X:X:X:X:X:X:X:X:X:X:X:X:X:X:X:X:X:X:X:X:X:X",
":X:X:X:X:X:X:X:X:X:X:X:X:X:X:X:X:X:X:X:X:X:X:X:X:X:X:X:X:X:X:X:X:X:X:X:X:X:X:X:X:X:X:X:X:X:X:X:X:X:X;X:X:X:X:X:X-X:X:X:X:X:X:X:X",
":X;X:X:X:X:X:X:X:X:X:X:X:X:X:X:X:X:X:X:X:X:X:X:X:X:X:X:X:X:X:X:X:X:X:X:X:X:X:X:X:X:X:X:X:X:X:X:X:X:X:X:X:X:X;X:X:X:X:X:X:X:X:X:X",
":X:X:X:X:X:X:X:X:X:X:X:X:X:X:X:X:X:X:X:X:X:X:X:X:X:X:X:X:X:X:X:X:X:X:X:X:X:X:X:X:X:X:X:X:X:X:X;X:X:X:X:X:X:X:X:X:X:X:X:X:X:X:X:X",
":X:X:X:X:X:X:X:X:X:X:X:X:X:X:X-X:X:X:X:X:X:X:X:X:X:X:X:X:X:X:X:X:X:X:X:X:X:X:X:X:X:X:X:X:X:X:X:X:X:X:X:X:X:X:X:X:X:X:X:X:X:X:X:X",
":X:X:X:X:X:X:X:X:X:X:X:X:X:X;X;X:X:X:X:X:X:X:X:X:X:X:X:X:X:X:X:X:X:X:X:X:X:X:X:X:X:X:X:X:X:X:X:X:X:X:X:X:X:X:X:X:X:X:X:X:X:X:X:X",
":X:X:X:X:X:X:X:X:X:X:X:X:X:X:X:X:X:X:X:X:X:X:X:X:X:X:X:X:X:X:X:X:X:X:X:X:X:X:X:X:X:X:X:X:X:X:X:X:X:X:X:X:X:X:X:X:X:X:X:X:X:X:X:X",
":X:X:X:X:X:X:X:X:X:X:X:X:X:X:X:X:X:X:X:X:X:X:X:X:X:X:X:X;X:X:X:X:X:X:X:X:X:X:X:X:X:X:X:X:X:X:X:X:X:X:X:X:X:X:X:X:X:X:X:X:X:X:X:X",
":X:X:X:X:X:X:X:X:X:X:X:X:X:X:X:X:X:X:X:X:X:X:X:X:X:X:X:X:X:X:X:X:X:X:X:X:X:X:X:X:X:X:X:X:X:X:X:X:X:X:X:X:X:X:X:X:X:X:X:X:X:X:X:X",
":X:X:X:X:X:X:X:X:X:X:X:X:X:X:X:X:X:X:X:X:X:X:X:X:X:X:X:X:X:X:X:X:X:X:X:X:X:X:X:X:X:X:X:X:X:X:X:X:X:X:X:X:X:X:X:X:X:X:X:X:X:X:X:X"
};
