/* XPM */
static char *path_01[] = {
/* columns rows colors chars-per-pixel */
"64 64 221 2 ",
"   c #5D5F34",
".  c #6A5933",
"X  c #765B35",
"o  c #5C7C2F",
"O  c #576938",
"+  c #56793A",
"@  c #5F6C2E",
"#  c #667C2C",
"$  c #67653A",
"%  c #7D653F",
"&  c #716F3C",
"*  c #71713C",
"=  c #78772B",
"-  c #4C6B41",
";  c #546D45",
":  c #5E6D47",
">  c #537345",
",  c #5C7243",
"<  c #5B7B4C",
"1  c #587949",
"2  c #696D45",
"3  c #776943",
"4  c #67794B",
"5  c #73794B",
"6  c #7A7D4A",
"7  c #767646",
"8  c #8D5B37",
"9  c #865C3A",
"0  c #995C35",
"q  c #82623C",
"w  c #8A6637",
"e  c #986238",
"r  c #88723C",
"t  c #90783B",
"y  c #86792B",
"u  c #A56034",
"i  c #AE6B36",
"p  c #A66937",
"a  c #B46D35",
"s  c #B56B35",
"d  c #A7783C",
"f  c #BC7537",
"g  c #B67538",
"h  c #BA7638",
"j  c #B37C3C",
"k  c #BD7B39",
"l  c #C17E3A",
"z  c #856A40",
"x  c #8A7543",
"c  c #927B44",
"v  c #9B7E43",
"b  c #A37F42",
"n  c #7DB51E",
"m  c #7EBA1D",
"M  c #5D8A2D",
"N  c #5B8832",
"B  c #5F9136",
"V  c #6A9827",
"C  c #789A27",
"Z  c #628C32",
"A  c #658531",
"S  c #6E9D3D",
"D  c #689639",
"F  c #749B3A",
"G  c #6D8333",
"H  c #6DA325",
"J  c #71A22A",
"K  c #76AC2C",
"L  c #79AD2D",
"P  c #73AA22",
"I  c #7CB523",
"U  c #7FB922",
"Y  c #7CB42A",
"T  c #6EA03B",
"R  c #74A634",
"E  c #75A932",
"W  c #7CAD34",
"Q  c #70A13D",
"!  c #79AB3A",
"~  c #7CB034",
"^  c #5E8350",
"/  c #5B8448",
"(  c #6D8C4B",
")  c #688749",
"_  c #7B834C",
"`  c #718D4C",
"'  c #74854B",
"]  c #699747",
"[  c #6C9C42",
"{  c #66904F",
"}  c #6B974B",
"|  c #6E9B4B",
" . c #779745",
".. c #678251",
"X. c #6B8652",
"o. c #668C54",
"O. c #6D8A54",
"+. c #648E59",
"@. c #698F59",
"#. c #728B53",
"$. c #7B8A51",
"%. c #708451",
"&. c #6B9255",
"*. c #6A9159",
"=. c #689457",
"-. c #749B55",
";. c #759B5A",
":. c #7B9C5B",
">. c #769556",
",. c #77A642",
"<. c #7DB142",
"1. c #7BA15D",
"2. c #78A354",
"3. c #6EA14C",
"4. c #7B9D60",
"5. c #7BA460",
"6. c #82BD1D",
"7. c #85B31E",
"8. c #908F31",
"9. c #AA813F",
"0. c #B5813E",
"q. c #BD863F",
"w. c #82BC22",
"e. c #82B62A",
"r. c #85BB2A",
"t. c #83A73B",
"y. c #8CBD34",
"u. c #8DBD39",
"i. c #86B635",
"p. c #92BF38",
"a. c #93AD31",
"s. c #C4843C",
"d. c #C8843B",
"f. c #C7893E",
"g. c #CA8B3F",
"h. c #83C217",
"j. c #85C21B",
"k. c #88C41F",
"l. c #87C220",
"z. c #8AC324",
"x. c #8EC32C",
"c. c #8DC036",
"v. c #93C434",
"b. c #96C934",
"n. c #95C439",
"m. c #98C53E",
"M. c #99C938",
"N. c #91C72B",
"B. c #81824C",
"V. c #8C8349",
"C. c #868B4E",
"Z. c #8A8848",
"A. c #958446",
"S. c #9B8446",
"D. c #918C4D",
"F. c #859448",
"G. c #99944B",
"H. c #838C51",
"J. c #888C51",
"K. c #829B5A",
"L. c #869654",
"P. c #959652",
"I. c #938E50",
"U. c #AC8342",
"Y. c #A48544",
"T. c #B58942",
"R. c #A5924B",
"E. c #AD9349",
"W. c #B79649",
"Q. c #86AB4A",
"!. c #8BB547",
"~. c #94BD46",
"^. c #96BD4A",
"/. c #9CBC48",
"(. c #86A554",
"). c #82A55D",
"_. c #8AA55B",
"`. c #8CAC5D",
"'. c #89A957",
"]. c #92AE5A",
"[. c #8AB156",
"{. c #9ABA57",
"}. c #9DBD5B",
"|. c #96B35B",
" X c #99A442",
".X c #A5B858",
"XX c #B2AB56",
"oX c #8DAD61",
"OX c #92AF62",
"+X c #8EB161",
"@X c #92B262",
"#X c #99B761",
"$X c #9DBA63",
"%X c #A2BE63",
"&X c #AEBE60",
"*X c #B7BA62",
"=X c #C48D41",
"-X c #CB8F40",
";X c #C29646",
":X c #CD9442",
">X c #CD9845",
",X c #D09743",
"<X c #D19944",
"1X c #9BC544",
"2X c #9DC844",
"3X c #9EC54B",
"4X c #9AC44A",
"5X c #9DC153",
"6X c #A0C64E",
"7X c #A2C94B",
"8X c #A2C652",
"9X c #A7C65B",
"0X c #A8C75E",
"qX c #A9C95C",
"wX c #A8CC56",
"eX c #B0CF5E",
"rX c #A4C164",
"tX c #ABC664",
"yX c #ADC963",
"uX c #AFC968",
"iX c #B1C666",
/* pixels */
"j.j.j.j.j.j.j.j.j.j.j.j.j.j.j.j.j.j.j.j.j.j.j.h.m h.z.v.3X9X9X3Xn.z.j.j.j.j.j.h.h.h.h.j.j.j.j.j.j.j.j.j.j.j.j.j.j.j.j.j.j.j.j.j.",
"j.j.j.j.j.j.l.j.j.j.j.j.j.j.j.j.j.j.j.j.j.j.j.h.h.j.z.n.3X9X9X3Xn.z.j.h.h.j.j.j.j.h.j.j.j.j.j.j.j.j.k.j.j.j.j.j.6.j.j.j.j.j.j.j.",
"j.j.j.j.j.j.j.j.j.j.j.j.j.j.j.j.j.j.j.j.j.j.j.l.l.z.x.1X8X9X9X6Xn.z.j.j.j.j.j.l.z.x.w.z.k.j.j.j.j.j.j.j.j.j.j.j.j.j.j.j.j.j.j.j.",
"j.j.j.j.j.j.j.j.j.j.j.j.j.j.j.6.j.j.j.j.j.j.l.z.x.v.n.3X9X0XqX3Xb.z.j.j.h.j.l.z.x.x.v.x.z.6.j.h.h.h.k.j.j.j.h.j.j.j.j.j.j.h.k.j.",
"j.j.j.j.j.j.j.j.j.j.j.j.j.j.h.j.h.j.j.j.j.j.z.x.n.1X8X9XtXtX9X3Xb.z.j.h.h.j.z.x.n.1X1Xn.x.j.j.h.h.k.h.k.h.h.h.j.j.j.j.j.j.j.j.h.",
"j.j.j.j.j.j.j.j.j.j.j.j.j.j.j.j.j.j.j.j.h.j.z.x.1X8X9XtXtXtX9X3Xn.z.j.h.h.j.z.v.2X8X6X1Xv.z.j.j.k.h.j.6.j.j.j.j.j.j.j.j.j.j.j.j.",
"j.j.j.j.j.j.j.j.j.j.j.l.z.z.z.z.l.j.j.j.j.j.z.v.1X8X9XqXqX9X8X1Xu.r.w.m 6.j.z.v.6X9X9X6X1Xx.z.w.6.7.m 6.w.w.z.z.k.j.j.6.6.w.6.w.",
"j.j.j.j.j.j.j.6.j.j.l.z.x.x.v.x.z.j.6.h.h.j.z.x.n.1X3X6X6X3X1X!.i.W L I U j.z.n.7XqXyX9X3Xm.y.e.K J J L y.v.b.N.z.j.6.I Y L L W ",
"j.j.j.j.j.j.j.j.j.j.z.x.n.1X1Xn.x.l.h.h.h.j.l.z.x.v.M.M.n.c.u.i.,.[ Q E Y 6.z.b.6XqXyXyXwX6X~.t.D Z Z F Q.4X2XM.N.k.6.I E T S ] ",
"j.j.j.j.6.j.j.j.6.j.z.v.1X8X8X1Xv.z.j.h.j.j.j.l.l.z.z.z.z.x.r.W ,.] ] T K U z.b.3X9XyXyXyXrX{.(.( N + ( Q.{.8X2Xb.z.w.L T ] { o.",
"j.j.j.j.j.j.j.h.h.j.z.n.3X9X0X8Xn.v.z.z.j.j.j.j.j.j.j.j.j.j.w.Y Q ] ] S R I r.u.^.}.rXtXuXtX$X(.) > > ..>.].{./.n.r.r.~ ,.| =.+.",
"j.j.j.j.j.h.j.h.h.j.z.n.6X0XtX9X3Xn.v.x.z.l.j.j.h.h.j.h.h.j.6.Y E T [ T R E ! <.Q.`.@X$XrXtX%X_.#.< > < ` >._.!.~.n.m.!.'.).:.:.",
"j.j.j.j.h.j.h.h.h.j.x.n.6X0XtXtX9X3X2Xv.x.z.j.j.j.j.h.j.h.h.k.6.Y L E T T T [ | -.-.).OX$XtX%XOX-.o.1 1 < o.( ,.!.^.4X5X{.|.+X+X",
"j.j.j.j.j.j.j.j.h.j.z.v.3X9XtXtXtX0X8X1XN.z.j.h.h.j.j.j.h.k.k.j.l.w.U E [ ] { +.+.&.;.).@X%X%X].:.o.^ > > > 1 ` (.{.9XtXrX%X$XrX",
"j.j.j.k.w.z.z.z.j.j.z.x.1X8X0XtXtXtX9X3Xv.z.j.j.j.j.j.j.k.h.k.k.h.j.w.~ ,.&.&.*.@.=.;.).OX#X#X`.K.#.< 1 ; O $ ) K.|.%XrXrXrXrX$X",
"j.6.k.z.x.v.v.x.z.j.k.x.v.1X6X9XtXtX0X8Xn.z.j.h.j.j.j.j.h.h.h.h.h.j.l.~ <.2.:.:.:.:.1.).`.oX`.K.$.5 2 2 $ & * _ L._.+X+X+X+X+X@X",
"h.j.k.x.n.1X1Xv.x.w.k.z.x.x.m.3X9XtX0X6Xn.z.j.h.h.j.j.j.j.j.h.h.h.h.l.y.!.[.oX+X@X@XoXoXoX5.:.$.5 z 3 q w w x V.$.:.:.5.1.:.1.1.",
"j.j.r.v.2X8X8X1Xv.z.j.j.k.z.x.m.8X9X9X6Xn.r.j.h.h.h.j.j.j.j.h.h.h.j.z.v.4X}.rXrXrX$X#XoX:.;.%.5 3 9 8 0 u u d S.C.#.*.=.=.@.@.=.",
"h.j.z.v.6X9X0X8Xm.x.z.j.j.j.z.v.1X8X8X1Xv.z.k.6.m n I n 6.7.6.7.w.x.x.m.8X9XtXtXrX%X#X_.;.X.4 2 q 8 0 u s l b b V.$.#.O.O.#.#.#.",
"h.j.x.v.6X0XtX9X3X1Xv.x.z.j.k.x.v.1X1Xv.x.j.m n P C V C C 8.7.8.a.v.m.2XwXtXtXtX$X#X_.:.$.5 3 z 9 0 u s l l l b S.D.C.C.H.C.H.H.",
"h.j.x.v.6X0XtXtX9X8X1Xv.x.k.j.z.x.x.x.x.k.k.6.P V M M # = y 8.8.a./.wXwXeXyXtX$X+XoX;.%.5 3 9 q e p i s f l b s.U.E.R.E.R.R.R.R.",
"h.6.z.v.1X9XtXtXtX9X8X1Xv.z.k.j.z.z.z.z.k.j.n H M o O @ . 8 w S. X.X9XyXtXtXrX@XoX*.O.5 3 9 8 0 p a h k f k l l =X;X;X>X;X;X;X;X",
"h.j.z.v.1X8X9X0X0X9X8X1Xv.l.k.j.k.z.x.z.z.z.e.J Z + O   . X 9 c P.|.%XrXrXrX#X`.K.#.5 7 z 8 0 u i h k l l l l =X:X:X<X<X<X<X<X<X",
"h.j.z.x.v.1X6X6X8X3X1Xv.x.z.k.z.z.b.b.b.b.v.y.W V M o @ . X X 7 J._.@X@X@XOX`.).L.$.x x e 0 u p a k l l s.=X=X-X,X,X<X<X<X<X<X<X",
"j.j.k.z.x.v.v.v.v.v.v.x.z.k.z.x.n.2X7X7X3X3X~.i.W C V o @     2 %.:.5.5.5.5.4.L.D.A.v t i i i s g f l s.g.g.,Xg.,X,X<X<X<X<X<X<X",
"j.j.6.k.z.z.z.x.x.z.x.k.j.j.z.x.1X8X9X0XtX0X8X1Xp.e.P V + O - ; < X.*.*.@.*.#.H.S.b j g h g h h f k l s.g.g.,X<X,X,X<X<X<X<X<X<X",
"j.j.j.j.j.j.j.j.j.h.6.h.j.k.w.y.~.{..XrXtXtXqX7Xm.x.e.V N + - ; < < 4 4 X.X._ c Y.j f l l l l l l l s.f.g.,X<X<X<X<X<X<X<X<X<X<X",
"j.j.j.j.h.6.j.h.h.h.h.h.h.j.w.e.Q.(._.@X%XtXyXwX7Xm.p.! D 1 ; ; 2 2 4 5 5 B.B.c d k l l s.f.f.f.f.f.f.g.,X,X<X<X<X<X<X<X<X<X<X<X",
"j.j.j.j.j.h.h.h.h.h.h.h.h.h.m K D ] } K.OXrXyXeXwX7X4XQ.| ^ < : $ % 3 z x c b b j k k s.f.g.:X:X-X-X-X:X<X<X<X<X<X<X<X<X<X<X<X<X",
"j.j.j.j.j.j.j.j.j.j.j.k.k.j.n C Z + 4 ` _.%XtXyXeXqX}.[.-.o.< 2 3 9 8 0 b i b h k k l f.g.:X:X<X:X:X:X:X<X<X<X<X<X<X<X<X<X<X<X<X",
"j.j.j.j.6.j.j.j.z.z.z.z.z.x.e.C A $ , ) L.].$XrXtX%X#X).1.=...5 % 9 0 u s s l l k l s.f.-X:X<X<X<X<X<X<X<X<X<X<X<X<X<X<X<X<X<X<X",
"j.j.j.j.j.j.k.x.x.v.v.n.b.b.y.t.G = * 7 ' F.(.`.`.@XoX5.=.+...5 z 8 u s s l l l s.s.f.-X:X,X<X<X<X<X<X<X<X<X<X<X<X<X<X<X<X<X<X<X",
"j.j.j.j.h.j.l.x.n.2X3X3X6X2X/. X8.t r r 7 ) ) =.;.;.4.;.+.+.X.%.x p s s s l l l =X-X-X:X:X,X<X<X<X<X<X<X<X<X<X<X<X<X<X<X<X<X<X<X",
"j.j.j.h.j.j.z.v.1X8X9X0XqX9X.XXXE.0.t t & , > 1 ^ +.+.@.+.+.X.x v b l l l l l l =X:X:X,X<X,X<X<X<X<X<X<X<X<X<X<X<X<X<X<X<X<X<X<X",
"j.j.j.h.h.j.z.v.1X8X0XyXtXtX&XXXW.W.9.t & O O > < ..X.X.X.X._ V.b b l l l l l -X-X:X<X<X<X<X<X<X<X<X<X<X<X<X<X<X<X<X<X<X<X<X<X<X",
"j.j.j.6.h.j.z.z.n.1X3X9X0XuXiX*X*XW.R.A.5 , ; , 4 6 B.B._ B.A.Y.b =Xd.d.d.d.d.-X:X<X<X<X<X<X<X<X<X<X<X<X<X<X<X<X<X<X<X<X<X<X<X<X",
"j.j.j.j.h.h.j.l.z.v.n.4X9XtXtX*X*XXXXXP.#.4 < 4 6 c A.v b v Y.b T.=X:X:X-X-X-X:X:X<X<X<X<X<X<X<X<X<X<X<X<X<X<X<X<X<X<X<X<X>X<X<X",
"j.j.j.j.j.j.l.l.z.z.x.m.6X0XtXiX*X*X.X_.>.o...' c d j j l l b =X=X-X:X<X:X:X:X:X<X<X<X<X<X<X<X<X<X<X<X<X<X<X<X<X<X<X<X<X<X<X<X<X",
"h.j.l.l.z.z.z.z.z.z.x.n.2X8XqXqX0X9X}.[.-.&.X._ v j k l l l l d.:X,X<X<X<X<X<X<X<X<X<X<X<X<X<X<X<X<X<X<X<X<X<X<X<X<X<X<X<X<X<X<X",
"j.j.l.z.x.v.n.v.n.v.v.m.1X3X2X2X3X4X4X[.2.&.O.B.v g l l l l -Xg.:X,X<X<X<X<X<X<X<X<X<X>X<X<X<X<X<X<X<X<X<X<X<X<X<X<X<X<X<X<X<X<X",
"h.j.z.x.n.1X3X3X6X7X1X1Xn.n.b.b.b.b.c.<.3.{ o._ v b l l d.,X,Xg.,X,X<X<X<X<X<X<X<X<X<X<X<X<X<X<X<X<X<X<X<X<X<X<X<X<X<X<X<X<X<X<X",
"h.j.z.v.1X5X9XyX0X9X8X1Xn.x.z.z.z.z.r.! 3.{ X.B.b b l l d.,X,X<X,X,X<X<X<X<X<X<X<X<X<X<X<X<X<X<X<X<X<X<X<X<X<X<X>X<X<X<X<X<X<X<X",
"h.j.z.x.1X8X9XtXtXtX9X^.p.r.I m U U Y E  .( _ V.b k d.d.,X,X,X<X<X<X<X<X<X<X<X<X<X<X<X<X<X<X<X<X<X<X<X<X<X<X<X<X<X<X<X<X<X<X<X<X",
"j.j.z.x.n.1X8X9XyXtX%X^.t.J V H H K E F  .Z.V.S.b =X=X-Xg.,X<X<X<X<X<X<X<X<X<X<X<X<X<X<X<X<X<X<X<X<X<X>X<X<X<X<X<X<X<X<X<X<X<X<X",
"h.j.z.z.z.v.1X2X9XtX.X]. .N N N B D F  .Z.v b T.T.=X-X-X<X<X<X<X<X<X<X<X<X<X<X<X<X<X<X<X<X<X<X<X<X<X<X<X<X<X<X<X<X:X<X<X<X<X>X<X",
"j.j.j.j.z.z.x.1X8X0X$X'.( + + + / ) ` B.8.b b =X-X-X,X,X<X<X<X<X<X<X<X<X<X<X<X<X<X<X<X<X<X<X<X<X<X<X<X<X<X<X<X<X<X<X<X<X<X<X<X<X",
"j.j.j.j.j.j.z.v.2X8X.X(.} < > < ^ +.#.J.S.b k =X-X,X<X<X<X<X<X<X<X<X<X<X<X<X<X<X<X<X<X<X<X<X<X<X<X<X<X<X<X<X<X<X<X<X<X<X<X<X<X<X",
"j.j.j.h.h.j.j.x.b.1X~.[. .` X.O.*.;.K.J.I.S.b U.,X<X<X<X<X<X<X<X<X<X<X<X<X<X<X<X<X<X<X<X<X<X<X<X<X<X<X<X<X<X<X<X<X<X<X<X<X<X<X<X",
"j.j.j.j.j.h.l.z.x.v.~.!.Q.(._._.oXoXoXK.L.D.Z.Y.W.>X<X<X<X<X<X<X<X<X<X<X<X<X<X<X<X<X<X<X<X<X<X<X<X<X<X<X<X<X:X<X<X<X<X<X<X<X<X<X",
"j.j.j.j.j.j.j.j.l.z.x.u.^.{.$X%XrX$X#X_.:.#.$.D.R.;X<X<X<X<X<X<X<X<X<X<X>X<X<X<X<X<X<X<X<X<X<X<X>X<X<X<X<X<X<X<X<X<X<X<X<X<X<X<X",
"j.j.j.j.j.j.j.j.h.j.z.x.1X6X9X0XqX9XrX[.:.+.#.C.R.;X<X<X<X<X<X<X<X<X<X<X<X<X<X<X<X<X<X<X<X<X<X<X<X<X<X<X<X<X<X<X<X<X<X<X>X<X<X<X",
"j.j.j.j.j.j.j.h.h.h.j.x.b.1X7X7X7X4X4XQ.-.{ @.C.R.;X<X<X<X<X<X<X<X<X<X<X<X<X<X<X<X<X<X<X<X<X<X:X<X<X<X<X<X<X<X<X<X<X<X<X<X<X<X<X",
"j.j.j.l.j.j.j.h.6.j.j.z.x.b.v.b.M.b.c.<.3.{ O.H.R.;X<X<X<X<X<X<X<X<X<X<X<X<X<X<X<X<X<X<X<X<X<X<X<X<X<X<X<X<X<X<X<X<X<X<X<X<X<X<X",
"j.j.j.j.j.j.j.j.h.j.j.j.z.z.z.z.z.x.r.! [ { #.J.R.;X<X<X<X<X<X<X<X<X<X<X<X<X<X<X<X<X<X<X<X<X<X<X<X<X<X<X<X>X<X<X<X<X<X<X<X<X<X<X",
"j.j.j.j.j.j.j.l.k.z.z.x.z.z.z.z.w.w.Y R [ ` $.I.E.;X<X<X<X<X<X<X<X<X<X<X<X<X<X<X<X<X<X<X<X<X<X<X<X<X<X<X<X<X<X<X<X<X<X<X<X<X<X<X",
"j.j.j.j.j.j.l.z.x.v.v.n.n.v.v.r.e.L R ! F.F.G.R.W.>X<X<X<X<X<X<X<X>X<X<X<X<X<X<X<X<X>X<X<X<X<X<X<X<X<X<X<X<X<X<X>X<X<X<X<X<X<X<X",
"j.j.j.h.h.l.z.x.n.2X6X6X6X2X~.!.<.S  . .G.R.E.W.;X<X<X<X<X<X<X<X<X<X<X<X<X<X<X<X<X<X<X<X<X<X>X<X<X<X<X<X<X<X<X<X<X<X<X<X<X<X<X<X",
"j.j.j.j.j.j.z.x.1X8X9X0XqX9X}.[.2.&.` F.G.W.;X>X<X<X<X<X<X<X<X<X<X<X<X<X<X:X<X<X<X<X<X<X<X<X<X<X<X<X<X<X<X<X<X<X<X<X<X<X<X<X<X<X",
"j.j.j.h.h.j.z.v.1X8X0X0XuXtXrX|.5.>.>.J.G.W.;X>X<X<X<X<X<X<X<X<X<X<X<X<X<X<X<X<X<X<X<X<X<X<X<X<X<X<X<X<X>X<X<X<X<X<X<X<X<X<X<X<X",
"j.j.j.j.6.j.z.x.n.1X6X9XqXtXrX#XoXoXK.L.G.R.E.W.;X:X<X<X<X<X<X<X<X<X<X<X<X<X<X<X<X<X<X<X<X<X<X<X<X<X<X<X<X<X<X<X<X<X<X<X<X<X<X<X",
"j.j.j.j.j.j.l.z.x.v.n.3X9XtXtXrX#X@X]._.K.I.I.R.W.;X<X<X<X<X<X<X<X<X<X<X<X<X<X<X<X<X<X<X<X<X<X<X<X<X<X<X<X<X<X<X<X<X<X<X>X<X<X<X",
"j.j.j.j.j.j.j.j.j.z.v.n.3X0XtXtXtXrX#XoXK.>.$.I.E.;X<X<X<X<X<X<X<X>X<X<X<X<X<X<X<X<X<X>X<X<X<X<X<X<X<X<X<X<X<X<X<X<X<X<X<X<X<X<X",
"j.j.j.j.j.j.j.h.j.j.z.n.3X9XtXuXuXuX$X+X1.*.O.J.E.;X<X<X<X<X<X<X<X<X<X<X<X<X<X<X<X<X<X<X<X<X<X<X<X>X<X<X<X<X<X<X<X<X<X<X<X<X<X<X",
"j.l.j.j.j.j.j.h.h.h.l.v.4X9XuXuXuXuXrX+X1.+.X.J.R.;X<X<X<X<X<X<X<X<X<X<X<X<X<X<X<X<X<X<X<X<X<X<X<X<X<X<X<X<X<X<X:X<X<X<X<X<X<X<X"
};
