/* XPM */
static char *path_07[] = {
/* columns rows colors chars-per-pixel */
"64 64 234 2 ",
"   c #7C693D",
".  c #76793A",
"X  c #6C7A48",
"o  c #747946",
"O  c #945A36",
"+  c #8A5737",
"@  c #A35E34",
"#  c #887B2C",
"$  c #97752C",
"%  c #866739",
"&  c #976836",
"*  c #8C6C2E",
"=  c #AD6C35",
"-  c #A66736",
";  c #B76C35",
":  c #AA7636",
">  c #BC7637",
",  c #B97638",
"<  c #B47E3D",
"1  c #BC7D3C",
"2  c #B87B37",
"3  c #C17E3A",
"4  c #C27937",
"5  c #876841",
"6  c #987B43",
"7  c #807C4D",
"8  c #B07E41",
"9  c #778A34",
"0  c #729C3C",
"q  c #739D32",
"w  c #74AD2E",
"e  c #79AD2E",
"r  c #7AA429",
"t  c #7BB527",
"y  c #7EBB21",
"u  c #7BB32A",
"i  c #6FA23B",
"p  c #75AB32",
"a  c #7AAB35",
"s  c #70A23B",
"d  c #79A736",
"f  c #7DB337",
"g  c #5F8754",
"h  c #658F4F",
"j  c #6A8948",
"k  c #7A884A",
"l  c #6A9747",
"z  c #6B9C42",
"x  c #65904E",
"c  c #6C9B49",
"v  c #709846",
"b  c #638553",
"n  c #6D8754",
"m  c #638B54",
"M  c #6D8A54",
"N  c #748B54",
"B  c #7C8B51",
"V  c #649052",
"C  c #6B9354",
"Z  c #6F9A51",
"A  c #6A9159",
"S  c #66925A",
"D  c #789255",
"F  c #7D9E56",
"G  c #7A9E5C",
"H  c #769B56",
"J  c #75A345",
"K  c #7BA947",
"L  c #7EA457",
"P  c #7B9F61",
"I  c #77A060",
"U  c #86B51F",
"Y  c #83BE1D",
"T  c #8BBB1E",
"R  c #8DB71E",
"E  c #91B11F",
"W  c #8B852B",
"Q  c #899626",
"!  c #9A9A2B",
"~  c #8D8B3F",
"^  c #9C843E",
"/  c #978B36",
"(  c #99963A",
")  c #93902E",
"_  c #AA8B2E",
"`  c #AC942D",
"'  c #A59A2C",
"]  c #A3962E",
"[  c #AF8D31",
"{  c #AB8639",
"}  c #A78532",
"|  c #B68435",
" . c #B5803E",
".. c #BB853D",
"X. c #B58A36",
"o. c #A49331",
"O. c #A99732",
"+. c #B69738",
"@. c #8CA42D",
"#. c #8BAB23",
"$. c #9CA525",
"%. c #95AD22",
"&. c #98AB25",
"*. c #9BA42A",
"=. c #9BAB2A",
"-. c #95A62B",
";. c #85B424",
":. c #81BB22",
">. c #8BBC21",
",. c #85BB2C",
"<. c #8CB428",
"1. c #94B123",
"2. c #92BA29",
"3. c #93B728",
"4. c #96A839",
"5. c #8CBC3A",
"6. c #9BB332",
"7. c #93BC34",
"8. c #97BB39",
"9. c #85A43D",
"0. c #A6A72B",
"q. c #A5AA36",
"w. c #A5A435",
"e. c #B8A739",
"r. c #A5B537",
"t. c #C4833C",
"y. c #C8853D",
"u. c #C5893D",
"i. c #CB8B3E",
"p. c #C7983E",
"a. c #83C217",
"s. c #85C21B",
"d. c #86C61B",
"f. c #87C320",
"g. c #8AC324",
"h. c #8EC42C",
"j. c #90C42D",
"k. c #92C434",
"l. c #95C53A",
"z. c #99C53D",
"x. c #96C83C",
"c. c #96C637",
"v. c #8C8449",
"b. c #848A4E",
"n. c #8C8B4C",
"m. c #868447",
"M. c #9A8345",
"N. c #918D4D",
"B. c #9E8D4B",
"V. c #9A8446",
"C. c #93904E",
"Z. c #9B9E48",
"A. c #858C51",
"S. c #888C51",
"D. c #8D8750",
"F. c #8F9452",
"G. c #839C59",
"H. c #989852",
"J. c #889B4A",
"K. c #A38344",
"L. c #A98946",
"P. c #B38643",
"I. c #BC8B42",
"U. c #BA8742",
"Y. c #A5924C",
"T. c #AB934A",
"R. c #A7974A",
"E. c #B59344",
"W. c #BB9345",
"Q. c #B59549",
"!. c #B79A49",
"~. c #A39D54",
"^. c #A59954",
"/. c #87AE4D",
"(. c #87B54B",
"). c #97BC49",
"_. c #8CAE5A",
"`. c #83A657",
"'. c #96A85C",
"]. c #93B35E",
"[. c #9EBE5A",
"{. c #98BD58",
"}. c #91AD49",
"|. c #ADAB4A",
" X c #B6A84C",
".X c #A4B947",
"XX c #ACA755",
"oX c #A8AB5D",
"OX c #A5A558",
"+X c #B5AC56",
"@X c #A9BD56",
"#X c #AABA5F",
"$X c #A6B65A",
"%X c #B7B559",
"&X c #8FAF61",
"*X c #8DB163",
"=X c #94B463",
"-X c #91AE63",
";X c #A2BF63",
":X c #ABBD64",
">X c #A6B562",
",X c #C48C41",
"<X c #CC8E40",
"1X c #C39646",
"2X c #CD9442",
"3X c #C69A45",
"4X c #CC9A45",
"5X c #CB9F49",
"6X c #D19643",
"7X c #D19944",
"8X c #D89A43",
"9X c #C2A951",
"0X c #C1AA4C",
"qX c #9BC544",
"wX c #9EC54C",
"eX c #9EC94B",
"rX c #9CC945",
"tX c #9CC752",
"yX c #A1C64E",
"uX c #A0C84D",
"iX c #A1C246",
"pX c #A2C652",
"aX c #A5CA57",
"sX c #A7C65B",
"dX c #A9C65E",
"fX c #A6C95B",
"gX c #AACB5F",
"hX c #A8CD57",
"jX c #A3C364",
"kX c #ABC663",
"lX c #ABC962",
"zX c #ADC969",
"xX c #AEC769",
"cX c #B2C161",
/* pixels */
"s.s.s.s.s.s.a.Y a.s.s.d.s.d.d.a.d.a.y w z x N S.Y.1X4X7X8X7X7X7X7X7X7X7X7X7X7X7X7X7X7X7X7X7X7X7X7X7X7X7X7X7X7X7X7X7X7X7X7X7X7X7X",
"s.s.s.s.s.s.s.s.s.s.s.s.s.s.d.d.d.s.y w z V M S.Y.1X7X8X7X7X7X7X7X7X7X7X7X7X7X7X7X7X7X7X7X7X7X7X7X4X7X7X7X7X7X7X7X7X7X7X7X7X7X4X",
"s.s.s.f.g.g.g.f.s.s.s.Y T T T T R R ;.d z h N S.Y.1X7X7X7X7X7X7X7X7X7X7X7X7X7X7X7X7X4X7X7X7X7X7X7X7X7X7X7X4X7X7X7X7X7X7X7X7X7X7X",
"s.s.f.g.h.k.k.h.g.f.T R %.%.$.$.$.*.-.d c h M S.Y.1X7X8X8X7X7X7X7X7X7X7X7X7X7X7X7X7X7X7X7X7X7X7X7X7X7X7X7X7X7X7X7X7X7X7X7X7X7X7X",
"s.s.f.j.z.qXqXl.h.f.T 1.$.' ` ` ` ` / ~ k m M A.Y.1X7X8X7X7X7X7X7X7X7X6X7X7X7X7X7X7X7X7X7X7X7X7X7X7X7X7X7X2X7X7X7X7X2X7X7X7X7X7X",
"a.s.g.k.qXpXtXqXk.f.R %.! [ | | | | { ^ k M N S.Y.1X7X7X8X7X7X7X7X7X7X7X7X7X7X7X7X7X7X7X7X7X7X7X7X7X7X7X7X7X7X7X7X7X7X7X7X7X7X7X",
"a.s.f.k.qXpXpXqXk.g.>.=.w.X.......| { / m.k B n.T.1X7X7X7X7X7X7X7X7X7X7X7X7X7X7X7X7X7X7X7X7X7X4X7X7X7X7X7X7X7X7X7X7X7X7X7X7X7X7X",
"Y s.f.j.z.qXqXz.h.g.>.1.w.E.W.+.+.[ ` / v.m.n.K.Q.1X7X7X7X7X7X7X7X7X7X7X4X7X7X7X7X7X7X7X7X7X7X7X7X7X7X7X7X7X7X7X7X7X7X7X7X7X7X7X",
"s.s.f.g.j.k.k.h.g.f.g.7..X|.XX|.q.=.*.! / ^ K.P.I.4X7X7X7X7X7X7X7X7X7X7X7X7X7X7X7X7X7X7X7X7X7X7X7X7X7X7X7X7X7X7X7X7X7X7X7X7X7X7X",
"s.s.Y f.g.g.g.s.s.d.>.k..X@X@X.X8.<.%.-.o.{ < ..,X4X7X8X7X7X7X7X7X7X7X7X7X7X7X7X7X7X7X7X7X7X7X7X7X7X7X7X7X7X7X7X7X7X7X4X7X7X7X7X",
"s.s.s.s.s.s.a.a.s.s.g.l.wXsXsXyXqXh.2.-.o.{  .,X,X2X7X7X7X7X7X7X4X7X7X7X7X7X7X7X7X4X7X7X7X7X7X7X7X7X7X7X7X7X7X7X7X7X7X7X7X7X7X7X",
"s.s.s.s.s.s.a.a.s.s.g.l.wXfXlXaXeXx.k.4.( M.K.P.,X4X7X7X8X7X7X7X7X7X7X7X7X7X7X6X7X7X7X7X7X7X7X7X7X7X7X4X7X7X7X7X7X7X7X7X7X7X7X7X",
"s.s.s.s.s.a.s.Y s.s.g.l.wXfXzXlXaXyX).}.J.n.n.K.Q.1X7X8X7X7X7X7X7X7X7X7X7X7X7X4X7X7X7X7X7X7X7X7X7X7X7X7X2X7X7X7X7X7X7X7X7X7X7X7X",
"s.s.s.s.s.s.s.a.s.s.g.k.wXfXlXlXgXsX@X_.F N B N.T.1X7X6X7X7X7X7X7X7X7X7X7X7X7X7X7X7X7X7X7X7X2X7X7X7X7X7X7X7X7X7X7X7X7X7X7X7X7X7X",
"Y s.s.s.s.s.s.s.s.s.g.k.qXpXsXlXlXzX=X*XL A M b.Y.W.2X6X6X7X7X7X7X7X7X7X7X7X7X7X7X7X7X7X7X7X7X7X7X7X7X7X7X7X7X7X7X7X7X7X7X7X7X7X",
"s.s.s.s.s.s.s.s.a.s.s.h.k.qXwXsXgXzXjX*XI S n b.V.I.<X6X6X7X7X7X7X7X7X7X7X7X7X7X7X7X7X7X7X7X7X7X7X7X7X7X7X7X7X7X7X7X7X7X7X7X4X7X",
"s.s.s.s.s.s.s.s.s.s.s.f.h.k.z.uXaXkXjX*XI S n k M. .u.i.6X6X7X7X7X7X4X7X7X7X7X7X7X7X7X7X7X7X7X7X4X7X7X7X7X7X7X7X7X7X7X7X7X7X7X4X",
"s.s.s.s.s.s.s.s.s.s.s.s.s.g.j.z.yXsX;X-XI A n m.M.< t.i.i.2X7X7X7X7X7X7X7X7X7X7X7X4X7X7X7X7X7X7X7X7X7X7X7X7X7X7X7X7X7X7X7X7X7X7X",
"s.s.s.s.s.s.s.f.f.g.f.f.s.s.g.l.iXsX>X'.G.N N 7 6 ..t.i.6X6X7X7X7X7X7X7X7X7X7X7X7X7X7X7X7X7X7X7X7X7X7X7X7X7X7X7X7X7X7X7X7X7X7X7X",
"s.s.s.s.s.s.f.g.h.k.k.h.g.s.>.2.r.|.XX~.C.v.v.M.L...t.i.<X6X7X7X7X7X7X7X7X7X7X7X7X7X7X7X7X7X7X7X7X7X7X7X4X7X7X7X7X7X7X7X7X7X7X7X",
"s.s.s.s.s.d.d.j.l.qXqXk.h.s.R 3.q.E.Q.Q.L.K.K.P.P.u.2X2X7X2X7X7X7X7X7X7X7X7X7X7X7X7X7X7X7X7X7X7X7X7X7X2X7X7X7X7X7X7X7X7X7X7X7X7X",
"s.s.s.d.s.s.g.c.qXpXpXqXk.g.>.&.' X.U.8 8 < < U.,X<X2X6X7X7X7X7X7X7X7X7X7X7X7X7X7X7X7X7X7X7X7X7X7X7X7X7X7X7X7X7X7X7X7X4X7X7X7X7X",
"s.s.s.y s.y ,.8.wXsXfXpXx.j.3.*.o.| , > > 4 1 t.i.2X2X7X7X7X7X7X7X7X7X7X7X4X7X7X7X7X7X7X7X7X7X7X7X7X7X7X7X7X7X7X7X7X7X7X7X7X7X7X",
"s.s.Y y u u 9.(.{.kXlXhXuXz.8.*.} : = ; ; 4 4 3 y.i.<X<X6X7X8X7X7X7X7X7X7X7X7X7X7X7X7X7X7X7X7X7X7X7X7X7X7X7X7X7X7X7X7X7X7X7X7X7X",
"a.s.:.t p 0 J `.].jXlXgXhXuX.XZ.^ & - @ = > 4 3 3 y.y.i.2X6X6X8X7X7X7X7X7X7X7X7X7X7X7X7X7X7X7X7X7X7X7X7X7X7X7X7X7X7X7X7X7X2X7X7X",
"a.s.:.u s l Z L ].jXlXlXlXkX$XZ.6 & @ @ = , 4 4 3 3 t.u.<X2X7X7X7X7X7X7X7X7X7X7X7X7X7X7X7X7X7X7X7X7X7X7X7X7X7X7X7X7X7X7X7X7X7X7X",
"s.s.:.e s l Z H _.=X;XjXjX;X$XB.6 O O O - P...u.,XU.I.I.1X1X1X3X4X7X7X7X7X7X7X7X7X7X7X7X7X7X7X7X7X7X7X7X7X7X7X7X7X7X7X7X7X7X7X7X",
"d.s.:.t p s z L `._.-X=X=X-XG.D.5 + O @ 8 P.Q.!.Q.Q.Q.Q.T.T.T.Q.W.7X7X7X7X7X7X7X7X7X7X7X7X7X7X7X7X7X7X7X7X7X7X7X7X7X7X7X7X7X7X7X",
"d.s.Y :.t e d K L F G I I P D 7 5 + O 5 P.^.+X+X+X+XXXOXH.S.C.Y.Q.4X7X7X7X7X7X7X7X7X7X7X7X7X7X7X7X7X7X7X7X7X7X7X7X7X7X7X7X7X7X7X",
"s.s.s.s.Y :.t a J C C S A A N o   + O 6 Y.+X#XkXcX:X>X_.G.D B N.T.1X7X7X7X7X7X7X7X7X4X7X7X7X7X7X7X7X7X7X4X7X7X7X7X7X7X7X7X7X7X7X",
"s.s.s.s.s.s.:.e i l h g m x j o o % 6 6 ~.:XzXlXgXsX[._.H A M S.Y.1X7X8X7X7X7X7X7X7X7X7X7X7X7X7X7X7X7X7X7X7X7X7X7X7X7X7X7X7X7X4X",
"s.s.s.d.d.s.Y t w i 0 z z 0 l k 5 6 V.^.oX:XzXgXhXyX)./.J S M A.Y.1X7X8X8X7X7X7X2X4X7X7X7X7X7X7X7X7X7X7X7X7X7X7X7X7X7X7X7X7X7X7X",
"s.s.s.s.s.s.s.:.t e p w p p a 9.Z.Z.OXoX:XkXdXhXeXx.k.K c m M S.T.1X7X8X8X7X7X7X7X7X7X7X7X7X7X7X7X7X7X7X7X7X7X7X7X7X7X7X7X7X7X7X",
"s.s.s.s.s.s.s.Y :.:.y U y :.,.7.).$X>X:X:XkXsXuXx.h.f p z A M S.Y.1X7X7X7X7X7X7X7X7X7X7X7X7X7X7X4X7X7X7X7X7X7X7X7X7X7X7X7X7X7X7X",
"s.s.s.s.s.s.s.s.s.s.s.a.Y s.g.c.qXtXsXsXkXsXyXrXj.g.y w z x M A.B.Q.1X7X7X7X7X7X7X7X7X7X7X7X7X7X7X7X7X7X7X7X7X7X7X7X7X7X7X7X7X7X",
"s.s.s.s.s.s.s.s.s.s.d.d.a.a.f.j.l.qXeXyXyXuXqXc.h.f.y w z x b N S.B.Y.Q.1X7X7X6X7X8X7X8X7X7X7X7X7X7X7X7X7X7X7X7X7X7X7X4X7X7X7X7X",
"s.s.s.s.s.s.s.s.s.d.d.a.a.s.d.g.h.k.c.x.c.l.k.j.d.d.y w z h n n N A.D.Y.Q.2X7X6X8X8X7X7X7X7X7X7X7X7X7X7X7X7X7X7X7X7X7X7X7X7X7X7X",
"s.s.s.s.s.s.s.s.s.s.s.s.s.s.s.s.g.g.g.g.g.g.f.f.d.d.y f z h m b b N B C.T.1X7X8X7X4X7X7X7X7X7X7X7X7X7X7X7X7X7X7X7X7X7X7X7X7X7X7X",
"s.s.s.s.s.s.s.s.s.s.s.s.s.s.s.s.s.s.s.s.s.s.s.s.T R ;.a 0 l x S S A D F.^.1X5X4X5X1X1X1X3X7X7X7X7X7X7X7X7X7X7X7X7X7X7X7X7X7X7X7X",
"s.s.T d.s.s.s.s.s.s.a.a.s.a.s.s.a.s.a.d.a.a.T T 1.&.-.@.d 0 z c Z H G.'.XX+X9X X!.R.T.Q.1X2X7X8X7X7X7X7X7X7X7X7X7X7X7X7X7X7X7X7X",
"s.s.s.s.s.s.s.s.s.s.a.s.a.a.s.s.s.s.a.a.a.Y Y 1.0.] ] ! @.r a f /._.=X=X>X%X%XXXH.F.C.Y.Q.1X6X8X8X7X7X7X8X7X7X7X6X8X7X7X7X7X6X7X",
"s.s.s.s.s.s.s.s.s.Y s.s.s.s.s.s.s.s.s.s.a.d.T &.' [ [ ] -.;.,.5.).=XjXkXkXcX>X'.`.D A.S.T.1X7X7X7X7X7X7X7X7X7X7X7X7X7X7X7X7X7X7X",
"s.s.s.s.s.s.f.f.f.f.g.g.g.g.g.>.s.s.s.d.s.s.T &.' [ [ ` =.2.j.l.uXdXkXlXlXsXtX_.F N B n.L.1X2X6X6X2X2X7X6X2X4Xp.4X4X3X5X5X5X7X5X",
"s.s.s.s.Y s.s.g.h.k.l.l.l.l.k.j.g.f.s.s.d.s.T %.*.' ' w.6.8.z.uXhXlXlXgXhXtX).}.J.b.v.V.L.,X<Xi.<X<X<X<X<X<Xu.p.+.e.e.e. X0X9X9X",
"s.s.s.s.a.s.s.j.l.qXwXwXyXyXqXl.j.f.s.s.s.s.Y R E &.=.6.8.iXyXfXdXlXlXaXeXx.l.4.( M.6 8 8 y.y.y.y.y.u.y.y.y.u.+.0.0.r.r.r.0XcX9X",
"s.s.s.s.s.s.f.k.qXpXsXsXdXdXpXqXk.g.s.a.a.s.Y Y T T 2.7.iXpXsXkXzXcXsXwXx.h.<.-.( { < < 1 1 t.3 t.1 3 3 3 3 | ` 0.1.2.8.yXcXcXlX",
"s.s.s.s.:.g.j.z.yXsXkXkXkXdXpXqXk.f.s.a.s.s.a.s.s.s.g.k.rXpXsXsXdXsXpXqX7.<.#.*.] X.U.....| | 2 2 2 , , 2 | [ ' =.2.j.x.uXgXlXxX",
"s.s.s.g.j.k.z.yXsXkXkXkXsXyXqXl.j.s.s.a.a.a.a.a.s.s.f.j.l.qXwXpXuXwX).6.@.Q Q ! O.E.!.+.+.` _ _ : = = : } ` ' 0.6.c.x.rXaXlXzXxX",
"s.s.f.j.l.qXpXsXkXkXkXsXwXz.k.h.g.s.s.Y a.s.s.s.a.s.s.g.h.k.l.x.l.l.7.@.W W # M.T.|.|.|.q.0.! ) $ @ - $ _ ! %.6.8.qXyXaXfXzXzXzX",
"s.s.f.k.qXpXsXkXkXkXsXpXx.h.g.f.s.s.s.s.s.s.s.s.s.s.s.f.f.f.g.g.g.g.:.Q W * & 6 Y.oX@XwXk.E E Q $ * * $ Q #.<.k.iXyXsXkXkXkXkXlX",
"a.s.g.k.qXpXsXsXsXsXpXqXk.g.Y s.s.g.g.g.g.g.g.f.f.s.s.s.s.s.s.d.d.d.U Q W & 6 6 ~.#XsXeXl.,.r Q . * + # Q U g.c.uXsXkXkXkXsXsXsX",
"a.Y f.j.l.qXyXyXyXwXqXk.h.f.s.f.h.k.l.l.l.k.k.k.g.f.s.s.a.s.a.a.a.s.U @.) M.6 ^.oX;XlXeX(.f i 9 .     9 r :.f.c.uXsXlXdXsXwXwXqX",
"s.s.s.h.h.k.l.l.l.l.j.h.f.s.f.h.c.qXwXwXpXwXqXz.h.g.s.a.s.a.a.a.a.s.:.<.4.Z.^.oX:X:XjX{./.J 0 0 . X X 9 r y g.x.yXsXkXsXwXx.l.k.",
"s.s.s.s.f.g.g.g.g.g.g.s.T s.g.k.qXpXsXsXsXsXpXqXk.g.s.a.s.s.s.s.a.d.g.7.).@X$X:XkXkX;X=XL Z g g g X j 0 r :.g.c.uXsXsXyXl.h.g.f.",
"s.s.s.T s.s.s.s.Y s.s.s.s.s.g.l.wXsXkXkXkXsXpXqXk.g.s.Y s.s.s.a.s.s.g.l.uXsXkXkXkXsX[._.F A g g g g l i u :.g.k.qXpXpXqXk.g.Y s.",
"s.s.s.s.s.s.s.a.a.s.s.a.a.s.g.l.wXkXkXkXsXpXqXl.h.f.s.s.a.s.s.s.s.s.g.l.uXdXzXgXhXtX)./.H S g m x i i w t y f.h.c.qXqXl.h.s.a.a.",
"s.s.s.s.s.Y s.s.s.a.a.a.a.s.g.l.yXsXkXsXwXqXk.j.g.s.s.s.s.s.s.s.a.s.g.x.pXdXlXhXuXz.5.K v A m x z d w ;.:.:.f.g.j.k.k.j.f.s.s.s.",
"s.s.s.s.s.s.s.s.s.s.s.a.a.s.g.l.wXsXsXpXx.h.g.s.f.s.s.s.s.s.s.s.s.s.>.l.wXsXsXuXz.j.,.a z x x l s u :.s.s.s.s.s.f.f.f.f.>.s.s.s.",
"s.s.s.s.s.s.s.s.s.s.s.Y s.s.g.k.qXpXpXqXk.g.Y s.s.s.s.s.s.s.s.s.a.s.f.k.qXpXpXrXk.f.:.e s l l s u y s.s.s.s.s.s.s.s.s.s.s.s.s.s.",
"s.s.s.s.s.s.s.s.s.s.s.s.s.Y f.j.l.qXqXl.h.f.s.a.s.s.s.s.s.s.s.s.s.s.f.h.l.qXqXl.h.f.Y u p s s p u f.s.d.d.s.s.s.s.s.s.s.s.s.s.s.",
"s.s.s.s.s.s.s.s.s.s.s.s.s.s.s.g.j.k.k.h.g.s.s.s.s.s.s.s.s.s.s.s.s.s.f.g.h.k.k.h.g.s.:.:.t u u t y s.s.d.s.s.s.s.Y s.s.s.s.s.s.s.",
"s.s.s.s.s.s.f.s.s.s.s.s.s.s.s.f.f.f.f.>.s.s.s.s.s.Y s.s.>.s.s.s.s.s.s.s.f.g.g.s.s.s.s.s.:.:.:.:.f.s.s.s.s.s.s.s.s.s.s.s.s.s.s.s.",
"s.s.Y s.s.s.s.s.s.s.s.s.s.s.s.T s.s.s.s.s.s.s.s.s.s.s.s.s.s.s.s.s.s.s.s.s.s.s.s.s.s.s.s.s.s.s.s.s.s.s.s.s.s.s.s.s.s.s.s.s.s.s.s.",
"s.s.s.s.s.s.s.s.s.s.s.s.s.s.s.s.s.a.a.Y s.s.s.s.s.s.s.s.s.s.s.s.s.s.s.a.Y a.a.s.s.s.s.s.d.d.s.s.s.s.s.s.s.s.s.s.s.s.s.s.s.s.s.s."
};
