/* XPM */
static char *path_08[] = {
/* columns rows colors chars-per-pixel */
"64 64 219 2 ",
"   c #587739",
".  c #756F3E",
"X  c #627F37",
"o  c #787835",
"O  c #577846",
"+  c #6D7F40",
"@  c #7E7744",
"#  c #995A34",
"$  c #A25F34",
"%  c #936E3E",
"&  c #986339",
"*  c #947638",
"=  c #A96936",
"-  c #B36B35",
";  c #AA793B",
":  c #BA7638",
">  c #B37E3C",
",  c #BD7B3A",
"<  c #B87737",
"1  c #C27638",
"2  c #C17E3A",
"3  c #997943",
"4  c #A97F40",
"5  c #A77A42",
"6  c #5D8A2E",
"7  c #5C8230",
"8  c #64872F",
"9  c #6C9A27",
"0  c #6A9C2D",
"q  c #63962D",
"w  c #78952B",
"e  c #638D34",
"r  c #6B9C3C",
"t  c #72993B",
"y  c #789A3C",
"u  c #71A42B",
"i  c #75AD2E",
"p  c #7BAC2B",
"a  c #7CB425",
"s  c #7EBA22",
"d  c #7BB22B",
"f  c #6FA03B",
"g  c #74A933",
"h  c #7AAC32",
"j  c #71A23B",
"k  c #73A636",
"l  c #7CB133",
"z  c #5E8B54",
"x  c #5B8354",
"c  c #638F4F",
"v  c #6B894A",
"b  c #7C8447",
"n  c #708D4B",
"m  c #708048",
"M  c #699747",
"N  c #6A9B42",
"B  c #64914D",
"V  c #6D9A4D",
"C  c #7A9140",
"Z  c #739746",
"A  c #628C54",
"S  c #6C8B55",
"D  c #678E58",
"F  c #748D54",
"G  c #7A8950",
"H  c #6F9850",
"J  c #6A9159",
"K  c #679057",
"L  c #749859",
"P  c #7B9C5C",
"I  c #759756",
"U  c #74A342",
"Y  c #7DAC43",
"T  c #7FA45B",
"R  c #7BA353",
"E  c #799D60",
"W  c #82BE1E",
"Q  c #90BD1E",
"!  c #888B39",
"~  c #998438",
"^  c #979530",
"/  c #8D9729",
"(  c #A48F2E",
")  c #A7982D",
"_  c #A68737",
"`  c #B68435",
"'  c #B5813E",
"]  c #BD843C",
"[  c #B68935",
"{  c #AB9530",
"}  c #B59738",
"|  c #88A925",
" . c #9CAC2B",
".. c #98A725",
"X. c #82BC23",
"o. c #86B729",
"O. c #90BB24",
"+. c #92BB29",
"@. c #9AB525",
"#. c #82AC3A",
"$. c #81B532",
"%. c #8ABD34",
"&. c #8ABB38",
"*. c #9ABA34",
"=. c #97A536",
"-. c #A1A82B",
";. c #A0B228",
":. c #B5A638",
">. c #A8B636",
",. c #A7AD35",
"<. c #C5843D",
"1. c #C8843C",
"2. c #C6893E",
"3. c #CB8C3F",
"4. c #C5993D",
"5. c #C7A03E",
"6. c #83C217",
"7. c #85C21B",
"8. c #88C41D",
"9. c #87C121",
"0. c #8AC324",
"q. c #8EC32C",
"w. c #90C42D",
"e. c #8FC135",
"r. c #8FC835",
"t. c #93C435",
"y. c #9BC136",
"u. c #95C935",
"i. c #95C43A",
"p. c #99C63D",
"a. c #848945",
"s. c #8B844A",
"d. c #88884D",
"f. c #958345",
"g. c #9C8243",
"h. c #98894C",
"j. c #959748",
"k. c #898D50",
"l. c #868C52",
"z. c #938E50",
"x. c #859353",
"c. c #899857",
"v. c #979B53",
"b. c #8C934A",
"n. c #AB8D48",
"m. c #A58645",
"M. c #B98A44",
"N. c #A6924C",
"B. c #AC944B",
"V. c #AC9B42",
"C. c #B59246",
"Z. c #B4974A",
"A. c #A29853",
"S. c #83A94F",
"D. c #8BB646",
"F. c #8BBB46",
"G. c #96BF4B",
"H. c #94BD46",
"J. c #84A45B",
"K. c #8CAB5C",
"L. c #87AA54",
"P. c #9AAE5C",
"I. c #97A85E",
"U. c #8DB156",
"Y. c #8EB158",
"T. c #93B852",
"R. c #9EBE5A",
"E. c #94B55B",
"W. c #AEAC48",
"Q. c #BCA54F",
"!. c #BFAC47",
"~. c #A6A758",
"^. c #A7B95F",
"/. c #A8B85F",
"(. c #A9B65A",
"). c #B2B158",
"_. c #B6B552",
"`. c #AFB64C",
"'. c #8CAD62",
"]. c #83A361",
"[. c #90AF63",
"{. c #8EB061",
"}. c #93B362",
"|. c #9DBC64",
" X c #9BB964",
".X c #A2BE63",
"XX c #AABB63",
"oX c #C58E42",
"OX c #CB8D40",
"+X c #C39646",
"@X c #CE9442",
"#X c #C49A44",
"$X c #C99D44",
"%X c #CA9D48",
"&X c #C69B48",
"*X c #D19643",
"=X c #D19944",
"-X c #C5A348",
";X c #96C145",
":X c #9CC544",
">X c #9DC54B",
",X c #9EC94A",
"<X c #9AC445",
"1X c #9AC255",
"2X c #A1C64C",
"3X c #A1C94B",
"4X c #A2C652",
"5X c #A6C956",
"6X c #A6C65B",
"7X c #A8C75D",
"8X c #A7C95B",
"9X c #AAC95D",
"0X c #AAC757",
"qX c #A4C264",
"wX c #ABC565",
"eX c #ACC963",
"rX c #ADC769",
"tX c #A4C169",
"yX c #B0C76C",
/* pixels */
"=X=X=X=X=X=X=X=X=X=X=X=X=X=X=X=X=X=X=X=X=X=X=X=X=X=X=X=X=X=X=X=X=X=X=X=X=X=X=X=X=X=X=X=X=X=X=X=X=X=X=X=X=X=X=X=X=X=X=X=X=X=X=X=X",
"=X=X=X=X=X=X=X=X=X=X=X=X=X=X=X=X=X=X=X=X=X=X=X=X=X=X=X=X=X=X=X=X=X=X=X=X@X=X=X=X=X=X=X=X=X=X=X=X=X=X=X=X=X=X=X=X=X=X=X=X=X=X=X=X",
"=X=X=X=X=X=X=X=X=X=X=X=X=X=X=X=X=X=X=X=X=X=X=X=X=X=X=X=X=X=X=X=X=X=X=X=X=X=X=X=X=X=X=X=X=X=X=X=X=X=X=X=X=X=X=X=X=X=X=X=X=X=X=X=X",
"=X=X=X=X=X=X=X=X=X=X=X=X=X=X=X=X=X=X=X=X=X=X=X=X=X=X=X=X=X=X=X=X=X=X=X=X=X=X=X=X=X=X=X=X=X=X@X=X=X=X=X=X=X=X=X=X=X=X=X=X=X=X=X=X",
"=X=X=X=X=X=X=X@X=X=X=X=X=X=X@X=X=X=X=X=X=X=X=X=X=X=X=X=X=X=X=X=X=X=X=X=X=X=X=X=X=X=X=X=X=X=X=X=X=X=X=X=X=X=X%X=X=X=X=X=X=X=X=X=X",
"=X=X=X=X=X=X=X=X=X=X=X=X=X=X=X=X=X=X=X=X=X=X=X=X=X=X=X=X=X=X=X=X=X=X=X=X=X=X=X=X=X=X=X=X=X=X=X=X=X=X=X=X=X=X=X=X=X=X=X=X=X=X=X=X",
"=X=X=X=X=X=X=X=X=X=X=X=X=X=X=X=X=X=X=X=X=X=X=X=X=X=X=X=X=X=X=X=X=X=X=X=X=X=X=X=X=X=X=X=X=X=X=X@X=X=X=X=X=X=X=X=X=X=X=X=X=X=X=X=X",
"=X=X=X=X=X=X=X=X=X=X=X=X=X=X=X=X=X$X=X=X=X=X=X=X=X=X=X=X=X=X=X=X=X=X=X=X=X=X=X=X=X=X=X=X=X=X=X=X=X=X=X=X=X=X=X=X=X=X=X=X=X=X=X=X",
"=X=X=X=X=X=X=X=X=X=X=X=X=X=X=X=X=X=X=X=X=X=X=X=X=X=X=X=X=X=X=X=X=X=X=X=X=X=X=X=X=X=X=X=X=X=X=X=X=X=X=X=X=X=X=X=X=X=X=X=X=X=X=X=X",
"=X=X=X=X=X=X=X=X=X=X=X=X=X=X=X=X=X=X=X=X=X=X=X=X=X=X=X=X=X=X=X=X=X=X=X$X=X=X=X=X=X=X=X=X=X=X=X=X=X=X=X=X=X=X=X=X=X=X=X=X=X=X=X=X",
"=X=X=X=X=X=X=X=X=X=X=X=X=X=X=X$X=X=X=X=X=X=X=X=X=X=X=X=X=X=X=X=X=X=X=X=X=X=X=X=X=X=X=X=X=X=X=X=X=X=X=X=X=X$X=X=X=X=X=X=X=X=X=X=X",
"=X=X=X=X=X=X=X=X=X=X=X=X=X=X=X=X=X=X=X=X=X=X=X=X=X=X=X=X=X=X=X=X=X=X=X=X=X=X=X=X=X=X=X=X=X=X=X=X=X=X=X=X=X=X=X=X=X=X=X=X=X=X=X=X",
"=X=X=X=X=X=X=X=X=X=X=X=X=X=X=X=X=X=X=X@X=X=X=X=X=X=X=X=X=X=X=X=X=X=X=X=X=X=X=X=X=X=X=X=X=X=X=X=X=X=X=X=X=X=X=X=X=X=X=X=X=X=X=X=X",
"=X=X=X=X=X=X=X=X=X=X=X=X=X=X=X=X=X=X=X=X=X=X=X=X=X=X=X=X=X=X=X=X=X=X=X=X=X=X=X=X=X=X=X=X=X=X=X=X=X=X=X=X=X=X=X=X=X=X=X=X=X=X=X=X",
"=X=X=X=X=X=X=X=X=X=X=X=X=X=X=X=X=X=X=X=X=X=X=X=X=X=X=X=X=X=X=X=X=X=X=X=X=X=X=X=X=X=X=X=X=X=X=X=X=X=X=X=X=X=X=X=X=X=X=X=X=X=X@X=X",
"=X=X=X=X=X=X=X=X=X=X=X=X=X=X=X=X=X=X=X=X=X=X=X=X=X=X=X=X=X=X=X=X=X=X=X=X=X=X=X=X=X=X=X=X=X=X=X=X=X=X=X=X=X=X=X=X=X=X=X=X=X=X=X=X",
"=X=X=X=X=X=X=X=X=X=X=X=X=X=X$X=X=X=X=X=X=X=X=X=X=X=X=X=X=X=X=X=X=X=X=X=X=X=X=X=X=X=X=X=X=X=X=X=X=X=X=X=X=X=X=X=X=X=X=X=X=X=X=X=X",
"=X=X=X=X=X=X=X@X=X=X=X=X=X=X=X=X=X=X=X=X=X=X=X=X=X=X=X=X=X=X=X=X=X=X=X=X=X=X=X=X=X=X=X=X=X=X=X=X=X=X=X=X=X=X=X=X=X=X=X=X=X=X=X=X",
"=X=X=X=X=X=X=X=X=X=X=X=X=X=X=X=X=X=X=X=X=X=X=X=X=X=X=X=X=X=X=X=X=X=X=X=X=X=X=X=X=X=X=X=X=X=X=X=X=X=X=X=X=X=X=X=X=X=X=X=X=X=X=X=X",
"=X=X=X=X=X=X=X=X=X=X=X=X=X=X=X=X=X=X=X=X=X=X=X=X%X=X=X=X=X=X=X=X=X=X=X=X=X=X=X=X=X=X=X=X=X=X=X=X=X=X=X=X=X=X=X=X=X=X=X=X=X=X=X@X",
"=X=X=X=X=X=X=X=X=X=X=X=X=X=X=X=X=X=X=X=X=X=X=X=X=X=X=X=X=X=X=X=X=X=X=X=X=X=X=X=X=X=X$X=X=X=X=X=X=X=X=X=X=X=X=X=X=X=X=X=X=X=X=X=X",
"=X=X=X=X=X=X=X=X=X=X=X=X=X@X=X=X=X=X=X=X=X=X=X=X=X=X=X=X=X=X=X=X=X=X=X=X=X=X=X=X=X=X=X=X=X=X=X=X=X=X=X=X=X=X=X=X=X=X=X=X=X=X=X=X",
"=X=X=X=X=X=X=X=X=X=X=X=X=X=X=X=X=X=X=X=X=X=X=X=X=X=X=X=X=X=X=X=X=X=X=X=X=X=X=X=X=X=X=X=X=X=X=X=X=X=X=X=X=X=X=X=X=X=X=X=X=X=X=X=X",
"=X=X=X=X=X=X=X=X=X=X=X=X=X=X=X=X=X=X=X=X=X=X=X=X=X=X=X=X=X=X=X=X=X=X=X=X=X=X=X=X=X=X=X=X=X=X=X=X=X=X=X=X=X=X=X=X=X=X=X=X=X=X=X=X",
"=X=X=X=X=X=X=X=X=X=X=X=X=X=X=X=X=X=X=X=X=X@X=X=X=X=X=X=X=X=X=X=X=X=X=X=X=X=X=X=X=X=X=X=X=X=X@X=X=X=X=X=X=X=X=X=X=X=X=X@X=X=X=X=X",
"=X=X=X=X=X=X=X=X=X=X=X=X=X=X=X=X=X=X=X=X=X=X=X=X=X=X=X=X=X=X=X=X=X=X=X=X=X=X=X=X=X=X=X=X=X=X=X=X=X=X=X=X=X=X=X=X=X=X=X=X=X=X=X=X",
"=X=X=X=X=X=X=X=X=X=X=X=X=X=X=X=X=X=X=X=X=X=X=X=X=X=X=X=X=X=X=X=X=X=X=X=X=X=X=X=X=X=X=X=X=X=X=X=X=X=X=X=X=X=X=X=X=X=X=X=X=X=X=X=X",
"=X=X$X=X=X=X=X=X=X=X=X=X=X=X=X=X=X=X=X=X=X=X=X=X=X=X=X=X=X=X=X@X=X=X=X=X=X=X=X=X=X=X=X=X=X=X=X=X=X=X=X=X=X=X=X=X=X=X=X=X=X=X=X=X",
"=X=X=X=X=X=X=X=X=X=X=X=X=X=X=X=X=X=X=X=X=X=X=X=X=X=X=X=X=X=X=X=X=X=X=X=X=X=X=X=X=X=X=X=X=X=X=X=X=X=X=X=X=X=X=X=X=X=X=X=X=X=X=X=X",
"=X=X=X=X=X=X=X=X=X=X=X=X=X=X=X=X=X=X=X=X=X=X=X=X=X=X=X=X=X=X=X=X=X=X=X=X=X=X=X=X=X=X=X=X=X=X=X=X=X=X=X=X=X=X=X=X=X=X=X=X=X=X=X=X",
"=X=X=X=X=X=X=X=X=X=X=X=X=X=X=X=X=X=X=X=X=X=X=X=X=X=X=X=X=X=X=X=X=X=X=X=X=X=X=X=X=X=X=X=X=X=X=X=X=X=X=X=X=X=X=X=X=X=X=X=X=X=X=X=X",
"=X=X=X=X=X=X=X=X=X=X=X=X=X=X=X=X=X=X=X=X=X=X=X=X=X=X=X=X=X=X=X=X=X=X=X@X=X=X=X=X=X=X=X=X=X=X=X=X=X=X=X=X=X%X=X=X=X=X=X=X=X=X=X=X",
"=X=X=X=X=X=X=X=X=X=X=X=X=X=X=X=X=X=X=X=X=X=X=X=X=X=X=X=X=X=X=X=X=X=X=X=X=X=X=X=X=X=X=X=X=X=X=X=X=X=X=X=X=X=X=X=X=X=X=X=X=X=X=X=X",
"=X=X=X=X=X=X=X=X=X=X=X=X=X=X=X=X=X=X=X=X=X=X=X=X=X=X=X=X=X=X=X=X=X=X=X=X=X=X=X=X=X=X=X=X=X=X=X=X=X=X=X=X=X=X=X=X=X=X=X=X=X=X=X=X",
"=X=X=X=X=X=X=X=X=X=X=X=X=X=X=X=X=X=X=X=X=X=X=X=X=X=X=X=X=X=X=X=X=X=X=X=X=X=X=X=X=X=X=X=X=X=X=X=X=X=X=X=X=X=X=X=X=X=X=X=X=X=X=X=X",
"=X=X=X=X=X=X=X=X=X=X=X=X=X=X=X=X=X=X=X=X=X=X=X=X=X=X=X=X=X=X=X=X=X=X=X=X=X=X=X=X=X=X=X=X=X=X=X=X=X=X=X=X=X=X=X=X=X=X=X=X=X=X=X=X",
"=X=X=X=X=X=X=X=X=X=X=X=X=X=X=X=X=X=X=X=X=X=X=X=X=X=X=X=X=X=X=X=X=X=X=X=X=X=X=X=X=X=X=X=X=X=X=X=X=X=X=X=X=X=X=X=X=X=X=X=X=X=X=X=X",
"=X=X=X=X=X=X=X=X=X=X=X=X=X=X=X=X=X=X=X=X=X=X=X=X=X=X=X=X=X=X=X=X=X=X=X=X=X=X=X$X=X=X=X=X=X=X=X=X=X=X=X=X=X=X=X=X=X=X=X=X=X=X=X=X",
"=X=X=X=X=X=X=X=X=X=X=X=X=X=X=X=X=X=X=X=X=X=X=X=X=X=X=X=X=X=X=X=X=X=X=X=X=X=X=X=X=X=X=X=X=X=X=X=X=X=X=X=X=X=X=X=X=X=X=X=X=X=X=X=X",
"=X=X=X=X=X=X=X=X=X=X=X=X=X=X=X=X=X=X=X=X=X=X=X=X=X=X=X=X=X=X=X=X=X=X=X=X=X=X=X=X=X=X=X=X=X=X=X=X=X=X=X=X=X=X=X=X=X=X=X=X=X=X=X=X",
"=X=X=X=X=X=X=X=X=X=X=X=X=X=X=X=X=X=X=X=X=X=X=X=X=X=X=X=X=X=X=X=X=X=X=X=X=X=X=X=X=X=X=X=X=X=X=X=X=X=X=X=X=X=X=X=X=X=X=X=X=X=X=X=X",
"=X=X=X=X=X=X=X=X=X*X=X=X=X=X=X=X=X=X=X=X=X=X=X=X=X=X=X=X=X=X=X=X=X=X=X=X=X=X=X=X=X=X=X=X=X=X=X=X=X=X=X=X=X=X=X@X=X=X=X=X=X=X=X=X",
"=X=X=X=X=X@X=X*X@X@X@X@X=X=X=X=X=X=X=X=X=X=X=X=X=X=X=X=X=X=X=X=X=X=X=X=X=X=X=X=X=X=X=X=X=X=X=X=X=X=X*X*X=X@X@X@X=X*X*X*X=X=X=X=X",
"=X=X=X=X@XOXOXOX3.@X3.@X*X=X=X=X=X=X=X=X=X=X=X=X=X=X=X=X=X=X=X=X=X=X=X=X=X=X=X=X=X=X=X=X=X=X=X=X=X*X*X@X@X@X@XOX*XOXOX*X*X=X=X=X",
"=X=X*X3.OX<.<.<.2.<.<.3.*X=X=X=X=X=X=X=X=X=X=X=X=X=X=X=X=X=X*X*X=X=X=X=X=X=X=X=X=X=X=X=X=X=X=X=X=X=X=X3.OXOX<.<.<.<.<.OX@X*X=X=X",
"=X*X*X3.2.<.<.2 2 2 <.2.OX=X=X=X=X=X=X=X=X=X=X=X=X=X=X=X=X=X=X*X=X=X=X=X=X=X=X=X=X=X=X*X=X=X=X=X=X=X*X*X<.<.<., 2 , 1.oXOX*X=X=X",
"5.4.4.4.<.<., , , , , <.oXM.&X&X=X%X-X%X&X&X=X$X@X@X*X*X*X@X@X*X=X*X*X@X%X+X+X+X=X+X+X#X$X-X4.-X-X-X%X2.<.: : : : , 2 1.OXOX@X=X",
":.:.:.} [ , 1 : 1 2 , ' n.n.A.Z.Q.-XQ.Q.Z.B.Z.C.M.oX3.3.3.3.3.3.OXOXOXM.C.B.N.N.Z.B.B.V.} :.:.:.-X-X-XC.4 - = - : , 2 1.1.OXOXOX",
";.;.-.:.[ ` , 1 1 2 , m.m.d.k.I.~.).).~.I.j.z.m.n.M.1.1.1.1.<.<.1.2.<.n.m.z.k.x.l.k.c.^ =. .>.>.`._.Q.Z.5 = $ $ - 1 , <.<.<.1.1.",
"8.8.Q -.) ` , 1 1 , 4 5 3 F I c.P././.P.J.F G d.m.> 2 2 2 <., <.2 , ' m.s.G S S S F Z Z #.+.+.y.3X0X).A.3 & # $ = : , , 2 2 <., ",
"0.0.@...) [ ` > > > 4 f.d.F I J.}.qX.X[.P S v @ ~ _ ` ] ] ] M., ' > ; f.a.n A A z A B r i X.0.u.,X6XXX~.3 3 & & = = ; > ` ` ` ` ",
"u.t.t. . .) { _ _ g.f.d.x.P J.{.|.qX|.'.I x O + ! ( { } } C.C.n.m.g.f.a.C N N B z x c N g s 0.u.,XwX.X~.v.f.3 3 3 % * * ( ( ( ) ",
",X>X:X*.*. ...^ ! a.d.x.c.K.}.|.tXrX|.J.A O   8 w /  .,.W.W.~.A.z.d.a.C y k k N B A A N g s 9.u.,X8XwXXX~.A.z.f.3 . o o / / ....",
"8X8X4X:X*.+.o.h C n F P '.}.tXeXeXwXR.J.A O     0 | +.i.`.(.(.[.c.F n t h d d g N c B N g X.0.t.,X8XwXwXwXXXP.x.+     8 w p Q Q ",
"rXwX7X2Xp.q.o.k N c J E K.tXwXeXeX7XT.S.v     6 9 a o.i.,X8X.X}.].P H N d X.X.i j M M f d s 9.t.:X4X6XeXeXwX^.S.v     e u X.Q 8.",
"rXrXeX8X>Xi.e.Y V K J E }.qXeX9X0X2XH.#.t 8 6 q q g l F.1XqXqX|.{.J.R Y l X.7.s h j j g a W 8.q.t.:X2X8XeXeXqXU.Z 6 6 0 h e.u.u.",
"yXyXwX9X8X>X1XY R A D E {.tXeX5X3Xi.e.o.d u 0 0 r r U L.E.tXwXtX X{.Y.F.%.9.8.s d d i d s W 6.9.0.t.i.>X8XwX6XT.S.u u i &.;X,X3X",
"wXwXeXeX8X6XR.U.R K J P '..X7X3Xp.q.0.X.W a p u r B H T E..XwXwXtXtXR.;Xe.9.7.W W X.X.W W 6.8.8.9.0.e.p.2X6X6X>X&.o.o.&.H.4X8X7X",
"8X6X6X8X8X8X^.U.R H H R Y.R.4X:Xt.9.7.6.W 7.W i f M H R Y.1X6XwXeXeX8X>Xi.0.6.W 6.8.8.9.9.0.9.9.8.8.0.t.<X4X4X>Xu.e.q.i.G.R..X.X",
":X>X>X,X>X>XG.D.Y U U Y D.;X:Xi.q.8.6.6.6.6.W X.g j U Y D.;X2X5X7XeX7X3Xi.0.6.6.6.6.8.0.w.t.t.q.9.8.8.q.t.:X:X:Xp.u.i.H.T.Y.}.'.",
"t.t.t.i.i.i.t.&.$.h l $.%.t.t.q.9.8.7.7.6.8.8.X.a d h l &.t.i.>X5X7X6X2Xt.0.8.6.6.6.9.w.i.<X<Xi.q.9.8.9.q.t.t.p.:X,X1XT.K.J.T P ",
"0.0.0.0.0.X.0.X.X.X.X.X.X.0.9.9.8.7.7.7.7.7.7.6.X.X.s 9.X.0.q.p.4X7X6X2Xi.0.6.6.6.7.0.t.:X4X4X<Xt.9.8.7.8.0.q.i.,X4X^.Y.J.L D D ",
"6.6.8.8.8.8.6.8.8.6.6.8.W 8.6.8.7.7.7.7.7.7.7.7.7.7.8.7.6.8.0.t.2X6X6X>Xi.0.8.W 6.7.0.i.2X6X6X>Xi.9.7.6.6.6.0.t.,X5X.X[.E J z x ",
"6.6.6.W 6.6.6.6.6.8.8.6.6.6.6.6.7.7.7.7.7.7.7.7.7.6.6.6.6.6.0.t.>X6X6X>Xi.0.6.6.6.8.0.i.2X7X7X4Xi.9.7.6.6.6.0.t.3X6X.X[.E D x x "
};
