/* XPM */
static char *path_04[] = {
/* columns rows colors chars-per-pixel */
"64 64 221 2 ",
"   c #5D5E34",
".  c #6C5633",
"X  c #665B33",
"o  c #7A5835",
"O  c #5C6B2F",
"+  c #5C7C2C",
"@  c #546C36",
"#  c #5D6537",
"$  c #507B3F",
"%  c #577A36",
"&  c #4F743A",
"*  c #65653B",
"=  c #756239",
"-  c #767C38",
";  c #627E2B",
":  c #5A6E40",
">  c #547D4D",
",  c #577644",
"<  c #767746",
"1  c #885B35",
"2  c #9A5E35",
"3  c #896436",
"4  c #986839",
"5  c #897736",
"6  c #A9773C",
"7  c #B17D3D",
"8  c #BE7C39",
"9  c #B97637",
"0  c #A76936",
"q  c #C17E3A",
"w  c #C07937",
"e  c #857C45",
"r  c #9A7D44",
"t  c #937D44",
"y  c #A77F40",
"u  c #A87F41",
"i  c #73AC1F",
"p  c #7CB61E",
"a  c #7EBA1D",
"s  c #5C8A2C",
"d  c #5B8A32",
"f  c #608D2E",
"g  c #679727",
"h  c #628C33",
"j  c #638233",
"k  c #669737",
"l  c #799B3D",
"z  c #739A3B",
"x  c #749D2D",
"c  c #6DA324",
"v  c #6DA628",
"b  c #74AA22",
"n  c #71A329",
"m  c #74AB2D",
"M  c #79AD2D",
"N  c #70A625",
"B  c #7CB522",
"V  c #7DBA22",
"C  c #7AB22C",
"Z  c #76A533",
"A  c #76AC32",
"S  c #70A23B",
"D  c #7BAE34",
"F  c #6EA33C",
"G  c #5E8554",
"H  c #5D845A",
"J  c #578445",
"K  c #69884A",
"L  c #718E4C",
"P  c #7A8848",
"I  c #6C9D42",
"U  c #65904E",
"Y  c #6C9748",
"T  c #739845",
"R  c #608554",
"E  c #6D8652",
"W  c #638B54",
"Q  c #6D8A54",
"!  c #698F58",
"~  c #658A58",
"^  c #738D53",
"/  c #7B8A50",
"(  c #6D9453",
")  c #6A9158",
"_  c #669154",
"`  c #7D9555",
"'  c #74995A",
"]  c #7B9C5B",
"[  c #769A56",
"{  c #79A943",
"}  c #7BA25E",
"|  c #7CA555",
" . c #82BD1D",
".. c #888F3E",
"X. c #9B853D",
"o. c #899837",
"O. c #939833",
"+. c #8B9328",
"@. c #A28B37",
"#. c #B5803C",
"$. c #BE853F",
"%. c #B68436",
"&. c #A69131",
"*. c #99A62D",
"=. c #89B227",
"-. c #81BB23",
";. c #82B628",
":. c #87B826",
">. c #92B82C",
",. c #81A830",
"<. c #83AC3F",
"1. c #83B631",
"2. c #8CBD34",
"3. c #8AB73B",
"4. c #91BB37",
"5. c #95A834",
"6. c #B6A63B",
"7. c #A8B535",
"8. c #C5843C",
"9. c #C9863C",
"0. c #C6883E",
"q. c #CB8B3E",
"w. c #84C317",
"e. c #85C21B",
"r. c #88C51C",
"t. c #84C022",
"y. c #8AC324",
"u. c #8EC42B",
"i. c #8EC824",
"p. c #90C62B",
"a. c #8FC135",
"s. c #93C534",
"d. c #97C935",
"f. c #96C53A",
"g. c #97C93A",
"h. c #9BC53C",
"j. c #81834C",
"k. c #8C834A",
"l. c #868A4F",
"z. c #8D894D",
"x. c #878845",
"c. c #958245",
"v. c #9C8244",
"b. c #9D8948",
"n. c #94884B",
"m. c #8A9A48",
"M. c #96984A",
"N. c #878D50",
"B. c #849154",
"V. c #829E56",
"C. c #899E58",
"Z. c #899A57",
"A. c #9A9B55",
"S. c #979A55",
"D. c #A28143",
"F. c #A28B48",
"G. c #AE8442",
"H. c #B28542",
"J. c #BD8D42",
"K. c #B88741",
"L. c #A6914B",
"P. c #AA9349",
"I. c #AD9B42",
"U. c #B49046",
"Y. c #B79749",
"T. c #85A947",
"R. c #9EA14B",
"E. c #88B34B",
"W. c #97BB49",
"Q. c #97BA47",
"!. c #89A756",
"~. c #82A55F",
"^. c #8BAA5C",
"/. c #88A657",
"(. c #94AB5D",
"). c #8FB256",
"_. c #9AB956",
"`. c #95B25E",
"'. c #9EBC5C",
"]. c #97BB51",
"[. c #BCA44F",
"{. c #A3B35E",
"}. c #A4B858",
"|. c #B4B355",
" X c #ACAF4F",
".X c #87A961",
"XX c #8DB062",
"oX c #92B363",
"OX c #9CBB66",
"+X c #9AB864",
"@X c #A2BD63",
"#X c #C68D41",
"$X c #CC8E40",
"%X c #C39646",
"&X c #CE9442",
"*X c #C59B43",
"=X c #CA9F45",
"-X c #C89C48",
";X c #D19643",
":X c #D19944",
">X c #C1AA49",
",X c #9AC543",
"<X c #9EC54B",
"1X c #9BC447",
"2X c #A0C64D",
"3X c #A1CA4B",
"4X c #A8C248",
"5X c #A2C652",
"6X c #A9CC56",
"7X c #A7C65B",
"8X c #A9C65C",
"9X c #A7C85C",
"0X c #AACA5C",
"qX c #A5C856",
"wX c #A5C264",
"eX c #AAC665",
"rX c #ADC963",
"tX c #A5C169",
"yX c #AAC668",
"uX c #AFC968",
"iX c #B2CC68",
/* pixels */
"w.w.t.s.1X8XeXiXiXiXwXoX} ) E j.c.7 w w w 8 8 8.q.&X:X:X:X:X:X:X:X:X:X:X:X:X:X:X:X:X:X:X:X:X:X:X:X:X:X:X:X:X:X:X:X:X:X:X:X:X:X:X",
"w.e.y.s.1X8XeXiXiXeX@XXX} ) E P r 7 8 w w 8 $.9.q.&X:X:X:X:X:X:X:X:X:X:X:X:X:X:X:X:X:X:X:X:X:X:X:X:X:X:X:X:X:X:X:X:X:X:X:X:X:X:X",
"t.y.u.f.2X8XwXwX@X{.`./.' ! E e r 7 w w w q 8.0.&X&X:X:X:X:X:X:X:X:X:X:X:X:X:X:X:X:X:X:X:X:X:X:X:X:X:X:X:X:X:X:X:X:X:X:X&X:X:X:X",
"s.f.h.<XqXeXeX@X`.!.~.( ! ~ ~ e r 7 8 q 8.8.9.#X&X&X:X:X:X:X:X:X:X:X:X:X:X:X:X:X:X:X:X:X:X:X:X:X:X:X:X:X:X:X:X:X:X:X:X:X:X:X:X:X",
"<X<X2XqX0XeX@X`.C.^ R G H R E j.r 7 q 8.9.#X$X;X&X&X:X:X:X:X:X:X:X:X:X=X:X:X:X:X:X:X:X:X=X:X:X:X:X:X:X:X:X:X&X:X:X:X:X:X:X:X:X:X",
"7X7X7XrXrXeX@X/.L , & > > R E j.r 7 8.8.q.&X&X:X:X:X:X:X:X:X:X:X:X:X:X:X:X:X:X:X:X:X:X:X:X:X:X:X:X:X:X:X:X:X:X:X:X:X:X:X:X:X:X:X",
"7X7X7X8X0X7X_.T.L % & & J U L x.v.7 q 9.$X&X:X:X:X:X:X:X:X:X:X:X:X:X:X:X:X:X:X:X:X:X:X:X:X:X:X:X:X:X:X:X:X:X:X:X:X:X:X:X:X:X:X:X",
"<X2X<X2X2X<XQ.<.z h d d k z l x.@.7 q 9.$X;X:X:X:X:X:X:X:X:X:X:X:X:X:X:X:X:X:X:X:X:X:X:X:X:X:X:X:X:X:X:X:X:X:X:X:X:X:X:X:X:X:X:X",
"f.f.f.f.f.s.a.1.b n g v v M ,.O.@.%.q 8.$X;X:X:X:X:X:X:X:X:X:X:X:X:X:X:X:X:X:X:X:X:X:X:X:X:X:X:X:X:X:X:X:X:X:X:X:X:X&X:X:X:X:X:X",
"y.y.y.y.y.y.y.-.-.p B V V V =.*.&.%.8.8.$X&X:X:X:X:X:X:X:X:X:X:X:X:X:X:X:X:X:X:X:X:X:X:X:X:X:X:X:X:X:X:X:X:X:X:X:X:X:X:X:X:X:X:X",
"e.e.e.e.e.e.w.e.e.e.e. . . .=.*.&.%.w #X$X&X;X:X:X:X:X:X:X:X:X:X:X:X:X:X:X:X:X:X:X:X:X:X:X:X:X:X:X:X:X:X:X:X:X:X:X:X:X:X:X:X:X:X",
"w. .w.w. .w.w.w.w.r.r.e.V M M o.@.#.q 8.$X&X;X:X:X:X:X:X:X:X:X:X:X:X:X:X:X:X:X:X:X:X:X:X:X:X:X:X:X:X:X:X:X:X:X:X:X:X:X:X:X:X:X:X",
"e.w.w.w.w.w.w.r.w.r.e.V A F T ..X.7 q 9.;X:X:X:X:X:X:X:X:X:X:X:X:X:X:X:X:X:X:X:X:X:X:X:X:X:X:X:X:X:X:X:X:X:X:X:X:X:X:X:X:X:X:X:X",
"e.e.e.e.w.w.e.e.r.e.-.C F Y L x.y 7 q 9.q.:X:X:X:X:X:X:X:X:X:X:X:X:X:X:X:X:X:X:X:X:X:X:X:X:X:X:X:X:X:X:X:X:X:X:X:X:X:X:X:X:X:X:X",
" .e.e.t.y.y.y.t.-.-.C Z I L / k.y u 9.q.q.;X:X:X:X:X:X:X:X:X:X:X:X:X:X:X:X:X:X:X:X:X:X:X:X:X:X:X:X:X:X:X:X:X:X:X:X:X:X:X:X:X:X:X",
"e.e.r.y.u.s.a.2.1.D M l P j.k.r H.8.9.q.;X;X:X:X:X:X:X:X:X:X:X:X:X:X:X:X:X:X:X:X:X:X:X&X:X:X:X:X:X:X:X:X:X:X:X:X:X:X:X:X:X:X:X:X",
"e.e.y.p.s.,XQ.E.{ { Y P ..r D.H.K.#X&X&X&X;X:X:X:X:X:X:X:X:X:X:X:X:X:X:X:X:X:X:X:X:X:X:X:X:X:X:X:X:X:X:X:X:X:X:X:X:X:X:X:X:X:X:X",
"w.e.y.s.,XqX5X).| ( L P c.6 #.$.#X&X:X:X;X;X:X:X:X:X:X:X:X:X:X:X:X:X:X:X&X:X:X:X:X:X:X:X:X:X:X:X:X:X:X:X:X:X:X:X:X:X:X:X:X:X:X:X",
"w.e.y.s.<X7X@XoX.X' ^ j.c.u #.$.#X&X&X:X:X:X:X:X:X:X:X:X:X:X:X:X:X:X:X:X:X:X:X:X:X:X:X:X:X:X:X:X:X:X:X:X:X:X:X:X:X:X&X:X:X:X:X:X",
"w.e.y.f.2XeXtXOX.X.XV.N.z.c.D.K.J.&X:X:X:X:X:X:X:X:X:X:X:X:X:X:X:X:X:X:X:X:X:X:X:X:X:X:X:X:X:X:X:X:X:X:X:X:X:X-X:X:X:X:X:X:X:X:X",
"w.e.y.s.<X8XyXtX+XoX.XZ.B.z.k.F.Y.-X:X:X:X:X:X:X:X:X:X:X:X:X:X:X:X:X:X:X:X:X:X:X:X:X:X:X:X:X:X:X:X:X:X:X:X:X:X:X:X:X:X:X:X:X:X:X",
"w.e.y.s.<X7XeXyXyXwX+X^.] ^ / z.U.:X:X:X:X:X:X:X:X:X:X:X:X:X:X:X:X:X:X:X:X:X:X:X:X:X:X:X:X:X:X:X:X:X:X:X:X:X:X:X:X=X:X:X:X:X:X:X",
"w.e.y.s.,X5X8XrXrXrXwXXX] ) ^ l.F.%X:X:X:X:X:X:X:X:X:X:X:X:X:X:X:X:X:X:X:X:X:X:X:X:X:X:X:X:X:X:X:X:X:X:X:X:X:X:X:X:X:X:X:X:X:X:X",
"w.e.r.u.s.,X<X6X0XrXwXXX} ) ! l.L.%X:X:X:X:X:X:X:X:X:X:X:X:X:X:X:X:X:X:X:X:X:X:X:X:X:X:X:X:X:X:X:X:X:X:X:X:X:X:X:X:X:X:X:X:X:X:X",
"w.w.t.t.p.p.h.4X6XrXwXoX} ! Q l.L.Y.:X:X:X:X:X:X:X:X:X:X:X:X:X:X:X:X:X:X:X:X:X:X:X:X:X:X:X:X:X:X:X:X:X:X:X:X:X:X:X:X:X:X:X:X:X:X",
"e.e.e.e. . .p.h.3X0X@XoX} ! Q N.L.%X:X:X:X:X:X:X:X:X:X:X:X:X:X:X:X:X:X:X:X:X:X:X:X:X:X:X:X:X:X:X:X:X:X:X:X:X:X:X:X:X:X:X:X:X:X:X",
"y.y.y.:. .=.=.>.Q._.`./.' ! ^ N.L.-X:X:X:X:X:X:X:X:X:X:X:X:X:X:X:X:X:X&X:X:X:X:X:X:X:X:X:X:X:X:X:X:X:X:X:X:X:X:X:X:X:X:X:X:X:X:X",
"f.f.4.>.=.,.+.o.m.V.] ' ! ~ E N.L.&X:X:X:X:X:X:X:X:X:X:X:X:X:X:X:X:X:X:X:X:X:X:X:X:X:X:X:X:X:X:X:X:X&X:X:X:X:X:X:X:X:X:X:X:X:X:X",
"3X<XQ.5.O.X.5 - - K G G G G E N.L.%X:X:X:X:X:X:X:X:X:X:X:X:X:X:X:X:X:X:X:X:X:X:X:X:X:X:X:X:X:X:X:X:X:X:X:X:X:X;X:X:X:X:X:X:X:X:X",
"rX7X}.R.X.3 3 . * # : > > G ^ z.P.%X:X:X:X:X:X:X:X:X:X:X:X:X:X:X-X:X:X:X:X:X:X:X:X:X:X:X:X:X:X:X:X:X:X:X:X:X:X:X:X:X:X:X:X:X:X:X",
"0X0X_.M.X.3 o . # @ & $ J U L m.P.%X=X:X:X:X:X:X:X:X:X:X:X:X:X:X:X:X:X:X:X:X:X:X:X:X:X-X:X:X:X:X:X:X:X:X:X:X:X:X:X:X:X:X:X:X:X:X",
"<X<XW.M.5 = . X O + s d k k l m.I.*X:X:X:X:X:X:X:X:X:X:X:X:X:X:X:X:X:X:X:X:X:X:X:X:X:X:X:X:X:X:X:X:X:X:X:X:X:X:X:X:X:X:X:X:X:X:X",
"f.f.>.l - * # * ; g g v N M 5.*.6.=X:X:X:X:X:X:X:X:X:X:X:X:X:X:X:X:X:X:X:X:X:X:X:X:X:X:X:X:X:X:X:X:X:X:X:X:X:X:X:X:X:X-X:X:X:X:X",
"i.y.;.x j @ @ + g b a V V  .:.*.6.:X:X;X:X:X:X:X:X:X:X:X:X:X:X:X:X:X:X:X:X:X:X:X:X:X:X:X:X:X:X:X:X:X:X:X:X:X:X:X:X:X:X:X:X:X:X:X",
"r.e.a c s % % f x ;.y.y.y.i.p.7.6.q.:X:X:X:X:X:X:X:X:X:X:X:X:X:X:X:X:X:X:X:X:X:X:X:X:X:X:X:X:X:X:X:X:X:X:X:X:X:X:X:X:X:X:X:X:X:X",
"w.w.a i g s f k D 2.d.d.d.d.d.7.6.>X:X:X:X:X:X:X:X:X:X:X:X:X:X:X:X:X:X:X:X:X:X:X=X:X:X:X:X:X:X:X:X:X:X:X:X:X:X:X:X;X:X:X:X:X:X:X",
"r.w. .p i c n D 3.Q.<X3X3X3X4X|.>X=X:X:X:X:X:X:X:X:X:X:X:X:X:X:X:X:X:X:X:X:X:X:X:X:X:X:X:X:X:X:X:X:X:X:X:X:X:X:X:X:X:X:X:X:X:X:X",
"e.e.w.a a V -.2.,X5X9X9XrXeX}.|.>X=X:X:X:X:X:X:X:X:X&X:X:X:X:X:X:X:X:X:X:X:X:X:X:X:X:X:X:X:X:X:X:X:X:X:X:X:X:X:X:X:X:X:X:X:X:X;X",
"e.e.e.e.r.y.s.g.<X9XrXwX@X@X@X|.>X>X:X:X:X:X:X:X:X:X:X:X:X:X:X:X:X:X:X:X:X:X:X:X:X:X:X:X:X:X:X:X:X:X:X:X:X:X:X:X:X:X:X:X:X:X:X:X",
"e.e.r.y.u.d.g.<X6XrXyXtXOX(.(.{.-X:X:X;X:X:X:X:X:X:X:X:X:X:X:X:X:X:X:X:X:X:X:X:X:X:X:X:X:X:X:X:X:X:X:X:X:X:X:X:X:X:X:X:X:X:X:X:X",
"w.e.r.u.g.,X3X6XiXuXyXOXXX.XC.S.P.-X:X:X:X:X:X:X:X:X:X:X:X:X:X:X:X:X:X:X:X:X:X:X:X:X:X&X:X:X:X:X:X:X:X:X:X:X:X:X:X:X:X:X:X:X:X:X",
"w.e.y.s.,X5X0XrXiX@X@XoX} ' ^ S.L.-X:X:X:X:X:X:X:X:X:X:X:X:X:X:X:X:X:X:X:X:X:X:X:X:X:X:X:X:X:X:X:X:X:X:X:X:X:X:X:X:X:X:X:X:X:X:X",
"w.e.-.s.Q._.{.@X@X{.{..XB.^ / z.P.-X;X:X:X:X:X:X:X:X:X:X:X:X:X:X:X:X:X:X:X:X:X:X:X:X:X:X:X:X:X:X:X:X:X:X:X&X:X:X:X:X:X:X:X:X:X:X",
"e.e.:.1.<.!.C.C.S.S.L.t N.j.k.b.U.%X:X:X:X:X:X:X:X:X:X:X:X:X:X:X:X:X:X:X:X:X:X:X:X:X:X:X&X:X:X:X:X:X:X:X:X:X:X:X:X:X:X:X:X:X:X:X",
"r.e.-.M z L K < e r r r r y y u #X:X:X:X:X:X:X:X:X:X:X:X:X:X:X:X:X:X:X:X:X:X:X:X:X:X:X:X:X:X:X:X:X:X:X:X:X:X:X:X:X:X:X:X:X:X:X:X",
"r.e.a v f % @ < = 1 2 r 0 u u #X$X:X:X:X:X:X:X:X:X:X:X:X:X:X:X:X:X:X:X:X:X:X:X:X:X:X:X:X:X:X:X:X:X:X:X:X:X:X:X:X:X:X:X:X:X:X:X:X",
"w.r.a N f % @   . o 1 2 0 9 q #X$X:X:X:X:X:X:X:X:X:X:X:X:X:X:X:X:X:X:X:X:X:X:X:X:X:X:X:X:X:X:X:X:X:X:X:X:X:X:X:X:X:X:X:X:X:X:X:X",
"r.e.a i g s + # X . o 1 0 9 w $X$X:X:X:X:X:X:X:X:X:X:X:X:X:X:X:X:X:X:X:X:X:X:X:X:X:X:X:X:X:X:X:X:X:X:X:X:X:X:X:X:X:X:X:X:X:X:X:X",
"r.w. .p i c g + O   X 1 4 7 q q.q.;X:X:X:X:X:X:X:X:X:X:X:X:X:X:X:X:X:X:X:X:X:X:X:X:X:X:X:X:X:X:X:X:X:X:X:X:X:X:X:X:X:X:X:X:X:X:X",
"r.w.w. . .V b g + @ # . 4 6 q 9.&X&X:X:X:X:X:X:X:X:X:X:X:X:X:X:X:X:X:X:X:X:X:X:X:X:X:X:X:X:X:X:X:X:X:X:X:X:X-X:X:X:X:X:X:X:X:X:X",
"e.e.e.y.y.y.;.m h % , < e 6 7 9.9.&X&X;X:X:X:X:X:X:X:X:X:X:X:X:X:X:X:X:X:X:X:X:X:X:X:X:X:X:X:X:X:X&X:X:X:X:X:X:X:X:X:X:X:X:X:X:X",
"w.e.r.y.p.s.4.<.T L P P e t D.G.K.#X$X;X:X:X:X:X:X:X:X:X:X:X:X:X:X:X:X:X:X:X:X:X:X:X:X:X:X:X:X:X:X:X:X:X:X:X:X:X:X:X:X:X:X:X:X:X",
"w.e.y.u.f.<X<X].).!.V.` / j.k.v.G.$.9.$X;X:X:X:X:X:X:X:X:X:X:X:X:X:X:X:X:X:X:X:X:X:X:X:X:X:X:X:X:X:X:X:X:X:X:X:X:X:X:X:X:X:X:X:X",
"e.e.y.u.,X3X7XwX7X{.`.^.] ^ P k.D.#.8.9.$X:X:X:X:X:X:X:X:X:X:X:X&X:X:X:X:X:X:X:X:X:X:X:X:X:X:X:X:X:X:X:X:X:X:X:X:X:X:X:X:X:X:X:X",
"w.e.y.s.,X5X8X8XeXeX@XoX] ' ^ / c.D.7 J.$X&X:X:X:X:X:X:X:X:X:X:X:X:X:X:X:X:X:X:X:X:X:X:X:X:X:X:X:X:X:X:X:X:X:X:X:X:X:X:X:X:X:X:X",
"w.e.y.u.s.,X5X0XrXrXyXOXXX.X] B.z.v.D.H.J.&X:X:X:X:X:X:X:X:X:X:X:X:X:X:X:X:X:X:X:X:X:X:X:X:X:X:X:X:X:X:X:X:X:X:X:X:X:X:X:X:X:X:X",
"r.r.r.y.u.s.,X<X6XrXuXtXOXoXXXC.B.l.k.b.U.-X:X:X:X:X:X:X:X:X:X:X:X:X:X:X:X:X:X:X:X:X:X:X:X:X-X:X:X:X:X:X:X:X:X:X:X:X:X:X:X:X:X:X",
"w.e.e.e.y.t.u.h.<X9XeXyXeX@X+X^.] ^ P z.P.%X:X:X:X:X:X:X:X:X:X:X:X:X:X:X:X:X:X:X:X:X:X:X:X:X:X:X:X:X:X:X:X:X:X:X:X:X:X:X:X:X:X:X",
"V -.-. . .e.y.s.,X5X7X8X9X7X'.^.} _ Q l.F.J.&X;X:X:X:X:X:X:X:X:X:X:X:X:X:X:X:X:X:X:X:X:X:X:X:X:X:X:X:X:X:X:X:X:X:X:X:X:X:X:X:X:X",
"Z A A B V  .e.u.f.,X,X3X<X1XW.E.[ _ Q l.F.J.&X&X:X:X:X:X:X:X:X:X:X:X:X:X:X:X:X:X:X:X:X:X:X:X:X:X:X:X:X:X:X:X:X:X:X:X:X:X:X:X:X:X",
"I I S A C  .e.y.y.s.s.s.d.f.3.{ Y ( Q j.v.K.0.q.;X;X:X:X:X:X:X:X:X:X:X:X:X:X:X:X:X:X:X:X:X:X:X:X:X:X:X:X:X:X:X:X:X:X:X:X:X:X:X:X",
"W U Y S C -.e.r.y.y.y.i.i.y.u.D I U E j.c.#.8.9.$X;X:X:X:X:X:X:X:X:X:X:X&X:X:X:X:X:X:X:X:X:X:X:X:X:X&X:X:X:X:X:X:X:X:X:X:X:X:X:X",
"R R U I A -.r.w.r.e.e.e.e.e.V A I U Q j.r 7 8.8.$X;X:X:X:X:X:X:X:X:X:X:X:X:X:X:X:X:X:X:X:X:X:X:X:X:X:X:X:X&X:X:X:X:X:X:X:X:X:X:X",
"H G W I A V e.w.w.w.w.w.w.w.V A I W ~ e r 7 8 9.$X;X:X:X:X:X:X:X:X:X:X:X:X:X:X:X:X:X:X:X:X:X:X:X:X:X:X:X:X:X:X:X:X:X:X:X:X:X:X:X"
};
