/* XPM */
static char *path_06[] = {
/* columns rows colors chars-per-pixel */
"64 64 218 2 ",
"   c #75593C",
".  c #5B7D33",
"X  c #50743B",
"o  c #577936",
"O  c #79653D",
"+  c #68753B",
"@  c #727334",
"#  c #547342",
"$  c #5C7443",
"%  c #5A7849",
"&  c #6A6C47",
"*  c #7C6944",
"=  c #687649",
"-  c #73764C",
";  c #777749",
":  c #627C50",
">  c #865336",
",  c #885D39",
"<  c #975734",
"1  c #A45F36",
"2  c #86782D",
"3  c #886437",
"4  c #936039",
"5  c #986734",
"6  c #87773D",
"7  c #927D2C",
"8  c #AB6A38",
"9  c #A66737",
"0  c #AB753B",
"q  c #A4793B",
"w  c #B47E3B",
"e  c #BC7A3A",
"r  c #B97238",
"t  c #B16D37",
"y  c #C27D3A",
"u  c #C4753A",
"i  c #866741",
"p  c #8A7745",
"a  c #957C43",
"s  c #987744",
"d  c #A47E43",
"f  c #71AB1D",
"g  c #7CB61E",
"h  c #7EBA1C",
"j  c #5D8C2A",
"k  c #5D8934",
"l  c #618D2D",
"z  c #69832E",
"x  c #699726",
"c  c #7F9027",
"v  c #618C30",
"b  c #6A9938",
"n  c #719638",
"m  c #76893E",
"M  c #6DA223",
"N  c #6DA129",
"B  c #7CAA24",
"V  c #71A42B",
"C  c #74A826",
"Z  c #7DB720",
"A  c #7FBA23",
"S  c #6FA23F",
"D  c #78AA35",
"F  c #7CB135",
"G  c #588045",
"H  c #6A8949",
"J  c #738A4C",
"K  c #6B9847",
"L  c #769746",
"P  c #668252",
"I  c #6D8B54",
"U  c #648D58",
"Y  c #688A55",
"T  c #718C54",
"R  c #7B8A50",
"E  c #778452",
"W  c #6C9454",
"Q  c #6B9259",
"!  c #679258",
"~  c #7A9758",
"^  c #749A5A",
"/  c #7B9C5B",
"(  c #769655",
")  c #7BB040",
"_  c #75A05F",
"`  c #7DA35E",
"'  c #75A646",
"]  c #799F60",
"[  c #7BA360",
"{  c #81BD1B",
"}  c #8CB81E",
"|  c #8D9A29",
" . c #8F9831",
".. c #928838",
"X. c #A8972E",
"o. c #A38938",
"O. c #B5813E",
"+. c #BE853F",
"@. c #B58635",
"#. c #A79130",
"$. c #9AA929",
"%. c #8BB327",
"&. c #82BB21",
"*. c #85B92A",
"=. c #92BB28",
"-. c #82AB38",
";. c #99A335",
":. c #8CBD3C",
">. c #87BA35",
",. c #99BC35",
"<. c #98B936",
"1. c #AEA03C",
"2. c #B6A839",
"3. c #A5B032",
"4. c #C4843D",
"5. c #CA8B3E",
"6. c #C8863C",
"7. c #C69D3F",
"8. c #83C217",
"9. c #85C21B",
"0. c #88C41D",
"q. c #87C220",
"w. c #8AC324",
"e. c #8EC32C",
"r. c #90C52C",
"t. c #8EC136",
"y. c #93C434",
"u. c #97C937",
"i. c #95C43A",
"p. c #9AC53C",
"a. c #98C83B",
"s. c #81844C",
"d. c #8C844B",
"f. c #868C4F",
"g. c #8C8B4D",
"h. c #848646",
"j. c #918D4E",
"k. c #9F8949",
"l. c #998244",
"z. c #8D9646",
"x. c #93904E",
"c. c #848C51",
"v. c #888C51",
"b. c #869E5A",
"n. c #849454",
"m. c #989954",
"M. c #A38143",
"N. c #AE8443",
"B. c #A68B48",
"V. c #B18441",
"C. c #BD8740",
"Z. c #BE8C42",
"A. c #B28944",
"S. c #A5914B",
"D. c #AB934A",
"F. c #AA9A43",
"G. c #B39146",
"H. c #B49349",
"J. c #B59748",
"K. c #A89952",
"L. c #84A74A",
"P. c #88B54A",
"I. c #94BD46",
"U. c #81A45B",
"Y. c #8AA65D",
"T. c #8BAB5C",
"R. c #85AA5A",
"E. c #96A95D",
"W. c #86B050",
"Q. c #92B35C",
"!. c #9CBE5A",
"~. c #95B954",
"^. c #A9A946",
"/. c #BEA74A",
"(. c #A4BE47",
"). c #A8A555",
"_. c #B9A752",
"`. c #A6B75E",
"'. c #AAB95A",
"]. c #B4B353",
"[. c #B1B947",
"{. c #82A660",
"}. c #8CAD61",
"|. c #8DB163",
" X c #92B363",
".X c #99B761",
"XX c #9CBB65",
"oX c #A2BE63",
"OX c #C68D41",
"+X c #CA8F41",
"@X c #C08740",
"#X c #C39546",
"$X c #CD9443",
"%X c #C49A43",
"&X c #CB9B45",
"*X c #C39A49",
"=X c #CA9E48",
"-X c #D19642",
";X c #D19944",
":X c #C5A44A",
">X c #97C245",
",X c #9BC544",
"<X c #9EC54C",
"1X c #99C64A",
"2X c #9BC054",
"3X c #A1C64D",
"4X c #A2CA4C",
"5X c #A2C652",
"6X c #A6CA56",
"7X c #A8CC56",
"8X c #A7C65B",
"9X c #A9C65D",
"0X c #A7C95C",
"qX c #ABCA5E",
"wX c #A3C264",
"eX c #ABC665",
"rX c #ACC962",
"tX c #A4C269",
/* pixels */
";X;X;X;X;X;X;X;X;X;X;X;X;X;X;X;X;X;X;X;X;X;X;X;X;X;X;X;X;X;X;X;X;X;X;X;X;X;X;X;X;X;X-X+XOXu u u u y w #.$.} { 8.8.8.9.9.9.9.9.9.",
";X;X;X;X;X;X;X;X;X;X;X;X;X;X;X$X;X;X;X;X;X;X;X;X;X;X;X;X;X;X;X;X;X;X;X;X;X;X;X;X;X;X$X+X6.y e r y e @.X.$.} { 8.8.8.9.9.9.9.9.9.",
";X;X;X;X;X;X;X;X;X;X;X;X;X;X;X;X;X;X;X;X;X;X;X;X;X;X;X;X;X;X;X;X;X;X;X;X;X;X;X;X;X;X$XOXC.V.w w w @.@.X.$.=.w.w.w.w.w.q.9.9.9.8.",
";X;X;X;X;X;X;X;X;X;X;X;X;X;X;X;X;X&X;X;X;X;X;X;X;X;X;X;X;X;X;X;X;X;X;X;X;X;X;X;X;X;X&XZ.A.M.M.o.#.X.X.$.<.,.y.y.u.u.y.e.w.9.9.9.",
";X;X;X;X;X;X;X;X;X;X;X;X;X;X;X;X;X;X;X;X;X;X;X;X;X;X;X;X;X;X;X;X;X;X;X;X;X;X;X;X;X;X;XG.k.d.h. . .$.$.<.,.3X3X<X3X3X>Xi.e.&.0.9.",
";X;X&X;X;X;X;X;X;X;X;X;X;X;X;X;X;X;X;X;X;X;X;X;X;X;X$X;X;X;X;X;X;X;X;X;X;X;X;X;X;X;X&XD.j.R T b c %.=.y.(.3X9X9X8X8X5X>Xy.w.9.8.",
";X;X;X;X;X;X;X;X;X;X;X;X;X;X;X;X;X;X;X;X;X;X;X;X;X;X;X;X;X;X;X;X;X;X;X;X;X;X;X;X;X;X#XD.c.T K K F >.t.a.3X8XrXrXrX8X5X,Xy.w.9.8.",
";X;X;X;X;X;X;X;X;X;X;X;X;X;X;X;X;X;X;X;X;X;X;X;X;X;X;X;X;X;X;X;X;X;X;X;X;X;X;X;X;X;XJ.S.c.I ! K ) t.i.1X7XqXrXrX8X3X,Xy.e.9.9.8.",
";X;X;X;X;X;X;X;X&X;X;X;X;X;X;X;X;X;X;X;X;X;X;X;X;X;X;X;X;X;X;X;X;X;X;X;X;X;X;X;X;X;X;XD.c.T ! ( W.1X3X7XrXrXrX8X3Xp.y.e.q.9.9.8.",
";X;X;X;X;X;X;X;X;X;X;X;X;X;X;X;X;X;X;X;X;X;X;X;X;X;X;X;X;X$X;X;X;X;X;X;X;X;X;X;X;X;X*XD.c.T W ^ T.!.9XrXrXrX9X5Xp.e.w.q.9.q.9.{ ",
";X;X&X;X;X;X;X;X;X;X;X;X;X;X;X;X;X;X;X;X;X;X;X;X;X;X;X;X;X;X;X;X;X;X;X;X;X;X;X;X;X;X#XS.v.I ! ^ R..XoXoXoXoX!.I.:.w.9.9.q.w.w.w.",
";X;X;X;X;X;X;X;X;X;X;X;X;X;X;X;X;X;X;X;X;X;X;X$X;X;X;X;X;X;X;X;X;X;X;X;X;X;X;X;X;X;X#XS.c.I ! Q [ }.}.T.Y.U.L.-.*.&.9.w.e.y.i.p.",
";X;X;X;X;X;X;X;X;X;X;X;X;X;X;X;X;X;X;X;X;X;X;X;X;X;X;X;X;X;X;X;X;X;X;X;X;X;X;X;X;X;X#XS.c.I U U Q ] / ^ I P H n C &.0.r.i.,X3X3X",
";X;X;X;X;X;X;X;X;X$X;X;X;X;X;X;X;X;X;X;X;X;X;X;X;X;X;X;X;X;X;X;X;X;X;X;X;X;X;X;X;X;X#XD.v.I U U ! U U P % # . v V Z q.y.,X5X8X9X",
";X;X;X;X;X;X;X;X;X;X;X;X;X;X;X;X;X;X;X;X;X;X&X;X;X;X;X;X;X;X;X;X;X;X;X;X;X;X;X;X;X;X;XD.j.R I Y P P % % # X o j M h q.u.,X5X8X9X",
";X;X;X;X;X;X;X;X;X;X;X;X;X;X;X;X;X;X;X;X;X;X;X;X;X;X;X;X;X;X;X;X;X;X;X;X;X;X;X;X;X;X&XH.B.d.; ; ; = & = o j j x f h q.e.a.,X<X5X",
";X;X;X;X;X;X;X;X;X;X;X;X;X;X;X;X;X;X;X;X;X;X;X;X;X;X;X;X;X;X;X;X;X;X;X;X;X;X;X;X;X&X$XZ.A.M.s p 3 3 O @ z x x f g h 9.w.e.y.i.i.",
";X;X;X;X;X;X;X;X;X;X;X;X;X;X;X;X;X;X;X;X;X;X;X;X;X;X;X;X;X;X;X;X;X;X;X;X;X;X;X;X;X;X$XOXZ.w 0 9 4 , 3 @ | B g h 9.8.0.0.w.w.w.w.",
";X;X;X;X;X;X;X;X;X;X;X&X;X;X;X;X;X;X;X;X;X;X;X$X;X;X;X;X;X;X;X;X;X;X;X;X;X;X;X;X;X;X$X$X5.4.e t 1 < 5 7 | %.w.w.w.w.w.0.9.9.9.9.",
";X;X;X;X;X;X&X;X;X;X;X;X;X;X;X;X;X;X;X;X;X;X;X;X;X;X;X;X;X;X;X;X;X;X;X;X;X;X;X;X;X;X-X$X+X6.4.r t 1 9 ..;.,.u.u.u.y.t.e.q.9.9.8.",
";X;X;X;X;X;X;X;X;X;X;X;X;X;X;X;X;X;X;X;X;X;X;X;X;X;X;X&X;X;X;X;X;X;X;X;X;X;X;X;X;X;X;X;X-X5.5.u r t 0 o.1.<X4X4X4X3X>Xy.e.0.8.8.",
";X;X;X;X;X;X;X;X;X;X;X;X;X;X;X;X;X;X;X;X;X;X;X;X;X;X;X;X;X;X;X;X;X;X;X;X;X;X;X;X;X;X;X;X;X-X-X6.y e O.G.^.'.8X0X8X8X5X,Xt.q.9.8.",
";X;X;X;X;X;X;X;X;X;X;X;X;X;X;X;X;X;X;X;X;X;X;X;X;X;X;X;X;X;X;X;X;X;X;X;X;X;X;X;X;X;X;X;X;X;X-X5.6.4.@.H.).`.wXtXeXeX8X3Xi.e.w.q.",
";X;X;X;X;X;X;X;X;X;X;X;X;X;X;X;X;X;X;X;X;X;X;X;X;X;X;X;X;X;X;X;X;X;X;X;X;X;X;X;X;X;X;X;X;X;X;X-X5.6.#XH.).E. XXXtXeXrX6X<X>Xi.y.",
";X;X;X;X;X;X;X;X;X;X;X;X;X;X;X;X;X&X;X;X;X;X$X;X;X;X;X;X;X;X;X;X;X;X;X;X;X;X;X;X;X;X;X;X;X;X;X;X-X$X#XD.m.b.{.}.XXtXeX9X6X5X<X<X",
";X;X;X;X;X;X;X&X;X;X;X;X;X;X;X;X;X;X;X;X;X;X;X;X;X;X;X;X;X;X;X;X;X;X;X;X;X;X;X;X;X;X;X;X;X;X;X;X-X&XZ.D.v.~ ^ U. XwXrXrX9X9X8X8X",
";X;X;X;X;X;X;X;X;X;X;X;X;X$X;X;X;X;X;X;X;X;X;X;X;X;X;X;X;X;X;X;X;X;X;X;X;X;X;X;X;X;X;X;X;X;X;X;X-X-X#XB.d.E I ~ Y. XwX9X9X9X8X8X",
";X;X;X;X;X;X;X;X;X;X;X;X;X;X;X;X;X;X;X;X;X;X;X;X;X;X;X;X;X;X;X;X;X;X;X;X;X;X;X;X;X;X;X;X;X;X;X;X;X;X#XN.s ; - E n.T.Q.!.~.<X<X3X",
";X;X;X;X;X;X;X;X;X;X;X;X;X;X;X;X;X;X;X;X;X;X;X;X;X;X;X;X;X;X;X;X;X;X;X;X;X;X;X&X;X;X;X;X;X;X;X;X;X;X-XC.q 3 * ; E / ` P.I.i.i.i.",
";X;X;X;X;X;X;X;X;X;X;X;X;X;X;X;X;X;X;X;X;X;X;X;X;X;X;X;X;X;X;X;X;X;X;X;X;X;X;X;X;X;X;X;X;X;X;X;X;X;X+Xd 9 3   * - Q K ' F *.w.w.",
"$X;X;X;X;X;X;X;X;X;X;X;X;X;X;X;X;X;X;X;X;X;X;X;X;X;X;X;X;X;X;X;X;X;X;X;X;X;X;X;X;X;X;X&X&X&X*X*X=X=X$X+.8 5 3 O = : G K D A 9.0.",
";X;X;X;X;X;X;X;X;X;X;X;X;X;X;X;X;X;X;X;X;X;X;X;X;X;X;X;X;X&X;X;X;X;X;X;X;X;X;X;X;X;X$X#XJ.D.D.J._././.G.#.7 @ @ = $ G b C Z 8.8.",
";X;X;X;X;X;X;X;X;X;X;X;X;X;X;X;X;X;X;X;X;X;X;X;X;X;X;X;X;X;X;X;X;X;X;X;X;X;X;X;X;X;X;XH.S.j.j.m.).].].^.3.| c @ . X # k N Z 9.8.",
";X;X;X;X;X;X;X;X;X;X;X;X;X;X;X;X;X;X;X;X;X;X;X;X;X;X;X;X;X;X;X;X;X;X;X;X;X;X;X;X;X;X&XD.x.R ( b. XoX'.(.,.%.B x . X X j N Z 8.0.",
";X;X;X;X;X;X;X;X;X;X;X;X;X;X;X;X;X;X;X;X;X;X;X;X;X;X;X;X;X;X;X;X;X;X;X;X;X;X;X;X;X;X#XS.f.T ! [ }.wXqX4Xa.r.*.x v o o j M h 0.0.",
";X;X;X;X;X;X;X;X;X;X;X;X;X;X;X;X;X;X;X;X;X;X;X;X;X;X;X;X;X;X&X;X;X;X;X;X;X;X;X;X;X;XJ.S.f.Y ! / |.wXqX7X4Xa.t.F n l j x C h 0.8.",
";X;X;X;X;X;X;X;X;X;X;X;X;X;X;X$X;X&X;X;X;X;X;X;X;X;X;X;X;X;X;X;X;X;X;X;X;X;X;X;X;X;X$XS.c.Y U ] |.wXrXqX7X4X>X>.D V M f g { 9.0.",
";X;X;X;X;X;X;X;X;X;X;X;X;X;X;X;X;X;X;X;X$X;X;X;X;X;X;X;X;X;X;X;X;X;X;X;X;X;X;X;X;X;X#XS.v.I ! / |.oXeXrXrX9X5X>X>.*.g h { 9.9.9.",
";X;X;X;X;X;X;X;X;X;X;X;X;X;X;X;X;X;X;X;X;X;X;X;X;X;X;X;X;X;X;X;X;X;X;X;X;X;X;X;X;X;X#XD.j.R T / T..XoXeXeXrX9X<Xu.w.9.9.8.9.9.9.",
";X;X;X;X;X;X;X;X;X;X;X;X;X;X;X;X;X;X;X;X;X;X;X;X;X;X;X;X;X;X;X;X;X;X;X;X;X;X;X;X;X;X#XG.k.d.c.c.b.T. XXXtXeXeX4Xu.w.0.8.8.8.9.8.",
";X;X;X;X;X;X;X;X;X;X;X;X;X;X;X;X;X;X;X;X;X;X;X;X;X;X;X;X;X;X;X;X;X;X;X;X;X;X;X;X;X;X;X#XA.k.l.g.c.b.U.|.XXeXqX4Xu.r.9.8.8.9.8.8.",
";X;X;X;X;X;X;X;X;X;X;X;X;X;X;X;X;X;X;X;X;X;X;X;X;X;X;X;X;X;X;X;X;X;X;X;X;X;X;X;X;X;X$X5.4.O.o.a R T ^ {. XoX8X3Xu.w.9.9.9.9.9.9.",
";X;X;X;X;X;X;X;X;X;X;X;X;X;X;X;X;X;X;X;X;X;X;X;X;X;X;X;X;X;X;X;X;X;X;X;X;X;X;X;X;X;X-X$X6.4.O.s d.E T ~ Y.Q.~.I.,.q.9.0.q.q.w.w.",
"&X$X;X;X;X;X;X;X;X;X;X;X;X;X;X;X;X;X;X;X;X;X;X;X;X;X;X;X;X;X;X;X;X;X;X;X;X;X;X;X;X;X;X5.5.6.4.N.l.p s.f.n.b.L.P.*.&.q.w.e.y.i.p.",
";X;X;X;X;X;X;X;X;X;X;X;X;X;X;X;X;X;X;X;X;X;X;X;X;X;X;X;X;X;X;X;X;X;X;X;X;X;X;X;X;X;X;X-X-X5.OX+.V.M.a h.; H H n D &.q.e.p.,X<X5X",
";X;X;X;X;X;X;X;X;X;X;X;X;X;X;X;X;X;X;X;X;X;X;X;X;X&X;X;X;X;X;X;X;X;X;X;X;X;X;X;X;X;X;X;X;X-X$XOX4.O.q p & + o v M Z q.u.,X5X8X9X",
";X;X;X;X;X;X;X;X&X;X;X;X;X;X;X;X;X;X;X;X;X;X;X;X;X;X;X;X;X;X;X;X;X;X;X;X;X;X;X;X;X;X;X;X;X;X-X+X4.O.q 6 @ o o j M h q.y.,X5X8X9X",
";X;X;X;X;X;X;X;X;X;X;X;X;X;X;X;X;X;X;X;X;X$X;X;X;X;X;X;X;X;X;X;X;X;X;X;X;X;X;X;X;X;X;X;X;X;X$X#XA.M.a 6 + j j x f h w.r.a.,X<X3X",
";X;X;X;X;X;X;X;X;X;X;X;X;X;X;X;X;X;X;X;X;X;X;X;X;X;X;X;X;X;X;X;X;X;X;X;X;X;X;X;X;X;X;X;X;X;X#XH.B.d.s.m n x M f g h 9.w.r.y.i.i.",
";X;X;X;X;X;X;X;X;X;X;X;X;X;X;X;X;X;X;X;X;X;X;X;X;X;X;X;X;X;X;X;X;X;X;X;X;X;X;X;X;X;X;X;X;X;X#XD.g.R J K D C g h { 8.9.q.w.w.w.w.",
";X;X;X;X;X;X;X;X;X;X;X;X;X;X;X;X;X;X;X;X;X;X;X;X;X;X;X;X;X;X;X;X;X;X;X;X;X;X;X;X;X;X;X;X;X;X#XD.z.J K S F *.w.w.q.w.q.q.q.9.9.9.",
";X;X;X;X;X;X;X;X;X;X;X;X;X;X;X;X;X;X;X;X;X;X;X;X;X;X;X;X;X;X;X;X;X;X;X;X;X;X;X;X;X;X;X;X;X;X%XG.z.' S D >.t.u.a.p.u.y.e.w.9.9.9.",
";X;X;X;X;X;X;X;X;X;X;X;X;X;X;X;X;X;X;X;X;X;X;X;X;X;X;X;X;X;X$X;X;X;X;X;X;X;X;X;X;X;X;X;X;X;X7.2.;.F F >.t.>X,X4X3X<X,Xu.e.q.9.8.",
";X;X;X;X;X;X;X;X;X;X;X;X;X;X;X;X;X;X;X;X;X;X;X;X;X;X;X;X;X;X;X;X;X;X;X;X;X;X;X;X;X;X;X;X;X;X7.2.$.%.*.t.>X5X8XeX9X8X5X>Xy.q.{ 8.",
";X;X;X;X;X&X$X;X;X;X;X;X;X;X;X;X;X;X;X;X;X;X;X;X;X;X;X;X;X;X;X;X;X;X;X;X;X;X;X;X;X;X;X;X;X;X7.2.3.r.r.p.<XrXeXeXrX9X5X,Xy.q.9.8.",
";X;X;X;X;X;X;X;X;X;X;X;X;X;X;X;X;X;X;X;X;X;X;X;X;X;X;X;X;X;X;X;X;X;X;X;X;X;X;X;X;X;X;X;X7.;X:X/.3.a.a.4X6XrXeX0X8X3X,Xy.e.q.9.9.",
";X;X;X;X;X;X;X;X;X;X;X;X;X;X;X;X;X;X;X;X;X;X;X;X;X;X;X;X;X;X;X;X;X;X;X;X;X;X;X;X;X;X;X;X;X;X:X:X[.4X3X6XeXrXrX5X<Xi.y.e.q.q.9.9.",
";X;X;X;X;X;X;X;X;X;X;X;X;X;X;X;X;X;X;X;X;X;X;X;X;X;X;X;X;X;X;X;X;X;X;X;X;X;X;X;X;X;X;X;X;X;X=X:X].'.9XrXeXeX9X5Xp.e.w.9.9.9.9.9.",
";X&X;X;X;X;X;X;X;X;X;X;X$X;X;X;X;X;X;X;X;X;X;X;X;X;X;X;X;X;X;X;X;X;X;X;X;X;X;X;X;X;X;X;X;X;X;X:X:X'.oXoXoXoX2X1Xi.e.w.q.9.9.9.9.",
";X;X;X;X;X;X;X;X;X;X;X&X;X;X;X;X;X;X;X;X;X;X;X;X;X;X;X;X;X;X;X;X;X;X;X;X;X;X;X;X;X;X;X;X;X;X;X=XJ.K.m.m.E.Q.Q.~.I.:.y.e.w.9.9.9.",
";X;X;X;X;X;X;X;X;X;X;X;X;X;X;X;X;X;X;X;X;X;X;X;X;X;X;X;X-X;X;X;X;X;X;X;X;X;X;X;X;X;X;X;X;X-X-X+XA.d s v.n.n.` R.~.I.,Xy.e.q.9.9.",
";X;X;X;X;X;X;X;X;X;X;X;X;X;X;X;X;X;X;X;X;X;X;X;X;X;X;X;X;X;X;X;X;X;X;X;X;X;X;X;X;X;X;X;X;X-X+Xd d < i i ; T ^ ` Q.8X3X,Xy.w.9.8.",
";X;X;X;X;X;X;X;X;X;X;X;X;X;X;X;X-X;X;X;X;X;X;X;X;X;X;X;X;X;X;X;X;X;X;X;X;X;X;X;X;X;X;X;X;X;X+Xu 1 < , O & : Q [ |.XX8X3Xy.w.9.9.",
";X;X;X;X;X;X;X;X;X;X;X;X;X;X;X;X;X;X;X;X;X;X;X;X;X;X;X;X;X;X;X;X;X;X;X;X;X;X;X;X;X;X;X;X;X;X-Xd 1 < >   & : U ]  XwX9X3Xi.w.9.8."
};
