/* XPM */
static char *path_03[] = {
/* columns rows colors chars-per-pixel */
"64 64 208 2 ",
"   c #50753C",
".  c #57793A",
"X  c #6E7736",
"o  c #71723E",
"O  c #4D6D43",
"+  c #596B48",
"@  c #4E7244",
"#  c #537245",
"$  c #5E7242",
"%  c #5E7C46",
"&  c #567A4B",
"*  c #5C7B4B",
"=  c #567747",
"-  c #686F49",
";  c #676645",
":  c #776341",
">  c #697849",
",  c #677A4C",
"<  c #7A7D4B",
"1  c #777749",
"2  c #895B39",
"3  c #995A34",
"4  c #996439",
"5  c #8B763D",
"6  c #827D3A",
"7  c #937E3F",
"8  c #82643E",
"9  c #A76937",
"0  c #B06C36",
"q  c #A47C3E",
"w  c #AA793D",
"e  c #B77739",
"r  c #B27C3D",
"t  c #BB7C3A",
"y  c #B97538",
"u  c #C17F3A",
"i  c #8D7A44",
"p  c #9B7E43",
"a  c #927C44",
"s  c #876A41",
"d  c #A47E41",
"f  c #7CB61F",
"g  c #5D892E",
"h  c #5D8933",
"j  c #5B8630",
"k  c #6B9B2B",
"l  c #67982A",
"z  c #628A34",
"x  c #6B9B3C",
"c  c #659638",
"v  c #739839",
"b  c #788A3C",
"n  c #6DA127",
"m  c #70A32B",
"M  c #79AC2D",
"N  c #76AD2B",
"B  c #7CB522",
"V  c #7EB920",
"C  c #7CB329",
"Z  c #6FA337",
"A  c #7BAE35",
"S  c #72A33E",
"D  c #77A837",
"F  c #7DB132",
"G  c #5D824D",
"H  c #5B8643",
"J  c #5E8352",
"K  c #6D8E45",
"L  c #6C834C",
"P  c #628C4C",
"I  c #6E8C4C",
"U  c #64864A",
"Y  c #7B8247",
"T  c #7C824C",
"R  c #718E4D",
"E  c #699647",
"W  c #6D9B41",
"Q  c #6C954A",
"!  c #659740",
"~  c #7A9743",
"^  c #6B8652",
"/  c #658B55",
"(  c #6D8A54",
")  c #638C59",
"_  c #698F58",
"`  c #678151",
"'  c #728C53",
"]  c #7B8A50",
"[  c #6B9354",
"{  c #6B925A",
"}  c #68955C",
"|  c #719252",
" . c #7D9A55",
".. c #759C5B",
"X. c #7A9C5B",
"o. c #739957",
"O. c #73A141",
"+. c #78A745",
"@. c #7CA35C",
"#. c #78A257",
"$. c #7AA161",
"%. c #81BE1D",
"&. c #B5803E",
"*. c #BD863F",
"=. c #82BB22",
"-. c #85BC2B",
";. c #81B629",
":. c #83B532",
">. c #8CBD35",
",. c #84B53B",
"<. c #8FBE3B",
"1. c #84B834",
"2. c #91BF3B",
"3. c #C2823C",
"4. c #C9853C",
"5. c #C6893E",
"6. c #CC8C3F",
"7. c #D38E3E",
"8. c #83C217",
"9. c #85C21B",
"0. c #88C41E",
"q. c #86C120",
"w. c #8AC323",
"e. c #8EC32C",
"r. c #90C52B",
"t. c #92C82B",
"y. c #8FC036",
"u. c #92C434",
"i. c #95C439",
"p. c #98C53E",
"a. c #99C83A",
"s. c #82844C",
"d. c #8C834A",
"f. c #858B4E",
"g. c #8D8B4D",
"h. c #878344",
"j. c #958244",
"k. c #9B8345",
"l. c #958B4B",
"z. c #94904E",
"x. c #848D50",
"c. c #839353",
"v. c #819C59",
"b. c #859D55",
"n. c #A38243",
"m. c #AD8442",
"M. c #A38C48",
"N. c #A58C48",
"B. c #B18843",
"V. c #BB8B42",
"C. c #B58541",
"Z. c #A5924A",
"A. c #AB9249",
"S. c #B89648",
"D. c #B89146",
"F. c #84AC41",
"G. c #86A64F",
"H. c #86AC4B",
"J. c #8DB943",
"K. c #86B04F",
"L. c #80B142",
"P. c #93BC46",
"I. c #95BD49",
"U. c #98BF4C",
"Y. c #86A653",
"T. c #8AA55A",
"R. c #87AB5F",
"E. c #8CAB5C",
"W. c #83A958",
"Q. c #93AE5D",
"!. c #8CB159",
"~. c #92B952",
"^. c #9ABA56",
"/. c #93B35D",
"(. c #9DBE5B",
"). c #90B753",
"_. c #8BAD61",
"`. c #95AF61",
"'. c #8EB062",
"]. c #92B263",
"[. c #99B761",
"{. c #9FBB60",
"}. c #A2BE63",
"|. c #C48D41",
" X c #CC8F40",
".X c #C29646",
"XX c #CE9442",
"oX c #CB9845",
"OX c #D09642",
"+X c #D19944",
"@X c #9BC544",
"#X c #9DC845",
"$X c #9EC54B",
"%X c #9CC153",
"&X c #A0C64E",
"*X c #A2C84C",
"=X c #A3CC47",
"-X c #A2C652",
";X c #AACC55",
":X c #A7C65B",
">X c #A8C75E",
",X c #ABCB5C",
"<X c #A6C855",
"1X c #A5C164",
"2X c #ABC664",
"3X c #ADC962",
"4X c #AFC868",
"5X c #B0C969",
/* pixels */
"9.9.9.9.9.9.9.9.9.9.9.9.8.9.8.8.9.9.9.9.9.9.9.8.8.8.w.u.$X:X:X&Xu.w.9.8.8.8.8.8.9.9.9.9.9.9.9.9.9.9.9.9.9.9.9.9.9.%.9.9.9.9.9.9.",
"9.9.9.9.9.9.9.9.9.9.9.9.9.9.9.9.9.9.9.9.9.9.9.9.9.9.w.i.$X:X:X$Xi.w.9.9.9.9.9.9.9.9.9.9.9.9.9.9.9.9.9.9.9.9.9.9.9.9.9.9.9.9.9.9.",
"9.9.9.9.9.9.9.9.9.9.9.0.w.w.w.w.w.9.9.9.9.9.9.9.q.w.e.@X-X>X:X$Xi.w.9.9.9.w.w.w.0.9.9.9.9.9.9.9.9.9.9.9.9.9.9.9.9.9.9.9.9.9.9.9.",
"8.8.9.9.9.9.9.9.9.9.0.w.e.u.u.e.w.q.9.8.9.9.9.w.e.u.i.$X<X>X>X$Xi.w.w.w.e.u.u.e.w.0.9.9.9.9.9.9.8.8.%.9.9.9.9.9.9.9.9.9.9.9.9.9.",
"9.8.9.9.9.9.9.9.8.9.w.r.i.@X@Xp.e.w.9.9.8.9.w.e.u.@X$X<X2X2X:X$Xi.w.q.e.i.@X@Xu.r.=.9.9.8.9.9.9.9.8.9.9.9.9.9.9.9.9.9.9.9.9.9.9.",
"9.9.9.9.9.9.9.8.9.9.w.u.@X-X-X@Xu.w.9.8.8.9.w.u.@X-X>X3X2X2X:X$Xu.w.w.u.@X-X-X@Xi.w.9.9.9.9.9.%.9.9.9.9.9.9.9.9.9.9.9.9.9.9.9.9.",
"w.w.w.w.0.0.9.9.%.=.-.2.$X-X-X@Xu.w.9.8.8.9.w.i.$X>X2X2X2X:X-X@Xe.w.w.i.$X:X:X$Xi.w.9.8.8.9.9.0.w.w.w.=.0.9.9.9.9.9.9.9.9.9.0.9.",
"i.i.u.t.w.0.9.V C M A L.J.@X@Xi.e.q.8.8.8.9.w.u.$X>X2X2X:X$X@Xu.e.w.w.i.&X>X>X-Xi.w.9.8.8.9.9.w.r.u.u.r.w.0.9.9.9.%.9.9.9.9.9.9.",
"*X$X#Xa.t.w.q.C D Z O.+.,.<.u.e.w.0.8.8.8.9.e.i.$X2X2X:X$Xp.u.e.q.9.e.i.&X>X2X&Xi.w.9.8.8.9.0.e.i.@X@Xi.r.w.9.8.9.9.9.9.9.9.9.9.",
">X:X-X@Xu.w.V N Z E Q O.F -.w.0.0.0.9.8.8.0.w.u.$X:X:X-X@Xe.w.9.9.9.w.u.$X:X:X$Xi.w.9.9.8.9.w.i.&X-X&X@Xi.w.9.9.9.9.9.9.9.9.9.9.",
"1X}.(.I.>.;.B m x E E O.F -.w.w.w.w.w.0.9.0.w.u.@X-X&X@Xu.q.8.8.8.9.w.u.@X-X-X@Xu.w.9.9.%.w.e.p.&X:X:X&Xi.=.9.9.8.9.9.9.9.9.9.9.",
"].'.E.H.S m k k x x S D ,.y.u.i.u.i.i.e.w.0.w.e.i.@X@Xi.e.9.8.8.%.8.w.e.i.@X@Xi.e.w.9.w.e.u.i.&X:X>X:X&Xi.r.9.8.9.9.9.9.9.9.9.9.",
"$.X...Q ! z g g k m F ,.<.@X$X$X*X*X#Xi.t.w.w.w.e.u.u.e.w.9.8.8.8.8.0.w.e.u.u.e.w.w.0.e.i.@X&X:X2X3X>X&Xi.w.9.8.9.9.9.9.9.9.9.9.",
"{ { / J =   . g n N -.u.@X-X:X1X>X:X-X@Xu.w.0.q.q.w.w.q.q.9.9.9.9.9.9.9.w.w.w.q.9.%.w.u.@X&X:X2X2X2X:X&Xi.r.9.8.8.9.9.9.9.9.9.9.",
"^ ^ L * # O # h m C e.p.*X>X2X1X}.{.^.P.e.q.0.8.8.8.9.q.q.w.w.w.w.w.w.w.q.9.9.9.9.9.w.i.$X:X2X2X2X:X-X@Xr.=.9.9.9.9.9.9.9.9.9.9.",
"s.s.< > + # = z D <.p.=X;X2X2X}.].T.G.F.1.=.8.8.8.8.0.q.e.u.i.i.i.i.u.e.w.9.9.8.8.9.w.i.&X>X2X2X:X&X@Xi.r.0.%.8.8.8.8.9.9.9.9.9.",
"p p i i , * G Q H.@X$X;X,X3X1XQ.v.' K v M =.%.8.8.8.0.e.u.@X$X&X&X&X@Xa.t.0.8.8.8.0.-.a.-X:X3X:X&Xp.>.r.w.9.9.8.8.9.9.9.9.9.9.9.",
"r r d a < ` / o.W.(.:X3X3X3X{.T.R % . g n %.0.8.8.9.w.u.@X&X:X:X>X:X-X@Xt.0.8.8.8.0.=.a.&X:X:X-Xi.r.w.%.0.9.9.9.9.9.9.9.9.9.9.9.",
"u u t k.s.( / .._.].}.1X2X1X[.c.L $ . g k M %.%.q.q.e.p.&X2X2X2X2X:X;Xp.a.%.0.8.8.0.w.t.@X-X*X@Xi.w.9.0.=.w.w.=.w.=.w.%.0.%.9.9.",
"4.4.V.n.s.( ) o.$._.'.].'.'.R. .Y o o X b m :.1.y.u.@X$X<X2X2X3X:X&X=Xa.t.%.0.8.8.8.%.>.2.@X@Xa.e.0.9.w.r.r.a.i.i.a.a.r.w.0.9.9.",
"7.XXV.N.f.( ) ) } X.$.X.@...X.f.i 5 5 6 b v O.+.J.$X&X<X3X2X2X:X&Xa.t.t.%.%.%.8.8.8.0.0.>.t.t.t.0.%.w.r.a.p.&X&X&X&X@Xi.r.=.0.9.",
"OXXX.XA.g.' ) ) ) _ { { _ { ' s.j.q q a h.K Q #.!.%X:X2X3X2X>X$Xp.>.-.%.%.%.%.0.0.%.%.0.0.w.-.0.0.9.=.r.@X-X:X>X>X:X-X@Xu.w.9.8.",
"+X+X.XA.z.] ( ( ( ( ( ( ( ^ T d.d r r d s.^ o..._.'.1X1X1X:X%X@X>.;.%.=.%.=.;.=.=.=.w.0.0.0.8.8.%.9.w.i.&X:X2X2X2X:X-X@Xr.w.9.8.",
"+X+XoXS.Z.z.f.x.x.f.f.f.s.T d.p w r d d s.^ ) } $._./.^.%X$X@X@X:.:.m ;.n k n ;.>.2.t.t.w.0.8.8.8.9.w.a.&X>X2X2X:X-X@Xi.r.0.9.9.",
"+X+X+XoXS.A.A.Z.Z.Z.Z.M.k.p p w t t r p T ^ ) ) } ..@.K.J.i.>.1.,.v x c j j g v ,.I.@X2.t.%.%.8.%.9.=.a.&X>X2X:X&Xp.u.r.w.0.%.9.",
"+X+X+XoXoX+X.X.X.X.XS.V.V.&.r t t t r p s.^ ) ) ) ) | +.:.-.-.F S R P & #   . E G.^.-X$Xt.-.0.8.8.9.w.a.&X:X:X&Xp.>.w.9.%.0.9.9.",
"+X+X+X+X+X+X+X+X+XOXOXXX5.3.u u u u &.n.d.T ^ / ^ ( R ~ D C C N W H J & # # , R T.{.:X=Xa.%.0.8.8.0.w.u.@X-X-X&Xu.w.9.9.9.9.9.9.",
"+X+X+X+X+X+X+X+X+XOXOXOX6.4.4.4.4.5.*.m.k.d.T i < T Y ~ D Z Z x U % & & * U R v.`.}.>X&Xa.t.%.8.8.8.0.>.i.@Xp.a.r.%.9.8.8.9.9.9.",
"+X+X+X+X+X+X+X+X+X+X+XOX7.OX7. X6.6.|.C.m.k.p p p p j.h.v ~ c H = @ # * (  .Y.`.}.}.2X&Xa.w.0.8.8.9.0.w.r.u.u.r.0.9.8.9.8.9.9.9.",
"+X+X+X+X+X+X+X+X+X+X+X+XOXOXOX+XXXXXXX5.*.&.r r r r n.j.f.R P & @ O # U  .Q.}.1X2X2X>X&Xu.0.9.8.9.9.%.0.0.0.=.w.0.9.9.0.9.9.9.9.",
"+X+X+X+X+X+X+X+X+X+X+X+XOX+X+X+X+X+XXXXX5.3.3.u u u r n.h.] ` * @   # I T.{.2X3X3X>X&X=Xu.=.0.0.8.0.0.9.9.9.0.0.=.w.=.w.0.9.9.9.",
"+X+X+X+X+X+X+X+X+X+X+X+X+X+X+X+X+X+X+XXX6.5.4.4.4.4.3.B.k.d.< > = # % | T.1X3X,X;X&Xp.a.t.0.8.8.8.8.8.%.%.9.0.=.r.a.u.r.w.0.9.9.",
"+X+X+X+XoX+X+X+X+X+X+X+X+X+X+X+X+X+X+XOX X X XOX X X|.3.C.d i i > * ` o._.1X3X;X#Xi.u.r.q.0.9.9.8.9.8.8.8.9.q.e.p.@X@Xi.e.w.9.8.",
"+X+X+X+X+X+X+X+X+X+X+X+X+X+X+X+X+X+XOXOXOXOXOX+XOXOX X|.|.d d p < , ) ..`.{.:X*X@Xe.w.q.0.0.0.8.9.9.9.9.9.9.w.u.@X-X-X@Xu.w.9.8.",
"+X+X+X+X+X+X+X+X+XoX+X+X+X+X+X+X+X+X+X+X+X+X+X+XOXOXOX X|.u d d T ^ { .._.].%X%Xi.e.V V f f f V -.q.w.0.0.9.w.u.@X-X-X@Xu.w.9.8.",
"+X+X+X+X+X+X+X+X+X+X+X+X+X+X+X+X+X+X+X+X+X+X+X+X+X+XOX Xu u d p s.^ ) o.$._.!.K.+.D N m n n m C :.e.u.e.w.9.q.e.p.@X@Xp.e.w.9.9.",
"+X+X+X+X+X+X+X+X+X+X+X+X+X+X+X+X+X+X+X+X+X+X+X+X+X+X+X X4.u y d T ^ ) _ } ..#.#.O.W ! c h h z v F.P.@Xu.e.w.0.w.e.u.i.e.e.q.9.9.",
"+X+X+X+X+X+X+X+X+X+X+X+X+X+X+X+X+X+XOX+X+X+X+X+X+X+XOX Xu u d d s.^ ) ) _ _ _ _ { _ P H .   . K H.^.-X=Xu.w.q.9.q.w.q.w.9.9.9.9.",
"+X+X+X+X+X+X+X+X+X+X+X+X+X+X+X+X+X+X+X+X+X+X+X+X+X+XOX X|.u d d d.T ^ ^ ^ ^ ^ ` ^ ` , * @ O = ^ T.{.>X*Xp.e.w.9.q.9.9.9.9.9.9.9.",
"+X+X+X+X+X+X+X+X+X+X+X+X+X+X+X+X+X+X+X+X+X+X+X+X+XOXOXOX X X|.m.j.d.s.T s.T Y < 1 - - + O O & ' T.}.2X:X=Xp.u.e.w.9.8.9.8.9.9.9.",
"+X+X+X+X+X+X+X+X+X+X+XoX+X+X+X+X+X+X+X+X+X+X+X+X+X+X+XXXXX X|.C.m.n.p p p p a 5 s s : ; + & J o.`.}.3X3X;X&X@Xu.e.q.9.8.9.9.9.9.",
"+X+X+X+X+X+X+X+X+X+X+X+X+X+X+X+X+X+X+X+X+X+X+X+X+X+X+X+X+XXX X|.*.&.r r r r w 9 4 2 : : - , / o.E.}.2X3X2X:X-X@Xu.w.9.9.8.9.9.9.",
"+XoX+X+X+X+X+X+X+X+X+X+X+X+X+X+X+X+X+X+X+X+X+X+X+X+X+X+X+X+XoX X5.3.*.t 3.t t 0 3 3 2 2 1 1 ' X.T./.}.}.2X2X:X&Xu.w.9.9.9.9.9.9.",
"+X+X+X+X+X+X+X+X+X+X+X+X+X+X+X+X+X+X+X+X+X+X+X+X+X+X+X+X+X+X+XXX6.4.4.4.4.4.3.y 0 9 3 4 5 d.f.] c.b.T.`.}.1X>X&Xi.w.9.9.8.9.9.9.",
"+X+X+X+X+X+X+X+X+X+X+X+X+X+X+X+X+X+X+X+X+X+X+X+X+X+X+X+X+X+X+XXXXX6.6.6.6.6.5.t y 0 9 9 w d p i Y U R b.].}.>X*Xa.w.9.9.8.9.9.9.",
"+X+X+X+X+X+X+X+X+X+X+X+X+X+X+X+X+X+X+X+XOX+X+X+X+X+X+X+X+X+X+X+X+X+XXX+X+X+XXX5.u t e e r r q 5 o - % I T.{.:X*Xu.w.9.8.9.9.9.9.",
"+X+X+X+X+X+X+XXX+X+X+X+X+X+X+X+X+X+X+X+X+X+X+X+X+X+X+X+X+X+X+X+X+X+X+X+X+X+XOXXX4.3.3.t t r q i o > % Q Y.^.-X#Xu.w.9.%.8.9.9.9.",
"+X+X+X+X+X+X+X+X+X+X+X+X+X+X+X+X+X+X+X+X+X+X+X+X+X+X+X+X+X+X+X+X+X+X+X+X+X+X+X7. X5.3.V.m.n.a h.Y L R ~ H.P.@Xa.r.w.9.9.9.9.9.9.",
"+X+X+X+X+X+X+X+X+X+X+X+X+X+X+X+X+X+X+X+X+X+X+XOX+X+X+X+XoX+X+X+X+X+X+X+X+X+X+X+XXX X|.B.k.d.s.x. .b.G.H.J.y.e.e.w.q.9.9.8.9.9.9.",
"+X+X+X+X+X+X+X+X+X+X+X+X+X+X+X+X+X+X+X+X+X+X+X+X+X+X+X+X+X+X+X+X+X+X+X+X+X+X+X+XOXXX.XA.g.] ' X.T.Q.^.I.y.y.w.q.9.0.9.9.9.9.9.9.",
"+X+X+X+X+XoX+X+X+X+X+X+X+X+X+X+X+X+X+X+X+X+X+X+X+X+X+X+X+X+X+X+X+X+X+X+X+X+X+X+XOX+X.XA.l.] ' v.E./.(.$Xi.e.w.0.q.0.8.9.9.9.9.9.",
"+X+X+XoX+X+X+X+X+XXX+X+X+X+X+X+X+X+X+X+X+X+X+X+X+X+X+X+X+X+X+X+X+X+X+X+X+X+X+X+X+X+X.XD.k.g.x.c.b.Q./.~.P.i.u.e.w.q.9.9.9.9.9.9.",
"+X+X+X+X+X+X+X+XoX+X+X+X+X+X+X+X+X+X+X+X+X+X+X+X+X+X+X+X+X+X+X+X+X+X+X+X+X+X+X+X+X+X+X.XC.m.k.g.c.v.W.E.~.@X@Xa.u.q.9.9.9.9.9.9.",
"+X+X+X+X+X+X+X+X+X+X+X+X+X+X+X+X+X+X+X+X+X+X+X+X+X+X+X+X+X+X+X+X+X+X+X+X+X+X+X+X+X+XXX X7.d d j.x.] o.@./.(.-X@Xu.q.9.9.9.9.9.9.",
"+X+X+X+X+X+X+X+X+X+X+X+X+X+X+X+X+X+X+X+X+X+X+X+X+X+X+X+X+X+X+X+X+X+X+X+X+X+X+X+X+X+XXX|.V.d d a s.' ..@./.^.&X@Xu.w.9.8.8.9.9.9.",
"+X+X+X+X+X+X+X+X+X+X+X+X+X+X+X+X+X+X+X+XOX+X+XOX+X+X+X+X+X+X+X+X+X+X+X+X+X+X+X+X+XoXoX|.B.m.k.l.c.X.v.E.).%X@Xi.e.w.9.9.9.9.9.9.",
"+X+X+X+X+X+X+X+X+X+X+X+X+X+X+X+X+X+X+X+X+X+X+X+X+X+X+X+X+X+X+X+X+X+X+X+X+X+X+X+X+X+XXXD.M.d.f.c.b.E.!.).P.i.u.e.w.0.9.9.9.9.9.9.",
"oX+X+X+X+X+X+X+X+X+X+X+X+X+X+X+X+X+X+X+X+X+X+XOX+X+X+X+X+X+X+X+X+X+X+X+X+X+X+X+X+X+X.XA.g.] ' X._.[.(.$Xi.e.w.q.0.9.9.9.9.9.9.9.",
"+X+X+X+X+X+X+X+X+X+X+X+X+X+X+X+X+X+X+X+X+X+X+X+X+X+X+X+X+X+X+X+X+X+X+X+X+X+X+X+X+X+X.XZ.g.( { ..`.}.>X*X@Xe.w.9.9.9.8.9.9.9.9.9.",
"+X+X+X+X+X+X+X+X+X+X+X+X+X+X+XXX+X+X+X+X+X+X+X+X+X+X+X+X+X+X+X+X+X+X+X+X+X+X+X+X+X+X.XZ.x.( { @._.}.>X<X$Xp.u.e.w.0.9.9.9.9.9.9.",
"+X+X+X+X+X+X+X+X+X+X+X+X+X+X+X+X+X+X+X+X+X+X+X+X+X+X+X+X+X+X+X+X+X+X+X+X+X+X+X+X+X+XoXZ.f.( _ @.'.1X3X>X<X$X@Xu.e.q.9.9.8.9.9.9.",
"+X+XXX+X+X+X+X+X+X+X+X+X+X+X+X+X+X+X+X+X+X+X+X+X+X+X+X+X+X+X+X+X+X+X+X+X+X+X+X+X+X+X.XZ.f.( { X.'.}.2X3X3X>X-X@Xu.w.9.8.9.9.9.9.",
"+X+X+X+X+X+X+X+X+X+X+X+X+X+X+X+X+X+X+X+X+X+X+X+X+X+X+X+X+X+X+X+X+X+X+X+X+X+X+X+X+X+X.XZ.x.' { ..'.}.2X5X4X2X>X$Xi.w.9.9.8.9.9.9.",
"+X+X+X+X+X+X+X+X+XoX+X+X+X+X+X+X+X+X+X+X+X+X+X+X+X+X+X+X+X+X+X+X+X+X+X+X+X+X+X+X+X+X.XZ.f.( { ..'.1X2X5X4X4X>X$Xi.w.9.8.9.9.9.9."
};
