/* XPM */
static char *path_09[] = {
/* columns rows colors chars-per-pixel */
"64 64 228 2 ",
"   c #496B3A",
".  c #4F743A",
"X  c #50733A",
"o  c #587838",
"O  c #746C3E",
"+  c #6A773A",
"@  c #78733B",
"#  c #656D3C",
"$  c #4B6C42",
"%  c #456B46",
"&  c #506E47",
"*  c #5A6F40",
"=  c #4D754A",
"-  c #527343",
";  c #5A734A",
":  c #5A794A",
">  c #567847",
",  c #67784B",
"<  c #7B7C4A",
"1  c #747848",
"2  c #7E6441",
"3  c #935B36",
"4  c #A45F36",
"5  c #87792C",
"6  c #986535",
"7  c #88763B",
"8  c #927138",
"9  c #A96837",
"0  c #A7793B",
"q  c #B37D3D",
"w  c #BD7C3A",
"e  c #B97238",
"r  c #B16D37",
"t  c #C27E3A",
"y  c #897542",
"u  c #927C44",
"i  c #9D7E43",
"p  c #846842",
"a  c #A47E41",
"s  c #A97D41",
"d  c #7CB61F",
"f  c #7EB91E",
"g  c #73AA1E",
"h  c #5C872D",
"j  c #5C8631",
"k  c #5E8A34",
"l  c #618D2D",
"z  c #67832E",
"x  c #6C9A2D",
"c  c #6B9A26",
"v  c #628E3A",
"b  c #63943A",
"n  c #6B973B",
"m  c #769234",
"M  c #6EA125",
"N  c #6EA22A",
"B  c #71A42A",
"V  c #78AE2E",
"C  c #79AB25",
"Z  c #7CB523",
"A  c #7FBA22",
"S  c #7BB32B",
"D  c #6FA03B",
"F  c #71A533",
"G  c #75AA32",
"H  c #7BAD33",
"J  c #72A33D",
"K  c #7BAC3D",
"L  c #7DB137",
"P  c #5A8345",
"I  c #5B8448",
"U  c #5B8452",
"Y  c #6A824C",
"T  c #628C4C",
"R  c #698A49",
"E  c #79844D",
"W  c #79894B",
"Q  c #6A9747",
"!  c #6C9B42",
"~  c #699548",
"^  c #739A46",
"/  c #6A8451",
"(  c #688E59",
")  c #678954",
"_  c #758D54",
"`  c #7A8950",
"'  c #6C9454",
"]  c #6C9358",
"[  c #699453",
"{  c #74995A",
"}  c #799D5B",
"|  c #749956",
" . c #73A344",
".. c #7BA649",
"X. c #7EB241",
"o. c #79A259",
"O. c #6FA24B",
"+. c #789D60",
"@. c #82BE1D",
"#. c #928E2D",
"$. c #AA893E",
"%. c #B5803E",
"&. c #BC843E",
"*. c #BC8A3F",
"=. c #82B727",
"-. c #82BC22",
";. c #82B72A",
":. c #85BB2C",
">. c #8BB327",
",. c #8BBC35",
"<. c #88B73A",
"1. c #90BF3D",
"2. c #97BA36",
"3. c #97A033",
"4. c #C4833C",
"5. c #C9853B",
"6. c #C5893F",
"7. c #CB8B3E",
"8. c #83C217",
"9. c #85C21B",
"0. c #88C41E",
"q. c #8AC324",
"w. c #8EC32C",
"e. c #87C220",
"r. c #8EC038",
"t. c #92C434",
"y. c #95C439",
"u. c #98C53E",
"i. c #9AC83D",
"p. c #97C83C",
"a. c #90C42C",
"s. c #84844C",
"d. c #8B834A",
"f. c #8B894D",
"g. c #84884C",
"h. c #9C8345",
"j. c #998949",
"k. c #92914F",
"l. c #829956",
"z. c #869755",
"x. c #959251",
"c. c #989C55",
"v. c #89914E",
"b. c #A38344",
"n. c #AD8442",
"m. c #AD8B46",
"M. c #AB8E48",
"N. c #A28E49",
"B. c #BB8740",
"V. c #BC8A42",
"C. c #B18743",
"Z. c #AC944B",
"A. c #A6974B",
"S. c #B39146",
"D. c #BD9345",
"F. c #B69D4D",
"G. c #BB9C4B",
"H. c #B59449",
"J. c #A09B52",
"K. c #86A746",
"L. c #89B649",
"P. c #95BD49",
"I. c #82A35C",
"U. c #8AAD5C",
"Y. c #84AA56",
"T. c #95AA5B",
"R. c #96AC5D",
"E. c #89B057",
"W. c #92B35D",
"Q. c #9DBE5B",
"!. c #95BB57",
"~. c #A6A748",
"^. c #BBA74E",
"/. c #A2B949",
"(. c #ACA655",
"). c #A7AC5A",
"_. c #B4AC57",
"`. c #B3AE58",
"'. c #B9AA53",
"]. c #A5B55D",
"[. c #ABBB5F",
"{. c #A8BB5B",
"}. c #B2B359",
"|. c #BCB458",
" X c #B4B85E",
".X c #B0B653",
"XX c #8FAE63",
"oX c #83A360",
"OX c #90AF62",
"+X c #8FB163",
"@X c #9BB865",
"#X c #97B363",
"$X c #A2BF63",
"%X c #AEBE60",
"&X c #A4BF6A",
"*X c #B3BF64",
"=X c #C48C41",
"-X c #CC8F40",
";X c #C39545",
":X c #CD9342",
">X c #CB9A46",
",X c #C69E4A",
"<X c #D09643",
"1X c #D19944",
"2X c #C4A44D",
"3X c #C5A84F",
"4X c #C0AB52",
"5X c #97C144",
"6X c #9BC544",
"7X c #9EC54B",
"8X c #9CC74B",
"9X c #98C055",
"0X c #A0C64D",
"qX c #A2C94D",
"wX c #A1CB47",
"eX c #A2C652",
"rX c #A6CC56",
"tX c #A8CB56",
"yX c #A7C65B",
"uX c #A9C65E",
"iX c #ABCB5D",
"pX c #A6C858",
"aX c #A4C264",
"sX c #ABC664",
"dX c #ACC962",
"fX c #AAC468",
"gX c #A7C268",
"hX c #B1C363",
/* pixels */
"1X1X1X1X1X1X1X1X1X1X1X1X1X1X1X1X1X1X1X1X1X1X1X1X1X1X1X1X1X1X1X1X1X1X1X1X1X1X1X1X1X1X<X-X5.4.q u < / ( +.XX&XaXqXy.q.8.8.0.9.9.9.",
"1X1X1X1X1X1X1X1X1X1X1X1X1X1X1X1X1X1X1X1X1X1X1X1X<X1X1X1X1X1X1X1X1X1X1X1X1X1X1X1X1X<X<X-X4.t q i y ( ] o.+XaXpXqXy.q.0.8.8.0.9.9.",
"1X1X1X1X1X1X1X1X1X1X1X<X1X1X1X1X1X1X<X>X1X1X1X1X1X1X1X1X1X1X1X1X1X1X1X1X1X1X1X1X<X<X<X7.5.t q h.f._ { o.U.9XeX6Xt.q.9.8.8.8.9.9.",
"1X1X1X1X1X1X1X1X1X1X1X1X1X1X1X1X1X1X1X1X1X1X1X1X1X1X1X1X1X1X1X1X1X1X1X1X1X1X<X<X<X-X7.5.t t q b.k.z.o.U.!.7X6Xy.a.0.8.8.0.@.9.9.",
"1X1X1X1X1X1X1X1X1X1X1X1X1X1X>X1X1X1X1X1X1X1X1X1X1X1X1X1X1X1X1X1X1X1X1X1X1X1X<X:X-X5.5.t t t s M.c.T.W.L.P.y.t.w.e.0.9.9.9.9.9.9.",
"1X1X<X>X1X1X1X1X1X1X1X1X1X1X1X<X1X1X1X1X1X1X1X1X1X1X1X1X1X1X1X1X1X1X1X1X1X1X:X:X6.4.t w e t =XH.(.].Q.7X5Xw.q.e.0.9.9.9.9.9.9.9.",
"1X1X1X1X1X1X1X1X1X1X1X1X1X1X1X1X1X1X1X1X>X<X1X1X1X1X1X1X1X1X1X1X1X1X1X1X1X1X:X=X=Xq s q w B.V.F.`. XyX8Xr.q.0.9.-.q.q.e.0.@.9.9.",
"1X1X1X1X1X1X1X1X1X1X1X1X1X1X1X1X1X1X1X1X1X1X1X1X1X1X1X1X1X1X>X<X1X1X1X1X1X1X;XD.C.b.b.b.m.S.^.'.*X*XuX0Xt.q.0.e.w.t.t.w.q.0.9.9.",
"1X1X1X1X1X1X1X1X1X1X1X1X1X1X1X1X1X1X1X1X1X1X1X1X1X1X1X1X1X1X1X1X1X1X1X1X1X1X>XS.j.f.f.k.c.(._. X*XhXiX8Xy.q.0.:.t.6X6Xy.w.q.8.8.",
"1X1X1X<X1X1X1X1X1X1X1X1X1X1X1X1X1X1X1X1X1X1X1X1X1X1X1X1X1X1X1X1X1X1X1X1X1X1X>XZ.j.W _ l.T.{.[.hXhXsXyX6Xt.q.q.t.6XeXeX6Xt.q.8.@.",
"1X1X1X1X1X1X1X1X1X1X1X1X1X1X<X1X1X1X1X1X1X1X1X1X1X1X1X1X1X1X1X1X1X1X1X1X1X1X;XA.g./ ) } U.@XdXdXdXuXeX6Xa.q.q.y.8XyXyX7Xt.q.0.8.",
"1X1X1X1X1X1X1X1X1X1X1X1X1X1X1X1X1X1X1X1X1X1X1X1X1X1X1X1X1X1X1X1X1X1X1X1X1X1X*.j.E T U ' +XaXdXdXtX0X6Xt.w.q.q.y.0XuXuX0Xy.w.8.8.",
"1X1X1X>X1X1X1X1X1X1X1X1X1X1X1X1X1X1X1X1X1X1X1X:X1X1X1X1X1X1X1X1X1X1X1X1X1X1XD.h.1 * > [ U.@XdXtXqXi.t.q.0.0.q.y.eXuXuX0Xy.q.@.8.",
"1X1X1X1X1X1X1X1X1X1X1X1X1X1X1X1X1X1X1X1X1X1X1X>X1X1X1X1X1X1X1X1X1X1X1X1X1X1X;Xh.1 o > T I.Q.yXqXi.w.:.0.@.0.q.y.7XyXyX0Xy.q.0.8.",
"1X1X1X1X1X1X1X1X1X1X<X1X1X>X1X1X1X1X1X1X1X1X1X1X1X1X1X1X1X1X1X1X1X1X1X1X1X1X1Xb.7 # , Y l.T.!.5Xt.q.8.8.8.8.q.t.6XeXeX6Xt.q.8.8.",
"<X1X1X1X1X1X1X1X1X1X1X1X1X1X1X1X1X1X1X1X1X1X1X1X1X1X1X1X1X1X1X1X1X1X1X1X1X1X1XB.8 @ O @ W l.K.K.;.@.8.8.8.8.q.w.y.6X6Xy.a.q.8.@.",
"1X1X1X1X1X1X1X1X>X1X1X1X1X1X1X1X1X1X1X1X1X1X1X1X1X1X1X1X1X1X1X1X1X1X1X1X1X1X:XV.0 0 7 p 1 R R n V @.@.8.8.8.0.0.w.t.t.w.q.0.@.9.",
"1X1X1X1X1X1X1X1X1X1X1X1X1X1X1X1X1X1X1X1X1X<X1X1X1X1X1X1X1X1X1X1X1X1X1X1X1X1X:X=X&.0 0 7 O # o l B Z 8.8.0.0.0.0.0.q.q.q.e.0.9.9.",
"1X1X1X1X1X1X1X1X1X1X1X1X1X1X1X1X1X1X1X1X1X1X1X1X1X1X1X1X1X1X1X1X1X1X1X1X1X:X-X=X&.%.i 7 + o o l B =.q.q.q.q.q.0.0.8.0.8.9.9.9.9.",
"1X1X1X1X1X1X1X1X1X1X1X1X1X1X1X1X1X1X1X1X1X1X1X1X1X1X1X1X1X1X1X1X1X1X<X<X:X:X=XV.n.b.y #.+ z l x H ,.t.i.t.y.t.a.q.0.9.8.9.9.9.9.",
"1X1X1X1X1X1X1X1X1X1X1X1X1X1X1X1X1X1X1X1X1X1X1X1X1X1X1X1X1X1X1X1X1X1X1X<X-X=Xs C.h.d.W m m c x V <.P.0X0XqX0X6Xy.w.0.8.@.8.@.9.8.",
"1X1X1X1X1X1X1X1X1X1X1X1X1X1X:X1X1X1X1X1X1X1X1X1X1X1X1X1X1X1X1X1X1X1X<X:X-Xt t a d.E R ^ F C =.,.P.0XyXiXyXyXeX6Xt.e.9.9.9.9.0.8.",
"1X>X1X1X1X1X1X1X1X1X1X1X1X1X1X1X1X1X1X1X1X1X1X1X1X1X1X1X1X1X1X1X<X:X-X-X5.t s i d.W W  .<.;.w.i.qXuXhXfX%X&XQ.P.r.q.0.9.9.9.8.0.",
"1X1X<X1X1X1X1X1X1X1X1X1X1X1X1X1X1X1X1X1X1X1X:X1X1X1X1X1X1X1X<X<X<X-X-X5.t t w s h.j.v.K.<.y.i.wXtXiXsX&X@X#XW.L.,.-.8.8.9.0.8.@.",
"1X1X1X1X1X1X1X1X1X1X1X1X1X1X1X1X1X1X1X1X1X1X1X1X1X1X1X1X1X1X1X:X-X5.5.t t t e q n.M.A.~.P.0XqXtXiXdXfX@XXXoXo...;.=.9.9.8.9.9.9.",
"1X1X1X1X1X1X1X<X1X1X1X>X1X1X1X1X1X1X1X1X1X1X1X1X1X1X1X1X1X<X:X:X=Xt t t t w w 4.=X;XG.^..X.XyXuXdXsXaXOXoX{ ^  .H -.9.8.0.9.9.9.",
"1X1X1X1X1X1X1X1X1X1X1X1X1X1X1X1X>X1X1X1X1X1X1X1X1X1X1X1X<X<X-X=XB.s w n.q B.V.=X:X,X2X^.}.[.$XaXaX$X#XU.} ' Q D V A 9.9.8.9.9.9.",
"1X<X1X1X1X1X1X1X1X1X1X1X1X1X1X1X1X1X1X1X1X1X1X1X1X1X1X<X:X:X=XB.n.a b.b.m.H.F.2X2X3X4X_.].R.XXXXOXOXU.Y...! D G S -.9.9.0.9.9.9.",
"1X1X1X1X1X1X1X1X1X1X1X1X1X1X1X1X1X1X1X1X1X1X1X1X1X1X<X<X7.6.=Xs h.d.g.k.J.(._.|.|.|.}.].OXl.} } +.} } .. .G S S A 0.9.9.9.9.9.9.",
"1X1X1X1X1X1X1X1X1X1X1X1X1X1X1X1X1X1X1X1X1X1X1X1X1X1X<X-X7.4.s a d.E _ } T.$X X*XhXhX[.R.I.{ ] ( ( ] ' ^ K S A @.9.9.9.9.9.9.9.9.",
"1X1X1X1X1X1X1X1X1X1X<X1X1X1X1X1X1X1X1X1X1X1X1X1X1X1X:X6.t w 0 u < / ( o.U.Q.yXsXdXsX$X#XoX{ ] ) [ T Q J S A 9.9.9.9.9.9.9.9.9.9.",
"1X1X1X1X1X1X1X1X1X1X1X1X1X1X1X1X1X1X1X1X1X1X1X<X:X7.4.t e r 9 y 1 ( [ | L.5XqXtXiXsXaX@XXXoX} | Q ! D G Z 9.8.8.8.8.8.9.9.9.9.9.",
"1X1X1X1X1X1X1X1X1X1X1X1X1X1X1X1X1X1X1X1X1X1X<X:X7.5.4.e 9 6 3 3 1 / [ O.X.r.5X8XrXdXaX&X@X#XU.K.X.K V Z f @.8.9.8.9.8.8.0.8.8.0.",
"1X1X1X1X1X1X1X1X1X1X1X1X1X1X1X1X1X1X1X1X1X1X:X-X7.&.w r 4 3 3 2 1 , T ! G w.w.p.0XyXfXfXaX$XQ.P.1.:.A f @.0.8.8.9.9.0.8.0.@.9.0.",
"1X1X1X1X1X1X1X1X1X1X1X1X1X1X1X1X1X1X<X1X1X<X:X-X6.*.%.r 6 6 5 2 , , I ! F S q.r.6X0XyXuXuXyXeX6Xt.q.0.9.0.q.q.q.q.q.q.0.0.0.@.9.",
"1X1X1X1X1X1X1X1X1X1X1X1X1X1X1X1X1X1X<X<X<X-X-X;X*.*.*.$.#.5 @ @ , ; I I b F L L P.6X8XqXqX0X6Xy.q.q.8.e.w.a.y.y.y.y.y.w.q.e.8.8.",
"1X1X1X1X1X1X1X1X1X1X1X1X1X1X1X1X1X1X1X<X7.5.-X;X^.'.~.~.3.#.c + o - = > I !  .K <.,.y.y.y.y.t.w.q.0.0.w.t.6X0X0XeX7X6Xy.w.q.8.8.",
"1X1X1X1X1X1X1X1X1X1X1X1X1X1X1X1X1X1X:X-X5.5.B.H.'..X{.6X2.>.>.c h .   = I I Q D L :.q.q.q.q.q.0.9.0.q.t.6XeXyXuXuXyXeX6Xr.q.0.8.",
"1X1X1X1X1X1X1X1X1X1X1X1X1X1X<X<X<X:X:X=X4.n.m.F.(.[.yXqXi.w.=.B l o . - I T Q J S -.0.8.8.0.0.0.0.q.w.u.7XyXfXsXdXyXeX6Xt.q.8.@.",
"1X1X1X1X1X1X1X1X1X1X1X1X1X<X<X<X<X-X=XB.s b.j.J.).sXdXrXwXi.,.H x l k k v n  .G Z @.8.8.8.8.-.q.w.t.i.7XyXdXsXsXyXeX6Xt.w.e.0.8.",
"1X1X1X1X1X1X1X1X1X1X1X1X1X1X<X<X7.5.=Xs i d.f.c.#X$XdXdXtXqX6X<.H B M B B G V S A @.9.8.8.9.0.w.1.6X0XyXdXsXdXyX7Xy.t.w.q.0.8.@.",
"1X1X>X1X1X1X1X1X<X<X1X1X1X1X:X-X5.5.q i y _ _ +.T.$XsXdXdXyXeXP.,.=.d d d A -.-.9.9.9.9.8.9.e.w.6XeXyXdXsXsXyX0Xy.t.q.q.@.0.0.8.",
">X;X;X:X:X<X1X<X:X:X:X1X1X1X,X;XV.n.s u < / ( | U.Q.uXiXdXdXuX8Xy.q.8.@.8.0.0.8.9.9.9.9.9.9.q.t.6XeXyXsXdXyXeX6Xt.q.0.8.0.8.0.8.",
"Z.Z.Z.H.D.-X-X7.-X-X;X>X2X3X2XF.M.b.u < , : U ~ K.P.0XyXdXdXuX0Xt.q.0.8.0.8.8.0.9.9.8.8.8.9.e.w.y.6X7X0X7X7X6Xt.w.@.8.8.@.8.@.0.",
"z.f.k.N.C.4.5.5.t 5.=X;X^.'._.).c.g.< , ; & > v J ,.y.wXyXdXdX0Xi.q.0.8.8.8.8.8.8.8.9.8.8.9.@.q.w.t.t.y.y.y.a.w.e.0.8.@.8.8.0.@.",
") _ E f.b.n.t t t &.=XD.'. X{.W.l._ / : $ $ X k B =.,.i.0XyXyX7Xt.q.0.8.8.0.0.8.9.9.@.0.9.9.0.e.q.q.q.q.q.:.q.q.@.0.0.8.8.0.0.8.",
"U : / < u b.q w w B.V.F.}.%X$XW.I.| I I X . o h M f q.t.6XeXeX6Xt.q.0.9.8.8.0.0.e.q.q.q.q.q.q.e.0.0.0.@.8.0.0.8.0.8.8.0.0.8.8.0.",
"= = : , < u h.b.m.S.^._. XhXaX9XY. .! b k h h c g f 0.w.i.6X6Xy.a.q.8.8.8.0.0.q.w.t.y.y.y.t.t.w.-.9.8.8.8.8.9.8.@.0.@.0.8.0.@.8.",
"= % & ; , E d.x.J.(._. XhXsXsX!.L.L G N N M M g d f 9.q.w.t.t.w.q.@.8.8.@.0.q.a.y.6X0X0X0X8X6Xy.w.9.8.8.8.8.8.0.@.8.8.0.@.8.0.@.",
"% % $ & : ) _ z.T.].%XhXsXsXyX7Xy.:.A d d d f f 9.9.0.0.q.q.q.e.0.0.8.@.8.8.q.t.6XeXyXuXuXyXeX6Xt.q.9.8.8.9.0.8.8.0.0.8.8.0.0.8.",
"    X X P I ' Y.W.aXdXdXsXuXeX6Xt.q.8.8.9.0.9.9.9.9.9.9.8.8.0.e.q.q.q.0.8.0.q.a.6XeXyXsXsXsXyX0Xu.a.q.0.0.@.9.@.0.9.0.@.0.8.8.0.",
"h j h v b n  .Y.Q.aXfXuXrX7X6Xy.a.0.0.0.8.8.8.0.9.9.9.8.@.9.9.q.w.t.t.w.q.q.q.w.y.6X0XyXsXsXsXyX0Xu.t.w.q.0.9.0.@.8.8.0.@.0.8.@.",
"c c M B B G L L.!.aXdXyX8Xu.t.w.q.0.8.9.9.0.8.0.9.9.9.9.8.8.0.q.t.6X6Xy.w.-.q.q.w.t.u.7XyXfXsXsXyXeX6Xy.,.0.8.8.@.0.8.@.8.0.@.8.",
"f f d @.d A :.y.7XyXyXeXu.a.q.@.@.0.0.8.8.8.0.8.9.9.9.9.8.9.q.t.6XeXeX6Xt.q.9.9.0.q.w.u.7XyXsXsXsXyXeX6Xt.q.0.8.8.8.0.0.0.8.8.0.",
"@.9.9.8.8.9.q.y.6XeXeX6Xt.q.0.8.0.8.0.8.0.8.0.@.9.9.9.9.e.q.w.u.0XyXyX0Xy.q.8.8.8.8.q.t.6XeXyXdXuXyXeX6Xa.q.8.9.8.0.0.8.8.0.0.@.",
"8.8.0.8.9.9.0.a.i.6X6Xy.w.q.8.8.8.8.@.0.8.0.8.0.9.9.0.q.w.r.6X8XyXfXuX0Xi.q.@.8.8.@.0.w.t.6X7X0X0X0X6Xy.a.q.@.9.@.8.8.0.@.8.0.8.",
"0.8.0.8.8.8.0.q.w.t.t.w.q.0.9.@.0.8.0.0.8.0.8.8.8.9.-.w.y.6XeXyXsXsXuX0Xy.q.0.@.8.9.9.-.w.t.y.y.y.y.t.w.q.0.0.8.8.0.8.0.@.8.0.@.",
"8.0.8.0.0.9.0.0.0.q.q.e.@.0.8.8.8.8.@.8.8.@.@.0.8.9.q.t.6XeXyXsXsXsXyX8Xt.q.9.8.9.9.9.0.q.q.q.q.q.q.q.q.0.0.@.0.0.8.0.8.8.0.0.8.",
"0.8.0.8.8.0.8.0.8.@.8.0.0.8.8.0.0.@.@.0.0.@.8.8.9.9.q.t.6XeXyXuXsXyXeX6Xt.q.9.8.0.9.0.8.8.0.0.8.0.0.@.8.@.8.8.8.@.8.0.0.0.8.8.0.",
"9.0.8.@.9.9.8.@.8.0.8.0.8.8.@.0.0.8.8.0.8.0.0.8.8.9.q.w.y.6X0X0X0X6X6Xy.w.q.0.8.8.8.@.9.8.8.@.8.8.@.0.8.8.0.@.9.8.0.8.@.@.0.8.@.",
"9.9.9.9.@.8.8.9.8.8.9.9.0.0.8.0.8.0.0.8.0.8.8.0.0.@.0.q.a.t.t.y.t.t.t.w.q.0.8.8.0.8.0.0.9.9.8.@.9.8.9.9.@.8.8.9.8.@.8.0.8.0.@.8.",
"9.9.9.9.9.9.0.0.8.@.9.0.@.8.8.@.8.@.@.8.8.@.0.8.8.0.0.0.q.q.q.q.q.q.q.q.0.@.@.0.8.8.@.8.9.0.8.0.9.9.9.9.9.9.0.0.8.0.0.8.0.8.8.0.",
"9.9.9.9.0.0.0.0.0.0.@.8.8.0.0.8.0.0.@.0.0.@.0.@.@.0.@.8.9.9.8.0.0.@.8.9.8.0.9.9.9.@.9.9.9.9.0.8.9.9.9.9.9.9.9.9.0.0.0.@.@.0.0.@.",
"9.9.9.9.8.8.@.8.8.@.0.8.0.@.8.0.8.0.8.8.0.8.8.0.8.8.0.8.8.8.@.8.8.8.8.@.0.8.9.9.9.9.9.9.9.9.8.8.@.9.9.9.9.9.9.0.8.@.8.0.8.8.0.8."
};
